M48
;Layer_Color=9474304
;FILE_FORMAT=2:5
INCH,LZ
;TYPE=PLATED
T1F00S00C0.01200
T2F00S00C0.02756
T4F00S00C0.03543
T5F00S00C0.03937
%
T01
X011Y0133
X0118Y01295
X0129532Y0141032
X0129532Y0144968
X0133468Y0144968
X0133468Y0141032
X0142Y01375
X01465Y0129
X01575Y0143634
X0163Y0144
X01705
X0177Y0143
X01805Y0149
X01875Y01495
Y01535
X01885Y0143
X01965Y01445
X01995Y0142636
X0203Y0143
X0207Y01445
X02055Y0153
X02115
X01995
X01945Y01475
X0193Y01285
X0198
X0203Y0126
X02125Y01245
X0216Y0131
X02135Y0136
X0221031Y0137469
X0224Y01455
X02275Y0152
X0230968Y0152032
X0243032Y0153032
X02515Y01515
X0257
Y0146
Y01405
X02505Y0138
X0245Y0132
X02445Y01235
X0224532Y0124031
X0185Y0126
X0183Y0121
X0179
X01595Y01525
X0275Y01315
X0257Y0157
X0252532Y0159031
X0252Y0169
X0257
Y01745
Y018
X02515
X02455
X024
X02345
Y0174
Y01685
X02385Y01675
X0243032Y0170468
X023Y01665
X02245Y01735
X02225Y0176
X0222Y01795
X02055Y01785
X0202Y01785
X01985
X0206Y01833
X02045Y01865
X0207Y01895
X021Y01935
X0214Y0201
Y02105
X0215Y0214
Y0219
X0223118Y02228
X0223018Y0227
X02265Y0228
X0235531Y0226
Y0232
X0241531
X0247532
Y0226
Y022
X0241531
X0235531
X0241531Y0226
X0246Y02075
X025Y02105
X0253Y02075
X02545Y0214
X0260469Y0217969
X0260963Y0221168
X02656Y02279
X0263Y02365
X0258032Y0236
X0254031Y02465
X0253Y0253
X0248468Y0253969
X0248532Y025
X0249Y0259
X02445Y02605
Y02655
X0249Y02685
X0253Y02665
X0258
Y02615
X02575Y02565
X0258Y02505
X02635Y02615
Y02665
X0269
Y02615
X02745
Y02665
X028
Y02615
X02855
Y02665
X0291
Y02615
X0291531Y02455
X02895Y02385
X02835Y02295
Y0224
X0283Y02195
Y02145
X028Y02015
X0271Y0206
X02685Y02105
X0264Y0198
X0255Y01945
Y01845
X0242Y01995
X024Y0204
X023Y02
Y0193
X0229Y02115
X022365Y021415
X0212032Y0229
Y0232
X02025Y0229
X0203Y0223
X0198Y0221
X0192Y022
X0182Y0223
Y02295
X01755
X0169
Y0223
Y02165
X01755
X0182
X018489Y020661
X0184Y0198
X01875
X0191969Y0202031
X0179Y0202
Y01985
X0177Y01955
X01725Y01925
X0173Y018
X01815Y01825
X0179Y0175
X01815Y01685
X0189Y0173
X01875Y01575
X01995Y0159
X02055
X02115
Y0165
X02055
X01995
X0169Y0171
X01615Y01735
X01575Y01795
X0166642Y020661
X01755Y0223
X016861Y023889
X01705Y02455
X01775
X0181Y02475
X0182Y02545
X0183Y0259
X01725Y0265
X0171953Y0269047
X01625Y0265454
X01665Y0253
X01735Y025
X016Y0243
X01565Y0244969
X01895Y02435
X0192Y02345
X0205532Y02465
X0214469Y0249969
X0223532Y0247
X0222579Y02415
X0232031Y025
X0232031Y0253969
X0232Y02575
X02315Y02615
Y0266
X0236
Y02615
X0226Y0266
X02205
X0215
X02095
X0204
X0181Y02765
X0277063Y0248468
X0273488Y0237988
X02945Y0206
X0155Y0209
X0151Y0213
X01455Y02075
X0148031Y0203532
X01475Y0199
X0145Y01955
X0155Y02
X01325Y01985
X01305Y02055
X01345Y0206
X0134Y02105
X0136157Y0212869
X01325Y0215
Y02195
Y02275
X01435Y02275
Y02305
X01515Y02335
X0141Y02185
X0139953Y0180047
X01325Y01785
X0149858Y0179642
X01475Y0166189
X0148Y0161
X0152Y01605
Y02625
X014837Y026487
X014337Y0260382
X01395Y02635
X01305Y0262
Y0268
X0133709Y027063
X01305Y0255
Y0248
T02
X0114795Y0177953
Y0197047
T04
X0272Y0181
Y0191
T05
X0104Y01475
X0112Y01415
Y01535
M30
