%FSLAX25Y25*%
%MOIN*%
G70*
G01*
G75*
G04 Layer_Physical_Order=1*
G04 Layer_Color=255*
%ADD10R,0.05512X0.04724*%
%ADD11R,0.04331X0.07480*%
%ADD12R,0.05315X0.01575*%
%ADD13R,0.09449X0.02992*%
%ADD14R,0.05118X0.02756*%
%ADD15O,0.03347X0.01102*%
%ADD16O,0.01102X0.03347*%
%ADD17R,0.06693X0.06693*%
%ADD18R,0.16535X0.16535*%
%ADD19O,0.02900X0.01100*%
%ADD20O,0.01100X0.02900*%
%ADD21R,0.15748X0.15748*%
%ADD22R,0.17606X0.17606*%
%ADD23O,0.03347X0.01102*%
%ADD24O,0.01102X0.03347*%
%ADD25R,0.04724X0.04724*%
%ADD26R,0.04921X0.07874*%
%ADD27R,0.02756X0.03543*%
%ADD28R,0.02756X0.00984*%
%ADD29R,0.02402X0.08661*%
%ADD30R,0.05512X0.04331*%
%ADD31R,0.01181X0.01181*%
%ADD32R,0.01181X0.01181*%
%ADD33R,0.02362X0.01969*%
%ADD34R,0.01969X0.02362*%
%ADD35R,0.02756X0.03543*%
%ADD36R,0.03543X0.02756*%
%ADD37R,0.02992X0.09449*%
%ADD38R,0.04331X0.05512*%
%ADD39R,0.04724X0.04724*%
%ADD40R,0.07480X0.04331*%
%ADD41C,0.01200*%
%ADD42C,0.02000*%
%ADD43C,0.01000*%
%ADD44C,0.01500*%
%ADD45O,0.06299X0.04724*%
%ADD46C,0.04724*%
%ADD47R,0.06299X0.06299*%
%ADD48C,0.06299*%
%ADD49R,0.07480X0.07480*%
%ADD50C,0.07480*%
%ADD51C,0.02400*%
%ADD52C,0.03150*%
G36*
X101391Y171044D02*
X101746Y170772D01*
X101669Y170272D01*
X101669D01*
X101669Y170272D01*
Y168000D01*
X104047D01*
Y167000D01*
X101669D01*
Y164728D01*
Y163500D01*
X104047D01*
Y162500D01*
X101669D01*
Y160228D01*
X102868D01*
X102917Y159985D01*
X103182Y159588D01*
X104635Y158135D01*
X105032Y157870D01*
X105500Y157776D01*
X111160D01*
X111192Y157276D01*
X110995Y157250D01*
X110059Y156863D01*
X109254Y156246D01*
X108637Y155441D01*
X108249Y154505D01*
X108117Y153500D01*
X108249Y152495D01*
X108637Y151559D01*
X109254Y150754D01*
X110059Y150137D01*
X110995Y149750D01*
X112000Y149617D01*
X113005Y149750D01*
X113941Y150137D01*
X114746Y150754D01*
X115363Y151559D01*
X115751Y152495D01*
X115883Y153500D01*
X115751Y154505D01*
X115363Y155441D01*
X114746Y156246D01*
X113941Y156863D01*
X113005Y157250D01*
X112808Y157276D01*
X112840Y157776D01*
X113993D01*
X116977Y154793D01*
X116786Y154331D01*
X116728D01*
Y152453D01*
X122272D01*
Y152699D01*
X122734Y152890D01*
X127272Y148353D01*
Y147685D01*
X127282Y147631D01*
X126869Y147218D01*
X126815Y147228D01*
X124571D01*
X124309Y147176D01*
X121972D01*
Y148125D01*
X117028D01*
Y143969D01*
X120365D01*
X120556Y143507D01*
X116612Y139563D01*
X116150Y139754D01*
Y141000D01*
X112500D01*
Y137350D01*
X113746D01*
X113937Y136889D01*
X112282Y135233D01*
X108000D01*
X107337Y135101D01*
X106774Y134726D01*
X104822Y132773D01*
X104446Y132211D01*
X104314Y131547D01*
Y131456D01*
X103182D01*
Y124544D01*
X108787D01*
Y124244D01*
X115118D01*
Y127500D01*
X111953D01*
Y128500D01*
X115118D01*
Y128714D01*
X115611Y129207D01*
X116154Y129043D01*
X116210Y128759D01*
X116630Y128130D01*
X117259Y127710D01*
X118000Y127563D01*
X118173Y127597D01*
X118635Y127135D01*
X119032Y126870D01*
X119500Y126777D01*
X119969D01*
Y125528D01*
X124083D01*
X124144Y125222D01*
X124410Y124825D01*
X126671Y122563D01*
X127068Y122298D01*
X127536Y122205D01*
X134381D01*
X134849Y122298D01*
X135246Y122563D01*
X136711Y124028D01*
X139528D01*
Y123969D01*
X142348D01*
X143682Y122635D01*
X144079Y122370D01*
X144547Y122276D01*
X168453D01*
X168921Y122370D01*
X169318Y122635D01*
X170152Y123469D01*
X172972D01*
Y124324D01*
X173528D01*
Y123469D01*
X178472D01*
Y127347D01*
X179086Y127962D01*
X179548Y127771D01*
Y123338D01*
X179184Y122901D01*
X179000Y122937D01*
X178259Y122790D01*
X177630Y122370D01*
X177210Y121741D01*
X177063Y121000D01*
X177210Y120259D01*
X177383Y120000D01*
X177116Y119500D01*
X100500D01*
Y144916D01*
X101000Y145086D01*
X101254Y144754D01*
X102059Y144137D01*
X102995Y143749D01*
X104000Y143617D01*
X105005Y143749D01*
X105941Y144137D01*
X106746Y144754D01*
X107350Y145543D01*
X107403Y145548D01*
X107850Y145430D01*
Y142000D01*
X111500D01*
Y145650D01*
X107941D01*
X107557Y146028D01*
X107750Y146495D01*
X107883Y147500D01*
X107750Y148505D01*
X107363Y149441D01*
X106746Y150246D01*
X105941Y150863D01*
X105005Y151251D01*
X104000Y151383D01*
X102995Y151251D01*
X102059Y150863D01*
X101254Y150246D01*
X101000Y149914D01*
X100500Y150084D01*
Y171392D01*
X101000Y171554D01*
X101391Y171044D01*
D02*
G37*
G36*
X199084Y192815D02*
X191635Y185365D01*
X191370Y184968D01*
X191277Y184500D01*
Y176015D01*
X191370Y175547D01*
X191635Y175150D01*
X192426Y174358D01*
Y167130D01*
X192375Y166874D01*
X192424Y166629D01*
X192088Y166129D01*
X191063D01*
X190702Y166421D01*
Y167816D01*
X190850D01*
Y171184D01*
X190702D01*
Y172127D01*
X190790Y172259D01*
X190937Y173000D01*
X190790Y173741D01*
X190733Y173826D01*
Y174047D01*
X190601Y174711D01*
X190226Y175273D01*
X189956Y175543D01*
Y179287D01*
X190256D01*
Y181953D01*
X186500D01*
Y182453D01*
X186000D01*
Y185618D01*
X182744D01*
Y184870D01*
X182244Y184595D01*
X182000Y184644D01*
Y182500D01*
Y180356D01*
X182244Y180405D01*
X182744Y180130D01*
Y179287D01*
X183044D01*
Y173682D01*
X186754D01*
X187116Y173265D01*
X187063Y173000D01*
X187210Y172259D01*
X187235Y172221D01*
Y171551D01*
X186913Y171184D01*
Y171184D01*
X185799D01*
X184357Y172626D01*
X183795Y173001D01*
X183132Y173133D01*
X180526D01*
X180370Y173630D01*
X180790Y174259D01*
X180937Y175000D01*
X180790Y175741D01*
X180370Y176370D01*
X179741Y176790D01*
X179000Y176937D01*
X178259Y176790D01*
X178021Y176631D01*
X177703Y177020D01*
X177865Y177182D01*
X178130Y177579D01*
X178224Y178047D01*
Y182493D01*
X178875Y183145D01*
X179147Y183000D01*
X181000D01*
Y184853D01*
X180855Y185125D01*
X182959Y187229D01*
X191500D01*
X191968Y187322D01*
X192365Y187588D01*
X198054Y193277D01*
X198893D01*
X199084Y192815D01*
D02*
G37*
G36*
X256042Y216245D02*
X256016Y216213D01*
Y216213D01*
X255516Y215967D01*
X255358Y216072D01*
X255000Y216144D01*
Y214000D01*
Y211856D01*
X255358Y211928D01*
X255516Y212033D01*
X256016Y211850D01*
Y211850D01*
X257500D01*
Y214032D01*
X258000D01*
Y214531D01*
X259984D01*
Y215734D01*
X260371Y216051D01*
X260469Y216031D01*
X261210Y216179D01*
X261776Y216557D01*
X262039Y216487D01*
X262277Y216354D01*
Y204507D01*
X261493Y203724D01*
X257000D01*
X256532Y203630D01*
X256135Y203365D01*
X254221Y201451D01*
X254214Y201444D01*
X254214Y201444D01*
X254135Y201365D01*
X254059Y201253D01*
X253928Y201062D01*
Y201062D01*
X253928Y201062D01*
X247804D01*
Y199223D01*
X246453D01*
X245985Y199130D01*
X245588Y198865D01*
X244194Y197472D01*
X243284D01*
X243133Y197972D01*
X243370Y198130D01*
X243790Y198759D01*
X243937Y199500D01*
X243790Y200241D01*
X243370Y200870D01*
X243224Y200968D01*
Y202099D01*
X244197Y203072D01*
X244356Y203310D01*
X244462Y203469D01*
X244555Y203937D01*
Y205579D01*
X245055Y205846D01*
X245259Y205710D01*
X246000Y205563D01*
X246741Y205710D01*
X247370Y206130D01*
X247790Y206759D01*
X247806Y206840D01*
X248284Y206985D01*
X248635Y206635D01*
X249032Y206370D01*
X249500Y206276D01*
X251532D01*
X251630Y206130D01*
X252259Y205710D01*
X253000Y205563D01*
X253741Y205710D01*
X254370Y206130D01*
X254790Y206759D01*
X254937Y207500D01*
X254790Y208241D01*
X254370Y208870D01*
X253741Y209290D01*
X253000Y209437D01*
X252259Y209290D01*
X251932Y209071D01*
X251571Y209432D01*
X251790Y209759D01*
X251937Y210500D01*
X251790Y211241D01*
X251370Y211870D01*
X251223Y211968D01*
Y213555D01*
X251130Y214023D01*
X250865Y214420D01*
X250680Y214605D01*
Y215950D01*
X250630Y216201D01*
X250849Y216701D01*
X251349Y216740D01*
X251582Y216694D01*
X253382D01*
X253638Y216745D01*
X255801D01*
X256042Y216245D01*
D02*
G37*
G36*
X228966Y139135D02*
X229363Y138870D01*
X229832Y138777D01*
X232190D01*
X232544Y138423D01*
Y137280D01*
X232544Y136938D01*
X232544Y136938D01*
X232560Y136787D01*
X232560D01*
X232560Y136787D01*
Y132755D01*
X230184D01*
Y133287D01*
X230484D01*
Y134968D01*
X228500D01*
Y135468D01*
X228000D01*
Y137650D01*
X226516D01*
Y136692D01*
X223538D01*
X223262Y136969D01*
X221031D01*
Y137969D01*
X223175D01*
X223104Y138327D01*
X222618Y139055D01*
X222255Y139297D01*
Y140016D01*
X223213D01*
Y140316D01*
X226850D01*
Y140598D01*
X227311Y140790D01*
X228966Y139135D01*
D02*
G37*
G36*
X157000Y242825D02*
X157358Y242896D01*
X157583Y243046D01*
X157641Y243040D01*
X158104Y242793D01*
X158210Y242259D01*
X158630Y241630D01*
X159259Y241210D01*
X159674Y241128D01*
X161316Y239485D01*
Y237650D01*
X161442D01*
Y232828D01*
X160980Y232636D01*
X158308Y235309D01*
Y236947D01*
X158215Y237416D01*
X157949Y237812D01*
X154684Y241077D01*
Y242787D01*
X154984D01*
Y242805D01*
X155425Y243041D01*
X155642Y242896D01*
X156000Y242825D01*
Y244969D01*
X157000D01*
Y242825D01*
D02*
G37*
G36*
X122980Y268409D02*
X107468D01*
Y261717D01*
X117862D01*
Y259748D01*
Y251874D01*
Y249905D01*
X107468D01*
Y243213D01*
X117862D01*
Y241244D01*
Y231402D01*
X107468D01*
Y224709D01*
X126797D01*
Y222740D01*
X107468D01*
Y217228D01*
X126797D01*
Y213685D01*
X105500D01*
Y217228D01*
Y222740D01*
Y224709D01*
Y231402D01*
Y233370D01*
X115894D01*
Y241244D01*
X105500D01*
Y249905D01*
Y251874D01*
X115894D01*
Y259748D01*
X105500D01*
Y261717D01*
Y268409D01*
Y270378D01*
X122980D01*
Y268409D01*
D02*
G37*
G36*
X133000Y212856D02*
X133358Y212928D01*
X133549Y212708D01*
X133297Y212297D01*
X133259Y212290D01*
X132630Y211870D01*
X132210Y211241D01*
X132063Y210500D01*
X132210Y209759D01*
X132630Y209130D01*
X133259Y208710D01*
X133891Y208584D01*
X134081Y208364D01*
X134026Y208043D01*
X133879Y207814D01*
X133759Y207790D01*
X133130Y207370D01*
X132814Y206897D01*
X132328Y206839D01*
X132236Y206862D01*
X132086Y207086D01*
X131358Y207572D01*
X131000Y207644D01*
Y205500D01*
Y203356D01*
X131358Y203428D01*
X132086Y203914D01*
X132547Y204603D01*
X132769Y204659D01*
X133091Y204688D01*
X133130Y204630D01*
X133759Y204210D01*
X134500Y204063D01*
X134673Y204097D01*
X143097Y195673D01*
X143063Y195500D01*
X143210Y194759D01*
X143630Y194130D01*
X144259Y193710D01*
X145000Y193563D01*
X145741Y193710D01*
X146370Y194130D01*
X146790Y194759D01*
X146937Y195500D01*
X146790Y196241D01*
X146370Y196870D01*
X146649Y197283D01*
X146759Y197210D01*
X147500Y197063D01*
X148241Y197210D01*
X148870Y197630D01*
X149290Y198259D01*
X149437Y199000D01*
X149290Y199741D01*
X148870Y200370D01*
X148241Y200790D01*
X147500Y200937D01*
X146759Y200790D01*
X146130Y200370D01*
X145662Y200569D01*
X136089Y210141D01*
X136109Y210286D01*
X136286Y210651D01*
X137015Y210796D01*
X137382Y211041D01*
X137882Y210774D01*
Y209244D01*
X140547D01*
Y213000D01*
X141547D01*
Y209244D01*
X143825D01*
X143888Y209167D01*
X144046Y208744D01*
X143710Y208241D01*
X143563Y207500D01*
X143710Y206759D01*
X144130Y206130D01*
X144759Y205710D01*
X145500Y205563D01*
X146241Y205710D01*
X146870Y206130D01*
X147290Y206759D01*
X147437Y207500D01*
X147290Y208241D01*
X146870Y208870D01*
X146609Y209044D01*
X146761Y209544D01*
X148396D01*
X148816Y209350D01*
Y205913D01*
X148816Y205822D01*
X148410Y205412D01*
X148316Y205412D01*
X148031Y205469D01*
X147290Y205321D01*
X146662Y204901D01*
X146242Y204273D01*
X146094Y203532D01*
X146242Y202790D01*
X146662Y202162D01*
X147290Y201742D01*
X148031Y201594D01*
X148316Y201651D01*
X148816Y201650D01*
X148816Y201650D01*
X148816Y201650D01*
X152184D01*
Y203285D01*
X152233Y203532D01*
X152184Y203778D01*
Y204977D01*
X152184Y205413D01*
X152658Y205476D01*
X152793D01*
X154666Y203603D01*
X155063Y203338D01*
X155532Y203245D01*
X156369D01*
X156418Y202745D01*
X156079Y202678D01*
X155682Y202412D01*
X155500Y202230D01*
Y200000D01*
Y197856D01*
X155858Y197928D01*
X156586Y198414D01*
X156867Y198834D01*
X157228Y199169D01*
Y199169D01*
X159500D01*
Y201547D01*
X160500D01*
Y198901D01*
X161016Y198798D01*
X162390D01*
X162441Y198616D01*
X162496Y198358D01*
X162261Y197874D01*
X159229D01*
X158761Y197781D01*
X158602Y197675D01*
X158364Y197516D01*
X156789Y195940D01*
X151213D01*
Y187060D01*
X150769Y186925D01*
X147449D01*
X141437Y192937D01*
X141007Y193225D01*
X140500Y193325D01*
X138549D01*
X137826Y194049D01*
Y198248D01*
X137725Y198755D01*
X137437Y199185D01*
X134535Y202087D01*
X134105Y202375D01*
X133598Y202476D01*
X131402D01*
X130895Y202375D01*
X130465Y202087D01*
X125063Y196685D01*
X124775Y196255D01*
X124674Y195748D01*
Y193472D01*
X120969D01*
Y191283D01*
X117858D01*
Y191546D01*
Y194106D01*
X116813D01*
X116643Y194606D01*
X116979Y194863D01*
X117470Y195503D01*
X117779Y196248D01*
X117884Y197047D01*
X117779Y197847D01*
X117470Y198592D01*
X116979Y199231D01*
X116340Y199722D01*
X115595Y200031D01*
X114795Y200136D01*
X114232Y200062D01*
X112256Y202038D01*
X112447Y202500D01*
X126000D01*
X127980Y204480D01*
X128018Y204494D01*
X128069Y204505D01*
X128500Y204533D01*
X128914Y203914D01*
X129642Y203428D01*
X130000Y203356D01*
Y205500D01*
Y207644D01*
X129642Y207572D01*
X128914Y207086D01*
X128500Y206467D01*
X128000Y206576D01*
Y213826D01*
X128970D01*
Y214351D01*
X130386D01*
X130428Y214142D01*
X130914Y213414D01*
X131642Y212928D01*
X132000Y212856D01*
Y215000D01*
X133000D01*
Y212856D01*
D02*
G37*
G36*
X221871Y214966D02*
X221857Y214877D01*
X221712Y214150D01*
X221860Y213408D01*
X222280Y212780D01*
X222908Y212360D01*
X223650Y212212D01*
X224391Y212360D01*
X225019Y212780D01*
X225117Y212926D01*
X227066D01*
X227334Y212426D01*
X227210Y212241D01*
X227063Y211500D01*
X227210Y210759D01*
X227630Y210130D01*
X228259Y209710D01*
X229000Y209563D01*
X229741Y209710D01*
X230370Y210130D01*
X230468Y210277D01*
X233554D01*
X234022Y210370D01*
X234419Y210635D01*
X235562Y211778D01*
X236090Y211599D01*
X236123Y211353D01*
X233135Y208365D01*
X232870Y207968D01*
X232776Y207500D01*
Y193000D01*
X232870Y192532D01*
X233135Y192135D01*
X235469Y189800D01*
Y188224D01*
X229552D01*
X218365Y199411D01*
X217968Y199676D01*
X217500Y199769D01*
X216379D01*
X216098Y200269D01*
X216144Y200500D01*
X211856D01*
X211902Y200269D01*
X211621Y199769D01*
X204964D01*
X204849Y200049D01*
X204820Y200269D01*
X205537Y200986D01*
X205825Y201416D01*
X205925Y201923D01*
Y214297D01*
X206387Y214488D01*
X207741Y213135D01*
X208138Y212870D01*
X208606Y212776D01*
X212547D01*
X212699Y212277D01*
X212414Y212086D01*
X211928Y211358D01*
X211856Y211000D01*
X216144D01*
X216072Y211358D01*
X215832Y211718D01*
X215743Y212200D01*
X215961Y212357D01*
X216370Y212630D01*
X216790Y213259D01*
X216937Y214000D01*
X216790Y214741D01*
X216700Y214877D01*
X216967Y215376D01*
X221590D01*
X221871Y214966D01*
D02*
G37*
G36*
X293122Y138409D02*
X265563D01*
Y150221D01*
X285248D01*
Y148252D01*
X267531D01*
Y140378D01*
X291154D01*
Y158095D01*
X293122D01*
Y138409D01*
D02*
G37*
G36*
X164052Y172542D02*
Y162318D01*
X162016D01*
Y162202D01*
X160684D01*
Y162350D01*
X158849D01*
X156786Y164412D01*
X156389Y164678D01*
X155921Y164771D01*
X149439D01*
X149172Y165271D01*
X149290Y165448D01*
X149437Y166189D01*
X149403Y166362D01*
X150397Y167355D01*
X151299D01*
Y166169D01*
X153000D01*
Y171500D01*
X154000D01*
Y166169D01*
X155701D01*
Y167055D01*
X156904D01*
X158792Y165166D01*
X159189Y164901D01*
X159516Y164836D01*
Y163850D01*
X161000D01*
Y166032D01*
X161500D01*
Y166532D01*
X163484D01*
Y168213D01*
X163184D01*
Y171850D01*
X163184Y171850D01*
X163184D01*
X163016Y172350D01*
X163238Y172680D01*
X163743Y172801D01*
X164052Y172542D01*
D02*
G37*
G36*
X249500Y266356D02*
X249858Y266428D01*
X250290Y266716D01*
X250536Y266602D01*
X250770Y266435D01*
X250928Y265642D01*
X251414Y264914D01*
X252142Y264428D01*
X252500Y264356D01*
Y266500D01*
X253000D01*
Y267000D01*
X255144D01*
X255072Y267358D01*
X254938Y267559D01*
X255174Y268000D01*
X255826D01*
X256062Y267559D01*
X255928Y267358D01*
X255856Y267000D01*
X260144D01*
X260072Y267358D01*
X259938Y267559D01*
X260174Y268000D01*
X261326D01*
X261562Y267559D01*
X261428Y267358D01*
X261356Y267000D01*
X265644D01*
X265572Y267358D01*
X265438Y267559D01*
X265674Y268000D01*
X266826D01*
X267062Y267559D01*
X266928Y267358D01*
X266856Y267000D01*
X271144D01*
X271072Y267358D01*
X270938Y267559D01*
X271174Y268000D01*
X272326D01*
X272562Y267559D01*
X272428Y267358D01*
X272356Y267000D01*
X276644D01*
X276572Y267358D01*
X276438Y267559D01*
X276674Y268000D01*
X277826D01*
X278062Y267559D01*
X277928Y267358D01*
X277856Y267000D01*
X282144D01*
X282072Y267358D01*
X281938Y267559D01*
X282174Y268000D01*
X283326D01*
X283562Y267559D01*
X283428Y267358D01*
X283356Y267000D01*
X287644D01*
X287572Y267358D01*
X287438Y267559D01*
X287674Y268000D01*
X288826D01*
X289062Y267559D01*
X288928Y267358D01*
X288856Y267000D01*
X293144D01*
X293072Y267358D01*
X292938Y267559D01*
X293174Y268000D01*
X295646D01*
X296000Y267646D01*
X296000Y207884D01*
X295500Y207617D01*
X295241Y207790D01*
X294500Y207937D01*
X293759Y207790D01*
X293531Y207637D01*
X293031Y207905D01*
Y208472D01*
X288875D01*
Y203528D01*
X293031D01*
Y204095D01*
X293531Y204363D01*
X293759Y204210D01*
X294500Y204063D01*
X295241Y204210D01*
X295500Y204383D01*
X296000Y204116D01*
Y177000D01*
X276740D01*
Y180500D01*
X267260D01*
Y177000D01*
X260000D01*
Y163609D01*
X259646Y163255D01*
X258350D01*
Y166184D01*
X254587D01*
Y166184D01*
X254413D01*
Y166184D01*
X250650D01*
Y165724D01*
X248881D01*
Y166184D01*
X248850D01*
Y169184D01*
X245588D01*
X245213Y169484D01*
D01*
X245179Y169968D01*
X245179Y169968D01*
X240884D01*
X240850Y169484D01*
X240850Y169484D01*
X240850Y169484D01*
Y168842D01*
X240350Y168691D01*
X240086Y169086D01*
X239358Y169572D01*
X239000Y169644D01*
Y167500D01*
X238000D01*
Y169644D01*
X237642Y169572D01*
X237110Y169217D01*
X236601Y169351D01*
X236547Y169396D01*
X236086Y170086D01*
X235358Y170572D01*
X235000Y170644D01*
Y168500D01*
X234500D01*
Y168000D01*
X232356D01*
X232428Y167642D01*
X232914Y166914D01*
X233258Y166684D01*
X233106Y166184D01*
X232682D01*
Y163931D01*
X232216Y163850D01*
X232216Y163850D01*
X232216Y163850D01*
X228847D01*
Y163184D01*
X225622D01*
X225405Y163432D01*
X225398Y163684D01*
X225630Y164032D01*
X225724Y164500D01*
Y164650D01*
X226184D01*
Y165277D01*
X228532D01*
X228630Y165130D01*
X229259Y164710D01*
X230000Y164563D01*
X230741Y164710D01*
X231370Y165130D01*
X231790Y165759D01*
X231937Y166500D01*
X231790Y167241D01*
X231370Y167870D01*
X230741Y168290D01*
X230000Y168437D01*
X229259Y168290D01*
X228630Y167870D01*
X228532Y167724D01*
X226184D01*
Y168287D01*
X226484D01*
Y169968D01*
X224500D01*
Y170968D01*
X226484D01*
Y172510D01*
X226572Y172642D01*
X226644Y173000D01*
X224500D01*
Y174000D01*
X226644D01*
X226572Y174358D01*
X226086Y175086D01*
X225358Y175572D01*
X224500Y175743D01*
X224391Y176231D01*
X224290Y176741D01*
X223870Y177370D01*
X223586Y177559D01*
Y177914D01*
X224072Y178642D01*
X224144Y179000D01*
X222000D01*
Y179500D01*
X221500D01*
Y181644D01*
X221500Y181644D01*
X221272Y181831D01*
Y181831D01*
X219000D01*
Y179453D01*
X218000D01*
Y181831D01*
X216650D01*
Y182500D01*
X214469D01*
Y183500D01*
X216699D01*
X217943Y184744D01*
X220618D01*
Y188000D01*
X217453D01*
Y189000D01*
X220618D01*
Y190498D01*
X221080Y190690D01*
X227635Y184135D01*
X227873Y183976D01*
X228032Y183870D01*
X228500Y183776D01*
X253207D01*
X253210Y183759D01*
X253630Y183130D01*
X254259Y182710D01*
X255000Y182563D01*
X255741Y182710D01*
X256370Y183130D01*
X256790Y183759D01*
X256937Y184500D01*
X256790Y185241D01*
X256727Y185336D01*
X256962Y185776D01*
X264000D01*
X264468Y185870D01*
X264865Y186135D01*
X267554Y188824D01*
X268078Y188766D01*
X268155Y188717D01*
X268833Y187833D01*
X269761Y187121D01*
X270841Y186674D01*
X272000Y186521D01*
X273159Y186674D01*
X274239Y187121D01*
X275167Y187833D01*
X275879Y188761D01*
X276326Y189841D01*
X276479Y191000D01*
X276326Y192159D01*
X275879Y193239D01*
X275167Y194167D01*
X274239Y194878D01*
X273159Y195326D01*
X272000Y195478D01*
X270841Y195326D01*
X269761Y194878D01*
X268833Y194167D01*
X268757Y194067D01*
X268283Y194228D01*
Y200004D01*
X268190Y200472D01*
X267925Y200869D01*
X266723Y202071D01*
Y208907D01*
X267224Y209068D01*
X267759Y208710D01*
X268500Y208563D01*
X269241Y208710D01*
X269870Y209130D01*
X270290Y209759D01*
X270437Y210500D01*
X270290Y211241D01*
X269870Y211870D01*
X269774Y211934D01*
X269926Y212434D01*
X273954D01*
X278375Y208013D01*
Y203528D01*
X278716D01*
X278867Y203028D01*
X278630Y202870D01*
X278210Y202241D01*
X278063Y201500D01*
X278210Y200759D01*
X278630Y200130D01*
X279259Y199710D01*
X280000Y199563D01*
X280741Y199710D01*
X281370Y200130D01*
X281790Y200759D01*
X281790Y200760D01*
X284558Y203528D01*
X287125D01*
Y208472D01*
X285261D01*
X281295Y212438D01*
X281343Y212806D01*
X281828Y212998D01*
X282259Y212710D01*
X283000Y212563D01*
X283705Y212703D01*
X283818Y212697D01*
X284206Y212490D01*
Y212434D01*
X295054D01*
Y216826D01*
X284206D01*
Y216510D01*
X283818Y216303D01*
X283705Y216297D01*
X283000Y216437D01*
X282259Y216290D01*
X281723Y215932D01*
X281224Y216093D01*
Y217000D01*
X281130Y217468D01*
X280865Y217865D01*
X278913Y219818D01*
Y221826D01*
X269748D01*
X269481Y222326D01*
X269553Y222434D01*
X278913D01*
Y226826D01*
X268064D01*
Y224794D01*
X267156Y223887D01*
X266778Y223945D01*
X266590Y224028D01*
X266365Y224365D01*
X265197Y225533D01*
X265443Y225994D01*
X265600Y225963D01*
X266341Y226110D01*
X266970Y226530D01*
X267390Y227159D01*
X267537Y227900D01*
X267418Y228502D01*
X267723Y228928D01*
X268064Y228846D01*
Y227434D01*
X278913D01*
Y231758D01*
X279213Y232134D01*
X279213Y232134D01*
Y232134D01*
X279213Y232631D01*
Y234130D01*
X273488D01*
Y235130D01*
X279213D01*
Y237126D01*
X276070D01*
X275772Y237488D01*
X273488D01*
Y238488D01*
X275632D01*
X275574Y238776D01*
X275707Y239121D01*
X275790Y239277D01*
X282031D01*
X282500Y239370D01*
X282897Y239635D01*
X285428Y242166D01*
X285693Y242563D01*
X285787Y243032D01*
Y243816D01*
X286319D01*
Y243516D01*
X288000D01*
Y245500D01*
Y247484D01*
X286319D01*
Y247184D01*
X285787D01*
Y250560D01*
X291318D01*
Y259320D01*
X291858Y259428D01*
X292586Y259914D01*
X293072Y260642D01*
X293144Y261000D01*
X288856D01*
X288928Y260642D01*
X289396Y259940D01*
X289339Y259667D01*
X289270Y259440D01*
X287230D01*
X287161Y259667D01*
X287104Y259940D01*
X287572Y260642D01*
X287644Y261000D01*
X283356D01*
X283428Y260642D01*
X283914Y259914D01*
X284642Y259428D01*
X285500Y259257D01*
X285587Y259185D01*
Y253865D01*
X283698Y251975D01*
X283433Y251578D01*
X283340Y251110D01*
Y247285D01*
X282881Y247184D01*
X282881Y247184D01*
X282881Y247184D01*
X282224D01*
Y250386D01*
X282130Y250854D01*
X281865Y251251D01*
X281476Y251641D01*
Y259440D01*
X281476Y259440D01*
X281476D01*
X281586Y259914D01*
X282072Y260642D01*
X282144Y261000D01*
X277856D01*
X277928Y260642D01*
X278396Y259940D01*
X278339Y259667D01*
X278270Y259440D01*
X276277D01*
X276134Y259795D01*
X276104Y259940D01*
X276572Y260642D01*
X276644Y261000D01*
X272356D01*
X272428Y260642D01*
X272815Y260062D01*
X272609Y259562D01*
X270891D01*
X270685Y260062D01*
X271072Y260642D01*
X271144Y261000D01*
X266856D01*
X266928Y260642D01*
X267414Y259914D01*
X268142Y259428D01*
X268576Y259341D01*
Y255774D01*
X267326Y254525D01*
X266870Y254674D01*
X266826Y254708D01*
Y259562D01*
X265391D01*
X265185Y260062D01*
X265572Y260642D01*
X265644Y261000D01*
X261356D01*
X261428Y260642D01*
X261815Y260062D01*
X261609Y259562D01*
X259914D01*
Y257747D01*
X259414Y257595D01*
X259086Y258086D01*
X258358Y258572D01*
X258000Y258644D01*
Y256500D01*
Y254356D01*
X258358Y254428D01*
X259086Y254914D01*
X259414Y255405D01*
X259914Y255253D01*
Y253763D01*
X259914Y253438D01*
Y253350D01*
Y253263D01*
X259914Y252938D01*
Y252427D01*
X259414Y252201D01*
X258858Y252572D01*
X258500Y252644D01*
Y250500D01*
Y248356D01*
X258858Y248428D01*
X259414Y248799D01*
X259914Y248573D01*
Y247484D01*
X258382D01*
Y246724D01*
X256230D01*
X256104Y247358D01*
X255618Y248086D01*
X254890Y248572D01*
X254532Y248644D01*
Y246500D01*
X253532D01*
Y248644D01*
X253173Y248572D01*
X252681Y248244D01*
X252181Y248484D01*
Y248484D01*
X252181Y248484D01*
X250405D01*
X250138Y248984D01*
X250321Y249259D01*
X250469Y250000D01*
X250321Y250741D01*
X249901Y251370D01*
X249670Y251524D01*
X249670Y252126D01*
X250055Y252382D01*
X250298Y252746D01*
X250828Y252641D01*
X250928Y252142D01*
X251414Y251414D01*
X252142Y250928D01*
X252500Y250856D01*
Y253000D01*
Y255144D01*
X252142Y255072D01*
X251414Y254586D01*
X251171Y254222D01*
X250640Y254328D01*
X250541Y254827D01*
X250055Y255555D01*
X249327Y256041D01*
X248969Y256112D01*
Y253969D01*
X247969D01*
Y256112D01*
X247610Y256041D01*
X247436Y255925D01*
X247016Y256150D01*
Y256150D01*
X247016Y256150D01*
X245532D01*
Y253969D01*
X244531D01*
Y256150D01*
X243047D01*
Y256150D01*
X242943Y256265D01*
X242897Y256334D01*
X241881Y257349D01*
Y259182D01*
X241900Y259292D01*
X242443Y259491D01*
X242603Y259379D01*
X242914Y258914D01*
X243642Y258428D01*
X244000Y258356D01*
Y260500D01*
Y262644D01*
X243642Y262572D01*
X242914Y262086D01*
X242716Y261790D01*
X242216Y261941D01*
Y263413D01*
X242216D01*
Y263587D01*
X242216D01*
Y264059D01*
X242716Y264210D01*
X242914Y263914D01*
X243642Y263428D01*
X244000Y263356D01*
Y265500D01*
X244500D01*
Y266000D01*
X246644D01*
X246640Y266016D01*
X246681Y266516D01*
X246681Y266516D01*
X246681Y266516D01*
Y267111D01*
X247181Y267262D01*
X247414Y266914D01*
X248142Y266428D01*
X248500Y266356D01*
Y268500D01*
X249500D01*
Y266356D01*
D02*
G37*
G36*
X250350Y162000D02*
X252532D01*
Y161000D01*
X250350D01*
Y159531D01*
X254854D01*
X255033Y159816D01*
X258350D01*
Y160808D01*
X260000D01*
X260000Y134916D01*
X259646Y134562D01*
X258304D01*
Y132723D01*
X257531D01*
Y133972D01*
X253375D01*
Y129028D01*
X257531D01*
Y130277D01*
X258304D01*
Y128438D01*
X260000D01*
Y126916D01*
X259646Y126562D01*
X258304D01*
Y124723D01*
X257531D01*
Y125972D01*
X253375D01*
Y121028D01*
X257531D01*
Y122276D01*
X258304D01*
Y120438D01*
X260000D01*
Y119854D01*
X259646Y119500D01*
X218472D01*
Y123125D01*
X214387D01*
Y124247D01*
X214437Y124500D01*
X214745Y124875D01*
X218472D01*
Y129031D01*
X217224D01*
Y129532D01*
X217370Y129630D01*
X217790Y130259D01*
X217937Y131000D01*
X217790Y131741D01*
X217370Y132370D01*
X216741Y132790D01*
X216000Y132937D01*
X215259Y132790D01*
X214630Y132370D01*
X214210Y131741D01*
X214063Y131000D01*
X214210Y130259D01*
X214630Y129630D01*
X214776Y129532D01*
Y129031D01*
X213528D01*
Y126654D01*
X213028Y126332D01*
X212500Y126437D01*
X211759Y126290D01*
X211130Y125870D01*
X210809Y125390D01*
X210326Y125294D01*
Y125294D01*
X210326Y125294D01*
X205934D01*
Y119500D01*
X205326D01*
Y125294D01*
X205191D01*
X204874Y125681D01*
X204937Y126000D01*
X204790Y126741D01*
X204370Y127370D01*
X203741Y127790D01*
X203000Y127937D01*
X202259Y127790D01*
X201630Y127370D01*
X201210Y126741D01*
X201063Y126000D01*
X201151Y125559D01*
X200934Y125294D01*
X200934D01*
Y119500D01*
X200326D01*
Y125294D01*
X199353D01*
Y127119D01*
X199370Y127130D01*
X199790Y127759D01*
X199937Y128500D01*
X199790Y129241D01*
X199370Y129870D01*
X199044Y130087D01*
X199196Y130587D01*
X200326D01*
Y140466D01*
X200434Y140530D01*
X200934Y140247D01*
Y130587D01*
X205258D01*
X205634Y130287D01*
X205634Y130287D01*
X205634Y130287D01*
X205634Y130287D01*
X207630D01*
Y136012D01*
X208630D01*
Y130287D01*
X210626D01*
Y134279D01*
X212117D01*
X212642Y133928D01*
X213000Y133856D01*
Y136000D01*
X214000D01*
Y133856D01*
X214358Y133928D01*
X215086Y134414D01*
X215376Y134847D01*
X215966Y134864D01*
X223727Y127103D01*
X224124Y126838D01*
X224560Y126751D01*
X224532Y126275D01*
X223673Y126104D01*
X222945Y125618D01*
X222459Y124890D01*
X222388Y124531D01*
X224532D01*
Y124031D01*
X225031D01*
Y121888D01*
X225390Y121959D01*
X226016Y122377D01*
X226378Y122256D01*
X226516Y122156D01*
Y121850D01*
X228000D01*
Y124031D01*
X228500D01*
Y124531D01*
X230484D01*
Y125021D01*
X232560D01*
Y121213D01*
X241440D01*
Y126944D01*
X237086D01*
X236975Y127109D01*
X236578Y127374D01*
X236110Y127468D01*
X230731D01*
X230184Y128015D01*
Y129650D01*
X230184D01*
Y130308D01*
X235886D01*
X236354Y130401D01*
X236751Y130666D01*
X236975Y130891D01*
X237086Y131056D01*
X241440D01*
Y136438D01*
X241440Y136648D01*
Y136787D01*
X241878Y136938D01*
X241878Y136938D01*
X247997D01*
X248008D01*
X248084Y136938D01*
X248117D01*
X248597Y136888D01*
D01*
X248914Y136414D01*
X249642Y135928D01*
X250000Y135856D01*
Y138000D01*
X250500D01*
Y138500D01*
X252644D01*
X252572Y138858D01*
X252244Y139350D01*
X252484Y139850D01*
X252484D01*
X252484Y139850D01*
Y141532D01*
X250500D01*
Y142532D01*
X252484D01*
Y144213D01*
X252184D01*
Y147850D01*
X248816D01*
Y147523D01*
X248117D01*
Y149361D01*
X243330D01*
X242259Y150432D01*
X242505Y150893D01*
X242531Y150888D01*
Y153032D01*
X243032D01*
Y153532D01*
X245354D01*
X245533Y153816D01*
X248850D01*
Y156816D01*
X248881D01*
Y160184D01*
X248881D01*
Y162816D01*
Y163277D01*
X250350D01*
Y162000D01*
D02*
G37*
G36*
X229856Y267500D02*
X229428Y266858D01*
X229356Y266500D01*
X231500D01*
Y265500D01*
X229356D01*
X229428Y265142D01*
X229914Y264414D01*
X230492Y264028D01*
X230508Y263978D01*
Y263522D01*
X230492Y263472D01*
X229914Y263086D01*
X229428Y262358D01*
X229356Y262000D01*
X231500D01*
Y261000D01*
X229356D01*
X229428Y260642D01*
X229914Y259914D01*
X230333Y259634D01*
X230414Y259086D01*
X230385Y259043D01*
X229928Y258358D01*
X229856Y258000D01*
X232000D01*
Y257000D01*
X229856D01*
X229928Y256642D01*
X230414Y255914D01*
X230367Y255437D01*
X229959Y254827D01*
X229888Y254468D01*
X232031D01*
Y253468D01*
X229888D01*
X229959Y253110D01*
X230445Y252382D01*
X230861Y252104D01*
Y251503D01*
X230662Y251370D01*
X230242Y250741D01*
X230162Y250342D01*
X229620Y250177D01*
X229532Y250265D01*
X229135Y250530D01*
X228667Y250623D01*
X221879D01*
X221411Y250530D01*
X221252Y250424D01*
X221014Y250265D01*
X219866Y249118D01*
X219601Y248721D01*
X219508Y248253D01*
Y246523D01*
X219332D01*
X218863Y246430D01*
X218466Y246165D01*
X214850Y242548D01*
X214350Y242756D01*
Y244456D01*
X213569D01*
X213216Y244810D01*
Y247587D01*
X213216Y247913D01*
X213472Y248138D01*
X213716Y248186D01*
X213727Y248179D01*
X214469Y248031D01*
X215210Y248179D01*
X215838Y248599D01*
X216258Y249227D01*
X216406Y249969D01*
X216258Y250710D01*
X215838Y251338D01*
X215210Y251758D01*
X214469Y251906D01*
X213727Y251758D01*
X213716Y251751D01*
X213216Y251850D01*
Y251850D01*
X209847D01*
Y250215D01*
X209798Y249969D01*
X209847Y249722D01*
Y248413D01*
X209847Y248087D01*
Y248000D01*
Y247913D01*
X209847Y247587D01*
Y244456D01*
X208744D01*
Y244756D01*
X207613D01*
X207346Y245256D01*
X207604Y245642D01*
X207675Y246000D01*
X203388D01*
X203459Y245642D01*
X203717Y245256D01*
X203450Y244756D01*
X202413D01*
Y241500D01*
X205579D01*
Y241000D01*
X206079D01*
Y237244D01*
X208744D01*
Y237544D01*
X214308D01*
Y235524D01*
X214401Y235056D01*
X214666Y234659D01*
X214879Y234446D01*
X214688Y233984D01*
X213022D01*
X212890Y234072D01*
X212531Y234144D01*
Y232000D01*
X212032D01*
Y231500D01*
X209888D01*
X209959Y231142D01*
X210388Y230500D01*
X209959Y229858D01*
X209888Y229500D01*
X212032D01*
Y228500D01*
X209888D01*
X209926Y228309D01*
X209882Y228256D01*
X209882D01*
Y225000D01*
X213047D01*
Y224000D01*
X209882D01*
Y222502D01*
X209420Y222310D01*
X204865Y226865D01*
X204468Y227130D01*
X204124Y227199D01*
X203993Y227421D01*
X203962Y227506D01*
X203932Y227724D01*
X204290Y228259D01*
X204437Y229000D01*
X204290Y229741D01*
X203870Y230370D01*
X203241Y230790D01*
X202500Y230937D01*
X201759Y230790D01*
X201130Y230370D01*
X200710Y229741D01*
X200588Y229125D01*
X194009D01*
X193817Y229587D01*
X200365Y236135D01*
X200630Y236532D01*
X200724Y237000D01*
Y266953D01*
X200630Y267421D01*
X200578Y267500D01*
X200845Y268000D01*
X202202D01*
X202356Y267500D01*
X201928Y266858D01*
X201856Y266500D01*
X206144D01*
X206072Y266858D01*
X205644Y267500D01*
X205798Y268000D01*
X207702D01*
X207856Y267500D01*
X207428Y266858D01*
X207356Y266500D01*
X211644D01*
X211572Y266858D01*
X211144Y267500D01*
X211298Y268000D01*
X213202D01*
X213356Y267500D01*
X212928Y266858D01*
X212856Y266500D01*
X217144D01*
X217072Y266858D01*
X216644Y267500D01*
X216798Y268000D01*
X218702D01*
X218856Y267500D01*
X218428Y266858D01*
X218356Y266500D01*
X222644D01*
X222572Y266858D01*
X222144Y267500D01*
X222298Y268000D01*
X224202D01*
X224356Y267500D01*
X223928Y266858D01*
X223856Y266500D01*
X228144D01*
X228072Y266858D01*
X227644Y267500D01*
X227798Y268000D01*
X229702D01*
X229856Y267500D01*
D02*
G37*
G36*
X250232Y292411D02*
Y273083D01*
X246688D01*
Y292411D01*
X241176D01*
Y273083D01*
X239208D01*
Y292411D01*
X232515D01*
Y282017D01*
X220704D01*
Y292411D01*
X214011D01*
Y283986D01*
Y282017D01*
X202200D01*
Y292411D01*
X195507D01*
Y276899D01*
X193539D01*
Y292411D01*
Y294379D01*
X204169D01*
Y292411D01*
Y283986D01*
X212042D01*
Y292411D01*
Y294379D01*
X222672D01*
Y292411D01*
Y283986D01*
X230546D01*
Y292411D01*
Y294379D01*
X250232D01*
Y292411D01*
D02*
G37*
G36*
X179162Y277000D02*
X179063Y276500D01*
X179113Y276249D01*
X178796Y275862D01*
X177366D01*
Y272500D01*
X176366D01*
Y275862D01*
X173504D01*
Y274972D01*
X170252D01*
X170240Y274990D01*
X168894Y276337D01*
X168497Y276602D01*
X168028Y276695D01*
X164172D01*
X163704Y276602D01*
X163307Y276337D01*
X161028Y274058D01*
X160566Y274249D01*
Y276054D01*
X156174D01*
Y267777D01*
X155674Y267509D01*
X155566Y267581D01*
Y276054D01*
X151174D01*
Y265206D01*
X154147D01*
X155512Y263840D01*
X155909Y263575D01*
X156377Y263482D01*
X161751D01*
X162214Y263574D01*
X162500Y263517D01*
X163241Y263665D01*
X163870Y264085D01*
X164290Y264713D01*
X164324Y264884D01*
X164824Y264835D01*
Y262672D01*
X161028Y258876D01*
X160566Y259068D01*
Y259913D01*
X156174D01*
Y249223D01*
X155566D01*
Y259913D01*
X152239D01*
X152141Y260001D01*
X151974Y260413D01*
X152113Y260585D01*
X152741Y260710D01*
X153370Y261130D01*
X153790Y261759D01*
X153937Y262500D01*
X153790Y263241D01*
X153370Y263870D01*
X152741Y264290D01*
X152000Y264437D01*
X151259Y264290D01*
X150630Y263870D01*
X150210Y263241D01*
X150063Y262500D01*
X150097Y262327D01*
X147682Y259913D01*
X146174D01*
Y249064D01*
X150566D01*
Y258947D01*
X150674Y259019D01*
X151174Y258752D01*
Y249064D01*
X152160D01*
X152240Y248662D01*
X152505Y248265D01*
X153158Y247611D01*
X152967Y247150D01*
X151016D01*
Y245468D01*
X153000D01*
Y244468D01*
X151016D01*
Y243286D01*
X149117D01*
Y247861D01*
X146395D01*
X146358Y247886D01*
X145890Y247979D01*
X145422Y247886D01*
X145384Y247861D01*
X142206D01*
Y242062D01*
X142206Y241737D01*
X142206Y241737D01*
Y241562D01*
X142206D01*
X142206Y241562D01*
Y236161D01*
X141069D01*
X140456Y236774D01*
Y241237D01*
X140456Y241562D01*
Y241650D01*
Y241737D01*
X140456Y242062D01*
Y247861D01*
X133544D01*
Y242062D01*
X133544Y241737D01*
Y241650D01*
Y241562D01*
X133544Y241237D01*
Y239755D01*
X132184D01*
Y240287D01*
X132484D01*
Y241968D01*
X128516D01*
Y240287D01*
X128816D01*
Y236650D01*
X132184D01*
Y237308D01*
X133544D01*
Y235438D01*
X138332D01*
X139697Y234073D01*
X139935Y233914D01*
X140094Y233807D01*
X140562Y233714D01*
X148914D01*
X149103Y233752D01*
X149517Y233525D01*
X149587Y233377D01*
X149710Y232759D01*
X149745Y232707D01*
Y232184D01*
X149213D01*
Y232484D01*
X147531D01*
Y230500D01*
X146531D01*
Y232484D01*
X144850D01*
X144850Y232484D01*
Y232484D01*
X144361Y232570D01*
X144358Y232572D01*
X144000Y232644D01*
Y230500D01*
X143500D01*
Y230000D01*
X141356D01*
X141428Y229642D01*
X141856Y229000D01*
X141428Y228358D01*
X141356Y228000D01*
X143500D01*
Y227000D01*
X141356D01*
X141428Y226642D01*
X141914Y225914D01*
X142258Y225684D01*
X142106Y225184D01*
X141413D01*
X141087Y225184D01*
X141000D01*
X140913D01*
X140587Y225184D01*
X137684D01*
Y225350D01*
X134316D01*
X134316Y225350D01*
Y225350D01*
X134160Y225362D01*
X134027Y225875D01*
X134086Y225914D01*
X134572Y226642D01*
X134644Y227000D01*
X130356D01*
X130428Y226642D01*
X130914Y225914D01*
X131258Y225684D01*
X131106Y225184D01*
X131087D01*
X131000D01*
X130913D01*
X130587Y225184D01*
X128000D01*
Y246924D01*
X128500Y247033D01*
X128914Y246414D01*
X129277Y246172D01*
Y244650D01*
X128516D01*
Y242969D01*
X132484D01*
Y244650D01*
X131723D01*
Y246172D01*
X132086Y246414D01*
X132572Y247142D01*
X132644Y247500D01*
X130500D01*
Y248000D01*
X130000D01*
Y250144D01*
X129642Y250072D01*
X128914Y249586D01*
X128500Y248967D01*
X128000Y249076D01*
Y253924D01*
X128500Y254033D01*
X128914Y253414D01*
X129642Y252928D01*
X130000Y252856D01*
Y255000D01*
Y257144D01*
X129642Y257072D01*
X128914Y256586D01*
X128500Y255967D01*
X128000Y256076D01*
Y260924D01*
X128500Y261033D01*
X128914Y260414D01*
X129642Y259928D01*
X130000Y259856D01*
Y262000D01*
Y264144D01*
X129642Y264072D01*
X128914Y263586D01*
X128500Y262967D01*
X128000Y263076D01*
Y266924D01*
X128500Y267033D01*
X128914Y266414D01*
X129642Y265928D01*
X130000Y265856D01*
Y268000D01*
Y270144D01*
X129642Y270072D01*
X128914Y269586D01*
X128500Y268967D01*
X128000Y269076D01*
Y277500D01*
X178828D01*
X179162Y277000D01*
D02*
G37*
G36*
X149938Y133928D02*
X149938D01*
Y127804D01*
X156062D01*
Y129703D01*
X156224Y129736D01*
X156621Y130001D01*
X159438Y132818D01*
X159938Y132611D01*
Y127804D01*
X166062D01*
Y130229D01*
X168028D01*
Y129375D01*
X172972D01*
Y131558D01*
X173472Y131825D01*
X173528Y131787D01*
Y129375D01*
X176385D01*
X176576Y128913D01*
X175289Y127625D01*
X173528D01*
Y126771D01*
X172972D01*
Y127625D01*
X168028D01*
Y124806D01*
X167946Y124723D01*
X145054D01*
X144472Y125306D01*
Y127176D01*
X144720Y127309D01*
X144972Y127375D01*
X145642Y126928D01*
X146000Y126856D01*
Y129000D01*
Y131144D01*
X145642Y131072D01*
X144972Y130625D01*
X144720Y130691D01*
X144472Y130824D01*
Y132694D01*
X146126Y134348D01*
X149744D01*
X149938Y133928D01*
D02*
G37*
G36*
X222406Y238890D02*
Y235028D01*
X226562D01*
Y236277D01*
X232383D01*
Y236050D01*
X232446Y235736D01*
X232313Y235236D01*
X231917Y234986D01*
X231813Y234925D01*
X231481Y234991D01*
X229681D01*
X229193Y234894D01*
X228780Y234618D01*
X228504Y234204D01*
X228407Y233717D01*
X227955Y233423D01*
X224760D01*
X224292Y233330D01*
X223895Y233065D01*
X223802Y232972D01*
X220881D01*
Y233684D01*
X219197D01*
X219092Y233705D01*
X218531Y234266D01*
X218722Y234728D01*
X220957D01*
Y237000D01*
X218579D01*
Y238000D01*
X220957D01*
Y238148D01*
X221906Y239097D01*
X222406Y238890D01*
D02*
G37*
G36*
X198031Y262528D02*
X198276Y262130D01*
Y237507D01*
X194115Y233345D01*
X193726Y233664D01*
X193790Y233759D01*
X193937Y234500D01*
X193790Y235241D01*
X193370Y235870D01*
X193224Y235968D01*
Y236469D01*
X194078D01*
Y241287D01*
X194378D01*
Y243559D01*
X192000D01*
Y244059D01*
X191500D01*
Y246831D01*
X189622D01*
Y245843D01*
X189500Y245743D01*
X188724Y245589D01*
X188224Y245838D01*
Y249493D01*
X196818Y258088D01*
X197083Y258485D01*
X197176Y258953D01*
Y262175D01*
X197530Y262528D01*
X198031D01*
D02*
G37*
%LPC*%
G36*
X245000Y179500D02*
X243356D01*
X243428Y179142D01*
X243914Y178414D01*
X244642Y177928D01*
X245000Y177856D01*
Y179500D01*
D02*
G37*
G36*
X247644D02*
X246000D01*
Y177856D01*
X246358Y177928D01*
X247086Y178414D01*
X247572Y179142D01*
X247644Y179500D01*
D02*
G37*
G36*
X239500D02*
X237856D01*
X237928Y179142D01*
X238414Y178414D01*
X239142Y177928D01*
X239500Y177856D01*
Y179500D01*
D02*
G37*
G36*
X242144D02*
X240500D01*
Y177856D01*
X240858Y177928D01*
X241586Y178414D01*
X242072Y179142D01*
X242144Y179500D01*
D02*
G37*
G36*
X236644Y173500D02*
X235000D01*
Y171856D01*
X235358Y171928D01*
X236086Y172414D01*
X236572Y173142D01*
X236644Y173500D01*
D02*
G37*
G36*
X256500Y174000D02*
X254856D01*
X254928Y173642D01*
X255414Y172914D01*
X256142Y172428D01*
X256500Y172356D01*
Y174000D01*
D02*
G37*
G36*
X259144D02*
X257500D01*
Y172356D01*
X257858Y172428D01*
X258586Y172914D01*
X259072Y173642D01*
X259144Y174000D01*
D02*
G37*
G36*
X242531Y172612D02*
X242173Y172541D01*
X241445Y172055D01*
X240959Y171327D01*
X240888Y170968D01*
X242531D01*
Y172612D01*
D02*
G37*
G36*
X243531D02*
Y170968D01*
X245175D01*
X245104Y171327D01*
X244618Y172055D01*
X243890Y172541D01*
X243531Y172612D01*
D02*
G37*
G36*
X234000Y173500D02*
X232356D01*
X232428Y173142D01*
X232914Y172414D01*
X233642Y171928D01*
X234000Y171856D01*
Y173500D01*
D02*
G37*
G36*
X257500Y176644D02*
Y175000D01*
X259144D01*
X259072Y175358D01*
X258586Y176086D01*
X257858Y176572D01*
X257500Y176644D01*
D02*
G37*
G36*
X234000Y179500D02*
X232356D01*
X232428Y179142D01*
X232914Y178414D01*
X233642Y177928D01*
X234000Y177856D01*
Y179500D01*
D02*
G37*
G36*
X236644D02*
X235000D01*
Y177856D01*
X235358Y177928D01*
X236086Y178414D01*
X236572Y179142D01*
X236644Y179500D01*
D02*
G37*
G36*
X234000Y176144D02*
X233642Y176072D01*
X232914Y175586D01*
X232428Y174858D01*
X232356Y174500D01*
X234000D01*
Y176144D01*
D02*
G37*
G36*
X235000D02*
Y174500D01*
X236644D01*
X236572Y174858D01*
X236086Y175586D01*
X235358Y176072D01*
X235000Y176144D01*
D02*
G37*
G36*
X256500Y176644D02*
X256142Y176572D01*
X255414Y176086D01*
X254928Y175358D01*
X254856Y175000D01*
X256500D01*
Y176644D01*
D02*
G37*
G36*
Y182144D02*
X256142Y182072D01*
X255414Y181586D01*
X254928Y180858D01*
X254856Y180500D01*
X256500D01*
Y182144D01*
D02*
G37*
G36*
X257500D02*
Y180500D01*
X259144D01*
X259072Y180858D01*
X258586Y181586D01*
X257858Y182072D01*
X257500Y182144D01*
D02*
G37*
G36*
X252000D02*
Y180500D01*
X253644D01*
X253572Y180858D01*
X253086Y181586D01*
X252358Y182072D01*
X252000Y182144D01*
D02*
G37*
G36*
X246000D02*
Y180500D01*
X247644D01*
X247572Y180858D01*
X247086Y181586D01*
X246358Y182072D01*
X246000Y182144D01*
D02*
G37*
G36*
X251000D02*
X250642Y182072D01*
X249914Y181586D01*
X249428Y180858D01*
X249356Y180500D01*
X251000D01*
Y182144D01*
D02*
G37*
G36*
X229500Y192500D02*
X227856D01*
X227928Y192142D01*
X228414Y191414D01*
X229142Y190928D01*
X229500Y190856D01*
Y192500D01*
D02*
G37*
G36*
X232144D02*
X230500D01*
Y190856D01*
X230858Y190928D01*
X231586Y191414D01*
X232072Y192142D01*
X232144Y192500D01*
D02*
G37*
G36*
X190256Y185618D02*
X187000D01*
Y182953D01*
X190256D01*
Y185618D01*
D02*
G37*
G36*
X271500Y185740D02*
X267260D01*
Y181500D01*
X271500D01*
Y185740D01*
D02*
G37*
G36*
X276740D02*
X272500D01*
Y181500D01*
X276740D01*
Y185740D01*
D02*
G37*
G36*
X245000Y182144D02*
X244642Y182072D01*
X243914Y181586D01*
X243428Y180858D01*
X243356Y180500D01*
X245000D01*
Y182144D01*
D02*
G37*
G36*
X259144Y179500D02*
X257500D01*
Y177856D01*
X257858Y177928D01*
X258586Y178414D01*
X259072Y179142D01*
X259144Y179500D01*
D02*
G37*
G36*
X222500Y181644D02*
Y180000D01*
X224144D01*
X224072Y180358D01*
X223586Y181086D01*
X222858Y181572D01*
X222500Y181644D01*
D02*
G37*
G36*
X256500Y179500D02*
X254856D01*
X254928Y179142D01*
X255414Y178414D01*
X256142Y177928D01*
X256500Y177856D01*
Y179500D01*
D02*
G37*
G36*
X251000D02*
X249356D01*
X249428Y179142D01*
X249914Y178414D01*
X250642Y177928D01*
X251000Y177856D01*
Y179500D01*
D02*
G37*
G36*
X253644D02*
X252000D01*
Y177856D01*
X252358Y177928D01*
X253086Y178414D01*
X253572Y179142D01*
X253644Y179500D01*
D02*
G37*
G36*
X239500Y182144D02*
X239142Y182072D01*
X238414Y181586D01*
X237928Y180858D01*
X237856Y180500D01*
X239500D01*
Y182144D01*
D02*
G37*
G36*
X240500D02*
Y180500D01*
X242144D01*
X242072Y180858D01*
X241586Y181586D01*
X240858Y182072D01*
X240500Y182144D01*
D02*
G37*
G36*
X235000D02*
Y180500D01*
X236644D01*
X236572Y180858D01*
X236086Y181586D01*
X235358Y182072D01*
X235000Y182144D01*
D02*
G37*
G36*
X181000Y182000D02*
X179356D01*
X179428Y181642D01*
X179914Y180914D01*
X180642Y180428D01*
X181000Y180356D01*
Y182000D01*
D02*
G37*
G36*
X234000Y182144D02*
X233642Y182072D01*
X232914Y181586D01*
X232428Y180858D01*
X232356Y180500D01*
X234000D01*
Y182144D01*
D02*
G37*
G36*
X256500Y145500D02*
X254856D01*
X254928Y145142D01*
X255414Y144414D01*
X256142Y143928D01*
X256500Y143856D01*
Y145500D01*
D02*
G37*
G36*
X259144D02*
X257500D01*
Y143856D01*
X257858Y143928D01*
X258586Y144414D01*
X259072Y145142D01*
X259144Y145500D01*
D02*
G37*
G36*
X116150Y145650D02*
X112500D01*
Y142000D01*
X116150D01*
Y145650D01*
D02*
G37*
G36*
X256500Y142644D02*
X256142Y142572D01*
X255414Y142086D01*
X254928Y141358D01*
X254856Y141000D01*
X256500D01*
Y142644D01*
D02*
G37*
G36*
X257500D02*
Y141000D01*
X259144D01*
X259072Y141358D01*
X258586Y142086D01*
X257858Y142572D01*
X257500Y142644D01*
D02*
G37*
G36*
X256500Y148144D02*
X256142Y148072D01*
X255414Y147586D01*
X254928Y146858D01*
X254856Y146500D01*
X256500D01*
Y148144D01*
D02*
G37*
G36*
Y151000D02*
X254856D01*
X254928Y150642D01*
X255414Y149914D01*
X256142Y149428D01*
X256500Y149356D01*
Y151000D01*
D02*
G37*
G36*
X259144D02*
X257500D01*
Y149356D01*
X257858Y149428D01*
X258586Y149914D01*
X259072Y150642D01*
X259144Y151000D01*
D02*
G37*
G36*
X253644D02*
X252000D01*
Y149356D01*
X252358Y149428D01*
X253086Y149914D01*
X253572Y150642D01*
X253644Y151000D01*
D02*
G37*
G36*
X257500Y148144D02*
Y146500D01*
X259144D01*
X259072Y146858D01*
X258586Y147586D01*
X257858Y148072D01*
X257500Y148144D01*
D02*
G37*
G36*
X251000Y151000D02*
X249356D01*
X249428Y150642D01*
X249914Y149914D01*
X250642Y149428D01*
X251000Y149356D01*
Y151000D01*
D02*
G37*
G36*
X148644Y128500D02*
X147000D01*
Y126856D01*
X147358Y126928D01*
X148086Y127414D01*
X148572Y128142D01*
X148644Y128500D01*
D02*
G37*
G36*
X147000Y131144D02*
Y129500D01*
X148644D01*
X148572Y129858D01*
X148086Y130586D01*
X147358Y131072D01*
X147000Y131144D01*
D02*
G37*
G36*
X251625Y125972D02*
X247469D01*
Y124723D01*
X245968D01*
X245870Y124870D01*
X245241Y125290D01*
X244500Y125437D01*
X243759Y125290D01*
X243130Y124870D01*
X242710Y124241D01*
X242563Y123500D01*
X242710Y122759D01*
X243130Y122130D01*
X243759Y121710D01*
X244500Y121563D01*
X245241Y121710D01*
X245870Y122130D01*
X245968Y122276D01*
X247469D01*
Y121028D01*
X251625D01*
Y125972D01*
D02*
G37*
G36*
X230484Y123531D02*
X229000D01*
Y121850D01*
X230484D01*
Y123531D01*
D02*
G37*
G36*
X224031D02*
X222388D01*
X222459Y123173D01*
X222945Y122445D01*
X223673Y121959D01*
X224031Y121888D01*
Y123531D01*
D02*
G37*
G36*
X251625Y133972D02*
X247469D01*
Y133223D01*
X246468D01*
X246370Y133370D01*
X245741Y133790D01*
X245000Y133937D01*
X244259Y133790D01*
X243630Y133370D01*
X243210Y132741D01*
X243063Y132000D01*
X243210Y131259D01*
X243630Y130630D01*
X244259Y130210D01*
X245000Y130063D01*
X245741Y130210D01*
X246370Y130630D01*
X246468Y130777D01*
X247469D01*
Y129028D01*
X251625D01*
Y133972D01*
D02*
G37*
G36*
X256500Y140000D02*
X254856D01*
X254928Y139642D01*
X255414Y138914D01*
X256142Y138428D01*
X256500Y138356D01*
Y140000D01*
D02*
G37*
G36*
X259144D02*
X257500D01*
Y138356D01*
X257858Y138428D01*
X258586Y138914D01*
X259072Y139642D01*
X259144Y140000D01*
D02*
G37*
G36*
X111500Y141000D02*
X107850D01*
Y137350D01*
X111500D01*
Y141000D01*
D02*
G37*
G36*
X252644Y137500D02*
X251000D01*
Y135856D01*
X251358Y135928D01*
X252086Y136414D01*
X252572Y137142D01*
X252644Y137500D01*
D02*
G37*
G36*
X230484Y137650D02*
X229000D01*
Y135968D01*
X230484D01*
Y137650D01*
D02*
G37*
G36*
X254144Y168500D02*
X252500D01*
Y166856D01*
X252858Y166928D01*
X253586Y167414D01*
X254072Y168142D01*
X254144Y168500D01*
D02*
G37*
G36*
X256500D02*
X254856D01*
X254928Y168142D01*
X255414Y167414D01*
X256142Y166928D01*
X256500Y166856D01*
Y168500D01*
D02*
G37*
G36*
X251500D02*
X249856D01*
X249928Y168142D01*
X250414Y167414D01*
X251142Y166928D01*
X251500Y166856D01*
Y168500D01*
D02*
G37*
G36*
X256500Y159144D02*
X256142Y159072D01*
X255414Y158586D01*
X255120Y158147D01*
Y158147D01*
X255103Y158121D01*
X255102Y158122D01*
X255091Y158127D01*
X255079Y158132D01*
X254644Y158312D01*
X254634Y158316D01*
X254633Y158316D01*
X254632Y158317D01*
X254642Y158363D01*
Y158363D01*
X254675Y158531D01*
X253031D01*
Y156888D01*
X253390Y156959D01*
X254118Y157445D01*
X254411Y157885D01*
Y157885D01*
X254428Y157910D01*
X254430Y157909D01*
X254441Y157905D01*
X254453Y157900D01*
X254888Y157720D01*
X254897Y157716D01*
X254899Y157715D01*
X254899Y157715D01*
X254890Y157669D01*
Y157669D01*
X254856Y157500D01*
X256500D01*
Y159144D01*
D02*
G37*
G36*
X163484Y165532D02*
X162000D01*
Y163850D01*
X163484D01*
Y165532D01*
D02*
G37*
G36*
X259144Y168500D02*
X257500D01*
Y166856D01*
X257858Y166928D01*
X258586Y167414D01*
X259072Y168142D01*
X259144Y168500D01*
D02*
G37*
G36*
X256500Y171144D02*
X256142Y171072D01*
X255414Y170586D01*
X254928Y169858D01*
X254856Y169500D01*
X256500D01*
Y171144D01*
D02*
G37*
G36*
X257500D02*
Y169500D01*
X259144D01*
X259072Y169858D01*
X258586Y170586D01*
X257858Y171072D01*
X257500Y171144D01*
D02*
G37*
G36*
X252500D02*
Y169500D01*
X254144D01*
X254072Y169858D01*
X253586Y170586D01*
X252858Y171072D01*
X252500Y171144D01*
D02*
G37*
G36*
X234000Y170644D02*
X233642Y170572D01*
X232914Y170086D01*
X232428Y169358D01*
X232356Y169000D01*
X234000D01*
Y170644D01*
D02*
G37*
G36*
X251500Y171144D02*
X251142Y171072D01*
X250414Y170586D01*
X249928Y169858D01*
X249856Y169500D01*
X251500D01*
Y171144D01*
D02*
G37*
G36*
X251000Y153644D02*
X250642Y153572D01*
X249914Y153086D01*
X249428Y152358D01*
X249356Y152000D01*
X251000D01*
Y153644D01*
D02*
G37*
G36*
X252000D02*
Y152000D01*
X253644D01*
X253572Y152358D01*
X253086Y153086D01*
X252358Y153572D01*
X252000Y153644D01*
D02*
G37*
G36*
X245175Y152532D02*
X243531D01*
Y150888D01*
X243890Y150959D01*
X244618Y151445D01*
X245104Y152173D01*
X245175Y152532D01*
D02*
G37*
G36*
X119000Y151453D02*
X116728D01*
Y149575D01*
X119000D01*
Y151453D01*
D02*
G37*
G36*
X122272D02*
X120000D01*
Y149575D01*
X122272D01*
Y151453D01*
D02*
G37*
G36*
X256500Y153644D02*
X256142Y153572D01*
X255414Y153086D01*
X254928Y152358D01*
X254856Y152000D01*
X256500D01*
Y153644D01*
D02*
G37*
G36*
X252031Y158531D02*
X250388D01*
X250459Y158173D01*
X250945Y157445D01*
X251673Y156959D01*
X252031Y156888D01*
Y158531D01*
D02*
G37*
G36*
X257500Y159144D02*
Y157500D01*
X259144D01*
X259072Y157858D01*
X258586Y158586D01*
X257858Y159072D01*
X257500Y159144D01*
D02*
G37*
G36*
X259144Y156500D02*
X257500D01*
Y154856D01*
X257858Y154928D01*
X258586Y155414D01*
X259072Y156142D01*
X259144Y156500D01*
D02*
G37*
G36*
X257500Y153644D02*
Y152000D01*
X259144D01*
X259072Y152358D01*
X258586Y153086D01*
X257858Y153572D01*
X257500Y153644D01*
D02*
G37*
G36*
X256500Y156500D02*
X254856D01*
X254928Y156142D01*
X255414Y155414D01*
X256142Y154928D01*
X256500Y154856D01*
Y156500D01*
D02*
G37*
G36*
X229500Y195144D02*
X229142Y195072D01*
X228414Y194586D01*
X227928Y193858D01*
X227856Y193500D01*
X229500D01*
Y195144D01*
D02*
G37*
G36*
X131000Y264144D02*
Y262500D01*
X132644D01*
X132572Y262858D01*
X132086Y263586D01*
X131358Y264072D01*
X131000Y264144D01*
D02*
G37*
G36*
X150566Y276054D02*
X146174D01*
Y265684D01*
X146174Y265206D01*
Y265206D01*
X146174Y265206D01*
X146443Y264817D01*
X146580Y264129D01*
X147000Y263500D01*
X147629Y263080D01*
X148370Y262933D01*
X149111Y263080D01*
X149740Y263500D01*
X150160Y264129D01*
X150297Y264817D01*
X150566Y265206D01*
X150566Y265206D01*
Y265206D01*
X150566Y265684D01*
Y276054D01*
D02*
G37*
G36*
X291500Y263644D02*
Y262000D01*
X293144D01*
X293072Y262358D01*
X292586Y263086D01*
X291858Y263572D01*
X291500Y263644D01*
D02*
G37*
G36*
X286000D02*
Y262000D01*
X287644D01*
X287572Y262358D01*
X287086Y263086D01*
X286358Y263572D01*
X286000Y263644D01*
D02*
G37*
G36*
X290500D02*
X290142Y263572D01*
X289414Y263086D01*
X288928Y262358D01*
X288856Y262000D01*
X290500D01*
Y263644D01*
D02*
G37*
G36*
X246644Y265000D02*
X245000D01*
Y263356D01*
X245358Y263428D01*
X246086Y263914D01*
X246572Y264642D01*
X246644Y265000D01*
D02*
G37*
G36*
X211644Y265500D02*
X210000D01*
Y263856D01*
X210358Y263928D01*
X211086Y264414D01*
X211572Y265142D01*
X211644Y265500D01*
D02*
G37*
G36*
X214500D02*
X212856D01*
X212928Y265142D01*
X213414Y264414D01*
X214142Y263928D01*
X214500Y263856D01*
Y265500D01*
D02*
G37*
G36*
X209000D02*
X207356D01*
X207428Y265142D01*
X207914Y264414D01*
X208642Y263928D01*
X209000Y263856D01*
Y265500D01*
D02*
G37*
G36*
X203500D02*
X201856D01*
X201928Y265142D01*
X202414Y264414D01*
X203142Y263928D01*
X203500Y263856D01*
Y265500D01*
D02*
G37*
G36*
X206144D02*
X204500D01*
Y263856D01*
X204858Y263928D01*
X205586Y264414D01*
X206072Y265142D01*
X206144Y265500D01*
D02*
G37*
G36*
X264000Y263644D02*
Y262000D01*
X265644D01*
X265572Y262358D01*
X265086Y263086D01*
X264358Y263572D01*
X264000Y263644D01*
D02*
G37*
G36*
X268500D02*
X268142Y263572D01*
X267414Y263086D01*
X266928Y262358D01*
X266856Y262000D01*
X268500D01*
Y263644D01*
D02*
G37*
G36*
X263000D02*
X262642Y263572D01*
X261914Y263086D01*
X261428Y262358D01*
X261356Y262000D01*
X263000D01*
Y263644D01*
D02*
G37*
G36*
X257500D02*
X257142Y263572D01*
X256414Y263086D01*
X255928Y262358D01*
X255856Y262000D01*
X257500D01*
Y263644D01*
D02*
G37*
G36*
X258500D02*
Y262000D01*
X260144D01*
X260072Y262358D01*
X259586Y263086D01*
X258858Y263572D01*
X258500Y263644D01*
D02*
G37*
G36*
X269500D02*
Y262000D01*
X271144D01*
X271072Y262358D01*
X270586Y263086D01*
X269858Y263572D01*
X269500Y263644D01*
D02*
G37*
G36*
X280500D02*
Y262000D01*
X282144D01*
X282072Y262358D01*
X281586Y263086D01*
X280858Y263572D01*
X280500Y263644D01*
D02*
G37*
G36*
X285000D02*
X284642Y263572D01*
X283914Y263086D01*
X283428Y262358D01*
X283356Y262000D01*
X285000D01*
Y263644D01*
D02*
G37*
G36*
X279500D02*
X279142Y263572D01*
X278414Y263086D01*
X277928Y262358D01*
X277856Y262000D01*
X279500D01*
Y263644D01*
D02*
G37*
G36*
X274000D02*
X273642Y263572D01*
X272914Y263086D01*
X272428Y262358D01*
X272356Y262000D01*
X274000D01*
Y263644D01*
D02*
G37*
G36*
X275000D02*
Y262000D01*
X276644D01*
X276572Y262358D01*
X276086Y263086D01*
X275358Y263572D01*
X275000Y263644D01*
D02*
G37*
G36*
X279500Y266000D02*
X277856D01*
X277928Y265642D01*
X278414Y264914D01*
X279142Y264428D01*
X279500Y264356D01*
Y266000D01*
D02*
G37*
G36*
X282144D02*
X280500D01*
Y264356D01*
X280858Y264428D01*
X281586Y264914D01*
X282072Y265642D01*
X282144Y266000D01*
D02*
G37*
G36*
X276644D02*
X275000D01*
Y264356D01*
X275358Y264428D01*
X276086Y264914D01*
X276572Y265642D01*
X276644Y266000D01*
D02*
G37*
G36*
X271144D02*
X269500D01*
Y264356D01*
X269858Y264428D01*
X270586Y264914D01*
X271072Y265642D01*
X271144Y266000D01*
D02*
G37*
G36*
X274000D02*
X272356D01*
X272428Y265642D01*
X272914Y264914D01*
X273642Y264428D01*
X274000Y264356D01*
Y266000D01*
D02*
G37*
G36*
X285000D02*
X283356D01*
X283428Y265642D01*
X283914Y264914D01*
X284642Y264428D01*
X285000Y264356D01*
Y266000D01*
D02*
G37*
G36*
X132644Y267500D02*
X131000D01*
Y265856D01*
X131358Y265928D01*
X132086Y266414D01*
X132572Y267142D01*
X132644Y267500D01*
D02*
G37*
G36*
X145566Y276054D02*
X141174D01*
Y267239D01*
X141066Y267167D01*
X140566Y267434D01*
Y276054D01*
X136174D01*
Y271955D01*
X135108D01*
X135079Y272000D01*
X134450Y272420D01*
X133709Y272567D01*
X132968Y272420D01*
X132339Y272000D01*
X131919Y271371D01*
X131772Y270630D01*
X131825Y270362D01*
X131375Y270061D01*
X131358Y270072D01*
X131000Y270144D01*
Y268500D01*
X132695D01*
X132764Y268586D01*
X133091Y268816D01*
X133709Y268693D01*
X134450Y268840D01*
X135079Y269260D01*
X135108Y269304D01*
X136174D01*
Y265206D01*
X137801D01*
X138020Y264705D01*
X137710Y264241D01*
X137563Y263500D01*
X137710Y262759D01*
X138130Y262130D01*
X138759Y261710D01*
X139500Y261563D01*
X140241Y261710D01*
X140870Y262130D01*
X141290Y262759D01*
X141437Y263500D01*
X141403Y263673D01*
X142936Y265206D01*
X145566D01*
Y276054D01*
D02*
G37*
G36*
X293144Y266000D02*
X291500D01*
Y264356D01*
X291858Y264428D01*
X292586Y264914D01*
X293072Y265642D01*
X293144Y266000D01*
D02*
G37*
G36*
X287644D02*
X286000D01*
Y264356D01*
X286358Y264428D01*
X287086Y264914D01*
X287572Y265642D01*
X287644Y266000D01*
D02*
G37*
G36*
X290500D02*
X288856D01*
X288928Y265642D01*
X289414Y264914D01*
X290142Y264428D01*
X290500Y264356D01*
Y266000D01*
D02*
G37*
G36*
X225500Y265500D02*
X223856D01*
X223928Y265142D01*
X224414Y264414D01*
X225142Y263928D01*
X225500Y263856D01*
Y265500D01*
D02*
G37*
G36*
X228144D02*
X226500D01*
Y263856D01*
X226858Y263928D01*
X227586Y264414D01*
X228072Y265142D01*
X228144Y265500D01*
D02*
G37*
G36*
X222644D02*
X221000D01*
Y263856D01*
X221358Y263928D01*
X222086Y264414D01*
X222572Y265142D01*
X222644Y265500D01*
D02*
G37*
G36*
X217144D02*
X215500D01*
Y263856D01*
X215858Y263928D01*
X216586Y264414D01*
X217072Y265142D01*
X217144Y265500D01*
D02*
G37*
G36*
X220000D02*
X218356D01*
X218428Y265142D01*
X218914Y264414D01*
X219642Y263928D01*
X220000Y263856D01*
Y265500D01*
D02*
G37*
G36*
X255144Y266000D02*
X253500D01*
Y264356D01*
X253858Y264428D01*
X254586Y264914D01*
X255072Y265642D01*
X255144Y266000D01*
D02*
G37*
G36*
X265644D02*
X264000D01*
Y264356D01*
X264358Y264428D01*
X265086Y264914D01*
X265572Y265642D01*
X265644Y266000D01*
D02*
G37*
G36*
X268500D02*
X266856D01*
X266928Y265642D01*
X267414Y264914D01*
X268142Y264428D01*
X268500Y264356D01*
Y266000D01*
D02*
G37*
G36*
X263000D02*
X261356D01*
X261428Y265642D01*
X261914Y264914D01*
X262642Y264428D01*
X263000Y264356D01*
Y266000D01*
D02*
G37*
G36*
X257500D02*
X255856D01*
X255928Y265642D01*
X256414Y264914D01*
X257142Y264428D01*
X257500Y264356D01*
Y266000D01*
D02*
G37*
G36*
X260144D02*
X258500D01*
Y264356D01*
X258858Y264428D01*
X259586Y264914D01*
X260072Y265642D01*
X260144Y266000D01*
D02*
G37*
G36*
X254000Y216144D02*
X253642Y216072D01*
X252914Y215586D01*
X252428Y214858D01*
X252356Y214500D01*
X254000D01*
Y216144D01*
D02*
G37*
G36*
X295054Y226826D02*
X284206D01*
Y226268D01*
X283705Y225896D01*
X283500Y225937D01*
X282759Y225790D01*
X282130Y225370D01*
X281710Y224741D01*
X281563Y224000D01*
X281710Y223259D01*
X282130Y222630D01*
X282759Y222210D01*
X283500Y222063D01*
X283509Y222065D01*
X283903Y221671D01*
X283405Y221357D01*
X283000Y221437D01*
X282259Y221290D01*
X281630Y220870D01*
X281210Y220241D01*
X281063Y219500D01*
X281210Y218759D01*
X281630Y218130D01*
X282259Y217710D01*
X283000Y217563D01*
X283705Y217703D01*
X283818Y217697D01*
X284206Y217490D01*
Y217434D01*
X295054D01*
Y221826D01*
X285063D01*
X284820Y222326D01*
X284904Y222434D01*
X295054D01*
Y226826D01*
D02*
G37*
G36*
X254000Y213500D02*
X252356D01*
X252428Y213142D01*
X252914Y212414D01*
X253642Y211928D01*
X254000Y211856D01*
Y213500D01*
D02*
G37*
G36*
X216144Y210000D02*
X214500D01*
Y208356D01*
X214858Y208428D01*
X215586Y208914D01*
X216072Y209642D01*
X216144Y210000D01*
D02*
G37*
G36*
X259984Y213531D02*
X258500D01*
Y211850D01*
X259984D01*
Y213531D01*
D02*
G37*
G36*
X132000Y229644D02*
X131642Y229572D01*
X130914Y229086D01*
X130428Y228358D01*
X130356Y228000D01*
X132000D01*
Y229644D01*
D02*
G37*
G36*
X289500Y240437D02*
X288759Y240290D01*
X288130Y239870D01*
X287710Y239241D01*
X287563Y238500D01*
X287710Y237759D01*
X287999Y237326D01*
X287754Y236826D01*
X284206D01*
Y232434D01*
X295054D01*
Y236826D01*
X291140D01*
X291001Y237326D01*
X291290Y237759D01*
X291437Y238500D01*
X291290Y239241D01*
X290870Y239870D01*
X290241Y240290D01*
X289500Y240437D01*
D02*
G37*
G36*
X211531Y234144D02*
X211173Y234072D01*
X210445Y233586D01*
X209959Y232858D01*
X209888Y232500D01*
X211531D01*
Y234144D01*
D02*
G37*
G36*
X295054Y231826D02*
X284206D01*
Y231691D01*
X283819Y231374D01*
X283500Y231437D01*
X282759Y231290D01*
X282130Y230870D01*
X281710Y230241D01*
X281563Y229500D01*
X281710Y228759D01*
X282130Y228130D01*
X282759Y227710D01*
X283500Y227563D01*
X283941Y227651D01*
X284206Y227434D01*
Y227434D01*
X295054D01*
Y231826D01*
D02*
G37*
G36*
X133000Y229644D02*
Y228000D01*
X134644D01*
X134572Y228358D01*
X134086Y229086D01*
X133358Y229572D01*
X133000Y229644D01*
D02*
G37*
G36*
X143000Y232644D02*
X142642Y232572D01*
X141914Y232086D01*
X141428Y231358D01*
X141356Y231000D01*
X143000D01*
Y232644D01*
D02*
G37*
G36*
X232144Y199500D02*
X230500D01*
Y197856D01*
X230858Y197928D01*
X231586Y198414D01*
X232072Y199142D01*
X232144Y199500D01*
D02*
G37*
G36*
X154500Y202144D02*
X154142Y202072D01*
X153414Y201586D01*
X152928Y200858D01*
X152856Y200500D01*
X154500D01*
Y202144D01*
D02*
G37*
G36*
X229500Y199500D02*
X227856D01*
X227928Y199142D01*
X228414Y198414D01*
X229142Y197928D01*
X229500Y197856D01*
Y199500D01*
D02*
G37*
G36*
X230500Y195144D02*
Y193500D01*
X232144D01*
X232072Y193858D01*
X231586Y194586D01*
X230858Y195072D01*
X230500Y195144D01*
D02*
G37*
G36*
X154500Y199500D02*
X152856D01*
X152928Y199142D01*
X153414Y198414D01*
X154142Y197928D01*
X154500Y197856D01*
Y199500D01*
D02*
G37*
G36*
X229500Y202144D02*
X229142Y202072D01*
X228414Y201586D01*
X227928Y200858D01*
X227856Y200500D01*
X229500D01*
Y202144D01*
D02*
G37*
G36*
X276625Y208472D02*
X272469D01*
Y207905D01*
X271969Y207637D01*
X271741Y207790D01*
X271000Y207937D01*
X270259Y207790D01*
X269630Y207370D01*
X269210Y206741D01*
X269063Y206000D01*
X269210Y205259D01*
X269630Y204630D01*
X270259Y204210D01*
X271000Y204063D01*
X271741Y204210D01*
X271969Y204363D01*
X272469Y204095D01*
Y203528D01*
X276625D01*
Y208472D01*
D02*
G37*
G36*
X213500Y210000D02*
X211856D01*
X211928Y209642D01*
X212414Y208914D01*
X213142Y208428D01*
X213500Y208356D01*
Y210000D01*
D02*
G37*
G36*
X214500Y203144D02*
Y201500D01*
X216144D01*
X216072Y201858D01*
X215586Y202586D01*
X214858Y203072D01*
X214500Y203144D01*
D02*
G37*
G36*
X230500Y202144D02*
Y200500D01*
X232144D01*
X232072Y200858D01*
X231586Y201586D01*
X230858Y202072D01*
X230500Y202144D01*
D02*
G37*
G36*
X213500Y203144D02*
X213142Y203072D01*
X212414Y202586D01*
X211928Y201858D01*
X211856Y201500D01*
X213500D01*
Y203144D01*
D02*
G37*
G36*
X257000Y258644D02*
X256642Y258572D01*
X255914Y258086D01*
X255428Y257358D01*
X255356Y257000D01*
X257000D01*
Y258644D01*
D02*
G37*
G36*
X249000Y260937D02*
X248259Y260790D01*
X247630Y260370D01*
X247210Y259741D01*
X247063Y259000D01*
X247210Y258259D01*
X247630Y257630D01*
X248259Y257210D01*
X249000Y257063D01*
X249741Y257210D01*
X250370Y257630D01*
X250790Y258259D01*
X250937Y259000D01*
X250790Y259741D01*
X250370Y260370D01*
X249741Y260790D01*
X249000Y260937D01*
D02*
G37*
G36*
X137870Y260213D02*
X135874D01*
Y256224D01*
X132328D01*
X132086Y256586D01*
X131358Y257072D01*
X131000Y257144D01*
Y255000D01*
Y252856D01*
X131358Y252928D01*
X132086Y253414D01*
X132328Y253777D01*
X135874D01*
Y248764D01*
X137870D01*
Y254488D01*
Y260213D01*
D02*
G37*
G36*
X253500Y255144D02*
Y253500D01*
X255144D01*
X255072Y253858D01*
X254586Y254586D01*
X253858Y255072D01*
X253500Y255144D01*
D02*
G37*
G36*
X257000Y256000D02*
X255356D01*
X255428Y255642D01*
X255914Y254914D01*
X256642Y254428D01*
X257000Y254356D01*
Y256000D01*
D02*
G37*
G36*
X246644Y260000D02*
X245000D01*
Y258356D01*
X245358Y258428D01*
X246086Y258914D01*
X246572Y259642D01*
X246644Y260000D01*
D02*
G37*
G36*
X143370Y262320D02*
X142629Y262172D01*
X142000Y261752D01*
X141580Y261124D01*
X141433Y260382D01*
X141008Y260099D01*
X140866Y260213D01*
X140849D01*
X140798Y260213D01*
X138870D01*
Y254488D01*
Y248764D01*
X140798D01*
X140849Y248764D01*
X140866D01*
X141242Y249064D01*
X141366Y249064D01*
X145566D01*
Y259913D01*
X145566D01*
X145283Y260258D01*
X145307Y260382D01*
X145160Y261124D01*
X144740Y261752D01*
X144111Y262172D01*
X143370Y262320D01*
D02*
G37*
G36*
X245000Y262644D02*
Y261000D01*
X246644D01*
X246572Y261358D01*
X246086Y262086D01*
X245358Y262572D01*
X245000Y262644D01*
D02*
G37*
G36*
X132644Y261500D02*
X131000D01*
Y259856D01*
X131358Y259928D01*
X132086Y260414D01*
X132572Y261142D01*
X132644Y261500D01*
D02*
G37*
G36*
X257500Y261000D02*
X255856D01*
X255928Y260642D01*
X256414Y259914D01*
X257142Y259428D01*
X257500Y259356D01*
Y261000D01*
D02*
G37*
G36*
X260144D02*
X258500D01*
Y259356D01*
X258858Y259428D01*
X259586Y259914D01*
X260072Y260642D01*
X260144Y261000D01*
D02*
G37*
G36*
X194378Y246831D02*
X192500D01*
Y244559D01*
X194378D01*
Y246831D01*
D02*
G37*
G36*
X292032Y247644D02*
Y246000D01*
X293675D01*
X293604Y246358D01*
X293118Y247086D01*
X292390Y247572D01*
X292032Y247644D01*
D02*
G37*
G36*
X293675Y245000D02*
X292032D01*
Y243356D01*
X292390Y243428D01*
X293118Y243914D01*
X293604Y244642D01*
X293675Y245000D01*
D02*
G37*
G36*
X205079Y240500D02*
X202413D01*
Y237244D01*
X205079D01*
Y240500D01*
D02*
G37*
G36*
X291032Y247644D02*
X290673Y247572D01*
X290541Y247484D01*
X289000D01*
Y245500D01*
Y243516D01*
X290541D01*
X290673Y243428D01*
X291032Y243356D01*
Y245500D01*
Y247644D01*
D02*
G37*
G36*
X205031Y248644D02*
X204673Y248572D01*
X203945Y248086D01*
X203459Y247358D01*
X203388Y247000D01*
X205031D01*
Y248644D01*
D02*
G37*
G36*
X255144Y252500D02*
X253500D01*
Y250856D01*
X253858Y250928D01*
X254586Y251414D01*
X255072Y252142D01*
X255144Y252500D01*
D02*
G37*
G36*
X257500Y252644D02*
X257142Y252572D01*
X256414Y252086D01*
X255928Y251358D01*
X255856Y251000D01*
X257500D01*
Y252644D01*
D02*
G37*
G36*
X131000Y250144D02*
Y248500D01*
X132644D01*
X132572Y248858D01*
X132086Y249586D01*
X131358Y250072D01*
X131000Y250144D01*
D02*
G37*
G36*
X206031Y248644D02*
Y247000D01*
X207675D01*
X207604Y247358D01*
X207118Y248086D01*
X206390Y248572D01*
X206031Y248644D01*
D02*
G37*
G36*
X257500Y250000D02*
X255856D01*
X255928Y249642D01*
X256414Y248914D01*
X257142Y248428D01*
X257500Y248356D01*
Y250000D01*
D02*
G37*
%LPD*%
D10*
X137000Y244799D02*
D03*
X145661D02*
D03*
Y238500D02*
D03*
X137000D02*
D03*
X236000Y146299D02*
D03*
X244661D02*
D03*
Y140000D02*
D03*
X236000D02*
D03*
X272031Y256500D02*
D03*
X263370D02*
D03*
Y250201D02*
D03*
X272031D02*
D03*
D11*
X154079Y191500D02*
D03*
X163921D02*
D03*
X278610Y255000D02*
D03*
X288453D02*
D03*
D12*
X114500Y192618D02*
D03*
Y190059D02*
D03*
Y182382D02*
D03*
Y184941D02*
D03*
Y187500D02*
D03*
D13*
X273488Y234630D02*
D03*
X289630D02*
D03*
X273488Y229630D02*
D03*
X289630D02*
D03*
X273488Y224630D02*
D03*
X289630D02*
D03*
X273488Y219630D02*
D03*
X289630D02*
D03*
X273488Y214630D02*
D03*
X289630D02*
D03*
D14*
X165276Y160240D02*
D03*
Y156500D02*
D03*
Y152760D02*
D03*
X174724D02*
D03*
Y156500D02*
D03*
Y160240D02*
D03*
D15*
X125693Y145953D02*
D03*
Y143984D02*
D03*
Y142016D02*
D03*
Y140047D02*
D03*
X137307D02*
D03*
Y142016D02*
D03*
Y143984D02*
D03*
Y145953D02*
D03*
D16*
X128547Y137193D02*
D03*
X130516D02*
D03*
X132484D02*
D03*
X134453D02*
D03*
Y148807D02*
D03*
X132484D02*
D03*
X130516D02*
D03*
X128547D02*
D03*
D17*
X131500Y143000D02*
D03*
D18*
X241581Y225969D02*
D03*
D19*
X230581Y217969D02*
D03*
Y219937D02*
D03*
Y221905D02*
D03*
Y223874D02*
D03*
Y225842D02*
D03*
Y227811D02*
D03*
Y229780D02*
D03*
Y231748D02*
D03*
Y233717D02*
D03*
X252482D02*
D03*
Y231748D02*
D03*
Y229780D02*
D03*
Y227811D02*
D03*
Y225842D02*
D03*
Y223874D02*
D03*
Y221905D02*
D03*
Y219937D02*
D03*
Y217969D02*
D03*
X216450Y166874D02*
D03*
Y164906D02*
D03*
Y162937D02*
D03*
Y160968D02*
D03*
Y159000D02*
D03*
Y157032D02*
D03*
Y155063D02*
D03*
Y153094D02*
D03*
Y151126D02*
D03*
X194550D02*
D03*
Y153094D02*
D03*
Y155063D02*
D03*
Y157032D02*
D03*
Y159000D02*
D03*
Y160968D02*
D03*
Y162937D02*
D03*
Y164906D02*
D03*
Y166874D02*
D03*
D20*
X233658Y236950D02*
D03*
X235626D02*
D03*
X237595D02*
D03*
X239563D02*
D03*
X241531D02*
D03*
X243500D02*
D03*
X245468D02*
D03*
X247437D02*
D03*
X249406D02*
D03*
Y215050D02*
D03*
X247437D02*
D03*
X245468D02*
D03*
X243500D02*
D03*
X241531D02*
D03*
X239563D02*
D03*
X237595D02*
D03*
X235626D02*
D03*
X233658D02*
D03*
X197468Y169950D02*
D03*
X199437D02*
D03*
X201406D02*
D03*
X203374D02*
D03*
X205343D02*
D03*
X207311D02*
D03*
X209279D02*
D03*
X211248D02*
D03*
X213216D02*
D03*
Y148050D02*
D03*
X211248D02*
D03*
X209279D02*
D03*
X207311D02*
D03*
X205343D02*
D03*
X203374D02*
D03*
X201406D02*
D03*
X199437D02*
D03*
X197468D02*
D03*
D21*
X205469Y158950D02*
D03*
D22*
X175500Y222878D02*
D03*
D23*
X187213Y214122D02*
D03*
Y216090D02*
D03*
Y218059D02*
D03*
Y220028D02*
D03*
Y221996D02*
D03*
Y223965D02*
D03*
Y225933D02*
D03*
Y227902D02*
D03*
Y229870D02*
D03*
Y231839D02*
D03*
X163787D02*
D03*
Y229870D02*
D03*
Y227902D02*
D03*
Y225933D02*
D03*
Y223965D02*
D03*
Y221996D02*
D03*
Y220028D02*
D03*
Y218059D02*
D03*
Y216090D02*
D03*
Y214122D02*
D03*
D24*
X184358Y234693D02*
D03*
X182390D02*
D03*
X180421D02*
D03*
X178453D02*
D03*
X176484D02*
D03*
X174516D02*
D03*
X172547D02*
D03*
X170579D02*
D03*
X168610D02*
D03*
X166642D02*
D03*
Y211268D02*
D03*
X168610D02*
D03*
X170579D02*
D03*
X172547D02*
D03*
X174516D02*
D03*
X176484D02*
D03*
X178453D02*
D03*
X180421D02*
D03*
X182390D02*
D03*
X184358D02*
D03*
D25*
X163000Y139134D02*
D03*
Y130866D02*
D03*
X153000D02*
D03*
Y139134D02*
D03*
D26*
X290661Y162031D02*
D03*
X264087D02*
D03*
D27*
X127953Y132500D02*
D03*
X122047D02*
D03*
X109953Y167500D02*
D03*
X104047D02*
D03*
X178953Y258500D02*
D03*
X173047D02*
D03*
X173047Y254000D02*
D03*
X178953D02*
D03*
X168047Y175000D02*
D03*
X173953D02*
D03*
X177453Y140500D02*
D03*
X171547D02*
D03*
X255453Y131500D02*
D03*
X249547D02*
D03*
X255453Y123500D02*
D03*
X249547D02*
D03*
X190047Y270500D02*
D03*
X195953D02*
D03*
X190047Y265000D02*
D03*
X195953D02*
D03*
X166047Y272500D02*
D03*
X171953D02*
D03*
X280453Y206000D02*
D03*
X274547D02*
D03*
X243453Y195000D02*
D03*
X237547D02*
D03*
X243453Y190500D02*
D03*
X237547D02*
D03*
X167953Y179500D02*
D03*
X162047D02*
D03*
X290953Y206000D02*
D03*
X285047D02*
D03*
X224484Y237500D02*
D03*
X218579D02*
D03*
X128953Y186000D02*
D03*
X123047D02*
D03*
X128953Y191000D02*
D03*
X123047D02*
D03*
X137453Y126500D02*
D03*
X131547D02*
D03*
X122047Y128000D02*
D03*
X127953D02*
D03*
X169047Y166500D02*
D03*
X174953D02*
D03*
X179047Y165000D02*
D03*
X184953D02*
D03*
X109953Y163000D02*
D03*
X104047D02*
D03*
X131547Y131000D02*
D03*
X137453D02*
D03*
D28*
X157142Y168547D02*
D03*
Y170516D02*
D03*
Y172484D02*
D03*
Y174453D02*
D03*
X149858D02*
D03*
Y172484D02*
D03*
Y170516D02*
D03*
Y168547D02*
D03*
D29*
X153500Y171500D02*
D03*
D30*
X144500Y153453D02*
D03*
Y147547D02*
D03*
X136500Y167547D02*
D03*
Y173453D02*
D03*
X186500Y182453D02*
D03*
Y176547D02*
D03*
X197000Y211953D02*
D03*
Y206047D02*
D03*
D31*
X240500Y272500D02*
D03*
X248500D02*
D03*
D32*
X127380Y215417D02*
D03*
Y223416D02*
D03*
D33*
X150469Y221500D02*
D03*
X146531D02*
D03*
X230968Y154500D02*
D03*
X227031D02*
D03*
X210531Y183000D02*
D03*
X214469D02*
D03*
X234563Y152500D02*
D03*
X238500D02*
D03*
X238500Y158500D02*
D03*
X234563D02*
D03*
X247000Y164500D02*
D03*
X243063D02*
D03*
X243032Y155500D02*
D03*
X246969D02*
D03*
X256469Y161500D02*
D03*
X252532D02*
D03*
X238500Y164500D02*
D03*
X234563D02*
D03*
X221031Y142000D02*
D03*
X224969D02*
D03*
X250000Y246500D02*
D03*
X246063D02*
D03*
X227063Y247000D02*
D03*
X231000D02*
D03*
X227063Y241500D02*
D03*
X231000D02*
D03*
X215063Y232000D02*
D03*
X219000D02*
D03*
X261500Y239000D02*
D03*
X257563D02*
D03*
X219000Y229000D02*
D03*
X215063D02*
D03*
X236063Y257500D02*
D03*
X240000D02*
D03*
X244500Y268500D02*
D03*
X240563D02*
D03*
X272500Y245500D02*
D03*
X268563D02*
D03*
X260563Y245500D02*
D03*
X264500D02*
D03*
X277063D02*
D03*
X281000D02*
D03*
X288500Y245500D02*
D03*
X284563D02*
D03*
X147031Y230500D02*
D03*
X150969D02*
D03*
X191969Y205000D02*
D03*
X188031D02*
D03*
X154532Y224000D02*
D03*
X158468D02*
D03*
X147031Y224500D02*
D03*
X150969D02*
D03*
X154532Y221000D02*
D03*
X158468D02*
D03*
X146531Y218500D02*
D03*
X150469D02*
D03*
X178969Y146000D02*
D03*
X175031D02*
D03*
X188969Y169500D02*
D03*
X185031D02*
D03*
X234563Y155500D02*
D03*
X238500D02*
D03*
X223532Y158500D02*
D03*
X227468D02*
D03*
X243063Y158500D02*
D03*
X247000D02*
D03*
X247000Y161500D02*
D03*
X243063D02*
D03*
X252532Y164500D02*
D03*
X256469D02*
D03*
X223532Y161500D02*
D03*
X227468D02*
D03*
X234563Y161500D02*
D03*
X238500D02*
D03*
X246969Y167500D02*
D03*
X243032D02*
D03*
X150969Y227500D02*
D03*
X147031D02*
D03*
X142968Y223500D02*
D03*
X139032D02*
D03*
X132968D02*
D03*
X129032D02*
D03*
D34*
X180500Y152532D02*
D03*
Y156468D02*
D03*
X161500Y166032D02*
D03*
Y169968D02*
D03*
X221000Y146031D02*
D03*
Y149969D02*
D03*
X222000Y170468D02*
D03*
Y166532D02*
D03*
X214000Y179469D02*
D03*
Y175531D02*
D03*
X224500Y170468D02*
D03*
Y166532D02*
D03*
X211000Y179469D02*
D03*
Y175531D02*
D03*
X230532Y161969D02*
D03*
Y158031D02*
D03*
X250500Y142032D02*
D03*
Y145968D02*
D03*
X228500Y135468D02*
D03*
Y131532D02*
D03*
X228500Y124031D02*
D03*
Y127969D02*
D03*
X258000Y214032D02*
D03*
Y217969D02*
D03*
X245031Y253969D02*
D03*
Y250031D02*
D03*
X242032Y246468D02*
D03*
Y242531D02*
D03*
X239032Y246468D02*
D03*
Y242531D02*
D03*
Y253969D02*
D03*
Y250031D02*
D03*
X132500Y194968D02*
D03*
Y191032D02*
D03*
X132500Y182032D02*
D03*
Y185968D02*
D03*
X158000Y212032D02*
D03*
Y215968D02*
D03*
X155000Y212032D02*
D03*
Y215968D02*
D03*
X163000Y243468D02*
D03*
Y239531D02*
D03*
X164500Y200532D02*
D03*
Y204468D02*
D03*
X136000Y219531D02*
D03*
Y223468D02*
D03*
X130500Y242469D02*
D03*
Y238531D02*
D03*
X153000Y244969D02*
D03*
Y241032D02*
D03*
X169000Y189032D02*
D03*
Y192968D02*
D03*
X167500Y199031D02*
D03*
Y202969D02*
D03*
X192000Y211968D02*
D03*
Y208032D02*
D03*
X159000Y156532D02*
D03*
Y160468D02*
D03*
X211531Y246031D02*
D03*
Y249969D02*
D03*
X242032Y250031D02*
D03*
Y253969D02*
D03*
X240531Y261531D02*
D03*
Y265469D02*
D03*
X236032Y250031D02*
D03*
Y253969D02*
D03*
X150500Y207469D02*
D03*
Y203532D02*
D03*
D35*
X192000Y244059D02*
D03*
Y238941D02*
D03*
D36*
X144000Y163547D02*
D03*
Y169453D02*
D03*
X216000Y121047D02*
D03*
Y126953D02*
D03*
X218500Y173547D02*
D03*
Y179453D02*
D03*
X166500Y249453D02*
D03*
Y243547D02*
D03*
X136500Y180047D02*
D03*
Y185953D02*
D03*
X160000Y207453D02*
D03*
Y201547D02*
D03*
X176000Y125547D02*
D03*
Y131453D02*
D03*
X153000Y153953D02*
D03*
Y148047D02*
D03*
X170500Y125547D02*
D03*
Y131453D02*
D03*
X142000Y126047D02*
D03*
Y131953D02*
D03*
X119500Y146047D02*
D03*
Y151953D02*
D03*
X138000Y154047D02*
D03*
Y159953D02*
D03*
D37*
X138370Y254488D02*
D03*
Y270630D02*
D03*
X143370Y254488D02*
D03*
Y270630D02*
D03*
X148370Y254488D02*
D03*
Y270630D02*
D03*
X153370Y254488D02*
D03*
Y270630D02*
D03*
X158370Y254488D02*
D03*
Y270630D02*
D03*
X208130Y136012D02*
D03*
Y119870D02*
D03*
X203130Y136012D02*
D03*
Y119870D02*
D03*
X198130Y136012D02*
D03*
Y119870D02*
D03*
X193130Y136012D02*
D03*
Y119870D02*
D03*
X188130Y136012D02*
D03*
Y119870D02*
D03*
D38*
X211547Y188500D02*
D03*
X217453D02*
D03*
X205579Y241000D02*
D03*
X211484D02*
D03*
X218953Y224500D02*
D03*
X213047D02*
D03*
X141047Y213000D02*
D03*
X146953D02*
D03*
X131453Y161500D02*
D03*
X125547D02*
D03*
X111953Y128000D02*
D03*
X106047D02*
D03*
D39*
X261366Y131500D02*
D03*
X269634D02*
D03*
Y123500D02*
D03*
X261366D02*
D03*
X185134Y272500D02*
D03*
X176866D02*
D03*
Y265500D02*
D03*
X185134D02*
D03*
X250866Y198000D02*
D03*
X259134D02*
D03*
Y191000D02*
D03*
X250866D02*
D03*
D40*
X237000Y124079D02*
D03*
Y133921D02*
D03*
D41*
X130900Y143600D02*
X131500Y143000D01*
X133709Y270630D02*
X138370D01*
X290984Y206000D02*
X294500D01*
X271000D02*
X274047D01*
X271000D02*
X271000Y206000D01*
X289630Y234630D02*
Y238370D01*
X289500Y238500D02*
X289630Y238370D01*
X179500Y194465D02*
Y194600D01*
X179900Y195000D01*
X188500D01*
X189577Y192400D02*
X190577Y193400D01*
X190577D01*
X126000Y188752D02*
X128753Y186000D01*
X126000Y188752D02*
Y195748D01*
X131402Y201150D01*
X133598D01*
X136500Y193500D02*
X138000Y192000D01*
X140500D01*
X133598Y201150D02*
X136500Y198248D01*
Y193500D02*
Y198248D01*
X140500Y192000D02*
X146900Y185600D01*
X192577Y199077D02*
X192577D01*
X194100Y200600D01*
X194236D01*
X195136Y201500D01*
X200500D01*
X202000Y203000D01*
Y214000D01*
X200500Y215500D02*
X202000Y214000D01*
X134069Y189400D02*
X139423D01*
X145823Y183000D01*
X202339Y217338D02*
X202339D01*
X201577Y218100D02*
X202339Y217338D01*
X203838Y215839D02*
X204600Y215077D01*
X202339Y217338D02*
X203838Y215839D01*
Y215839D02*
Y215839D01*
X188500Y195000D02*
X192577Y199077D01*
X132468Y191000D02*
X134069Y189400D01*
X146900Y185600D02*
X170635D01*
X179500Y194465D01*
X145823Y183000D02*
X171713D01*
X181113Y192400D01*
X189577D01*
X181500Y168453D02*
X184953Y165000D01*
X181500Y168453D02*
Y168500D01*
X190577Y193400D02*
X195177Y198000D01*
X195313D01*
X196213Y198900D01*
X201577D01*
X203838Y201162D01*
Y201162D01*
X204600Y201923D01*
Y215077D01*
X171547Y140500D02*
Y142953D01*
X170500Y144000D02*
X171547Y142953D01*
X188130Y136012D02*
Y142630D01*
X188500Y143000D01*
X177000D02*
X177453Y142547D01*
Y140500D02*
Y142547D01*
X189575Y215500D02*
X200500D01*
X194000Y218100D02*
X201577D01*
X190365D02*
X190964Y217500D01*
X193400D01*
X194000Y218100D01*
X188975Y216100D02*
X189575Y215500D01*
D42*
X108000Y133500D02*
X113000D01*
X123047Y161500D02*
X125547D01*
X109212Y175335D02*
X123047Y161500D01*
X129500Y155580D02*
X131420D01*
X125547Y159533D02*
X129500Y155580D01*
X125693Y142398D02*
Y143193D01*
X106047Y128000D02*
Y131547D01*
X108000Y133500D01*
X116453Y132500D02*
X122047D01*
X111953Y128000D02*
X116453Y132500D01*
X113000Y133500D02*
X122500Y143000D01*
X125500D01*
X159000Y160468D02*
X165276D01*
X211531Y249969D02*
X214469D01*
X174724Y146307D02*
X175031Y146000D01*
X174724Y146307D02*
Y152760D01*
X137000Y143000D02*
X142512D01*
X144500Y144988D02*
Y145453D01*
X142512Y143000D02*
X144500Y144988D01*
X125500Y143000D02*
X125693Y143193D01*
X130240Y161500D02*
X136453D01*
X188969Y166421D02*
Y169500D01*
Y172968D01*
X159031Y156500D02*
X165276D01*
X159000Y156532D02*
X159031Y156500D01*
X159000Y156532D02*
Y157031D01*
X169047Y165917D02*
X174724Y160240D01*
X169047Y165917D02*
Y166500D01*
Y170953D01*
X169000Y171000D02*
X169047Y170953D01*
X166000Y199031D02*
X167500D01*
X164500Y200532D02*
X166000Y199031D01*
X161016Y200532D02*
X164500D01*
X160000Y201547D02*
X161016Y200532D01*
X104362Y201772D02*
X110071D01*
X114795Y197047D01*
X114500Y182382D02*
Y184941D01*
X109618Y192618D02*
X114500D01*
X109212Y192212D02*
X109618Y192618D01*
X117000Y182382D02*
X123118D01*
X152000Y157031D02*
X159000D01*
X168539Y159578D02*
X169535Y158582D01*
Y150572D02*
Y158582D01*
X169500Y150537D02*
X169535Y150572D01*
X169500Y148500D02*
Y150537D01*
X156500Y150101D02*
Y153000D01*
X155547Y153953D02*
X156500Y153000D01*
X153000Y153953D02*
X155547D01*
X144500Y145453D02*
X153000Y153953D01*
X168032Y159578D02*
Y160468D01*
Y159578D02*
X168539D01*
X123118Y182382D02*
X130240Y175260D01*
Y161500D02*
Y175260D01*
X165276Y160468D02*
X168032D01*
X143713Y154240D02*
X146503Y157031D01*
X152000D01*
X138000Y159953D02*
X143713Y154240D01*
X165500Y147500D02*
X168500D01*
X169500Y148500D01*
X148031Y203532D02*
X150500D01*
X148000Y203500D02*
X148031Y203532D01*
X104362Y173228D02*
Y201772D01*
X156500Y150101D02*
X159101Y147500D01*
X165500D01*
X152000Y157031D02*
Y160500D01*
X136500Y161547D02*
Y166760D01*
X136453Y161500D02*
X138000Y159953D01*
X109212Y175335D02*
Y192212D01*
X125547Y159533D02*
Y161500D01*
X131420Y155580D02*
X134453Y152547D01*
X166500Y249453D02*
Y253000D01*
X171953Y269047D02*
X172000Y269000D01*
X171953Y269047D02*
Y272500D01*
X273488Y234630D02*
Y237988D01*
X259134Y191000D02*
Y198000D01*
X264000D01*
X254532Y214032D02*
X258000D01*
X254500Y214000D02*
X254532Y214032D01*
X189000Y173000D02*
Y174047D01*
X186500Y176547D02*
X189000Y174047D01*
X181547Y182453D02*
X186500D01*
X181500Y182500D02*
X181547Y182453D01*
X169000Y171000D02*
X169400Y171400D01*
X183132D01*
X185031Y169500D01*
X208130Y136012D02*
X213488D01*
X213500Y136000D01*
X208130Y119870D02*
X209307Y121047D01*
X212653D02*
Y124346D01*
X212500Y124500D02*
X212653Y124346D01*
X209307Y121047D02*
X212653D01*
X216000D01*
D43*
X118000Y129500D02*
X119500Y128000D01*
X122047D01*
X127536Y123428D02*
X134381D01*
X125275Y125690D02*
X127536Y123428D01*
X125275Y125690D02*
Y128000D01*
X220894Y176000D02*
X222500D01*
X188969Y172968D02*
X189000Y173000D01*
X193650Y166874D02*
Y174865D01*
X192500Y176015D02*
X193650Y174865D01*
X194300Y176760D02*
X196760Y174300D01*
X196100Y177506D02*
X197506Y176100D01*
X104047Y163000D02*
Y167500D01*
Y160453D02*
Y163000D01*
Y160453D02*
X105500Y159000D01*
X114500D01*
X119500Y154000D01*
Y151953D02*
Y154000D01*
X109953Y163000D02*
X114354D01*
X128547Y148807D01*
X127500Y152500D02*
X130904D01*
X112500Y167500D02*
X127500Y152500D01*
X109953Y167500D02*
X112500D01*
X170500Y245500D02*
X171010Y244990D01*
X192000Y234500D02*
Y238941D01*
X189339Y231839D02*
X192000Y234500D01*
X226000Y155000D02*
X227031D01*
X221031Y149483D02*
Y149969D01*
X227500Y152000D02*
Y154032D01*
X227031Y154500D02*
X227500Y154032D01*
X227106Y149000D02*
X231886D01*
X224984Y151122D02*
X227106Y149000D01*
X224000Y145500D02*
Y146894D01*
X222481Y148413D02*
X224000Y146894D01*
X223184Y150255D02*
X226400Y147039D01*
X223184Y150255D02*
Y151647D01*
X226400Y143431D02*
Y147039D01*
X224984Y151122D02*
Y152516D01*
X223084Y154416D02*
X224984Y152516D01*
X222215Y152616D02*
X223184Y151647D01*
X222102Y148413D02*
X222481D01*
X221031Y149483D02*
X222102Y148413D01*
X221000Y149969D02*
X221031D01*
X230968Y152032D02*
X234095D01*
X230968D02*
Y154500D01*
X232747Y149861D02*
X241099D01*
X231886Y149000D02*
X232747Y149861D01*
X238500Y164500D02*
Y167500D01*
X243032D02*
Y170468D01*
X252532Y159031D02*
Y161500D01*
X243032Y153032D02*
Y155500D01*
X201406Y170850D02*
Y172912D01*
X203300Y170924D02*
Y173700D01*
Y170924D02*
X203374Y170850D01*
X205100Y172478D02*
Y175400D01*
Y172478D02*
X205343Y172235D01*
X206900Y173223D02*
Y177100D01*
Y173223D02*
X207311Y172812D01*
X205343Y170850D02*
Y172235D01*
X208816Y173853D02*
Y173969D01*
X209311Y170850D02*
Y173358D01*
X208700Y181216D02*
X210531Y183047D01*
X208700Y173969D02*
Y181216D01*
X208816Y173853D02*
X209311Y173358D01*
X210911Y175320D02*
X211100Y175509D01*
X210911Y175120D02*
Y175320D01*
Y175120D02*
X211280Y174752D01*
X211100Y175509D02*
Y175531D01*
X207311Y170850D02*
Y172812D01*
X211100Y175531D02*
X213000D01*
X211280Y170850D02*
Y174752D01*
X169800Y197469D02*
Y200487D01*
X168981Y196650D02*
X169800Y197469D01*
X170842Y202098D02*
X171600Y201340D01*
X170842Y202098D02*
Y208350D01*
X170579Y208613D02*
X170842Y208350D01*
X170579Y208613D02*
Y210146D01*
X167500Y202969D02*
X169042Y204510D01*
Y207604D01*
X172642Y202843D02*
Y210051D01*
Y202843D02*
X173400Y202085D01*
Y199100D02*
Y202085D01*
X172547Y210146D02*
X172642Y210051D01*
X168610Y208036D02*
X169042Y207604D01*
X173400Y199100D02*
X177000Y195500D01*
X167500Y201413D02*
X168981D01*
X210531Y179500D02*
X222000D01*
X214731Y176125D02*
X220769D01*
X222000Y170468D02*
Y173500D01*
X253382Y231748D02*
X253434Y231800D01*
X253382Y227811D02*
X253471Y227900D01*
X204000Y226000D02*
X213400Y216600D01*
X226169Y221670D02*
X228806D01*
X229042Y221905D01*
X229681D01*
X229614Y219869D02*
X229681Y219937D01*
X223788Y223469D02*
X228061D01*
X224231Y225270D02*
X227315D01*
X223018Y226482D02*
X224231Y225270D01*
X228297Y223706D02*
X229513D01*
X228061Y223469D02*
X228297Y223706D01*
X229513D02*
X229681Y223874D01*
X227311Y227811D02*
X229681D01*
X235626Y213573D02*
Y214150D01*
X233554Y211500D02*
X235626Y213573D01*
X232000Y257500D02*
X236063D01*
X232031Y253969D02*
X236032D01*
X245031Y253969D02*
X248468D01*
X190602Y221996D02*
X191006Y222400D01*
X201800Y224200D02*
X203000Y223000D01*
X190260Y224200D02*
X201800D01*
X188402Y226000D02*
X204000D01*
X188335Y225933D02*
X188402Y226000D01*
X190160Y224100D02*
X190260Y224200D01*
X188470Y224100D02*
X190160D01*
X188335Y227902D02*
X201402D01*
X192370Y229870D02*
X199500Y237000D01*
X188335Y229870D02*
X192370D01*
X187835Y231839D02*
X189339D01*
X226400Y143431D02*
X229832Y140000D01*
X219500Y154416D02*
X223084D01*
X130904Y152500D02*
X132367Y151037D01*
X155921Y163547D02*
X159000Y160468D01*
X144000Y163547D02*
X155921D01*
X160953Y170516D02*
X161500Y169968D01*
X157142Y170516D02*
X160953D01*
X153500Y170590D02*
X155375Y168716D01*
X156973D01*
X157142Y168547D01*
Y174453D02*
X158589Y175900D01*
X160388Y172484D02*
X161404Y173500D01*
X157142Y172484D02*
X160388D01*
X166210Y239884D02*
X166642Y240315D01*
X158468Y221000D02*
X159508D01*
X160504Y221996D01*
X162665D01*
X168981Y201413D02*
X169684Y200710D01*
Y200603D02*
Y200710D01*
Y200603D02*
X169700Y200588D01*
X164500Y204468D02*
X166642Y206610D01*
Y210146D01*
X179000Y198500D02*
Y198606D01*
X176600Y201006D02*
X179000Y198606D01*
X176600Y201006D02*
Y201854D01*
X174684Y203770D02*
X176600Y201854D01*
X174684Y203770D02*
Y208551D01*
X174516Y208719D02*
X174684Y208551D01*
X182390Y209569D02*
Y210146D01*
Y209569D02*
X186958Y205000D01*
X180590Y207410D02*
X187500Y200500D01*
X180590Y207410D02*
Y209977D01*
X178400Y206600D02*
X184000Y201000D01*
X178400Y206600D02*
Y210093D01*
X186958Y205000D02*
X187000D01*
X180421Y210146D02*
X180590Y209977D01*
X176484Y204516D02*
Y210146D01*
Y204516D02*
X179000Y202000D01*
X184000Y198000D02*
Y201000D01*
X187531Y211968D02*
X192000D01*
X186863Y208032D02*
X192000D01*
X184748Y210146D02*
X186863Y208032D01*
X245468Y237850D02*
Y239437D01*
X249532Y243500D01*
X243500Y237850D02*
Y240014D01*
X244316Y240830D01*
Y241784D01*
X247437Y238427D02*
X250510Y241500D01*
X247437Y237850D02*
Y238427D01*
X250555Y239000D02*
X257500D01*
X249406Y237850D02*
X250555Y239000D01*
X255031Y245500D02*
X260563D01*
X254031Y246500D02*
X255031Y245500D01*
X249532Y243500D02*
X258701D01*
X258885Y243316D01*
X230224Y126244D02*
X236110D01*
X228500Y127969D02*
X230224Y126244D01*
X123965Y215575D02*
X131925D01*
X168453Y123500D02*
X170500Y125547D01*
X144547Y123500D02*
X168453D01*
X142000Y126047D02*
X144547Y123500D01*
X137307Y153354D02*
X138000Y154047D01*
X137307Y145953D02*
Y153354D01*
X170500Y125547D02*
X176000D01*
X141547Y126500D02*
X142000Y126047D01*
X137453Y126500D02*
X141547D01*
X134381Y123428D02*
X137453Y126500D01*
X122047Y128000D02*
X125275D01*
X139881Y134072D02*
X142000Y131953D01*
X132997Y134072D02*
X139881D01*
X132602Y134467D02*
X132997Y134072D01*
X132602Y134467D02*
Y137076D01*
X132484Y137193D02*
X132602Y137076D01*
X131547Y126500D02*
X131547Y126500D01*
X131547Y126500D02*
Y132500D01*
X130631Y133416D02*
X131547Y132500D01*
X130631Y133416D02*
Y137078D01*
X130516Y137193D02*
X130631Y137078D01*
X127953Y128000D02*
X127953Y128000D01*
Y132500D01*
Y136598D01*
X128547Y137193D01*
X160000Y207453D02*
X162665Y210118D01*
Y214122D01*
X150500Y206700D02*
X153300D01*
X150500D02*
Y207469D01*
X136000Y213000D02*
X141047D01*
X146953D02*
X149921Y215968D01*
X155000D01*
X146953Y213000D02*
X150500Y209453D01*
Y207469D02*
Y209453D01*
X162665Y239197D02*
X163000Y239531D01*
X162665Y231839D02*
Y239197D01*
X145890Y246756D02*
X146114Y246532D01*
X161899Y229987D02*
X162548D01*
X162665Y229870D01*
X161616Y227902D02*
Y228100D01*
X158900D02*
X161616D01*
Y227902D02*
X162665D01*
X152500Y230500D02*
X154000Y229000D01*
Y227500D02*
Y229000D01*
Y227500D02*
X155200Y226300D01*
X160672D01*
X161039Y225933D01*
X150969Y230500D02*
X152500D01*
X161039Y225933D02*
X162665D01*
X155000Y215968D02*
X158000D01*
X158122Y216090D02*
X160090Y218059D01*
X158000Y215968D02*
X158122Y216090D01*
X160090Y218059D02*
X162665D01*
X158122Y216090D02*
X162665D01*
X158468Y224082D02*
X162548D01*
X162665Y223965D01*
X158468Y224082D02*
Y224500D01*
X150969D02*
X154532D01*
X150969D02*
Y227500D01*
X150469Y218500D02*
Y221500D01*
X150469Y221500D02*
X154532D01*
X143968Y224500D02*
X147031D01*
X142968Y223500D02*
X143968Y224500D01*
X144968Y221500D02*
X146531D01*
X142968Y223500D02*
X144968Y221500D01*
X132968Y223500D02*
X139032D01*
X123965Y223528D02*
X123992Y223500D01*
X284563Y243032D02*
Y245500D01*
X282031Y240500D02*
X284563Y243032D01*
X279532Y242500D02*
X281000Y243969D01*
X237476Y214031D02*
X237595Y214150D01*
X219000Y232500D02*
X219250Y232250D01*
X219000Y232000D02*
X219252Y231748D01*
X205532Y246500D02*
X205579Y246453D01*
Y241000D02*
Y246453D01*
X215032Y241000D02*
X215531Y241500D01*
X281000Y245500D02*
Y250386D01*
X279276Y252110D02*
X281000Y250386D01*
Y243969D02*
Y245500D01*
X246063Y243531D02*
Y246500D01*
X212032Y229000D02*
X215063D01*
X229681Y229716D02*
Y229780D01*
X212032Y232000D02*
X212032Y232000D01*
X215063D01*
X219332Y245300D02*
X220731D01*
X215531Y241500D02*
X219332Y245300D01*
X215531Y235524D02*
X216556Y234500D01*
X216638Y234428D02*
X219000Y232067D01*
Y232000D02*
Y232067D01*
X229681Y231748D02*
Y233717D01*
X224484Y237500D02*
X233307D01*
X233658Y237850D01*
X231000Y242000D02*
X232961D01*
X220731Y245300D02*
Y248253D01*
Y245300D02*
X222031Y244000D01*
X228567D01*
X231000Y241567D01*
Y241500D02*
Y241567D01*
X232961Y242000D02*
X235507Y239454D01*
Y237969D02*
Y239454D01*
Y237969D02*
X235626Y237850D01*
X230500Y246500D02*
X237595Y239405D01*
Y237850D02*
Y239405D01*
X241531Y242032D02*
X242032Y242531D01*
X241531Y237850D02*
Y242032D01*
X239444Y237969D02*
Y242119D01*
X239032Y242531D02*
X239444Y242119D01*
X239032Y250031D02*
X239032Y250031D01*
X236032Y250031D02*
X239032D01*
X242032D02*
X245031D01*
X242032Y246468D02*
Y250031D01*
Y253969D02*
Y255469D01*
X240000Y257500D02*
X242032Y255469D01*
X239032Y253969D02*
Y256532D01*
X240000Y257500D01*
X240531Y258032D01*
Y261531D01*
X235886Y131532D02*
X236110Y131756D01*
X228500Y131532D02*
X235886D01*
X217382Y166874D02*
Y173165D01*
X243063Y161500D02*
Y164500D01*
X224784Y156216D02*
X226000Y155000D01*
X221812Y156216D02*
X224784D01*
X220996Y157032D02*
X221812Y156216D01*
X217382Y157032D02*
X220996D01*
X217382Y159000D02*
X223031D01*
X217382Y160968D02*
X223000D01*
X220153Y150816D02*
X221000Y149969D01*
X217692Y150816D02*
X220153D01*
X218853Y155063D02*
X219500Y154416D01*
X218030Y153094D02*
X218508Y152616D01*
X217382Y151126D02*
X217692Y150816D01*
X217382Y155063D02*
X218853D01*
X247000Y164500D02*
X252532D01*
X217382Y153094D02*
X218030D01*
X219374Y164906D02*
X221000Y166532D01*
X217382Y164906D02*
X219374D01*
X224000Y164000D02*
X224500Y164500D01*
X221500Y164000D02*
X224000D01*
X220437Y162937D02*
X221500Y164000D01*
X217382Y162937D02*
X220437D01*
X223000Y160968D02*
X223532Y161500D01*
X223031Y159000D02*
X223532Y158500D01*
X227468Y161500D02*
X230063D01*
X230532Y161969D01*
X227468Y158500D02*
X230063D01*
X230532Y158031D01*
Y161969D02*
X234095D01*
X234563Y161500D01*
Y164500D01*
X230532Y158031D02*
X234095D01*
X234563Y158500D01*
X234563Y158500D01*
Y155500D02*
Y158500D01*
X238500Y152500D02*
Y155500D01*
X238500Y158500D02*
Y161500D01*
Y158500D02*
X243063D01*
Y159016D01*
X243063Y159016D01*
X247000Y155532D02*
Y158500D01*
Y161500D01*
X246969Y164532D02*
Y167500D01*
X256469Y161500D02*
Y164500D01*
X256500Y164532D01*
X257000Y162031D02*
X264087D01*
X213000Y175531D02*
X213248Y175284D01*
X134453Y148807D02*
Y152547D01*
X123047Y140047D02*
X125693D01*
X122047Y139047D02*
X123047Y140047D01*
X122047Y132500D02*
Y139047D01*
X137453Y131000D02*
X137800D01*
X139799Y129000D01*
X146500D01*
X134453Y137193D02*
X141693D01*
X142000Y137500D01*
X132531Y219531D02*
X136000D01*
X132500Y219500D02*
X132531Y219531D01*
X141000Y218500D02*
X146531D01*
X141000Y218500D02*
X141000Y218500D01*
X155000Y212032D02*
X158000D01*
X155000D02*
X155000Y212032D01*
Y209000D02*
Y212032D01*
X227031Y154469D02*
Y154500D01*
X224532Y166500D02*
X230000D01*
X224500Y164500D02*
Y166532D01*
X218508Y152616D02*
X222215D01*
X224969Y142000D02*
X226400Y143431D01*
X221000Y166532D02*
X224500D01*
X174724Y156500D02*
X180468D01*
X180500Y156468D01*
X177500Y166500D02*
X180500Y163500D01*
X174953Y166500D02*
X177500D01*
X178969Y146000D02*
X180500Y147531D01*
Y149000D02*
Y152532D01*
X213248Y170850D02*
Y175284D01*
X146953Y213000D02*
X151000D01*
X151000Y213000D01*
X157084Y234802D02*
X161899Y229987D01*
X160000Y242531D02*
X163000Y239531D01*
X150969Y230500D02*
Y233968D01*
X211484Y241000D02*
X215032D01*
X215531Y235524D02*
Y241500D01*
X211484Y241000D02*
Y245984D01*
X211531Y246031D01*
X168610Y208036D02*
Y210146D01*
X167500Y201413D02*
Y202969D01*
X170579Y210146D02*
X170742Y209983D01*
X184358Y210146D02*
X184748D01*
X178400Y210093D02*
X178453Y210146D01*
X174516Y208719D02*
Y210146D01*
X156547Y201547D02*
X160000D01*
X221879Y249400D02*
X228667D01*
X220731Y248253D02*
X221879Y249400D01*
X228667D02*
X231000Y247067D01*
X223532Y247000D02*
X227063D01*
X223532Y247000D02*
X223532Y247000D01*
X222579Y241500D02*
X227063D01*
X218579Y237500D02*
X222579Y241500D01*
X231000Y248969D02*
X232031Y250000D01*
X231000Y247000D02*
Y247067D01*
Y248969D01*
X246063Y246500D02*
X248532Y248969D01*
Y250000D01*
X250000Y246500D02*
X254031D01*
X253382Y233717D02*
X253498Y233600D01*
X257500Y239000D02*
X257500Y239000D01*
X257500Y236531D02*
Y239000D01*
X241099Y149861D02*
X244661Y146299D01*
X229832Y140000D02*
X236000D01*
X244661Y146299D02*
X250169D01*
X250500Y145968D01*
X223031Y135468D02*
X228500D01*
X221031Y137469D02*
X223031Y135468D01*
X221031Y137469D02*
Y142000D01*
Y146000D01*
X224532Y124031D02*
X228500D01*
X250500Y138000D02*
Y142032D01*
X268076Y245987D02*
X268563Y245500D01*
X268076Y245987D02*
Y253544D01*
X271031Y256500D01*
X272031D01*
X245468Y237850D02*
X245532Y237913D01*
X244316Y241784D02*
X246063Y243531D01*
X264425Y245500D02*
X264500D01*
Y249071D01*
X263370Y250201D02*
X264500Y249071D01*
X272500Y245500D02*
X277063D01*
X277063Y245500D01*
Y248468D01*
X288500Y245500D02*
X291531D01*
X291531Y245500D01*
X284563Y245500D02*
Y251110D01*
X288453Y255000D01*
X160090Y218059D02*
X162059Y220028D01*
X162665D01*
X142000Y131953D02*
X145619Y135572D01*
X160244Y139134D02*
X163000D01*
X161622Y129488D02*
X163587Y131453D01*
X170500D01*
X156682Y135572D02*
X160244Y139134D01*
X145619Y135572D02*
X156682D01*
X153000Y130866D02*
X155756D01*
X117000Y190059D02*
X122106D01*
X117000Y187500D02*
X121547D01*
X123047Y186000D01*
X132500Y178500D02*
Y182032D01*
X132500Y178500D02*
X132500Y178500D01*
X132500Y194968D02*
Y198500D01*
X210500Y179469D02*
X210531Y179500D01*
X210531Y187484D02*
X211547Y188500D01*
X217453Y185984D02*
Y188500D01*
X194500Y147150D02*
X197468D01*
X245000Y132000D02*
X249047D01*
X249547Y131500D01*
X244500Y123500D02*
X249547D01*
X249547Y123500D01*
X255453D02*
X261366D01*
X255453Y131500D02*
X261366D01*
X269634Y123500D02*
Y131500D01*
X275000D01*
X248960Y268540D02*
Y272659D01*
Y268540D02*
X249000Y268500D01*
X244500Y265500D02*
Y268500D01*
X189059Y244059D02*
X192000D01*
X224500Y170468D02*
Y173500D01*
X155756Y130866D02*
X159390Y134500D01*
X137307Y140047D02*
X151157D01*
X153000Y141890D02*
X153000Y141890D01*
X153000Y141890D02*
Y148047D01*
X132367Y148924D02*
X132484Y148807D01*
X132367Y148924D02*
Y151037D01*
X165500Y147500D02*
X166562Y146438D01*
X138000Y174740D02*
X143760D01*
X146016Y172484D01*
X149858D01*
X144563Y170516D02*
X149858D01*
X159658Y166032D02*
X161500D01*
X157142Y168547D02*
X159658Y166032D01*
X153500Y170590D02*
Y171500D01*
X161404Y173500D02*
X161500D01*
X158589Y175900D02*
X162494D01*
X165276Y173118D01*
Y160240D02*
Y160468D01*
Y173118D01*
X141000Y166453D02*
X144000Y169453D01*
X147500Y166189D02*
X149858Y168547D01*
X141000Y166453D02*
X141028Y166424D01*
Y161472D02*
Y166424D01*
X143500Y163547D02*
X143742Y163789D01*
X141028Y161472D02*
X141531Y160969D01*
X147969D01*
X159500Y152500D02*
X165016D01*
X165276Y152760D01*
X143500Y169453D02*
X144563Y170516D01*
X167157Y175000D02*
X168047D01*
X165276Y173118D02*
X167157Y175000D01*
X211280Y147150D02*
X211353Y147076D01*
X159390Y134500D02*
X172953D01*
X176000Y131453D01*
X169123Y137377D02*
X175623D01*
X166562Y139938D02*
X169123Y137377D01*
X166562Y139938D02*
Y146438D01*
X218953Y224500D02*
Y228953D01*
X213047Y224500D02*
Y227984D01*
X212032Y229000D02*
X213047Y227984D01*
X136500Y180047D02*
X139953D01*
X140000Y180000D01*
X155000Y200000D02*
X155500Y199500D01*
X155000Y200000D02*
X156547Y201547D01*
X153300Y206700D02*
X155532Y204468D01*
X164500D01*
X222000Y179500D02*
X222000Y179500D01*
X214469Y179484D02*
Y183000D01*
X217453Y185984D01*
X210531Y183047D02*
Y187484D01*
X213000Y175531D02*
Y176000D01*
X214606D01*
X214731Y176125D01*
X192000Y208032D02*
X195016D01*
X197000Y206047D01*
X192016Y211953D02*
X197000D01*
X191969Y202031D02*
Y205000D01*
X170500Y235894D02*
X170579Y235815D01*
X195953Y258953D02*
Y265000D01*
X185134D02*
X190047D01*
X186634Y270500D02*
X190047D01*
X176866Y265000D02*
Y272000D01*
X172500Y265000D02*
X176866D01*
X195953Y270500D02*
X199500Y266953D01*
Y237000D02*
Y266953D01*
X188335Y223965D02*
X188470Y224100D01*
X188335Y221996D02*
X190602D01*
X201402Y227902D02*
X202500Y229000D01*
X159229Y196650D02*
X168981D01*
X187500Y198000D02*
Y200500D01*
X220769Y176125D02*
X220894Y176000D01*
X222000Y173500D02*
X224500D01*
X240500Y265500D02*
X240531Y265469D01*
X240500Y265500D02*
Y272500D01*
X153000Y139134D02*
X157500Y143634D01*
X151157Y140047D02*
X153000Y141890D01*
X163000Y139134D02*
Y144000D01*
X163000Y243468D02*
Y244000D01*
X143500Y230500D02*
X147031D01*
X143500Y227500D02*
X147031D01*
X208606Y214000D02*
X215000D01*
X191006Y222400D02*
X200206D01*
X203300Y183300D02*
X206000D01*
X147500Y165500D02*
Y166189D01*
X147969Y160969D02*
X148000Y161000D01*
X149858Y174453D02*
Y179642D01*
X134500Y206000D02*
X145000Y195500D01*
X134000Y210500D02*
X145500Y199000D01*
X147500D01*
X119595Y145953D02*
X125693D01*
X257500Y236531D02*
X258032Y236000D01*
X157084Y234802D02*
Y236947D01*
X153000Y241032D02*
X157084Y236947D01*
X150600Y236400D02*
X151994D01*
X145661Y244799D02*
X148398Y242062D01*
X153900Y233100D02*
X158900Y228100D01*
X153900Y233100D02*
Y234494D01*
X151994Y236400D02*
X153900Y234494D01*
X150377Y236400D02*
X150600D01*
X148914Y234938D02*
X150377Y236400D01*
X140562Y234938D02*
X148914D01*
X137000Y238500D02*
X140562Y234938D01*
X130500Y238531D02*
X136969D01*
X137000Y238500D01*
X130500Y242469D02*
Y248000D01*
X130500Y248000D02*
X130500Y248000D01*
X143370Y267370D02*
Y270630D01*
X139500Y263500D02*
X143370Y267370D01*
Y254488D02*
Y260382D01*
X166500Y244250D02*
X166642Y244392D01*
X166500Y243689D02*
Y244250D01*
X166608Y244392D02*
X166642D01*
X166500Y243689D02*
X166642Y243547D01*
Y240315D02*
Y243547D01*
X148398Y242062D02*
X151969D01*
X153000Y241032D01*
X166210Y236246D02*
X166642Y235815D01*
X166210Y236246D02*
Y239884D01*
X170500Y235894D02*
Y237385D01*
X168610Y235815D02*
Y238890D01*
X172547Y235815D02*
Y236887D01*
X164172Y275472D02*
X168028D01*
X159330Y270630D02*
X164172Y275472D01*
X158370Y270630D02*
X159330D01*
X170500Y237385D02*
X171010Y237896D01*
Y244990D01*
X173500Y250000D02*
X174700Y248800D01*
X163000Y248000D02*
X166608Y244392D01*
X137858Y255000D02*
X138370Y254488D01*
X130500Y255000D02*
X137858D01*
X161751Y264705D02*
X162500Y265454D01*
X156377Y264705D02*
X161751D01*
X153370Y267712D02*
X156377Y264705D01*
X153370Y267712D02*
Y270630D01*
X148370Y264870D02*
Y270630D01*
X174516Y235815D02*
X174684Y235983D01*
X172810Y244416D02*
X172900Y244506D01*
X174684Y243745D02*
X174700Y243760D01*
X174684Y235983D02*
Y243745D01*
X174700Y243760D02*
Y248800D01*
X172547Y236887D02*
X172810Y237150D01*
Y244416D01*
X172900Y244506D02*
Y247206D01*
X169553Y250553D02*
X172900Y247206D01*
X182390Y235815D02*
Y236392D01*
X180421Y235815D02*
Y236969D01*
X177500Y240546D02*
Y245500D01*
X176484Y239530D02*
X177500Y240546D01*
X176484Y235815D02*
Y239530D01*
X178453Y235815D02*
Y238953D01*
X189000Y244000D02*
X189500Y243500D01*
X187000Y250000D02*
X195953Y258953D01*
X187000Y238457D02*
Y250000D01*
X185200Y239202D02*
Y251300D01*
X183400Y239948D02*
Y248628D01*
X180421Y236969D02*
X183400Y239948D01*
X182390Y236392D02*
X185200Y239202D01*
X184358Y235815D02*
X187000Y238457D01*
X178453Y238953D02*
X181000Y241500D01*
Y247500D01*
X172000Y264500D02*
X172500Y265000D01*
X148370Y258870D02*
X152000Y262500D01*
X148370Y254488D02*
Y258870D01*
X158574Y244969D02*
X159006Y245400D01*
X161068D01*
X163000Y243468D01*
X153000Y244969D02*
X158574D01*
X154500Y248000D02*
X163000D01*
X153370Y249130D02*
X154500Y248000D01*
X153370Y249130D02*
Y254488D01*
X158370D02*
X166047Y262165D01*
X183000Y259000D02*
X183000Y259000D01*
X168028Y275472D02*
X169375Y274125D01*
X166047Y262165D02*
Y272500D01*
X169375Y270231D02*
X169553Y270053D01*
X169375Y270231D02*
Y274125D01*
X169553Y250553D02*
Y270053D01*
X183372Y248628D02*
X183400D01*
X181500Y250500D02*
X183372Y248628D01*
X177500Y250500D02*
X181500D01*
X173047Y254500D02*
X173500D01*
X173047Y254000D02*
Y258500D01*
X178953Y254500D02*
X182000D01*
X185200Y251300D01*
X173500Y254500D02*
X177500Y250500D01*
X173047Y258500D02*
Y259547D01*
X175438Y261938D01*
X179725D01*
X180428Y262641D01*
Y262928D01*
X181000Y263500D01*
Y276500D01*
X179453Y259000D02*
X183000D01*
X178953Y258500D02*
X179453Y259000D01*
X258885Y243316D02*
X262241D01*
X264425Y245500D01*
X250510Y241500D02*
X266531D01*
X268563Y243531D01*
Y245500D01*
X261500Y237500D02*
Y239000D01*
Y237500D02*
X262500Y236500D01*
X263000D01*
X265400Y237005D02*
X270895Y242500D01*
X279532D01*
X271441Y240500D02*
X282031D01*
X267564Y236623D02*
X271441Y240500D01*
X267564Y234812D02*
Y236623D01*
X265400Y235506D02*
Y237005D01*
X219000Y229000D02*
X219716Y229716D01*
X229229Y232200D02*
X229681Y231748D01*
X224760Y232200D02*
X229229D01*
X224822Y229716D02*
X225506Y230400D01*
X219252Y231748D02*
X224308D01*
X224760Y232200D01*
X219716Y229716D02*
X224822D01*
X223018Y226482D02*
Y227000D01*
X223500Y219000D02*
X226169Y221670D01*
X227888Y225842D02*
X229681D01*
X227315Y225270D02*
X227888Y225842D01*
X213400Y216600D02*
X223994D01*
X215000Y219000D02*
X223500D01*
X223118Y222800D02*
X223788Y223469D01*
X225506Y230400D02*
X227494D01*
X228178Y229716D01*
X229681D01*
X273488Y219630D02*
X277370D01*
X280000Y201500D02*
X280799D01*
X285047Y205748D01*
Y206000D01*
Y206955D01*
X280000Y212002D02*
X285047Y206955D01*
X280000Y212002D02*
Y217000D01*
X277370Y219630D02*
X280000Y217000D01*
X280453Y206000D02*
Y207665D01*
X273488Y214630D02*
X280453Y207665D01*
X223650Y214150D02*
X233658D01*
X229000Y211500D02*
X233554D01*
X234000Y193000D02*
X236500Y190500D01*
X237547D01*
X243453D02*
X250366D01*
X243453Y195000D02*
X246453Y198000D01*
X250866D01*
X253382Y229780D02*
X264085D01*
X264606Y230300D01*
X253434Y231800D02*
X263560D01*
X263860Y232100D01*
X264852D01*
X267564Y234812D01*
X253498Y233600D02*
X262815D01*
X263115Y233900D01*
X263794D01*
X265400Y235506D01*
X271232Y230300D02*
X271752Y229780D01*
X264606Y230300D02*
X271232D01*
X253471Y227900D02*
X265600D01*
X283500Y229500D02*
X289500D01*
X289630Y229630D01*
X258000Y217969D02*
X260469D01*
X253382D02*
X258000D01*
X253382Y219937D02*
X256106D01*
X259350Y220350D02*
X260169Y221168D01*
X260963D01*
X283500Y224000D02*
X284130Y224630D01*
X289630D01*
X256106Y219937D02*
X256519Y220350D01*
X259350D01*
X253382Y221905D02*
X254906D01*
X257000Y224000D01*
X262000Y202500D02*
X263500Y204000D01*
X257000Y224000D02*
X262000D01*
X263158Y225842D02*
X265500Y223500D01*
X253382Y225842D02*
X263158D01*
X269630Y224630D02*
X273488D01*
X263500Y204000D02*
Y222500D01*
X262000Y224000D02*
X263500Y222500D01*
X265500Y201564D02*
Y223500D01*
X267500Y222500D02*
X269630Y224630D01*
X267500Y211500D02*
Y222500D01*
Y211500D02*
X268500Y210500D01*
X250000D02*
Y213555D01*
X249406Y214150D02*
X250000Y213555D01*
X247437Y209563D02*
Y214150D01*
Y209563D02*
X249500Y207500D01*
X253000D01*
X283000Y219500D02*
X283130Y219630D01*
Y214630D02*
X289630D01*
X283000Y214500D02*
X283130Y214630D01*
X245468Y207531D02*
Y214150D01*
X239444Y214031D02*
X239563Y214150D01*
X234000Y207500D02*
X237476Y210976D01*
Y214031D01*
X237547Y195000D02*
Y207547D01*
X239444Y209444D01*
Y214031D01*
X240000Y204000D02*
X241531Y205532D01*
Y214150D01*
X245468Y207531D02*
X245500Y207500D01*
X246000D01*
X243332Y213981D02*
X243500Y214150D01*
X243332Y203937D02*
Y213981D01*
X242000Y202606D02*
X243332Y203937D01*
X242000Y199500D02*
Y202606D01*
X283000Y219500D02*
X289500D01*
X289630Y219630D01*
X234000Y193000D02*
Y207500D01*
X196100Y177506D02*
Y179494D01*
X197506Y180900D01*
X197900D01*
X199437Y170850D02*
Y172335D01*
X197472Y174300D02*
X199437Y172335D01*
X196760Y174300D02*
X197472D01*
X198218Y176100D02*
X201406Y172912D01*
X197506Y176100D02*
X198218D01*
X202000Y178500D02*
X205100Y175400D01*
X205500Y178500D02*
X206900Y177100D01*
X203500Y186500D02*
X204500D01*
X197900Y180900D02*
X203500Y186500D01*
X194300Y176760D02*
Y182300D01*
X192500Y176015D02*
Y184500D01*
X201500Y189500D02*
X207000D01*
X192500Y184500D02*
X200700Y192700D01*
X209200D01*
X210000Y193500D01*
X206000Y194500D02*
X208000Y196500D01*
X217000D01*
X264000Y187000D02*
X267060Y190060D01*
X217000Y196500D02*
X228500Y185000D01*
X257000Y202500D02*
X262000D01*
X255000Y200500D02*
X257000Y202500D01*
X255000Y194500D02*
Y200500D01*
X229046Y187000D02*
X264000D01*
X254500Y185000D02*
X255000Y184500D01*
X228500Y185000D02*
X254500D01*
X125693Y140047D02*
Y140066D01*
X128566D01*
X131500Y143000D01*
X169000Y179500D02*
X173500Y175000D01*
X167953Y179500D02*
X169000D01*
X157500D02*
X162047D01*
X157500Y179500D02*
X157500Y179500D01*
X154079Y191500D02*
X159229Y196650D01*
X171600Y195569D02*
Y201340D01*
X169000Y192968D02*
X171600Y195569D01*
X165390Y192968D02*
X169000D01*
X163921Y191500D02*
X165390Y192968D01*
X169000Y189032D02*
X169032D01*
X172500Y192500D01*
X188376Y218100D02*
X190365D01*
X173000Y180000D02*
Y181600D01*
X181899Y190500D01*
X190500D01*
X182453Y188453D02*
X191500D01*
X177000Y183000D02*
X182453Y188453D01*
X177000Y178047D02*
Y183000D01*
X191500Y188453D02*
X197547Y194500D01*
X180500Y156468D02*
Y163500D01*
X176000Y125547D02*
Y126606D01*
X178972Y129578D01*
X175623Y137377D02*
X178972Y134028D01*
Y129578D02*
Y134028D01*
X180772Y123228D02*
X183000Y121000D01*
X188969Y166421D02*
X190484Y164906D01*
X193650D01*
X187500Y157500D02*
X189000Y159000D01*
X186400Y159900D02*
X187354D01*
X185528Y162028D02*
X186937D01*
X192771Y161232D02*
X193034Y160968D01*
X193650D01*
X193555Y163031D02*
X193650Y162937D01*
X187940Y163031D02*
X193555D01*
X188686Y161232D02*
X192771D01*
X189000Y159000D02*
X193650D01*
X187354Y159900D02*
X188686Y161232D01*
X186937Y162028D02*
X187940Y163031D01*
X187500Y153500D02*
Y154106D01*
X190426Y157032D02*
X193650D01*
X191003Y155063D02*
X193650D01*
X187500Y154106D02*
X190426Y157032D01*
X189900Y153960D02*
X191003Y155063D01*
X187000Y149606D02*
X187106Y149500D01*
X179000Y121000D02*
X182000Y118000D01*
X186260D01*
X188130Y119870D01*
X183000Y159500D02*
X185528Y162028D01*
X185000Y158500D02*
X186400Y159900D01*
X192595Y153094D02*
X193650D01*
X180772Y123228D02*
Y143772D01*
X183200Y144351D02*
X185000Y146151D01*
X180772Y143772D02*
X181400Y144400D01*
Y145097D01*
X185000Y126000D02*
Y127954D01*
X183200Y129754D02*
X185000Y127954D01*
X183200Y129754D02*
Y144351D01*
X185000Y130500D02*
Y143606D01*
X193130Y119870D02*
Y125370D01*
X187000Y149606D02*
X189900Y152506D01*
Y153960D01*
X191700Y152200D02*
X192595Y153094D01*
X191700Y151722D02*
Y152200D01*
X185000Y143606D02*
X190300Y148906D01*
Y150322D01*
X191700Y151722D01*
X192100Y149576D02*
X193650Y151126D01*
X192100Y144400D02*
Y149576D01*
X198000Y128500D02*
X198130Y128370D01*
Y119870D02*
Y128370D01*
X200206Y222400D02*
X208606Y214000D01*
X175500Y224000D02*
X187531Y211968D01*
X190500Y190500D02*
X197000Y197000D01*
X202454D01*
X197547Y194500D02*
X206000D01*
X180500Y147531D02*
Y149000D01*
X181400Y145097D02*
X183000Y146697D01*
Y159500D01*
X185000Y146151D02*
Y158500D01*
X187106Y149500D02*
X187500D01*
X198130Y136012D02*
Y140476D01*
X198500Y178500D02*
X203300Y183300D01*
X194300Y182300D02*
X201500Y189500D01*
X198500Y178500D02*
X203300Y173700D01*
X173500Y175000D02*
X173500Y175000D01*
X173953D01*
X179000D01*
X173953D02*
X177000Y178047D01*
X223574Y131532D02*
X228500D01*
X224592Y127969D02*
X228500D01*
X216831Y135729D02*
X224592Y127969D01*
X218632Y136474D02*
X223574Y131532D01*
X218632Y136474D02*
Y141766D01*
X213248Y147150D02*
X218632Y141766D01*
X216831Y135729D02*
Y141021D01*
X203130Y119870D02*
Y125630D01*
Y136012D02*
Y138929D01*
X211248Y147150D02*
X211448Y146950D01*
X207311Y145311D02*
Y147150D01*
X203000Y125760D02*
Y126000D01*
X194564Y141936D02*
X196670D01*
X198130Y140476D01*
X192100Y144400D02*
X194564Y141936D01*
X196500Y144500D02*
X197437D01*
X199437Y146500D01*
Y147150D01*
X207311Y145311D02*
X207500Y145122D01*
X207000Y144622D02*
X207500Y145122D01*
X205343Y146643D02*
Y147150D01*
X204600Y145901D02*
X205343Y146643D01*
X204600Y144600D02*
Y145901D01*
X199500Y142636D02*
Y142894D01*
X203130Y138929D02*
X206137Y141936D01*
X210826Y143500D02*
Y144481D01*
X209262Y141936D02*
X210826Y143500D01*
X211448Y146404D02*
Y146950D01*
Y146404D02*
X216831Y141021D01*
X199500Y142894D02*
X201406Y144800D01*
Y147150D01*
X203000Y143000D02*
X204600Y144600D01*
X206137Y141936D02*
X209262D01*
X209279Y146237D02*
Y147150D01*
Y146237D02*
X209648Y145868D01*
Y145658D02*
Y145868D01*
Y145658D02*
X210826Y144481D01*
X207000Y144500D02*
Y144622D01*
X192400Y126100D02*
X193130Y125370D01*
X189400Y126100D02*
X192400D01*
X185000Y130500D02*
X189400Y126100D01*
X193000Y128500D02*
Y135882D01*
X193130Y136012D01*
X216000Y126953D02*
Y131000D01*
X204000Y198546D02*
X217500D01*
X202454Y197000D02*
X204000Y198546D01*
X217500D02*
X229046Y187000D01*
X136000Y213000D02*
X136131Y212869D01*
X136157D01*
X267060Y190060D02*
Y200004D01*
X265500Y201564D02*
X267060Y200004D01*
X223994Y216600D02*
X227264Y219869D01*
X229614D01*
X187862Y220000D02*
X192000D01*
X188335Y216090D02*
X188838D01*
D44*
X128753Y186000D02*
X128953D01*
Y191000D02*
X132468D01*
X128953Y186000D02*
X136453D01*
D45*
X104362Y201772D02*
D03*
Y173228D02*
D03*
D46*
X114795Y177953D02*
D03*
Y197047D02*
D03*
D47*
X112000Y141500D02*
D03*
D48*
Y153500D02*
D03*
X104000Y147500D02*
D03*
D49*
X272000Y181000D02*
D03*
D50*
Y191000D02*
D03*
D51*
X129532Y144968D02*
D03*
X129532Y141032D02*
D03*
X133468Y141032D02*
D03*
X133468Y144968D02*
D03*
X110000Y133000D02*
D03*
X118000Y129500D02*
D03*
X257000Y180000D02*
D03*
X234500Y168500D02*
D03*
X222500Y176000D02*
D03*
X189000Y173000D02*
D03*
X198500Y178500D02*
D03*
X170500Y245500D02*
D03*
X192000Y234500D02*
D03*
X227500Y152000D02*
D03*
X230968Y152032D02*
D03*
X224000Y145500D02*
D03*
X238500Y167500D02*
D03*
X243032Y170468D02*
D03*
X252532Y159031D02*
D03*
X243032Y153032D02*
D03*
X223650Y214150D02*
D03*
X232000Y257500D02*
D03*
X232031Y253969D02*
D03*
X248468Y253969D02*
D03*
X214469Y249969D02*
D03*
X166642Y206610D02*
D03*
X205532Y246500D02*
D03*
X212032Y229000D02*
D03*
Y232000D02*
D03*
X146500Y129000D02*
D03*
X142000Y137500D02*
D03*
X132500Y219500D02*
D03*
X141000Y218500D02*
D03*
X155000Y209000D02*
D03*
X230000Y166500D02*
D03*
X169000Y171000D02*
D03*
X151000Y213000D02*
D03*
X223532Y247000D02*
D03*
X222579Y241500D02*
D03*
X232031Y250000D02*
D03*
X248532D02*
D03*
X224532Y124031D02*
D03*
X250500Y138000D02*
D03*
X221031Y137469D02*
D03*
X254031Y246500D02*
D03*
X277063Y248468D02*
D03*
X291531Y245500D02*
D03*
X132500Y178500D02*
D03*
X132500Y198500D02*
D03*
X245000Y132000D02*
D03*
X244500Y123500D02*
D03*
X275000Y131500D02*
D03*
X249000Y268500D02*
D03*
X244500Y265500D02*
D03*
X224500Y173500D02*
D03*
X161500D02*
D03*
X159500Y152500D02*
D03*
X194500Y147500D02*
D03*
X139953Y180047D02*
D03*
X148031Y203532D02*
D03*
X155000Y200000D02*
D03*
X222000Y179500D02*
D03*
X191969Y202031D02*
D03*
X203000Y223000D02*
D03*
X198000Y221000D02*
D03*
X202500Y229000D02*
D03*
X184890Y206610D02*
D03*
X177000Y195500D02*
D03*
X179000Y198500D02*
D03*
Y202000D02*
D03*
X187500Y198000D02*
D03*
X184000D02*
D03*
X157500Y143634D02*
D03*
X163000Y144000D02*
D03*
X143500Y230500D02*
D03*
Y227500D02*
D03*
X215000Y219000D02*
D03*
Y214000D02*
D03*
X206000Y183300D02*
D03*
X173000Y180000D02*
D03*
X147500Y166189D02*
D03*
X148000Y161000D02*
D03*
X152000Y160500D02*
D03*
X149858Y179642D02*
D03*
X145000Y195500D02*
D03*
X134500Y206000D02*
D03*
X134000Y210500D02*
D03*
X147500Y199000D02*
D03*
X132500Y227500D02*
D03*
X145500Y207500D02*
D03*
X130500Y205500D02*
D03*
Y248000D02*
D03*
Y262000D02*
D03*
Y268000D02*
D03*
X204000Y266000D02*
D03*
X209500D02*
D03*
X215000D02*
D03*
X220500D02*
D03*
X226000D02*
D03*
X231500D02*
D03*
X236000D02*
D03*
Y261500D02*
D03*
X231500D02*
D03*
X244500Y260500D02*
D03*
X253000Y266500D02*
D03*
X258000D02*
D03*
X263500D02*
D03*
X269000D02*
D03*
X274500D02*
D03*
X280000D02*
D03*
X285500D02*
D03*
X291000D02*
D03*
X258000Y250500D02*
D03*
X257500Y256500D02*
D03*
X253000Y253000D02*
D03*
X263500Y261500D02*
D03*
X274500D02*
D03*
X280000D02*
D03*
X285500D02*
D03*
X291000D02*
D03*
X269000D02*
D03*
X258000D02*
D03*
X249000Y259000D02*
D03*
X257000Y169000D02*
D03*
Y174500D02*
D03*
X252000Y169000D02*
D03*
X251500Y180000D02*
D03*
X245500D02*
D03*
X240000D02*
D03*
X234500D02*
D03*
Y174000D02*
D03*
X257000Y157000D02*
D03*
Y151500D02*
D03*
Y146000D02*
D03*
Y140500D02*
D03*
X251500Y151500D02*
D03*
X258032Y236000D02*
D03*
X151500Y233500D02*
D03*
X133709Y270630D02*
D03*
X139500Y263500D02*
D03*
X143370Y260382D02*
D03*
X168610Y238890D02*
D03*
X160000Y243000D02*
D03*
X173500Y250000D02*
D03*
X166500Y253000D02*
D03*
X130500Y255000D02*
D03*
X162500Y265454D02*
D03*
X148370Y264870D02*
D03*
X177500Y245500D02*
D03*
X181000Y247500D02*
D03*
X189500Y243500D02*
D03*
X172500Y265000D02*
D03*
X152000Y262500D02*
D03*
X183000Y259000D02*
D03*
X171953Y269047D02*
D03*
X182000Y254500D02*
D03*
X181000Y276500D02*
D03*
X156500Y244969D02*
D03*
X263000Y236500D02*
D03*
X273488Y237988D02*
D03*
X223018Y227000D02*
D03*
X223118Y222800D02*
D03*
X226500Y228000D02*
D03*
X280000Y201500D02*
D03*
X294500Y206000D02*
D03*
X271000Y206000D02*
D03*
X289500Y238500D02*
D03*
X229000Y211500D02*
D03*
X264000Y198000D02*
D03*
X265600Y227900D02*
D03*
X283500Y229500D02*
D03*
X260469Y217969D02*
D03*
X254500Y214000D02*
D03*
X260963Y221168D02*
D03*
X283500Y224000D02*
D03*
X268500Y210500D02*
D03*
X250000D02*
D03*
X253000Y207500D02*
D03*
X283000Y219500D02*
D03*
Y214500D02*
D03*
X240000Y204000D02*
D03*
X246000Y207500D02*
D03*
X242000Y199500D02*
D03*
X207000Y189500D02*
D03*
X210000Y193500D02*
D03*
X202000Y178500D02*
D03*
X205500Y178500D02*
D03*
X204500Y186500D02*
D03*
X255000Y194500D02*
D03*
Y184500D02*
D03*
X157500Y179500D02*
D03*
X172500Y192500D02*
D03*
X181500Y182500D02*
D03*
Y168500D02*
D03*
X183000Y121000D02*
D03*
X185000Y126000D02*
D03*
X187500Y157500D02*
D03*
Y153500D02*
D03*
X179000Y121000D02*
D03*
X198000Y128500D02*
D03*
X180500Y149000D02*
D03*
X187500Y149500D02*
D03*
X179000Y175000D02*
D03*
X203000Y126000D02*
D03*
X196500Y144500D02*
D03*
X199500Y142636D02*
D03*
X213500Y136000D02*
D03*
X203000Y143000D02*
D03*
X207000Y144500D02*
D03*
X193000Y128500D02*
D03*
X216000Y131000D02*
D03*
X212500Y124500D02*
D03*
X170500Y144000D02*
D03*
X188500Y143000D02*
D03*
X177000D02*
D03*
X230000Y193000D02*
D03*
Y200000D02*
D03*
X214000Y210500D02*
D03*
Y201000D02*
D03*
X136157Y212869D02*
D03*
X132500Y215000D02*
D03*
X192000Y220000D02*
D03*
D52*
X247532Y232000D02*
D03*
Y220000D02*
D03*
X235531Y232000D02*
D03*
Y220000D02*
D03*
Y226000D02*
D03*
X247532D02*
D03*
X241531Y232000D02*
D03*
Y220000D02*
D03*
Y226000D02*
D03*
X211500Y159000D02*
D03*
X199500D02*
D03*
X205500Y165000D02*
D03*
Y153000D02*
D03*
Y159000D02*
D03*
X211500Y165000D02*
D03*
Y153000D02*
D03*
X199500D02*
D03*
Y165000D02*
D03*
X169000Y216500D02*
D03*
Y229500D02*
D03*
X182000D02*
D03*
Y216500D02*
D03*
X175500D02*
D03*
Y223000D02*
D03*
Y229500D02*
D03*
X182000Y223000D02*
D03*
X169000D02*
D03*
M02*
