%FSLAX25Y25*%
%MOIN*%
G70*
G01*
G75*
%ADD10R,0.05512X0.04724*%
%ADD11R,0.04331X0.07480*%
%ADD12R,0.05315X0.01575*%
%ADD13R,0.09449X0.02992*%
%ADD14R,0.05118X0.02756*%
%ADD15O,0.03347X0.01102*%
%ADD16O,0.01102X0.03347*%
%ADD17R,0.06693X0.06693*%
%ADD18R,0.16535X0.16535*%
%ADD19O,0.02900X0.01100*%
%ADD20O,0.01100X0.02900*%
%ADD21R,0.15748X0.15748*%
%ADD22R,0.17606X0.17606*%
%ADD23O,0.03347X0.01102*%
%ADD24O,0.01102X0.03347*%
%ADD25R,0.04724X0.04724*%
%ADD26R,0.04921X0.07874*%
%ADD27R,0.02756X0.03543*%
%ADD28R,0.02756X0.00984*%
%ADD29R,0.02402X0.08661*%
%ADD30R,0.05512X0.04331*%
%ADD31R,0.01181X0.01181*%
%ADD32R,0.01181X0.01181*%
%ADD33R,0.02362X0.01969*%
%ADD34R,0.01969X0.02362*%
%ADD35R,0.02756X0.03543*%
%ADD36R,0.03543X0.02756*%
%ADD37R,0.02992X0.09449*%
%ADD38R,0.04331X0.05512*%
%ADD39R,0.04724X0.04724*%
%ADD40R,0.07480X0.04331*%
%ADD41C,0.01200*%
%ADD42C,0.02000*%
%ADD43C,0.01000*%
%ADD44C,0.01500*%
%ADD45O,0.06299X0.04724*%
%ADD46C,0.04724*%
%ADD47R,0.06299X0.06299*%
%ADD48C,0.06299*%
%ADD49R,0.07480X0.07480*%
%ADD50C,0.07480*%
%ADD51C,0.02400*%
%ADD52C,0.03150*%
%ADD53C,0.04000*%
%ADD54O,0.08331X0.06756*%
%ADD55C,0.06756*%
G04:AMPARAMS|DCode=56|XSize=99.37mil|YSize=99.37mil|CornerRadius=0mil|HoleSize=0mil|Usage=FLASHONLY|Rotation=0.000|XOffset=0mil|YOffset=0mil|HoleType=Round|Shape=Relief|Width=10mil|Gap=10mil|Entries=4|*
%AMTHD56*
7,0,0,0.09937,0.07937,0.01000,45*
%
%ADD56THD56*%
%ADD57C,0.07937*%
G04:AMPARAMS|DCode=58|XSize=95.433mil|YSize=95.433mil|CornerRadius=0mil|HoleSize=0mil|Usage=FLASHONLY|Rotation=0.000|XOffset=0mil|YOffset=0mil|HoleType=Round|Shape=Relief|Width=10mil|Gap=10mil|Entries=4|*
%AMTHD58*
7,0,0,0.09543,0.07543,0.01000,45*
%
%ADD58THD58*%
%ADD59C,0.07543*%
G04:AMPARAMS|DCode=60|XSize=72mil|YSize=72mil|CornerRadius=0mil|HoleSize=0mil|Usage=FLASHONLY|Rotation=0.000|XOffset=0mil|YOffset=0mil|HoleType=Round|Shape=Relief|Width=10mil|Gap=10mil|Entries=4|*
%AMTHD60*
7,0,0,0.07200,0.05200,0.01000,45*
%
%ADD60THD60*%
%ADD61C,0.05200*%
%ADD62C,0.00984*%
%ADD63C,0.00394*%
%ADD64C,0.00315*%
%ADD65C,0.00787*%
%ADD66C,0.00500*%
G36*
X192083Y173745D02*
X192414Y173524D01*
X192635Y173193D01*
X192712Y172803D01*
X192635Y172413D01*
X192414Y172082D01*
X192083Y171861D01*
X191693Y171784D01*
X191303Y171861D01*
X190972Y172082D01*
X190751Y172413D01*
X190673Y172803D01*
X190751Y173193D01*
X190972Y173524D01*
X191303Y173745D01*
X191693Y173823D01*
X192083Y173745D01*
D02*
G37*
G36*
X264713Y173705D02*
X265494Y173183D01*
X266017Y172402D01*
X266200Y171480D01*
X266017Y170559D01*
X265494Y169777D01*
X264713Y169255D01*
X263791Y169072D01*
X262870Y169255D01*
X262088Y169777D01*
X261566Y170559D01*
X261383Y171480D01*
X261566Y172402D01*
X262088Y173183D01*
X262870Y173705D01*
X263791Y173889D01*
X264713Y173705D01*
D02*
G37*
G36*
X231009Y215910D02*
X231167Y215528D01*
X231009Y215145D01*
X230626Y214986D01*
X230243Y215145D01*
X230085Y215528D01*
X230243Y215910D01*
X230626Y216069D01*
X231009Y215910D01*
D02*
G37*
G36*
X187772Y212301D02*
X188163Y212040D01*
X188424Y211650D01*
X188515Y211189D01*
X188424Y210728D01*
X188163Y210337D01*
X187772Y210076D01*
X187311Y209985D01*
X186850Y210076D01*
X186460Y210337D01*
X186198Y210728D01*
X186107Y211189D01*
X186198Y211650D01*
X186460Y212040D01*
X186850Y212301D01*
X187311Y212393D01*
X187772Y212301D01*
D02*
G37*
D43*
X94500Y170500D02*
X96000Y172000D01*
X97000D01*
X94500Y204500D02*
X96000Y203000D01*
X97000D01*
X94500Y199500D02*
X97000D01*
X94500Y175500D02*
Y199500D01*
Y175500D02*
X97000D01*
Y172000D02*
X117000D01*
X97000D02*
Y203000D01*
X117000D01*
Y172000D02*
Y203000D01*
X228028Y212653D02*
X255035D01*
X228028D02*
Y239543D01*
X255035D01*
Y212653D02*
Y239543D01*
X104000Y138500D02*
X115500D01*
X104000D02*
Y156500D01*
X115500D01*
Y138500D02*
Y156500D01*
X95500Y142500D02*
X104000D01*
X95500D02*
Y152500D01*
X104000D01*
X266512Y200933D02*
X297067D01*
X297500Y200500D01*
Y171500D02*
Y200500D01*
X297433Y171433D02*
X297500Y171500D01*
X266512Y171433D02*
X297433D01*
X266512D02*
Y200933D01*
X134000Y235699D02*
Y235166D01*
X135066Y234100D01*
X136133Y235166D01*
Y235699D01*
X135066Y234100D02*
Y232500D01*
X138798D02*
Y235699D01*
X137199Y234100D01*
X139332D01*
X147801Y188500D02*
X148334D01*
X149400Y189566D01*
X148334Y190633D01*
X147801D01*
X149400Y189566D02*
X151000D01*
X148334Y191699D02*
X147801Y192232D01*
Y193298D01*
X148334Y193832D01*
X148867D01*
X149400Y193298D01*
Y192765D01*
Y193298D01*
X149934Y193832D01*
X150467D01*
X151000Y193298D01*
Y192232D01*
X150467Y191699D01*
X120633Y176699D02*
X119566D01*
X120099D01*
Y174033D01*
X119566Y173500D01*
X119033D01*
X118500Y174033D01*
X121699Y173500D02*
X122765D01*
X122232D01*
Y176699D01*
X121699Y176166D01*
X267500Y218500D02*
X264301D01*
Y220099D01*
X264834Y220633D01*
X265900D01*
X266434Y220099D01*
Y218500D01*
X264834Y221699D02*
X264301Y222232D01*
Y223299D01*
X264834Y223832D01*
X265367D01*
X265900Y223299D01*
Y222765D01*
Y223299D01*
X266434Y223832D01*
X266967D01*
X267500Y223299D01*
Y222232D01*
X266967Y221699D01*
X164724Y169199D02*
Y166533D01*
X165258Y166000D01*
X166324D01*
X166857Y166533D01*
Y169199D01*
X167923Y168666D02*
X168456Y169199D01*
X169523D01*
X170056Y168666D01*
Y168133D01*
X169523Y167599D01*
X168990D01*
X169523D01*
X170056Y167066D01*
Y166533D01*
X169523Y166000D01*
X168456D01*
X167923Y166533D01*
X131000Y154199D02*
Y151533D01*
X131533Y151000D01*
X132599D01*
X133133Y151533D01*
Y154199D01*
X134199Y151000D02*
X135265D01*
X134732D01*
Y154199D01*
X134199Y153666D01*
X237500Y210699D02*
Y208033D01*
X238033Y207500D01*
X239100D01*
X239633Y208033D01*
Y210699D01*
X242832D02*
X241765Y210166D01*
X240699Y209100D01*
Y208033D01*
X241232Y207500D01*
X242299D01*
X242832Y208033D01*
Y208566D01*
X242299Y209100D01*
X240699D01*
X211000Y143199D02*
Y140533D01*
X211533Y140000D01*
X212599D01*
X213133Y140533D01*
Y143199D01*
X216332Y140000D02*
X214199D01*
X216332Y142133D01*
Y142666D01*
X215798Y143199D01*
X214732D01*
X214199Y142666D01*
X175000Y241199D02*
Y238533D01*
X175533Y238000D01*
X176600D01*
X177133Y238533D01*
Y241199D01*
X180332D02*
X178199D01*
Y239599D01*
X179265Y240133D01*
X179798D01*
X180332Y239599D01*
Y238533D01*
X179798Y238000D01*
X178732D01*
X178199Y238533D01*
X113633Y160666D02*
X113100Y161199D01*
X112033D01*
X111500Y160666D01*
Y160133D01*
X112033Y159599D01*
X113100D01*
X113633Y159066D01*
Y158533D01*
X113100Y158000D01*
X112033D01*
X111500Y158533D01*
X114699Y158000D02*
X115765D01*
X115232D01*
Y161199D01*
X114699Y160666D01*
X264500Y177000D02*
X261301D01*
Y178600D01*
X261834Y179133D01*
X262900D01*
X263434Y178600D01*
Y177000D01*
X264500Y181799D02*
X261301D01*
X262900Y180199D01*
Y182332D01*
X161801Y122000D02*
X165000D01*
Y123600D01*
X164467Y124133D01*
X162334D01*
X161801Y123600D01*
Y122000D01*
X162334Y125199D02*
X161801Y125732D01*
Y126798D01*
X162334Y127332D01*
X162867D01*
X163400Y126798D01*
X163934Y127332D01*
X164467D01*
X165000Y126798D01*
Y125732D01*
X164467Y125199D01*
X163934D01*
X163400Y125732D01*
X162867Y125199D01*
X162334D01*
X163400Y125732D02*
Y126798D01*
X273633Y155699D02*
X271500D01*
Y152500D01*
X273633D01*
X271500Y154100D02*
X272566D01*
X274699Y152500D02*
X275765D01*
X275232D01*
Y155699D01*
X274699Y155166D01*
X112000Y131500D02*
Y134699D01*
X113600D01*
X114133Y134166D01*
Y133099D01*
X113600Y132566D01*
X112000D01*
X113066D02*
X114133Y131500D01*
X115199D02*
X116265D01*
X115732D01*
Y134699D01*
X115199Y134166D01*
X117865D02*
X118398Y134699D01*
X119464D01*
X119997Y134166D01*
Y132033D01*
X119464Y131500D01*
X118398D01*
X117865Y132033D01*
Y134166D01*
X151000Y181699D02*
Y179033D01*
X151533Y178500D01*
X152600D01*
X153133Y179033D01*
Y181699D01*
X155798Y178500D02*
Y181699D01*
X154199Y180099D01*
X156332D01*
X139334Y148633D02*
X138801Y148100D01*
Y147033D01*
X139334Y146500D01*
X141467D01*
X142000Y147033D01*
Y148100D01*
X141467Y148633D01*
X139334Y149699D02*
X138801Y150232D01*
Y151298D01*
X139334Y151832D01*
X139867D01*
X140401Y151298D01*
X140934Y151832D01*
X141467D01*
X142000Y151298D01*
Y150232D01*
X141467Y149699D01*
X140934D01*
X140401Y150232D01*
X139867Y149699D01*
X139334D01*
X140401Y150232D02*
Y151298D01*
X255500Y278000D02*
X253367D01*
X252301Y279066D01*
X253367Y280133D01*
X255500D01*
X253901D01*
Y278000D01*
X255500Y283332D02*
Y281199D01*
X253367Y283332D01*
X252834D01*
X252301Y282799D01*
Y281732D01*
X252834Y281199D01*
X102000Y206500D02*
Y208633D01*
X103066Y209699D01*
X104133Y208633D01*
Y206500D01*
Y208100D01*
X102000D01*
X105199Y206500D02*
X106265D01*
X105732D01*
Y209699D01*
X105199Y209166D01*
X183334Y153133D02*
X182801Y152600D01*
Y151533D01*
X183334Y151000D01*
X185467D01*
X186000Y151533D01*
Y152600D01*
X185467Y153133D01*
Y154199D02*
X186000Y154732D01*
Y155798D01*
X185467Y156332D01*
X183334D01*
X182801Y155798D01*
Y154732D01*
X183334Y154199D01*
X183867D01*
X184400Y154732D01*
Y156332D01*
X195334Y240133D02*
X194801Y239599D01*
Y238533D01*
X195334Y238000D01*
X197467D01*
X198000Y238533D01*
Y239599D01*
X197467Y240133D01*
X194801Y243332D02*
Y241199D01*
X196400D01*
X195867Y242265D01*
Y242798D01*
X196400Y243332D01*
X197467D01*
X198000Y242798D01*
Y241732D01*
X197467Y241199D01*
X198000Y244398D02*
Y245464D01*
Y244931D01*
X194801D01*
X195334Y244398D01*
X112500Y167000D02*
Y170199D01*
X114100D01*
X114633Y169666D01*
Y168599D01*
X114100Y168066D01*
X112500D01*
X113566D02*
X114633Y167000D01*
X115699D02*
X116765D01*
X116232D01*
Y170199D01*
X115699Y169666D01*
X118365Y167533D02*
X118898Y167000D01*
X119964D01*
X120497Y167533D01*
Y169666D01*
X119964Y170199D01*
X118898D01*
X118365Y169666D01*
Y169133D01*
X118898Y168599D01*
X120497D01*
X163000Y257000D02*
Y260199D01*
X164600D01*
X165133Y259666D01*
Y258599D01*
X164600Y258066D01*
X163000D01*
X164066D02*
X165133Y257000D01*
X166199Y259666D02*
X166732Y260199D01*
X167798D01*
X168332Y259666D01*
Y259133D01*
X167798Y258599D01*
X167265D01*
X167798D01*
X168332Y258066D01*
Y257533D01*
X167798Y257000D01*
X166732D01*
X166199Y257533D01*
X170997Y257000D02*
Y260199D01*
X169398Y258599D01*
X171531D01*
X142000Y163000D02*
X138801D01*
Y164600D01*
X139334Y165133D01*
X140401D01*
X140934Y164600D01*
Y163000D01*
Y164066D02*
X142000Y165133D01*
Y166199D02*
Y167265D01*
Y166732D01*
X138801D01*
X139334Y166199D01*
X138801Y170997D02*
X139334Y169931D01*
X140401Y168865D01*
X141467D01*
X142000Y169398D01*
Y170464D01*
X141467Y170997D01*
X140934D01*
X140401Y170464D01*
Y168865D01*
X184000Y253000D02*
Y256199D01*
X185600D01*
X186133Y255666D01*
Y254599D01*
X185600Y254066D01*
X184000D01*
X185066D02*
X186133Y253000D01*
X187199Y255666D02*
X187732Y256199D01*
X188798D01*
X189332Y255666D01*
Y255133D01*
X188798Y254599D01*
X188265D01*
X188798D01*
X189332Y254066D01*
Y253533D01*
X188798Y253000D01*
X187732D01*
X187199Y253533D01*
X190398Y255666D02*
X190931Y256199D01*
X191997D01*
X192531Y255666D01*
Y255133D01*
X191997Y254599D01*
X191464D01*
X191997D01*
X192531Y254066D01*
Y253533D01*
X191997Y253000D01*
X190931D01*
X190398Y253533D01*
X130334Y169133D02*
X129801Y168599D01*
Y167533D01*
X130334Y167000D01*
X132467D01*
X133000Y167533D01*
Y168599D01*
X132467Y169133D01*
X133000Y172332D02*
Y170199D01*
X130867Y172332D01*
X130334D01*
X129801Y171799D01*
Y170732D01*
X130334Y170199D01*
Y173398D02*
X129801Y173931D01*
Y174997D01*
X130334Y175531D01*
X130867D01*
X131401Y174997D01*
Y174464D01*
Y174997D01*
X131934Y175531D01*
X132467D01*
X133000Y174997D01*
Y173931D01*
X132467Y173398D01*
X160834Y174133D02*
X160301Y173600D01*
Y172533D01*
X160834Y172000D01*
X162967D01*
X163500Y172533D01*
Y173600D01*
X162967Y174133D01*
X163500Y177332D02*
Y175199D01*
X161367Y177332D01*
X160834D01*
X160301Y176798D01*
Y175732D01*
X160834Y175199D01*
Y178398D02*
X160301Y178931D01*
Y179997D01*
X160834Y180531D01*
X162967D01*
X163500Y179997D01*
Y178931D01*
X162967Y178398D01*
X160834D01*
X137500Y279000D02*
Y282199D01*
X139100D01*
X139633Y281666D01*
Y280599D01*
X139100Y280066D01*
X137500D01*
X142832Y279000D02*
X140699D01*
X142832Y281133D01*
Y281666D01*
X142298Y282199D01*
X141232D01*
X140699Y281666D01*
X170000Y178500D02*
Y181699D01*
X171599D01*
X172133Y181166D01*
Y180099D01*
X171599Y179566D01*
X170000D01*
X171066D02*
X172133Y178500D01*
X175332D02*
X173199D01*
X175332Y180633D01*
Y181166D01*
X174799Y181699D01*
X173732D01*
X173199Y181166D01*
X176398Y178500D02*
X177464D01*
X176931D01*
Y181699D01*
X176398Y181166D01*
X223834Y147133D02*
X223301Y146599D01*
Y145533D01*
X223834Y145000D01*
X225967D01*
X226500Y145533D01*
Y146599D01*
X225967Y147133D01*
X223301Y150332D02*
X223834Y149265D01*
X224901Y148199D01*
X225967D01*
X226500Y148732D01*
Y149799D01*
X225967Y150332D01*
X225434D01*
X224901Y149799D01*
Y148199D01*
X224834Y176633D02*
X224301Y176100D01*
Y175033D01*
X224834Y174500D01*
X226967D01*
X227500Y175033D01*
Y176100D01*
X226967Y176633D01*
X227500Y179832D02*
Y177699D01*
X225367Y179832D01*
X224834D01*
X224301Y179298D01*
Y178232D01*
X224834Y177699D01*
X227500Y180898D02*
Y181964D01*
Y181431D01*
X224301D01*
X224834Y180898D01*
X228133Y152666D02*
X227600Y153199D01*
X226533D01*
X226000Y152666D01*
Y150533D01*
X226533Y150000D01*
X227600D01*
X228133Y150533D01*
X229199Y150000D02*
X230265D01*
X229732D01*
Y153199D01*
X229199Y152666D01*
X231865Y150000D02*
X232931D01*
X232398D01*
Y153199D01*
X231865Y152666D01*
X229334Y176133D02*
X228801Y175600D01*
Y174533D01*
X229334Y174000D01*
X231467D01*
X232000Y174533D01*
Y175600D01*
X231467Y176133D01*
X232000Y179332D02*
Y177199D01*
X229867Y179332D01*
X229334D01*
X228801Y178798D01*
Y177732D01*
X229334Y177199D01*
X232000Y182531D02*
Y180398D01*
X229867Y182531D01*
X229334D01*
X228801Y181997D01*
Y180931D01*
X229334Y180398D01*
X205834Y175633D02*
X205301Y175100D01*
Y174033D01*
X205834Y173500D01*
X207967D01*
X208500Y174033D01*
Y175100D01*
X207967Y175633D01*
X208500Y178832D02*
Y176699D01*
X206367Y178832D01*
X205834D01*
X205301Y178298D01*
Y177232D01*
X205834Y176699D01*
X208500Y181497D02*
X205301D01*
X206901Y179898D01*
Y182031D01*
X191334Y178133D02*
X190801Y177600D01*
Y176533D01*
X191334Y176000D01*
X193467D01*
X194000Y176533D01*
Y177600D01*
X193467Y178133D01*
X194000Y181332D02*
Y179199D01*
X191867Y181332D01*
X191334D01*
X190801Y180798D01*
Y179732D01*
X191334Y179199D01*
X190801Y184531D02*
X191334Y183464D01*
X192401Y182398D01*
X193467D01*
X194000Y182931D01*
Y183997D01*
X193467Y184531D01*
X192934D01*
X192401Y183997D01*
Y182398D01*
X201633Y185666D02*
X201099Y186199D01*
X200033D01*
X199500Y185666D01*
Y183533D01*
X200033Y183000D01*
X201099D01*
X201633Y183533D01*
X204832Y183000D02*
X202699D01*
X204832Y185133D01*
Y185666D01*
X204298Y186199D01*
X203232D01*
X202699Y185666D01*
X205898D02*
X206431Y186199D01*
X207497D01*
X208031Y185666D01*
Y185133D01*
X207497Y184599D01*
X208031Y184066D01*
Y183533D01*
X207497Y183000D01*
X206431D01*
X205898Y183533D01*
Y184066D01*
X206431Y184599D01*
X205898Y185133D01*
Y185666D01*
X206431Y184599D02*
X207497D01*
X212633Y195666D02*
X212100Y196199D01*
X211033D01*
X210500Y195666D01*
Y193533D01*
X211033Y193000D01*
X212100D01*
X212633Y193533D01*
X215832Y193000D02*
X213699D01*
X215832Y195133D01*
Y195666D01*
X215299Y196199D01*
X214232D01*
X213699Y195666D01*
X216898Y193533D02*
X217431Y193000D01*
X218497D01*
X219031Y193533D01*
Y195666D01*
X218497Y196199D01*
X217431D01*
X216898Y195666D01*
Y195133D01*
X217431Y194599D01*
X219031D01*
X235133Y150666D02*
X234599Y151199D01*
X233533D01*
X233000Y150666D01*
Y148533D01*
X233533Y148000D01*
X234599D01*
X235133Y148533D01*
X236199Y148000D02*
X237265D01*
X236732D01*
Y151199D01*
X236199Y150666D01*
X238865D02*
X239398Y151199D01*
X240464D01*
X240997Y150666D01*
Y148533D01*
X240464Y148000D01*
X239398D01*
X238865Y148533D01*
Y150666D01*
X228834Y166633D02*
X228301Y166100D01*
Y165033D01*
X228834Y164500D01*
X230967D01*
X231500Y165033D01*
Y166100D01*
X230967Y166633D01*
X231500Y167699D02*
Y168765D01*
Y168232D01*
X228301D01*
X228834Y167699D01*
X231500Y171964D02*
X228301D01*
X229901Y170365D01*
Y172497D01*
X254133Y159166D02*
X253600Y159699D01*
X252533D01*
X252000Y159166D01*
Y157033D01*
X252533Y156500D01*
X253600D01*
X254133Y157033D01*
X255199Y156500D02*
X256265D01*
X255732D01*
Y159699D01*
X255199Y159166D01*
X257865Y159699D02*
X259997D01*
Y159166D01*
X257865Y157033D01*
Y156500D01*
X234633Y169666D02*
X234100Y170199D01*
X233033D01*
X232500Y169666D01*
Y167533D01*
X233033Y167000D01*
X234100D01*
X234633Y167533D01*
X235699Y167000D02*
X236765D01*
X236232D01*
Y170199D01*
X235699Y169666D01*
X238365D02*
X238898Y170199D01*
X239964D01*
X240497Y169666D01*
Y169133D01*
X239964Y168599D01*
X240497Y168066D01*
Y167533D01*
X239964Y167000D01*
X238898D01*
X238365Y167533D01*
Y168066D01*
X238898Y168599D01*
X238365Y169133D01*
Y169666D01*
X238898Y168599D02*
X239964D01*
X222633Y139166D02*
X222099Y139699D01*
X221033D01*
X220500Y139166D01*
Y137033D01*
X221033Y136500D01*
X222099D01*
X222633Y137033D01*
X225832Y139699D02*
X223699D01*
Y138100D01*
X224765Y138633D01*
X225299D01*
X225832Y138100D01*
Y137033D01*
X225299Y136500D01*
X224232D01*
X223699Y137033D01*
X253334Y143633D02*
X252801Y143099D01*
Y142033D01*
X253334Y141500D01*
X255467D01*
X256000Y142033D01*
Y143099D01*
X255467Y143633D01*
X256000Y146299D02*
X252801D01*
X254400Y144699D01*
Y146832D01*
X222834Y132133D02*
X222301Y131599D01*
Y130533D01*
X222834Y130000D01*
X224967D01*
X225500Y130533D01*
Y131599D01*
X224967Y132133D01*
X222834Y133199D02*
X222301Y133732D01*
Y134799D01*
X222834Y135332D01*
X223367D01*
X223901Y134799D01*
Y134265D01*
Y134799D01*
X224434Y135332D01*
X224967D01*
X225500Y134799D01*
Y133732D01*
X224967Y133199D01*
X222834Y125633D02*
X222301Y125100D01*
Y124033D01*
X222834Y123500D01*
X224967D01*
X225500Y124033D01*
Y125100D01*
X224967Y125633D01*
X225500Y126699D02*
Y127765D01*
Y127232D01*
X222301D01*
X222834Y126699D01*
X247633Y244166D02*
X247099Y244699D01*
X246033D01*
X245500Y244166D01*
Y242033D01*
X246033Y241500D01*
X247099D01*
X247633Y242033D01*
X250832Y244699D02*
X249765Y244166D01*
X248699Y243099D01*
Y242033D01*
X249232Y241500D01*
X250299D01*
X250832Y242033D01*
Y242566D01*
X250299Y243099D01*
X248699D01*
X251898Y244166D02*
X252431Y244699D01*
X253497D01*
X254031Y244166D01*
Y243633D01*
X253497Y243099D01*
X252964D01*
X253497D01*
X254031Y242566D01*
Y242033D01*
X253497Y241500D01*
X252431D01*
X251898Y242033D01*
X226133Y252166D02*
X225600Y252699D01*
X224533D01*
X224000Y252166D01*
Y250033D01*
X224533Y249500D01*
X225600D01*
X226133Y250033D01*
X229332Y252699D02*
X228265Y252166D01*
X227199Y251099D01*
Y250033D01*
X227732Y249500D01*
X228799D01*
X229332Y250033D01*
Y250566D01*
X228799Y251099D01*
X227199D01*
X231997Y249500D02*
Y252699D01*
X230398Y251099D01*
X232531D01*
X226133Y245166D02*
X225600Y245699D01*
X224533D01*
X224000Y245166D01*
Y243033D01*
X224533Y242500D01*
X225600D01*
X226133Y243033D01*
X229332Y245699D02*
X227199D01*
Y244099D01*
X228265Y244633D01*
X228799D01*
X229332Y244099D01*
Y243033D01*
X228799Y242500D01*
X227732D01*
X227199Y243033D01*
X232531Y245699D02*
X231464Y245166D01*
X230398Y244099D01*
Y243033D01*
X230931Y242500D01*
X231997D01*
X232531Y243033D01*
Y243566D01*
X231997Y244099D01*
X230398D01*
X259133Y236666D02*
X258599Y237199D01*
X257533D01*
X257000Y236666D01*
Y234533D01*
X257533Y234000D01*
X258599D01*
X259133Y234533D01*
X262332Y237199D02*
X260199D01*
Y235599D01*
X261265Y236133D01*
X261799D01*
X262332Y235599D01*
Y234533D01*
X261799Y234000D01*
X260732D01*
X260199Y234533D01*
X265531Y234000D02*
X263398D01*
X265531Y236133D01*
Y236666D01*
X264997Y237199D01*
X263931D01*
X263398Y236666D01*
X260834Y209133D02*
X260301Y208599D01*
Y207533D01*
X260834Y207000D01*
X262967D01*
X263500Y207533D01*
Y208599D01*
X262967Y209133D01*
X263500Y211799D02*
X260301D01*
X261900Y210199D01*
Y212332D01*
X260834Y213398D02*
X260301Y213931D01*
Y214997D01*
X260834Y215531D01*
X262967D01*
X263500Y214997D01*
Y213931D01*
X262967Y213398D01*
X260834D01*
X206133Y236166D02*
X205599Y236699D01*
X204533D01*
X204000Y236166D01*
Y234033D01*
X204533Y233500D01*
X205599D01*
X206133Y234033D01*
X209332Y236699D02*
X207199D01*
Y235100D01*
X208265Y235633D01*
X208799D01*
X209332Y235100D01*
Y234033D01*
X208799Y233500D01*
X207732D01*
X207199Y234033D01*
X210398Y236166D02*
X210931Y236699D01*
X211997D01*
X212531Y236166D01*
Y235633D01*
X211997Y235100D01*
X211464D01*
X211997D01*
X212531Y234566D01*
Y234033D01*
X211997Y233500D01*
X210931D01*
X210398Y234033D01*
X214633Y219666D02*
X214100Y220199D01*
X213033D01*
X212500Y219666D01*
Y217533D01*
X213033Y217000D01*
X214100D01*
X214633Y217533D01*
X217299Y217000D02*
Y220199D01*
X215699Y218600D01*
X217832D01*
X220497Y217000D02*
Y220199D01*
X218898Y218600D01*
X221031D01*
X247834Y250633D02*
X247301Y250099D01*
Y249033D01*
X247834Y248500D01*
X249967D01*
X250500Y249033D01*
Y250099D01*
X249967Y250633D01*
X247301Y253832D02*
X247834Y252765D01*
X248901Y251699D01*
X249967D01*
X250500Y252232D01*
Y253298D01*
X249967Y253832D01*
X249434D01*
X248901Y253298D01*
Y251699D01*
X247301Y257031D02*
X247834Y255964D01*
X248901Y254898D01*
X249967D01*
X250500Y255431D01*
Y256497D01*
X249967Y257031D01*
X249434D01*
X248901Y256497D01*
Y254898D01*
X228133Y259166D02*
X227600Y259699D01*
X226533D01*
X226000Y259166D01*
Y257033D01*
X226533Y256500D01*
X227600D01*
X228133Y257033D01*
X231332Y259699D02*
X230265Y259166D01*
X229199Y258100D01*
Y257033D01*
X229732Y256500D01*
X230799D01*
X231332Y257033D01*
Y257566D01*
X230799Y258100D01*
X229199D01*
X232398Y259699D02*
X234531D01*
Y259166D01*
X232398Y257033D01*
Y256500D01*
X240633Y273666D02*
X240100Y274199D01*
X239033D01*
X238500Y273666D01*
Y271533D01*
X239033Y271000D01*
X240100D01*
X240633Y271533D01*
X243832Y274199D02*
X242765Y273666D01*
X241699Y272600D01*
Y271533D01*
X242232Y271000D01*
X243299D01*
X243832Y271533D01*
Y272066D01*
X243299Y272600D01*
X241699D01*
X244898Y273666D02*
X245431Y274199D01*
X246497D01*
X247031Y273666D01*
Y273133D01*
X246497Y272600D01*
X247031Y272066D01*
Y271533D01*
X246497Y271000D01*
X245431D01*
X244898Y271533D01*
Y272066D01*
X245431Y272600D01*
X244898Y273133D01*
Y273666D01*
X245431Y272600D02*
X246497D01*
X270133Y242666D02*
X269600Y243199D01*
X268533D01*
X268000Y242666D01*
Y240533D01*
X268533Y240000D01*
X269600D01*
X270133Y240533D01*
X273332Y243199D02*
X271199D01*
Y241599D01*
X272265Y242133D01*
X272798D01*
X273332Y241599D01*
Y240533D01*
X272798Y240000D01*
X271732D01*
X271199Y240533D01*
X274398D02*
X274931Y240000D01*
X275997D01*
X276531Y240533D01*
Y242666D01*
X275997Y243199D01*
X274931D01*
X274398Y242666D01*
Y242133D01*
X274931Y241599D01*
X276531D01*
X261133Y242166D02*
X260599Y242699D01*
X259533D01*
X259000Y242166D01*
Y240033D01*
X259533Y239500D01*
X260599D01*
X261133Y240033D01*
X264332Y242699D02*
X263265Y242166D01*
X262199Y241100D01*
Y240033D01*
X262732Y239500D01*
X263798D01*
X264332Y240033D01*
Y240566D01*
X263798Y241100D01*
X262199D01*
X265398Y239500D02*
X266464D01*
X265931D01*
Y242699D01*
X265398Y242166D01*
X279633Y243666D02*
X279099Y244199D01*
X278033D01*
X277500Y243666D01*
Y241533D01*
X278033Y241000D01*
X279099D01*
X279633Y241533D01*
X282832Y244199D02*
X281765Y243666D01*
X280699Y242600D01*
Y241533D01*
X281232Y241000D01*
X282298D01*
X282832Y241533D01*
Y242066D01*
X282298Y242600D01*
X280699D01*
X286031Y241000D02*
X283898D01*
X286031Y243133D01*
Y243666D01*
X285497Y244199D01*
X284431D01*
X283898Y243666D01*
X289133Y243166D02*
X288599Y243699D01*
X287533D01*
X287000Y243166D01*
Y241033D01*
X287533Y240500D01*
X288599D01*
X289133Y241033D01*
X292332Y243699D02*
X291265Y243166D01*
X290199Y242099D01*
Y241033D01*
X290732Y240500D01*
X291798D01*
X292332Y241033D01*
Y241566D01*
X291798Y242099D01*
X290199D01*
X293398Y243166D02*
X293931Y243699D01*
X294997D01*
X295531Y243166D01*
Y241033D01*
X294997Y240500D01*
X293931D01*
X293398Y241033D01*
Y243166D01*
X135334Y192133D02*
X134801Y191600D01*
Y190533D01*
X135334Y190000D01*
X137467D01*
X138000Y190533D01*
Y191600D01*
X137467Y192133D01*
X135334Y193199D02*
X134801Y193732D01*
Y194799D01*
X135334Y195332D01*
X135867D01*
X136400Y194799D01*
Y194265D01*
Y194799D01*
X136934Y195332D01*
X137467D01*
X138000Y194799D01*
Y193732D01*
X137467Y193199D01*
X138000Y196398D02*
Y197464D01*
Y196931D01*
X134801D01*
X135334Y196398D01*
X131334Y178663D02*
X130801Y178130D01*
Y177064D01*
X131334Y176531D01*
X133467D01*
X134000Y177064D01*
Y178130D01*
X133467Y178663D01*
X134000Y181862D02*
Y179729D01*
X131867Y181862D01*
X131334D01*
X130801Y181329D01*
Y180263D01*
X131334Y179729D01*
X130801Y182929D02*
Y185061D01*
X131334D01*
X133467Y182929D01*
X134000D01*
X147133Y235166D02*
X146599Y235699D01*
X145533D01*
X145000Y235166D01*
Y233033D01*
X145533Y232500D01*
X146599D01*
X147133Y233033D01*
X149799Y232500D02*
Y235699D01*
X148199Y234100D01*
X150332D01*
X151398Y235166D02*
X151931Y235699D01*
X152997D01*
X153531Y235166D01*
Y234633D01*
X152997Y234100D01*
X153531Y233566D01*
Y233033D01*
X152997Y232500D01*
X151931D01*
X151398Y233033D01*
Y233566D01*
X151931Y234100D01*
X151398Y234633D01*
Y235166D01*
X151931Y234100D02*
X152997D01*
X160334Y212633D02*
X159801Y212100D01*
Y211033D01*
X160334Y210500D01*
X162467D01*
X163000Y211033D01*
Y212100D01*
X162467Y212633D01*
X160334Y213699D02*
X159801Y214232D01*
Y215299D01*
X160334Y215832D01*
X160867D01*
X161400Y215299D01*
Y214765D01*
Y215299D01*
X161934Y215832D01*
X162467D01*
X163000Y215299D01*
Y214232D01*
X162467Y213699D01*
Y216898D02*
X163000Y217431D01*
Y218497D01*
X162467Y219031D01*
X160334D01*
X159801Y218497D01*
Y217431D01*
X160334Y216898D01*
X160867D01*
X161400Y217431D01*
Y219031D01*
X150834Y211133D02*
X150301Y210599D01*
Y209533D01*
X150834Y209000D01*
X152967D01*
X153500Y209533D01*
Y210599D01*
X152967Y211133D01*
X150834Y212199D02*
X150301Y212732D01*
Y213798D01*
X150834Y214332D01*
X151367D01*
X151900Y213798D01*
Y213265D01*
Y213798D01*
X152434Y214332D01*
X152967D01*
X153500Y213798D01*
Y212732D01*
X152967Y212199D01*
X150834Y215398D02*
X150301Y215931D01*
Y216997D01*
X150834Y217531D01*
X151367D01*
X151900Y216997D01*
X152434Y217531D01*
X152967D01*
X153500Y216997D01*
Y215931D01*
X152967Y215398D01*
X152434D01*
X151900Y215931D01*
X151367Y215398D01*
X150834D01*
X151900Y215931D02*
Y216997D01*
X158334Y239633D02*
X157801Y239100D01*
Y238033D01*
X158334Y237500D01*
X160467D01*
X161000Y238033D01*
Y239100D01*
X160467Y239633D01*
X157801Y242832D02*
Y240699D01*
X159400D01*
X158867Y241765D01*
Y242299D01*
X159400Y242832D01*
X160467D01*
X161000Y242299D01*
Y241232D01*
X160467Y240699D01*
X161000Y245497D02*
X157801D01*
X159400Y243898D01*
Y246031D01*
X162728Y201400D02*
X162195Y200867D01*
Y199801D01*
X162728Y199268D01*
X164861D01*
X165394Y199801D01*
Y200867D01*
X164861Y201400D01*
X162728Y202467D02*
X162195Y203000D01*
Y204066D01*
X162728Y204599D01*
X163261D01*
X163794Y204066D01*
Y203533D01*
Y204066D01*
X164327Y204599D01*
X164861D01*
X165394Y204066D01*
Y203000D01*
X164861Y202467D01*
X162728Y205666D02*
X162195Y206199D01*
Y207265D01*
X162728Y207798D01*
X163261D01*
X163794Y207265D01*
Y206732D01*
Y207265D01*
X164327Y207798D01*
X164861D01*
X165394Y207265D01*
Y206199D01*
X164861Y205666D01*
X187133Y202166D02*
X186600Y202699D01*
X185533D01*
X185000Y202166D01*
Y200033D01*
X185533Y199500D01*
X186600D01*
X187133Y200033D01*
X188199Y202166D02*
X188732Y202699D01*
X189798D01*
X190332Y202166D01*
Y201633D01*
X189798Y201099D01*
X189265D01*
X189798D01*
X190332Y200566D01*
Y200033D01*
X189798Y199500D01*
X188732D01*
X188199Y200033D01*
X193531Y202699D02*
X191398D01*
Y201099D01*
X192464Y201633D01*
X192997D01*
X193531Y201099D01*
Y200033D01*
X192997Y199500D01*
X191931D01*
X191398Y200033D01*
X142133Y208666D02*
X141600Y209199D01*
X140533D01*
X140000Y208666D01*
Y206533D01*
X140533Y206000D01*
X141600D01*
X142133Y206533D01*
X143199Y208666D02*
X143732Y209199D01*
X144799D01*
X145332Y208666D01*
Y208133D01*
X144799Y207599D01*
X144265D01*
X144799D01*
X145332Y207066D01*
Y206533D01*
X144799Y206000D01*
X143732D01*
X143199Y206533D01*
X146398Y209199D02*
X148531D01*
Y208666D01*
X146398Y206533D01*
Y206000D01*
X156633Y228666D02*
X156099Y229199D01*
X155033D01*
X154500Y228666D01*
Y226533D01*
X155033Y226000D01*
X156099D01*
X156633Y226533D01*
X159299Y226000D02*
Y229199D01*
X157699Y227600D01*
X159832D01*
X163031Y229199D02*
X160898D01*
Y227600D01*
X161964Y228133D01*
X162497D01*
X163031Y227600D01*
Y226533D01*
X162497Y226000D01*
X161431D01*
X160898Y226533D01*
X155963Y220557D02*
X155430Y221091D01*
X154364D01*
X153831Y220557D01*
Y218425D01*
X154364Y217892D01*
X155430D01*
X155963Y218425D01*
X158629Y217892D02*
Y221091D01*
X157030Y219491D01*
X159162D01*
X160229Y220557D02*
X160762Y221091D01*
X161828D01*
X162361Y220557D01*
Y220024D01*
X161828Y219491D01*
X161295D01*
X161828D01*
X162361Y218958D01*
Y218425D01*
X161828Y217892D01*
X160762D01*
X160229Y218425D01*
X125334Y237133D02*
X124801Y236599D01*
Y235533D01*
X125334Y235000D01*
X127467D01*
X128000Y235533D01*
Y236599D01*
X127467Y237133D01*
X124801Y240332D02*
Y238199D01*
X126400D01*
X125867Y239265D01*
Y239798D01*
X126400Y240332D01*
X127467D01*
X128000Y239798D01*
Y238732D01*
X127467Y238199D01*
X125334Y241398D02*
X124801Y241931D01*
Y242997D01*
X125334Y243531D01*
X127467D01*
X128000Y242997D01*
Y241931D01*
X127467Y241398D01*
X125334D01*
X149334Y240133D02*
X148801Y239599D01*
Y238533D01*
X149334Y238000D01*
X151467D01*
X152000Y238533D01*
Y239599D01*
X151467Y240133D01*
X148801Y243332D02*
Y241199D01*
X150400D01*
X149867Y242265D01*
Y242798D01*
X150400Y243332D01*
X151467D01*
X152000Y242798D01*
Y241732D01*
X151467Y241199D01*
X148801Y246531D02*
Y244398D01*
X150400D01*
X149867Y245464D01*
Y245997D01*
X150400Y246531D01*
X151467D01*
X152000Y245997D01*
Y244931D01*
X151467Y244398D01*
X171834Y189633D02*
X171301Y189100D01*
Y188033D01*
X171834Y187500D01*
X173967D01*
X174500Y188033D01*
Y189100D01*
X173967Y189633D01*
X171834Y190699D02*
X171301Y191232D01*
Y192298D01*
X171834Y192832D01*
X172367D01*
X172900Y192298D01*
Y191765D01*
Y192298D01*
X173434Y192832D01*
X173967D01*
X174500Y192298D01*
Y191232D01*
X173967Y190699D01*
X171834Y193898D02*
X171301Y194431D01*
Y195497D01*
X171834Y196031D01*
X173967D01*
X174500Y195497D01*
Y194431D01*
X173967Y193898D01*
X171834D01*
X170334Y200133D02*
X169801Y199600D01*
Y198533D01*
X170334Y198000D01*
X172467D01*
X173000Y198533D01*
Y199600D01*
X172467Y200133D01*
X170334Y201199D02*
X169801Y201732D01*
Y202799D01*
X170334Y203332D01*
X170867D01*
X171400Y202799D01*
Y202265D01*
Y202799D01*
X171934Y203332D01*
X172467D01*
X173000Y202799D01*
Y201732D01*
X172467Y201199D01*
X173000Y206531D02*
Y204398D01*
X170867Y206531D01*
X170334D01*
X169801Y205997D01*
Y204931D01*
X170334Y204398D01*
X191334Y216633D02*
X190801Y216100D01*
Y215033D01*
X191334Y214500D01*
X193467D01*
X194000Y215033D01*
Y216100D01*
X193467Y216633D01*
X191334Y217699D02*
X190801Y218232D01*
Y219299D01*
X191334Y219832D01*
X191867D01*
X192401Y219299D01*
Y218765D01*
Y219299D01*
X192934Y219832D01*
X193467D01*
X194000Y219299D01*
Y218232D01*
X193467Y217699D01*
X190801Y223031D02*
X191334Y221964D01*
X192401Y220898D01*
X193467D01*
X194000Y221431D01*
Y222497D01*
X193467Y223031D01*
X192934D01*
X192401Y222497D01*
Y220898D01*
X201334Y206633D02*
X200801Y206100D01*
Y205033D01*
X201334Y204500D01*
X203467D01*
X204000Y205033D01*
Y206100D01*
X203467Y206633D01*
X201334Y207699D02*
X200801Y208232D01*
Y209298D01*
X201334Y209832D01*
X201867D01*
X202400Y209298D01*
Y208765D01*
Y209298D01*
X202934Y209832D01*
X203467D01*
X204000Y209298D01*
Y208232D01*
X203467Y207699D01*
X204000Y212497D02*
X200801D01*
X202400Y210898D01*
Y213031D01*
X153834Y156633D02*
X153301Y156099D01*
Y155033D01*
X153834Y154500D01*
X155967D01*
X156500Y155033D01*
Y156099D01*
X155967Y156633D01*
X156500Y157699D02*
Y158765D01*
Y158232D01*
X153301D01*
X153834Y157699D01*
Y160365D02*
X153301Y160898D01*
Y161964D01*
X153834Y162497D01*
X154367D01*
X154901Y161964D01*
Y161431D01*
Y161964D01*
X155434Y162497D01*
X155967D01*
X156500Y161964D01*
Y160898D01*
X155967Y160365D01*
X176633Y150166D02*
X176100Y150699D01*
X175033D01*
X174500Y150166D01*
Y148033D01*
X175033Y147500D01*
X176100D01*
X176633Y148033D01*
X177699Y150699D02*
X179832D01*
Y150166D01*
X177699Y148033D01*
Y147500D01*
X127133Y157666D02*
X126600Y158199D01*
X125533D01*
X125000Y157666D01*
Y155533D01*
X125533Y155000D01*
X126600D01*
X127133Y155533D01*
X128199Y155000D02*
X129265D01*
X128732D01*
Y158199D01*
X128199Y157666D01*
X132997Y158199D02*
X131931Y157666D01*
X130865Y156599D01*
Y155533D01*
X131398Y155000D01*
X132464D01*
X132997Y155533D01*
Y156066D01*
X132464Y156599D01*
X130865D01*
X109133Y123166D02*
X108599Y123699D01*
X107533D01*
X107000Y123166D01*
Y121033D01*
X107533Y120500D01*
X108599D01*
X109133Y121033D01*
X112332Y120500D02*
X110199D01*
X112332Y122633D01*
Y123166D01*
X111799Y123699D01*
X110732D01*
X110199Y123166D01*
X277500Y132699D02*
Y129500D01*
X279099D01*
X279633Y130033D01*
Y132166D01*
X279099Y132699D01*
X277500D01*
X280699Y129500D02*
X281765D01*
X281232D01*
Y132699D01*
X280699Y132166D01*
X273000Y125199D02*
Y122000D01*
X274600D01*
X275133Y122533D01*
Y124666D01*
X274600Y125199D01*
X273000D01*
X278332Y122000D02*
X276199D01*
X278332Y124133D01*
Y124666D01*
X277799Y125199D01*
X276732D01*
X276199Y124666D01*
X179000Y280199D02*
Y277000D01*
X180599D01*
X181133Y277533D01*
Y279666D01*
X180599Y280199D01*
X179000D01*
X182199Y279666D02*
X182732Y280199D01*
X183799D01*
X184332Y279666D01*
Y279133D01*
X183799Y278600D01*
X183265D01*
X183799D01*
X184332Y278066D01*
Y277533D01*
X183799Y277000D01*
X182732D01*
X182199Y277533D01*
X178500Y267199D02*
Y264000D01*
X180099D01*
X180633Y264533D01*
Y266666D01*
X180099Y267199D01*
X178500D01*
X183299Y264000D02*
Y267199D01*
X181699Y265599D01*
X183832D01*
X252500Y205199D02*
Y202000D01*
X254099D01*
X254633Y202533D01*
Y204666D01*
X254099Y205199D01*
X252500D01*
X257832D02*
X255699D01*
Y203600D01*
X256765Y204133D01*
X257298D01*
X257832Y203600D01*
Y202533D01*
X257298Y202000D01*
X256232D01*
X255699Y202533D01*
X252000Y186199D02*
Y183000D01*
X253600D01*
X254133Y183533D01*
Y185666D01*
X253600Y186199D01*
X252000D01*
X257332D02*
X256265Y185666D01*
X255199Y184599D01*
Y183533D01*
X255732Y183000D01*
X256799D01*
X257332Y183533D01*
Y184066D01*
X256799Y184599D01*
X255199D01*
X151301Y121500D02*
X154500D01*
Y123100D01*
X153967Y123633D01*
X151834D01*
X151301Y123100D01*
Y121500D01*
Y124699D02*
Y126832D01*
X151834D01*
X153967Y124699D01*
X154500D01*
X184000Y175699D02*
Y172500D01*
X186133D01*
X187199Y173033D02*
X187732Y172500D01*
X188798D01*
X189332Y173033D01*
Y175166D01*
X188798Y175699D01*
X187732D01*
X187199Y175166D01*
Y174633D01*
X187732Y174100D01*
X189332D01*
X221000Y156699D02*
Y153500D01*
X223133D01*
X226332D02*
X224199D01*
X226332Y155633D01*
Y156166D01*
X225799Y156699D01*
X224732D01*
X224199Y156166D01*
X252500Y170199D02*
Y167000D01*
X254633D01*
X255699Y170199D02*
X257832D01*
Y169666D01*
X255699Y167533D01*
Y167000D01*
X220500Y166699D02*
Y163500D01*
X222633D01*
X225832Y166699D02*
X223699D01*
Y165100D01*
X224765Y165633D01*
X225299D01*
X225832Y165100D01*
Y164033D01*
X225299Y163500D01*
X224232D01*
X223699Y164033D01*
X243000Y172699D02*
Y169500D01*
X245133D01*
X246199Y172166D02*
X246732Y172699D01*
X247798D01*
X248332Y172166D01*
Y171633D01*
X247798Y171099D01*
X248332Y170566D01*
Y170033D01*
X247798Y169500D01*
X246732D01*
X246199Y170033D01*
Y170566D01*
X246732Y171099D01*
X246199Y171633D01*
Y172166D01*
X246732Y171099D02*
X247798D01*
X213301Y241000D02*
X216500D01*
Y243133D01*
Y244199D02*
Y245265D01*
Y244732D01*
X213301D01*
X213834Y244199D01*
X213301Y248997D02*
Y246865D01*
X214900D01*
X214367Y247931D01*
Y248464D01*
X214900Y248997D01*
X215967D01*
X216500Y248464D01*
Y247398D01*
X215967Y246865D01*
X234801Y260500D02*
X238000D01*
Y262633D01*
Y263699D02*
Y264765D01*
Y264232D01*
X234801D01*
X235334Y263699D01*
Y266365D02*
X234801Y266898D01*
Y267964D01*
X235334Y268497D01*
X235867D01*
X236401Y267964D01*
X236934Y268497D01*
X237467D01*
X238000Y267964D01*
Y266898D01*
X237467Y266365D01*
X236934D01*
X236401Y266898D01*
X235867Y266365D01*
X235334D01*
X236401Y266898D02*
Y267964D01*
X233423Y247669D02*
X236622D01*
Y249802D01*
Y250868D02*
Y251935D01*
Y251401D01*
X233423D01*
X233956Y250868D01*
X233423Y255667D02*
X233956Y254600D01*
X235023Y253534D01*
X236089D01*
X236622Y254067D01*
Y255134D01*
X236089Y255667D01*
X235556D01*
X235023Y255134D01*
Y253534D01*
X152301Y199500D02*
X155500D01*
Y201633D01*
Y202699D02*
Y203765D01*
Y203232D01*
X152301D01*
X152834Y202699D01*
Y205365D02*
X152301Y205898D01*
Y206964D01*
X152834Y207497D01*
X154967D01*
X155500Y206964D01*
Y205898D01*
X154967Y205365D01*
X152834D01*
X135500Y229199D02*
Y226000D01*
X137633D01*
X138699D02*
X139765D01*
X139232D01*
Y229199D01*
X138699Y228666D01*
X141365D02*
X141898Y229199D01*
X142964D01*
X143497Y228666D01*
Y228133D01*
X142964Y227600D01*
X142431D01*
X142964D01*
X143497Y227066D01*
Y226533D01*
X142964Y226000D01*
X141898D01*
X141365Y226533D01*
X119500Y225199D02*
Y222000D01*
X121633D01*
X122699D02*
X123765D01*
X123232D01*
Y225199D01*
X122699Y224666D01*
X127497Y222000D02*
X125365D01*
X127497Y224133D01*
Y224666D01*
X126964Y225199D01*
X125898D01*
X125365Y224666D01*
X187500Y110000D02*
Y113199D01*
X189100D01*
X189633Y112666D01*
Y111600D01*
X189100Y111066D01*
X187500D01*
X190699Y110000D02*
X191765D01*
X191232D01*
Y113199D01*
X190699Y112666D01*
X171500Y135000D02*
Y138199D01*
X173100D01*
X173633Y137666D01*
Y136600D01*
X173100Y136066D01*
X171500D01*
X172566D02*
X173633Y135000D01*
X174699D02*
X175765D01*
X175232D01*
Y138199D01*
X174699Y137666D01*
X177365Y135000D02*
X178431D01*
X177898D01*
Y138199D01*
X177365Y137666D01*
X248500Y135000D02*
Y138199D01*
X250099D01*
X250633Y137666D01*
Y136600D01*
X250099Y136066D01*
X248500D01*
X249566D02*
X250633Y135000D01*
X251699Y135533D02*
X252232Y135000D01*
X253298D01*
X253832Y135533D01*
Y137666D01*
X253298Y138199D01*
X252232D01*
X251699Y137666D01*
Y137133D01*
X252232Y136600D01*
X253832D01*
X248500Y116500D02*
Y119699D01*
X250099D01*
X250633Y119166D01*
Y118099D01*
X250099Y117566D01*
X248500D01*
X249566D02*
X250633Y116500D01*
X253832D02*
X251699D01*
X253832Y118633D01*
Y119166D01*
X253298Y119699D01*
X252232D01*
X251699Y119166D01*
X190500Y274000D02*
Y277199D01*
X192099D01*
X192633Y276666D01*
Y275600D01*
X192099Y275066D01*
X190500D01*
X191566D02*
X192633Y274000D01*
X193699Y276666D02*
X194232Y277199D01*
X195299D01*
X195832Y276666D01*
Y276133D01*
X195299Y275600D01*
X194765D01*
X195299D01*
X195832Y275066D01*
Y274533D01*
X195299Y274000D01*
X194232D01*
X193699Y274533D01*
X199031Y277199D02*
X197964Y276666D01*
X196898Y275600D01*
Y274533D01*
X197431Y274000D01*
X198497D01*
X199031Y274533D01*
Y275066D01*
X198497Y275600D01*
X196898D01*
X190500Y259000D02*
Y262199D01*
X192099D01*
X192633Y261666D01*
Y260599D01*
X192099Y260066D01*
X190500D01*
X191566D02*
X192633Y259000D01*
X193699Y261666D02*
X194232Y262199D01*
X195299D01*
X195832Y261666D01*
Y261133D01*
X195299Y260599D01*
X194765D01*
X195299D01*
X195832Y260066D01*
Y259533D01*
X195299Y259000D01*
X194232D01*
X193699Y259533D01*
X199031Y262199D02*
X196898D01*
Y260599D01*
X197964Y261133D01*
X198497D01*
X199031Y260599D01*
Y259533D01*
X198497Y259000D01*
X197431D01*
X196898Y259533D01*
X165500Y275500D02*
Y278699D01*
X167099D01*
X167633Y278166D01*
Y277099D01*
X167099Y276566D01*
X165500D01*
X166566D02*
X167633Y275500D01*
X168699Y278166D02*
X169232Y278699D01*
X170299D01*
X170832Y278166D01*
Y277633D01*
X170299Y277099D01*
X169765D01*
X170299D01*
X170832Y276566D01*
Y276033D01*
X170299Y275500D01*
X169232D01*
X168699Y276033D01*
X171898Y278699D02*
X174031D01*
Y278166D01*
X171898Y276033D01*
Y275500D01*
X273000Y209000D02*
Y212199D01*
X274600D01*
X275133Y211666D01*
Y210599D01*
X274600Y210066D01*
X273000D01*
X274066D02*
X275133Y209000D01*
X278332D02*
X276199D01*
X278332Y211133D01*
Y211666D01*
X277799Y212199D01*
X276732D01*
X276199Y211666D01*
X279398Y209533D02*
X279931Y209000D01*
X280997D01*
X281531Y209533D01*
Y211666D01*
X280997Y212199D01*
X279931D01*
X279398Y211666D01*
Y211133D01*
X279931Y210599D01*
X281531D01*
X237000Y198000D02*
Y201199D01*
X238599D01*
X239133Y200666D01*
Y199600D01*
X238599Y199066D01*
X237000D01*
X238066D02*
X239133Y198000D01*
X242332D02*
X240199D01*
X242332Y200133D01*
Y200666D01*
X241798Y201199D01*
X240732D01*
X240199Y200666D01*
X243398Y201199D02*
X245531D01*
Y200666D01*
X243398Y198533D01*
Y198000D01*
X237000Y184000D02*
Y187199D01*
X238599D01*
X239133Y186666D01*
Y185600D01*
X238599Y185066D01*
X237000D01*
X238066D02*
X239133Y184000D01*
X242332D02*
X240199D01*
X242332Y186133D01*
Y186666D01*
X241798Y187199D01*
X240732D01*
X240199Y186666D01*
X245531Y187199D02*
X243398D01*
Y185600D01*
X244464Y186133D01*
X244997D01*
X245531Y185600D01*
Y184533D01*
X244997Y184000D01*
X243931D01*
X243398Y184533D01*
X160000Y182000D02*
Y185199D01*
X161600D01*
X162133Y184666D01*
Y183599D01*
X161600Y183066D01*
X160000D01*
X161066D02*
X162133Y182000D01*
X165332D02*
X163199D01*
X165332Y184133D01*
Y184666D01*
X164798Y185199D01*
X163732D01*
X163199Y184666D01*
X168531Y182000D02*
X166398D01*
X168531Y184133D01*
Y184666D01*
X167997Y185199D01*
X166931D01*
X166398Y184666D01*
X213500Y123500D02*
X210301D01*
Y125100D01*
X210834Y125633D01*
X211900D01*
X212434Y125100D01*
Y123500D01*
Y124566D02*
X213500Y125633D01*
Y126699D02*
Y127765D01*
Y127232D01*
X210301D01*
X210834Y126699D01*
X223500Y176500D02*
X220301D01*
Y178100D01*
X220834Y178633D01*
X221901D01*
X222434Y178100D01*
Y176500D01*
Y177566D02*
X223500Y178633D01*
Y181832D02*
Y179699D01*
X221367Y181832D01*
X220834D01*
X220301Y181298D01*
Y180232D01*
X220834Y179699D01*
Y182898D02*
X220301Y183431D01*
Y184497D01*
X220834Y185031D01*
X222967D01*
X223500Y184497D01*
Y183431D01*
X222967Y182898D01*
X220834D01*
X286000Y209000D02*
Y212199D01*
X287599D01*
X288133Y211666D01*
Y210599D01*
X287599Y210066D01*
X286000D01*
X287066D02*
X288133Y209000D01*
X289199Y211666D02*
X289732Y212199D01*
X290798D01*
X291332Y211666D01*
Y211133D01*
X290798Y210599D01*
X290265D01*
X290798D01*
X291332Y210066D01*
Y209533D01*
X290798Y209000D01*
X289732D01*
X289199Y209533D01*
X292398Y211666D02*
X292931Y212199D01*
X293997D01*
X294531Y211666D01*
Y209533D01*
X293997Y209000D01*
X292931D01*
X292398Y209533D01*
Y211666D01*
X218531Y236500D02*
Y239699D01*
X220131D01*
X220664Y239166D01*
Y238100D01*
X220131Y237566D01*
X218531D01*
X219598D02*
X220664Y236500D01*
X221730Y239166D02*
X222264Y239699D01*
X223330D01*
X223863Y239166D01*
Y238633D01*
X223330Y238100D01*
X222797D01*
X223330D01*
X223863Y237566D01*
Y237033D01*
X223330Y236500D01*
X222264D01*
X221730Y237033D01*
X224929Y236500D02*
X225996D01*
X225463D01*
Y239699D01*
X224929Y239166D01*
X163000Y245500D02*
X159801D01*
Y247099D01*
X160334Y247633D01*
X161400D01*
X161934Y247099D01*
Y245500D01*
Y246566D02*
X163000Y247633D01*
X160334Y248699D02*
X159801Y249232D01*
Y250299D01*
X160334Y250832D01*
X160867D01*
X161400Y250299D01*
Y249765D01*
Y250299D01*
X161934Y250832D01*
X162467D01*
X163000Y250299D01*
Y249232D01*
X162467Y248699D01*
X163000Y254031D02*
Y251898D01*
X160867Y254031D01*
X160334D01*
X159801Y253497D01*
Y252431D01*
X160334Y251898D01*
X142000Y179000D02*
X138801D01*
Y180599D01*
X139334Y181133D01*
X140401D01*
X140934Y180599D01*
Y179000D01*
Y180066D02*
X142000Y181133D01*
Y184332D02*
Y182199D01*
X139867Y184332D01*
X139334D01*
X138801Y183799D01*
Y182732D01*
X139334Y182199D01*
Y185398D02*
X138801Y185931D01*
Y186997D01*
X139334Y187531D01*
X139867D01*
X140401Y186997D01*
Y186464D01*
Y186997D01*
X140934Y187531D01*
X141467D01*
X142000Y186997D01*
Y185931D01*
X141467Y185398D01*
X122000Y179500D02*
Y182699D01*
X123600D01*
X124133Y182166D01*
Y181099D01*
X123600Y180566D01*
X122000D01*
X123066D02*
X124133Y179500D01*
X127332D02*
X125199D01*
X127332Y181633D01*
Y182166D01*
X126798Y182699D01*
X125732D01*
X125199Y182166D01*
X129997Y179500D02*
Y182699D01*
X128398Y181099D01*
X130531D01*
X121000Y194000D02*
Y197199D01*
X122599D01*
X123133Y196666D01*
Y195599D01*
X122599Y195066D01*
X121000D01*
X122066D02*
X123133Y194000D01*
X126332D02*
X124199D01*
X126332Y196133D01*
Y196666D01*
X125798Y197199D01*
X124732D01*
X124199Y196666D01*
X129531Y197199D02*
X128464Y196666D01*
X127398Y195599D01*
Y194533D01*
X127931Y194000D01*
X128997D01*
X129531Y194533D01*
Y195066D01*
X128997Y195599D01*
X127398D01*
X160996Y201236D02*
X157797D01*
Y202836D01*
X158330Y203369D01*
X159397D01*
X159930Y202836D01*
Y201236D01*
Y202303D02*
X160996Y203369D01*
Y206568D02*
Y204435D01*
X158863Y206568D01*
X158330D01*
X157797Y206035D01*
Y204968D01*
X158330Y204435D01*
Y207634D02*
X157797Y208167D01*
Y209234D01*
X158330Y209767D01*
X158863D01*
X159397Y209234D01*
X159930Y209767D01*
X160463D01*
X160996Y209234D01*
Y208167D01*
X160463Y207634D01*
X159930D01*
X159397Y208167D01*
X158863Y207634D01*
X158330D01*
X159397Y208167D02*
Y209234D01*
X177500Y118500D02*
X174301D01*
Y120099D01*
X174834Y120633D01*
X175900D01*
X176434Y120099D01*
Y118500D01*
Y119566D02*
X177500Y120633D01*
Y123299D02*
X174301D01*
X175900Y121699D01*
Y123832D01*
X150500Y147000D02*
X147301D01*
Y148600D01*
X147834Y149133D01*
X148900D01*
X149434Y148600D01*
Y147000D01*
Y148066D02*
X150500Y149133D01*
Y150199D02*
Y151265D01*
Y150732D01*
X147301D01*
X147834Y150199D01*
Y152865D02*
X147301Y153398D01*
Y154464D01*
X147834Y154997D01*
X148367D01*
X148900Y154464D01*
Y153931D01*
Y154464D01*
X149434Y154997D01*
X149967D01*
X150500Y154464D01*
Y153398D01*
X149967Y152865D01*
X172000Y118000D02*
X168801D01*
Y119599D01*
X169334Y120133D01*
X170401D01*
X170934Y119599D01*
Y118000D01*
Y119066D02*
X172000Y120133D01*
X169334Y121199D02*
X168801Y121732D01*
Y122799D01*
X169334Y123332D01*
X169867D01*
X170401Y122799D01*
Y122265D01*
Y122799D01*
X170934Y123332D01*
X171467D01*
X172000Y122799D01*
Y121732D01*
X171467Y121199D01*
X144000Y118000D02*
X140801D01*
Y119599D01*
X141334Y120133D01*
X142401D01*
X142934Y119599D01*
Y118000D01*
Y119066D02*
X144000Y120133D01*
X140801Y123332D02*
Y121199D01*
X142401D01*
X141867Y122265D01*
Y122799D01*
X142401Y123332D01*
X143467D01*
X144000Y122799D01*
Y121732D01*
X143467Y121199D01*
X132000Y120000D02*
Y123199D01*
X133599D01*
X134133Y122666D01*
Y121599D01*
X133599Y121066D01*
X132000D01*
X133066D02*
X134133Y120000D01*
X137332Y123199D02*
X136265Y122666D01*
X135199Y121599D01*
Y120533D01*
X135732Y120000D01*
X136799D01*
X137332Y120533D01*
Y121066D01*
X136799Y121599D01*
X135199D01*
X123000Y122000D02*
Y125199D01*
X124600D01*
X125133Y124666D01*
Y123600D01*
X124600Y123066D01*
X123000D01*
X124066D02*
X125133Y122000D01*
X126199Y125199D02*
X128332D01*
Y124666D01*
X126199Y122533D01*
Y122000D01*
X172000Y169000D02*
Y172199D01*
X173600D01*
X174133Y171666D01*
Y170599D01*
X173600Y170066D01*
X172000D01*
X173066D02*
X174133Y169000D01*
X175199D02*
X176265D01*
X175732D01*
Y172199D01*
X175199Y171666D01*
X177865D02*
X178398Y172199D01*
X179464D01*
X179997Y171666D01*
Y171133D01*
X179464Y170599D01*
X179997Y170066D01*
Y169533D01*
X179464Y169000D01*
X178398D01*
X177865Y169533D01*
Y170066D01*
X178398Y170599D01*
X177865Y171133D01*
Y171666D01*
X178398Y170599D02*
X179464D01*
X180000Y159500D02*
Y162699D01*
X181599D01*
X182133Y162166D01*
Y161100D01*
X181599Y160566D01*
X180000D01*
X181066D02*
X182133Y159500D01*
X183199D02*
X184265D01*
X183732D01*
Y162699D01*
X183199Y162166D01*
X185865Y162699D02*
X187997D01*
Y162166D01*
X185865Y160033D01*
Y159500D01*
X121000Y136500D02*
X117801D01*
Y138100D01*
X118334Y138633D01*
X119401D01*
X119934Y138100D01*
Y136500D01*
Y137566D02*
X121000Y138633D01*
Y139699D02*
Y140765D01*
Y140232D01*
X117801D01*
X118334Y139699D01*
X121000Y144497D02*
Y142365D01*
X118867Y144497D01*
X118334D01*
X117801Y143964D01*
Y142898D01*
X118334Y142365D01*
X144000Y153000D02*
X140801D01*
Y154599D01*
X141334Y155133D01*
X142401D01*
X142934Y154599D01*
Y153000D01*
Y154066D02*
X144000Y155133D01*
Y156199D02*
Y157265D01*
Y156732D01*
X140801D01*
X141334Y156199D01*
X144000Y160464D02*
X140801D01*
X142401Y158865D01*
Y160997D01*
X112500Y162500D02*
Y165699D01*
X114100D01*
X114633Y165166D01*
Y164100D01*
X114100Y163566D01*
X112500D01*
X113566D02*
X114633Y162500D01*
X115699D02*
X116765D01*
X116232D01*
Y165699D01*
X115699Y165166D01*
X120497Y165699D02*
X118365D01*
Y164100D01*
X119431Y164633D01*
X119964D01*
X120497Y164100D01*
Y163033D01*
X119964Y162500D01*
X118898D01*
X118365Y163033D01*
X133000Y133000D02*
Y136199D01*
X134599D01*
X135133Y135666D01*
Y134599D01*
X134599Y134066D01*
X133000D01*
X134066D02*
X135133Y133000D01*
X136199Y135666D02*
X136732Y136199D01*
X137799D01*
X138332Y135666D01*
Y135133D01*
X137799Y134599D01*
X138332Y134066D01*
Y133533D01*
X137799Y133000D01*
X136732D01*
X136199Y133533D01*
Y134066D01*
X136732Y134599D01*
X136199Y135133D01*
Y135666D01*
X136732Y134599D02*
X137799D01*
X245000Y152699D02*
Y152166D01*
X246066Y151100D01*
X247133Y152166D01*
Y152699D01*
X246066Y151100D02*
Y149500D01*
X250332D02*
X248199D01*
X250332Y151633D01*
Y152166D01*
X249798Y152699D01*
X248732D01*
X248199Y152166D01*
X235000Y120699D02*
Y120166D01*
X236066Y119099D01*
X237133Y120166D01*
Y120699D01*
X236066Y119099D02*
Y117500D01*
X238199D02*
X239265D01*
X238732D01*
Y120699D01*
X238199Y120166D01*
X265500Y262699D02*
Y262166D01*
X266566Y261100D01*
X267633Y262166D01*
Y262699D01*
X266566Y261100D02*
Y259500D01*
X270832Y262699D02*
X268699D01*
Y261100D01*
X269765Y261633D01*
X270299D01*
X270832Y261100D01*
Y260033D01*
X270299Y259500D01*
X269232D01*
X268699Y260033D01*
X291301Y252000D02*
X291834D01*
X292900Y253066D01*
X291834Y254133D01*
X291301D01*
X292900Y253066D02*
X294500D01*
X291301Y257332D02*
X291834Y256265D01*
X292900Y255199D01*
X293967D01*
X294500Y255732D01*
Y256799D01*
X293967Y257332D01*
X293434D01*
X292900Y256799D01*
Y255199D01*
D62*
X165768Y163784D02*
G03*
X165768Y163784I-492J0D01*
G01*
X122642Y149201D02*
G03*
X122642Y149201I-492J0D01*
G01*
D63*
X160882Y166382D02*
G03*
X160882Y166382I-197J0D01*
G01*
D64*
X135031Y238394D02*
X136500Y236925D01*
X135031Y238394D02*
Y246768D01*
X147630Y236925D02*
Y246768D01*
X135031D02*
X147630D01*
X136500Y236925D02*
X147630D01*
X161721Y236779D02*
X189279D01*
X161721Y209221D02*
Y236779D01*
Y209221D02*
X189279D01*
Y236779D01*
X234032Y139894D02*
X235500Y138425D01*
X234032Y139894D02*
Y148268D01*
X246630Y138425D02*
Y148268D01*
X234032D02*
X246630D01*
X235500Y138425D02*
X246630D01*
X261402Y258075D02*
X272532D01*
X261402Y248232D02*
X274000D01*
X261402D02*
Y258075D01*
X274000Y248232D02*
Y256606D01*
X272532Y258075D02*
X274000Y256606D01*
D65*
X165299Y188547D02*
Y191500D01*
X152701Y188547D02*
X165299D01*
X152701D02*
Y194453D01*
X165299D01*
Y191500D02*
Y194453D01*
X169409Y162602D02*
X170591D01*
X169409Y150398D02*
X170591D01*
X169409D02*
Y162602D01*
X170591Y150398D02*
Y162602D01*
X136618Y149791D02*
X138291D01*
Y148118D02*
Y149791D01*
X136618Y136209D02*
X138291D01*
Y137882D01*
X124709Y136209D02*
X126382D01*
X124709D02*
Y137882D01*
Y149791D02*
X126382D01*
X124709Y148118D02*
Y149791D01*
X160244Y137500D02*
X165756D01*
X160244Y131063D02*
X165756D01*
X160244D02*
Y138937D01*
X165756D01*
Y131063D02*
Y138937D01*
X124213Y131122D02*
X125787D01*
X124213Y133878D02*
X125787D01*
X156846Y165004D02*
X159110D01*
Y166382D01*
X147890Y165004D02*
Y166382D01*
Y165004D02*
X150154D01*
X147890Y176618D02*
Y177996D01*
X150154D01*
X159110Y176618D02*
Y177996D01*
X156846D02*
X159110D01*
X152831Y220909D02*
Y222091D01*
X191016Y247012D02*
X192984D01*
X106213Y166122D02*
X107787D01*
X106213Y168878D02*
X107787D01*
X175213Y257122D02*
X176787D01*
X175213Y259878D02*
X176787D01*
X142622Y165713D02*
Y167287D01*
X145378Y165713D02*
Y167287D01*
X175213Y255378D02*
X176787D01*
X175213Y252622D02*
X176787D01*
X170213Y176378D02*
X171787D01*
X170213Y173622D02*
X171787D01*
X261563Y128744D02*
X269437D01*
Y134256D01*
X261563D02*
X269437D01*
X261563Y128744D02*
Y134256D01*
X268000Y128744D02*
Y134256D01*
Y120744D02*
Y126256D01*
X261563Y120744D02*
Y126256D01*
X269437D01*
Y120744D02*
Y126256D01*
X261563Y120744D02*
X269437D01*
X177063Y275256D02*
X184937D01*
X177063Y269744D02*
Y275256D01*
Y269744D02*
X184937D01*
Y275256D01*
X178500Y269744D02*
Y275256D01*
Y262744D02*
Y268256D01*
X184937Y262744D02*
Y268256D01*
X177063Y262744D02*
X184937D01*
X177063D02*
Y268256D01*
X184937D01*
X251063Y195244D02*
X258937D01*
Y200756D01*
X251063D02*
X258937D01*
X251063Y195244D02*
Y200756D01*
X257500Y195244D02*
Y200756D01*
Y188244D02*
Y193756D01*
X251063Y188244D02*
Y193756D01*
X258937D01*
Y188244D02*
Y193756D01*
X251063Y188244D02*
X258937D01*
X155756Y131063D02*
Y138937D01*
X150244D02*
X155756D01*
X150244Y131063D02*
Y138937D01*
Y131063D02*
X155756D01*
X150244Y137500D02*
X155756D01*
X191331Y168909D02*
Y170090D01*
X232201Y154909D02*
Y156091D01*
X221169Y157909D02*
Y159090D01*
X240701Y157909D02*
Y159091D01*
X249362Y160909D02*
Y162091D01*
X250169Y163909D02*
Y165091D01*
X221169Y160909D02*
Y162091D01*
X232201Y160909D02*
Y162091D01*
X249331Y166909D02*
Y168090D01*
X210941Y243669D02*
X212122D01*
X241441Y247669D02*
X242622D01*
X239941Y259169D02*
X241122D01*
X235441Y247669D02*
X236622D01*
X149909Y209831D02*
X151091D01*
X153331Y226909D02*
Y228091D01*
X145331Y222909D02*
Y224091D01*
X135331Y222909D02*
Y224091D01*
X173713Y139122D02*
X175287D01*
X173713Y141878D02*
X175287D01*
X251713Y130122D02*
X253287D01*
X251713Y132878D02*
X253287D01*
X251713Y122122D02*
X253287D01*
X251713Y124878D02*
X253287D01*
X192213Y271878D02*
X193787D01*
X192213Y269122D02*
X193787D01*
X192213Y266378D02*
X193787D01*
X192213Y263622D02*
X193787D01*
X168213Y273878D02*
X169787D01*
X168213Y271122D02*
X169787D01*
X276713Y204622D02*
X278287D01*
X276713Y207378D02*
X278287D01*
X239713Y193622D02*
X241287D01*
X239713Y196378D02*
X241287D01*
X239713Y189122D02*
X241287D01*
X239713Y191878D02*
X241287D01*
X164213Y178122D02*
X165787D01*
X164213Y180878D02*
X165787D01*
X214622Y123213D02*
Y124787D01*
X217378Y123213D02*
Y124787D01*
X217122Y175713D02*
Y177287D01*
X219878Y175713D02*
Y177287D01*
X287213Y204622D02*
X288787D01*
X287213Y207378D02*
X288787D01*
X220744Y236122D02*
X222319D01*
X220744Y238878D02*
X222319D01*
X167878Y245713D02*
Y247287D01*
X165122Y245713D02*
Y247287D01*
X135122Y182213D02*
Y183787D01*
X137878Y182213D02*
Y183787D01*
X125213Y184622D02*
X126787D01*
X125213Y187378D02*
X126787D01*
X125213Y189622D02*
X126787D01*
X125213Y192378D02*
X126787D01*
X161378Y203713D02*
Y205287D01*
X158622Y203713D02*
Y205287D01*
X174622Y127713D02*
Y129287D01*
X177378Y127713D02*
Y129287D01*
X154378Y150213D02*
Y151787D01*
X151622Y150213D02*
Y151787D01*
X169122Y127713D02*
Y129287D01*
X171878Y127713D02*
Y129287D01*
X140622Y128213D02*
Y129787D01*
X143378Y128213D02*
Y129787D01*
X133713Y125122D02*
X135287D01*
X133713Y127878D02*
X135287D01*
X124213Y129378D02*
X125787D01*
X124213Y126622D02*
X125787D01*
X171213Y167878D02*
X172787D01*
X171213Y165122D02*
X172787D01*
X181213Y166378D02*
X182787D01*
X181213Y163622D02*
X182787D01*
X118122Y148213D02*
Y149787D01*
X120878Y148213D02*
Y149787D01*
X136622Y156213D02*
Y157787D01*
X139378Y156213D02*
Y157787D01*
X106213Y161622D02*
X107787D01*
X106213Y164378D02*
X107787D01*
X133713Y132378D02*
X135287D01*
X133713Y129622D02*
X135287D01*
X237000Y135299D02*
X239953D01*
Y122701D02*
Y135299D01*
X234047Y122701D02*
X239953D01*
X234047D02*
Y135299D01*
X237000D01*
X277232Y252047D02*
Y255000D01*
Y252047D02*
X289831D01*
Y257953D01*
X277232D02*
X289831D01*
X277232Y255000D02*
Y257953D01*
D66*
X192154Y145496D02*
Y172504D01*
X219043D01*
Y145496D02*
Y172504D01*
X192154Y145496D02*
X219043D01*
M02*
