%FSLAX25Y25*%
%MOIN*%
G70*
G01*
G75*
G04 Layer_Physical_Order=2*
G04 Layer_Color=32768*
%ADD10R,0.05512X0.04724*%
%ADD11R,0.04331X0.07480*%
%ADD12R,0.05315X0.01575*%
%ADD13R,0.09449X0.02992*%
%ADD14R,0.05118X0.02756*%
%ADD15O,0.03347X0.01102*%
%ADD16O,0.01102X0.03347*%
%ADD17R,0.06693X0.06693*%
%ADD18R,0.16535X0.16535*%
%ADD19O,0.02900X0.01100*%
%ADD20O,0.01100X0.02900*%
%ADD21R,0.15748X0.15748*%
%ADD22R,0.17606X0.17606*%
%ADD23O,0.03347X0.01102*%
%ADD24O,0.01102X0.03347*%
%ADD25R,0.04724X0.04724*%
%ADD26R,0.04921X0.07874*%
%ADD27R,0.02756X0.03543*%
%ADD28R,0.02756X0.00984*%
%ADD29R,0.02402X0.08661*%
%ADD30R,0.05512X0.04331*%
%ADD31R,0.01181X0.01181*%
%ADD32R,0.01181X0.01181*%
%ADD33R,0.02362X0.01969*%
%ADD34R,0.01969X0.02362*%
%ADD35R,0.02756X0.03543*%
%ADD36R,0.03543X0.02756*%
%ADD37R,0.02992X0.09449*%
%ADD38R,0.04331X0.05512*%
%ADD39R,0.04724X0.04724*%
%ADD40R,0.07480X0.04331*%
%ADD41C,0.01200*%
%ADD42C,0.02000*%
%ADD43C,0.01000*%
%ADD44C,0.01500*%
%ADD45O,0.06299X0.04724*%
%ADD46C,0.04724*%
%ADD47R,0.06299X0.06299*%
%ADD48C,0.06299*%
%ADD49R,0.07480X0.07480*%
%ADD50C,0.07480*%
%ADD51C,0.02400*%
%ADD52C,0.03150*%
%ADD53C,0.04000*%
%ADD54O,0.08331X0.06756*%
%ADD55C,0.06756*%
G04:AMPARAMS|DCode=56|XSize=99.37mil|YSize=99.37mil|CornerRadius=0mil|HoleSize=0mil|Usage=FLASHONLY|Rotation=0.000|XOffset=0mil|YOffset=0mil|HoleType=Round|Shape=Relief|Width=10mil|Gap=10mil|Entries=4|*
%AMTHD56*
7,0,0,0.09937,0.07937,0.01000,45*
%
%ADD56THD56*%
%ADD57C,0.07937*%
G04:AMPARAMS|DCode=58|XSize=95.433mil|YSize=95.433mil|CornerRadius=0mil|HoleSize=0mil|Usage=FLASHONLY|Rotation=0.000|XOffset=0mil|YOffset=0mil|HoleType=Round|Shape=Relief|Width=10mil|Gap=10mil|Entries=4|*
%AMTHD58*
7,0,0,0.09543,0.07543,0.01000,45*
%
%ADD58THD58*%
%ADD59C,0.07543*%
G04:AMPARAMS|DCode=60|XSize=72mil|YSize=72mil|CornerRadius=0mil|HoleSize=0mil|Usage=FLASHONLY|Rotation=0.000|XOffset=0mil|YOffset=0mil|HoleType=Round|Shape=Relief|Width=10mil|Gap=10mil|Entries=4|*
%AMTHD60*
7,0,0,0.07200,0.05200,0.01000,45*
%
%ADD60THD60*%
%ADD61C,0.05200*%
D53*
X100000Y120500D02*
X120500Y100000D01*
X100000Y277000D02*
X100000Y120500D01*
X100000Y277000D02*
X120000Y297000D01*
X277000Y297000D01*
X297000Y277000D01*
Y121000D02*
Y277000D01*
X276000Y100000D02*
X297000Y121000D01*
X120500Y100000D02*
X276000D01*
D54*
X104362Y201772D02*
D03*
Y173228D02*
D03*
D55*
X114795Y177953D02*
D03*
Y197047D02*
D03*
D56*
X112000Y141500D02*
D03*
D57*
Y153500D02*
D03*
X104000Y147500D02*
D03*
D58*
X272000Y181000D02*
D03*
D59*
Y191000D02*
D03*
D60*
X129532Y144968D02*
D03*
X129532Y141032D02*
D03*
X133468Y141032D02*
D03*
X133468Y144968D02*
D03*
X247532Y232000D02*
D03*
Y220000D02*
D03*
X235531Y232000D02*
D03*
Y220000D02*
D03*
Y226000D02*
D03*
X247532D02*
D03*
X241531Y232000D02*
D03*
Y220000D02*
D03*
Y226000D02*
D03*
X211500Y159000D02*
D03*
X199500D02*
D03*
X205500Y165000D02*
D03*
Y153000D02*
D03*
Y159000D02*
D03*
X211500Y165000D02*
D03*
Y153000D02*
D03*
X199500D02*
D03*
Y165000D02*
D03*
X169000Y216500D02*
D03*
Y229500D02*
D03*
X182000D02*
D03*
Y216500D02*
D03*
X175500D02*
D03*
Y223000D02*
D03*
Y229500D02*
D03*
X182000Y223000D02*
D03*
X169000D02*
D03*
X257000Y180000D02*
D03*
X234500Y168500D02*
D03*
X230968Y152032D02*
D03*
X238500Y167500D02*
D03*
X243032Y170468D02*
D03*
X252532Y159031D02*
D03*
X243032Y153032D02*
D03*
X232000Y257500D02*
D03*
X232031Y253969D02*
D03*
X248468Y253969D02*
D03*
X205532Y246500D02*
D03*
X212032Y229000D02*
D03*
Y232000D02*
D03*
X146500Y129000D02*
D03*
X142000Y137500D02*
D03*
X132500Y219500D02*
D03*
X141000Y218500D02*
D03*
X155000Y209000D02*
D03*
X223532Y247000D02*
D03*
X222579Y241500D02*
D03*
X224532Y124031D02*
D03*
X250500Y138000D02*
D03*
X221031Y137469D02*
D03*
X254031Y246500D02*
D03*
X277063Y248468D02*
D03*
X291531Y245500D02*
D03*
X132500Y178500D02*
D03*
X132500Y198500D02*
D03*
X275000Y131500D02*
D03*
X249000Y268500D02*
D03*
X244500Y265500D02*
D03*
X224500Y173500D02*
D03*
X155000Y200000D02*
D03*
X222000Y179500D02*
D03*
X191969Y202031D02*
D03*
X143500Y230500D02*
D03*
Y227500D02*
D03*
X152000Y160500D02*
D03*
X132500Y227500D02*
D03*
X130500Y205500D02*
D03*
Y248000D02*
D03*
Y262000D02*
D03*
Y268000D02*
D03*
X204000Y266000D02*
D03*
X209500D02*
D03*
X215000D02*
D03*
X220500D02*
D03*
X226000D02*
D03*
X231500D02*
D03*
X236000D02*
D03*
Y261500D02*
D03*
X231500D02*
D03*
X244500Y260500D02*
D03*
X253000Y266500D02*
D03*
X258000D02*
D03*
X263500D02*
D03*
X269000D02*
D03*
X274500D02*
D03*
X280000D02*
D03*
X285500D02*
D03*
X291000D02*
D03*
X258000Y250500D02*
D03*
X257500Y256500D02*
D03*
X253000Y253000D02*
D03*
X263500Y261500D02*
D03*
X274500D02*
D03*
X280000D02*
D03*
X285500D02*
D03*
X291000D02*
D03*
X269000D02*
D03*
X258000D02*
D03*
X257000Y169000D02*
D03*
Y174500D02*
D03*
X252000Y169000D02*
D03*
X251500Y180000D02*
D03*
X245500D02*
D03*
X240000D02*
D03*
X234500D02*
D03*
Y174000D02*
D03*
X257000Y157000D02*
D03*
Y151500D02*
D03*
Y146000D02*
D03*
Y140500D02*
D03*
X251500Y151500D02*
D03*
X130500Y255000D02*
D03*
X189500Y243500D02*
D03*
X172500Y265000D02*
D03*
X156500Y244969D02*
D03*
X263000Y236500D02*
D03*
X273488Y237988D02*
D03*
X264000Y198000D02*
D03*
X254500Y214000D02*
D03*
X157500Y179500D02*
D03*
X172500Y192500D02*
D03*
X181500Y182500D02*
D03*
Y168500D02*
D03*
X180500Y149000D02*
D03*
X213500Y136000D02*
D03*
X230000Y193000D02*
D03*
Y200000D02*
D03*
X214000Y210500D02*
D03*
Y201000D02*
D03*
X136157Y212869D02*
D03*
X132500Y215000D02*
D03*
D61*
X110000Y133000D02*
D03*
X118000Y129500D02*
D03*
X222500Y176000D02*
D03*
X189000Y173000D02*
D03*
X198500Y178500D02*
D03*
X170500Y245500D02*
D03*
X192000Y234500D02*
D03*
X227500Y152000D02*
D03*
X224000Y145500D02*
D03*
X223650Y214150D02*
D03*
X214469Y249969D02*
D03*
X166642Y206610D02*
D03*
X230000Y166500D02*
D03*
X169000Y171000D02*
D03*
X151000Y213000D02*
D03*
X232031Y250000D02*
D03*
X248532D02*
D03*
X245000Y132000D02*
D03*
X244500Y123500D02*
D03*
X161500Y173500D02*
D03*
X159500Y152500D02*
D03*
X194500Y147500D02*
D03*
X139953Y180047D02*
D03*
X148031Y203532D02*
D03*
X203000Y223000D02*
D03*
X198000Y221000D02*
D03*
X202500Y229000D02*
D03*
X184890Y206610D02*
D03*
X177000Y195500D02*
D03*
X179000Y198500D02*
D03*
Y202000D02*
D03*
X187500Y198000D02*
D03*
X184000D02*
D03*
X157500Y143634D02*
D03*
X163000Y144000D02*
D03*
X215000Y219000D02*
D03*
Y214000D02*
D03*
X206000Y183300D02*
D03*
X173000Y180000D02*
D03*
X147500Y166189D02*
D03*
X148000Y161000D02*
D03*
X149858Y179642D02*
D03*
X145000Y195500D02*
D03*
X134500Y206000D02*
D03*
X134000Y210500D02*
D03*
X147500Y199000D02*
D03*
X145500Y207500D02*
D03*
X249000Y259000D02*
D03*
X258032Y236000D02*
D03*
X151500Y233500D02*
D03*
X133709Y270630D02*
D03*
X139500Y263500D02*
D03*
X143370Y260382D02*
D03*
X168610Y238890D02*
D03*
X160000Y243000D02*
D03*
X173500Y250000D02*
D03*
X166500Y253000D02*
D03*
X162500Y265454D02*
D03*
X148370Y264870D02*
D03*
X177500Y245500D02*
D03*
X181000Y247500D02*
D03*
X152000Y262500D02*
D03*
X183000Y259000D02*
D03*
X171953Y269047D02*
D03*
X182000Y254500D02*
D03*
X181000Y276500D02*
D03*
X223018Y227000D02*
D03*
X223118Y222800D02*
D03*
X226500Y228000D02*
D03*
X280000Y201500D02*
D03*
X294500Y206000D02*
D03*
X271000Y206000D02*
D03*
X289500Y238500D02*
D03*
X229000Y211500D02*
D03*
X265600Y227900D02*
D03*
X283500Y229500D02*
D03*
X260469Y217969D02*
D03*
X260963Y221168D02*
D03*
X283500Y224000D02*
D03*
X268500Y210500D02*
D03*
X250000D02*
D03*
X253000Y207500D02*
D03*
X283000Y219500D02*
D03*
Y214500D02*
D03*
X240000Y204000D02*
D03*
X246000Y207500D02*
D03*
X242000Y199500D02*
D03*
X207000Y189500D02*
D03*
X210000Y193500D02*
D03*
X202000Y178500D02*
D03*
X205500Y178500D02*
D03*
X204500Y186500D02*
D03*
X255000Y194500D02*
D03*
Y184500D02*
D03*
X183000Y121000D02*
D03*
X185000Y126000D02*
D03*
X187500Y157500D02*
D03*
Y153500D02*
D03*
X179000Y121000D02*
D03*
X198000Y128500D02*
D03*
X187500Y149500D02*
D03*
X179000Y175000D02*
D03*
X203000Y126000D02*
D03*
X196500Y144500D02*
D03*
X199500Y142636D02*
D03*
X203000Y143000D02*
D03*
X207000Y144500D02*
D03*
X193000Y128500D02*
D03*
X216000Y131000D02*
D03*
X212500Y124500D02*
D03*
X170500Y144000D02*
D03*
X188500Y143000D02*
D03*
X177000D02*
D03*
X192000Y220000D02*
D03*
M02*
