%FSLAX25Y25*%
%MOIN*%
G70*
G01*
G75*
G04 Layer_Color=16711935*
%ADD10R,0.05512X0.04724*%
%ADD11R,0.04331X0.07480*%
%ADD12R,0.05315X0.01575*%
%ADD13R,0.09449X0.02992*%
%ADD14R,0.05118X0.02756*%
%ADD15O,0.03347X0.01102*%
%ADD16O,0.01102X0.03347*%
%ADD17R,0.06693X0.06693*%
%ADD18R,0.16535X0.16535*%
%ADD19O,0.02900X0.01100*%
%ADD20O,0.01100X0.02900*%
%ADD21R,0.15748X0.15748*%
%ADD22R,0.17606X0.17606*%
%ADD23O,0.03347X0.01102*%
%ADD24O,0.01102X0.03347*%
%ADD25R,0.04724X0.04724*%
%ADD26R,0.04921X0.07874*%
%ADD27R,0.02756X0.03543*%
%ADD28R,0.02756X0.00984*%
%ADD29R,0.02402X0.08661*%
%ADD30R,0.05512X0.04331*%
%ADD31R,0.01181X0.01181*%
%ADD32R,0.01181X0.01181*%
%ADD33R,0.02362X0.01969*%
%ADD34R,0.01969X0.02362*%
%ADD35R,0.02756X0.03543*%
%ADD36R,0.03543X0.02756*%
%ADD37R,0.02992X0.09449*%
%ADD38R,0.04331X0.05512*%
%ADD39R,0.04724X0.04724*%
%ADD40R,0.07480X0.04331*%
%ADD41C,0.01200*%
%ADD42C,0.02000*%
%ADD43C,0.01000*%
%ADD44C,0.01500*%
%ADD45O,0.06299X0.04724*%
%ADD46C,0.04724*%
%ADD47R,0.06299X0.06299*%
%ADD48C,0.06299*%
%ADD49R,0.07480X0.07480*%
%ADD50C,0.07480*%
%ADD51C,0.02400*%
%ADD52C,0.03150*%
%ADD53C,0.04000*%
%ADD54O,0.08331X0.06756*%
%ADD55C,0.06756*%
G04:AMPARAMS|DCode=56|XSize=99.37mil|YSize=99.37mil|CornerRadius=0mil|HoleSize=0mil|Usage=FLASHONLY|Rotation=0.000|XOffset=0mil|YOffset=0mil|HoleType=Round|Shape=Relief|Width=10mil|Gap=10mil|Entries=4|*
%AMTHD56*
7,0,0,0.09937,0.07937,0.01000,45*
%
%ADD56THD56*%
%ADD57C,0.07937*%
G04:AMPARAMS|DCode=58|XSize=95.433mil|YSize=95.433mil|CornerRadius=0mil|HoleSize=0mil|Usage=FLASHONLY|Rotation=0.000|XOffset=0mil|YOffset=0mil|HoleType=Round|Shape=Relief|Width=10mil|Gap=10mil|Entries=4|*
%AMTHD58*
7,0,0,0.09543,0.07543,0.01000,45*
%
%ADD58THD58*%
%ADD59C,0.07543*%
G04:AMPARAMS|DCode=60|XSize=72mil|YSize=72mil|CornerRadius=0mil|HoleSize=0mil|Usage=FLASHONLY|Rotation=0.000|XOffset=0mil|YOffset=0mil|HoleType=Round|Shape=Relief|Width=10mil|Gap=10mil|Entries=4|*
%AMTHD60*
7,0,0,0.07200,0.05200,0.01000,45*
%
%ADD60THD60*%
%ADD61C,0.05200*%
%ADD62C,0.00984*%
%ADD63C,0.00394*%
%ADD64C,0.00315*%
%ADD65C,0.00787*%
%ADD66C,0.00500*%
%ADD67R,0.02756X0.02756*%
%ADD68R,0.02756X0.02756*%
%ADD69R,0.05039X0.04252*%
%ADD70R,0.09370X0.02913*%
%ADD71O,0.03150X0.00906*%
%ADD72O,0.00906X0.03150*%
%ADD73O,0.02920X0.01120*%
%ADD74O,0.01120X0.02920*%
%ADD75R,0.15348X0.15348*%
%ADD76O,0.00700X0.02500*%
%ADD77O,0.02500X0.00700*%
%ADD78R,0.02913X0.09370*%
%ADD79R,0.05906X0.05118*%
%ADD80R,0.05131X0.08280*%
%ADD81R,0.06115X0.02375*%
%ADD82R,0.09528X0.03071*%
%ADD83R,0.05918X0.03556*%
%ADD84O,0.03898X0.01654*%
%ADD85O,0.01654X0.03898*%
%ADD86R,0.07244X0.07244*%
%ADD87O,0.03700X0.01900*%
%ADD88O,0.01900X0.03700*%
%ADD89R,0.16548X0.16548*%
%ADD90R,0.18709X0.18709*%
%ADD91O,0.04449X0.02205*%
%ADD92O,0.02205X0.04449*%
%ADD93R,0.05524X0.05524*%
%ADD94R,0.05709X0.08661*%
%ADD95R,0.03556X0.04343*%
%ADD96R,0.03556X0.01784*%
%ADD97R,0.03202X0.09461*%
%ADD98R,0.06312X0.05131*%
%ADD99R,0.03162X0.02769*%
%ADD100R,0.02769X0.03162*%
%ADD101R,0.03556X0.04343*%
%ADD102R,0.04343X0.03556*%
%ADD103R,0.03071X0.09528*%
%ADD104R,0.05131X0.06312*%
%ADD105R,0.05524X0.05524*%
%ADD106R,0.08280X0.05131*%
%ADD107O,0.07099X0.05524*%
%ADD108C,0.05524*%
%ADD109R,0.07099X0.07099*%
%ADD110C,0.07099*%
%ADD111R,0.08280X0.08280*%
%ADD112C,0.08280*%
%ADD113C,0.03200*%
%ADD114C,0.00100*%
%ADD115C,0.00010*%
D63*
X130811Y145658D02*
G03*
X130811Y145658I-1969J0D01*
G01*
X166457Y150398D02*
Y162602D01*
X173543Y150398D02*
Y162602D01*
X166457D02*
X173543D01*
X166457Y150398D02*
X173543D01*
X125299Y136799D02*
Y149201D01*
X137701Y136799D02*
Y149201D01*
X125299D02*
X137701D01*
X125299Y136799D02*
X137701D01*
X121653Y130630D02*
X128347D01*
X121653Y134370D02*
X128347D01*
Y130630D02*
Y134370D01*
X121653Y130630D02*
Y134370D01*
X157437Y165594D02*
Y177406D01*
X149563D02*
X157437D01*
X149563Y165594D02*
Y177406D01*
Y165594D02*
X157437D01*
X141646Y154831D02*
X147354D01*
X141646Y146169D02*
X147354D01*
Y154831D01*
X141646Y146169D02*
Y154831D01*
X150665Y220319D02*
Y222681D01*
X146335Y220319D02*
Y222681D01*
Y220319D02*
X150665D01*
X146335Y222681D02*
X150665D01*
X179319Y152335D02*
X181681D01*
X179319Y156665D02*
X181681D01*
X179319Y152335D02*
Y156665D01*
X181681Y152335D02*
Y156665D01*
X103654Y165630D02*
X110346D01*
X103654Y169370D02*
X110346D01*
Y165630D02*
Y169370D01*
X103654Y165630D02*
Y169370D01*
X172653Y256630D02*
X179347D01*
X172653Y260370D02*
X179347D01*
Y256630D02*
Y260370D01*
X172653Y256630D02*
Y260370D01*
X142130Y163154D02*
Y169846D01*
X145870Y163154D02*
Y169846D01*
X142130Y163154D02*
X145870D01*
X142130Y169846D02*
X145870D01*
X172653Y255870D02*
X179347D01*
X172653Y252130D02*
X179347D01*
X172653D02*
Y255870D01*
X179347Y252130D02*
Y255870D01*
X133646Y166169D02*
X139354D01*
X133646Y174831D02*
X139354D01*
X133646Y166169D02*
Y174831D01*
X139354Y166169D02*
Y174831D01*
X160319Y165835D02*
X162681D01*
X160319Y170165D02*
X162681D01*
X160319Y165835D02*
Y170165D01*
X162681Y165835D02*
Y170165D01*
X167654Y176870D02*
X174346D01*
X167654Y173130D02*
X174346D01*
X167654D02*
Y176870D01*
X174346Y173130D02*
Y176870D01*
X219819Y145835D02*
X222181D01*
X219819Y150165D02*
X222181D01*
X219819Y145835D02*
Y150165D01*
X222181Y145835D02*
Y150165D01*
X220819Y170665D02*
X223181D01*
X220819Y166335D02*
X223181D01*
Y170665D01*
X220819Y166335D02*
Y170665D01*
X212819Y179665D02*
X215181D01*
X212819Y175335D02*
X215181D01*
Y179665D01*
X212819Y175335D02*
Y179665D01*
X231165Y153319D02*
Y155681D01*
X226835Y153319D02*
Y155681D01*
Y153319D02*
X231165D01*
X226835Y155681D02*
X231165D01*
X223319Y170665D02*
X225681D01*
X223319Y166335D02*
X225681D01*
Y170665D01*
X223319Y166335D02*
Y170665D01*
X209819Y179665D02*
X212181D01*
X209819Y175335D02*
X212181D01*
Y179665D01*
X209819Y175335D02*
Y179665D01*
X183646Y183831D02*
X189354D01*
X183646Y175169D02*
X189354D01*
Y183831D01*
X183646Y175169D02*
Y183831D01*
X210335Y181819D02*
Y184181D01*
X214665Y181819D02*
Y184181D01*
X210335D02*
X214665D01*
X210335Y181819D02*
X214665D01*
X210169Y185646D02*
Y191354D01*
X218831Y185646D02*
Y191354D01*
X210169D02*
X218831D01*
X210169Y185646D02*
X218831D01*
X234366Y151319D02*
Y153681D01*
X238697Y151319D02*
Y153681D01*
X234366D02*
X238697D01*
X234366Y151319D02*
X238697D01*
X238697Y157319D02*
Y159681D01*
X234366Y157319D02*
Y159681D01*
Y157319D02*
X238697D01*
X234366Y159681D02*
X238697D01*
X229350Y162165D02*
X231713D01*
X229350Y157835D02*
X231713D01*
Y162165D01*
X229350Y157835D02*
Y162165D01*
X247197Y163319D02*
Y165681D01*
X242866Y163319D02*
Y165681D01*
Y163319D02*
X247197D01*
X242866Y165681D02*
X247197D01*
X242835Y154319D02*
Y156681D01*
X247165Y154319D02*
Y156681D01*
X242835D02*
X247165D01*
X242835Y154319D02*
X247165D01*
X256665Y160319D02*
Y162681D01*
X252335Y160319D02*
Y162681D01*
Y160319D02*
X256665D01*
X252335Y162681D02*
X256665D01*
X238697Y163319D02*
Y165681D01*
X234366Y163319D02*
Y165681D01*
Y163319D02*
X238697D01*
X234366Y165681D02*
X238697D01*
X220835Y140819D02*
Y143181D01*
X225165Y140819D02*
Y143181D01*
X220835D02*
X225165D01*
X220835Y140819D02*
X225165D01*
X249319Y141835D02*
X251681D01*
X249319Y146165D02*
X251681D01*
X249319Y141835D02*
Y146165D01*
X251681Y141835D02*
Y146165D01*
X227319Y135665D02*
X229681D01*
X227319Y131335D02*
X229681D01*
Y135665D01*
X227319Y131335D02*
Y135665D01*
X227319Y123835D02*
X229681D01*
X227319Y128165D02*
X229681D01*
X227319Y123835D02*
Y128165D01*
X229681Y123835D02*
Y128165D01*
X250197Y245319D02*
Y247681D01*
X245866Y245319D02*
Y247681D01*
Y245319D02*
X250197D01*
X245866Y247681D02*
X250197D01*
X226866Y245819D02*
Y248181D01*
X231197Y245819D02*
Y248181D01*
X226866D02*
X231197D01*
X226866Y245819D02*
X231197D01*
X226866Y240319D02*
Y242681D01*
X231197Y240319D02*
Y242681D01*
X226866D02*
X231197D01*
X226866Y240319D02*
X231197D01*
X214866Y230819D02*
Y233181D01*
X219197Y230819D02*
Y233181D01*
X214866D02*
X219197D01*
X214866Y230819D02*
X219197D01*
X261697Y237819D02*
Y240181D01*
X257366Y237819D02*
Y240181D01*
Y237819D02*
X261697D01*
X257366Y240181D02*
X261697D01*
X256819Y213835D02*
X259181D01*
X256819Y218165D02*
X259181D01*
X256819Y213835D02*
Y218165D01*
X259181Y213835D02*
Y218165D01*
X204201Y238146D02*
Y243854D01*
X212862Y238146D02*
Y243854D01*
X204201D02*
X212862D01*
X204201Y238146D02*
X212862D01*
X219197Y227819D02*
Y230181D01*
X214866Y227819D02*
Y230181D01*
Y227819D02*
X219197D01*
X214866Y230181D02*
X219197D01*
X220331Y221646D02*
Y227354D01*
X211669Y221646D02*
Y227354D01*
Y221646D02*
X220331D01*
X211669Y227354D02*
X220331D01*
X243850Y254165D02*
X246213D01*
X243850Y249835D02*
X246213D01*
Y254165D01*
X243850Y249835D02*
Y254165D01*
X240850Y246665D02*
X243213D01*
X240850Y242335D02*
X243213D01*
Y246665D01*
X240850Y242335D02*
Y246665D01*
X237850D02*
X240213D01*
X237850Y242335D02*
X240213D01*
Y246665D01*
X237850Y242335D02*
Y246665D01*
Y254165D02*
X240213D01*
X237850Y249835D02*
X240213D01*
Y254165D01*
X237850Y249835D02*
Y254165D01*
X235866Y256319D02*
Y258681D01*
X240197Y256319D02*
Y258681D01*
X235866D02*
X240197D01*
X235866Y256319D02*
X240197D01*
X244697Y267319D02*
Y269681D01*
X240366Y267319D02*
Y269681D01*
Y267319D02*
X244697D01*
X240366Y269681D02*
X244697D01*
X272697Y244319D02*
Y246681D01*
X268366Y244319D02*
Y246681D01*
Y244319D02*
X272697D01*
X268366Y246681D02*
X272697D01*
X260366Y244319D02*
Y246681D01*
X264697Y244319D02*
Y246681D01*
X260366D02*
X264697D01*
X260366Y244319D02*
X264697D01*
X276866D02*
Y246681D01*
X281197Y244319D02*
Y246681D01*
X276866D02*
X281197D01*
X276866Y244319D02*
X281197D01*
X288697Y244319D02*
Y246681D01*
X284366Y244319D02*
Y246681D01*
Y244319D02*
X288697D01*
X284366Y246681D02*
X288697D01*
X131319Y190835D02*
X133681D01*
X131319Y195165D02*
X133681D01*
X131319Y190835D02*
Y195165D01*
X133681Y190835D02*
Y195165D01*
X131319Y186165D02*
X133681D01*
X131319Y181835D02*
X133681D01*
Y186165D01*
X131319Y181835D02*
Y186165D01*
X146835Y229319D02*
Y231681D01*
X151165Y229319D02*
Y231681D01*
X146835D02*
X151165D01*
X146835Y229319D02*
X151165D01*
X156819Y211835D02*
X159181D01*
X156819Y216165D02*
X159181D01*
X156819Y211835D02*
Y216165D01*
X159181Y211835D02*
Y216165D01*
X153819Y211835D02*
X156181D01*
X153819Y216165D02*
X156181D01*
X153819Y211835D02*
Y216165D01*
X156181Y211835D02*
Y216165D01*
X161819Y243665D02*
X164181D01*
X161819Y239335D02*
X164181D01*
Y243665D01*
X161819Y239335D02*
Y243665D01*
X163319Y200335D02*
X165681D01*
X163319Y204665D02*
X165681D01*
X163319Y200335D02*
Y204665D01*
X165681Y200335D02*
Y204665D01*
X192165Y203819D02*
Y206181D01*
X187835Y203819D02*
Y206181D01*
Y203819D02*
X192165D01*
X187835Y206181D02*
X192165D01*
X139669Y210146D02*
Y215854D01*
X148331Y210146D02*
Y215854D01*
X139669D02*
X148331D01*
X139669Y210146D02*
X148331D01*
X154335Y222819D02*
Y225181D01*
X158665Y222819D02*
Y225181D01*
X154335D02*
X158665D01*
X154335Y222819D02*
X158665D01*
X146835Y223319D02*
Y225681D01*
X151165Y223319D02*
Y225681D01*
X146835D02*
X151165D01*
X146835Y223319D02*
X151165D01*
X134819Y219335D02*
X137181D01*
X134819Y223665D02*
X137181D01*
X134819Y219335D02*
Y223665D01*
X137181Y219335D02*
Y223665D01*
X154335Y219819D02*
Y222181D01*
X158665Y219819D02*
Y222181D01*
X154335D02*
X158665D01*
X154335Y219819D02*
X158665D01*
X146335Y217319D02*
Y219681D01*
X150665Y217319D02*
Y219681D01*
X146335D02*
X150665D01*
X146335Y217319D02*
X150665D01*
X129319Y242665D02*
X131681D01*
X129319Y238335D02*
X131681D01*
Y242665D01*
X129319Y238335D02*
Y242665D01*
X151819Y245165D02*
X154181D01*
X151819Y240835D02*
X154181D01*
Y245165D01*
X151819Y240835D02*
Y245165D01*
X167819Y188835D02*
X170181D01*
X167819Y193165D02*
X170181D01*
X167819Y188835D02*
Y193165D01*
X170181Y188835D02*
Y193165D01*
X166319Y198835D02*
X168681D01*
X166319Y203165D02*
X168681D01*
X166319Y198835D02*
Y203165D01*
X168681Y198835D02*
Y203165D01*
X190819Y212165D02*
X193181D01*
X190819Y207835D02*
X193181D01*
Y212165D01*
X190819Y207835D02*
Y212165D01*
X194146Y213331D02*
X199854D01*
X194146Y204669D02*
X199854D01*
Y213331D01*
X194146Y204669D02*
Y213331D01*
X157819Y156335D02*
X160181D01*
X157819Y160665D02*
X160181D01*
X157819Y156335D02*
Y160665D01*
X160181Y156335D02*
Y160665D01*
X179165Y144819D02*
Y147181D01*
X174835Y144819D02*
Y147181D01*
Y144819D02*
X179165D01*
X174835Y147181D02*
X179165D01*
X132831Y158646D02*
Y164354D01*
X124169Y158646D02*
Y164354D01*
Y158646D02*
X132831D01*
X124169Y164354D02*
X132831D01*
X113331Y125146D02*
Y130854D01*
X104669Y125146D02*
Y130854D01*
Y125146D02*
X113331D01*
X104669Y130854D02*
X113331D01*
X189165Y168319D02*
Y170681D01*
X184835Y168319D02*
Y170681D01*
Y168319D02*
X189165D01*
X184835Y170681D02*
X189165D01*
X234366Y154319D02*
Y156681D01*
X238697Y154319D02*
Y156681D01*
X234366D02*
X238697D01*
X234366Y154319D02*
X238697D01*
X223335Y157319D02*
Y159681D01*
X227665Y157319D02*
Y159681D01*
X223335D02*
X227665D01*
X223335Y157319D02*
X227665D01*
X242866Y157319D02*
Y159681D01*
X247197Y157319D02*
Y159681D01*
X242866D02*
X247197D01*
X242866Y157319D02*
X247197D01*
X247197Y160319D02*
Y162681D01*
X242866Y160319D02*
Y162681D01*
Y160319D02*
X247197D01*
X242866Y162681D02*
X247197D01*
X252335Y163319D02*
Y165681D01*
X256665Y163319D02*
Y165681D01*
X252335D02*
X256665D01*
X252335Y163319D02*
X256665D01*
X223335Y160319D02*
Y162681D01*
X227665Y160319D02*
Y162681D01*
X223335D02*
X227665D01*
X223335Y160319D02*
X227665D01*
X234366Y160319D02*
Y162681D01*
X238697Y160319D02*
Y162681D01*
X234366D02*
X238697D01*
X234366Y160319D02*
X238697D01*
X247165Y166319D02*
Y168681D01*
X242835Y166319D02*
Y168681D01*
Y166319D02*
X247165D01*
X242835Y168681D02*
X247165D01*
X210350Y245835D02*
X212713D01*
X210350Y250165D02*
X212713D01*
X210350Y245835D02*
Y250165D01*
X212713Y245835D02*
Y250165D01*
X240850Y249835D02*
X243213D01*
X240850Y254165D02*
X243213D01*
X240850Y249835D02*
Y254165D01*
X243213Y249835D02*
Y254165D01*
X239350Y261335D02*
X241713D01*
X239350Y265665D02*
X241713D01*
X239350Y261335D02*
Y265665D01*
X241713Y261335D02*
Y265665D01*
X234850Y249835D02*
X237213D01*
X234850Y254165D02*
X237213D01*
X234850Y249835D02*
Y254165D01*
X237213Y249835D02*
Y254165D01*
X149319Y207665D02*
X151681D01*
X149319Y203335D02*
X151681D01*
Y207665D01*
X149319Y203335D02*
Y207665D01*
X151165Y226319D02*
Y228681D01*
X146835Y226319D02*
Y228681D01*
Y226319D02*
X151165D01*
X146835Y228681D02*
X151165D01*
X143165Y222319D02*
Y224681D01*
X138835Y222319D02*
Y224681D01*
Y222319D02*
X143165D01*
X138835Y224681D02*
X143165D01*
X133165Y222319D02*
Y224681D01*
X128835Y222319D02*
Y224681D01*
Y222319D02*
X133165D01*
X128835Y224681D02*
X133165D01*
X171153Y138630D02*
X177847D01*
X171153Y142370D02*
X177847D01*
Y138630D02*
Y142370D01*
X171153Y138630D02*
Y142370D01*
X249153Y129630D02*
X255847D01*
X249153Y133370D02*
X255847D01*
Y129630D02*
Y133370D01*
X249153Y129630D02*
Y133370D01*
Y121630D02*
X255847D01*
X249153Y125370D02*
X255847D01*
Y121630D02*
Y125370D01*
X249153Y121630D02*
Y125370D01*
X189654Y272370D02*
X196346D01*
X189654Y268630D02*
X196346D01*
X189654D02*
Y272370D01*
X196346Y268630D02*
Y272370D01*
X189654Y266870D02*
X196346D01*
X189654Y263130D02*
X196346D01*
X189654D02*
Y266870D01*
X196346Y263130D02*
Y266870D01*
X165654Y274370D02*
X172346D01*
X165654Y270630D02*
X172346D01*
X165654D02*
Y274370D01*
X172346Y270630D02*
Y274370D01*
X274153Y204130D02*
X280847D01*
X274153Y207870D02*
X280847D01*
Y204130D02*
Y207870D01*
X274153Y204130D02*
Y207870D01*
X237154Y193130D02*
X243847D01*
X237154Y196870D02*
X243847D01*
Y193130D02*
Y196870D01*
X237154Y193130D02*
Y196870D01*
Y188630D02*
X243847D01*
X237154Y192370D02*
X243847D01*
Y188630D02*
Y192370D01*
X237154Y188630D02*
Y192370D01*
X161653Y177630D02*
X168347D01*
X161653Y181370D02*
X168347D01*
Y177630D02*
Y181370D01*
X161653Y177630D02*
Y181370D01*
X214130Y120653D02*
Y127347D01*
X217870Y120653D02*
Y127347D01*
X214130Y120653D02*
X217870D01*
X214130Y127347D02*
X217870D01*
X216630Y173153D02*
Y179847D01*
X220370Y173153D02*
Y179847D01*
X216630Y173153D02*
X220370D01*
X216630Y179847D02*
X220370D01*
X284653Y204130D02*
X291347D01*
X284653Y207870D02*
X291347D01*
Y204130D02*
Y207870D01*
X284653Y204130D02*
Y207870D01*
X218185Y235630D02*
X224878D01*
X218185Y239370D02*
X224878D01*
Y235630D02*
Y239370D01*
X218185Y235630D02*
Y239370D01*
X168370Y243154D02*
Y249847D01*
X164630Y243154D02*
Y249847D01*
X168370D01*
X164630Y243154D02*
X168370D01*
X134630Y179654D02*
Y186346D01*
X138370Y179654D02*
Y186346D01*
X134630Y179654D02*
X138370D01*
X134630Y186346D02*
X138370D01*
X122653Y184130D02*
X129347D01*
X122653Y187870D02*
X129347D01*
Y184130D02*
Y187870D01*
X122653Y184130D02*
Y187870D01*
Y189130D02*
X129347D01*
X122653Y192870D02*
X129347D01*
Y189130D02*
Y192870D01*
X122653Y189130D02*
Y192870D01*
X161870Y201153D02*
Y207846D01*
X158130Y201153D02*
Y207846D01*
X161870D01*
X158130Y201153D02*
X161870D01*
X174130Y125154D02*
Y131846D01*
X177870Y125154D02*
Y131846D01*
X174130Y125154D02*
X177870D01*
X174130Y131846D02*
X177870D01*
X154870Y147653D02*
Y154347D01*
X151130Y147653D02*
Y154347D01*
X154870D01*
X151130Y147653D02*
X154870D01*
X168630Y125154D02*
Y131846D01*
X172370Y125154D02*
Y131846D01*
X168630Y125154D02*
X172370D01*
X168630Y131846D02*
X172370D01*
X140130Y125654D02*
Y132346D01*
X143870Y125654D02*
Y132346D01*
X140130Y125654D02*
X143870D01*
X140130Y132346D02*
X143870D01*
X131154Y124630D02*
X137847D01*
X131154Y128370D02*
X137847D01*
Y124630D02*
Y128370D01*
X131154Y124630D02*
Y128370D01*
X121653Y129870D02*
X128347D01*
X121653Y126130D02*
X128347D01*
X121653D02*
Y129870D01*
X128347Y126130D02*
Y129870D01*
X168654Y168370D02*
X175347D01*
X168654Y164630D02*
X175347D01*
X168654D02*
Y168370D01*
X175347Y164630D02*
Y168370D01*
X178654Y166870D02*
X185346D01*
X178654Y163130D02*
X185346D01*
X178654D02*
Y166870D01*
X185346Y163130D02*
Y166870D01*
X117630Y145653D02*
Y152347D01*
X121370Y145653D02*
Y152347D01*
X117630Y145653D02*
X121370D01*
X117630Y152347D02*
X121370D01*
X136130Y153654D02*
Y160346D01*
X139870Y153654D02*
Y160346D01*
X136130Y153654D02*
X139870D01*
X136130Y160346D02*
X139870D01*
X103654Y161130D02*
X110346D01*
X103654Y164870D02*
X110346D01*
Y161130D02*
Y164870D01*
X103654Y161130D02*
Y164870D01*
X131154Y132870D02*
X137847D01*
X131154Y129130D02*
X137847D01*
X131154D02*
Y132870D01*
X137847Y129130D02*
Y132870D01*
M02*
