%FSLAX25Y25*%
%MOIN*%
G70*
G01*
G75*
G04 Layer_Physical_Order=4*
G04 Layer_Color=16711680*
%ADD10R,0.05512X0.04724*%
%ADD11R,0.04331X0.07480*%
%ADD12R,0.05315X0.01575*%
%ADD13R,0.09449X0.02992*%
%ADD14R,0.05118X0.02756*%
%ADD15O,0.03347X0.01102*%
%ADD16O,0.01102X0.03347*%
%ADD17R,0.06693X0.06693*%
%ADD18R,0.16535X0.16535*%
%ADD19O,0.02900X0.01100*%
%ADD20O,0.01100X0.02900*%
%ADD21R,0.15748X0.15748*%
%ADD22R,0.17606X0.17606*%
%ADD23O,0.03347X0.01102*%
%ADD24O,0.01102X0.03347*%
%ADD25R,0.04724X0.04724*%
%ADD26R,0.04921X0.07874*%
%ADD27R,0.02756X0.03543*%
%ADD28R,0.02756X0.00984*%
%ADD29R,0.02402X0.08661*%
%ADD30R,0.05512X0.04331*%
%ADD31R,0.01181X0.01181*%
%ADD32R,0.01181X0.01181*%
%ADD33R,0.02362X0.01969*%
%ADD34R,0.01969X0.02362*%
%ADD35R,0.02756X0.03543*%
%ADD36R,0.03543X0.02756*%
%ADD37R,0.02992X0.09449*%
%ADD38R,0.04331X0.05512*%
%ADD39R,0.04724X0.04724*%
%ADD40R,0.07480X0.04331*%
%ADD41C,0.01200*%
%ADD42C,0.02000*%
%ADD43C,0.01000*%
%ADD44C,0.01500*%
%ADD45O,0.06299X0.04724*%
%ADD46C,0.04724*%
%ADD47R,0.06299X0.06299*%
%ADD48C,0.06299*%
%ADD49R,0.07480X0.07480*%
%ADD50C,0.07480*%
%ADD51C,0.02400*%
%ADD52C,0.03150*%
%ADD53C,0.04000*%
%ADD54O,0.08331X0.06756*%
%ADD55C,0.06756*%
G04:AMPARAMS|DCode=56|XSize=99.37mil|YSize=99.37mil|CornerRadius=0mil|HoleSize=0mil|Usage=FLASHONLY|Rotation=0.000|XOffset=0mil|YOffset=0mil|HoleType=Round|Shape=Relief|Width=10mil|Gap=10mil|Entries=4|*
%AMTHD56*
7,0,0,0.09937,0.07937,0.01000,45*
%
%ADD56THD56*%
%ADD57C,0.07937*%
G04:AMPARAMS|DCode=58|XSize=95.433mil|YSize=95.433mil|CornerRadius=0mil|HoleSize=0mil|Usage=FLASHONLY|Rotation=0.000|XOffset=0mil|YOffset=0mil|HoleType=Round|Shape=Relief|Width=10mil|Gap=10mil|Entries=4|*
%AMTHD58*
7,0,0,0.09543,0.07543,0.01000,45*
%
%ADD58THD58*%
%ADD59C,0.07543*%
G04:AMPARAMS|DCode=60|XSize=72mil|YSize=72mil|CornerRadius=0mil|HoleSize=0mil|Usage=FLASHONLY|Rotation=0.000|XOffset=0mil|YOffset=0mil|HoleType=Round|Shape=Relief|Width=10mil|Gap=10mil|Entries=4|*
%AMTHD60*
7,0,0,0.07200,0.05200,0.01000,45*
%
%ADD60THD60*%
%ADD61C,0.05200*%
G36*
X126777Y204123D02*
Y197000D01*
X126870Y196532D01*
X127135Y196135D01*
X141108Y182162D01*
X140789Y181774D01*
X140694Y181837D01*
X139953Y181984D01*
X139211Y181837D01*
X138583Y181417D01*
X138163Y180789D01*
X138015Y180047D01*
X138163Y179306D01*
X138583Y178677D01*
X139211Y178258D01*
X139953Y178110D01*
X140694Y178258D01*
X141323Y178677D01*
X141743Y179306D01*
X141890Y180047D01*
X141743Y180789D01*
X141679Y180884D01*
X142068Y181202D01*
X143777Y179493D01*
Y168689D01*
X143870Y168221D01*
X144135Y167824D01*
X145597Y166362D01*
X145563Y166189D01*
X145697Y165513D01*
X145618Y165275D01*
X145478Y165013D01*
X122289D01*
X121821Y164919D01*
X121424Y164654D01*
X113723Y156953D01*
X113005Y157250D01*
X112000Y157383D01*
X110995Y157250D01*
X110059Y156863D01*
X109254Y156246D01*
X108637Y155441D01*
X108249Y154505D01*
X108117Y153500D01*
X108249Y152495D01*
X108637Y151559D01*
X109254Y150754D01*
X110059Y150137D01*
X110995Y149750D01*
X112000Y149617D01*
X113005Y149750D01*
X113941Y150137D01*
X114746Y150754D01*
X115363Y151559D01*
X115751Y152495D01*
X115883Y153500D01*
X115751Y154505D01*
X115453Y155223D01*
X122796Y162566D01*
X146160D01*
X146427Y162065D01*
X146210Y161741D01*
X146063Y161000D01*
X146210Y160259D01*
X146630Y159630D01*
X147259Y159210D01*
X148000Y159063D01*
X148173Y159097D01*
X155635Y151635D01*
X155873Y151476D01*
X156032Y151370D01*
X156500Y151277D01*
X158032D01*
X158130Y151130D01*
X158759Y150710D01*
X159500Y150563D01*
X160241Y150710D01*
X160870Y151130D01*
X161290Y151759D01*
X161437Y152500D01*
X161290Y153241D01*
X160870Y153870D01*
X160241Y154290D01*
X159500Y154437D01*
X158759Y154290D01*
X158130Y153870D01*
X158032Y153724D01*
X157007D01*
X152788Y157943D01*
X152949Y158488D01*
X153586Y158914D01*
X154072Y159642D01*
X154144Y160000D01*
X152000D01*
Y161000D01*
X154144D01*
X154072Y161358D01*
X153586Y162086D01*
X152858Y162572D01*
X152803Y163093D01*
X152865Y163135D01*
X161327Y171597D01*
X161500Y171563D01*
X162241Y171710D01*
X162870Y172130D01*
X162968Y172276D01*
X166500D01*
X166968Y172370D01*
X167078Y172443D01*
X167438Y172082D01*
X167210Y171741D01*
X167063Y171000D01*
X167210Y170259D01*
X167630Y169630D01*
X168259Y169210D01*
X169000Y169063D01*
X169741Y169210D01*
X170370Y169630D01*
X170790Y170259D01*
X170937Y171000D01*
X170790Y171741D01*
X170370Y172370D01*
X169741Y172790D01*
X169000Y172937D01*
X168259Y172790D01*
X168164Y172726D01*
X167845Y173115D01*
X172827Y178097D01*
X173000Y178063D01*
X173741Y178210D01*
X174370Y178630D01*
X174790Y179259D01*
X174937Y180000D01*
X174903Y180173D01*
X180750Y186020D01*
X181569Y185200D01*
X181349Y184713D01*
X180642Y184572D01*
X179914Y184086D01*
X179428Y183358D01*
X179356Y183000D01*
X181500D01*
Y182500D01*
X182000D01*
Y180356D01*
X182358Y180428D01*
X183086Y180914D01*
X183572Y181642D01*
X183713Y182349D01*
X184200Y182569D01*
X198799Y167971D01*
X198634Y167428D01*
X198202Y167249D01*
X197664Y166836D01*
X197251Y166298D01*
X196992Y165672D01*
X196969Y165500D01*
X199500D01*
Y165000D01*
X200000D01*
Y162469D01*
X200172Y162492D01*
X200799Y162751D01*
X201002Y162907D01*
X201502Y162660D01*
Y161340D01*
X201002Y161093D01*
X200799Y161249D01*
X200172Y161509D01*
X200000Y161531D01*
Y159000D01*
X199000D01*
Y161531D01*
X198828Y161509D01*
X198202Y161249D01*
X197664Y160836D01*
X197251Y160299D01*
X196992Y159672D01*
X196954Y159385D01*
X196433Y159263D01*
X196365Y159365D01*
X180903Y174827D01*
X180937Y175000D01*
X180790Y175741D01*
X180370Y176370D01*
X179741Y176790D01*
X179000Y176937D01*
X178259Y176790D01*
X177630Y176370D01*
X177210Y175741D01*
X177063Y175000D01*
X177210Y174259D01*
X177630Y173630D01*
X178259Y173210D01*
X179000Y173063D01*
X179173Y173097D01*
X181097Y171173D01*
X180932Y170630D01*
X180642Y170572D01*
X179914Y170086D01*
X179428Y169358D01*
X179356Y169000D01*
X181500D01*
Y168500D01*
X182000D01*
Y166356D01*
X182358Y166428D01*
X183086Y166914D01*
X183572Y167642D01*
X183630Y167932D01*
X184173Y168097D01*
X194276Y157993D01*
Y149894D01*
X194370Y149426D01*
X194363Y149410D01*
X193759Y149290D01*
X193130Y148870D01*
X192710Y148241D01*
X192563Y147500D01*
X192710Y146759D01*
X193130Y146130D01*
X193759Y145710D01*
X194344Y145594D01*
X194571Y145375D01*
X194680Y145089D01*
X194563Y144500D01*
X194710Y143759D01*
X195130Y143130D01*
X195276Y143032D01*
Y130000D01*
X195370Y129532D01*
X195635Y129135D01*
X196097Y128673D01*
X196063Y128500D01*
X196210Y127759D01*
X196274Y127664D01*
X195885Y127345D01*
X194903Y128327D01*
X194937Y128500D01*
X194790Y129241D01*
X194370Y129870D01*
X193741Y130290D01*
X193000Y130437D01*
X192259Y130290D01*
X191630Y129870D01*
X191210Y129241D01*
X191063Y128500D01*
X191210Y127759D01*
X191630Y127130D01*
X192259Y126710D01*
X193000Y126563D01*
X193173Y126597D01*
X196884Y122885D01*
X196693Y122424D01*
X190307D01*
X186903Y125827D01*
X186937Y126000D01*
X186790Y126741D01*
X186370Y127370D01*
X185741Y127790D01*
X185000Y127937D01*
X184259Y127790D01*
X183630Y127370D01*
X183210Y126741D01*
X183063Y126000D01*
X183210Y125259D01*
X183630Y124630D01*
X184259Y124210D01*
X185000Y124063D01*
X185173Y124097D01*
X188184Y121085D01*
X187993Y120624D01*
X185322D01*
X184937Y121000D01*
X184790Y121741D01*
X184370Y122370D01*
X183741Y122790D01*
X183000Y122937D01*
X182259Y122790D01*
X181630Y122370D01*
X181278Y121842D01*
X181071Y121800D01*
X180929D01*
X180722Y121842D01*
X180370Y122370D01*
X180224Y122468D01*
Y140493D01*
X187327Y147597D01*
X187500Y147563D01*
X188241Y147710D01*
X188870Y148130D01*
X189290Y148759D01*
X189437Y149500D01*
X189290Y150241D01*
X188870Y150870D01*
X188342Y151222D01*
X188300Y151429D01*
Y151571D01*
X188342Y151778D01*
X188870Y152130D01*
X189290Y152759D01*
X189437Y153500D01*
X189290Y154241D01*
X188870Y154870D01*
X188342Y155222D01*
X188300Y155429D01*
Y155571D01*
X188342Y155778D01*
X188870Y156130D01*
X189290Y156759D01*
X189437Y157500D01*
X189290Y158241D01*
X188870Y158870D01*
X188241Y159290D01*
X187500Y159437D01*
X186759Y159290D01*
X186130Y158870D01*
X186032Y158723D01*
X176500D01*
X176032Y158630D01*
X175635Y158365D01*
X163173Y145903D01*
X163000Y145937D01*
X162259Y145790D01*
X161630Y145370D01*
X161210Y144741D01*
X161063Y144000D01*
X161197Y143324D01*
X161118Y143086D01*
X160978Y142824D01*
X160041D01*
X159403Y143461D01*
X159437Y143634D01*
X159290Y144375D01*
X158870Y145004D01*
X158241Y145424D01*
X157500Y145571D01*
X156759Y145424D01*
X156130Y145004D01*
X155710Y144375D01*
X155563Y143634D01*
X155710Y142893D01*
X156130Y142264D01*
X156759Y141844D01*
X157500Y141697D01*
X157673Y141731D01*
X158669Y140735D01*
X159066Y140470D01*
X159534Y140376D01*
X164600D01*
X165068Y140470D01*
X165465Y140735D01*
X168216Y143485D01*
X168694Y143340D01*
X168710Y143259D01*
X169130Y142630D01*
X169759Y142210D01*
X170500Y142063D01*
X171241Y142210D01*
X171870Y142630D01*
X172290Y143259D01*
X172437Y144000D01*
X172290Y144741D01*
X171870Y145370D01*
X171241Y145790D01*
X171160Y145806D01*
X171015Y146284D01*
X177007Y152277D01*
X186032D01*
X186130Y152130D01*
X186658Y151778D01*
X186700Y151571D01*
Y151429D01*
X186658Y151222D01*
X186130Y150870D01*
X185710Y150241D01*
X185563Y149500D01*
X185597Y149327D01*
X179418Y143148D01*
X178875Y143313D01*
X178790Y143741D01*
X178370Y144370D01*
X177741Y144790D01*
X177000Y144937D01*
X176259Y144790D01*
X175630Y144370D01*
X175210Y143741D01*
X175063Y143000D01*
X175210Y142259D01*
X175630Y141630D01*
X176259Y141210D01*
X177000Y141063D01*
X177291Y141121D01*
X177355Y141105D01*
X177777Y140707D01*
Y122468D01*
X177630Y122370D01*
X177210Y121741D01*
X177063Y121000D01*
X177085Y120887D01*
X176768Y120500D01*
X100000D01*
Y145791D01*
X100500Y145890D01*
X100637Y145559D01*
X101254Y144754D01*
X102059Y144137D01*
X102995Y143749D01*
X104000Y143617D01*
X105005Y143749D01*
X105941Y144137D01*
X106746Y144754D01*
X107350Y145543D01*
X107382Y145546D01*
X107403Y145548D01*
X107452Y145535D01*
X107538Y145512D01*
X107687Y145473D01*
X107745Y145457D01*
X107746Y145457D01*
X107808Y145441D01*
X107850Y145430D01*
Y145420D01*
X107850Y145188D01*
X107850Y145188D01*
X107850Y145187D01*
Y142000D01*
X111500D01*
Y145650D01*
X108287D01*
X108287D01*
X108259Y145650D01*
X108079D01*
X107995Y145650D01*
X107941D01*
X107936Y145656D01*
X107931Y145660D01*
X107916Y145675D01*
X107882Y145708D01*
X107857Y145733D01*
X107749Y145839D01*
X107685Y145903D01*
X107628Y145958D01*
X107621Y145965D01*
X107562Y146023D01*
X107744Y146478D01*
X107750Y146495D01*
X107883Y147500D01*
X107750Y148505D01*
X107363Y149441D01*
X106746Y150246D01*
X105941Y150863D01*
X105005Y151251D01*
X104000Y151383D01*
X102995Y151251D01*
X102059Y150863D01*
X101254Y150246D01*
X100637Y149441D01*
X100500Y149110D01*
X100000Y149209D01*
Y173091D01*
X100449Y173120D01*
X100479Y173122D01*
X100497Y173124D01*
X100500Y173124D01*
X100535Y172857D01*
Y172857D01*
X100591Y172429D01*
X100900Y171684D01*
X101391Y171044D01*
X102031Y170554D01*
X102775Y170245D01*
X103575Y170140D01*
X105150D01*
X105949Y170245D01*
X106694Y170554D01*
X107334Y171044D01*
X107679Y171495D01*
X110071D01*
X110734Y171627D01*
X111296Y172003D01*
X114232Y174938D01*
X114795Y174864D01*
X115595Y174969D01*
X116340Y175278D01*
X116979Y175769D01*
X117470Y176408D01*
X117779Y177153D01*
X117884Y177953D01*
X117779Y178752D01*
X117470Y179497D01*
X116979Y180137D01*
X116340Y180628D01*
X115595Y180936D01*
X114795Y181041D01*
X113996Y180936D01*
X113251Y180628D01*
X112611Y180137D01*
X112120Y179497D01*
X111812Y178752D01*
X111707Y177953D01*
X111781Y177390D01*
X109353Y174962D01*
X107679D01*
X107334Y175412D01*
X106694Y175903D01*
X105949Y176212D01*
X105150Y176317D01*
X103575D01*
X102775Y176212D01*
X102031Y175903D01*
X101391Y175412D01*
X100900Y174773D01*
X100591Y174028D01*
X100535Y173600D01*
Y173600D01*
X100500Y173333D01*
X100497Y173333D01*
X100479Y173334D01*
X100449Y173336D01*
X100000Y173366D01*
Y201634D01*
X100500Y201667D01*
X100591Y200972D01*
X100900Y200227D01*
X101391Y199588D01*
X102031Y199097D01*
X102775Y198788D01*
X103575Y198683D01*
X105150D01*
X105949Y198788D01*
X106694Y199097D01*
X107334Y199588D01*
X107679Y200038D01*
X109353D01*
X111781Y197610D01*
X111707Y197047D01*
X111812Y196248D01*
X112120Y195503D01*
X112611Y194863D01*
X113251Y194372D01*
X113996Y194064D01*
X114795Y193959D01*
X115595Y194064D01*
X116340Y194372D01*
X116979Y194863D01*
X117470Y195503D01*
X117779Y196248D01*
X117884Y197047D01*
X117779Y197847D01*
X117470Y198592D01*
X116979Y199231D01*
X116340Y199722D01*
X115595Y200031D01*
X114795Y200136D01*
X114232Y200062D01*
X111443Y202850D01*
X111345Y202997D01*
X111341Y203000D01*
X111493Y203500D01*
X125500D01*
X126315Y204315D01*
X126777Y204123D01*
D02*
G37*
G36*
X144776Y254915D02*
Y248007D01*
X134035Y237265D01*
X133770Y236868D01*
X133677Y236400D01*
Y229915D01*
X133177Y229608D01*
X133000Y229644D01*
Y227500D01*
X132000D01*
Y229644D01*
X131642Y229572D01*
X131465Y229454D01*
X131024Y229690D01*
Y241793D01*
X144235Y255005D01*
X144276Y255067D01*
X144776Y254915D01*
D02*
G37*
G36*
X169902Y247762D02*
X169816Y247478D01*
X169704Y247253D01*
X169130Y246870D01*
X168710Y246241D01*
X168563Y245500D01*
X168710Y244759D01*
X169130Y244130D01*
X169759Y243710D01*
X169787Y243705D01*
Y240912D01*
X169525Y240772D01*
X169287Y240692D01*
X168610Y240827D01*
X167869Y240680D01*
X167240Y240260D01*
X166821Y239631D01*
X166673Y238890D01*
X166821Y238148D01*
X167240Y237520D01*
X167869Y237100D01*
X168610Y236952D01*
X168783Y236987D01*
X173135Y232635D01*
X173532Y232370D01*
X174000Y232277D01*
X174168D01*
X174268Y231776D01*
X174202Y231749D01*
X173664Y231336D01*
X173251Y230799D01*
X172992Y230172D01*
X172969Y230000D01*
X178031D01*
X178008Y230172D01*
X177749Y230799D01*
X177336Y231336D01*
X176798Y231749D01*
X176732Y231776D01*
X176832Y232277D01*
X180668D01*
X180768Y231776D01*
X180701Y231749D01*
X180164Y231336D01*
X179751Y230799D01*
X179491Y230172D01*
X179469Y230000D01*
X184531D01*
X184509Y230172D01*
X184249Y230799D01*
X183836Y231336D01*
X183299Y231749D01*
X183232Y231776D01*
X183332Y232277D01*
X187993D01*
X189135Y231135D01*
X189532Y230870D01*
X190000Y230777D01*
X200907D01*
X201068Y230276D01*
X200710Y229741D01*
X200563Y229000D01*
X200710Y228259D01*
X201130Y227630D01*
X201759Y227210D01*
X202500Y227063D01*
X202673Y227097D01*
X206377Y223393D01*
Y196316D01*
X206224Y196191D01*
X205724Y196429D01*
Y214500D01*
X205630Y214968D01*
X205365Y215365D01*
X199903Y220827D01*
X199937Y221000D01*
X199790Y221741D01*
X199370Y222370D01*
X198741Y222790D01*
X198000Y222937D01*
X197259Y222790D01*
X196630Y222370D01*
X196210Y221741D01*
X196063Y221000D01*
X196210Y220259D01*
X196630Y219630D01*
X197259Y219210D01*
X198000Y219063D01*
X198173Y219097D01*
X203276Y213993D01*
Y188302D01*
X202812Y187954D01*
X202619Y188005D01*
X191191Y199433D01*
X191437Y199894D01*
X191469Y199888D01*
Y201532D01*
X189825D01*
X189831Y201501D01*
X189370Y201254D01*
X189359Y201265D01*
X188962Y201530D01*
X188494Y201624D01*
X186400D01*
X185932Y201530D01*
X185535Y201265D01*
X184173Y199903D01*
X184000Y199937D01*
X183259Y199790D01*
X183096Y199681D01*
X182541Y199911D01*
X182530Y199962D01*
X182265Y200359D01*
X180885Y201739D01*
X180937Y202000D01*
X180790Y202741D01*
X180370Y203370D01*
X179741Y203790D01*
X179000Y203937D01*
X178259Y203790D01*
X177630Y203370D01*
X177210Y202741D01*
X177063Y202000D01*
X177210Y201259D01*
X177630Y200630D01*
X177731Y200563D01*
X177763Y200041D01*
X177439Y199723D01*
X176606D01*
X176138Y199630D01*
X175741Y199365D01*
X175099Y198723D01*
X157338D01*
X157089Y199223D01*
X157144Y199500D01*
X152856D01*
X152911Y199223D01*
X152662Y198723D01*
X149889D01*
X149437Y199000D01*
X149290Y199741D01*
X148870Y200370D01*
X148241Y200790D01*
X147500Y200937D01*
X146759Y200790D01*
X146130Y200370D01*
X145710Y199741D01*
X145563Y199000D01*
X145710Y198259D01*
X146130Y197630D01*
X145851Y197216D01*
X145741Y197290D01*
X145000Y197437D01*
X144259Y197290D01*
X143630Y196870D01*
X143210Y196241D01*
X143063Y195500D01*
X143210Y194759D01*
X143630Y194130D01*
X144259Y193710D01*
X145000Y193563D01*
X145741Y193710D01*
X146370Y194130D01*
X146468Y194276D01*
X170440D01*
X170707Y193777D01*
X170428Y193358D01*
X170356Y193000D01*
X174644D01*
X174572Y193358D01*
X174293Y193777D01*
X174560Y194276D01*
X175532D01*
X175630Y194130D01*
X176259Y193710D01*
X177000Y193563D01*
X177741Y193710D01*
X178370Y194130D01*
X178790Y194759D01*
X178937Y195500D01*
X178820Y196089D01*
X178929Y196375D01*
X179156Y196594D01*
X179676Y196697D01*
X179914Y196618D01*
X180176Y196478D01*
Y188907D01*
X173173Y181903D01*
X173000Y181937D01*
X172259Y181790D01*
X171630Y181370D01*
X171210Y180741D01*
X171063Y180000D01*
X171097Y179827D01*
X165993Y174723D01*
X162968D01*
X162870Y174870D01*
X162241Y175290D01*
X161500Y175437D01*
X160759Y175290D01*
X160130Y174870D01*
X159710Y174241D01*
X159563Y173500D01*
X159597Y173327D01*
X151493Y165224D01*
X149696D01*
X149345Y165724D01*
X149437Y166189D01*
X149290Y166930D01*
X148870Y167559D01*
X148241Y167979D01*
X147500Y168126D01*
X147327Y168092D01*
X146223Y169196D01*
Y180000D01*
X146130Y180468D01*
X145865Y180865D01*
X129224Y197507D01*
Y203162D01*
X129724Y203411D01*
X130000Y203356D01*
Y205500D01*
X131000D01*
Y203356D01*
X131358Y203428D01*
X132086Y203914D01*
X132547Y204603D01*
X132769Y204659D01*
X133091Y204688D01*
X133130Y204630D01*
X133759Y204210D01*
X134500Y204063D01*
X135241Y204210D01*
X135870Y204630D01*
X136290Y205259D01*
X136437Y206000D01*
X136290Y206741D01*
X135870Y207370D01*
X135241Y207790D01*
X134609Y207916D01*
X134419Y208136D01*
X134474Y208457D01*
X134621Y208686D01*
X134741Y208710D01*
X135370Y209130D01*
X135447Y209245D01*
X136752D01*
X136977Y208972D01*
Y191300D01*
X137070Y190832D01*
X137335Y190435D01*
X147955Y179814D01*
X147921Y179642D01*
X148068Y178900D01*
X148488Y178272D01*
X149117Y177852D01*
X149858Y177705D01*
X150600Y177852D01*
X151228Y178272D01*
X151648Y178900D01*
X151795Y179642D01*
X151648Y180383D01*
X151228Y181012D01*
X150600Y181431D01*
X149858Y181579D01*
X149686Y181545D01*
X139424Y191807D01*
Y208465D01*
X141222Y210264D01*
X141487Y210661D01*
X141580Y211129D01*
Y214608D01*
X141487Y215076D01*
X141222Y215474D01*
X140887Y215808D01*
X141121Y216281D01*
X141858Y216428D01*
X142586Y216914D01*
X143072Y217642D01*
X143144Y218000D01*
X141000D01*
Y218500D01*
X140500D01*
Y220644D01*
X140142Y220572D01*
X139865Y220387D01*
X139424Y220623D01*
Y230193D01*
X141305Y232074D01*
X141693Y231756D01*
X141428Y231358D01*
X141356Y231000D01*
X143000D01*
Y232644D01*
X142642Y232572D01*
X142244Y232307D01*
X141926Y232695D01*
X153822Y244592D01*
X154365Y244427D01*
X154428Y244110D01*
X154914Y243382D01*
X155642Y242896D01*
X156000Y242825D01*
Y244969D01*
X157000D01*
Y242825D01*
X157358Y242896D01*
X157583Y243046D01*
X157641Y243040D01*
X158104Y242793D01*
X158210Y242259D01*
X158630Y241630D01*
X159259Y241210D01*
X160000Y241063D01*
X160741Y241210D01*
X161370Y241630D01*
X161790Y242259D01*
X161937Y243000D01*
X161790Y243741D01*
X161370Y244370D01*
X160741Y244790D01*
X160000Y244937D01*
X159259Y244790D01*
X159211Y244758D01*
X158973Y244865D01*
X158729Y245038D01*
X158572Y245827D01*
X158086Y246555D01*
X157358Y247041D01*
X157041Y247104D01*
X156877Y247646D01*
X157757Y248527D01*
X169137D01*
X169902Y247762D01*
D02*
G37*
G36*
X228777Y231993D02*
Y228882D01*
X228314Y228754D01*
X228276Y228761D01*
X227870Y229370D01*
X227241Y229790D01*
X226500Y229937D01*
X225759Y229790D01*
X225130Y229370D01*
X224710Y228741D01*
X224707Y228724D01*
X224157Y228524D01*
X223759Y228790D01*
X223018Y228937D01*
X222277Y228790D01*
X221648Y228370D01*
X221228Y227741D01*
X221081Y227000D01*
X221228Y226259D01*
X221648Y225630D01*
X222277Y225210D01*
X222605Y225145D01*
Y224635D01*
X222377Y224590D01*
X221748Y224170D01*
X221328Y223541D01*
X221181Y222800D01*
X221215Y222627D01*
X217412Y218824D01*
X217101Y218939D01*
X216928Y219047D01*
X216790Y219741D01*
X216370Y220370D01*
X215741Y220790D01*
X215000Y220937D01*
X214259Y220790D01*
X213630Y220370D01*
X213210Y219741D01*
X213063Y219000D01*
X213210Y218259D01*
X213630Y217630D01*
X213776Y217532D01*
Y215468D01*
X213630Y215370D01*
X213210Y214741D01*
X213063Y214000D01*
X213210Y213259D01*
X213357Y213039D01*
X213208Y212680D01*
X213090Y212538D01*
X212414Y212086D01*
X211928Y211358D01*
X211856Y211000D01*
X214000D01*
Y210500D01*
X214500D01*
Y208356D01*
X214858Y208428D01*
X215586Y208914D01*
X216072Y209642D01*
X216243Y210500D01*
X216210Y210667D01*
X216671Y210913D01*
X217277Y210307D01*
Y185007D01*
X216493Y184223D01*
X207668D01*
X207370Y184670D01*
X206741Y185090D01*
X206479Y185142D01*
X206249Y185697D01*
X206290Y185759D01*
X206437Y186500D01*
X206299Y187192D01*
X206424Y187399D01*
X206627Y187637D01*
X207000Y187563D01*
X207741Y187710D01*
X208370Y188130D01*
X208790Y188759D01*
X208937Y189500D01*
X208790Y190241D01*
X208370Y190870D01*
X208224Y190968D01*
Y191907D01*
X208723Y192068D01*
X209259Y191710D01*
X210000Y191563D01*
X210741Y191710D01*
X211370Y192130D01*
X211790Y192759D01*
X211937Y193500D01*
X211790Y194241D01*
X211370Y194870D01*
X211224Y194968D01*
Y196500D01*
Y200500D01*
X211130Y200968D01*
X211055Y201081D01*
Y226451D01*
X211097Y226535D01*
X211492Y226864D01*
X211531Y226856D01*
Y229000D01*
X212032D01*
Y229500D01*
X214175D01*
X214104Y229858D01*
X213675Y230500D01*
X214104Y231142D01*
X214175Y231500D01*
X209888D01*
X209959Y231142D01*
X210388Y230500D01*
X209959Y229858D01*
X209788Y229000D01*
X209793Y228976D01*
X209332Y228729D01*
X205197Y232865D01*
X204800Y233130D01*
X204331Y233224D01*
X193963D01*
X193727Y233664D01*
X193790Y233759D01*
X193937Y234500D01*
X193790Y235241D01*
X193727Y235335D01*
X193963Y235776D01*
X224993D01*
X228777Y231993D01*
D02*
G37*
G36*
X189000Y269000D02*
X246462D01*
X246779Y268614D01*
X246757Y268500D01*
X246928Y267642D01*
X247414Y266914D01*
X248142Y266428D01*
X248500Y266356D01*
Y268500D01*
X249500D01*
Y266356D01*
X249858Y266428D01*
X250290Y266716D01*
X250536Y266602D01*
X250770Y266435D01*
X250928Y265642D01*
X251414Y264914D01*
X252142Y264428D01*
X252500Y264356D01*
Y266500D01*
X253000D01*
Y267000D01*
X255144D01*
X255072Y267358D01*
X254586Y268086D01*
X253967Y268500D01*
X254076Y269000D01*
X256924D01*
X257033Y268500D01*
X256414Y268086D01*
X255928Y267358D01*
X255856Y267000D01*
X260144D01*
X260072Y267358D01*
X259586Y268086D01*
X258967Y268500D01*
X259076Y269000D01*
X262424D01*
X262533Y268500D01*
X261914Y268086D01*
X261428Y267358D01*
X261356Y267000D01*
X265644D01*
X265572Y267358D01*
X265086Y268086D01*
X264467Y268500D01*
X264576Y269000D01*
X267924D01*
X268033Y268500D01*
X267414Y268086D01*
X266928Y267358D01*
X266856Y267000D01*
X271144D01*
X271072Y267358D01*
X270586Y268086D01*
X269967Y268500D01*
X270076Y269000D01*
X273424D01*
X273533Y268500D01*
X272914Y268086D01*
X272428Y267358D01*
X272356Y267000D01*
X276644D01*
X276572Y267358D01*
X276086Y268086D01*
X275467Y268500D01*
X275576Y269000D01*
X278924D01*
X279033Y268500D01*
X278414Y268086D01*
X277928Y267358D01*
X277856Y267000D01*
X282144D01*
X282072Y267358D01*
X281586Y268086D01*
X280967Y268500D01*
X281076Y269000D01*
X284424D01*
X284533Y268500D01*
X283914Y268086D01*
X283428Y267358D01*
X283356Y267000D01*
X287644D01*
X287572Y267358D01*
X287086Y268086D01*
X286467Y268500D01*
X286576Y269000D01*
X289924D01*
X290033Y268500D01*
X289414Y268086D01*
X288928Y267358D01*
X288856Y267000D01*
X293144D01*
X293072Y267358D01*
X292586Y268086D01*
X291967Y268500D01*
X292076Y269000D01*
X295146D01*
X295500Y268646D01*
X295500Y208172D01*
X295000Y207838D01*
X294500Y207937D01*
X293759Y207790D01*
X293130Y207370D01*
X292710Y206741D01*
X292563Y206000D01*
X292710Y205259D01*
X293130Y204630D01*
X293759Y204210D01*
X294500Y204063D01*
X295000Y204162D01*
X295500Y203827D01*
Y177000D01*
X276740D01*
Y180500D01*
X267260D01*
Y177000D01*
X259500D01*
Y175577D01*
X259000Y175467D01*
X258586Y176086D01*
X257858Y176572D01*
X257500Y176644D01*
Y174500D01*
Y172356D01*
X257858Y172428D01*
X258586Y172914D01*
X259000Y173533D01*
X259500Y173423D01*
Y170077D01*
X259000Y169967D01*
X258586Y170586D01*
X257858Y171072D01*
X257500Y171144D01*
Y169000D01*
Y166856D01*
X257858Y166928D01*
X258586Y167414D01*
X259000Y168033D01*
X259500Y167923D01*
Y158077D01*
X259000Y157967D01*
X258586Y158586D01*
X257858Y159072D01*
X257500Y159144D01*
Y157000D01*
Y154856D01*
X257858Y154928D01*
X258586Y155414D01*
X259000Y156033D01*
X259500Y155923D01*
Y152577D01*
X259000Y152467D01*
X258586Y153086D01*
X257858Y153572D01*
X257500Y153644D01*
Y151500D01*
Y149356D01*
X257858Y149428D01*
X258586Y149914D01*
X259000Y150533D01*
X259500Y150423D01*
X259500Y147077D01*
X259000Y146967D01*
X258586Y147586D01*
X257858Y148072D01*
X257500Y148144D01*
Y146000D01*
Y143856D01*
X257858Y143928D01*
X258586Y144414D01*
X259000Y145033D01*
X259500Y144923D01*
Y141577D01*
X259000Y141467D01*
X258586Y142086D01*
X257858Y142572D01*
X257500Y142644D01*
Y140500D01*
Y138356D01*
X257858Y138428D01*
X258586Y138914D01*
X259000Y139533D01*
X259500Y139423D01*
Y120853D01*
X259146Y120500D01*
X243884D01*
X243692Y120962D01*
X244327Y121597D01*
X244500Y121563D01*
X245241Y121710D01*
X245870Y122130D01*
X246290Y122759D01*
X246437Y123500D01*
X246290Y124241D01*
X245870Y124870D01*
X245241Y125290D01*
X244500Y125437D01*
X243759Y125290D01*
X243130Y124870D01*
X242710Y124241D01*
X242563Y123500D01*
X242597Y123327D01*
X239893Y120624D01*
X219076D01*
X218884Y121085D01*
X221814Y124015D01*
X222330Y123824D01*
X222459Y123173D01*
X222945Y122445D01*
X223673Y121959D01*
X224031Y121888D01*
Y124031D01*
X224532D01*
Y124531D01*
X226675D01*
X226640Y124708D01*
X226947Y125208D01*
X239432D01*
X239900Y125301D01*
X240297Y125566D01*
X244827Y130097D01*
X245000Y130063D01*
X245741Y130210D01*
X246370Y130630D01*
X246790Y131259D01*
X246937Y132000D01*
X246790Y132741D01*
X246370Y133370D01*
X245741Y133790D01*
X245000Y133937D01*
X244259Y133790D01*
X243630Y133370D01*
X243210Y132741D01*
X243063Y132000D01*
X243097Y131827D01*
X238925Y127655D01*
X222500D01*
X222032Y127562D01*
X221635Y127297D01*
X216762Y122424D01*
X213712D01*
X213561Y122924D01*
X213870Y123130D01*
X214290Y123759D01*
X214437Y124500D01*
X214290Y125241D01*
X213870Y125870D01*
X213241Y126290D01*
X212500Y126437D01*
X211759Y126290D01*
X211130Y125870D01*
X210710Y125241D01*
X210563Y124500D01*
X210710Y123759D01*
X211130Y123130D01*
X211439Y122924D01*
X211288Y122424D01*
X207107D01*
X206916Y122885D01*
X210265Y126235D01*
X210424Y126473D01*
X210530Y126632D01*
X210624Y127100D01*
Y129777D01*
X214532D01*
X214630Y129630D01*
X215259Y129210D01*
X216000Y129063D01*
X216741Y129210D01*
X217370Y129630D01*
X217790Y130259D01*
X217937Y131000D01*
X217790Y131741D01*
X217370Y132370D01*
X216741Y132790D01*
X216000Y132937D01*
X215259Y132790D01*
X214630Y132370D01*
X214532Y132223D01*
X210624D01*
Y145494D01*
X210530Y145962D01*
X210265Y146359D01*
X209498Y147126D01*
Y150660D01*
X209998Y150907D01*
X210202Y150751D01*
X210828Y150491D01*
X211000Y150469D01*
Y153000D01*
Y155531D01*
X210828Y155508D01*
X210202Y155249D01*
X209998Y155093D01*
X209498Y155340D01*
Y156660D01*
X209998Y156907D01*
X210202Y156751D01*
X210828Y156491D01*
X211000Y156469D01*
Y159000D01*
Y161531D01*
X210828Y161509D01*
X210202Y161249D01*
X209998Y161093D01*
X209498Y161340D01*
Y162660D01*
X209998Y162907D01*
X210202Y162751D01*
X210828Y162492D01*
X211000Y162469D01*
Y165000D01*
Y167531D01*
X210828Y167508D01*
X210202Y167249D01*
X209794Y166936D01*
X209331Y166939D01*
X209154Y166993D01*
X209140Y167015D01*
X206723Y169431D01*
Y177032D01*
X206870Y177130D01*
X207290Y177759D01*
X207437Y178500D01*
X207303Y179176D01*
X207382Y179414D01*
X207522Y179676D01*
X217900D01*
X218368Y179770D01*
X218765Y180035D01*
X219805Y181075D01*
X220193Y180756D01*
X219928Y180358D01*
X219856Y180000D01*
X221500D01*
Y181644D01*
X221142Y181572D01*
X220744Y181307D01*
X220426Y181695D01*
X221365Y182635D01*
X221630Y183032D01*
X221724Y183500D01*
Y210298D01*
X222185Y210489D01*
X224540Y208135D01*
X224937Y207870D01*
X225405Y207776D01*
X238993D01*
X240403Y206367D01*
X240157Y205906D01*
X240000Y205937D01*
X239259Y205790D01*
X238630Y205370D01*
X238210Y204741D01*
X238063Y204000D01*
X238210Y203259D01*
X238630Y202630D01*
X239259Y202210D01*
X240000Y202063D01*
X240741Y202210D01*
X241370Y202630D01*
X241790Y203259D01*
X241937Y204000D01*
X241906Y204156D01*
X242367Y204403D01*
X246135Y200635D01*
X246532Y200370D01*
X247000Y200276D01*
X262547D01*
X262699Y199776D01*
X262414Y199586D01*
X261928Y198858D01*
X261856Y198500D01*
X266144D01*
X266072Y198858D01*
X265586Y199586D01*
X265301Y199776D01*
X265453Y200276D01*
X278532D01*
X278630Y200130D01*
X279259Y199710D01*
X280000Y199563D01*
X280741Y199710D01*
X281370Y200130D01*
X281790Y200759D01*
X281937Y201500D01*
X281790Y202241D01*
X281370Y202870D01*
X280741Y203290D01*
X280000Y203437D01*
X279259Y203290D01*
X278630Y202870D01*
X278532Y202724D01*
X273607D01*
X273416Y203185D01*
X282827Y212597D01*
X283000Y212563D01*
X283741Y212710D01*
X284370Y213130D01*
X284790Y213759D01*
X284937Y214500D01*
X284790Y215241D01*
X284370Y215870D01*
X283741Y216290D01*
X283000Y216437D01*
X282259Y216290D01*
X281630Y215870D01*
X281210Y215241D01*
X281063Y214500D01*
X281097Y214327D01*
X273284Y206515D01*
X272806Y206660D01*
X272790Y206741D01*
X272370Y207370D01*
X271741Y207790D01*
X271572Y207823D01*
X271426Y208302D01*
X281119Y217995D01*
X281630Y218130D01*
X282259Y217710D01*
X283000Y217563D01*
X283741Y217710D01*
X284370Y218130D01*
X284790Y218759D01*
X284937Y219500D01*
X284790Y220241D01*
X284370Y220870D01*
X283741Y221290D01*
X283621Y221314D01*
X283474Y221543D01*
X283419Y221864D01*
X283609Y222084D01*
X284241Y222210D01*
X284870Y222630D01*
X285290Y223259D01*
X285437Y224000D01*
X285290Y224741D01*
X284870Y225370D01*
X284241Y225790D01*
X283500Y225937D01*
X282759Y225790D01*
X282130Y225370D01*
X281710Y224741D01*
X281563Y224000D01*
X281597Y223827D01*
X280293Y222523D01*
X262343D01*
X262333Y222538D01*
X261704Y222958D01*
X260963Y223106D01*
X260222Y222958D01*
X259593Y222538D01*
X259173Y221910D01*
X259026Y221168D01*
X259173Y220427D01*
X259392Y220100D01*
X259275Y219456D01*
X259099Y219338D01*
X258679Y218710D01*
X258531Y217969D01*
X258679Y217227D01*
X259099Y216599D01*
X259727Y216179D01*
X260469Y216031D01*
X261210Y216179D01*
X261838Y216599D01*
X262258Y217227D01*
X262406Y217969D01*
X262258Y218710D01*
X262039Y219037D01*
X262157Y219681D01*
X262333Y219799D01*
X262518Y220076D01*
X279087D01*
X279278Y219615D01*
X270762Y211098D01*
X270478Y211184D01*
X270253Y211296D01*
X269870Y211870D01*
X269241Y212290D01*
X268500Y212437D01*
X267759Y212290D01*
X267130Y211870D01*
X267032Y211723D01*
X255953D01*
X255801Y212224D01*
X256086Y212414D01*
X256572Y213142D01*
X256644Y213500D01*
X252356D01*
X252428Y213142D01*
X252914Y212414D01*
X253199Y212224D01*
X253047Y211723D01*
X251468D01*
X251370Y211870D01*
X250741Y212290D01*
X250000Y212437D01*
X249259Y212290D01*
X248630Y211870D01*
X248210Y211241D01*
X248063Y210500D01*
X248210Y209759D01*
X248630Y209130D01*
X249259Y208710D01*
X250000Y208563D01*
X250741Y208710D01*
X251068Y208929D01*
X251429Y208568D01*
X251210Y208241D01*
X251063Y207500D01*
X251210Y206759D01*
X251630Y206130D01*
X252259Y205710D01*
X253000Y205563D01*
X253741Y205710D01*
X254370Y206130D01*
X254790Y206759D01*
X254813Y206876D01*
X268745D01*
X269138Y206377D01*
X269063Y206000D01*
X269210Y205259D01*
X269273Y205165D01*
X269038Y204724D01*
X250007D01*
X247820Y206910D01*
X247937Y207500D01*
X247790Y208241D01*
X247370Y208870D01*
X246741Y209290D01*
X246000Y209437D01*
X245259Y209290D01*
X244630Y208870D01*
X244210Y208241D01*
X244063Y207500D01*
X244210Y206759D01*
X244274Y206664D01*
X243885Y206345D01*
X240365Y209865D01*
X239968Y210130D01*
X239500Y210224D01*
X230962D01*
X230727Y210665D01*
X230790Y210759D01*
X230937Y211500D01*
X230790Y212241D01*
X230370Y212870D01*
X229741Y213290D01*
X229000Y213437D01*
X228259Y213290D01*
X227630Y212870D01*
X227210Y212241D01*
X227063Y211500D01*
X227210Y210759D01*
X227273Y210665D01*
X227038Y210224D01*
X225912D01*
X224248Y211888D01*
X224334Y212172D01*
X224446Y212397D01*
X225019Y212780D01*
X225439Y213408D01*
X225587Y214150D01*
X225553Y214322D01*
X230865Y219635D01*
X231130Y220032D01*
X231224Y220500D01*
Y232500D01*
X231130Y232968D01*
X230865Y233365D01*
X226365Y237865D01*
X225968Y238130D01*
X225500Y238224D01*
X186107D01*
X185916Y238685D01*
X187365Y240135D01*
X187630Y240532D01*
X187724Y241000D01*
Y241440D01*
X188224Y241707D01*
X188642Y241428D01*
X189000Y241356D01*
Y243500D01*
Y245644D01*
X188642Y245572D01*
X188224Y245293D01*
X187724Y245560D01*
Y250000D01*
X187630Y250468D01*
X187524Y250627D01*
X187365Y250865D01*
X183903Y254327D01*
X183937Y254500D01*
X183790Y255241D01*
X183370Y255870D01*
X182741Y256290D01*
X182000Y256437D01*
X181259Y256290D01*
X181165Y256227D01*
X180724Y256463D01*
Y258118D01*
X181186Y258246D01*
X181223Y258239D01*
X181630Y257630D01*
X182259Y257210D01*
X183000Y257063D01*
X183741Y257210D01*
X184370Y257630D01*
X184790Y258259D01*
X184937Y259000D01*
X184790Y259741D01*
X184370Y260370D01*
X183741Y260790D01*
X183000Y260937D01*
X182259Y260790D01*
X181630Y260370D01*
X181223Y259761D01*
X181186Y259754D01*
X180724Y259882D01*
Y269000D01*
X180630Y269468D01*
X180365Y269865D01*
X177365Y272865D01*
X176968Y273130D01*
X176500Y273223D01*
X155500D01*
X155032Y273130D01*
X154635Y272865D01*
X148543Y266773D01*
X148370Y266807D01*
X147629Y266660D01*
X147000Y266240D01*
X146580Y265611D01*
X146433Y264870D01*
X146580Y264129D01*
X147000Y263500D01*
X147629Y263080D01*
X148370Y262933D01*
X149111Y263080D01*
X149740Y263500D01*
X150160Y264129D01*
X150307Y264870D01*
X150273Y265043D01*
X156007Y270777D01*
X170289D01*
X170489Y270276D01*
X170163Y269789D01*
X170016Y269047D01*
X170163Y268306D01*
X170583Y267677D01*
X171115Y267322D01*
X171185Y266943D01*
X171168Y266756D01*
X170914Y266586D01*
X170428Y265858D01*
X170356Y265500D01*
X174644D01*
X174572Y265858D01*
X174086Y266586D01*
X173358Y267072D01*
X173327Y267079D01*
X173221Y267610D01*
X173323Y267677D01*
X173742Y268306D01*
X173890Y269047D01*
X173742Y269789D01*
X173416Y270276D01*
X173616Y270777D01*
X175993D01*
X178277Y268493D01*
Y256107D01*
X177815Y255916D01*
X170925Y262805D01*
X171244Y263193D01*
X171642Y262928D01*
X172000Y262856D01*
Y264500D01*
X170356D01*
X170428Y264142D01*
X170693Y263744D01*
X170305Y263425D01*
X168224Y265507D01*
Y267500D01*
X168130Y267968D01*
X167865Y268365D01*
X166365Y269865D01*
X165968Y270130D01*
X165500Y270223D01*
X158500D01*
X158032Y270130D01*
X157635Y269865D01*
X152173Y264403D01*
X152000Y264437D01*
X151259Y264290D01*
X150630Y263870D01*
X150210Y263241D01*
X150063Y262500D01*
X150210Y261759D01*
X150630Y261130D01*
X151259Y260710D01*
X152000Y260563D01*
X152741Y260710D01*
X153370Y261130D01*
X153790Y261759D01*
X153937Y262500D01*
X153903Y262673D01*
X159007Y267776D01*
X161872D01*
X161921Y267277D01*
X161759Y267244D01*
X161130Y266824D01*
X160710Y266196D01*
X160563Y265454D01*
X160710Y264713D01*
X161130Y264085D01*
X161759Y263665D01*
X162500Y263517D01*
X162673Y263551D01*
X172276Y253948D01*
Y251468D01*
X172130Y251370D01*
X171710Y250741D01*
X171607Y250224D01*
X171084Y250041D01*
X170509Y250615D01*
X170112Y250880D01*
X169644Y250974D01*
X167787D01*
X167635Y251473D01*
X167870Y251630D01*
X168290Y252259D01*
X168437Y253000D01*
X168290Y253741D01*
X167870Y254370D01*
X167241Y254790D01*
X166500Y254937D01*
X165759Y254790D01*
X165130Y254370D01*
X164710Y253741D01*
X164563Y253000D01*
X164710Y252259D01*
X165130Y251630D01*
X165365Y251473D01*
X165213Y250974D01*
X157250D01*
X156782Y250880D01*
X156385Y250615D01*
X137335Y231565D01*
X137070Y231168D01*
X136977Y230700D01*
Y217827D01*
X136515Y217635D01*
X136124Y218026D01*
Y235893D01*
X146865Y246635D01*
X147130Y247032D01*
X147223Y247500D01*
Y261500D01*
X147130Y261968D01*
X146865Y262365D01*
X144865Y264365D01*
X144468Y264630D01*
X144000Y264723D01*
X140968D01*
X140870Y264870D01*
X140241Y265290D01*
X139500Y265437D01*
X138759Y265290D01*
X138130Y264870D01*
X137710Y264241D01*
X137563Y263500D01*
X137710Y262759D01*
X138130Y262130D01*
X138759Y261710D01*
X139500Y261563D01*
X140241Y261710D01*
X140870Y262130D01*
X140968Y262277D01*
X141885D01*
X142037Y261776D01*
X142000Y261752D01*
X141580Y261124D01*
X141433Y260382D01*
X141580Y259641D01*
X142000Y259013D01*
X142147Y258915D01*
Y256377D01*
X133125Y247355D01*
X132853Y247500D01*
X130500D01*
Y248000D01*
X130000D01*
Y250144D01*
X129724Y250089D01*
X129224Y250338D01*
Y252662D01*
X129724Y252911D01*
X130000Y252856D01*
Y255000D01*
Y257144D01*
X129724Y257089D01*
X129224Y257338D01*
Y259662D01*
X129724Y259911D01*
X130000Y259856D01*
Y262000D01*
Y264144D01*
X129724Y264089D01*
X129224Y264338D01*
Y265662D01*
X129724Y265911D01*
X130000Y265856D01*
Y268000D01*
X130500D01*
Y268500D01*
X132695D01*
X132764Y268586D01*
X133091Y268816D01*
X133709Y268693D01*
X134450Y268840D01*
X135079Y269260D01*
X135499Y269889D01*
X135646Y270630D01*
X135499Y271371D01*
X135079Y272000D01*
X134450Y272420D01*
X133709Y272567D01*
X133454Y272516D01*
X133207Y272977D01*
X135007Y274777D01*
X180159D01*
X180259Y274710D01*
X181000Y274563D01*
X181741Y274710D01*
X182370Y275130D01*
X182825Y275175D01*
X189000Y269000D01*
D02*
G37*
%LPC*%
G36*
X174644Y192000D02*
X173000D01*
Y190356D01*
X173358Y190428D01*
X174086Y190914D01*
X174572Y191642D01*
X174644Y192000D01*
D02*
G37*
G36*
X172000D02*
X170356D01*
X170428Y191642D01*
X170914Y190914D01*
X171642Y190428D01*
X172000Y190356D01*
Y192000D01*
D02*
G37*
G36*
X232144Y192500D02*
X230500D01*
Y190856D01*
X230858Y190928D01*
X231586Y191414D01*
X232072Y192142D01*
X232144Y192500D01*
D02*
G37*
G36*
X229500D02*
X227856D01*
X227928Y192142D01*
X228414Y191414D01*
X229142Y190928D01*
X229500Y190856D01*
Y192500D01*
D02*
G37*
G36*
X272000Y195478D02*
X270841Y195326D01*
X269761Y194878D01*
X268833Y194167D01*
X268122Y193239D01*
X267674Y192159D01*
X267522Y191000D01*
X267674Y189841D01*
X268122Y188761D01*
X268833Y187833D01*
X269761Y187121D01*
X270841Y186674D01*
X272000Y186521D01*
X273159Y186674D01*
X274239Y187121D01*
X275167Y187833D01*
X275879Y188761D01*
X276326Y189841D01*
X276479Y191000D01*
X276326Y192159D01*
X275879Y193239D01*
X275167Y194167D01*
X274239Y194878D01*
X273159Y195326D01*
X272000Y195478D01*
D02*
G37*
G36*
X271500Y185740D02*
X267260D01*
Y181500D01*
X271500D01*
Y185740D01*
D02*
G37*
G36*
X257500Y182144D02*
Y180500D01*
X259144D01*
X259072Y180858D01*
X258586Y181586D01*
X257858Y182072D01*
X257500Y182144D01*
D02*
G37*
G36*
X255000Y196437D02*
X254259Y196290D01*
X253630Y195870D01*
X253210Y195241D01*
X253063Y194500D01*
X253210Y193759D01*
X253630Y193130D01*
X253777Y193032D01*
Y185968D01*
X253630Y185870D01*
X253210Y185241D01*
X253063Y184500D01*
X253210Y183759D01*
X253630Y183130D01*
X254259Y182710D01*
X255000Y182563D01*
X255741Y182710D01*
X256370Y183130D01*
X256790Y183759D01*
X256937Y184500D01*
X256790Y185241D01*
X256370Y185870D01*
X256224Y185968D01*
Y193032D01*
X256370Y193130D01*
X256790Y193759D01*
X256937Y194500D01*
X256790Y195241D01*
X256370Y195870D01*
X255741Y196290D01*
X255000Y196437D01*
D02*
G37*
G36*
X276740Y185740D02*
X272500D01*
Y181500D01*
X276740D01*
Y185740D01*
D02*
G37*
G36*
X229500Y195144D02*
X229142Y195072D01*
X228414Y194586D01*
X227928Y193858D01*
X227856Y193500D01*
X229500D01*
Y195144D01*
D02*
G37*
G36*
X134644Y198000D02*
X133000D01*
Y196356D01*
X133358Y196428D01*
X134086Y196914D01*
X134572Y197642D01*
X134644Y198000D01*
D02*
G37*
G36*
X132000D02*
X130356D01*
X130428Y197642D01*
X130914Y196914D01*
X131642Y196428D01*
X132000Y196356D01*
Y198000D01*
D02*
G37*
G36*
X242000Y201437D02*
X241259Y201290D01*
X240630Y200870D01*
X240210Y200241D01*
X240063Y199500D01*
X240210Y198759D01*
X240630Y198130D01*
X241259Y197710D01*
X242000Y197563D01*
X242741Y197710D01*
X243370Y198130D01*
X243790Y198759D01*
X243937Y199500D01*
X243790Y200241D01*
X243370Y200870D01*
X242741Y201290D01*
X242000Y201437D01*
D02*
G37*
G36*
X229500Y199500D02*
X227856D01*
X227928Y199142D01*
X228414Y198414D01*
X229142Y197928D01*
X229500Y197856D01*
Y199500D01*
D02*
G37*
G36*
X232144D02*
X230500D01*
Y197856D01*
X230858Y197928D01*
X231586Y198414D01*
X232072Y199142D01*
X232144Y199500D01*
D02*
G37*
G36*
X216144Y200500D02*
X214500D01*
Y198856D01*
X214858Y198928D01*
X215586Y199414D01*
X216072Y200142D01*
X216144Y200500D01*
D02*
G37*
G36*
X230500Y195144D02*
Y193500D01*
X232144D01*
X232072Y193858D01*
X231586Y194586D01*
X230858Y195072D01*
X230500Y195144D01*
D02*
G37*
G36*
X213500Y200500D02*
X211856D01*
X211928Y200142D01*
X212414Y199414D01*
X213142Y198928D01*
X213500Y198856D01*
Y200500D01*
D02*
G37*
G36*
X266144Y197500D02*
X264500D01*
Y195856D01*
X264858Y195928D01*
X265586Y196414D01*
X266072Y197142D01*
X266144Y197500D01*
D02*
G37*
G36*
X263500D02*
X261856D01*
X261928Y197142D01*
X262414Y196414D01*
X263142Y195928D01*
X263500Y195856D01*
Y197500D01*
D02*
G37*
G36*
X256500Y182144D02*
X256142Y182072D01*
X255414Y181586D01*
X254928Y180858D01*
X254856Y180500D01*
X256500D01*
Y182144D01*
D02*
G37*
G36*
Y179500D02*
X254856D01*
X254928Y179142D01*
X255414Y178414D01*
X256142Y177928D01*
X256500Y177856D01*
Y179500D01*
D02*
G37*
G36*
X253644D02*
X252000D01*
Y177856D01*
X252358Y177928D01*
X253086Y178414D01*
X253572Y179142D01*
X253644Y179500D01*
D02*
G37*
G36*
X251000D02*
X249356D01*
X249428Y179142D01*
X249914Y178414D01*
X250642Y177928D01*
X251000Y177856D01*
Y179500D01*
D02*
G37*
G36*
X133000Y180644D02*
Y179000D01*
X134644D01*
X134572Y179358D01*
X134086Y180086D01*
X133358Y180572D01*
X133000Y180644D01*
D02*
G37*
G36*
X132000D02*
X131642Y180572D01*
X130914Y180086D01*
X130428Y179358D01*
X130356Y179000D01*
X132000D01*
Y180644D01*
D02*
G37*
G36*
X259144Y179500D02*
X257500D01*
Y177856D01*
X257858Y177928D01*
X258586Y178414D01*
X259072Y179142D01*
X259144Y179500D01*
D02*
G37*
G36*
X239500D02*
X237856D01*
X237928Y179142D01*
X238414Y178414D01*
X239142Y177928D01*
X239500Y177856D01*
Y179500D01*
D02*
G37*
G36*
X236644D02*
X235000D01*
Y177856D01*
X235358Y177928D01*
X236086Y178414D01*
X236572Y179142D01*
X236644Y179500D01*
D02*
G37*
G36*
X234000D02*
X232356D01*
X232428Y179142D01*
X232914Y178414D01*
X233642Y177928D01*
X234000Y177856D01*
Y179500D01*
D02*
G37*
G36*
X247644D02*
X246000D01*
Y177856D01*
X246358Y177928D01*
X247086Y178414D01*
X247572Y179142D01*
X247644Y179500D01*
D02*
G37*
G36*
X245000D02*
X243356D01*
X243428Y179142D01*
X243914Y178414D01*
X244642Y177928D01*
X245000Y177856D01*
Y179500D01*
D02*
G37*
G36*
X242144D02*
X240500D01*
Y177856D01*
X240858Y177928D01*
X241586Y178414D01*
X242072Y179142D01*
X242144Y179500D01*
D02*
G37*
G36*
X245000Y182144D02*
X244642Y182072D01*
X243914Y181586D01*
X243428Y180858D01*
X243356Y180500D01*
X245000D01*
Y182144D01*
D02*
G37*
G36*
X240500D02*
Y180500D01*
X242144D01*
X242072Y180858D01*
X241586Y181586D01*
X240858Y182072D01*
X240500Y182144D01*
D02*
G37*
G36*
X239500D02*
X239142Y182072D01*
X238414Y181586D01*
X237928Y180858D01*
X237856Y180500D01*
X239500D01*
Y182144D01*
D02*
G37*
G36*
X252000D02*
Y180500D01*
X253644D01*
X253572Y180858D01*
X253086Y181586D01*
X252358Y182072D01*
X252000Y182144D01*
D02*
G37*
G36*
X251000D02*
X250642Y182072D01*
X249914Y181586D01*
X249428Y180858D01*
X249356Y180500D01*
X251000D01*
Y182144D01*
D02*
G37*
G36*
X246000D02*
Y180500D01*
X247644D01*
X247572Y180858D01*
X247086Y181586D01*
X246358Y182072D01*
X246000Y182144D01*
D02*
G37*
G36*
X158000Y181644D02*
Y180000D01*
X159644D01*
X159572Y180358D01*
X159086Y181086D01*
X158358Y181572D01*
X158000Y181644D01*
D02*
G37*
G36*
X157000D02*
X156642Y181572D01*
X155914Y181086D01*
X155428Y180358D01*
X155356Y180000D01*
X157000D01*
Y181644D01*
D02*
G37*
G36*
X222500Y181644D02*
Y180000D01*
X224144D01*
X224072Y180358D01*
X223586Y181086D01*
X222858Y181572D01*
X222500Y181644D01*
D02*
G37*
G36*
X235000Y182144D02*
Y180500D01*
X236644D01*
X236572Y180858D01*
X236086Y181586D01*
X235358Y182072D01*
X235000Y182144D01*
D02*
G37*
G36*
X234000D02*
X233642Y182072D01*
X232914Y181586D01*
X232428Y180858D01*
X232356Y180500D01*
X234000D01*
Y182144D01*
D02*
G37*
G36*
X181000Y182000D02*
X179356D01*
X179428Y181642D01*
X179914Y180914D01*
X180642Y180428D01*
X181000Y180356D01*
Y182000D01*
D02*
G37*
G36*
X175000Y219031D02*
X174828Y219008D01*
X174202Y218749D01*
X173664Y218336D01*
X173251Y217798D01*
X172992Y217172D01*
X172969Y217000D01*
X175000D01*
Y219031D01*
D02*
G37*
G36*
X169500D02*
Y217000D01*
X171531D01*
X171509Y217172D01*
X171249Y217798D01*
X170836Y218336D01*
X170299Y218749D01*
X169672Y219008D01*
X169500Y219031D01*
D02*
G37*
G36*
X176000D02*
Y217000D01*
X178031D01*
X178008Y217172D01*
X177749Y217798D01*
X177336Y218336D01*
X176798Y218749D01*
X176172Y219008D01*
X176000Y219031D01*
D02*
G37*
G36*
X182500D02*
Y217000D01*
X184531D01*
X184509Y217172D01*
X184249Y217798D01*
X183836Y218336D01*
X183299Y218749D01*
X182672Y219008D01*
X182500Y219031D01*
D02*
G37*
G36*
X181500D02*
X181328Y219008D01*
X180701Y218749D01*
X180164Y218336D01*
X179751Y217798D01*
X179491Y217172D01*
X179469Y217000D01*
X181500D01*
Y219031D01*
D02*
G37*
G36*
X168500D02*
X168328Y219008D01*
X167701Y218749D01*
X167164Y218336D01*
X166751Y217798D01*
X166491Y217172D01*
X166469Y217000D01*
X168500D01*
Y219031D01*
D02*
G37*
G36*
X181500Y216000D02*
X179469D01*
X179491Y215828D01*
X179751Y215201D01*
X180164Y214664D01*
X180701Y214251D01*
X181328Y213991D01*
X181500Y213969D01*
Y216000D01*
D02*
G37*
G36*
X178031D02*
X176000D01*
Y213969D01*
X176172Y213991D01*
X176798Y214251D01*
X177336Y214664D01*
X177749Y215201D01*
X178008Y215828D01*
X178031Y216000D01*
D02*
G37*
G36*
X184531D02*
X182500D01*
Y213969D01*
X182672Y213991D01*
X183299Y214251D01*
X183836Y214664D01*
X184249Y215201D01*
X184509Y215828D01*
X184531Y216000D01*
D02*
G37*
G36*
X255000Y216144D02*
Y214500D01*
X256644D01*
X256572Y214858D01*
X256086Y215586D01*
X255358Y216072D01*
X255000Y216144D01*
D02*
G37*
G36*
X254000D02*
X253642Y216072D01*
X252914Y215586D01*
X252428Y214858D01*
X252356Y214500D01*
X254000D01*
Y216144D01*
D02*
G37*
G36*
X235032Y219500D02*
X233000D01*
X233023Y219328D01*
X233282Y218702D01*
X233695Y218164D01*
X234233Y217751D01*
X234859Y217492D01*
X235032Y217469D01*
Y219500D01*
D02*
G37*
G36*
X168500Y222500D02*
X166469D01*
X166491Y222328D01*
X166751Y221702D01*
X167164Y221164D01*
X167701Y220751D01*
X168328Y220492D01*
X168500Y220469D01*
Y222500D01*
D02*
G37*
G36*
X141500Y220644D02*
Y219000D01*
X143144D01*
X143072Y219358D01*
X142586Y220086D01*
X141858Y220572D01*
X141500Y220644D01*
D02*
G37*
G36*
X171531Y222500D02*
X169500D01*
Y220469D01*
X169672Y220492D01*
X170299Y220751D01*
X170836Y221164D01*
X171249Y221702D01*
X171509Y222328D01*
X171531Y222500D01*
D02*
G37*
G36*
X178031D02*
X176000D01*
Y220469D01*
X176172Y220492D01*
X176798Y220751D01*
X177336Y221164D01*
X177749Y221702D01*
X178008Y222328D01*
X178031Y222500D01*
D02*
G37*
G36*
X175000D02*
X172969D01*
X172992Y222328D01*
X173251Y221702D01*
X173664Y221164D01*
X174202Y220751D01*
X174828Y220492D01*
X175000Y220469D01*
Y222500D01*
D02*
G37*
G36*
X192000Y221937D02*
X191259Y221790D01*
X190630Y221370D01*
X190210Y220741D01*
X190063Y220000D01*
X190210Y219259D01*
X190630Y218630D01*
X191259Y218210D01*
X192000Y218063D01*
X192741Y218210D01*
X193370Y218630D01*
X193790Y219259D01*
X193937Y220000D01*
X193790Y220741D01*
X193370Y221370D01*
X192741Y221790D01*
X192000Y221937D01*
D02*
G37*
G36*
X241032Y219500D02*
X239000D01*
X239023Y219328D01*
X239282Y218702D01*
X239695Y218164D01*
X240233Y217751D01*
X240859Y217492D01*
X241032Y217469D01*
Y219500D01*
D02*
G37*
G36*
X238063D02*
X236032D01*
Y217469D01*
X236204Y217492D01*
X236830Y217751D01*
X237368Y218164D01*
X237781Y218702D01*
X238040Y219328D01*
X238063Y219500D01*
D02*
G37*
G36*
X244063D02*
X242032D01*
Y217469D01*
X242204Y217492D01*
X242830Y217751D01*
X243368Y218164D01*
X243781Y218702D01*
X244040Y219328D01*
X244063Y219500D01*
D02*
G37*
G36*
X250063D02*
X248031D01*
Y217469D01*
X248204Y217492D01*
X248830Y217751D01*
X249368Y218164D01*
X249781Y218702D01*
X250040Y219328D01*
X250063Y219500D01*
D02*
G37*
G36*
X247031D02*
X245000D01*
X245023Y219328D01*
X245282Y218702D01*
X245695Y218164D01*
X246233Y217751D01*
X246859Y217492D01*
X247031Y217469D01*
Y219500D01*
D02*
G37*
G36*
X175000Y216000D02*
X172969D01*
X172992Y215828D01*
X173251Y215201D01*
X173664Y214664D01*
X174202Y214251D01*
X174828Y213991D01*
X175000Y213969D01*
Y216000D01*
D02*
G37*
G36*
X213500Y203144D02*
X213142Y203072D01*
X212414Y202586D01*
X211928Y201858D01*
X211856Y201500D01*
X213500D01*
Y203144D01*
D02*
G37*
G36*
X230500Y202144D02*
Y200500D01*
X232144D01*
X232072Y200858D01*
X231586Y201586D01*
X230858Y202072D01*
X230500Y202144D01*
D02*
G37*
G36*
X214500Y203144D02*
Y201500D01*
X216144D01*
X216072Y201858D01*
X215586Y202586D01*
X214858Y203072D01*
X214500Y203144D01*
D02*
G37*
G36*
X191469Y204175D02*
X191110Y204104D01*
X190382Y203618D01*
X189896Y202890D01*
X189825Y202532D01*
X191469D01*
Y204175D01*
D02*
G37*
G36*
X148031Y205469D02*
X147290Y205321D01*
X146662Y204901D01*
X146242Y204273D01*
X146094Y203532D01*
X146242Y202790D01*
X146662Y202162D01*
X147290Y201742D01*
X148031Y201594D01*
X148773Y201742D01*
X149401Y202162D01*
X149821Y202790D01*
X149969Y203532D01*
X149821Y204273D01*
X149401Y204901D01*
X148773Y205321D01*
X148031Y205469D01*
D02*
G37*
G36*
X229500Y202144D02*
X229142Y202072D01*
X228414Y201586D01*
X227928Y200858D01*
X227856Y200500D01*
X229500D01*
Y202144D01*
D02*
G37*
G36*
X133000Y200644D02*
Y199000D01*
X134644D01*
X134572Y199358D01*
X134086Y200086D01*
X133358Y200572D01*
X133000Y200644D01*
D02*
G37*
G36*
X132000D02*
X131642Y200572D01*
X130914Y200086D01*
X130428Y199358D01*
X130356Y199000D01*
X132000D01*
Y200644D01*
D02*
G37*
G36*
X194112Y201532D02*
X192469D01*
Y199888D01*
X192827Y199959D01*
X193555Y200445D01*
X194041Y201173D01*
X194112Y201532D01*
D02*
G37*
G36*
X155500Y202144D02*
Y200500D01*
X157144D01*
X157072Y200858D01*
X156586Y201586D01*
X155858Y202072D01*
X155500Y202144D01*
D02*
G37*
G36*
X154500D02*
X154142Y202072D01*
X153414Y201586D01*
X152928Y200858D01*
X152856Y200500D01*
X154500D01*
Y202144D01*
D02*
G37*
G36*
X192469Y204175D02*
Y202532D01*
X194112D01*
X194041Y202890D01*
X193555Y203618D01*
X192827Y204104D01*
X192469Y204175D01*
D02*
G37*
G36*
X155500Y211144D02*
Y209500D01*
X157144D01*
X157072Y209858D01*
X156586Y210586D01*
X155858Y211072D01*
X155500Y211144D01*
D02*
G37*
G36*
X154500D02*
X154142Y211072D01*
X153414Y210586D01*
X152928Y209858D01*
X152856Y209500D01*
X154500D01*
Y211144D01*
D02*
G37*
G36*
X151000Y214937D02*
X150259Y214790D01*
X149630Y214370D01*
X149210Y213741D01*
X149063Y213000D01*
X149210Y212259D01*
X149630Y211630D01*
X150259Y211210D01*
X151000Y211063D01*
X151741Y211210D01*
X152370Y211630D01*
X152790Y212259D01*
X152937Y213000D01*
X152790Y213741D01*
X152370Y214370D01*
X151741Y214790D01*
X151000Y214937D01*
D02*
G37*
G36*
X171531Y216000D02*
X169500D01*
Y213969D01*
X169672Y213991D01*
X170299Y214251D01*
X170836Y214664D01*
X171249Y215201D01*
X171509Y215828D01*
X171531Y216000D01*
D02*
G37*
G36*
X168500D02*
X166469D01*
X166491Y215828D01*
X166751Y215201D01*
X167164Y214664D01*
X167701Y214251D01*
X168328Y213991D01*
X168500Y213969D01*
Y216000D01*
D02*
G37*
G36*
X213500Y210000D02*
X211856D01*
X211928Y209642D01*
X212414Y208914D01*
X213142Y208428D01*
X213500Y208356D01*
Y210000D01*
D02*
G37*
G36*
X184890Y208547D02*
X184148Y208400D01*
X183520Y207980D01*
X183100Y207352D01*
X182952Y206610D01*
X183100Y205869D01*
X183520Y205240D01*
X184148Y204820D01*
X184890Y204673D01*
X185631Y204820D01*
X186260Y205240D01*
X186679Y205869D01*
X186827Y206610D01*
X186679Y207352D01*
X186260Y207980D01*
X185631Y208400D01*
X184890Y208547D01*
D02*
G37*
G36*
X166642D02*
X165900Y208400D01*
X165272Y207980D01*
X164852Y207352D01*
X164705Y206610D01*
X164852Y205869D01*
X165272Y205240D01*
X165900Y204820D01*
X166642Y204673D01*
X167383Y204820D01*
X168012Y205240D01*
X168431Y205869D01*
X168579Y206610D01*
X168431Y207352D01*
X168012Y207980D01*
X167383Y208400D01*
X166642Y208547D01*
D02*
G37*
G36*
X145500Y209437D02*
X144759Y209290D01*
X144130Y208870D01*
X143710Y208241D01*
X143563Y207500D01*
X143710Y206759D01*
X144130Y206130D01*
X144759Y205710D01*
X145500Y205563D01*
X146241Y205710D01*
X146870Y206130D01*
X147290Y206759D01*
X147437Y207500D01*
X147290Y208241D01*
X146870Y208870D01*
X146241Y209290D01*
X145500Y209437D01*
D02*
G37*
G36*
X157144Y208500D02*
X155500D01*
Y206856D01*
X155858Y206928D01*
X156586Y207414D01*
X157072Y208142D01*
X157144Y208500D01*
D02*
G37*
G36*
X154500D02*
X152856D01*
X152928Y208142D01*
X153414Y207414D01*
X154142Y206928D01*
X154500Y206856D01*
Y208500D01*
D02*
G37*
G36*
X159644Y179000D02*
X158000D01*
Y177356D01*
X158358Y177428D01*
X159086Y177914D01*
X159572Y178642D01*
X159644Y179000D01*
D02*
G37*
G36*
X256500Y145500D02*
X254856D01*
X254928Y145142D01*
X255414Y144414D01*
X256142Y143928D01*
X256500Y143856D01*
Y145500D01*
D02*
G37*
G36*
X224000Y147437D02*
X223259Y147290D01*
X222630Y146870D01*
X222210Y146241D01*
X222063Y145500D01*
X222210Y144759D01*
X222630Y144130D01*
X223259Y143710D01*
X224000Y143563D01*
X224741Y143710D01*
X225370Y144130D01*
X225790Y144759D01*
X225937Y145500D01*
X225790Y146241D01*
X225370Y146870D01*
X224741Y147290D01*
X224000Y147437D01*
D02*
G37*
G36*
X112500Y145650D02*
Y142000D01*
X116150D01*
Y145650D01*
X112500D01*
D02*
G37*
G36*
X132968Y147112D02*
X132610Y147041D01*
X131882Y146555D01*
X131750Y146356D01*
X131250D01*
X131118Y146555D01*
X130390Y147041D01*
X130032Y147112D01*
Y144968D01*
X129532D01*
Y144468D01*
X127388D01*
X127459Y144110D01*
X127945Y143382D01*
X128144Y143250D01*
Y142750D01*
X127945Y142618D01*
X127459Y141890D01*
X127388Y141532D01*
X129532D01*
Y141032D01*
X130032D01*
Y138888D01*
X130390Y138959D01*
X131118Y139445D01*
X131250Y139644D01*
X131750D01*
X131882Y139445D01*
X132610Y138959D01*
X132968Y138888D01*
Y141032D01*
X133468D01*
Y141532D01*
X135612D01*
X135541Y141890D01*
X135055Y142618D01*
X134856Y142750D01*
Y143250D01*
X135055Y143382D01*
X135541Y144110D01*
X135612Y144468D01*
X133468D01*
Y144968D01*
X132968D01*
Y147112D01*
D02*
G37*
G36*
X133968D02*
Y145468D01*
X135612D01*
X135541Y145827D01*
X135055Y146555D01*
X134327Y147041D01*
X133968Y147112D01*
D02*
G37*
G36*
X129032Y147112D02*
X128673Y147041D01*
X127945Y146555D01*
X127459Y145827D01*
X127388Y145468D01*
X129032D01*
Y147112D01*
D02*
G37*
G36*
X129032Y140532D02*
X127388D01*
X127459Y140173D01*
X127945Y139445D01*
X128673Y138959D01*
X129032Y138888D01*
Y140532D01*
D02*
G37*
G36*
X251000Y140144D02*
Y138500D01*
X252644D01*
X252572Y138858D01*
X252086Y139586D01*
X251358Y140072D01*
X251000Y140144D01*
D02*
G37*
G36*
X250000D02*
X249642Y140072D01*
X248914Y139586D01*
X248428Y138858D01*
X248356Y138500D01*
X250000D01*
Y140144D01*
D02*
G37*
G36*
X188500Y144937D02*
X187759Y144790D01*
X187130Y144370D01*
X186710Y143741D01*
X186563Y143000D01*
X186710Y142259D01*
X187130Y141630D01*
X187759Y141210D01*
X188500Y141063D01*
X189241Y141210D01*
X189870Y141630D01*
X190290Y142259D01*
X190437Y143000D01*
X190290Y143741D01*
X189870Y144370D01*
X189241Y144790D01*
X188500Y144937D01*
D02*
G37*
G36*
X256500Y142644D02*
X256142Y142572D01*
X255414Y142086D01*
X254928Y141358D01*
X254856Y141000D01*
X256500D01*
Y142644D01*
D02*
G37*
G36*
X135612Y140532D02*
X133968D01*
Y138888D01*
X134327Y138959D01*
X135055Y139445D01*
X135541Y140173D01*
X135612Y140532D01*
D02*
G37*
G36*
X233112Y151532D02*
X231469D01*
Y149888D01*
X231827Y149959D01*
X232555Y150445D01*
X233041Y151173D01*
X233112Y151532D01*
D02*
G37*
G36*
X181000Y151144D02*
Y149500D01*
X182644D01*
X182572Y149858D01*
X182086Y150586D01*
X181358Y151072D01*
X181000Y151144D01*
D02*
G37*
G36*
X180000D02*
X179642Y151072D01*
X178914Y150586D01*
X178428Y149858D01*
X178356Y149500D01*
X180000D01*
Y151144D01*
D02*
G37*
G36*
X245175Y152532D02*
X243531D01*
Y150888D01*
X243890Y150959D01*
X244618Y151445D01*
X245104Y152173D01*
X245175Y152532D01*
D02*
G37*
G36*
X242531D02*
X240888D01*
X240959Y152173D01*
X241445Y151445D01*
X242173Y150959D01*
X242531Y150888D01*
Y152532D01*
D02*
G37*
G36*
X214031Y152500D02*
X212000D01*
Y150469D01*
X212172Y150491D01*
X212799Y150751D01*
X213336Y151164D01*
X213749Y151701D01*
X214008Y152328D01*
X214031Y152500D01*
D02*
G37*
G36*
X182644Y148500D02*
X181000D01*
Y146856D01*
X181358Y146928D01*
X182086Y147414D01*
X182572Y148142D01*
X182644Y148500D01*
D02*
G37*
G36*
X180000D02*
X178356D01*
X178428Y148142D01*
X178914Y147414D01*
X179642Y146928D01*
X180000Y146856D01*
Y148500D01*
D02*
G37*
G36*
X256500Y148144D02*
X256142Y148072D01*
X255414Y147586D01*
X254928Y146858D01*
X254856Y146500D01*
X256500D01*
Y148144D01*
D02*
G37*
G36*
Y151000D02*
X254856D01*
X254928Y150642D01*
X255414Y149914D01*
X256142Y149428D01*
X256500Y149356D01*
Y151000D01*
D02*
G37*
G36*
X253644D02*
X252000D01*
Y149356D01*
X252358Y149428D01*
X253086Y149914D01*
X253572Y150642D01*
X253644Y151000D01*
D02*
G37*
G36*
X251000D02*
X249356D01*
X249428Y150642D01*
X249914Y149914D01*
X250642Y149428D01*
X251000Y149356D01*
Y151000D01*
D02*
G37*
G36*
X215644Y135500D02*
X214000D01*
Y133856D01*
X214358Y133928D01*
X215086Y134414D01*
X215572Y135142D01*
X215644Y135500D01*
D02*
G37*
G36*
X213000D02*
X211356D01*
X211428Y135142D01*
X211914Y134414D01*
X212642Y133928D01*
X213000Y133856D01*
Y135500D01*
D02*
G37*
G36*
X110000Y134937D02*
X109259Y134790D01*
X108630Y134370D01*
X108210Y133741D01*
X108063Y133000D01*
X108210Y132259D01*
X108630Y131630D01*
X109259Y131210D01*
X110000Y131063D01*
X110741Y131210D01*
X111370Y131630D01*
X111790Y132259D01*
X111937Y133000D01*
X111790Y133741D01*
X111370Y134370D01*
X110741Y134790D01*
X110000Y134937D01*
D02*
G37*
G36*
X141500Y137000D02*
X139856D01*
X139928Y136642D01*
X140414Y135914D01*
X141142Y135428D01*
X141500Y135356D01*
Y137000D01*
D02*
G37*
G36*
X223175Y136969D02*
X221532D01*
Y135325D01*
X221890Y135396D01*
X222618Y135882D01*
X223104Y136610D01*
X223175Y136969D01*
D02*
G37*
G36*
X220532D02*
X218888D01*
X218959Y136610D01*
X219445Y135882D01*
X220173Y135396D01*
X220532Y135325D01*
Y136969D01*
D02*
G37*
G36*
X148644Y128500D02*
X147000D01*
Y126856D01*
X147358Y126928D01*
X148086Y127414D01*
X148572Y128142D01*
X148644Y128500D01*
D02*
G37*
G36*
X146000D02*
X144356D01*
X144428Y128142D01*
X144914Y127414D01*
X145642Y126928D01*
X146000Y126856D01*
Y128500D01*
D02*
G37*
G36*
X226675Y123531D02*
X225031D01*
Y121888D01*
X225390Y121959D01*
X226118Y122445D01*
X226604Y123173D01*
X226675Y123531D01*
D02*
G37*
G36*
X147000Y131144D02*
Y129500D01*
X148644D01*
X148572Y129858D01*
X148086Y130586D01*
X147358Y131072D01*
X147000Y131144D01*
D02*
G37*
G36*
X146000D02*
X145642Y131072D01*
X144914Y130586D01*
X144428Y129858D01*
X144356Y129500D01*
X146000D01*
Y131144D01*
D02*
G37*
G36*
X118000Y131437D02*
X117259Y131290D01*
X116630Y130870D01*
X116210Y130241D01*
X116063Y129500D01*
X116210Y128759D01*
X116630Y128130D01*
X117259Y127710D01*
X118000Y127563D01*
X118741Y127710D01*
X119370Y128130D01*
X119790Y128759D01*
X119937Y129500D01*
X119790Y130241D01*
X119370Y130870D01*
X118741Y131290D01*
X118000Y131437D01*
D02*
G37*
G36*
X221532Y139612D02*
Y137969D01*
X223175D01*
X223104Y138327D01*
X222618Y139055D01*
X221890Y139541D01*
X221532Y139612D01*
D02*
G37*
G36*
X220532D02*
X220173Y139541D01*
X219445Y139055D01*
X218959Y138327D01*
X218888Y137969D01*
X220532D01*
Y139612D01*
D02*
G37*
G36*
X116150Y141000D02*
X112500D01*
Y137350D01*
X116150D01*
Y141000D01*
D02*
G37*
G36*
X256500Y140000D02*
X254856D01*
X254928Y139642D01*
X255414Y138914D01*
X256142Y138428D01*
X256500Y138356D01*
Y140000D01*
D02*
G37*
G36*
X142500Y139644D02*
Y138000D01*
X144144D01*
X144072Y138358D01*
X143586Y139086D01*
X142858Y139572D01*
X142500Y139644D01*
D02*
G37*
G36*
X141500D02*
X141142Y139572D01*
X140414Y139086D01*
X139928Y138358D01*
X139856Y138000D01*
X141500D01*
Y139644D01*
D02*
G37*
G36*
X252644Y137500D02*
X251000D01*
Y135856D01*
X251358Y135928D01*
X252086Y136414D01*
X252572Y137142D01*
X252644Y137500D01*
D02*
G37*
G36*
X250000D02*
X248356D01*
X248428Y137142D01*
X248914Y136414D01*
X249642Y135928D01*
X250000Y135856D01*
Y137500D01*
D02*
G37*
G36*
X144144Y137000D02*
X142500D01*
Y135356D01*
X142858Y135428D01*
X143586Y135914D01*
X144072Y136642D01*
X144144Y137000D01*
D02*
G37*
G36*
X111500Y141000D02*
X107850D01*
Y137350D01*
X111500D01*
Y141000D01*
D02*
G37*
G36*
X214000Y138144D02*
Y136500D01*
X215644D01*
X215572Y136858D01*
X215086Y137586D01*
X214358Y138072D01*
X214000Y138144D01*
D02*
G37*
G36*
X213000D02*
X212642Y138072D01*
X211914Y137586D01*
X211428Y136858D01*
X211356Y136500D01*
X213000D01*
Y138144D01*
D02*
G37*
G36*
X256500Y171144D02*
X256142Y171072D01*
X255414Y170586D01*
X254928Y169858D01*
X254856Y169500D01*
X256500D01*
Y171144D01*
D02*
G37*
G36*
X252500D02*
Y169500D01*
X254144D01*
X254072Y169858D01*
X253586Y170586D01*
X252858Y171072D01*
X252500Y171144D01*
D02*
G37*
G36*
X251500D02*
X251142Y171072D01*
X250414Y170586D01*
X249928Y169858D01*
X249856Y169500D01*
X251500D01*
Y171144D01*
D02*
G37*
G36*
X189000Y174937D02*
X188259Y174790D01*
X187630Y174370D01*
X187210Y173741D01*
X187063Y173000D01*
X187210Y172259D01*
X187630Y171630D01*
X188259Y171210D01*
X189000Y171063D01*
X189741Y171210D01*
X190370Y171630D01*
X190790Y172259D01*
X190937Y173000D01*
X190790Y173741D01*
X190370Y174370D01*
X189741Y174790D01*
X189000Y174937D01*
D02*
G37*
G36*
X243531Y172612D02*
Y170968D01*
X245175D01*
X245104Y171327D01*
X244618Y172055D01*
X243890Y172541D01*
X243531Y172612D01*
D02*
G37*
G36*
X242531D02*
X242173Y172541D01*
X241445Y172055D01*
X240959Y171327D01*
X240888Y170968D01*
X242531D01*
Y172612D01*
D02*
G37*
G36*
X239000Y169644D02*
Y168000D01*
X240644D01*
X240572Y168358D01*
X240086Y169086D01*
X239358Y169572D01*
X239000Y169644D01*
D02*
G37*
G36*
X256500Y168500D02*
X254856D01*
X254928Y168142D01*
X255414Y167414D01*
X256142Y166928D01*
X256500Y166856D01*
Y168500D01*
D02*
G37*
G36*
X254144D02*
X252500D01*
Y166856D01*
X252858Y166928D01*
X253586Y167414D01*
X254072Y168142D01*
X254144Y168500D01*
D02*
G37*
G36*
X234000Y170644D02*
X233642Y170572D01*
X232914Y170086D01*
X232428Y169358D01*
X232356Y169000D01*
X234000D01*
Y170644D01*
D02*
G37*
G36*
X245175Y169968D02*
X243531D01*
Y168325D01*
X243890Y168396D01*
X244618Y168882D01*
X245104Y169610D01*
X245175Y169968D01*
D02*
G37*
G36*
X242531D02*
X240888D01*
X240959Y169610D01*
X241445Y168882D01*
X242173Y168396D01*
X242531Y168325D01*
Y169968D01*
D02*
G37*
G36*
X256500Y176644D02*
X256142Y176572D01*
X255414Y176086D01*
X254928Y175358D01*
X254856Y175000D01*
X256500D01*
Y176644D01*
D02*
G37*
G36*
X235000Y176144D02*
Y174500D01*
X236644D01*
X236572Y174858D01*
X236086Y175586D01*
X235358Y176072D01*
X235000Y176144D01*
D02*
G37*
G36*
X234000D02*
X233642Y176072D01*
X232914Y175586D01*
X232428Y174858D01*
X232356Y174500D01*
X234000D01*
Y176144D01*
D02*
G37*
G36*
X157000Y179000D02*
X155356D01*
X155428Y178642D01*
X155914Y177914D01*
X156642Y177428D01*
X157000Y177356D01*
Y179000D01*
D02*
G37*
G36*
X134644Y178000D02*
X133000D01*
Y176356D01*
X133358Y176428D01*
X134086Y176914D01*
X134572Y177642D01*
X134644Y178000D01*
D02*
G37*
G36*
X132000D02*
X130356D01*
X130428Y177642D01*
X130914Y176914D01*
X131642Y176428D01*
X132000Y176356D01*
Y178000D01*
D02*
G37*
G36*
X234000Y173500D02*
X232356D01*
X232428Y173142D01*
X232914Y172414D01*
X233642Y171928D01*
X234000Y171856D01*
Y173500D01*
D02*
G37*
G36*
X226644Y173000D02*
X225000D01*
Y171356D01*
X225358Y171428D01*
X226086Y171914D01*
X226572Y172642D01*
X226644Y173000D01*
D02*
G37*
G36*
X224000D02*
X222356D01*
X222428Y172642D01*
X222914Y171914D01*
X223642Y171428D01*
X224000Y171356D01*
Y173000D01*
D02*
G37*
G36*
X224144Y179000D02*
X219856D01*
X219928Y178642D01*
X220414Y177914D01*
X220763Y177680D01*
X220888Y177007D01*
X220710Y176741D01*
X220563Y176000D01*
X220710Y175259D01*
X221130Y174630D01*
X221759Y174210D01*
X222027Y174157D01*
X222132Y174000D01*
X226644D01*
X226572Y174358D01*
X226086Y175086D01*
X225358Y175572D01*
X224500Y175743D01*
X224391Y176231D01*
X224290Y176741D01*
X223870Y177370D01*
X223586Y177559D01*
Y177914D01*
X224072Y178642D01*
X224144Y179000D01*
D02*
G37*
G36*
X256500Y174000D02*
X254856D01*
X254928Y173642D01*
X255414Y172914D01*
X256142Y172428D01*
X256500Y172356D01*
Y174000D01*
D02*
G37*
G36*
X236644Y173500D02*
X235000D01*
Y171856D01*
X235358Y171928D01*
X236086Y172414D01*
X236572Y173142D01*
X236644Y173500D01*
D02*
G37*
G36*
X256500Y156500D02*
X254856D01*
X254928Y156142D01*
X255414Y155414D01*
X256142Y154928D01*
X256500Y154856D01*
Y156500D01*
D02*
G37*
G36*
X243531Y155175D02*
Y153532D01*
X245175D01*
X245104Y153890D01*
X244618Y154618D01*
X243890Y155104D01*
X243531Y155175D01*
D02*
G37*
G36*
X242531D02*
X242173Y155104D01*
X241445Y154618D01*
X240959Y153890D01*
X240888Y153532D01*
X242531D01*
Y155175D01*
D02*
G37*
G36*
X256500Y159144D02*
X256142Y159072D01*
X255414Y158586D01*
X255120Y158147D01*
Y158147D01*
X255103Y158121D01*
X255102Y158122D01*
X255091Y158127D01*
X255079Y158132D01*
X254644Y158312D01*
X254634Y158316D01*
X254633Y158316D01*
X254632Y158317D01*
X254642Y158363D01*
Y158363D01*
X254675Y158531D01*
X253031D01*
Y156888D01*
X253390Y156959D01*
X254118Y157445D01*
X254411Y157885D01*
Y157885D01*
X254428Y157910D01*
X254430Y157909D01*
X254441Y157905D01*
X254453Y157900D01*
X254888Y157720D01*
X254897Y157716D01*
X254899Y157715D01*
X254899Y157715D01*
X254890Y157669D01*
Y157669D01*
X254856Y157500D01*
X256500D01*
Y159144D01*
D02*
G37*
G36*
X252031Y158531D02*
X250388D01*
X250459Y158173D01*
X250945Y157445D01*
X251673Y156959D01*
X252031Y156888D01*
Y158531D01*
D02*
G37*
G36*
X214031Y158500D02*
X212000D01*
Y156469D01*
X212172Y156491D01*
X212799Y156751D01*
X213336Y157164D01*
X213749Y157702D01*
X214008Y158328D01*
X214031Y158500D01*
D02*
G37*
G36*
X256500Y153644D02*
X256142Y153572D01*
X255414Y153086D01*
X254928Y152358D01*
X254856Y152000D01*
X256500D01*
Y153644D01*
D02*
G37*
G36*
X252000D02*
Y152000D01*
X253644D01*
X253572Y152358D01*
X253086Y153086D01*
X252358Y153572D01*
X252000Y153644D01*
D02*
G37*
G36*
X251000D02*
X250642Y153572D01*
X249914Y153086D01*
X249428Y152358D01*
X249356Y152000D01*
X251000D01*
Y153644D01*
D02*
G37*
G36*
X212000Y155531D02*
Y153500D01*
X214031D01*
X214008Y153672D01*
X213749Y154298D01*
X213336Y154836D01*
X212799Y155249D01*
X212172Y155508D01*
X212000Y155531D01*
D02*
G37*
G36*
X230469Y154175D02*
X230110Y154104D01*
X229382Y153618D01*
X229321Y153526D01*
X228694Y153487D01*
X228241Y153790D01*
X227500Y153937D01*
X226759Y153790D01*
X226130Y153370D01*
X225710Y152741D01*
X225563Y152000D01*
X225710Y151259D01*
X226130Y150630D01*
X226759Y150210D01*
X227500Y150063D01*
X228241Y150210D01*
X228723Y150532D01*
X229342Y150506D01*
X229382Y150445D01*
X230110Y149959D01*
X230469Y149888D01*
Y152032D01*
Y154175D01*
D02*
G37*
G36*
X231469D02*
Y152532D01*
X233112D01*
X233041Y152890D01*
X232555Y153618D01*
X231827Y154104D01*
X231469Y154175D01*
D02*
G37*
G36*
X212000Y167531D02*
Y165500D01*
X214031D01*
X214008Y165672D01*
X213749Y166298D01*
X213336Y166836D01*
X212799Y167249D01*
X212172Y167508D01*
X212000Y167531D01*
D02*
G37*
G36*
X240644Y167000D02*
X239000D01*
Y165356D01*
X239358Y165428D01*
X240086Y165914D01*
X240572Y166642D01*
X240644Y167000D01*
D02*
G37*
G36*
X235000Y170644D02*
Y168500D01*
Y166356D01*
X235358Y166428D01*
X235890Y166783D01*
X236399Y166649D01*
X236453Y166604D01*
X236914Y165914D01*
X237642Y165428D01*
X238000Y165356D01*
Y167500D01*
Y169644D01*
X237642Y169572D01*
X237110Y169217D01*
X236601Y169351D01*
X236547Y169396D01*
X236086Y170086D01*
X235358Y170572D01*
X235000Y170644D01*
D02*
G37*
G36*
X251500Y168500D02*
X249856D01*
X249928Y168142D01*
X250414Y167414D01*
X251142Y166928D01*
X251500Y166856D01*
Y168500D01*
D02*
G37*
G36*
X234000Y168000D02*
X232356D01*
X232428Y167642D01*
X232914Y166914D01*
X233642Y166428D01*
X234000Y166356D01*
Y168000D01*
D02*
G37*
G36*
X181000D02*
X179356D01*
X179428Y167642D01*
X179914Y166914D01*
X180642Y166428D01*
X181000Y166356D01*
Y168000D01*
D02*
G37*
G36*
X253031Y161175D02*
Y159531D01*
X254675D01*
X254604Y159890D01*
X254118Y160618D01*
X253390Y161104D01*
X253031Y161175D01*
D02*
G37*
G36*
X252031D02*
X251673Y161104D01*
X250945Y160618D01*
X250459Y159890D01*
X250388Y159531D01*
X252031D01*
Y161175D01*
D02*
G37*
G36*
X212000Y161531D02*
Y159500D01*
X214031D01*
X214008Y159672D01*
X213749Y160299D01*
X213336Y160836D01*
X212799Y161249D01*
X212172Y161509D01*
X212000Y161531D01*
D02*
G37*
G36*
X230000Y168437D02*
X229259Y168290D01*
X228630Y167870D01*
X228210Y167241D01*
X228063Y166500D01*
X228210Y165759D01*
X228630Y165130D01*
X229259Y164710D01*
X230000Y164563D01*
X230741Y164710D01*
X231370Y165130D01*
X231790Y165759D01*
X231937Y166500D01*
X231790Y167241D01*
X231370Y167870D01*
X230741Y168290D01*
X230000Y168437D01*
D02*
G37*
G36*
X214031Y164500D02*
X212000D01*
Y162469D01*
X212172Y162492D01*
X212799Y162751D01*
X213336Y163164D01*
X213749Y163701D01*
X214008Y164328D01*
X214031Y164500D01*
D02*
G37*
G36*
X199000D02*
X196969D01*
X196992Y164328D01*
X197251Y163701D01*
X197664Y163164D01*
X198202Y162751D01*
X198828Y162492D01*
X199000Y162469D01*
Y164500D01*
D02*
G37*
G36*
X290500Y261000D02*
X288856D01*
X288928Y260642D01*
X289414Y259914D01*
X290142Y259428D01*
X290500Y259356D01*
Y261000D01*
D02*
G37*
G36*
X287644D02*
X286000D01*
Y259356D01*
X286358Y259428D01*
X287086Y259914D01*
X287572Y260642D01*
X287644Y261000D01*
D02*
G37*
G36*
X293144D02*
X291500D01*
Y259356D01*
X291858Y259428D01*
X292586Y259914D01*
X293072Y260642D01*
X293144Y261000D01*
D02*
G37*
G36*
X244000Y262644D02*
X243642Y262572D01*
X242914Y262086D01*
X242428Y261358D01*
X242356Y261000D01*
X244000D01*
Y262644D01*
D02*
G37*
G36*
X132644Y261500D02*
X131000D01*
Y259856D01*
X131358Y259928D01*
X132086Y260414D01*
X132572Y261142D01*
X132644Y261500D01*
D02*
G37*
G36*
X285000Y261000D02*
X283356D01*
X283428Y260642D01*
X283914Y259914D01*
X284642Y259428D01*
X285000Y259356D01*
Y261000D01*
D02*
G37*
G36*
X274000D02*
X272356D01*
X272428Y260642D01*
X272914Y259914D01*
X273642Y259428D01*
X274000Y259356D01*
Y261000D01*
D02*
G37*
G36*
X271144D02*
X269500D01*
Y259356D01*
X269858Y259428D01*
X270586Y259914D01*
X271072Y260642D01*
X271144Y261000D01*
D02*
G37*
G36*
X276644D02*
X275000D01*
Y259356D01*
X275358Y259428D01*
X276086Y259914D01*
X276572Y260642D01*
X276644Y261000D01*
D02*
G37*
G36*
X282144D02*
X280500D01*
Y259356D01*
X280858Y259428D01*
X281586Y259914D01*
X282072Y260642D01*
X282144Y261000D01*
D02*
G37*
G36*
X279500D02*
X277856D01*
X277928Y260642D01*
X278414Y259914D01*
X279142Y259428D01*
X279500Y259356D01*
Y261000D01*
D02*
G37*
G36*
X245000Y262644D02*
Y261000D01*
X246644D01*
X246572Y261358D01*
X246086Y262086D01*
X245358Y262572D01*
X245000Y262644D01*
D02*
G37*
G36*
X275000Y263644D02*
Y262000D01*
X276644D01*
X276572Y262358D01*
X276086Y263086D01*
X275358Y263572D01*
X275000Y263644D01*
D02*
G37*
G36*
X274000D02*
X273642Y263572D01*
X272914Y263086D01*
X272428Y262358D01*
X272356Y262000D01*
X274000D01*
Y263644D01*
D02*
G37*
G36*
X279500D02*
X279142Y263572D01*
X278414Y263086D01*
X277928Y262358D01*
X277856Y262000D01*
X279500D01*
Y263644D01*
D02*
G37*
G36*
X285000D02*
X284642Y263572D01*
X283914Y263086D01*
X283428Y262358D01*
X283356Y262000D01*
X285000D01*
Y263644D01*
D02*
G37*
G36*
X280500D02*
Y262000D01*
X282144D01*
X282072Y262358D01*
X281586Y263086D01*
X280858Y263572D01*
X280500Y263644D01*
D02*
G37*
G36*
X269500D02*
Y262000D01*
X271144D01*
X271072Y262358D01*
X270586Y263086D01*
X269858Y263572D01*
X269500Y263644D01*
D02*
G37*
G36*
X258500D02*
Y262000D01*
X260144D01*
X260072Y262358D01*
X259586Y263086D01*
X258858Y263572D01*
X258500Y263644D01*
D02*
G37*
G36*
X257500D02*
X257142Y263572D01*
X256414Y263086D01*
X255928Y262358D01*
X255856Y262000D01*
X257500D01*
Y263644D01*
D02*
G37*
G36*
X263000D02*
X262642Y263572D01*
X261914Y263086D01*
X261428Y262358D01*
X261356Y262000D01*
X263000D01*
Y263644D01*
D02*
G37*
G36*
X268500D02*
X268142Y263572D01*
X267414Y263086D01*
X266928Y262358D01*
X266856Y262000D01*
X268500D01*
Y263644D01*
D02*
G37*
G36*
X264000D02*
Y262000D01*
X265644D01*
X265572Y262358D01*
X265086Y263086D01*
X264358Y263572D01*
X264000Y263644D01*
D02*
G37*
G36*
X268500Y261000D02*
X266856D01*
X266928Y260642D01*
X267414Y259914D01*
X268142Y259428D01*
X268500Y259356D01*
Y261000D01*
D02*
G37*
G36*
X253500Y255144D02*
Y253500D01*
X255144D01*
X255072Y253858D01*
X254586Y254586D01*
X253858Y255072D01*
X253500Y255144D01*
D02*
G37*
G36*
X132644Y254500D02*
X131000D01*
Y252856D01*
X131358Y252928D01*
X132086Y253414D01*
X132572Y254142D01*
X132644Y254500D01*
D02*
G37*
G36*
X257000Y256000D02*
X255356D01*
X255428Y255642D01*
X255914Y254914D01*
X256642Y254428D01*
X257000Y254356D01*
Y256000D01*
D02*
G37*
G36*
X247969Y256112D02*
X247610Y256041D01*
X246882Y255555D01*
X246396Y254827D01*
X246325Y254468D01*
X247969D01*
Y256112D01*
D02*
G37*
G36*
X259644Y256000D02*
X258000D01*
Y254356D01*
X258358Y254428D01*
X259086Y254914D01*
X259572Y255642D01*
X259644Y256000D01*
D02*
G37*
G36*
X258500Y252644D02*
Y251000D01*
X260144D01*
X260072Y251358D01*
X259586Y252086D01*
X258858Y252572D01*
X258500Y252644D01*
D02*
G37*
G36*
X277563Y250612D02*
Y248969D01*
X279207D01*
X279135Y249327D01*
X278649Y250055D01*
X277921Y250541D01*
X277563Y250612D01*
D02*
G37*
G36*
X276563D02*
X276205Y250541D01*
X275477Y250055D01*
X274991Y249327D01*
X274919Y248969D01*
X276563D01*
Y250612D01*
D02*
G37*
G36*
X248969Y256112D02*
Y253969D01*
X248468D01*
Y253468D01*
X246325D01*
X246396Y253110D01*
X246882Y252382D01*
X247330Y252083D01*
X247330Y251482D01*
X247162Y251370D01*
X246742Y250741D01*
X246594Y250000D01*
X246742Y249259D01*
X247162Y248630D01*
X247790Y248210D01*
X248532Y248063D01*
X249273Y248210D01*
X249901Y248630D01*
X250321Y249259D01*
X250469Y250000D01*
X250321Y250741D01*
X249901Y251370D01*
X249670Y251524D01*
X249670Y252126D01*
X250055Y252382D01*
X250298Y252746D01*
X250828Y252641D01*
X250928Y252142D01*
X251414Y251414D01*
X252142Y250928D01*
X252500Y250856D01*
Y253000D01*
Y255144D01*
X252142Y255072D01*
X251414Y254586D01*
X251171Y254222D01*
X250640Y254328D01*
X250541Y254827D01*
X250055Y255555D01*
X249327Y256041D01*
X248969Y256112D01*
D02*
G37*
G36*
X257500Y252644D02*
X257142Y252572D01*
X256414Y252086D01*
X255928Y251358D01*
X255856Y251000D01*
X257500D01*
Y252644D01*
D02*
G37*
G36*
X255144Y252500D02*
X253500D01*
Y250856D01*
X253858Y250928D01*
X254586Y251414D01*
X255072Y252142D01*
X255144Y252500D01*
D02*
G37*
G36*
X234144Y257000D02*
X229856D01*
X229928Y256642D01*
X230414Y255914D01*
X230367Y255437D01*
X229959Y254827D01*
X229888Y254468D01*
X234175D01*
X234104Y254827D01*
X233720Y255402D01*
X233586Y255914D01*
X234072Y256642D01*
X234144Y257000D01*
D02*
G37*
G36*
X257500Y261000D02*
X255856D01*
X255928Y260642D01*
X256414Y259914D01*
X257142Y259428D01*
X257500Y259356D01*
Y261000D01*
D02*
G37*
G36*
X238144D02*
X236500D01*
Y259356D01*
X236858Y259428D01*
X237586Y259914D01*
X238072Y260642D01*
X238144Y261000D01*
D02*
G37*
G36*
X260144D02*
X258500D01*
Y259356D01*
X258858Y259428D01*
X259586Y259914D01*
X260072Y260642D01*
X260144Y261000D01*
D02*
G37*
G36*
X265644D02*
X264000D01*
Y259356D01*
X264358Y259428D01*
X265086Y259914D01*
X265572Y260642D01*
X265644Y261000D01*
D02*
G37*
G36*
X263000D02*
X261356D01*
X261428Y260642D01*
X261914Y259914D01*
X262642Y259428D01*
X263000Y259356D01*
Y261000D01*
D02*
G37*
G36*
X246644Y260000D02*
X245000D01*
Y258356D01*
X245358Y258428D01*
X246086Y258914D01*
X246572Y259642D01*
X246644Y260000D01*
D02*
G37*
G36*
X257000Y258644D02*
X256642Y258572D01*
X255914Y258086D01*
X255428Y257358D01*
X255356Y257000D01*
X257000D01*
Y258644D01*
D02*
G37*
G36*
X131000Y257144D02*
Y255500D01*
X132644D01*
X132572Y255858D01*
X132086Y256586D01*
X131358Y257072D01*
X131000Y257144D01*
D02*
G37*
G36*
X258000Y258644D02*
Y257000D01*
X259644D01*
X259572Y257358D01*
X259086Y258086D01*
X258358Y258572D01*
X258000Y258644D01*
D02*
G37*
G36*
X244000Y260000D02*
X242356D01*
X242428Y259642D01*
X242914Y258914D01*
X243642Y258428D01*
X244000Y258356D01*
Y260000D01*
D02*
G37*
G36*
X249000Y260937D02*
X248259Y260790D01*
X247630Y260370D01*
X247210Y259741D01*
X247063Y259000D01*
X247210Y258259D01*
X247630Y257630D01*
X248259Y257210D01*
X249000Y257063D01*
X249741Y257210D01*
X250370Y257630D01*
X250790Y258259D01*
X250937Y259000D01*
X250790Y259741D01*
X250370Y260370D01*
X249741Y260790D01*
X249000Y260937D01*
D02*
G37*
G36*
X286000Y263644D02*
Y262000D01*
X287644D01*
X287572Y262358D01*
X287086Y263086D01*
X286358Y263572D01*
X286000Y263644D01*
D02*
G37*
G36*
X132644Y267500D02*
X131000D01*
Y265856D01*
X131358Y265928D01*
X132086Y266414D01*
X132572Y267142D01*
X132644Y267500D01*
D02*
G37*
G36*
X293144Y266000D02*
X291500D01*
Y264356D01*
X291858Y264428D01*
X292586Y264914D01*
X293072Y265642D01*
X293144Y266000D01*
D02*
G37*
G36*
X244000Y267644D02*
X243642Y267572D01*
X242914Y267086D01*
X242428Y266358D01*
X242356Y266000D01*
X244000D01*
Y267644D01*
D02*
G37*
G36*
X203500Y268144D02*
X203142Y268072D01*
X202414Y267586D01*
X201928Y266858D01*
X201856Y266500D01*
X203500D01*
Y268144D01*
D02*
G37*
G36*
X245000Y267644D02*
Y266000D01*
X246644D01*
X246572Y266358D01*
X246086Y267086D01*
X245358Y267572D01*
X245000Y267644D01*
D02*
G37*
G36*
X290500Y266000D02*
X288856D01*
X288928Y265642D01*
X289414Y264914D01*
X290142Y264428D01*
X290500Y264356D01*
Y266000D01*
D02*
G37*
G36*
X279500D02*
X277856D01*
X277928Y265642D01*
X278414Y264914D01*
X279142Y264428D01*
X279500Y264356D01*
Y266000D01*
D02*
G37*
G36*
X276644D02*
X275000D01*
Y264356D01*
X275358Y264428D01*
X276086Y264914D01*
X276572Y265642D01*
X276644Y266000D01*
D02*
G37*
G36*
X282144D02*
X280500D01*
Y264356D01*
X280858Y264428D01*
X281586Y264914D01*
X282072Y265642D01*
X282144Y266000D01*
D02*
G37*
G36*
X287644D02*
X286000D01*
Y264356D01*
X286358Y264428D01*
X287086Y264914D01*
X287572Y265642D01*
X287644Y266000D01*
D02*
G37*
G36*
X285000D02*
X283356D01*
X283428Y265642D01*
X283914Y264914D01*
X284642Y264428D01*
X285000Y264356D01*
Y266000D01*
D02*
G37*
G36*
X204500Y268144D02*
Y266500D01*
X206144D01*
X206072Y266858D01*
X205586Y267586D01*
X204858Y268072D01*
X204500Y268144D01*
D02*
G37*
G36*
X226500D02*
Y266500D01*
X228144D01*
X228072Y266858D01*
X227586Y267586D01*
X226858Y268072D01*
X226500Y268144D01*
D02*
G37*
G36*
X225500D02*
X225142Y268072D01*
X224414Y267586D01*
X223928Y266858D01*
X223856Y266500D01*
X225500D01*
Y268144D01*
D02*
G37*
G36*
X231000D02*
X230642Y268072D01*
X229914Y267586D01*
X229428Y266858D01*
X229356Y266500D01*
X231000D01*
Y268144D01*
D02*
G37*
G36*
X235500D02*
X235142Y268072D01*
X234414Y267586D01*
X234028Y267008D01*
X233978Y266992D01*
X233522D01*
X233472Y267008D01*
X233086Y267586D01*
X232358Y268072D01*
X232000Y268144D01*
Y266000D01*
X231500D01*
Y265500D01*
X229356D01*
X229428Y265142D01*
X229914Y264414D01*
X230492Y264028D01*
X230508Y263978D01*
Y263522D01*
X230492Y263472D01*
X229914Y263086D01*
X229428Y262358D01*
X229356Y262000D01*
X231500D01*
Y261000D01*
X229356D01*
X229428Y260642D01*
X229914Y259914D01*
X230333Y259634D01*
X230414Y259086D01*
X230385Y259043D01*
X229928Y258358D01*
X229856Y258000D01*
X234144D01*
X234072Y258358D01*
X233586Y259086D01*
X233167Y259366D01*
X233086Y259914D01*
X233115Y259957D01*
X233472Y260492D01*
X233522Y260508D01*
X233978D01*
X234028Y260492D01*
X234414Y259914D01*
X235142Y259428D01*
X235500Y259356D01*
Y261500D01*
X236000D01*
Y262000D01*
X238144D01*
X238072Y262358D01*
X237586Y263086D01*
X237008Y263472D01*
X236992Y263522D01*
Y263978D01*
X237008Y264028D01*
X237586Y264414D01*
X238072Y265142D01*
X238144Y265500D01*
X236000D01*
Y266000D01*
X235500D01*
Y268144D01*
D02*
G37*
G36*
X236500D02*
Y266500D01*
X238144D01*
X238072Y266858D01*
X237586Y267586D01*
X236858Y268072D01*
X236500Y268144D01*
D02*
G37*
G36*
X221000D02*
Y266500D01*
X222644D01*
X222572Y266858D01*
X222086Y267586D01*
X221358Y268072D01*
X221000Y268144D01*
D02*
G37*
G36*
X210000D02*
Y266500D01*
X211644D01*
X211572Y266858D01*
X211086Y267586D01*
X210358Y268072D01*
X210000Y268144D01*
D02*
G37*
G36*
X209000D02*
X208642Y268072D01*
X207914Y267586D01*
X207428Y266858D01*
X207356Y266500D01*
X209000D01*
Y268144D01*
D02*
G37*
G36*
X214500D02*
X214142Y268072D01*
X213414Y267586D01*
X212928Y266858D01*
X212856Y266500D01*
X214500D01*
Y268144D01*
D02*
G37*
G36*
X220000D02*
X219642Y268072D01*
X218914Y267586D01*
X218428Y266858D01*
X218356Y266500D01*
X220000D01*
Y268144D01*
D02*
G37*
G36*
X215500D02*
Y266500D01*
X217144D01*
X217072Y266858D01*
X216586Y267586D01*
X215858Y268072D01*
X215500Y268144D01*
D02*
G37*
G36*
X274000Y266000D02*
X272356D01*
X272428Y265642D01*
X272914Y264914D01*
X273642Y264428D01*
X274000Y264356D01*
Y266000D01*
D02*
G37*
G36*
X206144Y265500D02*
X204500D01*
Y263856D01*
X204858Y263928D01*
X205586Y264414D01*
X206072Y265142D01*
X206144Y265500D01*
D02*
G37*
G36*
X203500D02*
X201856D01*
X201928Y265142D01*
X202414Y264414D01*
X203142Y263928D01*
X203500Y263856D01*
Y265500D01*
D02*
G37*
G36*
X209000D02*
X207356D01*
X207428Y265142D01*
X207914Y264414D01*
X208642Y263928D01*
X209000Y263856D01*
Y265500D01*
D02*
G37*
G36*
X214500D02*
X212856D01*
X212928Y265142D01*
X213414Y264414D01*
X214142Y263928D01*
X214500Y263856D01*
Y265500D01*
D02*
G37*
G36*
X211644D02*
X210000D01*
Y263856D01*
X210358Y263928D01*
X211086Y264414D01*
X211572Y265142D01*
X211644Y265500D01*
D02*
G37*
G36*
X246644Y265000D02*
X245000D01*
Y263356D01*
X245358Y263428D01*
X246086Y263914D01*
X246572Y264642D01*
X246644Y265000D01*
D02*
G37*
G36*
X291500Y263644D02*
Y262000D01*
X293144D01*
X293072Y262358D01*
X292586Y263086D01*
X291858Y263572D01*
X291500Y263644D01*
D02*
G37*
G36*
X290500D02*
X290142Y263572D01*
X289414Y263086D01*
X288928Y262358D01*
X288856Y262000D01*
X290500D01*
Y263644D01*
D02*
G37*
G36*
X131000Y264144D02*
Y262500D01*
X132644D01*
X132572Y262858D01*
X132086Y263586D01*
X131358Y264072D01*
X131000Y264144D01*
D02*
G37*
G36*
X244000Y265000D02*
X242356D01*
X242428Y264642D01*
X242914Y263914D01*
X243642Y263428D01*
X244000Y263356D01*
Y265000D01*
D02*
G37*
G36*
X174644Y264500D02*
X173000D01*
Y262856D01*
X173358Y262928D01*
X174086Y263414D01*
X174572Y264142D01*
X174644Y264500D01*
D02*
G37*
G36*
X217144Y265500D02*
X215500D01*
Y263856D01*
X215858Y263928D01*
X216586Y264414D01*
X217072Y265142D01*
X217144Y265500D01*
D02*
G37*
G36*
X263000Y266000D02*
X261356D01*
X261428Y265642D01*
X261914Y264914D01*
X262642Y264428D01*
X263000Y264356D01*
Y266000D01*
D02*
G37*
G36*
X260144D02*
X258500D01*
Y264356D01*
X258858Y264428D01*
X259586Y264914D01*
X260072Y265642D01*
X260144Y266000D01*
D02*
G37*
G36*
X265644D02*
X264000D01*
Y264356D01*
X264358Y264428D01*
X265086Y264914D01*
X265572Y265642D01*
X265644Y266000D01*
D02*
G37*
G36*
X271144D02*
X269500D01*
Y264356D01*
X269858Y264428D01*
X270586Y264914D01*
X271072Y265642D01*
X271144Y266000D01*
D02*
G37*
G36*
X268500D02*
X266856D01*
X266928Y265642D01*
X267414Y264914D01*
X268142Y264428D01*
X268500Y264356D01*
Y266000D01*
D02*
G37*
G36*
X257500D02*
X255856D01*
X255928Y265642D01*
X256414Y264914D01*
X257142Y264428D01*
X257500Y264356D01*
Y266000D01*
D02*
G37*
G36*
X222644Y265500D02*
X221000D01*
Y263856D01*
X221358Y263928D01*
X222086Y264414D01*
X222572Y265142D01*
X222644Y265500D01*
D02*
G37*
G36*
X220000D02*
X218356D01*
X218428Y265142D01*
X218914Y264414D01*
X219642Y263928D01*
X220000Y263856D01*
Y265500D01*
D02*
G37*
G36*
X225500D02*
X223856D01*
X223928Y265142D01*
X224414Y264414D01*
X225142Y263928D01*
X225500Y263856D01*
Y265500D01*
D02*
G37*
G36*
X255144Y266000D02*
X253500D01*
Y264356D01*
X253858Y264428D01*
X254586Y264914D01*
X255072Y265642D01*
X255144Y266000D01*
D02*
G37*
G36*
X228144Y265500D02*
X226500D01*
Y263856D01*
X226858Y263928D01*
X227586Y264414D01*
X228072Y265142D01*
X228144Y265500D01*
D02*
G37*
G36*
X171531Y229000D02*
X169500D01*
Y226969D01*
X169672Y226992D01*
X170299Y227251D01*
X170836Y227664D01*
X171249Y228202D01*
X171509Y228828D01*
X171531Y229000D01*
D02*
G37*
G36*
X168500D02*
X166469D01*
X166491Y228828D01*
X166751Y228202D01*
X167164Y227664D01*
X167701Y227251D01*
X168328Y226992D01*
X168500Y226969D01*
Y229000D01*
D02*
G37*
G36*
X175000D02*
X172969D01*
X172992Y228828D01*
X173251Y228202D01*
X173664Y227664D01*
X174202Y227251D01*
X174828Y226992D01*
X175000Y226969D01*
Y229000D01*
D02*
G37*
G36*
X181500D02*
X179469D01*
X179491Y228828D01*
X179751Y228202D01*
X180164Y227664D01*
X180701Y227251D01*
X181328Y226992D01*
X181500Y226969D01*
Y229000D01*
D02*
G37*
G36*
X178031D02*
X176000D01*
Y226969D01*
X176172Y226992D01*
X176798Y227251D01*
X177336Y227664D01*
X177749Y228202D01*
X178008Y228828D01*
X178031Y229000D01*
D02*
G37*
G36*
X214175Y228500D02*
X212531D01*
Y226856D01*
X212890Y226928D01*
X213618Y227414D01*
X214104Y228142D01*
X214175Y228500D01*
D02*
G37*
G36*
X241032Y228531D02*
X240859Y228508D01*
X240233Y228249D01*
X239695Y227836D01*
X239282Y227298D01*
X239023Y226672D01*
X239000Y226500D01*
X241032D01*
Y228531D01*
D02*
G37*
G36*
X236032D02*
Y226500D01*
X238063D01*
X238040Y226672D01*
X237781Y227298D01*
X237368Y227836D01*
X236830Y228249D01*
X236204Y228508D01*
X236032Y228531D01*
D02*
G37*
G36*
X242032D02*
Y226500D01*
X244063D01*
X244040Y226672D01*
X243781Y227298D01*
X243368Y227836D01*
X242830Y228249D01*
X242204Y228508D01*
X242032Y228531D01*
D02*
G37*
G36*
X248031D02*
Y226500D01*
X250063D01*
X250040Y226672D01*
X249781Y227298D01*
X249368Y227836D01*
X248830Y228249D01*
X248204Y228508D01*
X248031Y228531D01*
D02*
G37*
G36*
X247031D02*
X246859Y228508D01*
X246233Y228249D01*
X245695Y227836D01*
X245282Y227298D01*
X245023Y226672D01*
X245000Y226500D01*
X247031D01*
Y228531D01*
D02*
G37*
G36*
X184531Y229000D02*
X182500D01*
Y226969D01*
X182672Y226992D01*
X183299Y227251D01*
X183836Y227664D01*
X184249Y228202D01*
X184509Y228828D01*
X184531Y229000D01*
D02*
G37*
G36*
X283500Y231437D02*
X282759Y231290D01*
X282130Y230870D01*
X282032Y230724D01*
X267200D01*
X266732Y230630D01*
X266335Y230365D01*
X265773Y229803D01*
X265600Y229837D01*
X264859Y229690D01*
X264230Y229270D01*
X263810Y228641D01*
X263663Y227900D01*
X263810Y227159D01*
X264230Y226530D01*
X264859Y226110D01*
X265600Y225963D01*
X266341Y226110D01*
X266970Y226530D01*
X267390Y227159D01*
X267537Y227900D01*
X267922Y228276D01*
X282032D01*
X282130Y228130D01*
X282759Y227710D01*
X283500Y227563D01*
X284241Y227710D01*
X284870Y228130D01*
X285290Y228759D01*
X285437Y229500D01*
X285290Y230241D01*
X284870Y230870D01*
X284241Y231290D01*
X283500Y231437D01*
D02*
G37*
G36*
X250063Y231500D02*
X248031D01*
Y229469D01*
X248204Y229491D01*
X248830Y229751D01*
X249368Y230164D01*
X249781Y230701D01*
X250040Y231328D01*
X250063Y231500D01*
D02*
G37*
G36*
X168500Y232031D02*
X168328Y232009D01*
X167701Y231749D01*
X167164Y231336D01*
X166751Y230799D01*
X166491Y230172D01*
X166469Y230000D01*
X168500D01*
Y232031D01*
D02*
G37*
G36*
X144000Y232644D02*
Y231000D01*
X145644D01*
X145572Y231358D01*
X145086Y232086D01*
X144358Y232572D01*
X144000Y232644D01*
D02*
G37*
G36*
X169500Y232031D02*
Y230000D01*
X171531D01*
X171509Y230172D01*
X171249Y230799D01*
X170836Y231336D01*
X170299Y231749D01*
X169672Y232009D01*
X169500Y232031D01*
D02*
G37*
G36*
X247031Y231500D02*
X245000D01*
X245023Y231328D01*
X245282Y230701D01*
X245695Y230164D01*
X246233Y229751D01*
X246859Y229491D01*
X247031Y229469D01*
Y231500D01*
D02*
G37*
G36*
X235032D02*
X233000D01*
X233023Y231328D01*
X233282Y230701D01*
X233695Y230164D01*
X234233Y229751D01*
X234859Y229491D01*
X235032Y229469D01*
Y231500D01*
D02*
G37*
G36*
X145644Y230000D02*
X141356D01*
X141428Y229642D01*
X141856Y229000D01*
X141428Y228358D01*
X141356Y228000D01*
X145644D01*
X145572Y228358D01*
X145144Y229000D01*
X145572Y229642D01*
X145644Y230000D01*
D02*
G37*
G36*
X238063Y231500D02*
X236032D01*
Y229469D01*
X236204Y229491D01*
X236830Y229751D01*
X237368Y230164D01*
X237781Y230701D01*
X238040Y231328D01*
X238063Y231500D01*
D02*
G37*
G36*
X244063D02*
X242032D01*
Y229469D01*
X242204Y229491D01*
X242830Y229751D01*
X243368Y230164D01*
X243781Y230701D01*
X244040Y231328D01*
X244063Y231500D01*
D02*
G37*
G36*
X241032D02*
X239000D01*
X239023Y231328D01*
X239282Y230701D01*
X239695Y230164D01*
X240233Y229751D01*
X240859Y229491D01*
X241032Y229469D01*
Y231500D01*
D02*
G37*
G36*
X235032Y228531D02*
X234859Y228508D01*
X234233Y228249D01*
X233695Y227836D01*
X233282Y227298D01*
X233023Y226672D01*
X233000Y226500D01*
X235032D01*
Y228531D01*
D02*
G37*
G36*
X248031Y222531D02*
Y220500D01*
X250063D01*
X250040Y220672D01*
X249781Y221299D01*
X249368Y221836D01*
X248830Y222249D01*
X248204Y222509D01*
X248031Y222531D01*
D02*
G37*
G36*
X247031D02*
X246859Y222509D01*
X246233Y222249D01*
X245695Y221836D01*
X245282Y221299D01*
X245023Y220672D01*
X245000Y220500D01*
X247031D01*
Y222531D01*
D02*
G37*
G36*
X203000Y224937D02*
X202259Y224790D01*
X201630Y224370D01*
X201210Y223741D01*
X201063Y223000D01*
X201210Y222259D01*
X201630Y221630D01*
X202259Y221210D01*
X203000Y221063D01*
X203741Y221210D01*
X204370Y221630D01*
X204790Y222259D01*
X204937Y223000D01*
X204790Y223741D01*
X204370Y224370D01*
X203741Y224790D01*
X203000Y224937D01*
D02*
G37*
G36*
X238063Y225500D02*
X236032D01*
Y223469D01*
X236204Y223492D01*
X236830Y223751D01*
X237368Y224164D01*
X237781Y224701D01*
X238040Y225328D01*
X238063Y225500D01*
D02*
G37*
G36*
X235032D02*
X233000D01*
X233023Y225328D01*
X233282Y224701D01*
X233695Y224164D01*
X234233Y223751D01*
X234859Y223492D01*
X235032Y223469D01*
Y225500D01*
D02*
G37*
G36*
X242032Y222531D02*
Y220500D01*
X244063D01*
X244040Y220672D01*
X243781Y221299D01*
X243368Y221836D01*
X242830Y222249D01*
X242204Y222509D01*
X242032Y222531D01*
D02*
G37*
G36*
X184531Y222500D02*
X182500D01*
Y220469D01*
X182672Y220492D01*
X183299Y220751D01*
X183836Y221164D01*
X184249Y221702D01*
X184509Y222328D01*
X184531Y222500D01*
D02*
G37*
G36*
X181500D02*
X179469D01*
X179491Y222328D01*
X179751Y221702D01*
X180164Y221164D01*
X180701Y220751D01*
X181328Y220492D01*
X181500Y220469D01*
Y222500D01*
D02*
G37*
G36*
X235032Y222531D02*
X234859Y222509D01*
X234233Y222249D01*
X233695Y221836D01*
X233282Y221299D01*
X233023Y220672D01*
X233000Y220500D01*
X235032D01*
Y222531D01*
D02*
G37*
G36*
X241032D02*
X240859Y222509D01*
X240233Y222249D01*
X239695Y221836D01*
X239282Y221299D01*
X239023Y220672D01*
X239000Y220500D01*
X241032D01*
Y222531D01*
D02*
G37*
G36*
X236032D02*
Y220500D01*
X238063D01*
X238040Y220672D01*
X237781Y221299D01*
X237368Y221836D01*
X236830Y222249D01*
X236204Y222509D01*
X236032Y222531D01*
D02*
G37*
G36*
X241032Y225500D02*
X239000D01*
X239023Y225328D01*
X239282Y224701D01*
X239695Y224164D01*
X240233Y223751D01*
X240859Y223492D01*
X241032Y223469D01*
Y225500D01*
D02*
G37*
G36*
X181500Y225531D02*
X181328Y225508D01*
X180701Y225249D01*
X180164Y224836D01*
X179751Y224299D01*
X179491Y223672D01*
X179469Y223500D01*
X181500D01*
Y225531D01*
D02*
G37*
G36*
X176000D02*
Y223500D01*
X178031D01*
X178008Y223672D01*
X177749Y224299D01*
X177336Y224836D01*
X176798Y225249D01*
X176172Y225508D01*
X176000Y225531D01*
D02*
G37*
G36*
X182500D02*
Y223500D01*
X184531D01*
X184509Y223672D01*
X184249Y224299D01*
X183836Y224836D01*
X183299Y225249D01*
X182672Y225508D01*
X182500Y225531D01*
D02*
G37*
G36*
X145644Y227000D02*
X144000D01*
Y225356D01*
X144358Y225428D01*
X145086Y225914D01*
X145572Y226642D01*
X145644Y227000D01*
D02*
G37*
G36*
X143000D02*
X141356D01*
X141428Y226642D01*
X141914Y225914D01*
X142642Y225428D01*
X143000Y225356D01*
Y227000D01*
D02*
G37*
G36*
X175000Y225531D02*
X174828Y225508D01*
X174202Y225249D01*
X173664Y224836D01*
X173251Y224299D01*
X172992Y223672D01*
X172969Y223500D01*
X175000D01*
Y225531D01*
D02*
G37*
G36*
X247031Y225500D02*
X245000D01*
X245023Y225328D01*
X245282Y224701D01*
X245695Y224164D01*
X246233Y223751D01*
X246859Y223492D01*
X247031Y223469D01*
Y225500D01*
D02*
G37*
G36*
X244063D02*
X242032D01*
Y223469D01*
X242204Y223492D01*
X242830Y223751D01*
X243368Y224164D01*
X243781Y224701D01*
X244040Y225328D01*
X244063Y225500D01*
D02*
G37*
G36*
X250063D02*
X248031D01*
Y223469D01*
X248204Y223492D01*
X248830Y223751D01*
X249368Y224164D01*
X249781Y224701D01*
X250040Y225328D01*
X250063Y225500D01*
D02*
G37*
G36*
X169500Y225531D02*
Y223500D01*
X171531D01*
X171509Y223672D01*
X171249Y224299D01*
X170836Y224836D01*
X170299Y225249D01*
X169672Y225508D01*
X169500Y225531D01*
D02*
G37*
G36*
X168500D02*
X168328Y225508D01*
X167701Y225249D01*
X167164Y224836D01*
X166751Y224299D01*
X166491Y223672D01*
X166469Y223500D01*
X168500D01*
Y225531D01*
D02*
G37*
G36*
X151500Y235437D02*
X150759Y235290D01*
X150130Y234870D01*
X149710Y234241D01*
X149563Y233500D01*
X149710Y232759D01*
X150130Y232130D01*
X150759Y231710D01*
X151500Y231563D01*
X152241Y231710D01*
X152870Y232130D01*
X153290Y232759D01*
X153437Y233500D01*
X153290Y234241D01*
X152870Y234870D01*
X152241Y235290D01*
X151500Y235437D01*
D02*
G37*
G36*
X225675Y246500D02*
X224031D01*
Y244856D01*
X224390Y244928D01*
X225118Y245414D01*
X225604Y246142D01*
X225675Y246500D01*
D02*
G37*
G36*
X223031D02*
X221388D01*
X221459Y246142D01*
X221945Y245414D01*
X222673Y244928D01*
X223031Y244856D01*
Y246500D01*
D02*
G37*
G36*
X291032Y247644D02*
X290673Y247572D01*
X289945Y247086D01*
X289459Y246358D01*
X289388Y246000D01*
X291032D01*
Y247644D01*
D02*
G37*
G36*
X276563Y247969D02*
X274919D01*
X274991Y247610D01*
X275477Y246882D01*
X276205Y246396D01*
X276563Y246325D01*
Y247969D01*
D02*
G37*
G36*
X292032Y247644D02*
Y246000D01*
X293675D01*
X293604Y246358D01*
X293118Y247086D01*
X292390Y247572D01*
X292032Y247644D01*
D02*
G37*
G36*
X207675Y246000D02*
X206031D01*
Y244356D01*
X206390Y244428D01*
X207118Y244914D01*
X207604Y245642D01*
X207675Y246000D01*
D02*
G37*
G36*
X190000Y245644D02*
Y244000D01*
X191644D01*
X191572Y244358D01*
X191086Y245086D01*
X190358Y245572D01*
X190000Y245644D01*
D02*
G37*
G36*
X293675Y245000D02*
X292032D01*
Y243356D01*
X292390Y243428D01*
X293118Y243914D01*
X293604Y244642D01*
X293675Y245000D01*
D02*
G37*
G36*
X253532Y246000D02*
X251888D01*
X251959Y245642D01*
X252445Y244914D01*
X253173Y244428D01*
X253532Y244356D01*
Y246000D01*
D02*
G37*
G36*
X205031Y246000D02*
X203388D01*
X203459Y245642D01*
X203945Y244914D01*
X204673Y244428D01*
X205031Y244356D01*
Y246000D01*
D02*
G37*
G36*
X256175Y246000D02*
X254532D01*
Y244356D01*
X254890Y244428D01*
X255618Y244914D01*
X256104Y245642D01*
X256175Y246000D01*
D02*
G37*
G36*
X279207Y247969D02*
X277563D01*
Y246325D01*
X277921Y246396D01*
X278649Y246882D01*
X279135Y247610D01*
X279207Y247969D01*
D02*
G37*
G36*
X234175Y253468D02*
X229888D01*
X229959Y253110D01*
X230445Y252382D01*
X230861Y252104D01*
Y251503D01*
X230662Y251370D01*
X230242Y250741D01*
X230094Y250000D01*
X230242Y249259D01*
X230662Y248630D01*
X231290Y248210D01*
X232031Y248063D01*
X232773Y248210D01*
X233401Y248630D01*
X233821Y249259D01*
X233969Y250000D01*
X233821Y250741D01*
X233401Y251370D01*
X233202Y251503D01*
Y252104D01*
X233618Y252382D01*
X234104Y253110D01*
X234175Y253468D01*
D02*
G37*
G36*
X214469Y251906D02*
X213727Y251758D01*
X213099Y251338D01*
X212679Y250710D01*
X212531Y249969D01*
X212679Y249227D01*
X213099Y248599D01*
X213727Y248179D01*
X214469Y248031D01*
X215210Y248179D01*
X215838Y248599D01*
X216258Y249227D01*
X216406Y249969D01*
X216258Y250710D01*
X215838Y251338D01*
X215210Y251758D01*
X214469Y251906D01*
D02*
G37*
G36*
X257500Y250000D02*
X255856D01*
X255928Y249642D01*
X256414Y248914D01*
X257142Y248428D01*
X257500Y248356D01*
Y250000D01*
D02*
G37*
G36*
X131000Y250144D02*
Y248500D01*
X132644D01*
X132572Y248858D01*
X132086Y249586D01*
X131358Y250072D01*
X131000Y250144D01*
D02*
G37*
G36*
X260144Y250000D02*
X258500D01*
Y248356D01*
X258858Y248428D01*
X259586Y248914D01*
X260072Y249642D01*
X260144Y250000D01*
D02*
G37*
G36*
X224031Y249144D02*
Y247500D01*
X225675D01*
X225604Y247858D01*
X225118Y248586D01*
X224390Y249072D01*
X224031Y249144D01*
D02*
G37*
G36*
X254532Y248644D02*
Y247000D01*
X256175D01*
X256104Y247358D01*
X255618Y248086D01*
X254890Y248572D01*
X254532Y248644D01*
D02*
G37*
G36*
X253532D02*
X253173Y248572D01*
X252445Y248086D01*
X251959Y247358D01*
X251888Y247000D01*
X253532D01*
Y248644D01*
D02*
G37*
G36*
X205031Y248644D02*
X204673Y248572D01*
X203945Y248086D01*
X203459Y247358D01*
X203388Y247000D01*
X205031D01*
Y248644D01*
D02*
G37*
G36*
X223031Y249144D02*
X222673Y249072D01*
X221945Y248586D01*
X221459Y247858D01*
X221388Y247500D01*
X223031D01*
Y249144D01*
D02*
G37*
G36*
X206031Y248644D02*
Y247000D01*
X207675D01*
X207604Y247358D01*
X207118Y248086D01*
X206390Y248572D01*
X206031Y248644D01*
D02*
G37*
G36*
X291032Y245000D02*
X289388D01*
X289459Y244642D01*
X289945Y243914D01*
X290673Y243428D01*
X291032Y243356D01*
Y245000D01*
D02*
G37*
G36*
X248031Y234531D02*
Y232500D01*
X250063D01*
X250040Y232672D01*
X249781Y233298D01*
X249368Y233836D01*
X248830Y234249D01*
X248204Y234508D01*
X248031Y234531D01*
D02*
G37*
G36*
X247031D02*
X246859Y234508D01*
X246233Y234249D01*
X245695Y233836D01*
X245282Y233298D01*
X245023Y232672D01*
X245000Y232500D01*
X247031D01*
Y234531D01*
D02*
G37*
G36*
X258032Y237937D02*
X257290Y237790D01*
X256662Y237370D01*
X256242Y236741D01*
X256094Y236000D01*
X256242Y235259D01*
X256662Y234630D01*
X257290Y234210D01*
X258032Y234063D01*
X258773Y234210D01*
X259401Y234630D01*
X259821Y235259D01*
X259969Y236000D01*
X259821Y236741D01*
X259401Y237370D01*
X258773Y237790D01*
X258032Y237937D01*
D02*
G37*
G36*
X265144Y236000D02*
X263500D01*
Y234356D01*
X263858Y234428D01*
X264586Y234914D01*
X265072Y235642D01*
X265144Y236000D01*
D02*
G37*
G36*
X262500D02*
X260856D01*
X260928Y235642D01*
X261414Y234914D01*
X262142Y234428D01*
X262500Y234356D01*
Y236000D01*
D02*
G37*
G36*
X242032Y234531D02*
Y232500D01*
X244063D01*
X244040Y232672D01*
X243781Y233298D01*
X243368Y233836D01*
X242830Y234249D01*
X242204Y234508D01*
X242032Y234531D01*
D02*
G37*
G36*
X212531Y234144D02*
Y232500D01*
X214175D01*
X214104Y232858D01*
X213618Y233586D01*
X212890Y234072D01*
X212531Y234144D01*
D02*
G37*
G36*
X211531D02*
X211173Y234072D01*
X210445Y233586D01*
X209959Y232858D01*
X209888Y232500D01*
X211531D01*
Y234144D01*
D02*
G37*
G36*
X235032Y234531D02*
X234859Y234508D01*
X234233Y234249D01*
X233695Y233836D01*
X233282Y233298D01*
X233023Y232672D01*
X233000Y232500D01*
X235032D01*
Y234531D01*
D02*
G37*
G36*
X241032D02*
X240859Y234508D01*
X240233Y234249D01*
X239695Y233836D01*
X239282Y233298D01*
X239023Y232672D01*
X239000Y232500D01*
X241032D01*
Y234531D01*
D02*
G37*
G36*
X236032D02*
Y232500D01*
X238063D01*
X238040Y232672D01*
X237781Y233298D01*
X237368Y233836D01*
X236830Y234249D01*
X236204Y234508D01*
X236032Y234531D01*
D02*
G37*
G36*
X272988Y237488D02*
X271344D01*
X271416Y237130D01*
X271902Y236402D01*
X272630Y235916D01*
X272988Y235844D01*
Y237488D01*
D02*
G37*
G36*
X224722Y241000D02*
X223079D01*
Y239356D01*
X223437Y239428D01*
X224165Y239914D01*
X224651Y240642D01*
X224722Y241000D01*
D02*
G37*
G36*
X222079D02*
X220435D01*
X220506Y240642D01*
X220993Y239914D01*
X221720Y239428D01*
X222079Y239356D01*
Y241000D01*
D02*
G37*
G36*
X191644Y243000D02*
X190000D01*
Y241356D01*
X190358Y241428D01*
X191086Y241914D01*
X191572Y242642D01*
X191644Y243000D01*
D02*
G37*
G36*
X223079Y243644D02*
Y242000D01*
X224722D01*
X224651Y242358D01*
X224165Y243086D01*
X223437Y243572D01*
X223079Y243644D01*
D02*
G37*
G36*
X222079D02*
X221720Y243572D01*
X220993Y243086D01*
X220506Y242358D01*
X220435Y242000D01*
X222079D01*
Y243644D01*
D02*
G37*
G36*
X273988Y240132D02*
Y238488D01*
X275632D01*
X275560Y238847D01*
X275074Y239574D01*
X274347Y240060D01*
X273988Y240132D01*
D02*
G37*
G36*
X289500Y240437D02*
X288759Y240290D01*
X288130Y239870D01*
X287710Y239241D01*
X287563Y238500D01*
X287710Y237759D01*
X288130Y237130D01*
X288759Y236710D01*
X289500Y236563D01*
X290241Y236710D01*
X290870Y237130D01*
X291290Y237759D01*
X291437Y238500D01*
X291290Y239241D01*
X290870Y239870D01*
X290241Y240290D01*
X289500Y240437D01*
D02*
G37*
G36*
X275632Y237488D02*
X273988D01*
Y235844D01*
X274347Y235916D01*
X275074Y236402D01*
X275560Y237130D01*
X275632Y237488D01*
D02*
G37*
G36*
X262500Y238644D02*
X262142Y238572D01*
X261414Y238086D01*
X260928Y237358D01*
X260856Y237000D01*
X262500D01*
Y238644D01*
D02*
G37*
G36*
X272988Y240132D02*
X272630Y240060D01*
X271902Y239574D01*
X271416Y238847D01*
X271344Y238488D01*
X272988D01*
Y240132D01*
D02*
G37*
G36*
X263500Y238644D02*
Y237000D01*
X265144D01*
X265072Y237358D01*
X264586Y238086D01*
X263858Y238572D01*
X263500Y238644D01*
D02*
G37*
%LPD*%
D42*
X106862Y201772D02*
X110120D01*
Y201723D02*
X114795Y197047D01*
X110120Y201723D02*
Y201772D01*
X110071Y173228D02*
X114795Y177953D01*
X106862Y173228D02*
X110071D01*
D43*
X198500Y178500D02*
Y187000D01*
X112000Y153500D02*
X112634D01*
X209832Y200669D02*
X210000Y200500D01*
X202500Y229000D02*
X207600Y223900D01*
X198000Y221000D02*
X204500Y214500D01*
X184000Y198000D02*
X186400Y200400D01*
X188494D01*
X202000Y186894D01*
X187500Y198000D02*
X198500Y187000D01*
X179000Y201894D02*
Y202000D01*
Y201894D02*
X181400Y199494D01*
Y188400D02*
Y199494D01*
X161500Y173500D02*
X166500D01*
X215000Y214000D02*
Y219000D01*
X217900Y180900D02*
X220500Y183500D01*
X204506Y180900D02*
X217900D01*
X202106Y178500D02*
X204506Y180900D01*
X217000Y183000D02*
X218500Y184500D01*
X206300Y183000D02*
X217000D01*
X206000D02*
Y183300D01*
X206300Y183000D01*
X166500Y173500D02*
X173000Y180000D01*
X181400Y188400D01*
X145000Y168689D02*
Y180000D01*
Y168689D02*
X147500Y166189D01*
X148000Y161000D02*
X156500Y152500D01*
X159500D01*
X138200Y191300D02*
X149858Y179642D01*
X129800Y210700D02*
X134500Y206000D01*
X145000Y195500D02*
X177000D01*
X147500Y199000D02*
X149000Y197500D01*
X175606D01*
X139500Y263500D02*
X144000D01*
X190000Y232000D02*
X204331D01*
X209832Y226500D01*
Y200669D02*
Y226500D01*
X170500Y245500D02*
X171010Y244990D01*
Y239035D02*
Y244990D01*
X168610Y238890D02*
X174000Y233500D01*
X188500D01*
X190000Y232000D01*
X171010Y239035D02*
X173046Y237000D01*
X144000Y263500D02*
X146000Y261500D01*
X143370Y255870D02*
Y260382D01*
X134900Y236400D02*
X146000Y247500D01*
Y261500D01*
X172900Y241100D02*
X175000Y239000D01*
X172900Y241100D02*
Y246494D01*
X169644Y249750D02*
X172900Y246494D01*
X157250Y249750D02*
X169644D01*
X138200Y230700D02*
X157250Y249750D01*
X173500Y250000D02*
Y254454D01*
X179500Y249000D02*
X181000Y247500D01*
X179500Y249000D02*
Y269000D01*
X176500Y272000D02*
X179500Y269000D01*
X148370Y264870D02*
X155500Y272000D01*
X176500D01*
X167000Y265000D02*
Y267500D01*
X165500Y269000D02*
X167000Y267500D01*
X158500Y269000D02*
X165500D01*
X152000Y262500D02*
X158500Y269000D01*
X177500Y245500D02*
Y254500D01*
X167000Y265000D02*
X177500Y254500D01*
X162500Y265454D02*
X173500Y254454D01*
X182000Y254500D02*
X186500Y250000D01*
X180500Y276000D02*
X181000Y276500D01*
X134500Y276000D02*
X180500D01*
X219200Y215640D02*
X221910Y218350D01*
X217400Y217082D02*
X223118Y222800D01*
X221250Y215144D02*
X222656Y216550D01*
X221250Y213156D02*
Y215144D01*
X220500Y183500D02*
Y211360D01*
X218500Y184500D02*
Y210814D01*
X217400Y211914D02*
X218500Y210814D01*
X219200Y212660D02*
X220500Y211360D01*
X219200Y212660D02*
Y215640D01*
X217400Y211914D02*
Y217082D01*
X221910Y218350D02*
X222062D01*
X222656Y216550D02*
X222807D01*
X223650Y214150D02*
X230000Y220500D01*
X175000Y239000D02*
X184500D01*
X186500Y241000D01*
Y250000D01*
X222062Y218350D02*
X225518Y221806D01*
X222807Y216550D02*
X227500Y221242D01*
Y227000D01*
X226500Y228000D02*
X227500Y227000D01*
X225518Y221806D02*
Y224500D01*
X223018Y227000D02*
X225518Y224500D01*
X230000Y220500D02*
Y232500D01*
X225500Y237000D02*
X230000Y232500D01*
X173046Y237000D02*
X225500D01*
X265600Y227900D02*
X267200Y229500D01*
X283500D01*
X250000Y210500D02*
X268500D01*
X253000Y207500D02*
X253600Y208100D01*
X269494D01*
X280800Y221300D02*
X283500Y224000D01*
X260963Y221168D02*
X261094Y221300D01*
X280800D01*
X269494Y208100D02*
X280894Y219500D01*
X283000D01*
X272000Y203500D02*
X283000Y214500D01*
X249500Y203500D02*
X272000D01*
X239500Y209000D02*
X247000Y201500D01*
X225405Y209000D02*
X239500D01*
X247000Y201500D02*
X280000D01*
X221250Y213156D02*
X225405Y209000D01*
X246000Y207000D02*
X249500Y203500D01*
X246000Y207000D02*
Y207500D01*
X210000Y196500D02*
Y200500D01*
X207000Y189500D02*
Y194900D01*
X207600Y195500D01*
Y223900D01*
X210000Y193500D02*
Y196500D01*
X202000Y178500D02*
Y186894D01*
Y178500D02*
X202106D01*
X205394Y178500D02*
X205500D01*
X204500Y186500D02*
Y214500D01*
X255000Y184500D02*
Y194500D01*
X112000Y153500D02*
X122289Y163789D01*
X148494D01*
X148705Y164000D01*
X152000D01*
X161500Y173500D01*
X176500Y157500D02*
X187500D01*
X163000Y144000D02*
X176500Y157500D01*
X164600Y141600D02*
X176500Y153500D01*
X159534Y141600D02*
X164600D01*
X157500Y143634D02*
X159534Y141600D01*
X176500Y153500D02*
X187500D01*
X239432Y126432D02*
X245000Y132000D01*
X222500Y126432D02*
X239432D01*
X195500Y149894D02*
Y158500D01*
X203000Y126000D02*
X207000Y130000D01*
X196500D02*
X198000Y128500D01*
X199500Y142636D02*
Y145894D01*
X195500Y149894D02*
X199500Y145894D01*
X181400Y187100D02*
X202725Y165775D01*
X179000Y175000D02*
X195500Y158500D01*
X181400Y187100D02*
Y188400D01*
X202725Y143275D02*
Y165775D01*
Y143275D02*
X203000Y143000D01*
X207000Y130000D02*
Y144500D01*
X196500Y130000D02*
Y144500D01*
X205500Y168924D02*
Y178500D01*
Y168924D02*
X208275Y166149D01*
Y146619D02*
Y166149D01*
Y146619D02*
X209400Y145494D01*
X184600Y119400D02*
X240400D01*
X189800Y121200D02*
X217268D01*
X185000Y126000D02*
X189800Y121200D01*
X217268D02*
X222500Y126432D01*
X183000Y121000D02*
X184600Y119400D01*
X240400D02*
X244500Y123500D01*
X205300Y123000D02*
X209400Y127100D01*
X198500Y123000D02*
X205300D01*
X193000Y128500D02*
X198500Y123000D01*
X216000Y131000D02*
X216000Y131000D01*
X209400Y131000D02*
X216000D01*
X209400Y127100D02*
Y131000D01*
Y145494D01*
X179000Y121000D02*
Y141000D01*
X187500Y149500D01*
X128000Y269500D02*
X134500Y276000D01*
X128000Y197000D02*
X145000Y180000D01*
X135163Y210469D02*
X137151D01*
X138557Y211875D01*
Y213863D01*
X134920Y217500D02*
X138557Y213863D01*
X138200Y208972D02*
X140357Y211129D01*
X128000Y197000D02*
Y269500D01*
X129800Y210700D02*
Y242300D01*
X143370Y255870D01*
X140357Y211129D02*
Y214608D01*
X138200Y216765D02*
X140357Y214608D01*
X138200Y216765D02*
Y230700D01*
X134900Y217500D02*
X134920D01*
X134900D02*
Y236400D01*
X138200Y191300D02*
Y208972D01*
X176606Y198500D02*
X179000D01*
X175606Y197500D02*
X176606Y198500D01*
D45*
X104362Y201772D02*
D03*
Y173228D02*
D03*
D46*
X114795Y177953D02*
D03*
Y197047D02*
D03*
D47*
X112000Y141500D02*
D03*
D48*
Y153500D02*
D03*
X104000Y147500D02*
D03*
D49*
X272000Y181000D02*
D03*
D50*
Y191000D02*
D03*
D51*
X129532Y144968D02*
D03*
X129532Y141032D02*
D03*
X133468Y141032D02*
D03*
X133468Y144968D02*
D03*
X110000Y133000D02*
D03*
X118000Y129500D02*
D03*
X257000Y180000D02*
D03*
X234500Y168500D02*
D03*
X222500Y176000D02*
D03*
X189000Y173000D02*
D03*
X198500Y178500D02*
D03*
X170500Y245500D02*
D03*
X192000Y234500D02*
D03*
X227500Y152000D02*
D03*
X230968Y152032D02*
D03*
X224000Y145500D02*
D03*
X238500Y167500D02*
D03*
X243032Y170468D02*
D03*
X252532Y159031D02*
D03*
X243032Y153032D02*
D03*
X223650Y214150D02*
D03*
X232000Y257500D02*
D03*
X232031Y253969D02*
D03*
X248468Y253969D02*
D03*
X214469Y249969D02*
D03*
X166642Y206610D02*
D03*
X205532Y246500D02*
D03*
X212032Y229000D02*
D03*
Y232000D02*
D03*
X146500Y129000D02*
D03*
X142000Y137500D02*
D03*
X132500Y219500D02*
D03*
X141000Y218500D02*
D03*
X155000Y209000D02*
D03*
X230000Y166500D02*
D03*
X169000Y171000D02*
D03*
X151000Y213000D02*
D03*
X223532Y247000D02*
D03*
X222579Y241500D02*
D03*
X232031Y250000D02*
D03*
X248532D02*
D03*
X224532Y124031D02*
D03*
X250500Y138000D02*
D03*
X221031Y137469D02*
D03*
X254031Y246500D02*
D03*
X277063Y248468D02*
D03*
X291531Y245500D02*
D03*
X132500Y178500D02*
D03*
X132500Y198500D02*
D03*
X245000Y132000D02*
D03*
X244500Y123500D02*
D03*
X275000Y131500D02*
D03*
X249000Y268500D02*
D03*
X244500Y265500D02*
D03*
X224500Y173500D02*
D03*
X161500D02*
D03*
X159500Y152500D02*
D03*
X194500Y147500D02*
D03*
X139953Y180047D02*
D03*
X148031Y203532D02*
D03*
X155000Y200000D02*
D03*
X222000Y179500D02*
D03*
X191969Y202031D02*
D03*
X203000Y223000D02*
D03*
X198000Y221000D02*
D03*
X202500Y229000D02*
D03*
X184890Y206610D02*
D03*
X177000Y195500D02*
D03*
X179000Y198500D02*
D03*
Y202000D02*
D03*
X187500Y198000D02*
D03*
X184000D02*
D03*
X157500Y143634D02*
D03*
X163000Y144000D02*
D03*
X143500Y230500D02*
D03*
Y227500D02*
D03*
X215000Y219000D02*
D03*
Y214000D02*
D03*
X206000Y183300D02*
D03*
X173000Y180000D02*
D03*
X147500Y166189D02*
D03*
X148000Y161000D02*
D03*
X152000Y160500D02*
D03*
X149858Y179642D02*
D03*
X145000Y195500D02*
D03*
X134500Y206000D02*
D03*
X134000Y210500D02*
D03*
X147500Y199000D02*
D03*
X132500Y227500D02*
D03*
X145500Y207500D02*
D03*
X130500Y205500D02*
D03*
Y248000D02*
D03*
Y262000D02*
D03*
Y268000D02*
D03*
X204000Y266000D02*
D03*
X209500D02*
D03*
X215000D02*
D03*
X220500D02*
D03*
X226000D02*
D03*
X231500D02*
D03*
X236000D02*
D03*
Y261500D02*
D03*
X231500D02*
D03*
X244500Y260500D02*
D03*
X253000Y266500D02*
D03*
X258000D02*
D03*
X263500D02*
D03*
X269000D02*
D03*
X274500D02*
D03*
X280000D02*
D03*
X285500D02*
D03*
X291000D02*
D03*
X258000Y250500D02*
D03*
X257500Y256500D02*
D03*
X253000Y253000D02*
D03*
X263500Y261500D02*
D03*
X274500D02*
D03*
X280000D02*
D03*
X285500D02*
D03*
X291000D02*
D03*
X269000D02*
D03*
X258000D02*
D03*
X249000Y259000D02*
D03*
X257000Y169000D02*
D03*
Y174500D02*
D03*
X252000Y169000D02*
D03*
X251500Y180000D02*
D03*
X245500D02*
D03*
X240000D02*
D03*
X234500D02*
D03*
Y174000D02*
D03*
X257000Y157000D02*
D03*
Y151500D02*
D03*
Y146000D02*
D03*
Y140500D02*
D03*
X251500Y151500D02*
D03*
X258032Y236000D02*
D03*
X151500Y233500D02*
D03*
X133709Y270630D02*
D03*
X139500Y263500D02*
D03*
X143370Y260382D02*
D03*
X168610Y238890D02*
D03*
X160000Y243000D02*
D03*
X173500Y250000D02*
D03*
X166500Y253000D02*
D03*
X130500Y255000D02*
D03*
X162500Y265454D02*
D03*
X148370Y264870D02*
D03*
X177500Y245500D02*
D03*
X181000Y247500D02*
D03*
X189500Y243500D02*
D03*
X172500Y265000D02*
D03*
X152000Y262500D02*
D03*
X183000Y259000D02*
D03*
X171953Y269047D02*
D03*
X182000Y254500D02*
D03*
X181000Y276500D02*
D03*
X156500Y244969D02*
D03*
X263000Y236500D02*
D03*
X273488Y237988D02*
D03*
X223018Y227000D02*
D03*
X223118Y222800D02*
D03*
X226500Y228000D02*
D03*
X280000Y201500D02*
D03*
X294500Y206000D02*
D03*
X271000Y206000D02*
D03*
X289500Y238500D02*
D03*
X229000Y211500D02*
D03*
X264000Y198000D02*
D03*
X265600Y227900D02*
D03*
X283500Y229500D02*
D03*
X260469Y217969D02*
D03*
X254500Y214000D02*
D03*
X260963Y221168D02*
D03*
X283500Y224000D02*
D03*
X268500Y210500D02*
D03*
X250000D02*
D03*
X253000Y207500D02*
D03*
X283000Y219500D02*
D03*
Y214500D02*
D03*
X240000Y204000D02*
D03*
X246000Y207500D02*
D03*
X242000Y199500D02*
D03*
X207000Y189500D02*
D03*
X210000Y193500D02*
D03*
X202000Y178500D02*
D03*
X205500Y178500D02*
D03*
X204500Y186500D02*
D03*
X255000Y194500D02*
D03*
Y184500D02*
D03*
X157500Y179500D02*
D03*
X172500Y192500D02*
D03*
X181500Y182500D02*
D03*
Y168500D02*
D03*
X183000Y121000D02*
D03*
X185000Y126000D02*
D03*
X187500Y157500D02*
D03*
Y153500D02*
D03*
X179000Y121000D02*
D03*
X198000Y128500D02*
D03*
X180500Y149000D02*
D03*
X187500Y149500D02*
D03*
X179000Y175000D02*
D03*
X203000Y126000D02*
D03*
X196500Y144500D02*
D03*
X199500Y142636D02*
D03*
X213500Y136000D02*
D03*
X203000Y143000D02*
D03*
X207000Y144500D02*
D03*
X193000Y128500D02*
D03*
X216000Y131000D02*
D03*
X212500Y124500D02*
D03*
X170500Y144000D02*
D03*
X188500Y143000D02*
D03*
X177000D02*
D03*
X230000Y193000D02*
D03*
Y200000D02*
D03*
X214000Y210500D02*
D03*
Y201000D02*
D03*
X136157Y212869D02*
D03*
X132500Y215000D02*
D03*
X192000Y220000D02*
D03*
D52*
X247532Y232000D02*
D03*
Y220000D02*
D03*
X235531Y232000D02*
D03*
Y220000D02*
D03*
Y226000D02*
D03*
X247532D02*
D03*
X241531Y232000D02*
D03*
Y220000D02*
D03*
Y226000D02*
D03*
X211500Y159000D02*
D03*
X199500D02*
D03*
X205500Y165000D02*
D03*
Y153000D02*
D03*
Y159000D02*
D03*
X211500Y165000D02*
D03*
Y153000D02*
D03*
X199500D02*
D03*
Y165000D02*
D03*
X169000Y216500D02*
D03*
Y229500D02*
D03*
X182000D02*
D03*
Y216500D02*
D03*
X175500D02*
D03*
Y223000D02*
D03*
Y229500D02*
D03*
X182000Y223000D02*
D03*
X169000D02*
D03*
M02*
