%FSLAX25Y25*%
%MOIN*%
G70*
G01*
G75*
G04 Layer_Physical_Order=3*
G04 Layer_Color=36540*
%ADD10R,0.05512X0.04724*%
%ADD11R,0.04331X0.07480*%
%ADD12R,0.05315X0.01575*%
%ADD13R,0.09449X0.02992*%
%ADD14R,0.05118X0.02756*%
%ADD15O,0.03347X0.01102*%
%ADD16O,0.01102X0.03347*%
%ADD17R,0.06693X0.06693*%
%ADD18R,0.16535X0.16535*%
%ADD19O,0.02900X0.01100*%
%ADD20O,0.01100X0.02900*%
%ADD21R,0.15748X0.15748*%
%ADD22R,0.17606X0.17606*%
%ADD23O,0.03347X0.01102*%
%ADD24O,0.01102X0.03347*%
%ADD25R,0.04724X0.04724*%
%ADD26R,0.04921X0.07874*%
%ADD27R,0.02756X0.03543*%
%ADD28R,0.02756X0.00984*%
%ADD29R,0.02402X0.08661*%
%ADD30R,0.05512X0.04331*%
%ADD31R,0.01181X0.01181*%
%ADD32R,0.01181X0.01181*%
%ADD33R,0.02362X0.01969*%
%ADD34R,0.01969X0.02362*%
%ADD35R,0.02756X0.03543*%
%ADD36R,0.03543X0.02756*%
%ADD37R,0.02992X0.09449*%
%ADD38R,0.04331X0.05512*%
%ADD39R,0.04724X0.04724*%
%ADD40R,0.07480X0.04331*%
%ADD41C,0.01200*%
%ADD42C,0.02000*%
%ADD43C,0.01000*%
%ADD44C,0.01500*%
%ADD45O,0.06299X0.04724*%
%ADD46C,0.04724*%
%ADD47R,0.06299X0.06299*%
%ADD48C,0.06299*%
%ADD49R,0.07480X0.07480*%
%ADD50C,0.07480*%
%ADD51C,0.02400*%
%ADD52C,0.03150*%
%ADD53C,0.04000*%
%ADD54O,0.08331X0.06756*%
%ADD55C,0.06756*%
G04:AMPARAMS|DCode=56|XSize=99.37mil|YSize=99.37mil|CornerRadius=0mil|HoleSize=0mil|Usage=FLASHONLY|Rotation=0.000|XOffset=0mil|YOffset=0mil|HoleType=Round|Shape=Relief|Width=10mil|Gap=10mil|Entries=4|*
%AMTHD56*
7,0,0,0.09937,0.07937,0.01000,45*
%
%ADD56THD56*%
%ADD57C,0.07937*%
G04:AMPARAMS|DCode=58|XSize=95.433mil|YSize=95.433mil|CornerRadius=0mil|HoleSize=0mil|Usage=FLASHONLY|Rotation=0.000|XOffset=0mil|YOffset=0mil|HoleType=Round|Shape=Relief|Width=10mil|Gap=10mil|Entries=4|*
%AMTHD58*
7,0,0,0.09543,0.07543,0.01000,45*
%
%ADD58THD58*%
%ADD59C,0.07543*%
G04:AMPARAMS|DCode=60|XSize=72mil|YSize=72mil|CornerRadius=0mil|HoleSize=0mil|Usage=FLASHONLY|Rotation=0.000|XOffset=0mil|YOffset=0mil|HoleType=Round|Shape=Relief|Width=10mil|Gap=10mil|Entries=4|*
%AMTHD60*
7,0,0,0.07200,0.05200,0.01000,45*
%
%ADD60THD60*%
%ADD61C,0.05200*%
G36*
X295500Y208533D02*
X295000Y208144D01*
D01*
Y206000D01*
Y203856D01*
D01*
X295500Y203467D01*
Y120153D01*
X295038Y119962D01*
X295000Y120000D01*
X274605D01*
X274413Y120462D01*
X282726Y128774D01*
X283101Y129337D01*
X283233Y130000D01*
X283233Y130000D01*
Y188000D01*
X283101Y188663D01*
X282726Y189226D01*
X279726Y192226D01*
X279163Y192601D01*
X278500Y192733D01*
X276088D01*
X275879Y193239D01*
X275167Y194167D01*
X274239Y194878D01*
X273159Y195326D01*
X272000Y195478D01*
X270841Y195326D01*
X269761Y194878D01*
X268833Y194167D01*
X268122Y193239D01*
X267674Y192159D01*
X267522Y191000D01*
X267674Y189841D01*
X268122Y188761D01*
X268833Y187833D01*
X269761Y187121D01*
X270841Y186674D01*
X272000Y186521D01*
X273159Y186674D01*
X274239Y187121D01*
X275167Y187833D01*
X275879Y188761D01*
X276088Y189267D01*
X277782D01*
X279767Y187282D01*
Y130718D01*
X269049Y120000D01*
X185172D01*
X184838Y120500D01*
X184937Y121000D01*
X184790Y121741D01*
X184370Y122370D01*
X183741Y122790D01*
X183000Y122937D01*
X182259Y122790D01*
X181630Y122370D01*
X181278Y121842D01*
X181071Y121800D01*
X180929D01*
X180722Y121842D01*
X180370Y122370D01*
X179741Y122790D01*
X179000Y122937D01*
X178259Y122790D01*
X177630Y122370D01*
X177210Y121741D01*
X177063Y121000D01*
X177162Y120500D01*
X176828Y120000D01*
X123451D01*
X111733Y131718D01*
Y132174D01*
X111790Y132259D01*
X111937Y133000D01*
X111790Y133741D01*
X111370Y134370D01*
X110741Y134790D01*
X110000Y134937D01*
X109259Y134790D01*
X108630Y134370D01*
X108210Y133741D01*
X108063Y133000D01*
X108210Y132259D01*
X108267Y132174D01*
Y131000D01*
X108399Y130337D01*
X108774Y129774D01*
X118087Y120462D01*
X117895Y120000D01*
X100354D01*
X100001Y120354D01*
X100081Y145595D01*
X100582Y145693D01*
X100637Y145559D01*
X101254Y144754D01*
X102059Y144137D01*
X102995Y143749D01*
X104000Y143617D01*
X105005Y143749D01*
X105941Y144137D01*
X106746Y144754D01*
X107363Y145559D01*
X107750Y146495D01*
X107883Y147500D01*
X107750Y148505D01*
X107363Y149441D01*
X106746Y150246D01*
X105941Y150863D01*
X105005Y151251D01*
X104000Y151383D01*
X102995Y151251D01*
X102059Y150863D01*
X101254Y150246D01*
X100637Y149441D01*
X100593Y149335D01*
X100093Y149435D01*
X100166Y172151D01*
X100666Y172249D01*
X100900Y171684D01*
X101391Y171044D01*
X102031Y170554D01*
X102775Y170245D01*
X103575Y170140D01*
X105150D01*
X105949Y170245D01*
X106694Y170554D01*
X107334Y171044D01*
X107824Y171684D01*
X108133Y172429D01*
X108238Y173228D01*
X108133Y174028D01*
X107824Y174773D01*
X107334Y175412D01*
X106694Y175903D01*
X105949Y176212D01*
X105150Y176317D01*
X103575D01*
X102775Y176212D01*
X102031Y175903D01*
X101391Y175412D01*
X100900Y174773D01*
X100672Y174223D01*
X100172Y174323D01*
X100256Y200477D01*
X100756Y200575D01*
X100900Y200227D01*
X101391Y199588D01*
X102031Y199097D01*
X102775Y198788D01*
X103575Y198683D01*
X105150D01*
X105949Y198788D01*
X106694Y199097D01*
X107334Y199588D01*
X107824Y200227D01*
X108133Y200972D01*
X108238Y201772D01*
X108133Y202571D01*
X107824Y203316D01*
X107334Y203956D01*
X106694Y204447D01*
X105949Y204755D01*
X105150Y204860D01*
X103575D01*
X102775Y204755D01*
X102031Y204447D01*
X101391Y203956D01*
X100900Y203316D01*
X100763Y202986D01*
X100264Y203087D01*
X100500Y277500D01*
X178828D01*
X179162Y277000D01*
X179063Y276500D01*
X179210Y275759D01*
X179630Y275130D01*
X180259Y274710D01*
X181000Y274563D01*
X181741Y274710D01*
X182370Y275130D01*
X182790Y275759D01*
X182937Y276500D01*
X182838Y277000D01*
X183173Y277500D01*
X295500D01*
Y208533D01*
D02*
G37*
%LPC*%
G36*
X145000Y207000D02*
X143356D01*
X143428Y206642D01*
X143914Y205914D01*
X144642Y205428D01*
X145000Y205356D01*
Y207000D01*
D02*
G37*
G36*
X134500Y207937D02*
X133759Y207790D01*
X133130Y207370D01*
X132710Y206741D01*
X132675Y206565D01*
X132144Y206459D01*
X131870Y206870D01*
X131241Y207290D01*
X130500Y207437D01*
X129759Y207290D01*
X129130Y206870D01*
X128710Y206241D01*
X128563Y205500D01*
X128710Y204759D01*
X129130Y204130D01*
X129759Y203710D01*
X130500Y203563D01*
X131241Y203710D01*
X131870Y204130D01*
X132290Y204759D01*
X132325Y204935D01*
X132856Y205041D01*
X133130Y204630D01*
X133759Y204210D01*
X134500Y204063D01*
X135241Y204210D01*
X135870Y204630D01*
X136290Y205259D01*
X136437Y206000D01*
X136290Y206741D01*
X135870Y207370D01*
X135241Y207790D01*
X134500Y207937D01*
D02*
G37*
G36*
X148531Y205675D02*
Y204031D01*
X150175D01*
X150104Y204390D01*
X149618Y205118D01*
X148890Y205604D01*
X148531Y205675D01*
D02*
G37*
G36*
X273144Y205500D02*
X271500D01*
Y203856D01*
X271858Y203928D01*
X272586Y204414D01*
X273072Y205142D01*
X273144Y205500D01*
D02*
G37*
G36*
X147644Y207000D02*
X146000D01*
Y205356D01*
X146004Y205357D01*
X146305Y204907D01*
X145959Y204390D01*
X145888Y204031D01*
X147531D01*
Y205675D01*
X147527Y205674D01*
X147227Y206124D01*
X147572Y206642D01*
X147644Y207000D01*
D02*
G37*
G36*
X294000Y208144D02*
X293642Y208072D01*
X292914Y207586D01*
X292428Y206858D01*
X292356Y206500D01*
X294000D01*
Y208144D01*
D02*
G37*
G36*
X146000Y209644D02*
Y208000D01*
X147644D01*
X147572Y208358D01*
X147086Y209086D01*
X146358Y209572D01*
X146000Y209644D01*
D02*
G37*
G36*
X132500Y216937D02*
X131759Y216790D01*
X131130Y216370D01*
X130710Y215741D01*
X130563Y215000D01*
X130710Y214259D01*
X131130Y213630D01*
X131759Y213210D01*
X132500Y213063D01*
X133241Y213210D01*
X133860Y213624D01*
X133906Y213613D01*
X134329Y213417D01*
X134220Y212869D01*
X134221Y212864D01*
X133885Y212414D01*
X133259Y212290D01*
X132630Y211870D01*
X132210Y211241D01*
X132063Y210500D01*
X132210Y209759D01*
X132630Y209130D01*
X133259Y208710D01*
X134000Y208563D01*
X134741Y208710D01*
X135370Y209130D01*
X135790Y209759D01*
X135937Y210500D01*
X135936Y210504D01*
X136272Y210954D01*
X136898Y211079D01*
X137527Y211499D01*
X137947Y212127D01*
X138094Y212869D01*
X137947Y213610D01*
X137527Y214239D01*
X136898Y214658D01*
X136157Y214806D01*
X135415Y214658D01*
X134797Y214245D01*
X134751Y214255D01*
X134328Y214452D01*
X134437Y215000D01*
X134290Y215741D01*
X133870Y216370D01*
X133241Y216790D01*
X132500Y216937D01*
D02*
G37*
G36*
X145000Y209644D02*
X144642Y209572D01*
X143914Y209086D01*
X143428Y208358D01*
X143356Y208000D01*
X145000D01*
Y209644D01*
D02*
G37*
G36*
X270500Y208144D02*
X270142Y208072D01*
X269414Y207586D01*
X268928Y206858D01*
X268856Y206500D01*
X270500D01*
Y208144D01*
D02*
G37*
G36*
X271500D02*
Y206500D01*
X273144D01*
X273072Y206858D01*
X272586Y207586D01*
X271858Y208072D01*
X271500Y208144D01*
D02*
G37*
G36*
X150175Y203031D02*
X145888D01*
X145959Y202673D01*
X146445Y201945D01*
X147173Y201459D01*
X147367Y201421D01*
Y200911D01*
X146759Y200790D01*
X146130Y200370D01*
X145710Y199741D01*
X145563Y199000D01*
X145710Y198259D01*
X146130Y197630D01*
X145851Y197216D01*
X145741Y197290D01*
X145000Y197437D01*
X144259Y197290D01*
X143630Y196870D01*
X143210Y196241D01*
X143063Y195500D01*
X143210Y194759D01*
X143630Y194130D01*
X144259Y193710D01*
X145000Y193563D01*
X145741Y193710D01*
X146370Y194130D01*
X146790Y194759D01*
X146937Y195500D01*
X146790Y196241D01*
X146370Y196870D01*
X146649Y197283D01*
X146759Y197210D01*
X147500Y197063D01*
X148241Y197210D01*
X148870Y197630D01*
X149290Y198259D01*
X149437Y199000D01*
X149290Y199741D01*
X148870Y200370D01*
X148241Y200790D01*
X148164Y200805D01*
Y201315D01*
X148890Y201459D01*
X149618Y201945D01*
X150104Y202673D01*
X150175Y203031D01*
D02*
G37*
G36*
X155000Y201937D02*
X154259Y201790D01*
X153630Y201370D01*
X153210Y200741D01*
X153063Y200000D01*
X153210Y199259D01*
X153630Y198630D01*
X154259Y198210D01*
X155000Y198063D01*
X155741Y198210D01*
X156370Y198630D01*
X156790Y199259D01*
X156937Y200000D01*
X156790Y200741D01*
X156370Y201370D01*
X155741Y201790D01*
X155000Y201937D01*
D02*
G37*
G36*
X132500Y200437D02*
X131759Y200290D01*
X131130Y199870D01*
X130710Y199241D01*
X130563Y198500D01*
X130710Y197759D01*
X131130Y197130D01*
X131759Y196710D01*
X132500Y196563D01*
X133241Y196710D01*
X133870Y197130D01*
X134290Y197759D01*
X134437Y198500D01*
X134290Y199241D01*
X133870Y199870D01*
X133241Y200290D01*
X132500Y200437D01*
D02*
G37*
G36*
X114795Y200136D02*
X113996Y200031D01*
X113251Y199722D01*
X112611Y199231D01*
X112120Y198592D01*
X111812Y197847D01*
X111707Y197047D01*
X111812Y196248D01*
X112120Y195503D01*
X112611Y194863D01*
X113251Y194372D01*
X113996Y194064D01*
X114795Y193959D01*
X115595Y194064D01*
X116340Y194372D01*
X116979Y194863D01*
X117470Y195503D01*
X117779Y196248D01*
X117884Y197047D01*
X117779Y197847D01*
X117470Y198592D01*
X116979Y199231D01*
X116340Y199722D01*
X115595Y200031D01*
X114795Y200136D01*
D02*
G37*
G36*
X264000Y199937D02*
X263259Y199790D01*
X262630Y199370D01*
X262210Y198741D01*
X262063Y198000D01*
X262210Y197259D01*
X262630Y196630D01*
X263259Y196210D01*
X264000Y196063D01*
X264741Y196210D01*
X265370Y196630D01*
X265790Y197259D01*
X265937Y198000D01*
X265790Y198741D01*
X265370Y199370D01*
X264741Y199790D01*
X264000Y199937D01*
D02*
G37*
G36*
X230000Y201937D02*
X229259Y201790D01*
X228630Y201370D01*
X228210Y200741D01*
X228063Y200000D01*
X228210Y199259D01*
X228630Y198630D01*
X229259Y198210D01*
X230000Y198063D01*
X230741Y198210D01*
X231370Y198630D01*
X231790Y199259D01*
X231937Y200000D01*
X231790Y200741D01*
X231370Y201370D01*
X230741Y201790D01*
X230000Y201937D01*
D02*
G37*
G36*
X294000Y205500D02*
X292356D01*
X292428Y205142D01*
X292914Y204414D01*
X293642Y203928D01*
X294000Y203856D01*
Y205500D01*
D02*
G37*
G36*
X270500Y205500D02*
X268856D01*
X268928Y205142D01*
X269414Y204414D01*
X270142Y203928D01*
X270500Y203856D01*
Y205500D01*
D02*
G37*
G36*
X191969Y203969D02*
X191227Y203821D01*
X190599Y203401D01*
X190179Y202773D01*
X190031Y202031D01*
X190179Y201290D01*
X190599Y200662D01*
X191227Y200242D01*
X191969Y200094D01*
X192710Y200242D01*
X193338Y200662D01*
X193758Y201290D01*
X193906Y202031D01*
X193758Y202773D01*
X193338Y203401D01*
X192710Y203821D01*
X191969Y203969D01*
D02*
G37*
G36*
X187500Y199937D02*
X186759Y199790D01*
X186130Y199370D01*
X186000Y199175D01*
X185500D01*
X185370Y199370D01*
X184741Y199790D01*
X184000Y199937D01*
X183259Y199790D01*
X182630Y199370D01*
X182210Y198741D01*
X182063Y198000D01*
X182210Y197259D01*
X182630Y196630D01*
X183259Y196210D01*
X184000Y196063D01*
X184741Y196210D01*
X185370Y196630D01*
X185500Y196825D01*
X186000D01*
X186130Y196630D01*
X186759Y196210D01*
X187500Y196063D01*
X188241Y196210D01*
X188870Y196630D01*
X189290Y197259D01*
X189437Y198000D01*
X189290Y198741D01*
X188870Y199370D01*
X188241Y199790D01*
X187500Y199937D01*
D02*
G37*
G36*
X280000Y203437D02*
X279259Y203290D01*
X278630Y202870D01*
X278210Y202241D01*
X278063Y201500D01*
X278210Y200759D01*
X278630Y200130D01*
X279259Y199710D01*
X280000Y199563D01*
X280741Y199710D01*
X281370Y200130D01*
X281790Y200759D01*
X281937Y201500D01*
X281790Y202241D01*
X281370Y202870D01*
X280741Y203290D01*
X280000Y203437D01*
D02*
G37*
G36*
X115850Y145350D02*
X108150D01*
Y137650D01*
X115850D01*
Y145350D01*
D02*
G37*
G36*
X250500Y139937D02*
X249759Y139790D01*
X249130Y139370D01*
X248710Y138741D01*
X248563Y138000D01*
X248710Y137259D01*
X249130Y136630D01*
X249759Y136210D01*
X250500Y136063D01*
X251241Y136210D01*
X251870Y136630D01*
X252290Y137259D01*
X252437Y138000D01*
X252290Y138741D01*
X251870Y139370D01*
X251241Y139790D01*
X250500Y139937D01*
D02*
G37*
G36*
X283000Y221437D02*
X282259Y221290D01*
X281630Y220870D01*
X281210Y220241D01*
X281063Y219500D01*
X281210Y218759D01*
X281630Y218130D01*
X282259Y217710D01*
X283000Y217563D01*
X283741Y217710D01*
X284370Y218130D01*
X284790Y218759D01*
X284937Y219500D01*
X284790Y220241D01*
X284370Y220870D01*
X283741Y221290D01*
X283000Y221437D01*
D02*
G37*
G36*
X141000Y220437D02*
X140259Y220290D01*
X139630Y219870D01*
X139210Y219241D01*
X139063Y218500D01*
X139210Y217759D01*
X139630Y217130D01*
X140259Y216710D01*
X141000Y216563D01*
X141741Y216710D01*
X142370Y217130D01*
X142790Y217759D01*
X142937Y218500D01*
X142790Y219241D01*
X142370Y219870D01*
X141741Y220290D01*
X141000Y220437D01*
D02*
G37*
G36*
X132500Y221437D02*
X131759Y221290D01*
X131130Y220870D01*
X130710Y220241D01*
X130563Y219500D01*
X130710Y218759D01*
X131130Y218130D01*
X131759Y217710D01*
X132500Y217563D01*
X133241Y217710D01*
X133870Y218130D01*
X134290Y218759D01*
X134437Y219500D01*
X134290Y220241D01*
X133870Y220870D01*
X133241Y221290D01*
X132500Y221437D01*
D02*
G37*
G36*
X142000Y139437D02*
X141259Y139290D01*
X140630Y138870D01*
X140210Y138241D01*
X140063Y137500D01*
X140210Y136759D01*
X140630Y136130D01*
X141259Y135710D01*
X142000Y135563D01*
X142741Y135710D01*
X143370Y136130D01*
X143790Y136759D01*
X143937Y137500D01*
X143790Y138241D01*
X143370Y138870D01*
X142741Y139290D01*
X142000Y139437D01*
D02*
G37*
G36*
X245000Y133937D02*
X244259Y133790D01*
X243630Y133370D01*
X243210Y132741D01*
X243063Y132000D01*
X243210Y131259D01*
X243630Y130630D01*
X244259Y130210D01*
X245000Y130063D01*
X245741Y130210D01*
X246370Y130630D01*
X246790Y131259D01*
X246937Y132000D01*
X246790Y132741D01*
X246370Y133370D01*
X245741Y133790D01*
X245000Y133937D01*
D02*
G37*
G36*
X275000Y133437D02*
X274259Y133290D01*
X273630Y132870D01*
X273210Y132241D01*
X273063Y131500D01*
X273210Y130759D01*
X273630Y130130D01*
X274259Y129710D01*
X275000Y129563D01*
X275741Y129710D01*
X276370Y130130D01*
X276790Y130759D01*
X276937Y131500D01*
X276790Y132241D01*
X276370Y132870D01*
X275741Y133290D01*
X275000Y133437D01*
D02*
G37*
G36*
X213500Y137937D02*
X212759Y137790D01*
X212130Y137370D01*
X211710Y136741D01*
X211563Y136000D01*
X211710Y135259D01*
X212130Y134630D01*
X212759Y134210D01*
X213500Y134063D01*
X214241Y134210D01*
X214870Y134630D01*
X215290Y135259D01*
X215437Y136000D01*
X215290Y136741D01*
X214870Y137370D01*
X214241Y137790D01*
X213500Y137937D01*
D02*
G37*
G36*
X221031Y139406D02*
X220290Y139258D01*
X219662Y138838D01*
X219242Y138210D01*
X219094Y137469D01*
X219242Y136727D01*
X219662Y136099D01*
X220290Y135679D01*
X221031Y135531D01*
X221773Y135679D01*
X222401Y136099D01*
X222821Y136727D01*
X222969Y137469D01*
X222821Y138210D01*
X222401Y138838D01*
X221773Y139258D01*
X221031Y139406D01*
D02*
G37*
G36*
X198000Y222937D02*
X197259Y222790D01*
X196630Y222370D01*
X196210Y221741D01*
X196063Y221000D01*
X196210Y220259D01*
X196630Y219630D01*
X197259Y219210D01*
X198000Y219063D01*
X198741Y219210D01*
X199370Y219630D01*
X199790Y220259D01*
X199937Y221000D01*
X199790Y221741D01*
X199370Y222370D01*
X198741Y222790D01*
X198000Y222937D01*
D02*
G37*
G36*
X188500Y144937D02*
X187759Y144790D01*
X187130Y144370D01*
X187101Y144325D01*
X178400D01*
X178370Y144370D01*
X177741Y144790D01*
X177000Y144937D01*
X176259Y144790D01*
X175630Y144370D01*
X175210Y143741D01*
X175063Y143000D01*
X175210Y142259D01*
X175630Y141630D01*
X176259Y141210D01*
X177000Y141063D01*
X177741Y141210D01*
X178370Y141630D01*
X178400Y141674D01*
X187101D01*
X187130Y141630D01*
X187759Y141210D01*
X188500Y141063D01*
X189241Y141210D01*
X189870Y141630D01*
X190290Y142259D01*
X190437Y143000D01*
X190290Y143741D01*
X189870Y144370D01*
X189241Y144790D01*
X188500Y144937D01*
D02*
G37*
G36*
X257000Y147937D02*
X256259Y147790D01*
X255630Y147370D01*
X255210Y146741D01*
X255063Y146000D01*
X255210Y145259D01*
X255630Y144630D01*
X256259Y144210D01*
X257000Y144063D01*
X257741Y144210D01*
X258370Y144630D01*
X258790Y145259D01*
X258937Y146000D01*
X258790Y146741D01*
X258370Y147370D01*
X257741Y147790D01*
X257000Y147937D01*
D02*
G37*
G36*
X170000Y146144D02*
X169642Y146072D01*
X168914Y145586D01*
X168428Y144858D01*
X168356Y144500D01*
X170000D01*
Y146144D01*
D02*
G37*
G36*
X268500Y212437D02*
X267759Y212290D01*
X267130Y211870D01*
X266710Y211241D01*
X266563Y210500D01*
X266710Y209759D01*
X267130Y209130D01*
X267759Y208710D01*
X268500Y208563D01*
X269241Y208710D01*
X269870Y209130D01*
X270290Y209759D01*
X270437Y210500D01*
X270290Y211241D01*
X269870Y211870D01*
X269241Y212290D01*
X268500Y212437D01*
D02*
G37*
G36*
X171000Y146144D02*
Y144500D01*
X172644D01*
X172572Y144858D01*
X172086Y145586D01*
X171358Y146072D01*
X171000Y146144D01*
D02*
G37*
G36*
X163000Y145937D02*
X162259Y145790D01*
X161630Y145370D01*
X161210Y144741D01*
X161063Y144000D01*
X161210Y143259D01*
X161630Y142630D01*
X162259Y142210D01*
X163000Y142063D01*
X163741Y142210D01*
X164370Y142630D01*
X164790Y143259D01*
X164937Y144000D01*
X164790Y144741D01*
X164370Y145370D01*
X163741Y145790D01*
X163000Y145937D01*
D02*
G37*
G36*
X157500Y145571D02*
X156759Y145424D01*
X156130Y145004D01*
X155710Y144375D01*
X155563Y143634D01*
X155710Y142893D01*
X156130Y142264D01*
X156759Y141844D01*
X157500Y141697D01*
X158241Y141844D01*
X158870Y142264D01*
X159290Y142893D01*
X159437Y143634D01*
X159290Y144375D01*
X158870Y145004D01*
X158241Y145424D01*
X157500Y145571D01*
D02*
G37*
G36*
X257000Y142437D02*
X256259Y142290D01*
X255630Y141870D01*
X255210Y141241D01*
X255063Y140500D01*
X255210Y139759D01*
X255630Y139130D01*
X256259Y138710D01*
X257000Y138563D01*
X257741Y138710D01*
X258370Y139130D01*
X258790Y139759D01*
X258937Y140500D01*
X258790Y141241D01*
X258370Y141870D01*
X257741Y142290D01*
X257000Y142437D01*
D02*
G37*
G36*
X170000Y143500D02*
X168356D01*
X168428Y143142D01*
X168914Y142414D01*
X169642Y141928D01*
X170000Y141856D01*
Y143500D01*
D02*
G37*
G36*
X172644D02*
X171000D01*
Y141856D01*
X171358Y141928D01*
X172086Y142414D01*
X172572Y143142D01*
X172644Y143500D01*
D02*
G37*
G36*
X283000Y216437D02*
X282259Y216290D01*
X281630Y215870D01*
X281210Y215241D01*
X281063Y214500D01*
X281210Y213759D01*
X281630Y213130D01*
X282259Y212710D01*
X283000Y212563D01*
X283741Y212710D01*
X284370Y213130D01*
X284790Y213759D01*
X284937Y214500D01*
X284790Y215241D01*
X284370Y215870D01*
X283741Y216290D01*
X283000Y216437D01*
D02*
G37*
G36*
X179000Y203937D02*
X178259Y203790D01*
X177630Y203370D01*
X177210Y202741D01*
X177063Y202000D01*
X177210Y201259D01*
X177630Y200630D01*
X177825Y200500D01*
Y200000D01*
X177630Y199870D01*
X177210Y199241D01*
X177063Y198500D01*
X177180Y197911D01*
X177071Y197625D01*
X176844Y197406D01*
X176259Y197290D01*
X175630Y196870D01*
X175210Y196241D01*
X175063Y195500D01*
X175210Y194759D01*
X175630Y194130D01*
X176259Y193710D01*
X177000Y193563D01*
X177741Y193710D01*
X178370Y194130D01*
X178790Y194759D01*
X178937Y195500D01*
X178820Y196089D01*
X178929Y196375D01*
X179156Y196594D01*
X179741Y196710D01*
X180370Y197130D01*
X180790Y197759D01*
X180937Y198500D01*
X180790Y199241D01*
X180370Y199870D01*
X180175Y200000D01*
Y200500D01*
X180370Y200630D01*
X180790Y201259D01*
X180937Y202000D01*
X180790Y202741D01*
X180370Y203370D01*
X179741Y203790D01*
X179000Y203937D01*
D02*
G37*
G36*
X243032Y172406D02*
X242290Y172258D01*
X241662Y171838D01*
X241242Y171210D01*
X241094Y170468D01*
X241242Y169727D01*
X241662Y169099D01*
X242290Y168679D01*
X243032Y168531D01*
X243773Y168679D01*
X244401Y169099D01*
X244821Y169727D01*
X244969Y170468D01*
X244821Y171210D01*
X244401Y171838D01*
X243773Y172258D01*
X243032Y172406D01*
D02*
G37*
G36*
X168500Y170500D02*
X166856D01*
X166928Y170142D01*
X167414Y169414D01*
X168142Y168928D01*
X168500Y168856D01*
Y170500D01*
D02*
G37*
G36*
X257000Y170937D02*
X256259Y170790D01*
X255630Y170370D01*
X255210Y169741D01*
X255063Y169000D01*
X255210Y168259D01*
X255630Y167630D01*
X256259Y167210D01*
X257000Y167063D01*
X257741Y167210D01*
X258370Y167630D01*
X258790Y168259D01*
X258937Y169000D01*
X258790Y169741D01*
X258370Y170370D01*
X257741Y170790D01*
X257000Y170937D01*
D02*
G37*
G36*
X234500Y170437D02*
X233759Y170290D01*
X233130Y169870D01*
X232710Y169241D01*
X232563Y168500D01*
X232710Y167759D01*
X233130Y167130D01*
X233759Y166710D01*
X234500Y166563D01*
X235241Y166710D01*
X235870Y167130D01*
X236081Y167446D01*
X236598Y167321D01*
X236710Y166759D01*
X237130Y166130D01*
X237759Y165710D01*
X238500Y165563D01*
X239241Y165710D01*
X239870Y166130D01*
X240290Y166759D01*
X240437Y167500D01*
X240290Y168241D01*
X239870Y168870D01*
X239241Y169290D01*
X238500Y169437D01*
X237759Y169290D01*
X237130Y168870D01*
X236919Y168554D01*
X236402Y168679D01*
X236290Y169241D01*
X235870Y169870D01*
X235241Y170290D01*
X234500Y170437D01*
D02*
G37*
G36*
X252000Y170937D02*
X251259Y170790D01*
X250630Y170370D01*
X250210Y169741D01*
X250063Y169000D01*
X250210Y168259D01*
X250630Y167630D01*
X251259Y167210D01*
X252000Y167063D01*
X252741Y167210D01*
X253370Y167630D01*
X253790Y168259D01*
X253937Y169000D01*
X253790Y169741D01*
X253370Y170370D01*
X252741Y170790D01*
X252000Y170937D01*
D02*
G37*
G36*
X171144Y170500D02*
X169500D01*
Y168856D01*
X169858Y168928D01*
X170586Y169414D01*
X171072Y170142D01*
X171144Y170500D01*
D02*
G37*
G36*
X234500Y175937D02*
X233759Y175790D01*
X233130Y175370D01*
X232710Y174741D01*
X232563Y174000D01*
X232710Y173259D01*
X233130Y172630D01*
X233759Y172210D01*
X234500Y172063D01*
X235241Y172210D01*
X235870Y172630D01*
X236290Y173259D01*
X236437Y174000D01*
X236290Y174741D01*
X235870Y175370D01*
X235241Y175790D01*
X234500Y175937D01*
D02*
G37*
G36*
X257000Y176437D02*
X256259Y176290D01*
X255630Y175870D01*
X255210Y175241D01*
X255063Y174500D01*
X255210Y173759D01*
X255630Y173130D01*
X256259Y172710D01*
X257000Y172563D01*
X257741Y172710D01*
X258370Y173130D01*
X258790Y173759D01*
X258937Y174500D01*
X258790Y175241D01*
X258370Y175870D01*
X257741Y176290D01*
X257000Y176437D01*
D02*
G37*
G36*
X161500Y175437D02*
X160759Y175290D01*
X160130Y174870D01*
X159710Y174241D01*
X159563Y173500D01*
X159710Y172759D01*
X160130Y172130D01*
X160759Y171710D01*
X161500Y171563D01*
X162241Y171710D01*
X162870Y172130D01*
X163290Y172759D01*
X163437Y173500D01*
X163290Y174241D01*
X162870Y174870D01*
X162241Y175290D01*
X161500Y175437D01*
D02*
G37*
G36*
X168500Y173144D02*
X168142Y173072D01*
X167414Y172586D01*
X166928Y171858D01*
X166856Y171500D01*
X168500D01*
Y173144D01*
D02*
G37*
G36*
X169500D02*
Y171500D01*
X171144D01*
X171072Y171858D01*
X170586Y172586D01*
X169858Y173072D01*
X169500Y173144D01*
D02*
G37*
G36*
X243032Y154969D02*
X242290Y154821D01*
X241662Y154401D01*
X241242Y153773D01*
X241094Y153032D01*
X241242Y152290D01*
X241662Y151662D01*
X242290Y151242D01*
X243032Y151094D01*
X243773Y151242D01*
X244401Y151662D01*
X244821Y152290D01*
X244969Y153032D01*
X244821Y153773D01*
X244401Y154401D01*
X243773Y154821D01*
X243032Y154969D01*
D02*
G37*
G36*
X251500Y153437D02*
X250759Y153290D01*
X250130Y152870D01*
X249710Y152241D01*
X249563Y151500D01*
X249710Y150759D01*
X250130Y150130D01*
X250759Y149710D01*
X251500Y149563D01*
X252241Y149710D01*
X252870Y150130D01*
X253290Y150759D01*
X253437Y151500D01*
X253290Y152241D01*
X252870Y152870D01*
X252241Y153290D01*
X251500Y153437D01*
D02*
G37*
G36*
X257000D02*
X256259Y153290D01*
X255630Y152870D01*
X255210Y152241D01*
X255063Y151500D01*
X255210Y150759D01*
X255630Y150130D01*
X256259Y149710D01*
X257000Y149563D01*
X257741Y149710D01*
X258370Y150130D01*
X258790Y150759D01*
X258937Y151500D01*
X258790Y152241D01*
X258370Y152870D01*
X257741Y153290D01*
X257000Y153437D01*
D02*
G37*
G36*
X159500Y154437D02*
X158759Y154290D01*
X158130Y153870D01*
X157710Y153241D01*
X157563Y152500D01*
X157710Y151759D01*
X158130Y151130D01*
X158759Y150710D01*
X159500Y150563D01*
X160241Y150710D01*
X160870Y151130D01*
X161290Y151759D01*
X161437Y152500D01*
X161290Y153241D01*
X160870Y153870D01*
X160241Y154290D01*
X159500Y154437D01*
D02*
G37*
G36*
X112000Y157383D02*
X110995Y157250D01*
X110059Y156863D01*
X109254Y156246D01*
X108637Y155441D01*
X108249Y154505D01*
X108117Y153500D01*
X108249Y152495D01*
X108637Y151559D01*
X109254Y150754D01*
X110059Y150137D01*
X110995Y149750D01*
X112000Y149617D01*
X113005Y149750D01*
X113941Y150137D01*
X114746Y150754D01*
X115363Y151559D01*
X115751Y152495D01*
X115883Y153500D01*
X115751Y154505D01*
X115363Y155441D01*
X114746Y156246D01*
X113941Y156863D01*
X113005Y157250D01*
X112000Y157383D01*
D02*
G37*
G36*
X257000Y158937D02*
X256259Y158790D01*
X255630Y158370D01*
X255210Y157741D01*
X255063Y157000D01*
X255210Y156259D01*
X255630Y155630D01*
X256259Y155210D01*
X257000Y155063D01*
X257741Y155210D01*
X258370Y155630D01*
X258790Y156259D01*
X258937Y157000D01*
X258790Y157741D01*
X258370Y158370D01*
X257741Y158790D01*
X257000Y158937D01*
D02*
G37*
G36*
X133468Y146906D02*
X132727Y146758D01*
X132099Y146338D01*
X131778Y145858D01*
X131724Y145841D01*
X131276Y145841D01*
X131222Y145858D01*
X130901Y146338D01*
X130273Y146758D01*
X129532Y146906D01*
X128790Y146758D01*
X128162Y146338D01*
X127742Y145710D01*
X127594Y144968D01*
X127742Y144227D01*
X128162Y143599D01*
X128642Y143278D01*
X128659Y143224D01*
X128659Y142776D01*
X128642Y142722D01*
X128162Y142401D01*
X127742Y141773D01*
X127594Y141032D01*
X127742Y140290D01*
X128162Y139662D01*
X128790Y139242D01*
X129532Y139094D01*
X130273Y139242D01*
X130901Y139662D01*
X131222Y140142D01*
X131276Y140159D01*
X131724Y140159D01*
X131778Y140142D01*
X132099Y139662D01*
X132727Y139242D01*
X133468Y139094D01*
X134210Y139242D01*
X134838Y139662D01*
X135258Y140290D01*
X135406Y141032D01*
X135258Y141773D01*
X134838Y142401D01*
X134358Y142722D01*
X134341Y142776D01*
X134341Y143224D01*
X134358Y143278D01*
X134838Y143599D01*
X135258Y144227D01*
X135406Y144968D01*
X135258Y145710D01*
X134838Y146338D01*
X134210Y146758D01*
X133468Y146906D01*
D02*
G37*
G36*
X147500Y168126D02*
X146759Y167979D01*
X146130Y167559D01*
X145710Y166930D01*
X145563Y166189D01*
X145710Y165448D01*
X146130Y164819D01*
X146759Y164399D01*
X147500Y164252D01*
X148241Y164399D01*
X148870Y164819D01*
X149290Y165448D01*
X149437Y166189D01*
X149290Y166930D01*
X148870Y167559D01*
X148241Y167979D01*
X147500Y168126D01*
D02*
G37*
G36*
X148000Y162937D02*
X147259Y162790D01*
X146630Y162370D01*
X146210Y161741D01*
X146063Y161000D01*
X146210Y160259D01*
X146630Y159630D01*
X147259Y159210D01*
X148000Y159063D01*
X148741Y159210D01*
X149370Y159630D01*
X149644Y160041D01*
X150175Y159935D01*
X150210Y159759D01*
X150630Y159130D01*
X151259Y158710D01*
X152000Y158563D01*
X152741Y158710D01*
X153370Y159130D01*
X153790Y159759D01*
X153937Y160500D01*
X153790Y161241D01*
X153370Y161870D01*
X152741Y162290D01*
X152000Y162437D01*
X151259Y162290D01*
X150630Y161870D01*
X150356Y161459D01*
X149825Y161565D01*
X149790Y161741D01*
X149370Y162370D01*
X148741Y162790D01*
X148000Y162937D01*
D02*
G37*
G36*
X180500Y150937D02*
X179759Y150790D01*
X179130Y150370D01*
X178710Y149741D01*
X178563Y149000D01*
X178710Y148259D01*
X179130Y147630D01*
X179759Y147210D01*
X180500Y147063D01*
X181241Y147210D01*
X181870Y147630D01*
X182290Y148259D01*
X182437Y149000D01*
X182290Y149741D01*
X181870Y150370D01*
X181241Y150790D01*
X180500Y150937D01*
D02*
G37*
G36*
X252532Y160969D02*
X251790Y160821D01*
X251162Y160401D01*
X250742Y159773D01*
X250594Y159031D01*
X250742Y158290D01*
X251162Y157662D01*
X251790Y157242D01*
X252532Y157094D01*
X253273Y157242D01*
X253901Y157662D01*
X254321Y158290D01*
X254469Y159031D01*
X254321Y159773D01*
X253901Y160401D01*
X253273Y160821D01*
X252532Y160969D01*
D02*
G37*
G36*
X139453Y182191D02*
X139094Y182120D01*
X138367Y181633D01*
X137880Y180906D01*
X137809Y180547D01*
X139453D01*
Y182191D01*
D02*
G37*
G36*
X140453D02*
Y180547D01*
X142096D01*
X142025Y180906D01*
X141539Y181633D01*
X140811Y182120D01*
X140453Y182191D01*
D02*
G37*
G36*
X257000Y181937D02*
X256259Y181790D01*
X255630Y181370D01*
X255210Y180741D01*
X255063Y180000D01*
X255210Y179259D01*
X255630Y178630D01*
X256259Y178210D01*
X257000Y178063D01*
X257741Y178210D01*
X258370Y178630D01*
X258790Y179259D01*
X258937Y180000D01*
X258790Y180741D01*
X258370Y181370D01*
X257741Y181790D01*
X257000Y181937D01*
D02*
G37*
G36*
X245500D02*
X244759Y181790D01*
X244130Y181370D01*
X243710Y180741D01*
X243563Y180000D01*
X243710Y179259D01*
X244130Y178630D01*
X244759Y178210D01*
X245500Y178063D01*
X246241Y178210D01*
X246870Y178630D01*
X247290Y179259D01*
X247437Y180000D01*
X247290Y180741D01*
X246870Y181370D01*
X246241Y181790D01*
X245500Y181937D01*
D02*
G37*
G36*
X251500D02*
X250759Y181790D01*
X250130Y181370D01*
X249710Y180741D01*
X249563Y180000D01*
X249710Y179259D01*
X250130Y178630D01*
X250759Y178210D01*
X251500Y178063D01*
X252241Y178210D01*
X252870Y178630D01*
X253290Y179259D01*
X253437Y180000D01*
X253290Y180741D01*
X252870Y181370D01*
X252241Y181790D01*
X251500Y181937D01*
D02*
G37*
G36*
X255000Y186437D02*
X254259Y186290D01*
X253630Y185870D01*
X253210Y185241D01*
X253063Y184500D01*
X253210Y183759D01*
X253630Y183130D01*
X254259Y182710D01*
X255000Y182563D01*
X255741Y182710D01*
X256370Y183130D01*
X256790Y183759D01*
X256937Y184500D01*
X256790Y185241D01*
X256370Y185870D01*
X255741Y186290D01*
X255000Y186437D01*
D02*
G37*
G36*
X210000Y195437D02*
X209259Y195290D01*
X208630Y194870D01*
X208210Y194241D01*
X208063Y193500D01*
X208210Y192759D01*
X208630Y192130D01*
X209259Y191710D01*
X210000Y191563D01*
X210741Y191710D01*
X211370Y192130D01*
X211790Y192759D01*
X211937Y193500D01*
X211790Y194241D01*
X211370Y194870D01*
X210741Y195290D01*
X210000Y195437D01*
D02*
G37*
G36*
X255000Y196437D02*
X254259Y196290D01*
X253630Y195870D01*
X253210Y195241D01*
X253063Y194500D01*
X253210Y193759D01*
X253630Y193130D01*
X254259Y192710D01*
X255000Y192563D01*
X255741Y192710D01*
X256370Y193130D01*
X256790Y193759D01*
X256937Y194500D01*
X256790Y195241D01*
X256370Y195870D01*
X255741Y196290D01*
X255000Y196437D01*
D02*
G37*
G36*
X230000Y194937D02*
X229259Y194790D01*
X228630Y194370D01*
X228210Y193741D01*
X228063Y193000D01*
X228210Y192259D01*
X228630Y191630D01*
X229259Y191210D01*
X230000Y191063D01*
X230741Y191210D01*
X231370Y191630D01*
X231790Y192259D01*
X231937Y193000D01*
X231790Y193741D01*
X231370Y194370D01*
X230741Y194790D01*
X230000Y194937D01*
D02*
G37*
G36*
X207000Y191437D02*
X206259Y191290D01*
X205630Y190870D01*
X205210Y190241D01*
X205063Y189500D01*
X205201Y188808D01*
X205076Y188601D01*
X204873Y188363D01*
X204500Y188437D01*
X203759Y188290D01*
X203130Y187870D01*
X202710Y187241D01*
X202563Y186500D01*
X202710Y185759D01*
X203130Y185130D01*
X203759Y184710D01*
X204021Y184658D01*
X204251Y184102D01*
X204210Y184041D01*
X204063Y183300D01*
X204210Y182559D01*
X204630Y181930D01*
X205259Y181510D01*
X206000Y181363D01*
X206741Y181510D01*
X207370Y181930D01*
X207790Y182559D01*
X207937Y183300D01*
X207790Y184041D01*
X207370Y184670D01*
X206741Y185090D01*
X206479Y185142D01*
X206249Y185697D01*
X206290Y185759D01*
X206437Y186500D01*
X206299Y187192D01*
X206424Y187399D01*
X206627Y187637D01*
X207000Y187563D01*
X207741Y187710D01*
X208370Y188130D01*
X208790Y188759D01*
X208937Y189500D01*
X208790Y190241D01*
X208370Y190870D01*
X207741Y191290D01*
X207000Y191437D01*
D02*
G37*
G36*
X172500Y194437D02*
X171759Y194290D01*
X171130Y193870D01*
X170710Y193241D01*
X170563Y192500D01*
X170710Y191759D01*
X171130Y191130D01*
X171759Y190710D01*
X172500Y190563D01*
X173241Y190710D01*
X173870Y191130D01*
X174290Y191759D01*
X174437Y192500D01*
X174290Y193241D01*
X173870Y193870D01*
X173241Y194290D01*
X172500Y194437D01*
D02*
G37*
G36*
X132500Y180437D02*
X131759Y180290D01*
X131130Y179870D01*
X130710Y179241D01*
X130563Y178500D01*
X130710Y177759D01*
X131130Y177130D01*
X131759Y176710D01*
X132500Y176563D01*
X133241Y176710D01*
X133870Y177130D01*
X134290Y177759D01*
X134437Y178500D01*
X134290Y179241D01*
X133870Y179870D01*
X133241Y180290D01*
X132500Y180437D01*
D02*
G37*
G36*
X157500Y181437D02*
X156759Y181290D01*
X156130Y180870D01*
X155710Y180241D01*
X155563Y179500D01*
X155710Y178759D01*
X156130Y178130D01*
X156759Y177710D01*
X157500Y177563D01*
X158241Y177710D01*
X158870Y178130D01*
X159290Y178759D01*
X159437Y179500D01*
X159290Y180241D01*
X158870Y180870D01*
X158241Y181290D01*
X157500Y181437D01*
D02*
G37*
G36*
X276440Y185440D02*
X267560D01*
Y176560D01*
X276440D01*
Y185440D01*
D02*
G37*
G36*
X179000Y176937D02*
X178259Y176790D01*
X177630Y176370D01*
X177210Y175741D01*
X177063Y175000D01*
X177210Y174259D01*
X177630Y173630D01*
X178259Y173210D01*
X179000Y173063D01*
X179741Y173210D01*
X180370Y173630D01*
X180790Y174259D01*
X180937Y175000D01*
X180790Y175741D01*
X180370Y176370D01*
X179741Y176790D01*
X179000Y176937D01*
D02*
G37*
G36*
X114795Y181041D02*
X113996Y180936D01*
X113251Y180628D01*
X112611Y180137D01*
X112120Y179497D01*
X111812Y178752D01*
X111707Y177953D01*
X111812Y177153D01*
X112120Y176408D01*
X112611Y175769D01*
X113251Y175278D01*
X113996Y174969D01*
X114795Y174864D01*
X115595Y174969D01*
X116340Y175278D01*
X116979Y175769D01*
X117470Y176408D01*
X117779Y177153D01*
X117884Y177953D01*
X117779Y178752D01*
X117470Y179497D01*
X116979Y180137D01*
X116340Y180628D01*
X115595Y180936D01*
X114795Y181041D01*
D02*
G37*
G36*
X149858Y181579D02*
X149117Y181431D01*
X148488Y181012D01*
X148068Y180383D01*
X147921Y179642D01*
X148068Y178900D01*
X148488Y178272D01*
X149117Y177852D01*
X149858Y177705D01*
X150600Y177852D01*
X151228Y178272D01*
X151648Y178900D01*
X151795Y179642D01*
X151648Y180383D01*
X151228Y181012D01*
X150600Y181431D01*
X149858Y181579D01*
D02*
G37*
G36*
X234500Y181937D02*
X233759Y181790D01*
X233130Y181370D01*
X232710Y180741D01*
X232563Y180000D01*
X232710Y179259D01*
X233130Y178630D01*
X233759Y178210D01*
X234500Y178063D01*
X235241Y178210D01*
X235870Y178630D01*
X236290Y179259D01*
X236437Y180000D01*
X236290Y180741D01*
X235870Y181370D01*
X235241Y181790D01*
X234500Y181937D01*
D02*
G37*
G36*
X240000D02*
X239259Y181790D01*
X238630Y181370D01*
X238210Y180741D01*
X238063Y180000D01*
X238210Y179259D01*
X238630Y178630D01*
X239259Y178210D01*
X240000Y178063D01*
X240741Y178210D01*
X241370Y178630D01*
X241790Y179259D01*
X241937Y180000D01*
X241790Y180741D01*
X241370Y181370D01*
X240741Y181790D01*
X240000Y181937D01*
D02*
G37*
G36*
X173000D02*
X172259Y181790D01*
X171630Y181370D01*
X171210Y180741D01*
X171063Y180000D01*
X171210Y179259D01*
X171630Y178630D01*
X172259Y178210D01*
X173000Y178063D01*
X173741Y178210D01*
X174370Y178630D01*
X174790Y179259D01*
X174937Y180000D01*
X174790Y180741D01*
X174370Y181370D01*
X173741Y181790D01*
X173000Y181937D01*
D02*
G37*
G36*
X139453Y179547D02*
X137809D01*
X137880Y179189D01*
X138367Y178461D01*
X139094Y177975D01*
X139453Y177904D01*
Y179547D01*
D02*
G37*
G36*
X142096D02*
X140453D01*
Y177904D01*
X140811Y177975D01*
X141539Y178461D01*
X142025Y179189D01*
X142096Y179547D01*
D02*
G37*
G36*
X203000Y224937D02*
X202259Y224790D01*
X201630Y224370D01*
X201210Y223741D01*
X201063Y223000D01*
X201210Y222259D01*
X201630Y221630D01*
X202259Y221210D01*
X203000Y221063D01*
X203741Y221210D01*
X204370Y221630D01*
X204790Y222259D01*
X204937Y223000D01*
X204790Y223741D01*
X204370Y224370D01*
X203741Y224790D01*
X203000Y224937D01*
D02*
G37*
G36*
X285500Y263437D02*
X284759Y263290D01*
X284130Y262870D01*
X283710Y262241D01*
X283563Y261500D01*
X283710Y260759D01*
X284130Y260130D01*
X284759Y259710D01*
X285500Y259563D01*
X286241Y259710D01*
X286870Y260130D01*
X287290Y260759D01*
X287437Y261500D01*
X287290Y262241D01*
X286870Y262870D01*
X286241Y263290D01*
X285500Y263437D01*
D02*
G37*
G36*
X291000D02*
X290259Y263290D01*
X289630Y262870D01*
X289210Y262241D01*
X289063Y261500D01*
X289210Y260759D01*
X289630Y260130D01*
X290259Y259710D01*
X291000Y259563D01*
X291741Y259710D01*
X292370Y260130D01*
X292790Y260759D01*
X292937Y261500D01*
X292790Y262241D01*
X292370Y262870D01*
X291741Y263290D01*
X291000Y263437D01*
D02*
G37*
G36*
X280000D02*
X279259Y263290D01*
X278630Y262870D01*
X278210Y262241D01*
X278063Y261500D01*
X278210Y260759D01*
X278630Y260130D01*
X279259Y259710D01*
X280000Y259563D01*
X280741Y259710D01*
X281370Y260130D01*
X281790Y260759D01*
X281937Y261500D01*
X281790Y262241D01*
X281370Y262870D01*
X280741Y263290D01*
X280000Y263437D01*
D02*
G37*
G36*
X269000D02*
X268259Y263290D01*
X267630Y262870D01*
X267210Y262241D01*
X267063Y261500D01*
X267210Y260759D01*
X267630Y260130D01*
X268259Y259710D01*
X269000Y259563D01*
X269741Y259710D01*
X270370Y260130D01*
X270790Y260759D01*
X270937Y261500D01*
X270790Y262241D01*
X270370Y262870D01*
X269741Y263290D01*
X269000Y263437D01*
D02*
G37*
G36*
X274500D02*
X273759Y263290D01*
X273130Y262870D01*
X272710Y262241D01*
X272563Y261500D01*
X272710Y260759D01*
X273130Y260130D01*
X273759Y259710D01*
X274500Y259563D01*
X275241Y259710D01*
X275870Y260130D01*
X276290Y260759D01*
X276437Y261500D01*
X276290Y262241D01*
X275870Y262870D01*
X275241Y263290D01*
X274500Y263437D01*
D02*
G37*
G36*
X130500Y263937D02*
X129759Y263790D01*
X129130Y263370D01*
X128710Y262741D01*
X128563Y262000D01*
X128710Y261259D01*
X129130Y260630D01*
X129759Y260210D01*
X130500Y260063D01*
X131241Y260210D01*
X131870Y260630D01*
X132290Y261259D01*
X132437Y262000D01*
X132290Y262741D01*
X131870Y263370D01*
X131241Y263790D01*
X130500Y263937D01*
D02*
G37*
G36*
X174096Y268547D02*
X169809D01*
X169880Y268189D01*
X170367Y267461D01*
X171094Y266975D01*
X171126Y266969D01*
X171232Y266438D01*
X171130Y266370D01*
X170710Y265741D01*
X170563Y265000D01*
X170710Y264259D01*
X171130Y263630D01*
X171759Y263210D01*
X172500Y263063D01*
X173241Y263210D01*
X173870Y263630D01*
X174290Y264259D01*
X174437Y265000D01*
X174290Y265741D01*
X173870Y266370D01*
X173338Y266725D01*
X173268Y267104D01*
X173284Y267291D01*
X173539Y267461D01*
X174025Y268189D01*
X174096Y268547D01*
D02*
G37*
G36*
X162500Y267392D02*
X161759Y267244D01*
X161130Y266824D01*
X160710Y266196D01*
X160563Y265454D01*
X160710Y264713D01*
X161130Y264085D01*
X161759Y263665D01*
X162500Y263517D01*
X163241Y263665D01*
X163870Y264085D01*
X164290Y264713D01*
X164437Y265454D01*
X164290Y266196D01*
X163870Y266824D01*
X163241Y267244D01*
X162500Y267392D01*
D02*
G37*
G36*
X148370Y266807D02*
X147629Y266660D01*
X147000Y266240D01*
X146580Y265611D01*
X146433Y264870D01*
X146580Y264129D01*
X147000Y263500D01*
X147629Y263080D01*
X148370Y262933D01*
X149111Y263080D01*
X149740Y263500D01*
X150160Y264129D01*
X150307Y264870D01*
X150160Y265611D01*
X149740Y266240D01*
X149111Y266660D01*
X148370Y266807D01*
D02*
G37*
G36*
X152000Y264437D02*
X151259Y264290D01*
X150630Y263870D01*
X150210Y263241D01*
X150063Y262500D01*
X150210Y261759D01*
X150630Y261130D01*
X151259Y260710D01*
X152000Y260563D01*
X152741Y260710D01*
X153370Y261130D01*
X153790Y261759D01*
X153937Y262500D01*
X153790Y263241D01*
X153370Y263870D01*
X152741Y264290D01*
X152000Y264437D01*
D02*
G37*
G36*
X139500Y265437D02*
X138759Y265290D01*
X138130Y264870D01*
X137710Y264241D01*
X137563Y263500D01*
X137710Y262759D01*
X138130Y262130D01*
X138759Y261710D01*
X139500Y261563D01*
X140241Y261710D01*
X140870Y262130D01*
X141290Y262759D01*
X141437Y263500D01*
X141290Y264241D01*
X140870Y264870D01*
X140241Y265290D01*
X139500Y265437D01*
D02*
G37*
G36*
X174000Y276724D02*
X128500D01*
X128032Y276630D01*
X127635Y276365D01*
X123135Y271865D01*
X122870Y271468D01*
X122776Y271000D01*
Y136007D01*
X118173Y131403D01*
X118000Y131437D01*
X117259Y131290D01*
X116630Y130870D01*
X116210Y130241D01*
X116063Y129500D01*
X116210Y128759D01*
X116630Y128130D01*
X117259Y127710D01*
X118000Y127563D01*
X118741Y127710D01*
X119370Y128130D01*
X119790Y128759D01*
X119937Y129500D01*
X119903Y129673D01*
X124865Y134635D01*
X125130Y135032D01*
X125224Y135500D01*
Y270493D01*
X129007Y274276D01*
X173493D01*
X181776Y265993D01*
Y260468D01*
X181630Y260370D01*
X181210Y259741D01*
X181063Y259000D01*
X181210Y258259D01*
X181630Y257630D01*
X182259Y257210D01*
X183000Y257063D01*
X183741Y257210D01*
X184370Y257630D01*
X184790Y258259D01*
X184937Y259000D01*
X184790Y259741D01*
X184370Y260370D01*
X184223Y260468D01*
Y266500D01*
X184130Y266968D01*
X183865Y267365D01*
X174865Y276365D01*
X174468Y276630D01*
X174000Y276724D01*
D02*
G37*
G36*
X143370Y262320D02*
X142629Y262172D01*
X142000Y261752D01*
X141580Y261124D01*
X141433Y260382D01*
X141580Y259641D01*
X142000Y259013D01*
X142629Y258593D01*
X143370Y258445D01*
X144111Y258593D01*
X144740Y259013D01*
X145160Y259641D01*
X145307Y260382D01*
X145160Y261124D01*
X144740Y261752D01*
X144111Y262172D01*
X143370Y262320D01*
D02*
G37*
G36*
X251144Y258500D02*
X249500D01*
Y256856D01*
X249858Y256928D01*
X250586Y257414D01*
X251072Y258142D01*
X251144Y258500D01*
D02*
G37*
G36*
X257500Y258437D02*
X256759Y258290D01*
X256130Y257870D01*
X255710Y257241D01*
X255563Y256500D01*
X255710Y255759D01*
X256130Y255130D01*
X256759Y254710D01*
X257500Y254563D01*
X258241Y254710D01*
X258870Y255130D01*
X259290Y255759D01*
X259437Y256500D01*
X259290Y257241D01*
X258870Y257870D01*
X258241Y258290D01*
X257500Y258437D01*
D02*
G37*
G36*
X248500Y258500D02*
X246856D01*
X246928Y258142D01*
X247414Y257414D01*
X248142Y256928D01*
X248500Y256856D01*
Y258500D01*
D02*
G37*
G36*
X244500Y262437D02*
X243759Y262290D01*
X243130Y261870D01*
X242710Y261241D01*
X242563Y260500D01*
X242710Y259759D01*
X243130Y259130D01*
X243759Y258710D01*
X244500Y258563D01*
X245241Y258710D01*
X245870Y259130D01*
X246290Y259759D01*
X246437Y260500D01*
X246290Y261241D01*
X245870Y261870D01*
X245241Y262290D01*
X244500Y262437D01*
D02*
G37*
G36*
X258000Y263437D02*
X257259Y263290D01*
X256630Y262870D01*
X256210Y262241D01*
X256063Y261500D01*
X256210Y260759D01*
X256630Y260130D01*
X257259Y259710D01*
X258000Y259563D01*
X258741Y259710D01*
X259370Y260130D01*
X259790Y260759D01*
X259937Y261500D01*
X259790Y262241D01*
X259370Y262870D01*
X258741Y263290D01*
X258000Y263437D01*
D02*
G37*
G36*
X263500D02*
X262759Y263290D01*
X262130Y262870D01*
X261710Y262241D01*
X261563Y261500D01*
X261710Y260759D01*
X262130Y260130D01*
X262759Y259710D01*
X263500Y259563D01*
X264241Y259710D01*
X264870Y260130D01*
X265290Y260759D01*
X265437Y261500D01*
X265290Y262241D01*
X264870Y262870D01*
X264241Y263290D01*
X263500Y263437D01*
D02*
G37*
G36*
X236000D02*
X235259Y263290D01*
X234630Y262870D01*
X234210Y262241D01*
X234063Y261500D01*
X234210Y260759D01*
X234630Y260130D01*
X235259Y259710D01*
X236000Y259563D01*
X236741Y259710D01*
X237370Y260130D01*
X237790Y260759D01*
X237937Y261500D01*
X237790Y262241D01*
X237370Y262870D01*
X236741Y263290D01*
X236000Y263437D01*
D02*
G37*
G36*
X248500Y261144D02*
X248142Y261072D01*
X247414Y260586D01*
X246928Y259858D01*
X246856Y259500D01*
X248500D01*
Y261144D01*
D02*
G37*
G36*
X249500D02*
Y259500D01*
X251144D01*
X251072Y259858D01*
X250586Y260586D01*
X249858Y261072D01*
X249500Y261144D01*
D02*
G37*
G36*
X244500Y267437D02*
X243759Y267290D01*
X243130Y266870D01*
X242710Y266241D01*
X242563Y265500D01*
X242710Y264759D01*
X243130Y264130D01*
X243759Y263710D01*
X244500Y263563D01*
X245241Y263710D01*
X245870Y264130D01*
X246290Y264759D01*
X246437Y265500D01*
X246290Y266241D01*
X245870Y266870D01*
X245241Y267290D01*
X244500Y267437D01*
D02*
G37*
G36*
X291000Y268437D02*
X290259Y268290D01*
X289630Y267870D01*
X289210Y267241D01*
X289063Y266500D01*
X289210Y265759D01*
X289630Y265130D01*
X290259Y264710D01*
X291000Y264563D01*
X291741Y264710D01*
X292370Y265130D01*
X292790Y265759D01*
X292937Y266500D01*
X292790Y267241D01*
X292370Y267870D01*
X291741Y268290D01*
X291000Y268437D01*
D02*
G37*
G36*
X249000Y270437D02*
X248259Y270290D01*
X247630Y269870D01*
X247210Y269241D01*
X247063Y268500D01*
X247210Y267759D01*
X247630Y267130D01*
X248259Y266710D01*
X249000Y266563D01*
X249741Y266710D01*
X250370Y267130D01*
X250790Y267759D01*
X250937Y268500D01*
X250790Y269241D01*
X250370Y269870D01*
X249741Y270290D01*
X249000Y270437D01*
D02*
G37*
G36*
X285500Y268437D02*
X284759Y268290D01*
X284130Y267870D01*
X283710Y267241D01*
X283563Y266500D01*
X283710Y265759D01*
X284130Y265130D01*
X284759Y264710D01*
X285500Y264563D01*
X286241Y264710D01*
X286870Y265130D01*
X287290Y265759D01*
X287437Y266500D01*
X287290Y267241D01*
X286870Y267870D01*
X286241Y268290D01*
X285500Y268437D01*
D02*
G37*
G36*
X274500D02*
X273759Y268290D01*
X273130Y267870D01*
X272710Y267241D01*
X272563Y266500D01*
X272710Y265759D01*
X273130Y265130D01*
X273759Y264710D01*
X274500Y264563D01*
X275241Y264710D01*
X275870Y265130D01*
X276290Y265759D01*
X276437Y266500D01*
X276290Y267241D01*
X275870Y267870D01*
X275241Y268290D01*
X274500Y268437D01*
D02*
G37*
G36*
X280000D02*
X279259Y268290D01*
X278630Y267870D01*
X278210Y267241D01*
X278063Y266500D01*
X278210Y265759D01*
X278630Y265130D01*
X279259Y264710D01*
X280000Y264563D01*
X280741Y264710D01*
X281370Y265130D01*
X281790Y265759D01*
X281937Y266500D01*
X281790Y267241D01*
X281370Y267870D01*
X280741Y268290D01*
X280000Y268437D01*
D02*
G37*
G36*
X135853Y270130D02*
X134209D01*
Y268486D01*
X134567Y268558D01*
X135295Y269044D01*
X135781Y269772D01*
X135853Y270130D01*
D02*
G37*
G36*
X133209Y272774D02*
X132851Y272702D01*
X132123Y272216D01*
X131637Y271488D01*
X131565Y271130D01*
X133209D01*
Y272774D01*
D02*
G37*
G36*
X134209D02*
Y271130D01*
X135853D01*
X135781Y271488D01*
X135295Y272216D01*
X134567Y272702D01*
X134209Y272774D01*
D02*
G37*
G36*
X133209Y270130D02*
X131514D01*
X131445Y270044D01*
X131118Y269814D01*
X130500Y269937D01*
X129759Y269790D01*
X129130Y269370D01*
X128710Y268741D01*
X128563Y268000D01*
X128710Y267259D01*
X129130Y266630D01*
X129759Y266210D01*
X130500Y266063D01*
X131241Y266210D01*
X131870Y266630D01*
X132290Y267259D01*
X132437Y268000D01*
X132384Y268268D01*
X132834Y268569D01*
X132851Y268558D01*
X133209Y268486D01*
Y270130D01*
D02*
G37*
G36*
X171453Y271191D02*
X171094Y271120D01*
X170367Y270633D01*
X169880Y269906D01*
X169809Y269547D01*
X171453D01*
Y271191D01*
D02*
G37*
G36*
X172453D02*
Y269547D01*
X174096D01*
X174025Y269906D01*
X173539Y270633D01*
X172811Y271120D01*
X172453Y271191D01*
D02*
G37*
G36*
X220500Y267937D02*
X219759Y267790D01*
X219130Y267370D01*
X218710Y266741D01*
X218563Y266000D01*
X218710Y265259D01*
X219130Y264630D01*
X219759Y264210D01*
X220500Y264063D01*
X221241Y264210D01*
X221870Y264630D01*
X222290Y265259D01*
X222437Y266000D01*
X222290Y266741D01*
X221870Y267370D01*
X221241Y267790D01*
X220500Y267937D01*
D02*
G37*
G36*
X226000D02*
X225259Y267790D01*
X224630Y267370D01*
X224210Y266741D01*
X224063Y266000D01*
X224210Y265259D01*
X224630Y264630D01*
X225259Y264210D01*
X226000Y264063D01*
X226741Y264210D01*
X227370Y264630D01*
X227790Y265259D01*
X227937Y266000D01*
X227790Y266741D01*
X227370Y267370D01*
X226741Y267790D01*
X226000Y267937D01*
D02*
G37*
G36*
X215000D02*
X214259Y267790D01*
X213630Y267370D01*
X213210Y266741D01*
X213063Y266000D01*
X213210Y265259D01*
X213630Y264630D01*
X214259Y264210D01*
X215000Y264063D01*
X215741Y264210D01*
X216370Y264630D01*
X216790Y265259D01*
X216937Y266000D01*
X216790Y266741D01*
X216370Y267370D01*
X215741Y267790D01*
X215000Y267937D01*
D02*
G37*
G36*
X204000D02*
X203259Y267790D01*
X202630Y267370D01*
X202210Y266741D01*
X202063Y266000D01*
X202210Y265259D01*
X202630Y264630D01*
X203259Y264210D01*
X204000Y264063D01*
X204741Y264210D01*
X205370Y264630D01*
X205790Y265259D01*
X205937Y266000D01*
X205790Y266741D01*
X205370Y267370D01*
X204741Y267790D01*
X204000Y267937D01*
D02*
G37*
G36*
X209500D02*
X208759Y267790D01*
X208130Y267370D01*
X207710Y266741D01*
X207563Y266000D01*
X207710Y265259D01*
X208130Y264630D01*
X208759Y264210D01*
X209500Y264063D01*
X210241Y264210D01*
X210870Y264630D01*
X211290Y265259D01*
X211437Y266000D01*
X211290Y266741D01*
X210870Y267370D01*
X210241Y267790D01*
X209500Y267937D01*
D02*
G37*
G36*
X231500D02*
X230759Y267790D01*
X230130Y267370D01*
X229710Y266741D01*
X229563Y266000D01*
X229710Y265259D01*
X230130Y264630D01*
X230759Y264210D01*
X231500Y264063D01*
X232241Y264210D01*
X232870Y264630D01*
X233290Y265259D01*
X233437Y266000D01*
X233290Y266741D01*
X232870Y267370D01*
X232241Y267790D01*
X231500Y267937D01*
D02*
G37*
G36*
X263500Y268437D02*
X262759Y268290D01*
X262130Y267870D01*
X261710Y267241D01*
X261563Y266500D01*
X261710Y265759D01*
X262130Y265130D01*
X262759Y264710D01*
X263500Y264563D01*
X264241Y264710D01*
X264870Y265130D01*
X265290Y265759D01*
X265437Y266500D01*
X265290Y267241D01*
X264870Y267870D01*
X264241Y268290D01*
X263500Y268437D01*
D02*
G37*
G36*
X269000D02*
X268259Y268290D01*
X267630Y267870D01*
X267210Y267241D01*
X267063Y266500D01*
X267210Y265759D01*
X267630Y265130D01*
X268259Y264710D01*
X269000Y264563D01*
X269741Y264710D01*
X270370Y265130D01*
X270790Y265759D01*
X270937Y266500D01*
X270790Y267241D01*
X270370Y267870D01*
X269741Y268290D01*
X269000Y268437D01*
D02*
G37*
G36*
X258000D02*
X257259Y268290D01*
X256630Y267870D01*
X256210Y267241D01*
X256063Y266500D01*
X256210Y265759D01*
X256630Y265130D01*
X257259Y264710D01*
X258000Y264563D01*
X258741Y264710D01*
X259370Y265130D01*
X259790Y265759D01*
X259937Y266500D01*
X259790Y267241D01*
X259370Y267870D01*
X258741Y268290D01*
X258000Y268437D01*
D02*
G37*
G36*
X236000Y267937D02*
X235259Y267790D01*
X234630Y267370D01*
X234210Y266741D01*
X234063Y266000D01*
X234210Y265259D01*
X234630Y264630D01*
X235259Y264210D01*
X236000Y264063D01*
X236741Y264210D01*
X237370Y264630D01*
X237790Y265259D01*
X237937Y266000D01*
X237790Y266741D01*
X237370Y267370D01*
X236741Y267790D01*
X236000Y267937D01*
D02*
G37*
G36*
X253000Y268437D02*
X252259Y268290D01*
X251630Y267870D01*
X251210Y267241D01*
X251063Y266500D01*
X251210Y265759D01*
X251630Y265130D01*
X252259Y264710D01*
X253000Y264563D01*
X253741Y264710D01*
X254370Y265130D01*
X254790Y265759D01*
X254937Y266500D01*
X254790Y267241D01*
X254370Y267870D01*
X253741Y268290D01*
X253000Y268437D01*
D02*
G37*
G36*
X185000Y127937D02*
X184259Y127790D01*
X183630Y127370D01*
X183210Y126741D01*
X183063Y126000D01*
X183210Y125259D01*
X183630Y124630D01*
X184259Y124210D01*
X185000Y124063D01*
X185741Y124210D01*
X186370Y124630D01*
X186790Y125259D01*
X186937Y126000D01*
X186790Y126741D01*
X186370Y127370D01*
X185741Y127790D01*
X185000Y127937D01*
D02*
G37*
G36*
X214644Y124000D02*
X213000D01*
Y122356D01*
X213358Y122428D01*
X214086Y122914D01*
X214572Y123642D01*
X214644Y124000D01*
D02*
G37*
G36*
X203000Y127937D02*
X202259Y127790D01*
X201630Y127370D01*
X201210Y126741D01*
X201063Y126000D01*
X201210Y125259D01*
X201630Y124630D01*
X202259Y124210D01*
X203000Y124063D01*
X203741Y124210D01*
X204370Y124630D01*
X204790Y125259D01*
X204937Y126000D01*
X204790Y126741D01*
X204370Y127370D01*
X203741Y127790D01*
X203000Y127937D01*
D02*
G37*
G36*
X212000Y126644D02*
X211642Y126572D01*
X210914Y126086D01*
X210428Y125358D01*
X210356Y125000D01*
X212000D01*
Y126644D01*
D02*
G37*
G36*
X283500Y231437D02*
X282759Y231290D01*
X282130Y230870D01*
X281710Y230241D01*
X281563Y229500D01*
X281710Y228759D01*
X282130Y228130D01*
X282759Y227710D01*
X283500Y227563D01*
X284241Y227710D01*
X284870Y228130D01*
X285290Y228759D01*
X285437Y229500D01*
X285290Y230241D01*
X284870Y230870D01*
X284241Y231290D01*
X283500Y231437D01*
D02*
G37*
G36*
X212000Y124000D02*
X210356D01*
X210428Y123642D01*
X210914Y122914D01*
X211642Y122428D01*
X212000Y122356D01*
Y124000D01*
D02*
G37*
G36*
X291644Y238000D02*
X290000D01*
Y236356D01*
X290358Y236428D01*
X291086Y236914D01*
X291572Y237642D01*
X291644Y238000D01*
D02*
G37*
G36*
X224532Y125969D02*
X223790Y125821D01*
X223162Y125401D01*
X222742Y124773D01*
X222594Y124031D01*
X222742Y123290D01*
X223162Y122662D01*
X223790Y122242D01*
X224532Y122094D01*
X225273Y122242D01*
X225901Y122662D01*
X226321Y123290D01*
X226469Y124031D01*
X226321Y124773D01*
X225901Y125401D01*
X225273Y125821D01*
X224532Y125969D01*
D02*
G37*
G36*
X289000Y238000D02*
X287356D01*
X287428Y237642D01*
X287914Y236914D01*
X288642Y236428D01*
X289000Y236356D01*
Y238000D01*
D02*
G37*
G36*
X263000Y238437D02*
X262259Y238290D01*
X261630Y237870D01*
X261210Y237241D01*
X261063Y236500D01*
X261210Y235759D01*
X261630Y235130D01*
X262259Y234710D01*
X263000Y234563D01*
X263741Y234710D01*
X264370Y235130D01*
X264790Y235759D01*
X264937Y236500D01*
X264790Y237241D01*
X264370Y237870D01*
X263741Y238290D01*
X263000Y238437D01*
D02*
G37*
G36*
X273488Y239925D02*
X272747Y239778D01*
X272118Y239358D01*
X271698Y238730D01*
X271551Y237988D01*
X271698Y237247D01*
X272118Y236618D01*
X272747Y236198D01*
X273488Y236051D01*
X274230Y236198D01*
X274858Y236618D01*
X275278Y237247D01*
X275425Y237988D01*
X275278Y238730D01*
X274858Y239358D01*
X274230Y239778D01*
X273488Y239925D01*
D02*
G37*
G36*
X198000Y130437D02*
X197259Y130290D01*
X196630Y129870D01*
X196210Y129241D01*
X196063Y128500D01*
X196210Y127759D01*
X196630Y127130D01*
X197259Y126710D01*
X198000Y126563D01*
X198741Y126710D01*
X199370Y127130D01*
X199790Y127759D01*
X199937Y128500D01*
X199790Y129241D01*
X199370Y129870D01*
X198741Y130290D01*
X198000Y130437D01*
D02*
G37*
G36*
X143500Y232437D02*
X142759Y232290D01*
X142130Y231870D01*
X141710Y231241D01*
X141563Y230500D01*
X141710Y229759D01*
X142130Y229130D01*
Y228870D01*
X141710Y228241D01*
X141563Y227500D01*
X141710Y226759D01*
X142130Y226130D01*
X142759Y225710D01*
X143500Y225563D01*
X144241Y225710D01*
X144870Y226130D01*
X145290Y226759D01*
X145437Y227500D01*
X145290Y228241D01*
X144870Y228870D01*
Y229130D01*
X145290Y229759D01*
X145437Y230500D01*
X145290Y231241D01*
X144870Y231870D01*
X144241Y232290D01*
X143500Y232437D01*
D02*
G37*
G36*
X146500Y130937D02*
X145759Y130790D01*
X145130Y130370D01*
X144710Y129741D01*
X144563Y129000D01*
X144710Y128259D01*
X145130Y127630D01*
X145759Y127210D01*
X146500Y127063D01*
X147241Y127210D01*
X147870Y127630D01*
X148290Y128259D01*
X148437Y129000D01*
X148290Y129741D01*
X147870Y130370D01*
X147241Y130790D01*
X146500Y130937D01*
D02*
G37*
G36*
X283500Y225937D02*
X282759Y225790D01*
X282130Y225370D01*
X281710Y224741D01*
X281563Y224000D01*
X281710Y223259D01*
X282130Y222630D01*
X282759Y222210D01*
X283500Y222063D01*
X284241Y222210D01*
X284870Y222630D01*
X285290Y223259D01*
X285437Y224000D01*
X285290Y224741D01*
X284870Y225370D01*
X284241Y225790D01*
X283500Y225937D01*
D02*
G37*
G36*
X216000Y132937D02*
X215259Y132790D01*
X214630Y132370D01*
X214210Y131741D01*
X214063Y131000D01*
X214210Y130259D01*
X214630Y129630D01*
X215259Y129210D01*
X216000Y129063D01*
X216741Y129210D01*
X217370Y129630D01*
X217790Y130259D01*
X217937Y131000D01*
X217790Y131741D01*
X217370Y132370D01*
X216741Y132790D01*
X216000Y132937D01*
D02*
G37*
G36*
X132500Y229437D02*
X131759Y229290D01*
X131130Y228870D01*
X130710Y228241D01*
X130563Y227500D01*
X130710Y226759D01*
X131130Y226130D01*
X131759Y225710D01*
X132500Y225563D01*
X133241Y225710D01*
X133870Y226130D01*
X134290Y226759D01*
X134437Y227500D01*
X134290Y228241D01*
X133870Y228870D01*
X133241Y229290D01*
X132500Y229437D01*
D02*
G37*
G36*
X193000Y130437D02*
X192259Y130290D01*
X191630Y129870D01*
X191210Y129241D01*
X191063Y128500D01*
X191210Y127759D01*
X191630Y127130D01*
X192259Y126710D01*
X193000Y126563D01*
X193741Y126710D01*
X194370Y127130D01*
X194790Y127759D01*
X194937Y128500D01*
X194790Y129241D01*
X194370Y129870D01*
X193741Y130290D01*
X193000Y130437D01*
D02*
G37*
G36*
X213000Y126644D02*
Y125000D01*
X214644D01*
X214572Y125358D01*
X214086Y126086D01*
X213358Y126572D01*
X213000Y126644D01*
D02*
G37*
G36*
X212032Y233937D02*
X211290Y233790D01*
X210662Y233370D01*
X210242Y232741D01*
X210094Y232000D01*
X210242Y231259D01*
X210662Y230630D01*
Y230370D01*
X210242Y229741D01*
X210094Y229000D01*
X210242Y228259D01*
X210662Y227630D01*
X211290Y227210D01*
X212032Y227063D01*
X212773Y227210D01*
X213401Y227630D01*
X213821Y228259D01*
X213969Y229000D01*
X213821Y229741D01*
X213401Y230370D01*
Y230630D01*
X213821Y231259D01*
X213969Y232000D01*
X213821Y232741D01*
X213401Y233370D01*
X212773Y233790D01*
X212032Y233937D01*
D02*
G37*
G36*
X265600Y229837D02*
X264859Y229690D01*
X264230Y229270D01*
X263810Y228641D01*
X263663Y227900D01*
X263810Y227159D01*
X264230Y226530D01*
X264859Y226110D01*
X265600Y225963D01*
X266341Y226110D01*
X266970Y226530D01*
X267390Y227159D01*
X267537Y227900D01*
X267390Y228641D01*
X266970Y229270D01*
X266341Y229690D01*
X265600Y229837D01*
D02*
G37*
G36*
X202500Y230937D02*
X201759Y230790D01*
X201130Y230370D01*
X200710Y229741D01*
X200563Y229000D01*
X200710Y228259D01*
X201130Y227630D01*
X201759Y227210D01*
X202500Y227063D01*
X203241Y227210D01*
X203870Y227630D01*
X204290Y228259D01*
X204437Y229000D01*
X204290Y229741D01*
X203870Y230370D01*
X203241Y230790D01*
X202500Y230937D01*
D02*
G37*
G36*
X289000Y240644D02*
X288642Y240572D01*
X287914Y240086D01*
X287428Y239358D01*
X287356Y239000D01*
X289000D01*
Y240644D01*
D02*
G37*
G36*
X130500Y256937D02*
X129759Y256790D01*
X129130Y256370D01*
X128710Y255741D01*
X128563Y255000D01*
X128710Y254259D01*
X129130Y253630D01*
X129759Y253210D01*
X130500Y253063D01*
X131241Y253210D01*
X131870Y253630D01*
X132290Y254259D01*
X132437Y255000D01*
X132290Y255741D01*
X131870Y256370D01*
X131241Y256790D01*
X130500Y256937D01*
D02*
G37*
G36*
X182000Y256437D02*
X181259Y256290D01*
X180630Y255870D01*
X180210Y255241D01*
X180063Y254500D01*
X180210Y253759D01*
X180630Y253130D01*
X181259Y252710D01*
X182000Y252563D01*
X182741Y252710D01*
X183370Y253130D01*
X183790Y253759D01*
X183937Y254500D01*
X183790Y255241D01*
X183370Y255870D01*
X182741Y256290D01*
X182000Y256437D01*
D02*
G37*
G36*
X166000Y255144D02*
X165642Y255072D01*
X164914Y254586D01*
X164428Y253858D01*
X164356Y253500D01*
X166000D01*
Y255144D01*
D02*
G37*
G36*
X213968Y249468D02*
X212325D01*
X212396Y249110D01*
X212882Y248382D01*
X213610Y247896D01*
X213968Y247825D01*
Y249468D01*
D02*
G37*
G36*
X216612D02*
X214968D01*
Y247825D01*
X215327Y247896D01*
X216055Y248382D01*
X216541Y249110D01*
X216612Y249468D01*
D02*
G37*
G36*
X214968Y252112D02*
Y250468D01*
X216612D01*
X216541Y250827D01*
X216055Y251555D01*
X215327Y252041D01*
X214968Y252112D01*
D02*
G37*
G36*
X166000Y252500D02*
X164356D01*
X164428Y252142D01*
X164914Y251414D01*
X165642Y250928D01*
X166000Y250856D01*
Y252500D01*
D02*
G37*
G36*
X168644D02*
X167000D01*
Y250856D01*
X167358Y250928D01*
X168086Y251414D01*
X168572Y252142D01*
X168644Y252500D01*
D02*
G37*
G36*
X173500Y251937D02*
X172759Y251790D01*
X172130Y251370D01*
X171710Y250741D01*
X171563Y250000D01*
X171710Y249259D01*
X172130Y248630D01*
X172759Y248210D01*
X173500Y248063D01*
X174241Y248210D01*
X174870Y248630D01*
X175290Y249259D01*
X175437Y250000D01*
X175290Y250741D01*
X174870Y251370D01*
X174241Y251790D01*
X173500Y251937D01*
D02*
G37*
G36*
X213968Y252112D02*
X213610Y252041D01*
X212882Y251555D01*
X212396Y250827D01*
X212325Y250468D01*
X213968D01*
Y252112D01*
D02*
G37*
G36*
X189500Y245437D02*
X188759Y245290D01*
X188130Y244870D01*
X187710Y244241D01*
X187563Y243500D01*
X187710Y242759D01*
X188130Y242130D01*
X188759Y241710D01*
X189500Y241563D01*
X190241Y241710D01*
X190870Y242130D01*
X191290Y242759D01*
X191437Y243500D01*
X191290Y244241D01*
X190870Y244870D01*
X190241Y245290D01*
X189500Y245437D01*
D02*
G37*
G36*
X291531Y247437D02*
X290790Y247290D01*
X290162Y246870D01*
X289742Y246241D01*
X289594Y245500D01*
X289742Y244759D01*
X290162Y244130D01*
X290790Y243710D01*
X291531Y243563D01*
X292273Y243710D01*
X292901Y244130D01*
X293321Y244759D01*
X293469Y245500D01*
X293321Y246241D01*
X292901Y246870D01*
X292273Y247290D01*
X291531Y247437D01*
D02*
G37*
G36*
X244500Y125437D02*
X243759Y125290D01*
X243130Y124870D01*
X242710Y124241D01*
X242563Y123500D01*
X242710Y122759D01*
X243130Y122130D01*
X243759Y121710D01*
X244500Y121563D01*
X245241Y121710D01*
X245870Y122130D01*
X246290Y122759D01*
X246437Y123500D01*
X246290Y124241D01*
X245870Y124870D01*
X245241Y125290D01*
X244500Y125437D01*
D02*
G37*
G36*
X167000Y255144D02*
Y253500D01*
X168644D01*
X168572Y253858D01*
X168086Y254586D01*
X167358Y255072D01*
X167000Y255144D01*
D02*
G37*
G36*
X290000Y240644D02*
Y239000D01*
X291644D01*
X291572Y239358D01*
X291086Y240086D01*
X290358Y240572D01*
X290000Y240644D01*
D02*
G37*
G36*
X181000Y249437D02*
X180259Y249290D01*
X179630Y248870D01*
X179210Y248241D01*
X179063Y247500D01*
X179099Y247318D01*
X178649Y247017D01*
X178241Y247290D01*
X177500Y247437D01*
X176759Y247290D01*
X176130Y246870D01*
X175710Y246241D01*
X175563Y245500D01*
X175710Y244759D01*
X175773Y244665D01*
X175538Y244223D01*
X172462D01*
X172227Y244665D01*
X172290Y244759D01*
X172437Y245500D01*
X172290Y246241D01*
X171870Y246870D01*
X171241Y247290D01*
X170500Y247437D01*
X169759Y247290D01*
X169130Y246870D01*
X168710Y246241D01*
X168563Y245500D01*
X168710Y244759D01*
X168773Y244665D01*
X168537Y244223D01*
X161468D01*
X161370Y244370D01*
X160741Y244790D01*
X160000Y244937D01*
X159259Y244790D01*
X158858Y244522D01*
X158408Y244823D01*
X158437Y244969D01*
X158290Y245710D01*
X157870Y246338D01*
X157241Y246758D01*
X156500Y246906D01*
X155759Y246758D01*
X155130Y246338D01*
X154710Y245710D01*
X154563Y244969D01*
X154710Y244227D01*
X155130Y243599D01*
X155759Y243179D01*
X156500Y243031D01*
X157241Y243179D01*
X157463Y243327D01*
X157941Y243062D01*
X157969Y242699D01*
X150158Y234889D01*
X150130Y234870D01*
X149710Y234241D01*
X149563Y233500D01*
X149710Y232759D01*
X150130Y232130D01*
X150277Y232032D01*
Y214793D01*
X150259Y214790D01*
X149630Y214370D01*
X149210Y213741D01*
X149063Y213000D01*
X149210Y212259D01*
X149630Y211630D01*
X150259Y211210D01*
X151000Y211063D01*
X151438Y211150D01*
X151741Y211210D01*
X152081Y210909D01*
X153126Y209865D01*
X153210Y209741D01*
X153063Y209000D01*
X153210Y208259D01*
X153630Y207630D01*
X154259Y207210D01*
X155000Y207063D01*
X155741Y207210D01*
X155865Y207125D01*
X156995Y205995D01*
X157227Y205841D01*
X157500Y205786D01*
X163914D01*
X164308Y205786D01*
X164345Y205788D01*
X164378Y205790D01*
X164378D01*
X164836Y205729D01*
X165052Y205569D01*
X165272Y205240D01*
X165900Y204820D01*
X166642Y204673D01*
X167383Y204820D01*
X168012Y205240D01*
X168109Y205387D01*
X183422D01*
X183520Y205240D01*
X184148Y204820D01*
X184890Y204673D01*
X185631Y204820D01*
X186260Y205240D01*
X186679Y205869D01*
X186827Y206610D01*
X186749Y207003D01*
X186748Y207006D01*
X186748Y207011D01*
X186878Y207473D01*
X187099Y207609D01*
X187129Y207625D01*
X187152Y207652D01*
X187181Y207672D01*
X193005Y213495D01*
X193159Y213727D01*
X193214Y214000D01*
Y217462D01*
Y218526D01*
X193370Y218630D01*
X193790Y219259D01*
X193937Y220000D01*
X193790Y220741D01*
X193370Y221370D01*
X193224Y221468D01*
Y233032D01*
X193370Y233130D01*
X193790Y233759D01*
X193937Y234500D01*
X193790Y235241D01*
X193370Y235870D01*
X192741Y236290D01*
X192366Y236364D01*
X184865Y243865D01*
X184468Y244130D01*
X184000Y244223D01*
X179463D01*
X179227Y244665D01*
X179290Y244759D01*
X179437Y245500D01*
X179401Y245682D01*
X179851Y245983D01*
X180259Y245710D01*
X181000Y245563D01*
X181741Y245710D01*
X182370Y246130D01*
X182790Y246759D01*
X182937Y247500D01*
X182790Y248241D01*
X182370Y248870D01*
X181741Y249290D01*
X181000Y249437D01*
D02*
G37*
G36*
X231500Y263437D02*
X230759Y263290D01*
X230130Y262870D01*
X229710Y262241D01*
X229563Y261500D01*
X229710Y260759D01*
X230130Y260130D01*
X230759Y259710D01*
X230935Y259675D01*
X231041Y259144D01*
X230630Y258870D01*
X230210Y258241D01*
X230063Y257500D01*
X230210Y256759D01*
X230630Y256130D01*
X230864Y255974D01*
Y255474D01*
X230662Y255338D01*
X230242Y254710D01*
X230094Y253969D01*
X230242Y253227D01*
X230662Y252599D01*
X231166Y252262D01*
X231196Y252148D01*
X231196Y251820D01*
X231166Y251707D01*
X230662Y251370D01*
X230414Y250999D01*
X230242Y250741D01*
X229788Y250714D01*
X224500D01*
X224227Y250659D01*
X223995Y250505D01*
X223373Y249883D01*
X223315Y249796D01*
X223249Y249714D01*
X223238Y249681D01*
X223219Y249651D01*
X223198Y249548D01*
X223168Y249448D01*
X223171Y249413D01*
X223164Y249378D01*
X223165Y249374D01*
X223047Y248924D01*
X222991Y248830D01*
X222790Y248790D01*
X222162Y248370D01*
X221742Y247741D01*
X221702Y247541D01*
X221608Y247485D01*
X221157Y247366D01*
X221153Y247367D01*
X221119Y247360D01*
X221083Y247364D01*
X220983Y247333D01*
X220880Y247313D01*
X220851Y247293D01*
X220817Y247283D01*
X220736Y247216D01*
X220649Y247158D01*
X214995Y241505D01*
X214841Y241273D01*
X214786Y241000D01*
Y220895D01*
X214259Y220790D01*
X213630Y220370D01*
X213210Y219741D01*
X213063Y219000D01*
X213210Y218259D01*
X213630Y217630D01*
X214259Y217210D01*
X214786Y217105D01*
Y215895D01*
X214259Y215790D01*
X213630Y215370D01*
X213210Y214741D01*
X213063Y214000D01*
X213210Y213259D01*
X213487Y212845D01*
X213297Y212297D01*
X213259Y212290D01*
X212630Y211870D01*
X212210Y211241D01*
X212063Y210500D01*
X212210Y209759D01*
X212630Y209130D01*
X213259Y208710D01*
X214000Y208563D01*
X214741Y208710D01*
X215364Y209126D01*
X216405Y208085D01*
X216214Y207624D01*
X204900D01*
X204432Y207530D01*
X204035Y207265D01*
X183635Y186865D01*
X183370Y186468D01*
X183276Y186000D01*
Y184093D01*
X182776Y183932D01*
X182241Y184290D01*
X181500Y184437D01*
X180759Y184290D01*
X180130Y183870D01*
X179710Y183241D01*
X179563Y182500D01*
X179710Y181759D01*
X180130Y181130D01*
X180759Y180710D01*
X181500Y180563D01*
X182241Y180710D01*
X182776Y181068D01*
X183276Y180907D01*
Y170093D01*
X182776Y169932D01*
X182241Y170290D01*
X181500Y170437D01*
X180759Y170290D01*
X180130Y169870D01*
X179710Y169241D01*
X179563Y168500D01*
X179710Y167759D01*
X180130Y167130D01*
X180759Y166710D01*
X181500Y166563D01*
X182241Y166710D01*
X182776Y167068D01*
X183276Y166907D01*
Y156500D01*
X183370Y156032D01*
X183635Y155635D01*
X185597Y153673D01*
X185563Y153500D01*
X185710Y152759D01*
X186130Y152130D01*
X186658Y151778D01*
X186700Y151571D01*
Y151429D01*
X186658Y151222D01*
X186130Y150870D01*
X185710Y150241D01*
X185563Y149500D01*
X185710Y148759D01*
X186130Y148130D01*
X186759Y147710D01*
X187500Y147563D01*
X188241Y147710D01*
X188336Y147773D01*
X188777Y147538D01*
Y147500D01*
X188870Y147032D01*
X189135Y146635D01*
X189532Y146370D01*
X190000Y146276D01*
X193032D01*
X193130Y146130D01*
X193759Y145710D01*
X194344Y145594D01*
X194571Y145375D01*
X194680Y145089D01*
X194563Y144500D01*
X194710Y143759D01*
X195130Y143130D01*
X195759Y142710D01*
X196500Y142563D01*
X197083Y142679D01*
X197295Y142660D01*
X197618Y142360D01*
X197710Y141895D01*
X198130Y141266D01*
X198759Y140847D01*
X199500Y140699D01*
X200241Y140847D01*
X200870Y141266D01*
X201071Y141567D01*
X201630Y141630D01*
X202259Y141210D01*
X203000Y141063D01*
X203741Y141210D01*
X204370Y141630D01*
X204790Y142259D01*
X204937Y143000D01*
X204861Y143381D01*
X205332Y143576D01*
X205630Y143130D01*
X206259Y142710D01*
X207000Y142563D01*
X207741Y142710D01*
X208370Y143130D01*
X208790Y143759D01*
X208895Y144286D01*
X222526D01*
X222630Y144130D01*
X223259Y143710D01*
X224000Y143563D01*
X224741Y143710D01*
X225370Y144130D01*
X225474Y144286D01*
X229500D01*
X229773Y144341D01*
X230005Y144495D01*
X230159Y144727D01*
X230214Y145000D01*
Y149735D01*
X230709Y150146D01*
X230968Y150094D01*
X231710Y150242D01*
X232338Y150662D01*
X232758Y151290D01*
X232906Y152032D01*
X232758Y152773D01*
X232338Y153401D01*
X231710Y153821D01*
X231154Y153932D01*
X231130Y153989D01*
X231224Y154457D01*
Y165032D01*
X231370Y165130D01*
X231790Y165759D01*
X231937Y166500D01*
X231790Y167241D01*
X231370Y167870D01*
X231224Y167968D01*
Y173000D01*
X231130Y173468D01*
X230865Y173865D01*
X227865Y176865D01*
X227468Y177130D01*
X227000Y177224D01*
X223968D01*
X223870Y177370D01*
X223501Y177616D01*
X223377Y178101D01*
X223430Y178220D01*
X223790Y178759D01*
X223937Y179500D01*
X223790Y180241D01*
X223370Y180870D01*
X222741Y181290D01*
X222000Y181437D01*
X221259Y181290D01*
X220630Y180870D01*
X220210Y180241D01*
X220063Y179500D01*
X220210Y178759D01*
X220630Y178130D01*
X220719Y178071D01*
X220799Y177453D01*
X220581Y177224D01*
X207463D01*
X207227Y177664D01*
X207290Y177759D01*
X207437Y178500D01*
X207290Y179241D01*
X206870Y179870D01*
X206241Y180290D01*
X205500Y180437D01*
X204759Y180290D01*
X204130Y179870D01*
X204000Y179675D01*
X203500D01*
X203370Y179870D01*
X202741Y180290D01*
X202000Y180437D01*
X201259Y180290D01*
X200630Y179870D01*
X200500Y179675D01*
X200000D01*
X199870Y179870D01*
X199241Y180290D01*
X198500Y180437D01*
X197759Y180290D01*
X197130Y179870D01*
X196710Y179241D01*
X196563Y178500D01*
X196710Y177759D01*
X196773Y177664D01*
X196537Y177224D01*
X192000D01*
X191532Y177130D01*
X191135Y176865D01*
X189173Y174903D01*
X189000Y174937D01*
X188323Y174803D01*
X188086Y174882D01*
X187823Y175022D01*
Y185048D01*
X205552Y202777D01*
X212407D01*
X212568Y202276D01*
X212210Y201741D01*
X212063Y201000D01*
X212210Y200259D01*
X212630Y199630D01*
X213259Y199210D01*
X214000Y199063D01*
X214741Y199210D01*
X215370Y199630D01*
X215790Y200259D01*
X215937Y201000D01*
X215790Y201741D01*
X215432Y202276D01*
X215593Y202777D01*
X238532D01*
X238630Y202630D01*
X239259Y202210D01*
X240000Y202063D01*
X240676Y202197D01*
X240914Y202118D01*
X241177Y201978D01*
Y201235D01*
X240630Y200870D01*
X240210Y200241D01*
X240063Y199500D01*
X240210Y198759D01*
X240630Y198130D01*
X241259Y197710D01*
X242000Y197563D01*
X242741Y197710D01*
X243370Y198130D01*
X243790Y198759D01*
X243937Y199500D01*
X243790Y200241D01*
X243623Y200490D01*
Y204786D01*
X244673D01*
X244708Y204793D01*
X244743Y204790D01*
X244844Y204820D01*
X244947Y204841D01*
X244976Y204860D01*
X245010Y204871D01*
X245091Y204937D01*
X245178Y204995D01*
X245198Y205025D01*
X245225Y205047D01*
X245274Y205140D01*
X245333Y205227D01*
X245340Y205262D01*
X245356Y205293D01*
X245470Y205668D01*
X246000Y205563D01*
X246530Y205668D01*
X246644Y205293D01*
X246660Y205262D01*
X246667Y205227D01*
X246726Y205140D01*
X246775Y205047D01*
X246802Y205025D01*
X246822Y204995D01*
X246909Y204937D01*
X246990Y204871D01*
X247024Y204860D01*
X247054Y204841D01*
X247156Y204820D01*
X247257Y204790D01*
X247292Y204793D01*
X247327Y204786D01*
X250500D01*
X250773Y204841D01*
X251005Y204995D01*
X251935Y205925D01*
X251936Y205926D01*
X252259Y205710D01*
X253000Y205563D01*
X253741Y205710D01*
X254370Y206130D01*
X254790Y206759D01*
X254937Y207500D01*
X254790Y208241D01*
X254574Y208564D01*
X254575Y208565D01*
X259005Y212995D01*
X259068Y213058D01*
X259222Y213290D01*
X259277Y213563D01*
Y215949D01*
X259639Y216143D01*
X259777Y216169D01*
X260469Y216031D01*
X261210Y216179D01*
X261838Y216599D01*
X262258Y217227D01*
X262406Y217969D01*
X262258Y218710D01*
X262039Y219037D01*
X262157Y219681D01*
X262333Y219799D01*
X262753Y220427D01*
X262900Y221168D01*
X262753Y221910D01*
X262333Y222538D01*
X261704Y222958D01*
X260963Y223106D01*
X260286Y222971D01*
X260049Y223051D01*
X259787Y223191D01*
Y235207D01*
X259821Y235259D01*
X259969Y236000D01*
X259821Y236741D01*
X259401Y237370D01*
X259255Y237468D01*
Y246500D01*
X259162Y246968D01*
X258897Y247365D01*
X258174Y248088D01*
X258339Y248630D01*
X258741Y248710D01*
X259370Y249130D01*
X259790Y249759D01*
X259937Y250500D01*
X259790Y251241D01*
X259370Y251870D01*
X258741Y252290D01*
X258000Y252437D01*
X257259Y252290D01*
X256630Y251870D01*
X256210Y251241D01*
X256130Y250839D01*
X255588Y250674D01*
X255397Y250865D01*
X255000Y251130D01*
X254631Y251204D01*
X254489Y251435D01*
X254432Y251724D01*
X254790Y252259D01*
X254937Y253000D01*
X254790Y253741D01*
X254370Y254370D01*
X253741Y254790D01*
X253000Y254937D01*
X252259Y254790D01*
X251630Y254370D01*
X251210Y253741D01*
X251063Y253000D01*
X251210Y252259D01*
X251568Y251724D01*
X251407Y251223D01*
X249999D01*
X249901Y251370D01*
X249366Y251728D01*
X249351Y251772D01*
X249329Y252095D01*
X249364Y252281D01*
X249838Y252599D01*
X250258Y253227D01*
X250406Y253969D01*
X250258Y254710D01*
X249838Y255338D01*
X249210Y255758D01*
X248468Y255906D01*
X247727Y255758D01*
X247099Y255338D01*
X246679Y254710D01*
X246531Y253969D01*
X246679Y253227D01*
X247099Y252599D01*
X247634Y252241D01*
X247649Y252197D01*
X247671Y251873D01*
X247636Y251687D01*
X247162Y251370D01*
X247064Y251223D01*
X233499D01*
X233401Y251370D01*
X232897Y251707D01*
X232867Y251820D01*
X232867Y252148D01*
X232897Y252262D01*
X233401Y252599D01*
X233821Y253227D01*
X233969Y253969D01*
X233821Y254710D01*
X233401Y255338D01*
X233167Y255495D01*
Y255995D01*
X233370Y256130D01*
X233790Y256759D01*
X233937Y257500D01*
X233790Y258241D01*
X233370Y258870D01*
X232741Y259290D01*
X232565Y259325D01*
X232459Y259856D01*
X232870Y260130D01*
X233290Y260759D01*
X233437Y261500D01*
X233290Y262241D01*
X232870Y262870D01*
X232241Y263290D01*
X231500Y263437D01*
D02*
G37*
G36*
X277063Y250406D02*
X276322Y250258D01*
X275693Y249838D01*
X275273Y249210D01*
X275126Y248468D01*
X275273Y247727D01*
X275693Y247099D01*
X276322Y246679D01*
X277063Y246531D01*
X277804Y246679D01*
X278433Y247099D01*
X278853Y247727D01*
X279000Y248468D01*
X278853Y249210D01*
X278433Y249838D01*
X277804Y250258D01*
X277063Y250406D01*
D02*
G37*
G36*
X205532Y248437D02*
X204790Y248290D01*
X204162Y247870D01*
X203742Y247241D01*
X203594Y246500D01*
X203742Y245759D01*
X204162Y245130D01*
X204790Y244710D01*
X205532Y244563D01*
X206273Y244710D01*
X206901Y245130D01*
X207321Y245759D01*
X207469Y246500D01*
X207321Y247241D01*
X206901Y247870D01*
X206273Y248290D01*
X205532Y248437D01*
D02*
G37*
G36*
X130500Y249937D02*
X129759Y249790D01*
X129130Y249370D01*
X128710Y248741D01*
X128563Y248000D01*
X128710Y247259D01*
X129130Y246630D01*
X129759Y246210D01*
X130500Y246063D01*
X131241Y246210D01*
X131870Y246630D01*
X132290Y247259D01*
X132437Y248000D01*
X132290Y248741D01*
X131870Y249370D01*
X131241Y249790D01*
X130500Y249937D01*
D02*
G37*
%LPD*%
G36*
X249031Y247856D02*
X249390Y247928D01*
X250118Y248414D01*
X250360Y248777D01*
X253149D01*
X253278Y248314D01*
X253270Y248276D01*
X252662Y247870D01*
X252242Y247241D01*
X252094Y246500D01*
X252242Y245759D01*
X252662Y245130D01*
X253290Y244710D01*
X254031Y244563D01*
X254773Y244710D01*
X255401Y245130D01*
X255821Y245759D01*
X255907Y246187D01*
X256449Y246352D01*
X256808Y245993D01*
Y237828D01*
X256445Y237586D01*
X255959Y236858D01*
X255888Y236500D01*
X258032D01*
Y235500D01*
X255888D01*
X255959Y235142D01*
X256445Y234414D01*
X257173Y233928D01*
X257340Y233895D01*
Y219874D01*
X257433Y219406D01*
X257698Y219009D01*
X258238Y218468D01*
X260469D01*
Y217469D01*
X258325D01*
X258396Y217110D01*
X258563Y216860D01*
Y213563D01*
X258500Y213500D01*
X254070Y209070D01*
X253741Y209290D01*
X253000Y209437D01*
X252259Y209290D01*
X251932Y209071D01*
X251571Y209432D01*
X251790Y209759D01*
X251937Y210500D01*
X251790Y211241D01*
X251370Y211870D01*
X250741Y212290D01*
X250000Y212437D01*
X249259Y212290D01*
X248630Y211870D01*
X248210Y211241D01*
X248063Y210500D01*
X248210Y209759D01*
X248630Y209130D01*
X249259Y208710D01*
X250000Y208563D01*
X250741Y208710D01*
X251068Y208929D01*
X251429Y208568D01*
X251210Y208241D01*
X251063Y207500D01*
X251210Y206759D01*
X251430Y206430D01*
X250500Y205500D01*
X247327D01*
X247175Y206000D01*
X247370Y206130D01*
X247790Y206759D01*
X247937Y207500D01*
X247790Y208241D01*
X247370Y208870D01*
X246741Y209290D01*
X246000Y209437D01*
X245259Y209290D01*
X244630Y208870D01*
X244210Y208241D01*
X244063Y207500D01*
X244210Y206759D01*
X244630Y206130D01*
X244825Y206000D01*
X244673Y205500D01*
X243505D01*
X243265Y205859D01*
X241859Y207265D01*
X241462Y207530D01*
X240994Y207624D01*
X217877D01*
X215770Y209730D01*
X215790Y209759D01*
X215937Y210500D01*
X215790Y211241D01*
X215500Y211675D01*
Y212162D01*
X215741Y212210D01*
X216370Y212630D01*
X216790Y213259D01*
X216937Y214000D01*
X216790Y214741D01*
X216370Y215370D01*
X215741Y215790D01*
X215500Y215838D01*
Y217162D01*
X215741Y217210D01*
X216370Y217630D01*
X216790Y218259D01*
X216937Y219000D01*
X216790Y219741D01*
X216370Y220370D01*
X215741Y220790D01*
X215500Y220838D01*
Y241000D01*
X221153Y246653D01*
X221696Y246489D01*
X221742Y246259D01*
X222162Y245630D01*
X222790Y245210D01*
X223532Y245063D01*
X224273Y245210D01*
X224901Y245630D01*
X225321Y246259D01*
X225469Y247000D01*
X225321Y247741D01*
X224901Y248370D01*
X224273Y248790D01*
X224043Y248836D01*
X223878Y249378D01*
X224500Y250000D01*
X229788D01*
X229959Y249142D01*
X230445Y248414D01*
X231173Y247928D01*
X231532Y247856D01*
Y250000D01*
X232531D01*
Y247856D01*
X232890Y247928D01*
X233618Y248414D01*
X233860Y248777D01*
X246703D01*
X246945Y248414D01*
X247673Y247928D01*
X248031Y247856D01*
Y250000D01*
X249031D01*
Y247856D01*
D02*
G37*
G36*
X220914Y174414D02*
X221642Y173928D01*
X222500Y173757D01*
X222609Y173269D01*
X222710Y172759D01*
X223130Y172130D01*
X223759Y171710D01*
X224500Y171563D01*
X225241Y171710D01*
X225870Y172130D01*
X226290Y172759D01*
X226437Y173500D01*
X226290Y174241D01*
X226227Y174336D01*
X226228Y174337D01*
X226615Y174655D01*
X228777Y172493D01*
Y168328D01*
X228414Y168086D01*
X227928Y167358D01*
X227856Y167000D01*
X230000D01*
Y166000D01*
X227856D01*
X227928Y165642D01*
X228414Y164914D01*
X228777Y164672D01*
Y154964D01*
X228000Y154187D01*
Y152000D01*
Y149856D01*
X228358Y149928D01*
X229000Y150356D01*
X229317Y150259D01*
X229500Y150135D01*
Y145000D01*
X208838D01*
X208790Y145241D01*
X208370Y145870D01*
X207741Y146290D01*
X207000Y146437D01*
X206259Y146290D01*
X205630Y145870D01*
X205210Y145241D01*
X205162Y145000D01*
X198338D01*
X198290Y145241D01*
X197870Y145870D01*
X197241Y146290D01*
X196974Y146343D01*
X196914Y146388D01*
X196628Y146922D01*
X196644Y147000D01*
X194500D01*
Y147500D01*
X194000D01*
Y149644D01*
X193642Y149572D01*
X192914Y149086D01*
X192672Y148723D01*
X191224D01*
Y172000D01*
X191134Y172451D01*
X191144Y172500D01*
X189000D01*
Y173500D01*
X191230D01*
X192507Y174776D01*
X220672D01*
X220914Y174414D01*
D02*
G37*
G36*
X160500Y240856D02*
X160858Y240928D01*
X161586Y241414D01*
X161828Y241776D01*
X183493D01*
X189925Y235345D01*
X189856Y235000D01*
X192000D01*
Y234000D01*
X189856D01*
X189928Y233642D01*
X190414Y232914D01*
X190777Y232672D01*
Y221828D01*
X190414Y221586D01*
X189928Y220858D01*
X189856Y220500D01*
X192000D01*
Y220000D01*
X192500D01*
Y217462D01*
Y214000D01*
X186677Y208177D01*
X186476Y208196D01*
X185748Y208683D01*
X185390Y208754D01*
Y206610D01*
X184390D01*
Y208754D01*
X184031Y208683D01*
X183304Y208196D01*
X183061Y207834D01*
X168470D01*
X168228Y208196D01*
X167500Y208683D01*
X167142Y208754D01*
Y206610D01*
X166142D01*
Y208754D01*
X165783Y208683D01*
X165056Y208196D01*
X164569Y207469D01*
X164399Y206610D01*
X164308Y206500D01*
X157500D01*
X156370Y207630D01*
X156790Y208259D01*
X156937Y209000D01*
X156790Y209741D01*
X156370Y210370D01*
X155741Y210790D01*
X155000Y210937D01*
X154259Y210790D01*
X153630Y210370D01*
X152586Y211414D01*
X153072Y212142D01*
X153144Y212500D01*
X151000D01*
Y213500D01*
X153144D01*
X153072Y213858D01*
X152724Y214381D01*
Y231672D01*
X153086Y231914D01*
X153572Y232642D01*
X153644Y233000D01*
X151500D01*
Y234000D01*
X153644D01*
X153572Y234358D01*
X153379Y234648D01*
X159500Y240770D01*
Y243000D01*
X160500D01*
Y240856D01*
D02*
G37*
%LPC*%
G36*
X227000Y151500D02*
X225356D01*
X225428Y151142D01*
X225914Y150414D01*
X226642Y149928D01*
X227000Y149856D01*
Y151500D01*
D02*
G37*
G36*
X195000Y149644D02*
Y148000D01*
X196644D01*
X196572Y148358D01*
X196086Y149086D01*
X195358Y149572D01*
X195000Y149644D01*
D02*
G37*
G36*
X223500Y147644D02*
X223142Y147572D01*
X222414Y147086D01*
X221928Y146358D01*
X221856Y146000D01*
X223500D01*
Y147644D01*
D02*
G37*
G36*
X224500D02*
Y146000D01*
X226144D01*
X226072Y146358D01*
X225586Y147086D01*
X224858Y147572D01*
X224500Y147644D01*
D02*
G37*
G36*
X182000Y225319D02*
X181112Y225143D01*
X180360Y224640D01*
X179857Y223888D01*
X179681Y223000D01*
X179857Y222112D01*
X180360Y221360D01*
X181112Y220857D01*
X182000Y220681D01*
X182888Y220857D01*
X183640Y221360D01*
X184143Y222112D01*
X184319Y223000D01*
X184143Y223888D01*
X183640Y224640D01*
X182888Y225143D01*
X182000Y225319D01*
D02*
G37*
G36*
X175500D02*
X174612Y225143D01*
X173860Y224640D01*
X173357Y223888D01*
X173181Y223000D01*
X173357Y222112D01*
X173860Y221360D01*
X174612Y220857D01*
X175500Y220681D01*
X176388Y220857D01*
X177140Y221360D01*
X177643Y222112D01*
X177819Y223000D01*
X177643Y223888D01*
X177140Y224640D01*
X176388Y225143D01*
X175500Y225319D01*
D02*
G37*
G36*
X241531Y228319D02*
X240644Y228143D01*
X239892Y227640D01*
X239389Y226888D01*
X239212Y226000D01*
X239389Y225112D01*
X239892Y224360D01*
X240644Y223857D01*
X241531Y223681D01*
X242419Y223857D01*
X243172Y224360D01*
X243674Y225112D01*
X243851Y226000D01*
X243674Y226888D01*
X243172Y227640D01*
X242419Y228143D01*
X241531Y228319D01*
D02*
G37*
G36*
X235531D02*
X234644Y228143D01*
X233892Y227640D01*
X233389Y226888D01*
X233212Y226000D01*
X233389Y225112D01*
X233892Y224360D01*
X234644Y223857D01*
X235531Y223681D01*
X236419Y223857D01*
X237172Y224360D01*
X237674Y225112D01*
X237851Y226000D01*
X237674Y226888D01*
X237172Y227640D01*
X236419Y228143D01*
X235531Y228319D01*
D02*
G37*
G36*
X169000Y225319D02*
X168112Y225143D01*
X167360Y224640D01*
X166857Y223888D01*
X166681Y223000D01*
X166857Y222112D01*
X167360Y221360D01*
X168112Y220857D01*
X169000Y220681D01*
X169888Y220857D01*
X170640Y221360D01*
X171143Y222112D01*
X171319Y223000D01*
X171143Y223888D01*
X170640Y224640D01*
X169888Y225143D01*
X169000Y225319D01*
D02*
G37*
G36*
X241531Y222319D02*
X240644Y222143D01*
X239892Y221640D01*
X239389Y220888D01*
X239212Y220000D01*
X239389Y219112D01*
X239892Y218360D01*
X240644Y217857D01*
X241531Y217681D01*
X242419Y217857D01*
X243172Y218360D01*
X243674Y219112D01*
X243851Y220000D01*
X243674Y220888D01*
X243172Y221640D01*
X242419Y222143D01*
X241531Y222319D01*
D02*
G37*
G36*
X235531D02*
X234644Y222143D01*
X233892Y221640D01*
X233389Y220888D01*
X233212Y220000D01*
X233389Y219112D01*
X233892Y218360D01*
X234644Y217857D01*
X235531Y217681D01*
X236419Y217857D01*
X237172Y218360D01*
X237674Y219112D01*
X237851Y220000D01*
X237674Y220888D01*
X237172Y221640D01*
X236419Y222143D01*
X235531Y222319D01*
D02*
G37*
G36*
X191500Y219500D02*
X189856D01*
X189928Y219142D01*
X190414Y218414D01*
X191142Y217928D01*
X191500Y217856D01*
Y219500D01*
D02*
G37*
G36*
X247532Y222319D02*
X246644Y222143D01*
X245891Y221640D01*
X245389Y220888D01*
X245212Y220000D01*
X245389Y219112D01*
X245891Y218360D01*
X246644Y217857D01*
X247532Y217681D01*
X248419Y217857D01*
X249171Y218360D01*
X249674Y219112D01*
X249851Y220000D01*
X249674Y220888D01*
X249171Y221640D01*
X248419Y222143D01*
X247532Y222319D01*
D02*
G37*
G36*
Y228319D02*
X246644Y228143D01*
X245891Y227640D01*
X245389Y226888D01*
X245212Y226000D01*
X245389Y225112D01*
X245891Y224360D01*
X246644Y223857D01*
X247532Y223681D01*
X248419Y223857D01*
X249171Y224360D01*
X249674Y225112D01*
X249851Y226000D01*
X249674Y226888D01*
X249171Y227640D01*
X248419Y228143D01*
X247532Y228319D01*
D02*
G37*
G36*
Y234319D02*
X246644Y234143D01*
X245891Y233640D01*
X245389Y232888D01*
X245212Y232000D01*
X245389Y231112D01*
X245891Y230360D01*
X246644Y229857D01*
X247532Y229681D01*
X248419Y229857D01*
X249171Y230360D01*
X249674Y231112D01*
X249851Y232000D01*
X249674Y232888D01*
X249171Y233640D01*
X248419Y234143D01*
X247532Y234319D01*
D02*
G37*
G36*
X241531D02*
X240644Y234143D01*
X239892Y233640D01*
X239389Y232888D01*
X239212Y232000D01*
X239389Y231112D01*
X239892Y230360D01*
X240644Y229857D01*
X241531Y229681D01*
X242419Y229857D01*
X243172Y230360D01*
X243674Y231112D01*
X243851Y232000D01*
X243674Y232888D01*
X243172Y233640D01*
X242419Y234143D01*
X241531Y234319D01*
D02*
G37*
G36*
X222579Y243437D02*
X221837Y243290D01*
X221209Y242870D01*
X220789Y242241D01*
X220641Y241500D01*
X220789Y240759D01*
X221209Y240130D01*
X221837Y239710D01*
X222579Y239563D01*
X223320Y239710D01*
X223949Y240130D01*
X224369Y240759D01*
X224516Y241500D01*
X224369Y242241D01*
X223949Y242870D01*
X223320Y243290D01*
X222579Y243437D01*
D02*
G37*
G36*
X168610Y240827D02*
X167869Y240680D01*
X167240Y240260D01*
X166821Y239631D01*
X166673Y238890D01*
X166821Y238148D01*
X167240Y237520D01*
X167869Y237100D01*
X168610Y236952D01*
X169352Y237100D01*
X169980Y237520D01*
X170400Y238148D01*
X170547Y238890D01*
X170400Y239631D01*
X169980Y240260D01*
X169352Y240680D01*
X168610Y240827D01*
D02*
G37*
G36*
X235531Y234319D02*
X234644Y234143D01*
X233892Y233640D01*
X233389Y232888D01*
X233212Y232000D01*
X233389Y231112D01*
X233892Y230360D01*
X234644Y229857D01*
X235531Y229681D01*
X236419Y229857D01*
X237172Y230360D01*
X237674Y231112D01*
X237851Y232000D01*
X237674Y232888D01*
X237172Y233640D01*
X236419Y234143D01*
X235531Y234319D01*
D02*
G37*
G36*
X175500Y231819D02*
X174612Y231643D01*
X173860Y231140D01*
X173357Y230388D01*
X173181Y229500D01*
X173357Y228612D01*
X173860Y227860D01*
X174612Y227357D01*
X175500Y227181D01*
X176388Y227357D01*
X177140Y227860D01*
X177643Y228612D01*
X177819Y229500D01*
X177643Y230388D01*
X177140Y231140D01*
X176388Y231643D01*
X175500Y231819D01*
D02*
G37*
G36*
X169000D02*
X168112Y231643D01*
X167360Y231140D01*
X166857Y230388D01*
X166681Y229500D01*
X166857Y228612D01*
X167360Y227860D01*
X168112Y227357D01*
X169000Y227181D01*
X169888Y227357D01*
X170640Y227860D01*
X171143Y228612D01*
X171319Y229500D01*
X171143Y230388D01*
X170640Y231140D01*
X169888Y231643D01*
X169000Y231819D01*
D02*
G37*
G36*
X226500Y229937D02*
X225759Y229790D01*
X225130Y229370D01*
X224710Y228741D01*
X224707Y228724D01*
X224157Y228524D01*
X223759Y228790D01*
X223018Y228937D01*
X222277Y228790D01*
X221648Y228370D01*
X221228Y227741D01*
X221081Y227000D01*
X221228Y226259D01*
X221648Y225630D01*
X222277Y225210D01*
X222605Y225145D01*
Y224635D01*
X222377Y224590D01*
X221748Y224170D01*
X221328Y223541D01*
X221181Y222800D01*
X221328Y222059D01*
X221748Y221430D01*
X222377Y221010D01*
X223118Y220863D01*
X223860Y221010D01*
X224488Y221430D01*
X224908Y222059D01*
X225055Y222800D01*
X224908Y223541D01*
X224488Y224170D01*
X223860Y224590D01*
X223531Y224655D01*
Y225165D01*
X223759Y225210D01*
X224388Y225630D01*
X224808Y226259D01*
X224811Y226276D01*
X225361Y226476D01*
X225759Y226210D01*
X226500Y226063D01*
X227241Y226210D01*
X227870Y226630D01*
X228290Y227259D01*
X228437Y228000D01*
X228290Y228741D01*
X227870Y229370D01*
X227241Y229790D01*
X226500Y229937D01*
D02*
G37*
G36*
X182000Y231819D02*
X181112Y231643D01*
X180360Y231140D01*
X179857Y230388D01*
X179681Y229500D01*
X179857Y228612D01*
X180360Y227860D01*
X181112Y227357D01*
X182000Y227181D01*
X182888Y227357D01*
X183640Y227860D01*
X184143Y228612D01*
X184319Y229500D01*
X184143Y230388D01*
X183640Y231140D01*
X182888Y231643D01*
X182000Y231819D01*
D02*
G37*
G36*
X211500Y161319D02*
X210612Y161143D01*
X209860Y160640D01*
X209357Y159888D01*
X209181Y159000D01*
X209357Y158112D01*
X209860Y157360D01*
X210612Y156857D01*
X211500Y156681D01*
X212388Y156857D01*
X213140Y157360D01*
X213643Y158112D01*
X213819Y159000D01*
X213643Y159888D01*
X213140Y160640D01*
X212388Y161143D01*
X211500Y161319D01*
D02*
G37*
G36*
X205500D02*
X204612Y161143D01*
X203860Y160640D01*
X203357Y159888D01*
X203181Y159000D01*
X203357Y158112D01*
X203860Y157360D01*
X204612Y156857D01*
X205500Y156681D01*
X206388Y156857D01*
X207140Y157360D01*
X207643Y158112D01*
X207819Y159000D01*
X207643Y159888D01*
X207140Y160640D01*
X206388Y161143D01*
X205500Y161319D01*
D02*
G37*
G36*
Y167319D02*
X204612Y167143D01*
X203860Y166640D01*
X203357Y165888D01*
X203181Y165000D01*
X203357Y164112D01*
X203860Y163360D01*
X204612Y162857D01*
X205500Y162681D01*
X206388Y162857D01*
X207140Y163360D01*
X207643Y164112D01*
X207819Y165000D01*
X207643Y165888D01*
X207140Y166640D01*
X206388Y167143D01*
X205500Y167319D01*
D02*
G37*
G36*
X199500D02*
X198612Y167143D01*
X197860Y166640D01*
X197357Y165888D01*
X197181Y165000D01*
X197357Y164112D01*
X197860Y163360D01*
X198612Y162857D01*
X199500Y162681D01*
X200388Y162857D01*
X201140Y163360D01*
X201643Y164112D01*
X201819Y165000D01*
X201643Y165888D01*
X201140Y166640D01*
X200388Y167143D01*
X199500Y167319D01*
D02*
G37*
G36*
Y161319D02*
X198612Y161143D01*
X197860Y160640D01*
X197357Y159888D01*
X197181Y159000D01*
X197357Y158112D01*
X197860Y157360D01*
X198612Y156857D01*
X199500Y156681D01*
X200388Y156857D01*
X201140Y157360D01*
X201643Y158112D01*
X201819Y159000D01*
X201643Y159888D01*
X201140Y160640D01*
X200388Y161143D01*
X199500Y161319D01*
D02*
G37*
G36*
X205500Y155319D02*
X204612Y155143D01*
X203860Y154640D01*
X203357Y153888D01*
X203181Y153000D01*
X203357Y152112D01*
X203860Y151360D01*
X204612Y150857D01*
X205500Y150681D01*
X206388Y150857D01*
X207140Y151360D01*
X207643Y152112D01*
X207819Y153000D01*
X207643Y153888D01*
X207140Y154640D01*
X206388Y155143D01*
X205500Y155319D01*
D02*
G37*
G36*
X199500D02*
X198612Y155143D01*
X197860Y154640D01*
X197357Y153888D01*
X197181Y153000D01*
X197357Y152112D01*
X197860Y151360D01*
X198612Y150857D01*
X199500Y150681D01*
X200388Y150857D01*
X201140Y151360D01*
X201643Y152112D01*
X201819Y153000D01*
X201643Y153888D01*
X201140Y154640D01*
X200388Y155143D01*
X199500Y155319D01*
D02*
G37*
G36*
X227000Y154144D02*
X226642Y154072D01*
X225914Y153586D01*
X225428Y152858D01*
X225356Y152500D01*
X227000D01*
Y154144D01*
D02*
G37*
G36*
X211500Y155319D02*
X210612Y155143D01*
X209860Y154640D01*
X209357Y153888D01*
X209181Y153000D01*
X209357Y152112D01*
X209860Y151360D01*
X210612Y150857D01*
X211500Y150681D01*
X212388Y150857D01*
X213140Y151360D01*
X213643Y152112D01*
X213819Y153000D01*
X213643Y153888D01*
X213140Y154640D01*
X212388Y155143D01*
X211500Y155319D01*
D02*
G37*
G36*
Y167319D02*
X210612Y167143D01*
X209860Y166640D01*
X209357Y165888D01*
X209181Y165000D01*
X209357Y164112D01*
X209860Y163360D01*
X210612Y162857D01*
X211500Y162681D01*
X212388Y162857D01*
X213140Y163360D01*
X213643Y164112D01*
X213819Y165000D01*
X213643Y165888D01*
X213140Y166640D01*
X212388Y167143D01*
X211500Y167319D01*
D02*
G37*
G36*
X169000Y218819D02*
X168112Y218643D01*
X167360Y218140D01*
X166857Y217388D01*
X166681Y216500D01*
X166857Y215612D01*
X167360Y214860D01*
X168112Y214357D01*
X169000Y214181D01*
X169888Y214357D01*
X170640Y214860D01*
X171143Y215612D01*
X171319Y216500D01*
X171143Y217388D01*
X170640Y218140D01*
X169888Y218643D01*
X169000Y218819D01*
D02*
G37*
G36*
X223650Y216087D02*
X222908Y215939D01*
X222280Y215519D01*
X221860Y214891D01*
X221712Y214150D01*
X221860Y213408D01*
X222280Y212780D01*
X222908Y212360D01*
X223650Y212212D01*
X224391Y212360D01*
X225019Y212780D01*
X225439Y213408D01*
X225587Y214150D01*
X225439Y214891D01*
X225019Y215519D01*
X224391Y215939D01*
X223650Y216087D01*
D02*
G37*
G36*
X182000Y218819D02*
X181112Y218643D01*
X180360Y218140D01*
X179857Y217388D01*
X179681Y216500D01*
X179857Y215612D01*
X180360Y214860D01*
X181112Y214357D01*
X182000Y214181D01*
X182888Y214357D01*
X183640Y214860D01*
X184143Y215612D01*
X184319Y216500D01*
X184143Y217388D01*
X183640Y218140D01*
X182888Y218643D01*
X182000Y218819D01*
D02*
G37*
G36*
X175500D02*
X174612Y218643D01*
X173860Y218140D01*
X173357Y217388D01*
X173181Y216500D01*
X173357Y215612D01*
X173860Y214860D01*
X174612Y214357D01*
X175500Y214181D01*
X176388Y214357D01*
X177140Y214860D01*
X177643Y215612D01*
X177819Y216500D01*
X177643Y217388D01*
X177140Y218140D01*
X176388Y218643D01*
X175500Y218819D01*
D02*
G37*
G36*
X254500Y215937D02*
X253759Y215790D01*
X253130Y215370D01*
X252710Y214741D01*
X252563Y214000D01*
X252710Y213259D01*
X253130Y212630D01*
X253759Y212210D01*
X254500Y212063D01*
X255241Y212210D01*
X255870Y212630D01*
X256290Y213259D01*
X256437Y214000D01*
X256290Y214741D01*
X255870Y215370D01*
X255241Y215790D01*
X254500Y215937D01*
D02*
G37*
G36*
X231144Y211000D02*
X229500D01*
Y209356D01*
X229858Y209428D01*
X230586Y209914D01*
X231072Y210642D01*
X231144Y211000D01*
D02*
G37*
G36*
X228500D02*
X226856D01*
X226928Y210642D01*
X227414Y209914D01*
X228142Y209428D01*
X228500Y209356D01*
Y211000D01*
D02*
G37*
G36*
X229500Y213644D02*
Y212000D01*
X231144D01*
X231072Y212358D01*
X230586Y213086D01*
X229858Y213572D01*
X229500Y213644D01*
D02*
G37*
G36*
X228500D02*
X228142Y213572D01*
X227414Y213086D01*
X226928Y212358D01*
X226856Y212000D01*
X228500D01*
Y213644D01*
D02*
G37*
%LPD*%
D41*
X133579Y270500D02*
X133709Y270630D01*
X177000Y143000D02*
X188500D01*
D42*
X110000Y131000D02*
Y133000D01*
Y131000D02*
X124000Y117000D01*
X268500D01*
X281500Y130000D01*
Y188000D01*
X278500Y191000D02*
X281500Y188000D01*
X272000Y191000D02*
X278500D01*
D43*
X118000Y129500D02*
X124000Y135500D01*
Y271000D01*
X230000Y154457D02*
Y166500D01*
X227000Y176000D02*
X230000Y173000D01*
Y166500D02*
Y173000D01*
X222500Y176000D02*
X227000D01*
X228569Y152000D02*
Y153026D01*
X230000Y154457D01*
X189000Y173000D02*
X192000Y176000D01*
X166642Y206610D02*
X184890D01*
X232031Y250000D02*
X248532D01*
X254532D01*
X258032Y236000D02*
Y246500D01*
X254532Y250000D02*
X258032Y246500D01*
X190000Y147500D02*
X194500D01*
X184000Y243000D02*
X192500Y234500D01*
X128500Y275500D02*
X174000D01*
X124000Y271000D02*
X128500Y275500D01*
X258032Y236000D02*
X258563Y235469D01*
X151000Y213000D02*
X151500Y213500D01*
Y233500D01*
X151000Y234000D02*
X160000Y243000D01*
X184000D01*
X183000Y259000D02*
Y266500D01*
X174000Y275500D02*
X183000Y266500D01*
X258563Y219874D02*
X260469Y217969D01*
X258563Y219874D02*
Y235469D01*
X192000Y176000D02*
X222500D01*
X189000Y173000D02*
X190000Y172000D01*
Y147500D02*
Y172000D01*
X242000Y199500D02*
X242400Y199900D01*
X186600Y158400D02*
Y185554D01*
X205046Y204000D01*
X240994Y206400D02*
X242400Y204994D01*
X205046Y204000D02*
X240000D01*
X204900Y206400D02*
X240994D01*
X184500Y186000D02*
X204900Y206400D01*
X242400Y199900D02*
Y204994D01*
X184500Y156500D02*
X187500Y153500D01*
X184500Y156500D02*
Y186000D01*
X186600Y158400D02*
X187500Y157500D01*
X192000Y220000D02*
Y234500D01*
D45*
X104362Y201772D02*
D03*
Y173228D02*
D03*
D46*
X114795Y177953D02*
D03*
Y197047D02*
D03*
D47*
X112000Y141500D02*
D03*
D48*
Y153500D02*
D03*
X104000Y147500D02*
D03*
D49*
X272000Y181000D02*
D03*
D50*
Y191000D02*
D03*
D51*
X129532Y144968D02*
D03*
X129532Y141032D02*
D03*
X133468Y141032D02*
D03*
X133468Y144968D02*
D03*
X110000Y133000D02*
D03*
X118000Y129500D02*
D03*
X257000Y180000D02*
D03*
X234500Y168500D02*
D03*
X222500Y176000D02*
D03*
X189000Y173000D02*
D03*
X198500Y178500D02*
D03*
X170500Y245500D02*
D03*
X192000Y234500D02*
D03*
X227500Y152000D02*
D03*
X230968Y152032D02*
D03*
X224000Y145500D02*
D03*
X238500Y167500D02*
D03*
X243032Y170468D02*
D03*
X252532Y159031D02*
D03*
X243032Y153032D02*
D03*
X223650Y214150D02*
D03*
X232000Y257500D02*
D03*
X232031Y253969D02*
D03*
X248468Y253969D02*
D03*
X214469Y249969D02*
D03*
X166642Y206610D02*
D03*
X205532Y246500D02*
D03*
X212032Y229000D02*
D03*
Y232000D02*
D03*
X146500Y129000D02*
D03*
X142000Y137500D02*
D03*
X132500Y219500D02*
D03*
X141000Y218500D02*
D03*
X155000Y209000D02*
D03*
X230000Y166500D02*
D03*
X169000Y171000D02*
D03*
X151000Y213000D02*
D03*
X223532Y247000D02*
D03*
X222579Y241500D02*
D03*
X232031Y250000D02*
D03*
X248532D02*
D03*
X224532Y124031D02*
D03*
X250500Y138000D02*
D03*
X221031Y137469D02*
D03*
X254031Y246500D02*
D03*
X277063Y248468D02*
D03*
X291531Y245500D02*
D03*
X132500Y178500D02*
D03*
X132500Y198500D02*
D03*
X245000Y132000D02*
D03*
X244500Y123500D02*
D03*
X275000Y131500D02*
D03*
X249000Y268500D02*
D03*
X244500Y265500D02*
D03*
X224500Y173500D02*
D03*
X161500D02*
D03*
X159500Y152500D02*
D03*
X194500Y147500D02*
D03*
X139953Y180047D02*
D03*
X148031Y203532D02*
D03*
X155000Y200000D02*
D03*
X222000Y179500D02*
D03*
X191969Y202031D02*
D03*
X203000Y223000D02*
D03*
X198000Y221000D02*
D03*
X202500Y229000D02*
D03*
X184890Y206610D02*
D03*
X177000Y195500D02*
D03*
X179000Y198500D02*
D03*
Y202000D02*
D03*
X187500Y198000D02*
D03*
X184000D02*
D03*
X157500Y143634D02*
D03*
X163000Y144000D02*
D03*
X143500Y230500D02*
D03*
Y227500D02*
D03*
X215000Y219000D02*
D03*
Y214000D02*
D03*
X206000Y183300D02*
D03*
X173000Y180000D02*
D03*
X147500Y166189D02*
D03*
X148000Y161000D02*
D03*
X152000Y160500D02*
D03*
X149858Y179642D02*
D03*
X145000Y195500D02*
D03*
X134500Y206000D02*
D03*
X134000Y210500D02*
D03*
X147500Y199000D02*
D03*
X132500Y227500D02*
D03*
X145500Y207500D02*
D03*
X130500Y205500D02*
D03*
Y248000D02*
D03*
Y262000D02*
D03*
Y268000D02*
D03*
X204000Y266000D02*
D03*
X209500D02*
D03*
X215000D02*
D03*
X220500D02*
D03*
X226000D02*
D03*
X231500D02*
D03*
X236000D02*
D03*
Y261500D02*
D03*
X231500D02*
D03*
X244500Y260500D02*
D03*
X253000Y266500D02*
D03*
X258000D02*
D03*
X263500D02*
D03*
X269000D02*
D03*
X274500D02*
D03*
X280000D02*
D03*
X285500D02*
D03*
X291000D02*
D03*
X258000Y250500D02*
D03*
X257500Y256500D02*
D03*
X253000Y253000D02*
D03*
X263500Y261500D02*
D03*
X274500D02*
D03*
X280000D02*
D03*
X285500D02*
D03*
X291000D02*
D03*
X269000D02*
D03*
X258000D02*
D03*
X249000Y259000D02*
D03*
X257000Y169000D02*
D03*
Y174500D02*
D03*
X252000Y169000D02*
D03*
X251500Y180000D02*
D03*
X245500D02*
D03*
X240000D02*
D03*
X234500D02*
D03*
Y174000D02*
D03*
X257000Y157000D02*
D03*
Y151500D02*
D03*
Y146000D02*
D03*
Y140500D02*
D03*
X251500Y151500D02*
D03*
X258032Y236000D02*
D03*
X151500Y233500D02*
D03*
X133709Y270630D02*
D03*
X139500Y263500D02*
D03*
X143370Y260382D02*
D03*
X168610Y238890D02*
D03*
X160000Y243000D02*
D03*
X173500Y250000D02*
D03*
X166500Y253000D02*
D03*
X130500Y255000D02*
D03*
X162500Y265454D02*
D03*
X148370Y264870D02*
D03*
X177500Y245500D02*
D03*
X181000Y247500D02*
D03*
X189500Y243500D02*
D03*
X172500Y265000D02*
D03*
X152000Y262500D02*
D03*
X183000Y259000D02*
D03*
X171953Y269047D02*
D03*
X182000Y254500D02*
D03*
X181000Y276500D02*
D03*
X156500Y244969D02*
D03*
X263000Y236500D02*
D03*
X273488Y237988D02*
D03*
X223018Y227000D02*
D03*
X223118Y222800D02*
D03*
X226500Y228000D02*
D03*
X280000Y201500D02*
D03*
X294500Y206000D02*
D03*
X271000Y206000D02*
D03*
X289500Y238500D02*
D03*
X229000Y211500D02*
D03*
X264000Y198000D02*
D03*
X265600Y227900D02*
D03*
X283500Y229500D02*
D03*
X260469Y217969D02*
D03*
X254500Y214000D02*
D03*
X260963Y221168D02*
D03*
X283500Y224000D02*
D03*
X268500Y210500D02*
D03*
X250000D02*
D03*
X253000Y207500D02*
D03*
X283000Y219500D02*
D03*
Y214500D02*
D03*
X240000Y204000D02*
D03*
X246000Y207500D02*
D03*
X242000Y199500D02*
D03*
X207000Y189500D02*
D03*
X210000Y193500D02*
D03*
X202000Y178500D02*
D03*
X205500Y178500D02*
D03*
X204500Y186500D02*
D03*
X255000Y194500D02*
D03*
Y184500D02*
D03*
X157500Y179500D02*
D03*
X172500Y192500D02*
D03*
X181500Y182500D02*
D03*
Y168500D02*
D03*
X183000Y121000D02*
D03*
X185000Y126000D02*
D03*
X187500Y157500D02*
D03*
Y153500D02*
D03*
X179000Y121000D02*
D03*
X198000Y128500D02*
D03*
X180500Y149000D02*
D03*
X187500Y149500D02*
D03*
X179000Y175000D02*
D03*
X203000Y126000D02*
D03*
X196500Y144500D02*
D03*
X199500Y142636D02*
D03*
X213500Y136000D02*
D03*
X203000Y143000D02*
D03*
X207000Y144500D02*
D03*
X193000Y128500D02*
D03*
X216000Y131000D02*
D03*
X212500Y124500D02*
D03*
X170500Y144000D02*
D03*
X188500Y143000D02*
D03*
X177000D02*
D03*
X230000Y193000D02*
D03*
Y200000D02*
D03*
X214000Y210500D02*
D03*
Y201000D02*
D03*
X136157Y212869D02*
D03*
X132500Y215000D02*
D03*
X192000Y220000D02*
D03*
D52*
X247532Y232000D02*
D03*
Y220000D02*
D03*
X235531Y232000D02*
D03*
Y220000D02*
D03*
Y226000D02*
D03*
X247532D02*
D03*
X241531Y232000D02*
D03*
Y220000D02*
D03*
Y226000D02*
D03*
X211500Y159000D02*
D03*
X199500D02*
D03*
X205500Y165000D02*
D03*
Y153000D02*
D03*
Y159000D02*
D03*
X211500Y165000D02*
D03*
Y153000D02*
D03*
X199500D02*
D03*
Y165000D02*
D03*
X169000Y216500D02*
D03*
Y229500D02*
D03*
X182000D02*
D03*
Y216500D02*
D03*
X175500D02*
D03*
Y223000D02*
D03*
Y229500D02*
D03*
X182000Y223000D02*
D03*
X169000D02*
D03*
M02*
