G04 #@! TF.FileFunction,Copper,L1,Top,Signal*
%FSLAX46Y46*%
G04 Gerber Fmt 4.6, Leading zero omitted, Abs format (unit mm)*
G04 Created by KiCad (PCBNEW 4.0.7) date 09/09/17 09:10:52*
%MOMM*%
%LPD*%
G01*
G04 APERTURE LIST*
%ADD10C,0.100000*%
%ADD11C,0.300000*%
%ADD12R,1.700000X1.700000*%
%ADD13C,1.700000*%
%ADD14O,1.700000X1.700000*%
%ADD15R,2.000000X1.000000*%
%ADD16R,1.000000X2.000000*%
%ADD17R,1.800000X1.800000*%
%ADD18C,1.800000*%
%ADD19C,3.500000*%
%ADD20R,1.524000X1.700000*%
%ADD21C,0.685800*%
%ADD22C,0.254000*%
G04 APERTURE END LIST*
D10*
D11*
X154394286Y-75608571D02*
X154394286Y-74608571D01*
X154394286Y-74751429D02*
X154465714Y-74680000D01*
X154608572Y-74608571D01*
X154822857Y-74608571D01*
X154965714Y-74680000D01*
X155037143Y-74822857D01*
X155037143Y-75608571D01*
X155037143Y-74822857D02*
X155108572Y-74680000D01*
X155251429Y-74608571D01*
X155465714Y-74608571D01*
X155608572Y-74680000D01*
X155680000Y-74822857D01*
X155680000Y-75608571D01*
X156394286Y-75608571D02*
X156394286Y-74108571D01*
X156751429Y-74108571D01*
X156965714Y-74180000D01*
X157108572Y-74322857D01*
X157180000Y-74465714D01*
X157251429Y-74751429D01*
X157251429Y-74965714D01*
X157180000Y-75251429D01*
X157108572Y-75394286D01*
X156965714Y-75537143D01*
X156751429Y-75608571D01*
X156394286Y-75608571D01*
X157894286Y-75608571D02*
X157894286Y-74608571D01*
X157894286Y-74894286D02*
X157965714Y-74751429D01*
X158037143Y-74680000D01*
X158180000Y-74608571D01*
X158322857Y-74608571D01*
X158822857Y-75608571D02*
X158822857Y-74608571D01*
X158822857Y-74108571D02*
X158751428Y-74180000D01*
X158822857Y-74251429D01*
X158894285Y-74180000D01*
X158822857Y-74108571D01*
X158822857Y-74251429D01*
X159537143Y-74608571D02*
X159537143Y-76108571D01*
X159537143Y-74680000D02*
X159680000Y-74608571D01*
X159965714Y-74608571D01*
X160108571Y-74680000D01*
X160180000Y-74751429D01*
X160251429Y-74894286D01*
X160251429Y-75322857D01*
X160180000Y-75465714D01*
X160108571Y-75537143D01*
X159965714Y-75608571D01*
X159680000Y-75608571D01*
X159537143Y-75537143D01*
X161894286Y-74608571D02*
X162251429Y-75608571D01*
X162608571Y-74608571D01*
X163965714Y-75608571D02*
X163108571Y-75608571D01*
X163537143Y-75608571D02*
X163537143Y-74108571D01*
X163394286Y-74322857D01*
X163251428Y-74465714D01*
X163108571Y-74537143D01*
X165751428Y-75037143D02*
X166894285Y-75037143D01*
X168751428Y-74608571D02*
X168751428Y-75894286D01*
X168679999Y-76037143D01*
X168537142Y-76108571D01*
X168465714Y-76108571D01*
X168751428Y-74108571D02*
X168679999Y-74180000D01*
X168751428Y-74251429D01*
X168822856Y-74180000D01*
X168751428Y-74108571D01*
X168751428Y-74251429D01*
X170037142Y-75537143D02*
X169894285Y-75608571D01*
X169608571Y-75608571D01*
X169465714Y-75537143D01*
X169394285Y-75394286D01*
X169394285Y-74822857D01*
X169465714Y-74680000D01*
X169608571Y-74608571D01*
X169894285Y-74608571D01*
X170037142Y-74680000D01*
X170108571Y-74822857D01*
X170108571Y-74965714D01*
X169394285Y-75108571D01*
X170679999Y-75537143D02*
X170822856Y-75608571D01*
X171108571Y-75608571D01*
X171251428Y-75537143D01*
X171322856Y-75394286D01*
X171322856Y-75322857D01*
X171251428Y-75180000D01*
X171108571Y-75108571D01*
X170894285Y-75108571D01*
X170751428Y-75037143D01*
X170679999Y-74894286D01*
X170679999Y-74822857D01*
X170751428Y-74680000D01*
X170894285Y-74608571D01*
X171108571Y-74608571D01*
X171251428Y-74680000D01*
X172608571Y-74608571D02*
X172608571Y-75608571D01*
X171965714Y-74608571D02*
X171965714Y-75394286D01*
X172037142Y-75537143D01*
X172180000Y-75608571D01*
X172394285Y-75608571D01*
X172537142Y-75537143D01*
X172608571Y-75465714D01*
X173251428Y-75537143D02*
X173394285Y-75608571D01*
X173680000Y-75608571D01*
X173822857Y-75537143D01*
X173894285Y-75394286D01*
X173894285Y-75322857D01*
X173822857Y-75180000D01*
X173680000Y-75108571D01*
X173465714Y-75108571D01*
X173322857Y-75037143D01*
X173251428Y-74894286D01*
X173251428Y-74822857D01*
X173322857Y-74680000D01*
X173465714Y-74608571D01*
X173680000Y-74608571D01*
X173822857Y-74680000D01*
X175465714Y-74894286D02*
X175394286Y-74822857D01*
X175251429Y-74751429D01*
X175108571Y-74751429D01*
X174965714Y-74822857D01*
X174894286Y-74894286D01*
X174822857Y-75037143D01*
X174822857Y-75180000D01*
X174894286Y-75322857D01*
X174965714Y-75394286D01*
X175108571Y-75465714D01*
X175251429Y-75465714D01*
X175394286Y-75394286D01*
X175465714Y-75322857D01*
X175465714Y-74751429D02*
X175465714Y-75322857D01*
X175537143Y-75394286D01*
X175608571Y-75394286D01*
X175751429Y-75322857D01*
X175822857Y-75180000D01*
X175822857Y-74822857D01*
X175680000Y-74608571D01*
X175465714Y-74465714D01*
X175180000Y-74394286D01*
X174894286Y-74465714D01*
X174680000Y-74608571D01*
X174537143Y-74822857D01*
X174465714Y-75108571D01*
X174537143Y-75394286D01*
X174680000Y-75608571D01*
X174894286Y-75751429D01*
X175180000Y-75822857D01*
X175465714Y-75751429D01*
X175680000Y-75608571D01*
X176465714Y-75608571D02*
X176465714Y-74108571D01*
X176465714Y-74680000D02*
X176608571Y-74608571D01*
X176894285Y-74608571D01*
X177037142Y-74680000D01*
X177108571Y-74751429D01*
X177180000Y-74894286D01*
X177180000Y-75322857D01*
X177108571Y-75465714D01*
X177037142Y-75537143D01*
X176894285Y-75608571D01*
X176608571Y-75608571D01*
X176465714Y-75537143D01*
X178394285Y-75537143D02*
X178251428Y-75608571D01*
X177965714Y-75608571D01*
X177822857Y-75537143D01*
X177751428Y-75394286D01*
X177751428Y-74822857D01*
X177822857Y-74680000D01*
X177965714Y-74608571D01*
X178251428Y-74608571D01*
X178394285Y-74680000D01*
X178465714Y-74822857D01*
X178465714Y-74965714D01*
X177751428Y-75108571D01*
X179108571Y-75608571D02*
X179108571Y-74608571D01*
X179108571Y-74894286D02*
X179179999Y-74751429D01*
X179251428Y-74680000D01*
X179394285Y-74608571D01*
X179537142Y-74608571D01*
X180037142Y-75608571D02*
X180037142Y-74608571D01*
X180037142Y-74108571D02*
X179965713Y-74180000D01*
X180037142Y-74251429D01*
X180108570Y-74180000D01*
X180037142Y-74108571D01*
X180037142Y-74251429D01*
X181394285Y-75608571D02*
X181394285Y-74822857D01*
X181322856Y-74680000D01*
X181179999Y-74608571D01*
X180894285Y-74608571D01*
X180751428Y-74680000D01*
X181394285Y-75537143D02*
X181251428Y-75608571D01*
X180894285Y-75608571D01*
X180751428Y-75537143D01*
X180679999Y-75394286D01*
X180679999Y-75251429D01*
X180751428Y-75108571D01*
X180894285Y-75037143D01*
X181251428Y-75037143D01*
X181394285Y-74965714D01*
X182108571Y-74608571D02*
X182108571Y-75608571D01*
X182108571Y-74751429D02*
X182179999Y-74680000D01*
X182322857Y-74608571D01*
X182537142Y-74608571D01*
X182679999Y-74680000D01*
X182751428Y-74822857D01*
X182751428Y-75608571D01*
X183465714Y-75465714D02*
X183537142Y-75537143D01*
X183465714Y-75608571D01*
X183394285Y-75537143D01*
X183465714Y-75465714D01*
X183465714Y-75608571D01*
X184751428Y-75537143D02*
X184608571Y-75608571D01*
X184322857Y-75608571D01*
X184180000Y-75537143D01*
X184108571Y-75394286D01*
X184108571Y-74822857D01*
X184180000Y-74680000D01*
X184322857Y-74608571D01*
X184608571Y-74608571D01*
X184751428Y-74680000D01*
X184822857Y-74822857D01*
X184822857Y-74965714D01*
X184108571Y-75108571D01*
X185394285Y-75537143D02*
X185537142Y-75608571D01*
X185822857Y-75608571D01*
X185965714Y-75537143D01*
X186037142Y-75394286D01*
X186037142Y-75322857D01*
X185965714Y-75180000D01*
X185822857Y-75108571D01*
X185608571Y-75108571D01*
X185465714Y-75037143D01*
X185394285Y-74894286D01*
X185394285Y-74822857D01*
X185465714Y-74680000D01*
X185608571Y-74608571D01*
X185822857Y-74608571D01*
X185965714Y-74680000D01*
D12*
X132080000Y-90170000D03*
D13*
X134580000Y-90170000D03*
D12*
X171450000Y-110490000D03*
D14*
X171450000Y-113030000D03*
X173990000Y-110490000D03*
X173990000Y-113030000D03*
X176530000Y-110490000D03*
X176530000Y-113030000D03*
X179070000Y-110490000D03*
X179070000Y-113030000D03*
X181610000Y-110490000D03*
X181610000Y-113030000D03*
D12*
X171450000Y-85090000D03*
D14*
X171450000Y-87630000D03*
X173990000Y-85090000D03*
X173990000Y-87630000D03*
X176530000Y-85090000D03*
X176530000Y-87630000D03*
X179070000Y-85090000D03*
X179070000Y-87630000D03*
X181610000Y-85090000D03*
X181610000Y-87630000D03*
D12*
X133350000Y-77470000D03*
D14*
X133350000Y-80010000D03*
X133350000Y-82550000D03*
D15*
X152400000Y-112280000D03*
X152400000Y-110780000D03*
X152400000Y-109280000D03*
X152400000Y-107780000D03*
X152400000Y-106280000D03*
X152400000Y-104780000D03*
X152400000Y-103280000D03*
X152400000Y-101780000D03*
X152400000Y-100280000D03*
X152400000Y-98780000D03*
X152400000Y-97280000D03*
X152400000Y-95780000D03*
X152400000Y-94280000D03*
D16*
X151100000Y-92480000D03*
X149600000Y-92480000D03*
X148100000Y-92480000D03*
X146600000Y-92480000D03*
X145100000Y-92480000D03*
X143600000Y-92480000D03*
X142100000Y-92480000D03*
X140600000Y-92480000D03*
D15*
X139400000Y-94280000D03*
X139400000Y-95780000D03*
X139400000Y-97280000D03*
X139400000Y-98780000D03*
X139400000Y-100280000D03*
X139400000Y-101780000D03*
X139400000Y-103280000D03*
X139400000Y-104780000D03*
X139400000Y-106280000D03*
X139400000Y-107780000D03*
X139400000Y-109280000D03*
X139400000Y-110780000D03*
X139400000Y-112280000D03*
D17*
X121285000Y-81915000D03*
D18*
X121285000Y-84455000D03*
D17*
X121285000Y-88900000D03*
D18*
X121285000Y-91440000D03*
D13*
X127000000Y-85090000D03*
D14*
X127000000Y-80010000D03*
D13*
X127000000Y-92710000D03*
D14*
X127000000Y-87630000D03*
D19*
X120650000Y-76200000D03*
X195580000Y-76200000D03*
X195580000Y-116840000D03*
X120650000Y-116840000D03*
D13*
X133350000Y-95250000D03*
X130810000Y-95250000D03*
X128270000Y-95250000D03*
X125730000Y-95250000D03*
X130810000Y-118110000D03*
X128270000Y-118110000D03*
D20*
X176530000Y-93980000D03*
D13*
X176530000Y-96520000D03*
X179070000Y-93980000D03*
X179070000Y-96520000D03*
X181610000Y-93980000D03*
X181610000Y-96520000D03*
X184150000Y-93980000D03*
X184150000Y-96520000D03*
X186690000Y-93980000D03*
X186690000Y-96520000D03*
X156210000Y-93980000D03*
X156210000Y-96520000D03*
X158750000Y-93980000D03*
X158750000Y-96520000D03*
X161290000Y-93980000D03*
X161290000Y-96520000D03*
X163830000Y-93980000D03*
X163830000Y-96520000D03*
X166370000Y-93980000D03*
X166370000Y-96520000D03*
D12*
X184150000Y-101600000D03*
D13*
X181610000Y-101600000D03*
X179070000Y-101600000D03*
X176530000Y-101600000D03*
X173990000Y-101600000D03*
X171450000Y-101600000D03*
X168910000Y-101600000D03*
X166370000Y-101600000D03*
X163830000Y-101600000D03*
X161290000Y-101600000D03*
X158750000Y-101600000D03*
X156210000Y-101600000D03*
X156210000Y-116840000D03*
X158750000Y-116840000D03*
X161290000Y-116840000D03*
X163830000Y-116840000D03*
X166370000Y-116840000D03*
X168910000Y-116840000D03*
X171450000Y-116840000D03*
X173990000Y-116840000D03*
X176530000Y-116840000D03*
X179070000Y-116840000D03*
X181610000Y-116840000D03*
D21*
X170180000Y-96520000D03*
X173990000Y-107950000D03*
X154940000Y-104140000D03*
X175260000Y-106680000D03*
X154940000Y-102870000D03*
X154940000Y-99060000D03*
X177800000Y-99060000D03*
X135890000Y-93980000D03*
X147320000Y-96520000D03*
X147320000Y-90170000D03*
X147320000Y-85090000D03*
X160020000Y-85090000D03*
X149860000Y-96520000D03*
X149860000Y-90170000D03*
X149860000Y-83820000D03*
X161290000Y-83820000D03*
X173990000Y-104140000D03*
X185420000Y-104140000D03*
X137160000Y-97790000D03*
X130810000Y-97790000D03*
X156210000Y-86360000D03*
D22*
X171450000Y-113030000D02*
X170180000Y-113030000D01*
X170180000Y-104140000D02*
X170180000Y-96520000D01*
X168910000Y-105410000D02*
X170180000Y-104140000D01*
X168910000Y-111760000D02*
X168910000Y-105410000D01*
X170180000Y-113030000D02*
X168910000Y-111760000D01*
X152400000Y-103280000D02*
X154080000Y-103280000D01*
X173990000Y-107950000D02*
X173990000Y-110490000D01*
X154080000Y-103280000D02*
X154940000Y-104140000D01*
X152400000Y-101780000D02*
X153850000Y-101780000D01*
X175260000Y-111760000D02*
X173990000Y-113030000D01*
X175260000Y-106680000D02*
X175260000Y-111760000D01*
X153850000Y-101780000D02*
X154940000Y-102870000D01*
X152400000Y-97280000D02*
X153160000Y-97280000D01*
X153160000Y-97280000D02*
X154940000Y-99060000D01*
X177800000Y-99060000D02*
X177800000Y-107950000D01*
X177800000Y-107950000D02*
X179070000Y-109220000D01*
X179070000Y-109220000D02*
X179070000Y-110490000D01*
X173990000Y-85090000D02*
X175260000Y-86360000D01*
X179070000Y-92710000D02*
X179070000Y-93980000D01*
X175260000Y-88900000D02*
X179070000Y-92710000D01*
X175260000Y-86360000D02*
X175260000Y-88900000D01*
X173990000Y-87630000D02*
X173990000Y-88900000D01*
X177800000Y-95250000D02*
X179070000Y-96520000D01*
X177800000Y-92710000D02*
X177800000Y-95250000D01*
X173990000Y-88900000D02*
X177800000Y-92710000D01*
X179070000Y-85090000D02*
X180340000Y-86360000D01*
X180340000Y-90170000D02*
X184150000Y-93980000D01*
X180340000Y-86360000D02*
X180340000Y-90170000D01*
X135890000Y-80010000D02*
X133350000Y-80010000D01*
X137160000Y-81280000D02*
X135890000Y-80010000D01*
X137160000Y-92710000D02*
X137160000Y-81280000D01*
X135890000Y-93980000D02*
X137160000Y-92710000D01*
X161290000Y-96520000D02*
X160020000Y-95250000D01*
X150380000Y-112280000D02*
X152400000Y-112280000D01*
X147320000Y-109220000D02*
X150380000Y-112280000D01*
X147320000Y-96520000D02*
X147320000Y-109220000D01*
X147320000Y-85090000D02*
X147320000Y-90170000D01*
X160020000Y-95250000D02*
X160020000Y-85090000D01*
X161290000Y-93980000D02*
X161290000Y-83820000D01*
X149860000Y-109220000D02*
X151420000Y-110780000D01*
X149860000Y-96520000D02*
X149860000Y-109220000D01*
X149860000Y-83820000D02*
X149860000Y-90170000D01*
X151420000Y-110780000D02*
X152400000Y-110780000D01*
X181610000Y-99060000D02*
X181610000Y-96520000D01*
X179070000Y-101600000D02*
X181610000Y-99060000D01*
X173990000Y-104140000D02*
X173990000Y-101600000D01*
X186690000Y-102870000D02*
X185420000Y-104140000D01*
X186690000Y-99060000D02*
X186690000Y-102870000D01*
X184150000Y-96520000D02*
X186690000Y-99060000D01*
X139400000Y-94280000D02*
X152400000Y-94280000D01*
X151100000Y-92480000D02*
X151100000Y-92680000D01*
X151100000Y-92680000D02*
X152400000Y-93980000D01*
X152400000Y-93980000D02*
X152400000Y-94280000D01*
X139400000Y-94280000D02*
X139400000Y-93010000D01*
X139930000Y-92480000D02*
X140600000Y-92480000D01*
X139400000Y-93010000D02*
X139930000Y-92480000D01*
X130810000Y-95250000D02*
X133350000Y-97790000D01*
X138130000Y-94280000D02*
X139400000Y-94280000D01*
X135890000Y-96520000D02*
X138130000Y-94280000D01*
X135890000Y-97790000D02*
X135890000Y-96520000D01*
X133350000Y-97790000D02*
X135890000Y-97790000D01*
X127000000Y-80010000D02*
X128270000Y-80010000D01*
X137900000Y-95780000D02*
X139400000Y-95780000D01*
X137160000Y-96520000D02*
X137900000Y-95780000D01*
X137160000Y-97790000D02*
X137160000Y-96520000D01*
X129540000Y-96520000D02*
X130810000Y-97790000D01*
X129540000Y-81280000D02*
X129540000Y-96520000D01*
X128270000Y-80010000D02*
X129540000Y-81280000D01*
X156210000Y-86360000D02*
X156210000Y-93980000D01*
G36*
X137720000Y-78740000D02*
X137774046Y-79011705D01*
X137927954Y-79242046D01*
X138158295Y-79395954D01*
X138430000Y-79450000D01*
X152400000Y-79450000D01*
X152671705Y-79395954D01*
X152902046Y-79242046D01*
X153055954Y-79011705D01*
X153110000Y-78740000D01*
X153110000Y-74370000D01*
X153402143Y-74370000D01*
X153402143Y-76915000D01*
X184023000Y-76915000D01*
X184023000Y-87630000D01*
X184033006Y-87679410D01*
X184061447Y-87721035D01*
X184103841Y-87748315D01*
X184150000Y-87757000D01*
X185293000Y-87757000D01*
X185293000Y-91440000D01*
X185303006Y-91489410D01*
X185331447Y-91531035D01*
X185373841Y-91558315D01*
X185420000Y-91567000D01*
X187907394Y-91567000D01*
X189140197Y-92799803D01*
X189182211Y-92827666D01*
X189230000Y-92837000D01*
X197410000Y-92837000D01*
X197410000Y-100203000D01*
X187960000Y-100203000D01*
X187910590Y-100213006D01*
X187868965Y-100241447D01*
X187841685Y-100283841D01*
X187833000Y-100330000D01*
X187833000Y-102817394D01*
X186397802Y-104252592D01*
X186397813Y-104239817D01*
X187228815Y-103408816D01*
X187393996Y-103161605D01*
X187406759Y-103097440D01*
X187452000Y-102870000D01*
X187452000Y-99060000D01*
X187393996Y-98768395D01*
X187293866Y-98618540D01*
X187228815Y-98521184D01*
X186712651Y-98005020D01*
X186984089Y-98005257D01*
X187530086Y-97779656D01*
X187948188Y-97362283D01*
X188174742Y-96816681D01*
X188175257Y-96225911D01*
X187949656Y-95679914D01*
X187532283Y-95261812D01*
X187504443Y-95250252D01*
X187530086Y-95239656D01*
X187948188Y-94822283D01*
X188174742Y-94276681D01*
X188175257Y-93685911D01*
X187949656Y-93139914D01*
X187532283Y-92721812D01*
X186986681Y-92495258D01*
X186395911Y-92494743D01*
X185849914Y-92720344D01*
X185431812Y-93137717D01*
X185420252Y-93165557D01*
X185409656Y-93139914D01*
X184992283Y-92721812D01*
X184446681Y-92495258D01*
X183855911Y-92494743D01*
X183775570Y-92527939D01*
X181102000Y-89854370D01*
X181102000Y-89043045D01*
X181610000Y-89144093D01*
X182178285Y-89031054D01*
X182660054Y-88709147D01*
X182981961Y-88227378D01*
X183095000Y-87659093D01*
X183095000Y-87600907D01*
X182981961Y-87032622D01*
X182660054Y-86550853D01*
X182374422Y-86360000D01*
X182660054Y-86169147D01*
X182981961Y-85687378D01*
X183095000Y-85119093D01*
X183095000Y-85060907D01*
X182981961Y-84492622D01*
X182660054Y-84010853D01*
X182178285Y-83688946D01*
X181610000Y-83575907D01*
X181041715Y-83688946D01*
X180559946Y-84010853D01*
X180340000Y-84340026D01*
X180120054Y-84010853D01*
X179638285Y-83688946D01*
X179070000Y-83575907D01*
X178501715Y-83688946D01*
X178019946Y-84010853D01*
X177800000Y-84340026D01*
X177580054Y-84010853D01*
X177098285Y-83688946D01*
X176530000Y-83575907D01*
X175961715Y-83688946D01*
X175479946Y-84010853D01*
X175260000Y-84340026D01*
X175040054Y-84010853D01*
X174558285Y-83688946D01*
X173990000Y-83575907D01*
X173421715Y-83688946D01*
X172939946Y-84010853D01*
X172912150Y-84052452D01*
X172903162Y-84004683D01*
X172764090Y-83788559D01*
X172551890Y-83643569D01*
X172300000Y-83592560D01*
X170600000Y-83592560D01*
X170364683Y-83636838D01*
X170148559Y-83775910D01*
X170003569Y-83988110D01*
X169952560Y-84240000D01*
X169952560Y-85940000D01*
X169996838Y-86175317D01*
X170135910Y-86391441D01*
X170348110Y-86536431D01*
X170462301Y-86559555D01*
X170254817Y-86748642D01*
X170008514Y-87273108D01*
X170129181Y-87503000D01*
X171323000Y-87503000D01*
X171323000Y-87483000D01*
X171577000Y-87483000D01*
X171577000Y-87503000D01*
X171597000Y-87503000D01*
X171597000Y-87757000D01*
X171577000Y-87757000D01*
X171577000Y-88950155D01*
X171806890Y-89071476D01*
X172216924Y-88901645D01*
X172645183Y-88511358D01*
X172712298Y-88368447D01*
X172939946Y-88709147D01*
X173228371Y-88901866D01*
X173286004Y-89191605D01*
X173430596Y-89408001D01*
X173451185Y-89438815D01*
X176494929Y-92482560D01*
X175768000Y-92482560D01*
X175532683Y-92526838D01*
X175316559Y-92665910D01*
X175171569Y-92878110D01*
X175120560Y-93130000D01*
X175120560Y-94830000D01*
X175164838Y-95065317D01*
X175303910Y-95281441D01*
X175516110Y-95426431D01*
X175671446Y-95457887D01*
X175665647Y-95476042D01*
X176530000Y-96340395D01*
X176544143Y-96326253D01*
X176723748Y-96505858D01*
X176709605Y-96520000D01*
X177573958Y-97384353D01*
X177791640Y-97314819D01*
X177810344Y-97360086D01*
X178227717Y-97778188D01*
X178773319Y-98004742D01*
X179364089Y-98005257D01*
X179910086Y-97779656D01*
X180328188Y-97362283D01*
X180339748Y-97334443D01*
X180350344Y-97360086D01*
X180767717Y-97778188D01*
X180848000Y-97811524D01*
X180848000Y-98744369D01*
X179444711Y-100147659D01*
X179366681Y-100115258D01*
X178775911Y-100114743D01*
X178562000Y-100203129D01*
X178562000Y-99681083D01*
X178628540Y-99614659D01*
X178777730Y-99255370D01*
X178778069Y-98866337D01*
X178629507Y-98506788D01*
X178354659Y-98231460D01*
X177995370Y-98082270D01*
X177606337Y-98081931D01*
X177246788Y-98230493D01*
X176971460Y-98505341D01*
X176822270Y-98864630D01*
X176821931Y-99253663D01*
X176970493Y-99613212D01*
X177038000Y-99680837D01*
X177038000Y-100203005D01*
X176826681Y-100115258D01*
X176235911Y-100114743D01*
X175689914Y-100340344D01*
X175271812Y-100757717D01*
X175260252Y-100785557D01*
X175249656Y-100759914D01*
X174832283Y-100341812D01*
X174286681Y-100115258D01*
X173695911Y-100114743D01*
X173149914Y-100340344D01*
X172731812Y-100757717D01*
X172720252Y-100785557D01*
X172709656Y-100759914D01*
X172292283Y-100341812D01*
X171746681Y-100115258D01*
X171155911Y-100114743D01*
X170609914Y-100340344D01*
X170191812Y-100757717D01*
X170180252Y-100785557D01*
X170169656Y-100759914D01*
X169752283Y-100341812D01*
X169206681Y-100115258D01*
X168615911Y-100114743D01*
X168069914Y-100340344D01*
X167651812Y-100757717D01*
X167640252Y-100785557D01*
X167629656Y-100759914D01*
X167212283Y-100341812D01*
X166666681Y-100115258D01*
X166075911Y-100114743D01*
X165529914Y-100340344D01*
X165111812Y-100757717D01*
X165100252Y-100785557D01*
X165089656Y-100759914D01*
X164672283Y-100341812D01*
X164126681Y-100115258D01*
X163535911Y-100114743D01*
X162989914Y-100340344D01*
X162571812Y-100757717D01*
X162560252Y-100785557D01*
X162549656Y-100759914D01*
X162132283Y-100341812D01*
X161586681Y-100115258D01*
X160995911Y-100114743D01*
X160449914Y-100340344D01*
X160031812Y-100757717D01*
X160020252Y-100785557D01*
X160009656Y-100759914D01*
X159592283Y-100341812D01*
X159046681Y-100115258D01*
X158455911Y-100114743D01*
X157909914Y-100340344D01*
X157491812Y-100757717D01*
X157480252Y-100785557D01*
X157469656Y-100759914D01*
X157052283Y-100341812D01*
X156506681Y-100115258D01*
X155915911Y-100114743D01*
X155369914Y-100340344D01*
X154951812Y-100757717D01*
X154725258Y-101303319D01*
X154725019Y-101577389D01*
X154388815Y-101241185D01*
X154374232Y-101231441D01*
X154141605Y-101076004D01*
X154003901Y-101048613D01*
X154003162Y-101044683D01*
X153995658Y-101033021D01*
X153996431Y-101031890D01*
X154047440Y-100780000D01*
X154047440Y-99780000D01*
X154003162Y-99544683D01*
X153995658Y-99533021D01*
X153996431Y-99531890D01*
X154022895Y-99401207D01*
X154110493Y-99613212D01*
X154385341Y-99888540D01*
X154744630Y-100037730D01*
X155133663Y-100038069D01*
X155493212Y-99889507D01*
X155768540Y-99614659D01*
X155917730Y-99255370D01*
X155918069Y-98866337D01*
X155769507Y-98506788D01*
X155494659Y-98231460D01*
X155135370Y-98082270D01*
X155039817Y-98082187D01*
X154047440Y-97089810D01*
X154047440Y-96780000D01*
X154003162Y-96544683D01*
X153987662Y-96520595D01*
X154035000Y-96406310D01*
X154035000Y-96065750D01*
X153876250Y-95907000D01*
X152527000Y-95907000D01*
X152527000Y-95927000D01*
X152273000Y-95927000D01*
X152273000Y-95907000D01*
X150923750Y-95907000D01*
X150765000Y-96065750D01*
X150765000Y-96149496D01*
X150689507Y-95966788D01*
X150414659Y-95691460D01*
X150055370Y-95542270D01*
X149666337Y-95541931D01*
X149306788Y-95690493D01*
X149031460Y-95965341D01*
X148882270Y-96324630D01*
X148881931Y-96713663D01*
X149030493Y-97073212D01*
X149098000Y-97140837D01*
X149098000Y-109220000D01*
X149156004Y-109511605D01*
X149236824Y-109632560D01*
X149321185Y-109758815D01*
X150752560Y-111190190D01*
X150752560Y-111280000D01*
X150796838Y-111515317D01*
X150798564Y-111518000D01*
X150695631Y-111518000D01*
X148082000Y-108904370D01*
X148082000Y-97141083D01*
X148148540Y-97074659D01*
X148297730Y-96715370D01*
X148298069Y-96326337D01*
X148149507Y-95966788D01*
X147874659Y-95691460D01*
X147515370Y-95542270D01*
X147126337Y-95541931D01*
X146766788Y-95690493D01*
X146491460Y-95965341D01*
X146342270Y-96324630D01*
X146341931Y-96713663D01*
X146490493Y-97073212D01*
X146558000Y-97140837D01*
X146558000Y-109220000D01*
X146616004Y-109511605D01*
X146696824Y-109632560D01*
X146781185Y-109758815D01*
X148655369Y-111633000D01*
X142240000Y-111633000D01*
X142190590Y-111643006D01*
X142148965Y-111671447D01*
X142121685Y-111713841D01*
X142113000Y-111760000D01*
X142113000Y-112977394D01*
X140917394Y-114173000D01*
X138430000Y-114173000D01*
X138380590Y-114183006D01*
X138338965Y-114211447D01*
X138311685Y-114253841D01*
X138303000Y-114300000D01*
X138303000Y-118670000D01*
X132185402Y-118670000D01*
X132294742Y-118406681D01*
X132295257Y-117815911D01*
X132069656Y-117269914D01*
X131652283Y-116851812D01*
X131106681Y-116625258D01*
X130515911Y-116624743D01*
X129969914Y-116850344D01*
X129551812Y-117267717D01*
X129540252Y-117295557D01*
X129529656Y-117269914D01*
X129112283Y-116851812D01*
X128566681Y-116625258D01*
X127975911Y-116624743D01*
X127429914Y-116850344D01*
X127011812Y-117267717D01*
X126785258Y-117813319D01*
X126784743Y-118404089D01*
X126894615Y-118670000D01*
X122192650Y-118670000D01*
X122670726Y-118192758D01*
X123034585Y-117316487D01*
X123035413Y-116367675D01*
X122673084Y-115490771D01*
X122002758Y-114819274D01*
X121126487Y-114455415D01*
X120177675Y-114454587D01*
X119300771Y-114816916D01*
X118820000Y-115296849D01*
X118820000Y-95544089D01*
X124244743Y-95544089D01*
X124470344Y-96090086D01*
X124887717Y-96508188D01*
X125433319Y-96734742D01*
X126024089Y-96735257D01*
X126570086Y-96509656D01*
X126988188Y-96092283D01*
X127007951Y-96044688D01*
X127226042Y-96114353D01*
X128090395Y-95250000D01*
X128076253Y-95235858D01*
X128255858Y-95056253D01*
X128270000Y-95070395D01*
X128284143Y-95056253D01*
X128463748Y-95235858D01*
X128449605Y-95250000D01*
X128463748Y-95264143D01*
X128284143Y-95443748D01*
X128270000Y-95429605D01*
X127405647Y-96293958D01*
X127485920Y-96545259D01*
X128041279Y-96746718D01*
X128631458Y-96720315D01*
X128803657Y-96648988D01*
X128836004Y-96811605D01*
X128980595Y-97028000D01*
X129001185Y-97058815D01*
X129832013Y-97889644D01*
X129831931Y-97983663D01*
X129980493Y-98343212D01*
X130255341Y-98618540D01*
X130614630Y-98767730D01*
X131003663Y-98768069D01*
X131363212Y-98619507D01*
X131638540Y-98344659D01*
X131787730Y-97985370D01*
X131788069Y-97596337D01*
X131639507Y-97236788D01*
X131364659Y-96961460D01*
X131005370Y-96812270D01*
X130909817Y-96812187D01*
X130832651Y-96735020D01*
X131104089Y-96735257D01*
X131184430Y-96702061D01*
X132811184Y-98328815D01*
X132958787Y-98427440D01*
X133058395Y-98493996D01*
X133350000Y-98552000D01*
X135890000Y-98552000D01*
X136181605Y-98493996D01*
X136361213Y-98373985D01*
X136605341Y-98618540D01*
X136964630Y-98767730D01*
X137353663Y-98768069D01*
X137713212Y-98619507D01*
X137752560Y-98580228D01*
X137752560Y-99280000D01*
X137796838Y-99515317D01*
X137804342Y-99526979D01*
X137803569Y-99528110D01*
X137752560Y-99780000D01*
X137752560Y-100780000D01*
X137796838Y-101015317D01*
X137804342Y-101026979D01*
X137803569Y-101028110D01*
X137752560Y-101280000D01*
X137752560Y-102280000D01*
X137796838Y-102515317D01*
X137804342Y-102526979D01*
X137803569Y-102528110D01*
X137752560Y-102780000D01*
X137752560Y-103780000D01*
X137796838Y-104015317D01*
X137804342Y-104026979D01*
X137803569Y-104028110D01*
X137752560Y-104280000D01*
X137752560Y-105280000D01*
X137796838Y-105515317D01*
X137804342Y-105526979D01*
X137803569Y-105528110D01*
X137752560Y-105780000D01*
X137752560Y-106780000D01*
X137796838Y-107015317D01*
X137804342Y-107026979D01*
X137803569Y-107028110D01*
X137752560Y-107280000D01*
X137752560Y-108280000D01*
X137796838Y-108515317D01*
X137804342Y-108526979D01*
X137803569Y-108528110D01*
X137752560Y-108780000D01*
X137752560Y-109780000D01*
X137796838Y-110015317D01*
X137804342Y-110026979D01*
X137803569Y-110028110D01*
X137752560Y-110280000D01*
X137752560Y-111280000D01*
X137796838Y-111515317D01*
X137804342Y-111526979D01*
X137803569Y-111528110D01*
X137752560Y-111780000D01*
X137752560Y-112780000D01*
X137796838Y-113015317D01*
X137935910Y-113231441D01*
X138148110Y-113376431D01*
X138400000Y-113427440D01*
X140400000Y-113427440D01*
X140635317Y-113383162D01*
X140851441Y-113244090D01*
X140996431Y-113031890D01*
X141047440Y-112780000D01*
X141047440Y-111780000D01*
X141003162Y-111544683D01*
X140995658Y-111533021D01*
X140996431Y-111531890D01*
X141047440Y-111280000D01*
X141047440Y-110280000D01*
X141003162Y-110044683D01*
X140995658Y-110033021D01*
X140996431Y-110031890D01*
X141047440Y-109780000D01*
X141047440Y-108780000D01*
X141003162Y-108544683D01*
X140995658Y-108533021D01*
X140996431Y-108531890D01*
X141047440Y-108280000D01*
X141047440Y-107280000D01*
X141003162Y-107044683D01*
X140995658Y-107033021D01*
X140996431Y-107031890D01*
X141047440Y-106780000D01*
X141047440Y-105780000D01*
X141003162Y-105544683D01*
X140995658Y-105533021D01*
X140996431Y-105531890D01*
X141047440Y-105280000D01*
X141047440Y-104280000D01*
X141003162Y-104044683D01*
X140995658Y-104033021D01*
X140996431Y-104031890D01*
X141047440Y-103780000D01*
X141047440Y-102780000D01*
X141003162Y-102544683D01*
X140995658Y-102533021D01*
X140996431Y-102531890D01*
X141047440Y-102280000D01*
X141047440Y-101280000D01*
X141003162Y-101044683D01*
X140995658Y-101033021D01*
X140996431Y-101031890D01*
X141047440Y-100780000D01*
X141047440Y-99780000D01*
X141003162Y-99544683D01*
X140995658Y-99533021D01*
X140996431Y-99531890D01*
X141047440Y-99280000D01*
X141047440Y-98280000D01*
X141003162Y-98044683D01*
X140995658Y-98033021D01*
X140996431Y-98031890D01*
X141047440Y-97780000D01*
X141047440Y-96780000D01*
X141003162Y-96544683D01*
X140995658Y-96533021D01*
X140996431Y-96531890D01*
X141047440Y-96280000D01*
X141047440Y-95280000D01*
X141003162Y-95044683D01*
X141001436Y-95042000D01*
X150811264Y-95042000D01*
X150765000Y-95153690D01*
X150765000Y-95494250D01*
X150923750Y-95653000D01*
X152273000Y-95653000D01*
X152273000Y-95633000D01*
X152527000Y-95633000D01*
X152527000Y-95653000D01*
X153876250Y-95653000D01*
X154035000Y-95494250D01*
X154035000Y-95153690D01*
X153989033Y-95042717D01*
X153996431Y-95031890D01*
X154047440Y-94780000D01*
X154047440Y-94274089D01*
X154724743Y-94274089D01*
X154950344Y-94820086D01*
X155367717Y-95238188D01*
X155395557Y-95249748D01*
X155369914Y-95260344D01*
X154951812Y-95677717D01*
X154725258Y-96223319D01*
X154724743Y-96814089D01*
X154950344Y-97360086D01*
X155367717Y-97778188D01*
X155913319Y-98004742D01*
X156504089Y-98005257D01*
X157050086Y-97779656D01*
X157468188Y-97362283D01*
X157479748Y-97334443D01*
X157490344Y-97360086D01*
X157907717Y-97778188D01*
X158453319Y-98004742D01*
X159044089Y-98005257D01*
X159590086Y-97779656D01*
X160008188Y-97362283D01*
X160019748Y-97334443D01*
X160030344Y-97360086D01*
X160447717Y-97778188D01*
X160993319Y-98004742D01*
X161584089Y-98005257D01*
X162130086Y-97779656D01*
X162548188Y-97362283D01*
X162559748Y-97334443D01*
X162570344Y-97360086D01*
X162987717Y-97778188D01*
X163533319Y-98004742D01*
X164124089Y-98005257D01*
X164670086Y-97779656D01*
X165088188Y-97362283D01*
X165099748Y-97334443D01*
X165110344Y-97360086D01*
X165527717Y-97778188D01*
X166073319Y-98004742D01*
X166664089Y-98005257D01*
X167210086Y-97779656D01*
X167426160Y-97563958D01*
X175665647Y-97563958D01*
X175745920Y-97815259D01*
X176301279Y-98016718D01*
X176891458Y-97990315D01*
X177314080Y-97815259D01*
X177394353Y-97563958D01*
X176530000Y-96699605D01*
X175665647Y-97563958D01*
X167426160Y-97563958D01*
X167628188Y-97362283D01*
X167854742Y-96816681D01*
X167855200Y-96291279D01*
X175033282Y-96291279D01*
X175059685Y-96881458D01*
X175234741Y-97304080D01*
X175486042Y-97384353D01*
X176350395Y-96520000D01*
X175486042Y-95655647D01*
X175234741Y-95735920D01*
X175033282Y-96291279D01*
X167855200Y-96291279D01*
X167855257Y-96225911D01*
X167629656Y-95679914D01*
X167212283Y-95261812D01*
X167164688Y-95242049D01*
X167234353Y-95023958D01*
X166370000Y-94159605D01*
X165505647Y-95023958D01*
X165575181Y-95241640D01*
X165529914Y-95260344D01*
X165111812Y-95677717D01*
X165100252Y-95705557D01*
X165089656Y-95679914D01*
X164672283Y-95261812D01*
X164644443Y-95250252D01*
X164670086Y-95239656D01*
X165088188Y-94822283D01*
X165107951Y-94774688D01*
X165326042Y-94844353D01*
X166190395Y-93980000D01*
X166549605Y-93980000D01*
X167413958Y-94844353D01*
X167665259Y-94764080D01*
X167866718Y-94208721D01*
X167840315Y-93618542D01*
X167665259Y-93195920D01*
X167413958Y-93115647D01*
X166549605Y-93980000D01*
X166190395Y-93980000D01*
X165326042Y-93115647D01*
X165108360Y-93185181D01*
X165089656Y-93139914D01*
X164886140Y-92936042D01*
X165505647Y-92936042D01*
X166370000Y-93800395D01*
X167234353Y-92936042D01*
X167154080Y-92684741D01*
X166598721Y-92483282D01*
X166008542Y-92509685D01*
X165585920Y-92684741D01*
X165505647Y-92936042D01*
X164886140Y-92936042D01*
X164672283Y-92721812D01*
X164126681Y-92495258D01*
X163535911Y-92494743D01*
X162989914Y-92720344D01*
X162571812Y-93137717D01*
X162560252Y-93165557D01*
X162549656Y-93139914D01*
X162132283Y-92721812D01*
X162052000Y-92688476D01*
X162052000Y-87986892D01*
X170008514Y-87986892D01*
X170254817Y-88511358D01*
X170683076Y-88901645D01*
X171093110Y-89071476D01*
X171323000Y-88950155D01*
X171323000Y-87757000D01*
X170129181Y-87757000D01*
X170008514Y-87986892D01*
X162052000Y-87986892D01*
X162052000Y-84441083D01*
X162118540Y-84374659D01*
X162267730Y-84015370D01*
X162268069Y-83626337D01*
X162119507Y-83266788D01*
X161844659Y-82991460D01*
X161485370Y-82842270D01*
X161096337Y-82841931D01*
X160736788Y-82990493D01*
X160461460Y-83265341D01*
X160312270Y-83624630D01*
X160311931Y-84013663D01*
X160381111Y-84181092D01*
X160215370Y-84112270D01*
X159826337Y-84111931D01*
X159466788Y-84260493D01*
X159191460Y-84535341D01*
X159042270Y-84894630D01*
X159041931Y-85283663D01*
X159190493Y-85643212D01*
X159258000Y-85710837D01*
X159258000Y-92583005D01*
X159046681Y-92495258D01*
X158455911Y-92494743D01*
X157909914Y-92720344D01*
X157491812Y-93137717D01*
X157480252Y-93165557D01*
X157469656Y-93139914D01*
X157052283Y-92721812D01*
X156972000Y-92688476D01*
X156972000Y-86981083D01*
X157038540Y-86914659D01*
X157187730Y-86555370D01*
X157188069Y-86166337D01*
X157039507Y-85806788D01*
X156764659Y-85531460D01*
X156405370Y-85382270D01*
X156016337Y-85381931D01*
X155656788Y-85530493D01*
X155381460Y-85805341D01*
X155232270Y-86164630D01*
X155231931Y-86553663D01*
X155380493Y-86913212D01*
X155448000Y-86980837D01*
X155448000Y-92688080D01*
X155369914Y-92720344D01*
X154951812Y-93137717D01*
X154725258Y-93683319D01*
X154724743Y-94274089D01*
X154047440Y-94274089D01*
X154047440Y-93780000D01*
X154003162Y-93544683D01*
X153864090Y-93328559D01*
X153651890Y-93183569D01*
X153400000Y-93132560D01*
X152630191Y-93132560D01*
X152247440Y-92749810D01*
X152247440Y-91480000D01*
X152203162Y-91244683D01*
X152064090Y-91028559D01*
X151851890Y-90883569D01*
X151600000Y-90832560D01*
X150600000Y-90832560D01*
X150575910Y-90837093D01*
X150688540Y-90724659D01*
X150837730Y-90365370D01*
X150838069Y-89976337D01*
X150689507Y-89616788D01*
X150622000Y-89549163D01*
X150622000Y-84441083D01*
X150688540Y-84374659D01*
X150837730Y-84015370D01*
X150838069Y-83626337D01*
X150689507Y-83266788D01*
X150414659Y-82991460D01*
X150055370Y-82842270D01*
X149666337Y-82841931D01*
X149306788Y-82990493D01*
X149031460Y-83265341D01*
X148882270Y-83624630D01*
X148881931Y-84013663D01*
X149030493Y-84373212D01*
X149098000Y-84440837D01*
X149098000Y-89548917D01*
X149031460Y-89615341D01*
X148882270Y-89974630D01*
X148881931Y-90363663D01*
X149030493Y-90723212D01*
X149139650Y-90832560D01*
X149100000Y-90832560D01*
X148864683Y-90876838D01*
X148853021Y-90884342D01*
X148851890Y-90883569D01*
X148600000Y-90832560D01*
X148040451Y-90832560D01*
X148148540Y-90724659D01*
X148297730Y-90365370D01*
X148298069Y-89976337D01*
X148149507Y-89616788D01*
X148082000Y-89549163D01*
X148082000Y-85711083D01*
X148148540Y-85644659D01*
X148297730Y-85285370D01*
X148298069Y-84896337D01*
X148149507Y-84536788D01*
X147874659Y-84261460D01*
X147515370Y-84112270D01*
X147126337Y-84111931D01*
X146766788Y-84260493D01*
X146491460Y-84535341D01*
X146342270Y-84894630D01*
X146341931Y-85283663D01*
X146490493Y-85643212D01*
X146558000Y-85710837D01*
X146558000Y-89548917D01*
X146491460Y-89615341D01*
X146342270Y-89974630D01*
X146341931Y-90363663D01*
X146490493Y-90723212D01*
X146599650Y-90832560D01*
X146100000Y-90832560D01*
X145864683Y-90876838D01*
X145853021Y-90884342D01*
X145851890Y-90883569D01*
X145600000Y-90832560D01*
X144600000Y-90832560D01*
X144364683Y-90876838D01*
X144353021Y-90884342D01*
X144351890Y-90883569D01*
X144100000Y-90832560D01*
X143100000Y-90832560D01*
X142864683Y-90876838D01*
X142853021Y-90884342D01*
X142851890Y-90883569D01*
X142600000Y-90832560D01*
X141600000Y-90832560D01*
X141364683Y-90876838D01*
X141353021Y-90884342D01*
X141351890Y-90883569D01*
X141100000Y-90832560D01*
X140100000Y-90832560D01*
X139864683Y-90876838D01*
X139648559Y-91015910D01*
X139503569Y-91228110D01*
X139452560Y-91480000D01*
X139452560Y-91900175D01*
X139391184Y-91941185D01*
X138861185Y-92471185D01*
X138696004Y-92718395D01*
X138638000Y-93010000D01*
X138638000Y-93132560D01*
X138400000Y-93132560D01*
X138164683Y-93176838D01*
X137948559Y-93315910D01*
X137803569Y-93528110D01*
X137786903Y-93610410D01*
X137591184Y-93741185D01*
X135351186Y-95981184D01*
X135351185Y-95981185D01*
X135186004Y-96228395D01*
X135128000Y-96520000D01*
X135128000Y-97028000D01*
X133665631Y-97028000D01*
X133372651Y-96735020D01*
X133644089Y-96735257D01*
X134190086Y-96509656D01*
X134608188Y-96092283D01*
X134834742Y-95546681D01*
X134835257Y-94955911D01*
X134609656Y-94409914D01*
X134192283Y-93991812D01*
X133646681Y-93765258D01*
X133055911Y-93764743D01*
X132509914Y-93990344D01*
X132091812Y-94407717D01*
X132080252Y-94435557D01*
X132069656Y-94409914D01*
X131652283Y-93991812D01*
X131106681Y-93765258D01*
X130515911Y-93764743D01*
X130302000Y-93853129D01*
X130302000Y-90455750D01*
X130595000Y-90455750D01*
X130595000Y-91146310D01*
X130691673Y-91379699D01*
X130870302Y-91558327D01*
X131103691Y-91655000D01*
X131794250Y-91655000D01*
X131953000Y-91496250D01*
X131953000Y-90297000D01*
X130753750Y-90297000D01*
X130595000Y-90455750D01*
X130302000Y-90455750D01*
X130302000Y-89193690D01*
X130595000Y-89193690D01*
X130595000Y-89884250D01*
X130753750Y-90043000D01*
X131953000Y-90043000D01*
X131953000Y-88843750D01*
X132207000Y-88843750D01*
X132207000Y-90043000D01*
X132227000Y-90043000D01*
X132227000Y-90297000D01*
X132207000Y-90297000D01*
X132207000Y-91496250D01*
X132365750Y-91655000D01*
X133056309Y-91655000D01*
X133289698Y-91558327D01*
X133468327Y-91379699D01*
X133533132Y-91223246D01*
X133737717Y-91428188D01*
X134283319Y-91654742D01*
X134874089Y-91655257D01*
X135420086Y-91429656D01*
X135838188Y-91012283D01*
X136064742Y-90466681D01*
X136065257Y-89875911D01*
X135839656Y-89329914D01*
X135422283Y-88911812D01*
X134876681Y-88685258D01*
X134285911Y-88684743D01*
X133739914Y-88910344D01*
X133533135Y-89116762D01*
X133468327Y-88960301D01*
X133289698Y-88781673D01*
X133056309Y-88685000D01*
X132365750Y-88685000D01*
X132207000Y-88843750D01*
X131953000Y-88843750D01*
X131794250Y-88685000D01*
X131103691Y-88685000D01*
X130870302Y-88781673D01*
X130691673Y-88960301D01*
X130595000Y-89193690D01*
X130302000Y-89193690D01*
X130302000Y-81280000D01*
X130243996Y-80988395D01*
X130104539Y-80779683D01*
X130078815Y-80741184D01*
X129347631Y-80010000D01*
X131835907Y-80010000D01*
X131948946Y-80578285D01*
X132270853Y-81060054D01*
X132600026Y-81280000D01*
X132270853Y-81499946D01*
X131948946Y-81981715D01*
X131835907Y-82550000D01*
X131948946Y-83118285D01*
X132270853Y-83600054D01*
X132752622Y-83921961D01*
X133320907Y-84035000D01*
X133379093Y-84035000D01*
X133947378Y-83921961D01*
X134429147Y-83600054D01*
X134751054Y-83118285D01*
X134864093Y-82550000D01*
X134751054Y-81981715D01*
X134429147Y-81499946D01*
X134099974Y-81280000D01*
X134429147Y-81060054D01*
X134621618Y-80772000D01*
X135574370Y-80772000D01*
X136398000Y-81595631D01*
X136398000Y-92394369D01*
X135790357Y-93002013D01*
X135696337Y-93001931D01*
X135336788Y-93150493D01*
X135061460Y-93425341D01*
X134912270Y-93784630D01*
X134911931Y-94173663D01*
X135060493Y-94533212D01*
X135335341Y-94808540D01*
X135694630Y-94957730D01*
X136083663Y-94958069D01*
X136443212Y-94809507D01*
X136718540Y-94534659D01*
X136867730Y-94175370D01*
X136867813Y-94079817D01*
X137698815Y-93248816D01*
X137863996Y-93001605D01*
X137869963Y-92971605D01*
X137922000Y-92710000D01*
X137922000Y-81280000D01*
X137863996Y-80988395D01*
X137724539Y-80779683D01*
X137698815Y-80741184D01*
X136428815Y-79471185D01*
X136181605Y-79306004D01*
X135890000Y-79248000D01*
X134621618Y-79248000D01*
X134429147Y-78959946D01*
X134387548Y-78932150D01*
X134435317Y-78923162D01*
X134651441Y-78784090D01*
X134796431Y-78571890D01*
X134847440Y-78320000D01*
X134847440Y-76620000D01*
X134803162Y-76384683D01*
X134664090Y-76168559D01*
X134451890Y-76023569D01*
X134200000Y-75972560D01*
X132500000Y-75972560D01*
X132264683Y-76016838D01*
X132048559Y-76155910D01*
X131903569Y-76368110D01*
X131852560Y-76620000D01*
X131852560Y-78320000D01*
X131896838Y-78555317D01*
X132035910Y-78771441D01*
X132248110Y-78916431D01*
X132315541Y-78930086D01*
X132270853Y-78959946D01*
X131948946Y-79441715D01*
X131835907Y-80010000D01*
X129347631Y-80010000D01*
X128808815Y-79471185D01*
X128561605Y-79306004D01*
X128270000Y-79248000D01*
X128261964Y-79248000D01*
X128050054Y-78930853D01*
X127568285Y-78608946D01*
X127000000Y-78495907D01*
X126431715Y-78608946D01*
X125949946Y-78930853D01*
X125628039Y-79412622D01*
X125515000Y-79980907D01*
X125515000Y-80039093D01*
X125628039Y-80607378D01*
X125949946Y-81089147D01*
X126431715Y-81411054D01*
X127000000Y-81524093D01*
X127568285Y-81411054D01*
X128050054Y-81089147D01*
X128138759Y-80956390D01*
X128778000Y-81595631D01*
X128778000Y-93854592D01*
X128498721Y-93753282D01*
X128036106Y-93773978D01*
X128258188Y-93552283D01*
X128484742Y-93006681D01*
X128485257Y-92415911D01*
X128259656Y-91869914D01*
X127842283Y-91451812D01*
X127296681Y-91225258D01*
X126705911Y-91224743D01*
X126159914Y-91450344D01*
X125741812Y-91867717D01*
X125515258Y-92413319D01*
X125514743Y-93004089D01*
X125740344Y-93550086D01*
X125955079Y-93765196D01*
X125435911Y-93764743D01*
X124889914Y-93990344D01*
X124471812Y-94407717D01*
X124245258Y-94953319D01*
X124244743Y-95544089D01*
X118820000Y-95544089D01*
X118820000Y-88000000D01*
X119737560Y-88000000D01*
X119737560Y-89800000D01*
X119781838Y-90035317D01*
X119920910Y-90251441D01*
X120133110Y-90396431D01*
X120153534Y-90400567D01*
X119984449Y-90569357D01*
X119750267Y-91133330D01*
X119749735Y-91743991D01*
X119982932Y-92308371D01*
X120414357Y-92740551D01*
X120978330Y-92974733D01*
X121588991Y-92975265D01*
X122153371Y-92742068D01*
X122585551Y-92310643D01*
X122819733Y-91746670D01*
X122820265Y-91136009D01*
X122587068Y-90571629D01*
X122419120Y-90403387D01*
X122420317Y-90403162D01*
X122636441Y-90264090D01*
X122781431Y-90051890D01*
X122832440Y-89800000D01*
X122832440Y-88000000D01*
X122788162Y-87764683D01*
X122649090Y-87548559D01*
X122436890Y-87403569D01*
X122185000Y-87352560D01*
X120385000Y-87352560D01*
X120149683Y-87396838D01*
X119933559Y-87535910D01*
X119788569Y-87748110D01*
X119737560Y-88000000D01*
X118820000Y-88000000D01*
X118820000Y-81015000D01*
X119737560Y-81015000D01*
X119737560Y-82815000D01*
X119781838Y-83050317D01*
X119920910Y-83266441D01*
X120133110Y-83411431D01*
X120153534Y-83415567D01*
X119984449Y-83584357D01*
X119750267Y-84148330D01*
X119749735Y-84758991D01*
X119982932Y-85323371D01*
X120414357Y-85755551D01*
X120978330Y-85989733D01*
X121588991Y-85990265D01*
X122153371Y-85757068D01*
X122527002Y-85384089D01*
X125514743Y-85384089D01*
X125740344Y-85930086D01*
X126157717Y-86348188D01*
X126216639Y-86372655D01*
X125949946Y-86550853D01*
X125628039Y-87032622D01*
X125515000Y-87600907D01*
X125515000Y-87659093D01*
X125628039Y-88227378D01*
X125949946Y-88709147D01*
X126431715Y-89031054D01*
X127000000Y-89144093D01*
X127568285Y-89031054D01*
X128050054Y-88709147D01*
X128371961Y-88227378D01*
X128485000Y-87659093D01*
X128485000Y-87600907D01*
X128371961Y-87032622D01*
X128050054Y-86550853D01*
X127783767Y-86372926D01*
X127840086Y-86349656D01*
X128258188Y-85932283D01*
X128484742Y-85386681D01*
X128485257Y-84795911D01*
X128259656Y-84249914D01*
X127842283Y-83831812D01*
X127296681Y-83605258D01*
X126705911Y-83604743D01*
X126159914Y-83830344D01*
X125741812Y-84247717D01*
X125515258Y-84793319D01*
X125514743Y-85384089D01*
X122527002Y-85384089D01*
X122585551Y-85325643D01*
X122819733Y-84761670D01*
X122820265Y-84151009D01*
X122587068Y-83586629D01*
X122419120Y-83418387D01*
X122420317Y-83418162D01*
X122636441Y-83279090D01*
X122781431Y-83066890D01*
X122832440Y-82815000D01*
X122832440Y-81015000D01*
X122788162Y-80779683D01*
X122649090Y-80563559D01*
X122436890Y-80418569D01*
X122185000Y-80367560D01*
X120385000Y-80367560D01*
X120149683Y-80411838D01*
X119933559Y-80550910D01*
X119788569Y-80763110D01*
X119737560Y-81015000D01*
X118820000Y-81015000D01*
X118820000Y-77742650D01*
X119297242Y-78220726D01*
X120173513Y-78584585D01*
X121122325Y-78585413D01*
X121999229Y-78223084D01*
X122670726Y-77552758D01*
X123034585Y-76676487D01*
X123035413Y-75727675D01*
X122673084Y-74850771D01*
X122193151Y-74370000D01*
X137720000Y-74370000D01*
X137720000Y-78740000D01*
X137720000Y-78740000D01*
G37*
X137720000Y-78740000D02*
X137774046Y-79011705D01*
X137927954Y-79242046D01*
X138158295Y-79395954D01*
X138430000Y-79450000D01*
X152400000Y-79450000D01*
X152671705Y-79395954D01*
X152902046Y-79242046D01*
X153055954Y-79011705D01*
X153110000Y-78740000D01*
X153110000Y-74370000D01*
X153402143Y-74370000D01*
X153402143Y-76915000D01*
X184023000Y-76915000D01*
X184023000Y-87630000D01*
X184033006Y-87679410D01*
X184061447Y-87721035D01*
X184103841Y-87748315D01*
X184150000Y-87757000D01*
X185293000Y-87757000D01*
X185293000Y-91440000D01*
X185303006Y-91489410D01*
X185331447Y-91531035D01*
X185373841Y-91558315D01*
X185420000Y-91567000D01*
X187907394Y-91567000D01*
X189140197Y-92799803D01*
X189182211Y-92827666D01*
X189230000Y-92837000D01*
X197410000Y-92837000D01*
X197410000Y-100203000D01*
X187960000Y-100203000D01*
X187910590Y-100213006D01*
X187868965Y-100241447D01*
X187841685Y-100283841D01*
X187833000Y-100330000D01*
X187833000Y-102817394D01*
X186397802Y-104252592D01*
X186397813Y-104239817D01*
X187228815Y-103408816D01*
X187393996Y-103161605D01*
X187406759Y-103097440D01*
X187452000Y-102870000D01*
X187452000Y-99060000D01*
X187393996Y-98768395D01*
X187293866Y-98618540D01*
X187228815Y-98521184D01*
X186712651Y-98005020D01*
X186984089Y-98005257D01*
X187530086Y-97779656D01*
X187948188Y-97362283D01*
X188174742Y-96816681D01*
X188175257Y-96225911D01*
X187949656Y-95679914D01*
X187532283Y-95261812D01*
X187504443Y-95250252D01*
X187530086Y-95239656D01*
X187948188Y-94822283D01*
X188174742Y-94276681D01*
X188175257Y-93685911D01*
X187949656Y-93139914D01*
X187532283Y-92721812D01*
X186986681Y-92495258D01*
X186395911Y-92494743D01*
X185849914Y-92720344D01*
X185431812Y-93137717D01*
X185420252Y-93165557D01*
X185409656Y-93139914D01*
X184992283Y-92721812D01*
X184446681Y-92495258D01*
X183855911Y-92494743D01*
X183775570Y-92527939D01*
X181102000Y-89854370D01*
X181102000Y-89043045D01*
X181610000Y-89144093D01*
X182178285Y-89031054D01*
X182660054Y-88709147D01*
X182981961Y-88227378D01*
X183095000Y-87659093D01*
X183095000Y-87600907D01*
X182981961Y-87032622D01*
X182660054Y-86550853D01*
X182374422Y-86360000D01*
X182660054Y-86169147D01*
X182981961Y-85687378D01*
X183095000Y-85119093D01*
X183095000Y-85060907D01*
X182981961Y-84492622D01*
X182660054Y-84010853D01*
X182178285Y-83688946D01*
X181610000Y-83575907D01*
X181041715Y-83688946D01*
X180559946Y-84010853D01*
X180340000Y-84340026D01*
X180120054Y-84010853D01*
X179638285Y-83688946D01*
X179070000Y-83575907D01*
X178501715Y-83688946D01*
X178019946Y-84010853D01*
X177800000Y-84340026D01*
X177580054Y-84010853D01*
X177098285Y-83688946D01*
X176530000Y-83575907D01*
X175961715Y-83688946D01*
X175479946Y-84010853D01*
X175260000Y-84340026D01*
X175040054Y-84010853D01*
X174558285Y-83688946D01*
X173990000Y-83575907D01*
X173421715Y-83688946D01*
X172939946Y-84010853D01*
X172912150Y-84052452D01*
X172903162Y-84004683D01*
X172764090Y-83788559D01*
X172551890Y-83643569D01*
X172300000Y-83592560D01*
X170600000Y-83592560D01*
X170364683Y-83636838D01*
X170148559Y-83775910D01*
X170003569Y-83988110D01*
X169952560Y-84240000D01*
X169952560Y-85940000D01*
X169996838Y-86175317D01*
X170135910Y-86391441D01*
X170348110Y-86536431D01*
X170462301Y-86559555D01*
X170254817Y-86748642D01*
X170008514Y-87273108D01*
X170129181Y-87503000D01*
X171323000Y-87503000D01*
X171323000Y-87483000D01*
X171577000Y-87483000D01*
X171577000Y-87503000D01*
X171597000Y-87503000D01*
X171597000Y-87757000D01*
X171577000Y-87757000D01*
X171577000Y-88950155D01*
X171806890Y-89071476D01*
X172216924Y-88901645D01*
X172645183Y-88511358D01*
X172712298Y-88368447D01*
X172939946Y-88709147D01*
X173228371Y-88901866D01*
X173286004Y-89191605D01*
X173430596Y-89408001D01*
X173451185Y-89438815D01*
X176494929Y-92482560D01*
X175768000Y-92482560D01*
X175532683Y-92526838D01*
X175316559Y-92665910D01*
X175171569Y-92878110D01*
X175120560Y-93130000D01*
X175120560Y-94830000D01*
X175164838Y-95065317D01*
X175303910Y-95281441D01*
X175516110Y-95426431D01*
X175671446Y-95457887D01*
X175665647Y-95476042D01*
X176530000Y-96340395D01*
X176544143Y-96326253D01*
X176723748Y-96505858D01*
X176709605Y-96520000D01*
X177573958Y-97384353D01*
X177791640Y-97314819D01*
X177810344Y-97360086D01*
X178227717Y-97778188D01*
X178773319Y-98004742D01*
X179364089Y-98005257D01*
X179910086Y-97779656D01*
X180328188Y-97362283D01*
X180339748Y-97334443D01*
X180350344Y-97360086D01*
X180767717Y-97778188D01*
X180848000Y-97811524D01*
X180848000Y-98744369D01*
X179444711Y-100147659D01*
X179366681Y-100115258D01*
X178775911Y-100114743D01*
X178562000Y-100203129D01*
X178562000Y-99681083D01*
X178628540Y-99614659D01*
X178777730Y-99255370D01*
X178778069Y-98866337D01*
X178629507Y-98506788D01*
X178354659Y-98231460D01*
X177995370Y-98082270D01*
X177606337Y-98081931D01*
X177246788Y-98230493D01*
X176971460Y-98505341D01*
X176822270Y-98864630D01*
X176821931Y-99253663D01*
X176970493Y-99613212D01*
X177038000Y-99680837D01*
X177038000Y-100203005D01*
X176826681Y-100115258D01*
X176235911Y-100114743D01*
X175689914Y-100340344D01*
X175271812Y-100757717D01*
X175260252Y-100785557D01*
X175249656Y-100759914D01*
X174832283Y-100341812D01*
X174286681Y-100115258D01*
X173695911Y-100114743D01*
X173149914Y-100340344D01*
X172731812Y-100757717D01*
X172720252Y-100785557D01*
X172709656Y-100759914D01*
X172292283Y-100341812D01*
X171746681Y-100115258D01*
X171155911Y-100114743D01*
X170609914Y-100340344D01*
X170191812Y-100757717D01*
X170180252Y-100785557D01*
X170169656Y-100759914D01*
X169752283Y-100341812D01*
X169206681Y-100115258D01*
X168615911Y-100114743D01*
X168069914Y-100340344D01*
X167651812Y-100757717D01*
X167640252Y-100785557D01*
X167629656Y-100759914D01*
X167212283Y-100341812D01*
X166666681Y-100115258D01*
X166075911Y-100114743D01*
X165529914Y-100340344D01*
X165111812Y-100757717D01*
X165100252Y-100785557D01*
X165089656Y-100759914D01*
X164672283Y-100341812D01*
X164126681Y-100115258D01*
X163535911Y-100114743D01*
X162989914Y-100340344D01*
X162571812Y-100757717D01*
X162560252Y-100785557D01*
X162549656Y-100759914D01*
X162132283Y-100341812D01*
X161586681Y-100115258D01*
X160995911Y-100114743D01*
X160449914Y-100340344D01*
X160031812Y-100757717D01*
X160020252Y-100785557D01*
X160009656Y-100759914D01*
X159592283Y-100341812D01*
X159046681Y-100115258D01*
X158455911Y-100114743D01*
X157909914Y-100340344D01*
X157491812Y-100757717D01*
X157480252Y-100785557D01*
X157469656Y-100759914D01*
X157052283Y-100341812D01*
X156506681Y-100115258D01*
X155915911Y-100114743D01*
X155369914Y-100340344D01*
X154951812Y-100757717D01*
X154725258Y-101303319D01*
X154725019Y-101577389D01*
X154388815Y-101241185D01*
X154374232Y-101231441D01*
X154141605Y-101076004D01*
X154003901Y-101048613D01*
X154003162Y-101044683D01*
X153995658Y-101033021D01*
X153996431Y-101031890D01*
X154047440Y-100780000D01*
X154047440Y-99780000D01*
X154003162Y-99544683D01*
X153995658Y-99533021D01*
X153996431Y-99531890D01*
X154022895Y-99401207D01*
X154110493Y-99613212D01*
X154385341Y-99888540D01*
X154744630Y-100037730D01*
X155133663Y-100038069D01*
X155493212Y-99889507D01*
X155768540Y-99614659D01*
X155917730Y-99255370D01*
X155918069Y-98866337D01*
X155769507Y-98506788D01*
X155494659Y-98231460D01*
X155135370Y-98082270D01*
X155039817Y-98082187D01*
X154047440Y-97089810D01*
X154047440Y-96780000D01*
X154003162Y-96544683D01*
X153987662Y-96520595D01*
X154035000Y-96406310D01*
X154035000Y-96065750D01*
X153876250Y-95907000D01*
X152527000Y-95907000D01*
X152527000Y-95927000D01*
X152273000Y-95927000D01*
X152273000Y-95907000D01*
X150923750Y-95907000D01*
X150765000Y-96065750D01*
X150765000Y-96149496D01*
X150689507Y-95966788D01*
X150414659Y-95691460D01*
X150055370Y-95542270D01*
X149666337Y-95541931D01*
X149306788Y-95690493D01*
X149031460Y-95965341D01*
X148882270Y-96324630D01*
X148881931Y-96713663D01*
X149030493Y-97073212D01*
X149098000Y-97140837D01*
X149098000Y-109220000D01*
X149156004Y-109511605D01*
X149236824Y-109632560D01*
X149321185Y-109758815D01*
X150752560Y-111190190D01*
X150752560Y-111280000D01*
X150796838Y-111515317D01*
X150798564Y-111518000D01*
X150695631Y-111518000D01*
X148082000Y-108904370D01*
X148082000Y-97141083D01*
X148148540Y-97074659D01*
X148297730Y-96715370D01*
X148298069Y-96326337D01*
X148149507Y-95966788D01*
X147874659Y-95691460D01*
X147515370Y-95542270D01*
X147126337Y-95541931D01*
X146766788Y-95690493D01*
X146491460Y-95965341D01*
X146342270Y-96324630D01*
X146341931Y-96713663D01*
X146490493Y-97073212D01*
X146558000Y-97140837D01*
X146558000Y-109220000D01*
X146616004Y-109511605D01*
X146696824Y-109632560D01*
X146781185Y-109758815D01*
X148655369Y-111633000D01*
X142240000Y-111633000D01*
X142190590Y-111643006D01*
X142148965Y-111671447D01*
X142121685Y-111713841D01*
X142113000Y-111760000D01*
X142113000Y-112977394D01*
X140917394Y-114173000D01*
X138430000Y-114173000D01*
X138380590Y-114183006D01*
X138338965Y-114211447D01*
X138311685Y-114253841D01*
X138303000Y-114300000D01*
X138303000Y-118670000D01*
X132185402Y-118670000D01*
X132294742Y-118406681D01*
X132295257Y-117815911D01*
X132069656Y-117269914D01*
X131652283Y-116851812D01*
X131106681Y-116625258D01*
X130515911Y-116624743D01*
X129969914Y-116850344D01*
X129551812Y-117267717D01*
X129540252Y-117295557D01*
X129529656Y-117269914D01*
X129112283Y-116851812D01*
X128566681Y-116625258D01*
X127975911Y-116624743D01*
X127429914Y-116850344D01*
X127011812Y-117267717D01*
X126785258Y-117813319D01*
X126784743Y-118404089D01*
X126894615Y-118670000D01*
X122192650Y-118670000D01*
X122670726Y-118192758D01*
X123034585Y-117316487D01*
X123035413Y-116367675D01*
X122673084Y-115490771D01*
X122002758Y-114819274D01*
X121126487Y-114455415D01*
X120177675Y-114454587D01*
X119300771Y-114816916D01*
X118820000Y-115296849D01*
X118820000Y-95544089D01*
X124244743Y-95544089D01*
X124470344Y-96090086D01*
X124887717Y-96508188D01*
X125433319Y-96734742D01*
X126024089Y-96735257D01*
X126570086Y-96509656D01*
X126988188Y-96092283D01*
X127007951Y-96044688D01*
X127226042Y-96114353D01*
X128090395Y-95250000D01*
X128076253Y-95235858D01*
X128255858Y-95056253D01*
X128270000Y-95070395D01*
X128284143Y-95056253D01*
X128463748Y-95235858D01*
X128449605Y-95250000D01*
X128463748Y-95264143D01*
X128284143Y-95443748D01*
X128270000Y-95429605D01*
X127405647Y-96293958D01*
X127485920Y-96545259D01*
X128041279Y-96746718D01*
X128631458Y-96720315D01*
X128803657Y-96648988D01*
X128836004Y-96811605D01*
X128980595Y-97028000D01*
X129001185Y-97058815D01*
X129832013Y-97889644D01*
X129831931Y-97983663D01*
X129980493Y-98343212D01*
X130255341Y-98618540D01*
X130614630Y-98767730D01*
X131003663Y-98768069D01*
X131363212Y-98619507D01*
X131638540Y-98344659D01*
X131787730Y-97985370D01*
X131788069Y-97596337D01*
X131639507Y-97236788D01*
X131364659Y-96961460D01*
X131005370Y-96812270D01*
X130909817Y-96812187D01*
X130832651Y-96735020D01*
X131104089Y-96735257D01*
X131184430Y-96702061D01*
X132811184Y-98328815D01*
X132958787Y-98427440D01*
X133058395Y-98493996D01*
X133350000Y-98552000D01*
X135890000Y-98552000D01*
X136181605Y-98493996D01*
X136361213Y-98373985D01*
X136605341Y-98618540D01*
X136964630Y-98767730D01*
X137353663Y-98768069D01*
X137713212Y-98619507D01*
X137752560Y-98580228D01*
X137752560Y-99280000D01*
X137796838Y-99515317D01*
X137804342Y-99526979D01*
X137803569Y-99528110D01*
X137752560Y-99780000D01*
X137752560Y-100780000D01*
X137796838Y-101015317D01*
X137804342Y-101026979D01*
X137803569Y-101028110D01*
X137752560Y-101280000D01*
X137752560Y-102280000D01*
X137796838Y-102515317D01*
X137804342Y-102526979D01*
X137803569Y-102528110D01*
X137752560Y-102780000D01*
X137752560Y-103780000D01*
X137796838Y-104015317D01*
X137804342Y-104026979D01*
X137803569Y-104028110D01*
X137752560Y-104280000D01*
X137752560Y-105280000D01*
X137796838Y-105515317D01*
X137804342Y-105526979D01*
X137803569Y-105528110D01*
X137752560Y-105780000D01*
X137752560Y-106780000D01*
X137796838Y-107015317D01*
X137804342Y-107026979D01*
X137803569Y-107028110D01*
X137752560Y-107280000D01*
X137752560Y-108280000D01*
X137796838Y-108515317D01*
X137804342Y-108526979D01*
X137803569Y-108528110D01*
X137752560Y-108780000D01*
X137752560Y-109780000D01*
X137796838Y-110015317D01*
X137804342Y-110026979D01*
X137803569Y-110028110D01*
X137752560Y-110280000D01*
X137752560Y-111280000D01*
X137796838Y-111515317D01*
X137804342Y-111526979D01*
X137803569Y-111528110D01*
X137752560Y-111780000D01*
X137752560Y-112780000D01*
X137796838Y-113015317D01*
X137935910Y-113231441D01*
X138148110Y-113376431D01*
X138400000Y-113427440D01*
X140400000Y-113427440D01*
X140635317Y-113383162D01*
X140851441Y-113244090D01*
X140996431Y-113031890D01*
X141047440Y-112780000D01*
X141047440Y-111780000D01*
X141003162Y-111544683D01*
X140995658Y-111533021D01*
X140996431Y-111531890D01*
X141047440Y-111280000D01*
X141047440Y-110280000D01*
X141003162Y-110044683D01*
X140995658Y-110033021D01*
X140996431Y-110031890D01*
X141047440Y-109780000D01*
X141047440Y-108780000D01*
X141003162Y-108544683D01*
X140995658Y-108533021D01*
X140996431Y-108531890D01*
X141047440Y-108280000D01*
X141047440Y-107280000D01*
X141003162Y-107044683D01*
X140995658Y-107033021D01*
X140996431Y-107031890D01*
X141047440Y-106780000D01*
X141047440Y-105780000D01*
X141003162Y-105544683D01*
X140995658Y-105533021D01*
X140996431Y-105531890D01*
X141047440Y-105280000D01*
X141047440Y-104280000D01*
X141003162Y-104044683D01*
X140995658Y-104033021D01*
X140996431Y-104031890D01*
X141047440Y-103780000D01*
X141047440Y-102780000D01*
X141003162Y-102544683D01*
X140995658Y-102533021D01*
X140996431Y-102531890D01*
X141047440Y-102280000D01*
X141047440Y-101280000D01*
X141003162Y-101044683D01*
X140995658Y-101033021D01*
X140996431Y-101031890D01*
X141047440Y-100780000D01*
X141047440Y-99780000D01*
X141003162Y-99544683D01*
X140995658Y-99533021D01*
X140996431Y-99531890D01*
X141047440Y-99280000D01*
X141047440Y-98280000D01*
X141003162Y-98044683D01*
X140995658Y-98033021D01*
X140996431Y-98031890D01*
X141047440Y-97780000D01*
X141047440Y-96780000D01*
X141003162Y-96544683D01*
X140995658Y-96533021D01*
X140996431Y-96531890D01*
X141047440Y-96280000D01*
X141047440Y-95280000D01*
X141003162Y-95044683D01*
X141001436Y-95042000D01*
X150811264Y-95042000D01*
X150765000Y-95153690D01*
X150765000Y-95494250D01*
X150923750Y-95653000D01*
X152273000Y-95653000D01*
X152273000Y-95633000D01*
X152527000Y-95633000D01*
X152527000Y-95653000D01*
X153876250Y-95653000D01*
X154035000Y-95494250D01*
X154035000Y-95153690D01*
X153989033Y-95042717D01*
X153996431Y-95031890D01*
X154047440Y-94780000D01*
X154047440Y-94274089D01*
X154724743Y-94274089D01*
X154950344Y-94820086D01*
X155367717Y-95238188D01*
X155395557Y-95249748D01*
X155369914Y-95260344D01*
X154951812Y-95677717D01*
X154725258Y-96223319D01*
X154724743Y-96814089D01*
X154950344Y-97360086D01*
X155367717Y-97778188D01*
X155913319Y-98004742D01*
X156504089Y-98005257D01*
X157050086Y-97779656D01*
X157468188Y-97362283D01*
X157479748Y-97334443D01*
X157490344Y-97360086D01*
X157907717Y-97778188D01*
X158453319Y-98004742D01*
X159044089Y-98005257D01*
X159590086Y-97779656D01*
X160008188Y-97362283D01*
X160019748Y-97334443D01*
X160030344Y-97360086D01*
X160447717Y-97778188D01*
X160993319Y-98004742D01*
X161584089Y-98005257D01*
X162130086Y-97779656D01*
X162548188Y-97362283D01*
X162559748Y-97334443D01*
X162570344Y-97360086D01*
X162987717Y-97778188D01*
X163533319Y-98004742D01*
X164124089Y-98005257D01*
X164670086Y-97779656D01*
X165088188Y-97362283D01*
X165099748Y-97334443D01*
X165110344Y-97360086D01*
X165527717Y-97778188D01*
X166073319Y-98004742D01*
X166664089Y-98005257D01*
X167210086Y-97779656D01*
X167426160Y-97563958D01*
X175665647Y-97563958D01*
X175745920Y-97815259D01*
X176301279Y-98016718D01*
X176891458Y-97990315D01*
X177314080Y-97815259D01*
X177394353Y-97563958D01*
X176530000Y-96699605D01*
X175665647Y-97563958D01*
X167426160Y-97563958D01*
X167628188Y-97362283D01*
X167854742Y-96816681D01*
X167855200Y-96291279D01*
X175033282Y-96291279D01*
X175059685Y-96881458D01*
X175234741Y-97304080D01*
X175486042Y-97384353D01*
X176350395Y-96520000D01*
X175486042Y-95655647D01*
X175234741Y-95735920D01*
X175033282Y-96291279D01*
X167855200Y-96291279D01*
X167855257Y-96225911D01*
X167629656Y-95679914D01*
X167212283Y-95261812D01*
X167164688Y-95242049D01*
X167234353Y-95023958D01*
X166370000Y-94159605D01*
X165505647Y-95023958D01*
X165575181Y-95241640D01*
X165529914Y-95260344D01*
X165111812Y-95677717D01*
X165100252Y-95705557D01*
X165089656Y-95679914D01*
X164672283Y-95261812D01*
X164644443Y-95250252D01*
X164670086Y-95239656D01*
X165088188Y-94822283D01*
X165107951Y-94774688D01*
X165326042Y-94844353D01*
X166190395Y-93980000D01*
X166549605Y-93980000D01*
X167413958Y-94844353D01*
X167665259Y-94764080D01*
X167866718Y-94208721D01*
X167840315Y-93618542D01*
X167665259Y-93195920D01*
X167413958Y-93115647D01*
X166549605Y-93980000D01*
X166190395Y-93980000D01*
X165326042Y-93115647D01*
X165108360Y-93185181D01*
X165089656Y-93139914D01*
X164886140Y-92936042D01*
X165505647Y-92936042D01*
X166370000Y-93800395D01*
X167234353Y-92936042D01*
X167154080Y-92684741D01*
X166598721Y-92483282D01*
X166008542Y-92509685D01*
X165585920Y-92684741D01*
X165505647Y-92936042D01*
X164886140Y-92936042D01*
X164672283Y-92721812D01*
X164126681Y-92495258D01*
X163535911Y-92494743D01*
X162989914Y-92720344D01*
X162571812Y-93137717D01*
X162560252Y-93165557D01*
X162549656Y-93139914D01*
X162132283Y-92721812D01*
X162052000Y-92688476D01*
X162052000Y-87986892D01*
X170008514Y-87986892D01*
X170254817Y-88511358D01*
X170683076Y-88901645D01*
X171093110Y-89071476D01*
X171323000Y-88950155D01*
X171323000Y-87757000D01*
X170129181Y-87757000D01*
X170008514Y-87986892D01*
X162052000Y-87986892D01*
X162052000Y-84441083D01*
X162118540Y-84374659D01*
X162267730Y-84015370D01*
X162268069Y-83626337D01*
X162119507Y-83266788D01*
X161844659Y-82991460D01*
X161485370Y-82842270D01*
X161096337Y-82841931D01*
X160736788Y-82990493D01*
X160461460Y-83265341D01*
X160312270Y-83624630D01*
X160311931Y-84013663D01*
X160381111Y-84181092D01*
X160215370Y-84112270D01*
X159826337Y-84111931D01*
X159466788Y-84260493D01*
X159191460Y-84535341D01*
X159042270Y-84894630D01*
X159041931Y-85283663D01*
X159190493Y-85643212D01*
X159258000Y-85710837D01*
X159258000Y-92583005D01*
X159046681Y-92495258D01*
X158455911Y-92494743D01*
X157909914Y-92720344D01*
X157491812Y-93137717D01*
X157480252Y-93165557D01*
X157469656Y-93139914D01*
X157052283Y-92721812D01*
X156972000Y-92688476D01*
X156972000Y-86981083D01*
X157038540Y-86914659D01*
X157187730Y-86555370D01*
X157188069Y-86166337D01*
X157039507Y-85806788D01*
X156764659Y-85531460D01*
X156405370Y-85382270D01*
X156016337Y-85381931D01*
X155656788Y-85530493D01*
X155381460Y-85805341D01*
X155232270Y-86164630D01*
X155231931Y-86553663D01*
X155380493Y-86913212D01*
X155448000Y-86980837D01*
X155448000Y-92688080D01*
X155369914Y-92720344D01*
X154951812Y-93137717D01*
X154725258Y-93683319D01*
X154724743Y-94274089D01*
X154047440Y-94274089D01*
X154047440Y-93780000D01*
X154003162Y-93544683D01*
X153864090Y-93328559D01*
X153651890Y-93183569D01*
X153400000Y-93132560D01*
X152630191Y-93132560D01*
X152247440Y-92749810D01*
X152247440Y-91480000D01*
X152203162Y-91244683D01*
X152064090Y-91028559D01*
X151851890Y-90883569D01*
X151600000Y-90832560D01*
X150600000Y-90832560D01*
X150575910Y-90837093D01*
X150688540Y-90724659D01*
X150837730Y-90365370D01*
X150838069Y-89976337D01*
X150689507Y-89616788D01*
X150622000Y-89549163D01*
X150622000Y-84441083D01*
X150688540Y-84374659D01*
X150837730Y-84015370D01*
X150838069Y-83626337D01*
X150689507Y-83266788D01*
X150414659Y-82991460D01*
X150055370Y-82842270D01*
X149666337Y-82841931D01*
X149306788Y-82990493D01*
X149031460Y-83265341D01*
X148882270Y-83624630D01*
X148881931Y-84013663D01*
X149030493Y-84373212D01*
X149098000Y-84440837D01*
X149098000Y-89548917D01*
X149031460Y-89615341D01*
X148882270Y-89974630D01*
X148881931Y-90363663D01*
X149030493Y-90723212D01*
X149139650Y-90832560D01*
X149100000Y-90832560D01*
X148864683Y-90876838D01*
X148853021Y-90884342D01*
X148851890Y-90883569D01*
X148600000Y-90832560D01*
X148040451Y-90832560D01*
X148148540Y-90724659D01*
X148297730Y-90365370D01*
X148298069Y-89976337D01*
X148149507Y-89616788D01*
X148082000Y-89549163D01*
X148082000Y-85711083D01*
X148148540Y-85644659D01*
X148297730Y-85285370D01*
X148298069Y-84896337D01*
X148149507Y-84536788D01*
X147874659Y-84261460D01*
X147515370Y-84112270D01*
X147126337Y-84111931D01*
X146766788Y-84260493D01*
X146491460Y-84535341D01*
X146342270Y-84894630D01*
X146341931Y-85283663D01*
X146490493Y-85643212D01*
X146558000Y-85710837D01*
X146558000Y-89548917D01*
X146491460Y-89615341D01*
X146342270Y-89974630D01*
X146341931Y-90363663D01*
X146490493Y-90723212D01*
X146599650Y-90832560D01*
X146100000Y-90832560D01*
X145864683Y-90876838D01*
X145853021Y-90884342D01*
X145851890Y-90883569D01*
X145600000Y-90832560D01*
X144600000Y-90832560D01*
X144364683Y-90876838D01*
X144353021Y-90884342D01*
X144351890Y-90883569D01*
X144100000Y-90832560D01*
X143100000Y-90832560D01*
X142864683Y-90876838D01*
X142853021Y-90884342D01*
X142851890Y-90883569D01*
X142600000Y-90832560D01*
X141600000Y-90832560D01*
X141364683Y-90876838D01*
X141353021Y-90884342D01*
X141351890Y-90883569D01*
X141100000Y-90832560D01*
X140100000Y-90832560D01*
X139864683Y-90876838D01*
X139648559Y-91015910D01*
X139503569Y-91228110D01*
X139452560Y-91480000D01*
X139452560Y-91900175D01*
X139391184Y-91941185D01*
X138861185Y-92471185D01*
X138696004Y-92718395D01*
X138638000Y-93010000D01*
X138638000Y-93132560D01*
X138400000Y-93132560D01*
X138164683Y-93176838D01*
X137948559Y-93315910D01*
X137803569Y-93528110D01*
X137786903Y-93610410D01*
X137591184Y-93741185D01*
X135351186Y-95981184D01*
X135351185Y-95981185D01*
X135186004Y-96228395D01*
X135128000Y-96520000D01*
X135128000Y-97028000D01*
X133665631Y-97028000D01*
X133372651Y-96735020D01*
X133644089Y-96735257D01*
X134190086Y-96509656D01*
X134608188Y-96092283D01*
X134834742Y-95546681D01*
X134835257Y-94955911D01*
X134609656Y-94409914D01*
X134192283Y-93991812D01*
X133646681Y-93765258D01*
X133055911Y-93764743D01*
X132509914Y-93990344D01*
X132091812Y-94407717D01*
X132080252Y-94435557D01*
X132069656Y-94409914D01*
X131652283Y-93991812D01*
X131106681Y-93765258D01*
X130515911Y-93764743D01*
X130302000Y-93853129D01*
X130302000Y-90455750D01*
X130595000Y-90455750D01*
X130595000Y-91146310D01*
X130691673Y-91379699D01*
X130870302Y-91558327D01*
X131103691Y-91655000D01*
X131794250Y-91655000D01*
X131953000Y-91496250D01*
X131953000Y-90297000D01*
X130753750Y-90297000D01*
X130595000Y-90455750D01*
X130302000Y-90455750D01*
X130302000Y-89193690D01*
X130595000Y-89193690D01*
X130595000Y-89884250D01*
X130753750Y-90043000D01*
X131953000Y-90043000D01*
X131953000Y-88843750D01*
X132207000Y-88843750D01*
X132207000Y-90043000D01*
X132227000Y-90043000D01*
X132227000Y-90297000D01*
X132207000Y-90297000D01*
X132207000Y-91496250D01*
X132365750Y-91655000D01*
X133056309Y-91655000D01*
X133289698Y-91558327D01*
X133468327Y-91379699D01*
X133533132Y-91223246D01*
X133737717Y-91428188D01*
X134283319Y-91654742D01*
X134874089Y-91655257D01*
X135420086Y-91429656D01*
X135838188Y-91012283D01*
X136064742Y-90466681D01*
X136065257Y-89875911D01*
X135839656Y-89329914D01*
X135422283Y-88911812D01*
X134876681Y-88685258D01*
X134285911Y-88684743D01*
X133739914Y-88910344D01*
X133533135Y-89116762D01*
X133468327Y-88960301D01*
X133289698Y-88781673D01*
X133056309Y-88685000D01*
X132365750Y-88685000D01*
X132207000Y-88843750D01*
X131953000Y-88843750D01*
X131794250Y-88685000D01*
X131103691Y-88685000D01*
X130870302Y-88781673D01*
X130691673Y-88960301D01*
X130595000Y-89193690D01*
X130302000Y-89193690D01*
X130302000Y-81280000D01*
X130243996Y-80988395D01*
X130104539Y-80779683D01*
X130078815Y-80741184D01*
X129347631Y-80010000D01*
X131835907Y-80010000D01*
X131948946Y-80578285D01*
X132270853Y-81060054D01*
X132600026Y-81280000D01*
X132270853Y-81499946D01*
X131948946Y-81981715D01*
X131835907Y-82550000D01*
X131948946Y-83118285D01*
X132270853Y-83600054D01*
X132752622Y-83921961D01*
X133320907Y-84035000D01*
X133379093Y-84035000D01*
X133947378Y-83921961D01*
X134429147Y-83600054D01*
X134751054Y-83118285D01*
X134864093Y-82550000D01*
X134751054Y-81981715D01*
X134429147Y-81499946D01*
X134099974Y-81280000D01*
X134429147Y-81060054D01*
X134621618Y-80772000D01*
X135574370Y-80772000D01*
X136398000Y-81595631D01*
X136398000Y-92394369D01*
X135790357Y-93002013D01*
X135696337Y-93001931D01*
X135336788Y-93150493D01*
X135061460Y-93425341D01*
X134912270Y-93784630D01*
X134911931Y-94173663D01*
X135060493Y-94533212D01*
X135335341Y-94808540D01*
X135694630Y-94957730D01*
X136083663Y-94958069D01*
X136443212Y-94809507D01*
X136718540Y-94534659D01*
X136867730Y-94175370D01*
X136867813Y-94079817D01*
X137698815Y-93248816D01*
X137863996Y-93001605D01*
X137869963Y-92971605D01*
X137922000Y-92710000D01*
X137922000Y-81280000D01*
X137863996Y-80988395D01*
X137724539Y-80779683D01*
X137698815Y-80741184D01*
X136428815Y-79471185D01*
X136181605Y-79306004D01*
X135890000Y-79248000D01*
X134621618Y-79248000D01*
X134429147Y-78959946D01*
X134387548Y-78932150D01*
X134435317Y-78923162D01*
X134651441Y-78784090D01*
X134796431Y-78571890D01*
X134847440Y-78320000D01*
X134847440Y-76620000D01*
X134803162Y-76384683D01*
X134664090Y-76168559D01*
X134451890Y-76023569D01*
X134200000Y-75972560D01*
X132500000Y-75972560D01*
X132264683Y-76016838D01*
X132048559Y-76155910D01*
X131903569Y-76368110D01*
X131852560Y-76620000D01*
X131852560Y-78320000D01*
X131896838Y-78555317D01*
X132035910Y-78771441D01*
X132248110Y-78916431D01*
X132315541Y-78930086D01*
X132270853Y-78959946D01*
X131948946Y-79441715D01*
X131835907Y-80010000D01*
X129347631Y-80010000D01*
X128808815Y-79471185D01*
X128561605Y-79306004D01*
X128270000Y-79248000D01*
X128261964Y-79248000D01*
X128050054Y-78930853D01*
X127568285Y-78608946D01*
X127000000Y-78495907D01*
X126431715Y-78608946D01*
X125949946Y-78930853D01*
X125628039Y-79412622D01*
X125515000Y-79980907D01*
X125515000Y-80039093D01*
X125628039Y-80607378D01*
X125949946Y-81089147D01*
X126431715Y-81411054D01*
X127000000Y-81524093D01*
X127568285Y-81411054D01*
X128050054Y-81089147D01*
X128138759Y-80956390D01*
X128778000Y-81595631D01*
X128778000Y-93854592D01*
X128498721Y-93753282D01*
X128036106Y-93773978D01*
X128258188Y-93552283D01*
X128484742Y-93006681D01*
X128485257Y-92415911D01*
X128259656Y-91869914D01*
X127842283Y-91451812D01*
X127296681Y-91225258D01*
X126705911Y-91224743D01*
X126159914Y-91450344D01*
X125741812Y-91867717D01*
X125515258Y-92413319D01*
X125514743Y-93004089D01*
X125740344Y-93550086D01*
X125955079Y-93765196D01*
X125435911Y-93764743D01*
X124889914Y-93990344D01*
X124471812Y-94407717D01*
X124245258Y-94953319D01*
X124244743Y-95544089D01*
X118820000Y-95544089D01*
X118820000Y-88000000D01*
X119737560Y-88000000D01*
X119737560Y-89800000D01*
X119781838Y-90035317D01*
X119920910Y-90251441D01*
X120133110Y-90396431D01*
X120153534Y-90400567D01*
X119984449Y-90569357D01*
X119750267Y-91133330D01*
X119749735Y-91743991D01*
X119982932Y-92308371D01*
X120414357Y-92740551D01*
X120978330Y-92974733D01*
X121588991Y-92975265D01*
X122153371Y-92742068D01*
X122585551Y-92310643D01*
X122819733Y-91746670D01*
X122820265Y-91136009D01*
X122587068Y-90571629D01*
X122419120Y-90403387D01*
X122420317Y-90403162D01*
X122636441Y-90264090D01*
X122781431Y-90051890D01*
X122832440Y-89800000D01*
X122832440Y-88000000D01*
X122788162Y-87764683D01*
X122649090Y-87548559D01*
X122436890Y-87403569D01*
X122185000Y-87352560D01*
X120385000Y-87352560D01*
X120149683Y-87396838D01*
X119933559Y-87535910D01*
X119788569Y-87748110D01*
X119737560Y-88000000D01*
X118820000Y-88000000D01*
X118820000Y-81015000D01*
X119737560Y-81015000D01*
X119737560Y-82815000D01*
X119781838Y-83050317D01*
X119920910Y-83266441D01*
X120133110Y-83411431D01*
X120153534Y-83415567D01*
X119984449Y-83584357D01*
X119750267Y-84148330D01*
X119749735Y-84758991D01*
X119982932Y-85323371D01*
X120414357Y-85755551D01*
X120978330Y-85989733D01*
X121588991Y-85990265D01*
X122153371Y-85757068D01*
X122527002Y-85384089D01*
X125514743Y-85384089D01*
X125740344Y-85930086D01*
X126157717Y-86348188D01*
X126216639Y-86372655D01*
X125949946Y-86550853D01*
X125628039Y-87032622D01*
X125515000Y-87600907D01*
X125515000Y-87659093D01*
X125628039Y-88227378D01*
X125949946Y-88709147D01*
X126431715Y-89031054D01*
X127000000Y-89144093D01*
X127568285Y-89031054D01*
X128050054Y-88709147D01*
X128371961Y-88227378D01*
X128485000Y-87659093D01*
X128485000Y-87600907D01*
X128371961Y-87032622D01*
X128050054Y-86550853D01*
X127783767Y-86372926D01*
X127840086Y-86349656D01*
X128258188Y-85932283D01*
X128484742Y-85386681D01*
X128485257Y-84795911D01*
X128259656Y-84249914D01*
X127842283Y-83831812D01*
X127296681Y-83605258D01*
X126705911Y-83604743D01*
X126159914Y-83830344D01*
X125741812Y-84247717D01*
X125515258Y-84793319D01*
X125514743Y-85384089D01*
X122527002Y-85384089D01*
X122585551Y-85325643D01*
X122819733Y-84761670D01*
X122820265Y-84151009D01*
X122587068Y-83586629D01*
X122419120Y-83418387D01*
X122420317Y-83418162D01*
X122636441Y-83279090D01*
X122781431Y-83066890D01*
X122832440Y-82815000D01*
X122832440Y-81015000D01*
X122788162Y-80779683D01*
X122649090Y-80563559D01*
X122436890Y-80418569D01*
X122185000Y-80367560D01*
X120385000Y-80367560D01*
X120149683Y-80411838D01*
X119933559Y-80550910D01*
X119788569Y-80763110D01*
X119737560Y-81015000D01*
X118820000Y-81015000D01*
X118820000Y-77742650D01*
X119297242Y-78220726D01*
X120173513Y-78584585D01*
X121122325Y-78585413D01*
X121999229Y-78223084D01*
X122670726Y-77552758D01*
X123034585Y-76676487D01*
X123035413Y-75727675D01*
X122673084Y-74850771D01*
X122193151Y-74370000D01*
X137720000Y-74370000D01*
X137720000Y-78740000D01*
G36*
X182890344Y-97360086D02*
X183307717Y-97778188D01*
X183853319Y-98004742D01*
X184444089Y-98005257D01*
X184524430Y-97972061D01*
X185928000Y-99375631D01*
X185928000Y-102554369D01*
X185320357Y-103162013D01*
X185226337Y-103161931D01*
X184866788Y-103310493D01*
X184591460Y-103585341D01*
X184442270Y-103944630D01*
X184441931Y-104333663D01*
X184590493Y-104693212D01*
X184865341Y-104968540D01*
X185224630Y-105117730D01*
X185532396Y-105117998D01*
X185330197Y-105320197D01*
X185302334Y-105362211D01*
X185293000Y-105410000D01*
X185293000Y-118670000D01*
X153797000Y-118670000D01*
X153797000Y-117134089D01*
X154724743Y-117134089D01*
X154950344Y-117680086D01*
X155367717Y-118098188D01*
X155913319Y-118324742D01*
X156504089Y-118325257D01*
X157050086Y-118099656D01*
X157266160Y-117883958D01*
X157885647Y-117883958D01*
X157965920Y-118135259D01*
X158521279Y-118336718D01*
X159111458Y-118310315D01*
X159534080Y-118135259D01*
X159614353Y-117883958D01*
X158750000Y-117019605D01*
X157885647Y-117883958D01*
X157266160Y-117883958D01*
X157468188Y-117682283D01*
X157487951Y-117634688D01*
X157706042Y-117704353D01*
X158570395Y-116840000D01*
X158929605Y-116840000D01*
X159793958Y-117704353D01*
X160011640Y-117634819D01*
X160030344Y-117680086D01*
X160447717Y-118098188D01*
X160993319Y-118324742D01*
X161584089Y-118325257D01*
X162130086Y-118099656D01*
X162548188Y-117682283D01*
X162559748Y-117654443D01*
X162570344Y-117680086D01*
X162987717Y-118098188D01*
X163533319Y-118324742D01*
X164124089Y-118325257D01*
X164670086Y-118099656D01*
X165088188Y-117682283D01*
X165099748Y-117654443D01*
X165110344Y-117680086D01*
X165527717Y-118098188D01*
X166073319Y-118324742D01*
X166664089Y-118325257D01*
X167210086Y-118099656D01*
X167628188Y-117682283D01*
X167639748Y-117654443D01*
X167650344Y-117680086D01*
X168067717Y-118098188D01*
X168613319Y-118324742D01*
X169204089Y-118325257D01*
X169750086Y-118099656D01*
X170168188Y-117682283D01*
X170179748Y-117654443D01*
X170190344Y-117680086D01*
X170607717Y-118098188D01*
X171153319Y-118324742D01*
X171744089Y-118325257D01*
X172290086Y-118099656D01*
X172708188Y-117682283D01*
X172719748Y-117654443D01*
X172730344Y-117680086D01*
X173147717Y-118098188D01*
X173693319Y-118324742D01*
X174284089Y-118325257D01*
X174830086Y-118099656D01*
X175248188Y-117682283D01*
X175259748Y-117654443D01*
X175270344Y-117680086D01*
X175687717Y-118098188D01*
X176233319Y-118324742D01*
X176824089Y-118325257D01*
X177370086Y-118099656D01*
X177788188Y-117682283D01*
X177799748Y-117654443D01*
X177810344Y-117680086D01*
X178227717Y-118098188D01*
X178773319Y-118324742D01*
X179364089Y-118325257D01*
X179910086Y-118099656D01*
X180328188Y-117682283D01*
X180339748Y-117654443D01*
X180350344Y-117680086D01*
X180767717Y-118098188D01*
X181313319Y-118324742D01*
X181904089Y-118325257D01*
X182450086Y-118099656D01*
X182868188Y-117682283D01*
X183094742Y-117136681D01*
X183095257Y-116545911D01*
X182869656Y-115999914D01*
X182452283Y-115581812D01*
X181906681Y-115355258D01*
X181315911Y-115354743D01*
X180769914Y-115580344D01*
X180351812Y-115997717D01*
X180340252Y-116025557D01*
X180329656Y-115999914D01*
X179912283Y-115581812D01*
X179366681Y-115355258D01*
X178775911Y-115354743D01*
X178229914Y-115580344D01*
X177811812Y-115997717D01*
X177800252Y-116025557D01*
X177789656Y-115999914D01*
X177372283Y-115581812D01*
X176826681Y-115355258D01*
X176235911Y-115354743D01*
X175689914Y-115580344D01*
X175271812Y-115997717D01*
X175260252Y-116025557D01*
X175249656Y-115999914D01*
X174832283Y-115581812D01*
X174286681Y-115355258D01*
X173695911Y-115354743D01*
X173149914Y-115580344D01*
X172731812Y-115997717D01*
X172720252Y-116025557D01*
X172709656Y-115999914D01*
X172292283Y-115581812D01*
X171746681Y-115355258D01*
X171155911Y-115354743D01*
X170609914Y-115580344D01*
X170191812Y-115997717D01*
X170180252Y-116025557D01*
X170169656Y-115999914D01*
X169752283Y-115581812D01*
X169206681Y-115355258D01*
X168615911Y-115354743D01*
X168069914Y-115580344D01*
X167651812Y-115997717D01*
X167640252Y-116025557D01*
X167629656Y-115999914D01*
X167212283Y-115581812D01*
X166666681Y-115355258D01*
X166075911Y-115354743D01*
X165529914Y-115580344D01*
X165111812Y-115997717D01*
X165100252Y-116025557D01*
X165089656Y-115999914D01*
X164672283Y-115581812D01*
X164126681Y-115355258D01*
X163535911Y-115354743D01*
X162989914Y-115580344D01*
X162571812Y-115997717D01*
X162560252Y-116025557D01*
X162549656Y-115999914D01*
X162132283Y-115581812D01*
X161586681Y-115355258D01*
X160995911Y-115354743D01*
X160449914Y-115580344D01*
X160031812Y-115997717D01*
X160012049Y-116045312D01*
X159793958Y-115975647D01*
X158929605Y-116840000D01*
X158570395Y-116840000D01*
X157706042Y-115975647D01*
X157488360Y-116045181D01*
X157469656Y-115999914D01*
X157266140Y-115796042D01*
X157885647Y-115796042D01*
X158750000Y-116660395D01*
X159614353Y-115796042D01*
X159534080Y-115544741D01*
X158978721Y-115343282D01*
X158388542Y-115369685D01*
X157965920Y-115544741D01*
X157885647Y-115796042D01*
X157266140Y-115796042D01*
X157052283Y-115581812D01*
X156506681Y-115355258D01*
X155915911Y-115354743D01*
X155369914Y-115580344D01*
X154951812Y-115997717D01*
X154725258Y-116543319D01*
X154724743Y-117134089D01*
X153797000Y-117134089D01*
X153797000Y-114300000D01*
X153786994Y-114250590D01*
X153758553Y-114208965D01*
X153716159Y-114181685D01*
X153670000Y-114173000D01*
X151182606Y-114173000D01*
X149987000Y-112977394D01*
X149987000Y-112916246D01*
X150088396Y-112983997D01*
X150380000Y-113042000D01*
X150814008Y-113042000D01*
X150935910Y-113231441D01*
X151148110Y-113376431D01*
X151400000Y-113427440D01*
X153400000Y-113427440D01*
X153615493Y-113386892D01*
X170008514Y-113386892D01*
X170254817Y-113911358D01*
X170683076Y-114301645D01*
X171093110Y-114471476D01*
X171323000Y-114350155D01*
X171323000Y-113157000D01*
X170129181Y-113157000D01*
X170008514Y-113386892D01*
X153615493Y-113386892D01*
X153635317Y-113383162D01*
X153851441Y-113244090D01*
X153996431Y-113031890D01*
X154047440Y-112780000D01*
X154047440Y-111780000D01*
X154003162Y-111544683D01*
X153995658Y-111533021D01*
X153996431Y-111531890D01*
X154047440Y-111280000D01*
X154047440Y-110280000D01*
X154003162Y-110044683D01*
X153995658Y-110033021D01*
X153996431Y-110031890D01*
X154047440Y-109780000D01*
X154047440Y-108780000D01*
X154003162Y-108544683D01*
X153995658Y-108533021D01*
X153996431Y-108531890D01*
X154047440Y-108280000D01*
X154047440Y-107280000D01*
X154003162Y-107044683D01*
X153995658Y-107033021D01*
X153996431Y-107031890D01*
X154047440Y-106780000D01*
X154047440Y-105780000D01*
X154003162Y-105544683D01*
X153995658Y-105533021D01*
X153996431Y-105531890D01*
X154047440Y-105280000D01*
X154047440Y-104540611D01*
X154110493Y-104693212D01*
X154385341Y-104968540D01*
X154744630Y-105117730D01*
X155133663Y-105118069D01*
X155493212Y-104969507D01*
X155768540Y-104694659D01*
X155917730Y-104335370D01*
X155918069Y-103946337D01*
X155769507Y-103586788D01*
X155687960Y-103505099D01*
X155768540Y-103424659D01*
X155910220Y-103083455D01*
X155913319Y-103084742D01*
X156504089Y-103085257D01*
X157050086Y-102859656D01*
X157468188Y-102442283D01*
X157479748Y-102414443D01*
X157490344Y-102440086D01*
X157907717Y-102858188D01*
X158453319Y-103084742D01*
X159044089Y-103085257D01*
X159590086Y-102859656D01*
X160008188Y-102442283D01*
X160019748Y-102414443D01*
X160030344Y-102440086D01*
X160447717Y-102858188D01*
X160993319Y-103084742D01*
X161584089Y-103085257D01*
X162130086Y-102859656D01*
X162548188Y-102442283D01*
X162559748Y-102414443D01*
X162570344Y-102440086D01*
X162987717Y-102858188D01*
X163533319Y-103084742D01*
X164124089Y-103085257D01*
X164670086Y-102859656D01*
X165088188Y-102442283D01*
X165099748Y-102414443D01*
X165110344Y-102440086D01*
X165527717Y-102858188D01*
X166073319Y-103084742D01*
X166664089Y-103085257D01*
X167210086Y-102859656D01*
X167628188Y-102442283D01*
X167639748Y-102414443D01*
X167650344Y-102440086D01*
X168067717Y-102858188D01*
X168613319Y-103084742D01*
X169204089Y-103085257D01*
X169750086Y-102859656D01*
X170168188Y-102442283D01*
X170179748Y-102414443D01*
X170190344Y-102440086D01*
X170607717Y-102858188D01*
X171153319Y-103084742D01*
X171744089Y-103085257D01*
X172290086Y-102859656D01*
X172708188Y-102442283D01*
X172719748Y-102414443D01*
X172730344Y-102440086D01*
X173147717Y-102858188D01*
X173228000Y-102891524D01*
X173228000Y-103518917D01*
X173161460Y-103585341D01*
X173012270Y-103944630D01*
X173011931Y-104333663D01*
X173160493Y-104693212D01*
X173435341Y-104968540D01*
X173794630Y-105117730D01*
X174183663Y-105118069D01*
X174543212Y-104969507D01*
X174818540Y-104694659D01*
X174967730Y-104335370D01*
X174968069Y-103946337D01*
X174819507Y-103586788D01*
X174752000Y-103519163D01*
X174752000Y-102891920D01*
X174830086Y-102859656D01*
X175248188Y-102442283D01*
X175259748Y-102414443D01*
X175270344Y-102440086D01*
X175687717Y-102858188D01*
X176233319Y-103084742D01*
X176824089Y-103085257D01*
X177038000Y-102996871D01*
X177038000Y-107950000D01*
X177096004Y-108241605D01*
X177154105Y-108328559D01*
X177261185Y-108488815D01*
X178117823Y-109345454D01*
X178019946Y-109410853D01*
X177800000Y-109740026D01*
X177580054Y-109410853D01*
X177098285Y-109088946D01*
X176530000Y-108975907D01*
X176022000Y-109076955D01*
X176022000Y-107301083D01*
X176088540Y-107234659D01*
X176237730Y-106875370D01*
X176238069Y-106486337D01*
X176089507Y-106126788D01*
X175814659Y-105851460D01*
X175455370Y-105702270D01*
X175066337Y-105701931D01*
X174706788Y-105850493D01*
X174431460Y-106125341D01*
X174282270Y-106484630D01*
X174281931Y-106873663D01*
X174351111Y-107041092D01*
X174185370Y-106972270D01*
X173796337Y-106971931D01*
X173436788Y-107120493D01*
X173161460Y-107395341D01*
X173012270Y-107754630D01*
X173011931Y-108143663D01*
X173160493Y-108503212D01*
X173228000Y-108570837D01*
X173228000Y-109218382D01*
X172939946Y-109410853D01*
X172912150Y-109452452D01*
X172903162Y-109404683D01*
X172764090Y-109188559D01*
X172551890Y-109043569D01*
X172300000Y-108992560D01*
X170600000Y-108992560D01*
X170364683Y-109036838D01*
X170148559Y-109175910D01*
X170003569Y-109388110D01*
X169952560Y-109640000D01*
X169952560Y-111340000D01*
X169996838Y-111575317D01*
X170135910Y-111791441D01*
X170348110Y-111936431D01*
X170462301Y-111959555D01*
X170254817Y-112148642D01*
X170008514Y-112673108D01*
X170129181Y-112903000D01*
X171323000Y-112903000D01*
X171323000Y-112883000D01*
X171577000Y-112883000D01*
X171577000Y-112903000D01*
X171597000Y-112903000D01*
X171597000Y-113157000D01*
X171577000Y-113157000D01*
X171577000Y-114350155D01*
X171806890Y-114471476D01*
X172216924Y-114301645D01*
X172645183Y-113911358D01*
X172712298Y-113768447D01*
X172939946Y-114109147D01*
X173421715Y-114431054D01*
X173990000Y-114544093D01*
X174558285Y-114431054D01*
X175040054Y-114109147D01*
X175260000Y-113779974D01*
X175479946Y-114109147D01*
X175961715Y-114431054D01*
X176530000Y-114544093D01*
X177098285Y-114431054D01*
X177580054Y-114109147D01*
X177800000Y-113779974D01*
X178019946Y-114109147D01*
X178501715Y-114431054D01*
X179070000Y-114544093D01*
X179638285Y-114431054D01*
X180120054Y-114109147D01*
X180340000Y-113779974D01*
X180559946Y-114109147D01*
X181041715Y-114431054D01*
X181610000Y-114544093D01*
X182178285Y-114431054D01*
X182660054Y-114109147D01*
X182981961Y-113627378D01*
X183095000Y-113059093D01*
X183095000Y-113000907D01*
X182981961Y-112432622D01*
X182660054Y-111950853D01*
X182374422Y-111760000D01*
X182660054Y-111569147D01*
X182981961Y-111087378D01*
X183095000Y-110519093D01*
X183095000Y-110460907D01*
X182981961Y-109892622D01*
X182660054Y-109410853D01*
X182178285Y-109088946D01*
X181610000Y-108975907D01*
X181041715Y-109088946D01*
X180559946Y-109410853D01*
X180340000Y-109740026D01*
X180120054Y-109410853D01*
X179831629Y-109218134D01*
X179773996Y-108928395D01*
X179739275Y-108876431D01*
X179608815Y-108681184D01*
X178562000Y-107634370D01*
X178562000Y-102996995D01*
X178773319Y-103084742D01*
X179364089Y-103085257D01*
X179910086Y-102859656D01*
X180328188Y-102442283D01*
X180339748Y-102414443D01*
X180350344Y-102440086D01*
X180767717Y-102858188D01*
X181313319Y-103084742D01*
X181904089Y-103085257D01*
X182450086Y-102859656D01*
X182685435Y-102624717D01*
X182696838Y-102685317D01*
X182835910Y-102901441D01*
X183048110Y-103046431D01*
X183300000Y-103097440D01*
X185000000Y-103097440D01*
X185235317Y-103053162D01*
X185451441Y-102914090D01*
X185596431Y-102701890D01*
X185647440Y-102450000D01*
X185647440Y-100750000D01*
X185603162Y-100514683D01*
X185464090Y-100298559D01*
X185251890Y-100153569D01*
X185000000Y-100102560D01*
X183300000Y-100102560D01*
X183064683Y-100146838D01*
X182848559Y-100285910D01*
X182703569Y-100498110D01*
X182687504Y-100577443D01*
X182452283Y-100341812D01*
X181906681Y-100115258D01*
X181632612Y-100115019D01*
X182148815Y-99598816D01*
X182313996Y-99351605D01*
X182333478Y-99253663D01*
X182372000Y-99060000D01*
X182372000Y-97811920D01*
X182450086Y-97779656D01*
X182868188Y-97362283D01*
X182879748Y-97334443D01*
X182890344Y-97360086D01*
X182890344Y-97360086D01*
G37*
X182890344Y-97360086D02*
X183307717Y-97778188D01*
X183853319Y-98004742D01*
X184444089Y-98005257D01*
X184524430Y-97972061D01*
X185928000Y-99375631D01*
X185928000Y-102554369D01*
X185320357Y-103162013D01*
X185226337Y-103161931D01*
X184866788Y-103310493D01*
X184591460Y-103585341D01*
X184442270Y-103944630D01*
X184441931Y-104333663D01*
X184590493Y-104693212D01*
X184865341Y-104968540D01*
X185224630Y-105117730D01*
X185532396Y-105117998D01*
X185330197Y-105320197D01*
X185302334Y-105362211D01*
X185293000Y-105410000D01*
X185293000Y-118670000D01*
X153797000Y-118670000D01*
X153797000Y-117134089D01*
X154724743Y-117134089D01*
X154950344Y-117680086D01*
X155367717Y-118098188D01*
X155913319Y-118324742D01*
X156504089Y-118325257D01*
X157050086Y-118099656D01*
X157266160Y-117883958D01*
X157885647Y-117883958D01*
X157965920Y-118135259D01*
X158521279Y-118336718D01*
X159111458Y-118310315D01*
X159534080Y-118135259D01*
X159614353Y-117883958D01*
X158750000Y-117019605D01*
X157885647Y-117883958D01*
X157266160Y-117883958D01*
X157468188Y-117682283D01*
X157487951Y-117634688D01*
X157706042Y-117704353D01*
X158570395Y-116840000D01*
X158929605Y-116840000D01*
X159793958Y-117704353D01*
X160011640Y-117634819D01*
X160030344Y-117680086D01*
X160447717Y-118098188D01*
X160993319Y-118324742D01*
X161584089Y-118325257D01*
X162130086Y-118099656D01*
X162548188Y-117682283D01*
X162559748Y-117654443D01*
X162570344Y-117680086D01*
X162987717Y-118098188D01*
X163533319Y-118324742D01*
X164124089Y-118325257D01*
X164670086Y-118099656D01*
X165088188Y-117682283D01*
X165099748Y-117654443D01*
X165110344Y-117680086D01*
X165527717Y-118098188D01*
X166073319Y-118324742D01*
X166664089Y-118325257D01*
X167210086Y-118099656D01*
X167628188Y-117682283D01*
X167639748Y-117654443D01*
X167650344Y-117680086D01*
X168067717Y-118098188D01*
X168613319Y-118324742D01*
X169204089Y-118325257D01*
X169750086Y-118099656D01*
X170168188Y-117682283D01*
X170179748Y-117654443D01*
X170190344Y-117680086D01*
X170607717Y-118098188D01*
X171153319Y-118324742D01*
X171744089Y-118325257D01*
X172290086Y-118099656D01*
X172708188Y-117682283D01*
X172719748Y-117654443D01*
X172730344Y-117680086D01*
X173147717Y-118098188D01*
X173693319Y-118324742D01*
X174284089Y-118325257D01*
X174830086Y-118099656D01*
X175248188Y-117682283D01*
X175259748Y-117654443D01*
X175270344Y-117680086D01*
X175687717Y-118098188D01*
X176233319Y-118324742D01*
X176824089Y-118325257D01*
X177370086Y-118099656D01*
X177788188Y-117682283D01*
X177799748Y-117654443D01*
X177810344Y-117680086D01*
X178227717Y-118098188D01*
X178773319Y-118324742D01*
X179364089Y-118325257D01*
X179910086Y-118099656D01*
X180328188Y-117682283D01*
X180339748Y-117654443D01*
X180350344Y-117680086D01*
X180767717Y-118098188D01*
X181313319Y-118324742D01*
X181904089Y-118325257D01*
X182450086Y-118099656D01*
X182868188Y-117682283D01*
X183094742Y-117136681D01*
X183095257Y-116545911D01*
X182869656Y-115999914D01*
X182452283Y-115581812D01*
X181906681Y-115355258D01*
X181315911Y-115354743D01*
X180769914Y-115580344D01*
X180351812Y-115997717D01*
X180340252Y-116025557D01*
X180329656Y-115999914D01*
X179912283Y-115581812D01*
X179366681Y-115355258D01*
X178775911Y-115354743D01*
X178229914Y-115580344D01*
X177811812Y-115997717D01*
X177800252Y-116025557D01*
X177789656Y-115999914D01*
X177372283Y-115581812D01*
X176826681Y-115355258D01*
X176235911Y-115354743D01*
X175689914Y-115580344D01*
X175271812Y-115997717D01*
X175260252Y-116025557D01*
X175249656Y-115999914D01*
X174832283Y-115581812D01*
X174286681Y-115355258D01*
X173695911Y-115354743D01*
X173149914Y-115580344D01*
X172731812Y-115997717D01*
X172720252Y-116025557D01*
X172709656Y-115999914D01*
X172292283Y-115581812D01*
X171746681Y-115355258D01*
X171155911Y-115354743D01*
X170609914Y-115580344D01*
X170191812Y-115997717D01*
X170180252Y-116025557D01*
X170169656Y-115999914D01*
X169752283Y-115581812D01*
X169206681Y-115355258D01*
X168615911Y-115354743D01*
X168069914Y-115580344D01*
X167651812Y-115997717D01*
X167640252Y-116025557D01*
X167629656Y-115999914D01*
X167212283Y-115581812D01*
X166666681Y-115355258D01*
X166075911Y-115354743D01*
X165529914Y-115580344D01*
X165111812Y-115997717D01*
X165100252Y-116025557D01*
X165089656Y-115999914D01*
X164672283Y-115581812D01*
X164126681Y-115355258D01*
X163535911Y-115354743D01*
X162989914Y-115580344D01*
X162571812Y-115997717D01*
X162560252Y-116025557D01*
X162549656Y-115999914D01*
X162132283Y-115581812D01*
X161586681Y-115355258D01*
X160995911Y-115354743D01*
X160449914Y-115580344D01*
X160031812Y-115997717D01*
X160012049Y-116045312D01*
X159793958Y-115975647D01*
X158929605Y-116840000D01*
X158570395Y-116840000D01*
X157706042Y-115975647D01*
X157488360Y-116045181D01*
X157469656Y-115999914D01*
X157266140Y-115796042D01*
X157885647Y-115796042D01*
X158750000Y-116660395D01*
X159614353Y-115796042D01*
X159534080Y-115544741D01*
X158978721Y-115343282D01*
X158388542Y-115369685D01*
X157965920Y-115544741D01*
X157885647Y-115796042D01*
X157266140Y-115796042D01*
X157052283Y-115581812D01*
X156506681Y-115355258D01*
X155915911Y-115354743D01*
X155369914Y-115580344D01*
X154951812Y-115997717D01*
X154725258Y-116543319D01*
X154724743Y-117134089D01*
X153797000Y-117134089D01*
X153797000Y-114300000D01*
X153786994Y-114250590D01*
X153758553Y-114208965D01*
X153716159Y-114181685D01*
X153670000Y-114173000D01*
X151182606Y-114173000D01*
X149987000Y-112977394D01*
X149987000Y-112916246D01*
X150088396Y-112983997D01*
X150380000Y-113042000D01*
X150814008Y-113042000D01*
X150935910Y-113231441D01*
X151148110Y-113376431D01*
X151400000Y-113427440D01*
X153400000Y-113427440D01*
X153615493Y-113386892D01*
X170008514Y-113386892D01*
X170254817Y-113911358D01*
X170683076Y-114301645D01*
X171093110Y-114471476D01*
X171323000Y-114350155D01*
X171323000Y-113157000D01*
X170129181Y-113157000D01*
X170008514Y-113386892D01*
X153615493Y-113386892D01*
X153635317Y-113383162D01*
X153851441Y-113244090D01*
X153996431Y-113031890D01*
X154047440Y-112780000D01*
X154047440Y-111780000D01*
X154003162Y-111544683D01*
X153995658Y-111533021D01*
X153996431Y-111531890D01*
X154047440Y-111280000D01*
X154047440Y-110280000D01*
X154003162Y-110044683D01*
X153995658Y-110033021D01*
X153996431Y-110031890D01*
X154047440Y-109780000D01*
X154047440Y-108780000D01*
X154003162Y-108544683D01*
X153995658Y-108533021D01*
X153996431Y-108531890D01*
X154047440Y-108280000D01*
X154047440Y-107280000D01*
X154003162Y-107044683D01*
X153995658Y-107033021D01*
X153996431Y-107031890D01*
X154047440Y-106780000D01*
X154047440Y-105780000D01*
X154003162Y-105544683D01*
X153995658Y-105533021D01*
X153996431Y-105531890D01*
X154047440Y-105280000D01*
X154047440Y-104540611D01*
X154110493Y-104693212D01*
X154385341Y-104968540D01*
X154744630Y-105117730D01*
X155133663Y-105118069D01*
X155493212Y-104969507D01*
X155768540Y-104694659D01*
X155917730Y-104335370D01*
X155918069Y-103946337D01*
X155769507Y-103586788D01*
X155687960Y-103505099D01*
X155768540Y-103424659D01*
X155910220Y-103083455D01*
X155913319Y-103084742D01*
X156504089Y-103085257D01*
X157050086Y-102859656D01*
X157468188Y-102442283D01*
X157479748Y-102414443D01*
X157490344Y-102440086D01*
X157907717Y-102858188D01*
X158453319Y-103084742D01*
X159044089Y-103085257D01*
X159590086Y-102859656D01*
X160008188Y-102442283D01*
X160019748Y-102414443D01*
X160030344Y-102440086D01*
X160447717Y-102858188D01*
X160993319Y-103084742D01*
X161584089Y-103085257D01*
X162130086Y-102859656D01*
X162548188Y-102442283D01*
X162559748Y-102414443D01*
X162570344Y-102440086D01*
X162987717Y-102858188D01*
X163533319Y-103084742D01*
X164124089Y-103085257D01*
X164670086Y-102859656D01*
X165088188Y-102442283D01*
X165099748Y-102414443D01*
X165110344Y-102440086D01*
X165527717Y-102858188D01*
X166073319Y-103084742D01*
X166664089Y-103085257D01*
X167210086Y-102859656D01*
X167628188Y-102442283D01*
X167639748Y-102414443D01*
X167650344Y-102440086D01*
X168067717Y-102858188D01*
X168613319Y-103084742D01*
X169204089Y-103085257D01*
X169750086Y-102859656D01*
X170168188Y-102442283D01*
X170179748Y-102414443D01*
X170190344Y-102440086D01*
X170607717Y-102858188D01*
X171153319Y-103084742D01*
X171744089Y-103085257D01*
X172290086Y-102859656D01*
X172708188Y-102442283D01*
X172719748Y-102414443D01*
X172730344Y-102440086D01*
X173147717Y-102858188D01*
X173228000Y-102891524D01*
X173228000Y-103518917D01*
X173161460Y-103585341D01*
X173012270Y-103944630D01*
X173011931Y-104333663D01*
X173160493Y-104693212D01*
X173435341Y-104968540D01*
X173794630Y-105117730D01*
X174183663Y-105118069D01*
X174543212Y-104969507D01*
X174818540Y-104694659D01*
X174967730Y-104335370D01*
X174968069Y-103946337D01*
X174819507Y-103586788D01*
X174752000Y-103519163D01*
X174752000Y-102891920D01*
X174830086Y-102859656D01*
X175248188Y-102442283D01*
X175259748Y-102414443D01*
X175270344Y-102440086D01*
X175687717Y-102858188D01*
X176233319Y-103084742D01*
X176824089Y-103085257D01*
X177038000Y-102996871D01*
X177038000Y-107950000D01*
X177096004Y-108241605D01*
X177154105Y-108328559D01*
X177261185Y-108488815D01*
X178117823Y-109345454D01*
X178019946Y-109410853D01*
X177800000Y-109740026D01*
X177580054Y-109410853D01*
X177098285Y-109088946D01*
X176530000Y-108975907D01*
X176022000Y-109076955D01*
X176022000Y-107301083D01*
X176088540Y-107234659D01*
X176237730Y-106875370D01*
X176238069Y-106486337D01*
X176089507Y-106126788D01*
X175814659Y-105851460D01*
X175455370Y-105702270D01*
X175066337Y-105701931D01*
X174706788Y-105850493D01*
X174431460Y-106125341D01*
X174282270Y-106484630D01*
X174281931Y-106873663D01*
X174351111Y-107041092D01*
X174185370Y-106972270D01*
X173796337Y-106971931D01*
X173436788Y-107120493D01*
X173161460Y-107395341D01*
X173012270Y-107754630D01*
X173011931Y-108143663D01*
X173160493Y-108503212D01*
X173228000Y-108570837D01*
X173228000Y-109218382D01*
X172939946Y-109410853D01*
X172912150Y-109452452D01*
X172903162Y-109404683D01*
X172764090Y-109188559D01*
X172551890Y-109043569D01*
X172300000Y-108992560D01*
X170600000Y-108992560D01*
X170364683Y-109036838D01*
X170148559Y-109175910D01*
X170003569Y-109388110D01*
X169952560Y-109640000D01*
X169952560Y-111340000D01*
X169996838Y-111575317D01*
X170135910Y-111791441D01*
X170348110Y-111936431D01*
X170462301Y-111959555D01*
X170254817Y-112148642D01*
X170008514Y-112673108D01*
X170129181Y-112903000D01*
X171323000Y-112903000D01*
X171323000Y-112883000D01*
X171577000Y-112883000D01*
X171577000Y-112903000D01*
X171597000Y-112903000D01*
X171597000Y-113157000D01*
X171577000Y-113157000D01*
X171577000Y-114350155D01*
X171806890Y-114471476D01*
X172216924Y-114301645D01*
X172645183Y-113911358D01*
X172712298Y-113768447D01*
X172939946Y-114109147D01*
X173421715Y-114431054D01*
X173990000Y-114544093D01*
X174558285Y-114431054D01*
X175040054Y-114109147D01*
X175260000Y-113779974D01*
X175479946Y-114109147D01*
X175961715Y-114431054D01*
X176530000Y-114544093D01*
X177098285Y-114431054D01*
X177580054Y-114109147D01*
X177800000Y-113779974D01*
X178019946Y-114109147D01*
X178501715Y-114431054D01*
X179070000Y-114544093D01*
X179638285Y-114431054D01*
X180120054Y-114109147D01*
X180340000Y-113779974D01*
X180559946Y-114109147D01*
X181041715Y-114431054D01*
X181610000Y-114544093D01*
X182178285Y-114431054D01*
X182660054Y-114109147D01*
X182981961Y-113627378D01*
X183095000Y-113059093D01*
X183095000Y-113000907D01*
X182981961Y-112432622D01*
X182660054Y-111950853D01*
X182374422Y-111760000D01*
X182660054Y-111569147D01*
X182981961Y-111087378D01*
X183095000Y-110519093D01*
X183095000Y-110460907D01*
X182981961Y-109892622D01*
X182660054Y-109410853D01*
X182178285Y-109088946D01*
X181610000Y-108975907D01*
X181041715Y-109088946D01*
X180559946Y-109410853D01*
X180340000Y-109740026D01*
X180120054Y-109410853D01*
X179831629Y-109218134D01*
X179773996Y-108928395D01*
X179739275Y-108876431D01*
X179608815Y-108681184D01*
X178562000Y-107634370D01*
X178562000Y-102996995D01*
X178773319Y-103084742D01*
X179364089Y-103085257D01*
X179910086Y-102859656D01*
X180328188Y-102442283D01*
X180339748Y-102414443D01*
X180350344Y-102440086D01*
X180767717Y-102858188D01*
X181313319Y-103084742D01*
X181904089Y-103085257D01*
X182450086Y-102859656D01*
X182685435Y-102624717D01*
X182696838Y-102685317D01*
X182835910Y-102901441D01*
X183048110Y-103046431D01*
X183300000Y-103097440D01*
X185000000Y-103097440D01*
X185235317Y-103053162D01*
X185451441Y-102914090D01*
X185596431Y-102701890D01*
X185647440Y-102450000D01*
X185647440Y-100750000D01*
X185603162Y-100514683D01*
X185464090Y-100298559D01*
X185251890Y-100153569D01*
X185000000Y-100102560D01*
X183300000Y-100102560D01*
X183064683Y-100146838D01*
X182848559Y-100285910D01*
X182703569Y-100498110D01*
X182687504Y-100577443D01*
X182452283Y-100341812D01*
X181906681Y-100115258D01*
X181632612Y-100115019D01*
X182148815Y-99598816D01*
X182313996Y-99351605D01*
X182333478Y-99253663D01*
X182372000Y-99060000D01*
X182372000Y-97811920D01*
X182450086Y-97779656D01*
X182868188Y-97362283D01*
X182879748Y-97334443D01*
X182890344Y-97360086D01*
M02*
