G04 #@! TF.FileFunction,Soldermask,Bot*
%FSLAX46Y46*%
G04 Gerber Fmt 4.6, Leading zero omitted, Abs format (unit mm)*
G04 Created by KiCad (PCBNEW 4.0.7) date 09/09/17 09:10:53*
%MOMM*%
%LPD*%
G01*
G04 APERTURE LIST*
%ADD10C,0.100000*%
%ADD11R,2.100000X2.100000*%
%ADD12C,2.100000*%
%ADD13O,2.100000X2.100000*%
%ADD14R,2.200000X2.200000*%
%ADD15C,2.200000*%
%ADD16C,3.900000*%
%ADD17R,1.924000X2.100000*%
G04 APERTURE END LIST*
D10*
D11*
X132080000Y-90170000D03*
D12*
X134580000Y-90170000D03*
D11*
X171450000Y-110490000D03*
D13*
X171450000Y-113030000D03*
X173990000Y-110490000D03*
X173990000Y-113030000D03*
X176530000Y-110490000D03*
X176530000Y-113030000D03*
X179070000Y-110490000D03*
X179070000Y-113030000D03*
X181610000Y-110490000D03*
X181610000Y-113030000D03*
D11*
X171450000Y-85090000D03*
D13*
X171450000Y-87630000D03*
X173990000Y-85090000D03*
X173990000Y-87630000D03*
X176530000Y-85090000D03*
X176530000Y-87630000D03*
X179070000Y-85090000D03*
X179070000Y-87630000D03*
X181610000Y-85090000D03*
X181610000Y-87630000D03*
D11*
X133350000Y-77470000D03*
D13*
X133350000Y-80010000D03*
X133350000Y-82550000D03*
D14*
X121285000Y-81915000D03*
D15*
X121285000Y-84455000D03*
D14*
X121285000Y-88900000D03*
D15*
X121285000Y-91440000D03*
D12*
X127000000Y-85090000D03*
D13*
X127000000Y-80010000D03*
D12*
X127000000Y-92710000D03*
D13*
X127000000Y-87630000D03*
D16*
X120650000Y-76200000D03*
X195580000Y-76200000D03*
X195580000Y-116840000D03*
X120650000Y-116840000D03*
D12*
X133350000Y-95250000D03*
X130810000Y-95250000D03*
X128270000Y-95250000D03*
X125730000Y-95250000D03*
X130810000Y-118110000D03*
X128270000Y-118110000D03*
D17*
X176530000Y-93980000D03*
D12*
X176530000Y-96520000D03*
X179070000Y-93980000D03*
X179070000Y-96520000D03*
X181610000Y-93980000D03*
X181610000Y-96520000D03*
X184150000Y-93980000D03*
X184150000Y-96520000D03*
X186690000Y-93980000D03*
X186690000Y-96520000D03*
X156210000Y-93980000D03*
X156210000Y-96520000D03*
X158750000Y-93980000D03*
X158750000Y-96520000D03*
X161290000Y-93980000D03*
X161290000Y-96520000D03*
X163830000Y-93980000D03*
X163830000Y-96520000D03*
X166370000Y-93980000D03*
X166370000Y-96520000D03*
D11*
X184150000Y-101600000D03*
D12*
X181610000Y-101600000D03*
X179070000Y-101600000D03*
X176530000Y-101600000D03*
X173990000Y-101600000D03*
X171450000Y-101600000D03*
X168910000Y-101600000D03*
X166370000Y-101600000D03*
X163830000Y-101600000D03*
X161290000Y-101600000D03*
X158750000Y-101600000D03*
X156210000Y-101600000D03*
X156210000Y-116840000D03*
X158750000Y-116840000D03*
X161290000Y-116840000D03*
X163830000Y-116840000D03*
X166370000Y-116840000D03*
X168910000Y-116840000D03*
X171450000Y-116840000D03*
X173990000Y-116840000D03*
X176530000Y-116840000D03*
X179070000Y-116840000D03*
X181610000Y-116840000D03*
M02*
