G04 #@! TF.FileFunction,Copper,L2,Bot,Signal*
%FSLAX46Y46*%
G04 Gerber Fmt 4.6, Leading zero omitted, Abs format (unit mm)*
G04 Created by KiCad (PCBNEW 4.0.7) date 09/09/17 09:10:53*
%MOMM*%
%LPD*%
G01*
G04 APERTURE LIST*
%ADD10C,0.100000*%
%ADD11R,1.700000X1.700000*%
%ADD12C,1.700000*%
%ADD13O,1.700000X1.700000*%
%ADD14R,1.800000X1.800000*%
%ADD15C,1.800000*%
%ADD16C,3.500000*%
%ADD17R,1.524000X1.700000*%
%ADD18C,0.685800*%
%ADD19C,0.254000*%
G04 APERTURE END LIST*
D10*
D11*
X132080000Y-90170000D03*
D12*
X134580000Y-90170000D03*
D11*
X171450000Y-110490000D03*
D13*
X171450000Y-113030000D03*
X173990000Y-110490000D03*
X173990000Y-113030000D03*
X176530000Y-110490000D03*
X176530000Y-113030000D03*
X179070000Y-110490000D03*
X179070000Y-113030000D03*
X181610000Y-110490000D03*
X181610000Y-113030000D03*
D11*
X171450000Y-85090000D03*
D13*
X171450000Y-87630000D03*
X173990000Y-85090000D03*
X173990000Y-87630000D03*
X176530000Y-85090000D03*
X176530000Y-87630000D03*
X179070000Y-85090000D03*
X179070000Y-87630000D03*
X181610000Y-85090000D03*
X181610000Y-87630000D03*
D11*
X133350000Y-77470000D03*
D13*
X133350000Y-80010000D03*
X133350000Y-82550000D03*
D14*
X121285000Y-81915000D03*
D15*
X121285000Y-84455000D03*
D14*
X121285000Y-88900000D03*
D15*
X121285000Y-91440000D03*
D12*
X127000000Y-85090000D03*
D13*
X127000000Y-80010000D03*
D12*
X127000000Y-92710000D03*
D13*
X127000000Y-87630000D03*
D16*
X120650000Y-76200000D03*
X195580000Y-76200000D03*
X195580000Y-116840000D03*
X120650000Y-116840000D03*
D12*
X133350000Y-95250000D03*
X130810000Y-95250000D03*
X128270000Y-95250000D03*
X125730000Y-95250000D03*
X130810000Y-118110000D03*
X128270000Y-118110000D03*
D17*
X176530000Y-93980000D03*
D12*
X176530000Y-96520000D03*
X179070000Y-93980000D03*
X179070000Y-96520000D03*
X181610000Y-93980000D03*
X181610000Y-96520000D03*
X184150000Y-93980000D03*
X184150000Y-96520000D03*
X186690000Y-93980000D03*
X186690000Y-96520000D03*
X156210000Y-93980000D03*
X156210000Y-96520000D03*
X158750000Y-93980000D03*
X158750000Y-96520000D03*
X161290000Y-93980000D03*
X161290000Y-96520000D03*
X163830000Y-93980000D03*
X163830000Y-96520000D03*
X166370000Y-93980000D03*
X166370000Y-96520000D03*
D11*
X184150000Y-101600000D03*
D12*
X181610000Y-101600000D03*
X179070000Y-101600000D03*
X176530000Y-101600000D03*
X173990000Y-101600000D03*
X171450000Y-101600000D03*
X168910000Y-101600000D03*
X166370000Y-101600000D03*
X163830000Y-101600000D03*
X161290000Y-101600000D03*
X158750000Y-101600000D03*
X156210000Y-101600000D03*
X156210000Y-116840000D03*
X158750000Y-116840000D03*
X161290000Y-116840000D03*
X163830000Y-116840000D03*
X166370000Y-116840000D03*
X168910000Y-116840000D03*
X171450000Y-116840000D03*
X173990000Y-116840000D03*
X176530000Y-116840000D03*
X179070000Y-116840000D03*
X181610000Y-116840000D03*
D18*
X170180000Y-96520000D03*
X173990000Y-107950000D03*
X154940000Y-104140000D03*
X175260000Y-106680000D03*
X154940000Y-102870000D03*
X154940000Y-99060000D03*
X177800000Y-99060000D03*
X135890000Y-93980000D03*
X147320000Y-96520000D03*
X147320000Y-90170000D03*
X147320000Y-85090000D03*
X160020000Y-85090000D03*
X149860000Y-96520000D03*
X149860000Y-90170000D03*
X149860000Y-83820000D03*
X161290000Y-83820000D03*
X173990000Y-104140000D03*
X185420000Y-104140000D03*
X137160000Y-97790000D03*
X130810000Y-97790000D03*
X156210000Y-86360000D03*
D19*
X170180000Y-96520000D02*
X176530000Y-96520000D01*
X158750000Y-107950000D02*
X173990000Y-107950000D01*
X154940000Y-104140000D02*
X158750000Y-107950000D01*
X158750000Y-106680000D02*
X175260000Y-106680000D01*
X154940000Y-102870000D02*
X158750000Y-106680000D01*
X154940000Y-99060000D02*
X177800000Y-99060000D01*
X133350000Y-95250000D02*
X134620000Y-95250000D01*
X134620000Y-95250000D02*
X135890000Y-93980000D01*
X147320000Y-90170000D02*
X147320000Y-96520000D01*
X160020000Y-85090000D02*
X147320000Y-85090000D01*
X149860000Y-90170000D02*
X149860000Y-96520000D01*
X161290000Y-83820000D02*
X149860000Y-83820000D01*
X186690000Y-96520000D02*
X186690000Y-97790000D01*
X179070000Y-99060000D02*
X176530000Y-101600000D01*
X185420000Y-99060000D02*
X179070000Y-99060000D01*
X186690000Y-97790000D02*
X185420000Y-99060000D01*
X185420000Y-104140000D02*
X173990000Y-104140000D01*
X121285000Y-84455000D02*
X123825000Y-84455000D01*
X124460000Y-85090000D02*
X127000000Y-85090000D01*
X123825000Y-84455000D02*
X124460000Y-85090000D01*
X121285000Y-91440000D02*
X123190000Y-91440000D01*
X124460000Y-92710000D02*
X127000000Y-92710000D01*
X123190000Y-91440000D02*
X124460000Y-92710000D01*
X130810000Y-97790000D02*
X137160000Y-97790000D01*
X127000000Y-87630000D02*
X128270000Y-87630000D01*
X129540000Y-86360000D02*
X156210000Y-86360000D01*
X128270000Y-87630000D02*
X129540000Y-86360000D01*
G36*
X137720000Y-78740000D02*
X137774046Y-79011705D01*
X137927954Y-79242046D01*
X138158295Y-79395954D01*
X138430000Y-79450000D01*
X152400000Y-79450000D01*
X152671705Y-79395954D01*
X152902046Y-79242046D01*
X153055954Y-79011705D01*
X153110000Y-78740000D01*
X153110000Y-74370000D01*
X184023000Y-74370000D01*
X184023000Y-87630000D01*
X184033006Y-87679410D01*
X184061447Y-87721035D01*
X184103841Y-87748315D01*
X184150000Y-87757000D01*
X185293000Y-87757000D01*
X185293000Y-91440000D01*
X185303006Y-91489410D01*
X185331447Y-91531035D01*
X185373841Y-91558315D01*
X185420000Y-91567000D01*
X187907394Y-91567000D01*
X189140197Y-92799803D01*
X189182211Y-92827666D01*
X189230000Y-92837000D01*
X197410000Y-92837000D01*
X197410000Y-100203000D01*
X187960000Y-100203000D01*
X187910590Y-100213006D01*
X187868965Y-100241447D01*
X187841685Y-100283841D01*
X187833000Y-100330000D01*
X187833000Y-102817394D01*
X186397802Y-104252592D01*
X186398069Y-103946337D01*
X186249507Y-103586788D01*
X185974659Y-103311460D01*
X185615370Y-103162270D01*
X185226337Y-103161931D01*
X184866788Y-103310493D01*
X184799163Y-103378000D01*
X174611083Y-103378000D01*
X174544659Y-103311460D01*
X174185370Y-103162270D01*
X173796337Y-103161931D01*
X173436788Y-103310493D01*
X173161460Y-103585341D01*
X173012270Y-103944630D01*
X173011931Y-104333663D01*
X173160493Y-104693212D01*
X173435341Y-104968540D01*
X173794630Y-105117730D01*
X174183663Y-105118069D01*
X174543212Y-104969507D01*
X174610837Y-104902000D01*
X184798917Y-104902000D01*
X184865341Y-104968540D01*
X185224630Y-105117730D01*
X185532396Y-105117998D01*
X185330197Y-105320197D01*
X185302334Y-105362211D01*
X185293000Y-105410000D01*
X185293000Y-118670000D01*
X153797000Y-118670000D01*
X153797000Y-117883958D01*
X155345647Y-117883958D01*
X155425920Y-118135259D01*
X155981279Y-118336718D01*
X156571458Y-118310315D01*
X156994080Y-118135259D01*
X157074353Y-117883958D01*
X156210000Y-117019605D01*
X155345647Y-117883958D01*
X153797000Y-117883958D01*
X153797000Y-116611279D01*
X154713282Y-116611279D01*
X154739685Y-117201458D01*
X154914741Y-117624080D01*
X155166042Y-117704353D01*
X156030395Y-116840000D01*
X156389605Y-116840000D01*
X157253958Y-117704353D01*
X157471640Y-117634819D01*
X157490344Y-117680086D01*
X157907717Y-118098188D01*
X158453319Y-118324742D01*
X159044089Y-118325257D01*
X159590086Y-118099656D01*
X160008188Y-117682283D01*
X160019748Y-117654443D01*
X160030344Y-117680086D01*
X160447717Y-118098188D01*
X160993319Y-118324742D01*
X161584089Y-118325257D01*
X162130086Y-118099656D01*
X162548188Y-117682283D01*
X162559748Y-117654443D01*
X162570344Y-117680086D01*
X162987717Y-118098188D01*
X163533319Y-118324742D01*
X164124089Y-118325257D01*
X164670086Y-118099656D01*
X165088188Y-117682283D01*
X165099748Y-117654443D01*
X165110344Y-117680086D01*
X165527717Y-118098188D01*
X166073319Y-118324742D01*
X166664089Y-118325257D01*
X167210086Y-118099656D01*
X167628188Y-117682283D01*
X167639748Y-117654443D01*
X167650344Y-117680086D01*
X168067717Y-118098188D01*
X168613319Y-118324742D01*
X169204089Y-118325257D01*
X169750086Y-118099656D01*
X170168188Y-117682283D01*
X170179748Y-117654443D01*
X170190344Y-117680086D01*
X170607717Y-118098188D01*
X171153319Y-118324742D01*
X171744089Y-118325257D01*
X172290086Y-118099656D01*
X172708188Y-117682283D01*
X172719748Y-117654443D01*
X172730344Y-117680086D01*
X173147717Y-118098188D01*
X173693319Y-118324742D01*
X174284089Y-118325257D01*
X174830086Y-118099656D01*
X175248188Y-117682283D01*
X175259748Y-117654443D01*
X175270344Y-117680086D01*
X175687717Y-118098188D01*
X176233319Y-118324742D01*
X176824089Y-118325257D01*
X177370086Y-118099656D01*
X177788188Y-117682283D01*
X177799748Y-117654443D01*
X177810344Y-117680086D01*
X178227717Y-118098188D01*
X178773319Y-118324742D01*
X179364089Y-118325257D01*
X179910086Y-118099656D01*
X180328188Y-117682283D01*
X180339748Y-117654443D01*
X180350344Y-117680086D01*
X180767717Y-118098188D01*
X181313319Y-118324742D01*
X181904089Y-118325257D01*
X182450086Y-118099656D01*
X182868188Y-117682283D01*
X183094742Y-117136681D01*
X183095257Y-116545911D01*
X182869656Y-115999914D01*
X182452283Y-115581812D01*
X181906681Y-115355258D01*
X181315911Y-115354743D01*
X180769914Y-115580344D01*
X180351812Y-115997717D01*
X180340252Y-116025557D01*
X180329656Y-115999914D01*
X179912283Y-115581812D01*
X179366681Y-115355258D01*
X178775911Y-115354743D01*
X178229914Y-115580344D01*
X177811812Y-115997717D01*
X177800252Y-116025557D01*
X177789656Y-115999914D01*
X177372283Y-115581812D01*
X176826681Y-115355258D01*
X176235911Y-115354743D01*
X175689914Y-115580344D01*
X175271812Y-115997717D01*
X175260252Y-116025557D01*
X175249656Y-115999914D01*
X174832283Y-115581812D01*
X174286681Y-115355258D01*
X173695911Y-115354743D01*
X173149914Y-115580344D01*
X172731812Y-115997717D01*
X172720252Y-116025557D01*
X172709656Y-115999914D01*
X172292283Y-115581812D01*
X171746681Y-115355258D01*
X171155911Y-115354743D01*
X170609914Y-115580344D01*
X170191812Y-115997717D01*
X170180252Y-116025557D01*
X170169656Y-115999914D01*
X169752283Y-115581812D01*
X169206681Y-115355258D01*
X168615911Y-115354743D01*
X168069914Y-115580344D01*
X167651812Y-115997717D01*
X167640252Y-116025557D01*
X167629656Y-115999914D01*
X167212283Y-115581812D01*
X166666681Y-115355258D01*
X166075911Y-115354743D01*
X165529914Y-115580344D01*
X165111812Y-115997717D01*
X165100252Y-116025557D01*
X165089656Y-115999914D01*
X164672283Y-115581812D01*
X164126681Y-115355258D01*
X163535911Y-115354743D01*
X162989914Y-115580344D01*
X162571812Y-115997717D01*
X162560252Y-116025557D01*
X162549656Y-115999914D01*
X162132283Y-115581812D01*
X161586681Y-115355258D01*
X160995911Y-115354743D01*
X160449914Y-115580344D01*
X160031812Y-115997717D01*
X160020252Y-116025557D01*
X160009656Y-115999914D01*
X159592283Y-115581812D01*
X159046681Y-115355258D01*
X158455911Y-115354743D01*
X157909914Y-115580344D01*
X157491812Y-115997717D01*
X157472049Y-116045312D01*
X157253958Y-115975647D01*
X156389605Y-116840000D01*
X156030395Y-116840000D01*
X155166042Y-115975647D01*
X154914741Y-116055920D01*
X154713282Y-116611279D01*
X153797000Y-116611279D01*
X153797000Y-115796042D01*
X155345647Y-115796042D01*
X156210000Y-116660395D01*
X157074353Y-115796042D01*
X156994080Y-115544741D01*
X156438721Y-115343282D01*
X155848542Y-115369685D01*
X155425920Y-115544741D01*
X155345647Y-115796042D01*
X153797000Y-115796042D01*
X153797000Y-114300000D01*
X153786994Y-114250590D01*
X153758553Y-114208965D01*
X153716159Y-114181685D01*
X153670000Y-114173000D01*
X151182606Y-114173000D01*
X149987000Y-112977394D01*
X149987000Y-111760000D01*
X149976994Y-111710590D01*
X149948553Y-111668965D01*
X149906159Y-111641685D01*
X149860000Y-111633000D01*
X142240000Y-111633000D01*
X142190590Y-111643006D01*
X142148965Y-111671447D01*
X142121685Y-111713841D01*
X142113000Y-111760000D01*
X142113000Y-112977394D01*
X140917394Y-114173000D01*
X138430000Y-114173000D01*
X138380590Y-114183006D01*
X138338965Y-114211447D01*
X138311685Y-114253841D01*
X138303000Y-114300000D01*
X138303000Y-118670000D01*
X132185402Y-118670000D01*
X132294742Y-118406681D01*
X132295257Y-117815911D01*
X132069656Y-117269914D01*
X131652283Y-116851812D01*
X131106681Y-116625258D01*
X130515911Y-116624743D01*
X129969914Y-116850344D01*
X129551812Y-117267717D01*
X129540252Y-117295557D01*
X129529656Y-117269914D01*
X129112283Y-116851812D01*
X128566681Y-116625258D01*
X127975911Y-116624743D01*
X127429914Y-116850344D01*
X127011812Y-117267717D01*
X126785258Y-117813319D01*
X126784743Y-118404089D01*
X126894615Y-118670000D01*
X122192650Y-118670000D01*
X122670726Y-118192758D01*
X123034585Y-117316487D01*
X123035413Y-116367675D01*
X122673084Y-115490771D01*
X122002758Y-114819274D01*
X121126487Y-114455415D01*
X120177675Y-114454587D01*
X119300771Y-114816916D01*
X118820000Y-115296849D01*
X118820000Y-110775750D01*
X169965000Y-110775750D01*
X169965000Y-111466309D01*
X170061673Y-111699698D01*
X170240301Y-111878327D01*
X170405858Y-111946903D01*
X170399946Y-111950853D01*
X170078039Y-112432622D01*
X169965000Y-113000907D01*
X169965000Y-113059093D01*
X170078039Y-113627378D01*
X170399946Y-114109147D01*
X170881715Y-114431054D01*
X171450000Y-114544093D01*
X172018285Y-114431054D01*
X172500054Y-114109147D01*
X172720000Y-113779974D01*
X172939946Y-114109147D01*
X173421715Y-114431054D01*
X173990000Y-114544093D01*
X174558285Y-114431054D01*
X175040054Y-114109147D01*
X175260000Y-113779974D01*
X175479946Y-114109147D01*
X175961715Y-114431054D01*
X176530000Y-114544093D01*
X177098285Y-114431054D01*
X177580054Y-114109147D01*
X177800000Y-113779974D01*
X178019946Y-114109147D01*
X178501715Y-114431054D01*
X179070000Y-114544093D01*
X179638285Y-114431054D01*
X180120054Y-114109147D01*
X180340000Y-113779974D01*
X180559946Y-114109147D01*
X181041715Y-114431054D01*
X181610000Y-114544093D01*
X182178285Y-114431054D01*
X182660054Y-114109147D01*
X182981961Y-113627378D01*
X183095000Y-113059093D01*
X183095000Y-113000907D01*
X182981961Y-112432622D01*
X182660054Y-111950853D01*
X182374422Y-111760000D01*
X182660054Y-111569147D01*
X182981961Y-111087378D01*
X183095000Y-110519093D01*
X183095000Y-110460907D01*
X182981961Y-109892622D01*
X182660054Y-109410853D01*
X182178285Y-109088946D01*
X181610000Y-108975907D01*
X181041715Y-109088946D01*
X180559946Y-109410853D01*
X180340000Y-109740026D01*
X180120054Y-109410853D01*
X179638285Y-109088946D01*
X179070000Y-108975907D01*
X178501715Y-109088946D01*
X178019946Y-109410853D01*
X177800000Y-109740026D01*
X177580054Y-109410853D01*
X177098285Y-109088946D01*
X176530000Y-108975907D01*
X175961715Y-109088946D01*
X175479946Y-109410853D01*
X175260000Y-109740026D01*
X175040054Y-109410853D01*
X174558285Y-109088946D01*
X173990000Y-108975907D01*
X173421715Y-109088946D01*
X172939946Y-109410853D01*
X172910597Y-109454777D01*
X172838327Y-109280302D01*
X172659699Y-109101673D01*
X172426310Y-109005000D01*
X171735750Y-109005000D01*
X171577000Y-109163750D01*
X171577000Y-110363000D01*
X171597000Y-110363000D01*
X171597000Y-110617000D01*
X171577000Y-110617000D01*
X171577000Y-110637000D01*
X171323000Y-110637000D01*
X171323000Y-110617000D01*
X170123750Y-110617000D01*
X169965000Y-110775750D01*
X118820000Y-110775750D01*
X118820000Y-109513691D01*
X169965000Y-109513691D01*
X169965000Y-110204250D01*
X170123750Y-110363000D01*
X171323000Y-110363000D01*
X171323000Y-109163750D01*
X171164250Y-109005000D01*
X170473690Y-109005000D01*
X170240301Y-109101673D01*
X170061673Y-109280302D01*
X169965000Y-109513691D01*
X118820000Y-109513691D01*
X118820000Y-103063663D01*
X153961931Y-103063663D01*
X154110493Y-103423212D01*
X154192040Y-103504901D01*
X154111460Y-103585341D01*
X153962270Y-103944630D01*
X153961931Y-104333663D01*
X154110493Y-104693212D01*
X154385341Y-104968540D01*
X154744630Y-105117730D01*
X154840183Y-105117813D01*
X158211185Y-108488816D01*
X158359377Y-108587834D01*
X158458395Y-108653996D01*
X158750000Y-108712000D01*
X173368917Y-108712000D01*
X173435341Y-108778540D01*
X173794630Y-108927730D01*
X174183663Y-108928069D01*
X174543212Y-108779507D01*
X174818540Y-108504659D01*
X174967730Y-108145370D01*
X174968069Y-107756337D01*
X174898889Y-107588908D01*
X175064630Y-107657730D01*
X175453663Y-107658069D01*
X175813212Y-107509507D01*
X176088540Y-107234659D01*
X176237730Y-106875370D01*
X176238069Y-106486337D01*
X176089507Y-106126788D01*
X175814659Y-105851460D01*
X175455370Y-105702270D01*
X175066337Y-105701931D01*
X174706788Y-105850493D01*
X174639163Y-105918000D01*
X159065631Y-105918000D01*
X156233083Y-103085453D01*
X156571458Y-103070315D01*
X156994080Y-102895259D01*
X157074353Y-102643958D01*
X156210000Y-101779605D01*
X156195858Y-101793748D01*
X156016253Y-101614143D01*
X156030395Y-101600000D01*
X155166042Y-100735647D01*
X154914741Y-100815920D01*
X154713282Y-101371279D01*
X154736752Y-101895892D01*
X154386788Y-102040493D01*
X154111460Y-102315341D01*
X153962270Y-102674630D01*
X153961931Y-103063663D01*
X118820000Y-103063663D01*
X118820000Y-100556042D01*
X155345647Y-100556042D01*
X156210000Y-101420395D01*
X157074353Y-100556042D01*
X156994080Y-100304741D01*
X156438721Y-100103282D01*
X155848542Y-100129685D01*
X155425920Y-100304741D01*
X155345647Y-100556042D01*
X118820000Y-100556042D01*
X118820000Y-99253663D01*
X153961931Y-99253663D01*
X154110493Y-99613212D01*
X154385341Y-99888540D01*
X154744630Y-100037730D01*
X155133663Y-100038069D01*
X155493212Y-99889507D01*
X155560837Y-99822000D01*
X177178917Y-99822000D01*
X177204621Y-99847749D01*
X176904711Y-100147659D01*
X176826681Y-100115258D01*
X176235911Y-100114743D01*
X175689914Y-100340344D01*
X175271812Y-100757717D01*
X175260252Y-100785557D01*
X175249656Y-100759914D01*
X174832283Y-100341812D01*
X174286681Y-100115258D01*
X173695911Y-100114743D01*
X173149914Y-100340344D01*
X172731812Y-100757717D01*
X172720252Y-100785557D01*
X172709656Y-100759914D01*
X172292283Y-100341812D01*
X171746681Y-100115258D01*
X171155911Y-100114743D01*
X170609914Y-100340344D01*
X170191812Y-100757717D01*
X170180252Y-100785557D01*
X170169656Y-100759914D01*
X169752283Y-100341812D01*
X169206681Y-100115258D01*
X168615911Y-100114743D01*
X168069914Y-100340344D01*
X167651812Y-100757717D01*
X167640252Y-100785557D01*
X167629656Y-100759914D01*
X167212283Y-100341812D01*
X166666681Y-100115258D01*
X166075911Y-100114743D01*
X165529914Y-100340344D01*
X165111812Y-100757717D01*
X165100252Y-100785557D01*
X165089656Y-100759914D01*
X164672283Y-100341812D01*
X164126681Y-100115258D01*
X163535911Y-100114743D01*
X162989914Y-100340344D01*
X162571812Y-100757717D01*
X162560252Y-100785557D01*
X162549656Y-100759914D01*
X162132283Y-100341812D01*
X161586681Y-100115258D01*
X160995911Y-100114743D01*
X160449914Y-100340344D01*
X160031812Y-100757717D01*
X160020252Y-100785557D01*
X160009656Y-100759914D01*
X159592283Y-100341812D01*
X159046681Y-100115258D01*
X158455911Y-100114743D01*
X157909914Y-100340344D01*
X157491812Y-100757717D01*
X157472049Y-100805312D01*
X157253958Y-100735647D01*
X156389605Y-101600000D01*
X157253958Y-102464353D01*
X157471640Y-102394819D01*
X157490344Y-102440086D01*
X157907717Y-102858188D01*
X158453319Y-103084742D01*
X159044089Y-103085257D01*
X159590086Y-102859656D01*
X160008188Y-102442283D01*
X160019748Y-102414443D01*
X160030344Y-102440086D01*
X160447717Y-102858188D01*
X160993319Y-103084742D01*
X161584089Y-103085257D01*
X162130086Y-102859656D01*
X162548188Y-102442283D01*
X162559748Y-102414443D01*
X162570344Y-102440086D01*
X162987717Y-102858188D01*
X163533319Y-103084742D01*
X164124089Y-103085257D01*
X164670086Y-102859656D01*
X165088188Y-102442283D01*
X165099748Y-102414443D01*
X165110344Y-102440086D01*
X165527717Y-102858188D01*
X166073319Y-103084742D01*
X166664089Y-103085257D01*
X167210086Y-102859656D01*
X167628188Y-102442283D01*
X167639748Y-102414443D01*
X167650344Y-102440086D01*
X168067717Y-102858188D01*
X168613319Y-103084742D01*
X169204089Y-103085257D01*
X169750086Y-102859656D01*
X170168188Y-102442283D01*
X170179748Y-102414443D01*
X170190344Y-102440086D01*
X170607717Y-102858188D01*
X171153319Y-103084742D01*
X171744089Y-103085257D01*
X172290086Y-102859656D01*
X172708188Y-102442283D01*
X172719748Y-102414443D01*
X172730344Y-102440086D01*
X173147717Y-102858188D01*
X173693319Y-103084742D01*
X174284089Y-103085257D01*
X174830086Y-102859656D01*
X175248188Y-102442283D01*
X175259748Y-102414443D01*
X175270344Y-102440086D01*
X175687717Y-102858188D01*
X176233319Y-103084742D01*
X176824089Y-103085257D01*
X177370086Y-102859656D01*
X177788188Y-102442283D01*
X177799748Y-102414443D01*
X177810344Y-102440086D01*
X178227717Y-102858188D01*
X178773319Y-103084742D01*
X179364089Y-103085257D01*
X179910086Y-102859656D01*
X180328188Y-102442283D01*
X180339748Y-102414443D01*
X180350344Y-102440086D01*
X180767717Y-102858188D01*
X181313319Y-103084742D01*
X181904089Y-103085257D01*
X182450086Y-102859656D01*
X182685164Y-102624988D01*
X182761673Y-102809698D01*
X182940301Y-102988327D01*
X183173690Y-103085000D01*
X183864250Y-103085000D01*
X184023000Y-102926250D01*
X184023000Y-101727000D01*
X184277000Y-101727000D01*
X184277000Y-102926250D01*
X184435750Y-103085000D01*
X185126310Y-103085000D01*
X185359699Y-102988327D01*
X185538327Y-102809698D01*
X185635000Y-102576309D01*
X185635000Y-101885750D01*
X185476250Y-101727000D01*
X184277000Y-101727000D01*
X184023000Y-101727000D01*
X184003000Y-101727000D01*
X184003000Y-101473000D01*
X184023000Y-101473000D01*
X184023000Y-100273750D01*
X184277000Y-100273750D01*
X184277000Y-101473000D01*
X185476250Y-101473000D01*
X185635000Y-101314250D01*
X185635000Y-100623691D01*
X185538327Y-100390302D01*
X185359699Y-100211673D01*
X185126310Y-100115000D01*
X184435750Y-100115000D01*
X184277000Y-100273750D01*
X184023000Y-100273750D01*
X183864250Y-100115000D01*
X183173690Y-100115000D01*
X182940301Y-100211673D01*
X182761673Y-100390302D01*
X182685138Y-100575074D01*
X182452283Y-100341812D01*
X181906681Y-100115258D01*
X181315911Y-100114743D01*
X180769914Y-100340344D01*
X180351812Y-100757717D01*
X180340252Y-100785557D01*
X180329656Y-100759914D01*
X179912283Y-100341812D01*
X179366681Y-100115258D01*
X179092612Y-100115019D01*
X179385631Y-99822000D01*
X185420000Y-99822000D01*
X185711605Y-99763996D01*
X185958815Y-99598815D01*
X187228815Y-98328816D01*
X187393996Y-98081605D01*
X187406903Y-98016718D01*
X187447249Y-97813883D01*
X187530086Y-97779656D01*
X187948188Y-97362283D01*
X188174742Y-96816681D01*
X188175257Y-96225911D01*
X187949656Y-95679914D01*
X187532283Y-95261812D01*
X187504443Y-95250252D01*
X187530086Y-95239656D01*
X187948188Y-94822283D01*
X188174742Y-94276681D01*
X188175257Y-93685911D01*
X187949656Y-93139914D01*
X187532283Y-92721812D01*
X186986681Y-92495258D01*
X186395911Y-92494743D01*
X185849914Y-92720344D01*
X185431812Y-93137717D01*
X185420252Y-93165557D01*
X185409656Y-93139914D01*
X184992283Y-92721812D01*
X184446681Y-92495258D01*
X183855911Y-92494743D01*
X183309914Y-92720344D01*
X182891812Y-93137717D01*
X182880252Y-93165557D01*
X182869656Y-93139914D01*
X182452283Y-92721812D01*
X181906681Y-92495258D01*
X181315911Y-92494743D01*
X180769914Y-92720344D01*
X180351812Y-93137717D01*
X180340252Y-93165557D01*
X180329656Y-93139914D01*
X179912283Y-92721812D01*
X179366681Y-92495258D01*
X178775911Y-92494743D01*
X178229914Y-92720344D01*
X177927000Y-93022730D01*
X177927000Y-93003691D01*
X177830327Y-92770302D01*
X177651699Y-92591673D01*
X177418310Y-92495000D01*
X176815750Y-92495000D01*
X176657000Y-92653750D01*
X176657000Y-93853000D01*
X176677000Y-93853000D01*
X176677000Y-94107000D01*
X176657000Y-94107000D01*
X176657000Y-94127000D01*
X176403000Y-94127000D01*
X176403000Y-94107000D01*
X175291750Y-94107000D01*
X175133000Y-94265750D01*
X175133000Y-94956309D01*
X175229673Y-95189698D01*
X175408301Y-95368327D01*
X175530880Y-95419101D01*
X175271812Y-95677717D01*
X175238476Y-95758000D01*
X170801083Y-95758000D01*
X170734659Y-95691460D01*
X170375370Y-95542270D01*
X169986337Y-95541931D01*
X169626788Y-95690493D01*
X169351460Y-95965341D01*
X169202270Y-96324630D01*
X169201931Y-96713663D01*
X169350493Y-97073212D01*
X169625341Y-97348540D01*
X169984630Y-97497730D01*
X170373663Y-97498069D01*
X170733212Y-97349507D01*
X170800837Y-97282000D01*
X175238080Y-97282000D01*
X175270344Y-97360086D01*
X175687717Y-97778188D01*
X176233319Y-98004742D01*
X176824089Y-98005257D01*
X177370086Y-97779656D01*
X177788188Y-97362283D01*
X177799748Y-97334443D01*
X177810344Y-97360086D01*
X178227717Y-97778188D01*
X178773319Y-98004742D01*
X179364089Y-98005257D01*
X179910086Y-97779656D01*
X180328188Y-97362283D01*
X180339748Y-97334443D01*
X180350344Y-97360086D01*
X180767717Y-97778188D01*
X181313319Y-98004742D01*
X181904089Y-98005257D01*
X182450086Y-97779656D01*
X182868188Y-97362283D01*
X182879748Y-97334443D01*
X182890344Y-97360086D01*
X183307717Y-97778188D01*
X183853319Y-98004742D01*
X184444089Y-98005257D01*
X184990086Y-97779656D01*
X185408188Y-97362283D01*
X185419748Y-97334443D01*
X185430344Y-97360086D01*
X185736047Y-97666323D01*
X185104370Y-98298000D01*
X179070000Y-98298000D01*
X178778395Y-98356004D01*
X178598787Y-98476014D01*
X178354659Y-98231460D01*
X177995370Y-98082270D01*
X177606337Y-98081931D01*
X177246788Y-98230493D01*
X177179163Y-98298000D01*
X155561083Y-98298000D01*
X155494659Y-98231460D01*
X155135370Y-98082270D01*
X154746337Y-98081931D01*
X154386788Y-98230493D01*
X154111460Y-98505341D01*
X153962270Y-98864630D01*
X153961931Y-99253663D01*
X118820000Y-99253663D01*
X118820000Y-97983663D01*
X129831931Y-97983663D01*
X129980493Y-98343212D01*
X130255341Y-98618540D01*
X130614630Y-98767730D01*
X131003663Y-98768069D01*
X131363212Y-98619507D01*
X131430837Y-98552000D01*
X136538917Y-98552000D01*
X136605341Y-98618540D01*
X136964630Y-98767730D01*
X137353663Y-98768069D01*
X137713212Y-98619507D01*
X137988540Y-98344659D01*
X138137730Y-97985370D01*
X138138069Y-97596337D01*
X138124691Y-97563958D01*
X155345647Y-97563958D01*
X155425920Y-97815259D01*
X155981279Y-98016718D01*
X156571458Y-97990315D01*
X156994080Y-97815259D01*
X157074353Y-97563958D01*
X156210000Y-96699605D01*
X155345647Y-97563958D01*
X138124691Y-97563958D01*
X137989507Y-97236788D01*
X137714659Y-96961460D01*
X137355370Y-96812270D01*
X136966337Y-96811931D01*
X136606788Y-96960493D01*
X136539163Y-97028000D01*
X131431083Y-97028000D01*
X131364659Y-96961460D01*
X131005370Y-96812270D01*
X130616337Y-96811931D01*
X130256788Y-96960493D01*
X129981460Y-97235341D01*
X129832270Y-97594630D01*
X129831931Y-97983663D01*
X118820000Y-97983663D01*
X118820000Y-91743991D01*
X119749735Y-91743991D01*
X119982932Y-92308371D01*
X120414357Y-92740551D01*
X120978330Y-92974733D01*
X121588991Y-92975265D01*
X122153371Y-92742068D01*
X122585551Y-92310643D01*
X122630664Y-92202000D01*
X122874370Y-92202000D01*
X123921184Y-93248815D01*
X124168395Y-93413996D01*
X124460000Y-93472000D01*
X125708080Y-93472000D01*
X125740344Y-93550086D01*
X125955079Y-93765196D01*
X125435911Y-93764743D01*
X124889914Y-93990344D01*
X124471812Y-94407717D01*
X124245258Y-94953319D01*
X124244743Y-95544089D01*
X124470344Y-96090086D01*
X124887717Y-96508188D01*
X125433319Y-96734742D01*
X126024089Y-96735257D01*
X126570086Y-96509656D01*
X126988188Y-96092283D01*
X126999748Y-96064443D01*
X127010344Y-96090086D01*
X127427717Y-96508188D01*
X127973319Y-96734742D01*
X128564089Y-96735257D01*
X129110086Y-96509656D01*
X129326160Y-96293958D01*
X129945647Y-96293958D01*
X130025920Y-96545259D01*
X130581279Y-96746718D01*
X131171458Y-96720315D01*
X131594080Y-96545259D01*
X131674353Y-96293958D01*
X130810000Y-95429605D01*
X129945647Y-96293958D01*
X129326160Y-96293958D01*
X129528188Y-96092283D01*
X129547951Y-96044688D01*
X129766042Y-96114353D01*
X130630395Y-95250000D01*
X130989605Y-95250000D01*
X131853958Y-96114353D01*
X132071640Y-96044819D01*
X132090344Y-96090086D01*
X132507717Y-96508188D01*
X133053319Y-96734742D01*
X133644089Y-96735257D01*
X134190086Y-96509656D01*
X134608188Y-96092283D01*
X134643462Y-96007333D01*
X134911605Y-95953996D01*
X135158815Y-95788815D01*
X135989644Y-94957987D01*
X136083663Y-94958069D01*
X136443212Y-94809507D01*
X136718540Y-94534659D01*
X136867730Y-94175370D01*
X136868069Y-93786337D01*
X136719507Y-93426788D01*
X136444659Y-93151460D01*
X136085370Y-93002270D01*
X135696337Y-93001931D01*
X135336788Y-93150493D01*
X135061460Y-93425341D01*
X134912270Y-93784630D01*
X134912187Y-93880183D01*
X134496155Y-94296215D01*
X134192283Y-93991812D01*
X133646681Y-93765258D01*
X133055911Y-93764743D01*
X132509914Y-93990344D01*
X132091812Y-94407717D01*
X132072049Y-94455312D01*
X131853958Y-94385647D01*
X130989605Y-95250000D01*
X130630395Y-95250000D01*
X129766042Y-94385647D01*
X129548360Y-94455181D01*
X129529656Y-94409914D01*
X129326140Y-94206042D01*
X129945647Y-94206042D01*
X130810000Y-95070395D01*
X131674353Y-94206042D01*
X131594080Y-93954741D01*
X131038721Y-93753282D01*
X130448542Y-93779685D01*
X130025920Y-93954741D01*
X129945647Y-94206042D01*
X129326140Y-94206042D01*
X129112283Y-93991812D01*
X128566681Y-93765258D01*
X128045296Y-93764803D01*
X128258188Y-93552283D01*
X128484742Y-93006681D01*
X128485257Y-92415911D01*
X128259656Y-91869914D01*
X127842283Y-91451812D01*
X127296681Y-91225258D01*
X126705911Y-91224743D01*
X126159914Y-91450344D01*
X125741812Y-91867717D01*
X125708476Y-91948000D01*
X124775631Y-91948000D01*
X123728815Y-90901185D01*
X123481605Y-90736004D01*
X123190000Y-90678000D01*
X122631020Y-90678000D01*
X122587068Y-90571629D01*
X122409908Y-90394159D01*
X122544699Y-90338327D01*
X122723327Y-90159698D01*
X122820000Y-89926309D01*
X122820000Y-89320000D01*
X130582560Y-89320000D01*
X130582560Y-91020000D01*
X130626838Y-91255317D01*
X130765910Y-91471441D01*
X130978110Y-91616431D01*
X131230000Y-91667440D01*
X132930000Y-91667440D01*
X133165317Y-91623162D01*
X133381441Y-91484090D01*
X133526431Y-91271890D01*
X133529416Y-91257148D01*
X133600938Y-91328670D01*
X133715648Y-91213960D01*
X133795920Y-91465259D01*
X134351279Y-91666718D01*
X134941458Y-91640315D01*
X135364080Y-91465259D01*
X135444353Y-91213958D01*
X134580000Y-90349605D01*
X134565858Y-90363748D01*
X134386253Y-90184143D01*
X134400395Y-90170000D01*
X134759605Y-90170000D01*
X135623958Y-91034353D01*
X135875259Y-90954080D01*
X136076718Y-90398721D01*
X136075150Y-90363663D01*
X146341931Y-90363663D01*
X146490493Y-90723212D01*
X146558000Y-90790837D01*
X146558000Y-95898917D01*
X146491460Y-95965341D01*
X146342270Y-96324630D01*
X146341931Y-96713663D01*
X146490493Y-97073212D01*
X146765341Y-97348540D01*
X147124630Y-97497730D01*
X147513663Y-97498069D01*
X147873212Y-97349507D01*
X148148540Y-97074659D01*
X148297730Y-96715370D01*
X148298069Y-96326337D01*
X148149507Y-95966788D01*
X148082000Y-95899163D01*
X148082000Y-90791083D01*
X148148540Y-90724659D01*
X148297730Y-90365370D01*
X148297731Y-90363663D01*
X148881931Y-90363663D01*
X149030493Y-90723212D01*
X149098000Y-90790837D01*
X149098000Y-95898917D01*
X149031460Y-95965341D01*
X148882270Y-96324630D01*
X148881931Y-96713663D01*
X149030493Y-97073212D01*
X149305341Y-97348540D01*
X149664630Y-97497730D01*
X150053663Y-97498069D01*
X150413212Y-97349507D01*
X150688540Y-97074659D01*
X150837730Y-96715370D01*
X150838069Y-96326337D01*
X150823584Y-96291279D01*
X154713282Y-96291279D01*
X154739685Y-96881458D01*
X154914741Y-97304080D01*
X155166042Y-97384353D01*
X156030395Y-96520000D01*
X155166042Y-95655647D01*
X154914741Y-95735920D01*
X154713282Y-96291279D01*
X150823584Y-96291279D01*
X150689507Y-95966788D01*
X150622000Y-95899163D01*
X150622000Y-94274089D01*
X154724743Y-94274089D01*
X154950344Y-94820086D01*
X155367717Y-95238188D01*
X155415312Y-95257951D01*
X155345647Y-95476042D01*
X156210000Y-96340395D01*
X157074353Y-95476042D01*
X157004819Y-95258360D01*
X157050086Y-95239656D01*
X157468188Y-94822283D01*
X157479748Y-94794443D01*
X157490344Y-94820086D01*
X157907717Y-95238188D01*
X157935557Y-95249748D01*
X157909914Y-95260344D01*
X157491812Y-95677717D01*
X157472049Y-95725312D01*
X157253958Y-95655647D01*
X156389605Y-96520000D01*
X157253958Y-97384353D01*
X157471640Y-97314819D01*
X157490344Y-97360086D01*
X157907717Y-97778188D01*
X158453319Y-98004742D01*
X159044089Y-98005257D01*
X159590086Y-97779656D01*
X160008188Y-97362283D01*
X160019748Y-97334443D01*
X160030344Y-97360086D01*
X160447717Y-97778188D01*
X160993319Y-98004742D01*
X161584089Y-98005257D01*
X162130086Y-97779656D01*
X162548188Y-97362283D01*
X162559748Y-97334443D01*
X162570344Y-97360086D01*
X162987717Y-97778188D01*
X163533319Y-98004742D01*
X164124089Y-98005257D01*
X164670086Y-97779656D01*
X165088188Y-97362283D01*
X165099748Y-97334443D01*
X165110344Y-97360086D01*
X165527717Y-97778188D01*
X166073319Y-98004742D01*
X166664089Y-98005257D01*
X167210086Y-97779656D01*
X167628188Y-97362283D01*
X167854742Y-96816681D01*
X167855257Y-96225911D01*
X167629656Y-95679914D01*
X167212283Y-95261812D01*
X167184443Y-95250252D01*
X167210086Y-95239656D01*
X167628188Y-94822283D01*
X167854742Y-94276681D01*
X167855257Y-93685911D01*
X167629656Y-93139914D01*
X167493671Y-93003691D01*
X175133000Y-93003691D01*
X175133000Y-93694250D01*
X175291750Y-93853000D01*
X176403000Y-93853000D01*
X176403000Y-92653750D01*
X176244250Y-92495000D01*
X175641690Y-92495000D01*
X175408301Y-92591673D01*
X175229673Y-92770302D01*
X175133000Y-93003691D01*
X167493671Y-93003691D01*
X167212283Y-92721812D01*
X166666681Y-92495258D01*
X166075911Y-92494743D01*
X165529914Y-92720344D01*
X165111812Y-93137717D01*
X165100252Y-93165557D01*
X165089656Y-93139914D01*
X164672283Y-92721812D01*
X164126681Y-92495258D01*
X163535911Y-92494743D01*
X162989914Y-92720344D01*
X162571812Y-93137717D01*
X162560252Y-93165557D01*
X162549656Y-93139914D01*
X162132283Y-92721812D01*
X161586681Y-92495258D01*
X160995911Y-92494743D01*
X160449914Y-92720344D01*
X160031812Y-93137717D01*
X160020252Y-93165557D01*
X160009656Y-93139914D01*
X159592283Y-92721812D01*
X159046681Y-92495258D01*
X158455911Y-92494743D01*
X157909914Y-92720344D01*
X157491812Y-93137717D01*
X157480252Y-93165557D01*
X157469656Y-93139914D01*
X157052283Y-92721812D01*
X156506681Y-92495258D01*
X155915911Y-92494743D01*
X155369914Y-92720344D01*
X154951812Y-93137717D01*
X154725258Y-93683319D01*
X154724743Y-94274089D01*
X150622000Y-94274089D01*
X150622000Y-90791083D01*
X150688540Y-90724659D01*
X150837730Y-90365370D01*
X150838069Y-89976337D01*
X150689507Y-89616788D01*
X150414659Y-89341460D01*
X150055370Y-89192270D01*
X149666337Y-89191931D01*
X149306788Y-89340493D01*
X149031460Y-89615341D01*
X148882270Y-89974630D01*
X148881931Y-90363663D01*
X148297731Y-90363663D01*
X148298069Y-89976337D01*
X148149507Y-89616788D01*
X147874659Y-89341460D01*
X147515370Y-89192270D01*
X147126337Y-89191931D01*
X146766788Y-89340493D01*
X146491460Y-89615341D01*
X146342270Y-89974630D01*
X146341931Y-90363663D01*
X136075150Y-90363663D01*
X136050315Y-89808542D01*
X135875259Y-89385920D01*
X135623958Y-89305647D01*
X134759605Y-90170000D01*
X134400395Y-90170000D01*
X134386253Y-90155858D01*
X134565858Y-89976253D01*
X134580000Y-89990395D01*
X135444353Y-89126042D01*
X135364080Y-88874741D01*
X134808721Y-88673282D01*
X134218542Y-88699685D01*
X133795920Y-88874741D01*
X133715648Y-89126040D01*
X133600938Y-89011330D01*
X133530978Y-89081290D01*
X133394090Y-88868559D01*
X133181890Y-88723569D01*
X132930000Y-88672560D01*
X131230000Y-88672560D01*
X130994683Y-88716838D01*
X130778559Y-88855910D01*
X130633569Y-89068110D01*
X130582560Y-89320000D01*
X122820000Y-89320000D01*
X122820000Y-89185750D01*
X122661250Y-89027000D01*
X121412000Y-89027000D01*
X121412000Y-89047000D01*
X121158000Y-89047000D01*
X121158000Y-89027000D01*
X119908750Y-89027000D01*
X119750000Y-89185750D01*
X119750000Y-89926309D01*
X119846673Y-90159698D01*
X120025301Y-90338327D01*
X120159994Y-90394119D01*
X119984449Y-90569357D01*
X119750267Y-91133330D01*
X119749735Y-91743991D01*
X118820000Y-91743991D01*
X118820000Y-87873691D01*
X119750000Y-87873691D01*
X119750000Y-88614250D01*
X119908750Y-88773000D01*
X121158000Y-88773000D01*
X121158000Y-87523750D01*
X121412000Y-87523750D01*
X121412000Y-88773000D01*
X122661250Y-88773000D01*
X122820000Y-88614250D01*
X122820000Y-87873691D01*
X122723327Y-87640302D01*
X122544699Y-87461673D01*
X122311310Y-87365000D01*
X121570750Y-87365000D01*
X121412000Y-87523750D01*
X121158000Y-87523750D01*
X120999250Y-87365000D01*
X120258690Y-87365000D01*
X120025301Y-87461673D01*
X119846673Y-87640302D01*
X119750000Y-87873691D01*
X118820000Y-87873691D01*
X118820000Y-84758991D01*
X119749735Y-84758991D01*
X119982932Y-85323371D01*
X120414357Y-85755551D01*
X120978330Y-85989733D01*
X121588991Y-85990265D01*
X122153371Y-85757068D01*
X122585551Y-85325643D01*
X122630664Y-85217000D01*
X123509370Y-85217000D01*
X123921185Y-85628816D01*
X124008830Y-85687378D01*
X124168395Y-85793996D01*
X124460000Y-85852000D01*
X125708080Y-85852000D01*
X125740344Y-85930086D01*
X126157717Y-86348188D01*
X126216639Y-86372655D01*
X125949946Y-86550853D01*
X125628039Y-87032622D01*
X125515000Y-87600907D01*
X125515000Y-87659093D01*
X125628039Y-88227378D01*
X125949946Y-88709147D01*
X126431715Y-89031054D01*
X127000000Y-89144093D01*
X127568285Y-89031054D01*
X128050054Y-88709147D01*
X128261964Y-88392000D01*
X128270000Y-88392000D01*
X128561605Y-88333996D01*
X128808815Y-88168815D01*
X129855631Y-87122000D01*
X155588917Y-87122000D01*
X155655341Y-87188540D01*
X156014630Y-87337730D01*
X156403663Y-87338069D01*
X156763212Y-87189507D01*
X157038540Y-86914659D01*
X157187730Y-86555370D01*
X157188069Y-86166337D01*
X157058188Y-85852000D01*
X159398917Y-85852000D01*
X159465341Y-85918540D01*
X159824630Y-86067730D01*
X160213663Y-86068069D01*
X160573212Y-85919507D01*
X160848540Y-85644659D01*
X160960200Y-85375750D01*
X169965000Y-85375750D01*
X169965000Y-86066309D01*
X170061673Y-86299698D01*
X170240301Y-86478327D01*
X170405858Y-86546903D01*
X170399946Y-86550853D01*
X170078039Y-87032622D01*
X169965000Y-87600907D01*
X169965000Y-87659093D01*
X170078039Y-88227378D01*
X170399946Y-88709147D01*
X170881715Y-89031054D01*
X171450000Y-89144093D01*
X172018285Y-89031054D01*
X172500054Y-88709147D01*
X172720000Y-88379974D01*
X172939946Y-88709147D01*
X173421715Y-89031054D01*
X173990000Y-89144093D01*
X174558285Y-89031054D01*
X175040054Y-88709147D01*
X175260000Y-88379974D01*
X175479946Y-88709147D01*
X175961715Y-89031054D01*
X176530000Y-89144093D01*
X177098285Y-89031054D01*
X177580054Y-88709147D01*
X177800000Y-88379974D01*
X178019946Y-88709147D01*
X178501715Y-89031054D01*
X179070000Y-89144093D01*
X179638285Y-89031054D01*
X180120054Y-88709147D01*
X180340000Y-88379974D01*
X180559946Y-88709147D01*
X181041715Y-89031054D01*
X181610000Y-89144093D01*
X182178285Y-89031054D01*
X182660054Y-88709147D01*
X182981961Y-88227378D01*
X183095000Y-87659093D01*
X183095000Y-87600907D01*
X182981961Y-87032622D01*
X182660054Y-86550853D01*
X182374422Y-86360000D01*
X182660054Y-86169147D01*
X182981961Y-85687378D01*
X183095000Y-85119093D01*
X183095000Y-85060907D01*
X182981961Y-84492622D01*
X182660054Y-84010853D01*
X182178285Y-83688946D01*
X181610000Y-83575907D01*
X181041715Y-83688946D01*
X180559946Y-84010853D01*
X180340000Y-84340026D01*
X180120054Y-84010853D01*
X179638285Y-83688946D01*
X179070000Y-83575907D01*
X178501715Y-83688946D01*
X178019946Y-84010853D01*
X177800000Y-84340026D01*
X177580054Y-84010853D01*
X177098285Y-83688946D01*
X176530000Y-83575907D01*
X175961715Y-83688946D01*
X175479946Y-84010853D01*
X175260000Y-84340026D01*
X175040054Y-84010853D01*
X174558285Y-83688946D01*
X173990000Y-83575907D01*
X173421715Y-83688946D01*
X172939946Y-84010853D01*
X172910597Y-84054777D01*
X172838327Y-83880302D01*
X172659699Y-83701673D01*
X172426310Y-83605000D01*
X171735750Y-83605000D01*
X171577000Y-83763750D01*
X171577000Y-84963000D01*
X171597000Y-84963000D01*
X171597000Y-85217000D01*
X171577000Y-85217000D01*
X171577000Y-85237000D01*
X171323000Y-85237000D01*
X171323000Y-85217000D01*
X170123750Y-85217000D01*
X169965000Y-85375750D01*
X160960200Y-85375750D01*
X160997730Y-85285370D01*
X160998069Y-84896337D01*
X160928889Y-84728908D01*
X161094630Y-84797730D01*
X161483663Y-84798069D01*
X161843212Y-84649507D01*
X162118540Y-84374659D01*
X162226903Y-84113691D01*
X169965000Y-84113691D01*
X169965000Y-84804250D01*
X170123750Y-84963000D01*
X171323000Y-84963000D01*
X171323000Y-83763750D01*
X171164250Y-83605000D01*
X170473690Y-83605000D01*
X170240301Y-83701673D01*
X170061673Y-83880302D01*
X169965000Y-84113691D01*
X162226903Y-84113691D01*
X162267730Y-84015370D01*
X162268069Y-83626337D01*
X162119507Y-83266788D01*
X161844659Y-82991460D01*
X161485370Y-82842270D01*
X161096337Y-82841931D01*
X160736788Y-82990493D01*
X160669163Y-83058000D01*
X150481083Y-83058000D01*
X150414659Y-82991460D01*
X150055370Y-82842270D01*
X149666337Y-82841931D01*
X149306788Y-82990493D01*
X149031460Y-83265341D01*
X148882270Y-83624630D01*
X148881931Y-84013663D01*
X149011812Y-84328000D01*
X147941083Y-84328000D01*
X147874659Y-84261460D01*
X147515370Y-84112270D01*
X147126337Y-84111931D01*
X146766788Y-84260493D01*
X146491460Y-84535341D01*
X146342270Y-84894630D01*
X146341931Y-85283663D01*
X146471812Y-85598000D01*
X129540000Y-85598000D01*
X129248395Y-85656004D01*
X129001184Y-85821185D01*
X128138759Y-86683610D01*
X128050054Y-86550853D01*
X127783767Y-86372926D01*
X127840086Y-86349656D01*
X128258188Y-85932283D01*
X128484742Y-85386681D01*
X128485257Y-84795911D01*
X128259656Y-84249914D01*
X127842283Y-83831812D01*
X127296681Y-83605258D01*
X126705911Y-83604743D01*
X126159914Y-83830344D01*
X125741812Y-84247717D01*
X125708476Y-84328000D01*
X124775631Y-84328000D01*
X124363815Y-83916185D01*
X124219864Y-83820000D01*
X124116605Y-83751004D01*
X123825000Y-83693000D01*
X122631020Y-83693000D01*
X122587068Y-83586629D01*
X122409908Y-83409159D01*
X122544699Y-83353327D01*
X122723327Y-83174698D01*
X122820000Y-82941309D01*
X122820000Y-82200750D01*
X122661250Y-82042000D01*
X121412000Y-82042000D01*
X121412000Y-82062000D01*
X121158000Y-82062000D01*
X121158000Y-82042000D01*
X119908750Y-82042000D01*
X119750000Y-82200750D01*
X119750000Y-82941309D01*
X119846673Y-83174698D01*
X120025301Y-83353327D01*
X120159994Y-83409119D01*
X119984449Y-83584357D01*
X119750267Y-84148330D01*
X119749735Y-84758991D01*
X118820000Y-84758991D01*
X118820000Y-80888691D01*
X119750000Y-80888691D01*
X119750000Y-81629250D01*
X119908750Y-81788000D01*
X121158000Y-81788000D01*
X121158000Y-80538750D01*
X121412000Y-80538750D01*
X121412000Y-81788000D01*
X122661250Y-81788000D01*
X122820000Y-81629250D01*
X122820000Y-80888691D01*
X122723327Y-80655302D01*
X122544699Y-80476673D01*
X122311310Y-80380000D01*
X121570750Y-80380000D01*
X121412000Y-80538750D01*
X121158000Y-80538750D01*
X120999250Y-80380000D01*
X120258690Y-80380000D01*
X120025301Y-80476673D01*
X119846673Y-80655302D01*
X119750000Y-80888691D01*
X118820000Y-80888691D01*
X118820000Y-79980907D01*
X125515000Y-79980907D01*
X125515000Y-80039093D01*
X125628039Y-80607378D01*
X125949946Y-81089147D01*
X126431715Y-81411054D01*
X127000000Y-81524093D01*
X127568285Y-81411054D01*
X128050054Y-81089147D01*
X128371961Y-80607378D01*
X128485000Y-80039093D01*
X128485000Y-80010000D01*
X131835907Y-80010000D01*
X131948946Y-80578285D01*
X132270853Y-81060054D01*
X132600026Y-81280000D01*
X132270853Y-81499946D01*
X131948946Y-81981715D01*
X131835907Y-82550000D01*
X131948946Y-83118285D01*
X132270853Y-83600054D01*
X132752622Y-83921961D01*
X133320907Y-84035000D01*
X133379093Y-84035000D01*
X133947378Y-83921961D01*
X134429147Y-83600054D01*
X134751054Y-83118285D01*
X134864093Y-82550000D01*
X134751054Y-81981715D01*
X134429147Y-81499946D01*
X134099974Y-81280000D01*
X134429147Y-81060054D01*
X134751054Y-80578285D01*
X134864093Y-80010000D01*
X134751054Y-79441715D01*
X134429147Y-78959946D01*
X134385223Y-78930597D01*
X134559698Y-78858327D01*
X134738327Y-78679699D01*
X134835000Y-78446310D01*
X134835000Y-77755750D01*
X134676250Y-77597000D01*
X133477000Y-77597000D01*
X133477000Y-77617000D01*
X133223000Y-77617000D01*
X133223000Y-77597000D01*
X132023750Y-77597000D01*
X131865000Y-77755750D01*
X131865000Y-78446310D01*
X131961673Y-78679699D01*
X132140302Y-78858327D01*
X132314777Y-78930597D01*
X132270853Y-78959946D01*
X131948946Y-79441715D01*
X131835907Y-80010000D01*
X128485000Y-80010000D01*
X128485000Y-79980907D01*
X128371961Y-79412622D01*
X128050054Y-78930853D01*
X127568285Y-78608946D01*
X127000000Y-78495907D01*
X126431715Y-78608946D01*
X125949946Y-78930853D01*
X125628039Y-79412622D01*
X125515000Y-79980907D01*
X118820000Y-79980907D01*
X118820000Y-77742650D01*
X119297242Y-78220726D01*
X120173513Y-78584585D01*
X121122325Y-78585413D01*
X121999229Y-78223084D01*
X122670726Y-77552758D01*
X123034585Y-76676487D01*
X123034744Y-76493690D01*
X131865000Y-76493690D01*
X131865000Y-77184250D01*
X132023750Y-77343000D01*
X133223000Y-77343000D01*
X133223000Y-76143750D01*
X133477000Y-76143750D01*
X133477000Y-77343000D01*
X134676250Y-77343000D01*
X134835000Y-77184250D01*
X134835000Y-76493690D01*
X134738327Y-76260301D01*
X134559698Y-76081673D01*
X134326309Y-75985000D01*
X133635750Y-75985000D01*
X133477000Y-76143750D01*
X133223000Y-76143750D01*
X133064250Y-75985000D01*
X132373691Y-75985000D01*
X132140302Y-76081673D01*
X131961673Y-76260301D01*
X131865000Y-76493690D01*
X123034744Y-76493690D01*
X123035413Y-75727675D01*
X122673084Y-74850771D01*
X122193151Y-74370000D01*
X137720000Y-74370000D01*
X137720000Y-78740000D01*
X137720000Y-78740000D01*
G37*
X137720000Y-78740000D02*
X137774046Y-79011705D01*
X137927954Y-79242046D01*
X138158295Y-79395954D01*
X138430000Y-79450000D01*
X152400000Y-79450000D01*
X152671705Y-79395954D01*
X152902046Y-79242046D01*
X153055954Y-79011705D01*
X153110000Y-78740000D01*
X153110000Y-74370000D01*
X184023000Y-74370000D01*
X184023000Y-87630000D01*
X184033006Y-87679410D01*
X184061447Y-87721035D01*
X184103841Y-87748315D01*
X184150000Y-87757000D01*
X185293000Y-87757000D01*
X185293000Y-91440000D01*
X185303006Y-91489410D01*
X185331447Y-91531035D01*
X185373841Y-91558315D01*
X185420000Y-91567000D01*
X187907394Y-91567000D01*
X189140197Y-92799803D01*
X189182211Y-92827666D01*
X189230000Y-92837000D01*
X197410000Y-92837000D01*
X197410000Y-100203000D01*
X187960000Y-100203000D01*
X187910590Y-100213006D01*
X187868965Y-100241447D01*
X187841685Y-100283841D01*
X187833000Y-100330000D01*
X187833000Y-102817394D01*
X186397802Y-104252592D01*
X186398069Y-103946337D01*
X186249507Y-103586788D01*
X185974659Y-103311460D01*
X185615370Y-103162270D01*
X185226337Y-103161931D01*
X184866788Y-103310493D01*
X184799163Y-103378000D01*
X174611083Y-103378000D01*
X174544659Y-103311460D01*
X174185370Y-103162270D01*
X173796337Y-103161931D01*
X173436788Y-103310493D01*
X173161460Y-103585341D01*
X173012270Y-103944630D01*
X173011931Y-104333663D01*
X173160493Y-104693212D01*
X173435341Y-104968540D01*
X173794630Y-105117730D01*
X174183663Y-105118069D01*
X174543212Y-104969507D01*
X174610837Y-104902000D01*
X184798917Y-104902000D01*
X184865341Y-104968540D01*
X185224630Y-105117730D01*
X185532396Y-105117998D01*
X185330197Y-105320197D01*
X185302334Y-105362211D01*
X185293000Y-105410000D01*
X185293000Y-118670000D01*
X153797000Y-118670000D01*
X153797000Y-117883958D01*
X155345647Y-117883958D01*
X155425920Y-118135259D01*
X155981279Y-118336718D01*
X156571458Y-118310315D01*
X156994080Y-118135259D01*
X157074353Y-117883958D01*
X156210000Y-117019605D01*
X155345647Y-117883958D01*
X153797000Y-117883958D01*
X153797000Y-116611279D01*
X154713282Y-116611279D01*
X154739685Y-117201458D01*
X154914741Y-117624080D01*
X155166042Y-117704353D01*
X156030395Y-116840000D01*
X156389605Y-116840000D01*
X157253958Y-117704353D01*
X157471640Y-117634819D01*
X157490344Y-117680086D01*
X157907717Y-118098188D01*
X158453319Y-118324742D01*
X159044089Y-118325257D01*
X159590086Y-118099656D01*
X160008188Y-117682283D01*
X160019748Y-117654443D01*
X160030344Y-117680086D01*
X160447717Y-118098188D01*
X160993319Y-118324742D01*
X161584089Y-118325257D01*
X162130086Y-118099656D01*
X162548188Y-117682283D01*
X162559748Y-117654443D01*
X162570344Y-117680086D01*
X162987717Y-118098188D01*
X163533319Y-118324742D01*
X164124089Y-118325257D01*
X164670086Y-118099656D01*
X165088188Y-117682283D01*
X165099748Y-117654443D01*
X165110344Y-117680086D01*
X165527717Y-118098188D01*
X166073319Y-118324742D01*
X166664089Y-118325257D01*
X167210086Y-118099656D01*
X167628188Y-117682283D01*
X167639748Y-117654443D01*
X167650344Y-117680086D01*
X168067717Y-118098188D01*
X168613319Y-118324742D01*
X169204089Y-118325257D01*
X169750086Y-118099656D01*
X170168188Y-117682283D01*
X170179748Y-117654443D01*
X170190344Y-117680086D01*
X170607717Y-118098188D01*
X171153319Y-118324742D01*
X171744089Y-118325257D01*
X172290086Y-118099656D01*
X172708188Y-117682283D01*
X172719748Y-117654443D01*
X172730344Y-117680086D01*
X173147717Y-118098188D01*
X173693319Y-118324742D01*
X174284089Y-118325257D01*
X174830086Y-118099656D01*
X175248188Y-117682283D01*
X175259748Y-117654443D01*
X175270344Y-117680086D01*
X175687717Y-118098188D01*
X176233319Y-118324742D01*
X176824089Y-118325257D01*
X177370086Y-118099656D01*
X177788188Y-117682283D01*
X177799748Y-117654443D01*
X177810344Y-117680086D01*
X178227717Y-118098188D01*
X178773319Y-118324742D01*
X179364089Y-118325257D01*
X179910086Y-118099656D01*
X180328188Y-117682283D01*
X180339748Y-117654443D01*
X180350344Y-117680086D01*
X180767717Y-118098188D01*
X181313319Y-118324742D01*
X181904089Y-118325257D01*
X182450086Y-118099656D01*
X182868188Y-117682283D01*
X183094742Y-117136681D01*
X183095257Y-116545911D01*
X182869656Y-115999914D01*
X182452283Y-115581812D01*
X181906681Y-115355258D01*
X181315911Y-115354743D01*
X180769914Y-115580344D01*
X180351812Y-115997717D01*
X180340252Y-116025557D01*
X180329656Y-115999914D01*
X179912283Y-115581812D01*
X179366681Y-115355258D01*
X178775911Y-115354743D01*
X178229914Y-115580344D01*
X177811812Y-115997717D01*
X177800252Y-116025557D01*
X177789656Y-115999914D01*
X177372283Y-115581812D01*
X176826681Y-115355258D01*
X176235911Y-115354743D01*
X175689914Y-115580344D01*
X175271812Y-115997717D01*
X175260252Y-116025557D01*
X175249656Y-115999914D01*
X174832283Y-115581812D01*
X174286681Y-115355258D01*
X173695911Y-115354743D01*
X173149914Y-115580344D01*
X172731812Y-115997717D01*
X172720252Y-116025557D01*
X172709656Y-115999914D01*
X172292283Y-115581812D01*
X171746681Y-115355258D01*
X171155911Y-115354743D01*
X170609914Y-115580344D01*
X170191812Y-115997717D01*
X170180252Y-116025557D01*
X170169656Y-115999914D01*
X169752283Y-115581812D01*
X169206681Y-115355258D01*
X168615911Y-115354743D01*
X168069914Y-115580344D01*
X167651812Y-115997717D01*
X167640252Y-116025557D01*
X167629656Y-115999914D01*
X167212283Y-115581812D01*
X166666681Y-115355258D01*
X166075911Y-115354743D01*
X165529914Y-115580344D01*
X165111812Y-115997717D01*
X165100252Y-116025557D01*
X165089656Y-115999914D01*
X164672283Y-115581812D01*
X164126681Y-115355258D01*
X163535911Y-115354743D01*
X162989914Y-115580344D01*
X162571812Y-115997717D01*
X162560252Y-116025557D01*
X162549656Y-115999914D01*
X162132283Y-115581812D01*
X161586681Y-115355258D01*
X160995911Y-115354743D01*
X160449914Y-115580344D01*
X160031812Y-115997717D01*
X160020252Y-116025557D01*
X160009656Y-115999914D01*
X159592283Y-115581812D01*
X159046681Y-115355258D01*
X158455911Y-115354743D01*
X157909914Y-115580344D01*
X157491812Y-115997717D01*
X157472049Y-116045312D01*
X157253958Y-115975647D01*
X156389605Y-116840000D01*
X156030395Y-116840000D01*
X155166042Y-115975647D01*
X154914741Y-116055920D01*
X154713282Y-116611279D01*
X153797000Y-116611279D01*
X153797000Y-115796042D01*
X155345647Y-115796042D01*
X156210000Y-116660395D01*
X157074353Y-115796042D01*
X156994080Y-115544741D01*
X156438721Y-115343282D01*
X155848542Y-115369685D01*
X155425920Y-115544741D01*
X155345647Y-115796042D01*
X153797000Y-115796042D01*
X153797000Y-114300000D01*
X153786994Y-114250590D01*
X153758553Y-114208965D01*
X153716159Y-114181685D01*
X153670000Y-114173000D01*
X151182606Y-114173000D01*
X149987000Y-112977394D01*
X149987000Y-111760000D01*
X149976994Y-111710590D01*
X149948553Y-111668965D01*
X149906159Y-111641685D01*
X149860000Y-111633000D01*
X142240000Y-111633000D01*
X142190590Y-111643006D01*
X142148965Y-111671447D01*
X142121685Y-111713841D01*
X142113000Y-111760000D01*
X142113000Y-112977394D01*
X140917394Y-114173000D01*
X138430000Y-114173000D01*
X138380590Y-114183006D01*
X138338965Y-114211447D01*
X138311685Y-114253841D01*
X138303000Y-114300000D01*
X138303000Y-118670000D01*
X132185402Y-118670000D01*
X132294742Y-118406681D01*
X132295257Y-117815911D01*
X132069656Y-117269914D01*
X131652283Y-116851812D01*
X131106681Y-116625258D01*
X130515911Y-116624743D01*
X129969914Y-116850344D01*
X129551812Y-117267717D01*
X129540252Y-117295557D01*
X129529656Y-117269914D01*
X129112283Y-116851812D01*
X128566681Y-116625258D01*
X127975911Y-116624743D01*
X127429914Y-116850344D01*
X127011812Y-117267717D01*
X126785258Y-117813319D01*
X126784743Y-118404089D01*
X126894615Y-118670000D01*
X122192650Y-118670000D01*
X122670726Y-118192758D01*
X123034585Y-117316487D01*
X123035413Y-116367675D01*
X122673084Y-115490771D01*
X122002758Y-114819274D01*
X121126487Y-114455415D01*
X120177675Y-114454587D01*
X119300771Y-114816916D01*
X118820000Y-115296849D01*
X118820000Y-110775750D01*
X169965000Y-110775750D01*
X169965000Y-111466309D01*
X170061673Y-111699698D01*
X170240301Y-111878327D01*
X170405858Y-111946903D01*
X170399946Y-111950853D01*
X170078039Y-112432622D01*
X169965000Y-113000907D01*
X169965000Y-113059093D01*
X170078039Y-113627378D01*
X170399946Y-114109147D01*
X170881715Y-114431054D01*
X171450000Y-114544093D01*
X172018285Y-114431054D01*
X172500054Y-114109147D01*
X172720000Y-113779974D01*
X172939946Y-114109147D01*
X173421715Y-114431054D01*
X173990000Y-114544093D01*
X174558285Y-114431054D01*
X175040054Y-114109147D01*
X175260000Y-113779974D01*
X175479946Y-114109147D01*
X175961715Y-114431054D01*
X176530000Y-114544093D01*
X177098285Y-114431054D01*
X177580054Y-114109147D01*
X177800000Y-113779974D01*
X178019946Y-114109147D01*
X178501715Y-114431054D01*
X179070000Y-114544093D01*
X179638285Y-114431054D01*
X180120054Y-114109147D01*
X180340000Y-113779974D01*
X180559946Y-114109147D01*
X181041715Y-114431054D01*
X181610000Y-114544093D01*
X182178285Y-114431054D01*
X182660054Y-114109147D01*
X182981961Y-113627378D01*
X183095000Y-113059093D01*
X183095000Y-113000907D01*
X182981961Y-112432622D01*
X182660054Y-111950853D01*
X182374422Y-111760000D01*
X182660054Y-111569147D01*
X182981961Y-111087378D01*
X183095000Y-110519093D01*
X183095000Y-110460907D01*
X182981961Y-109892622D01*
X182660054Y-109410853D01*
X182178285Y-109088946D01*
X181610000Y-108975907D01*
X181041715Y-109088946D01*
X180559946Y-109410853D01*
X180340000Y-109740026D01*
X180120054Y-109410853D01*
X179638285Y-109088946D01*
X179070000Y-108975907D01*
X178501715Y-109088946D01*
X178019946Y-109410853D01*
X177800000Y-109740026D01*
X177580054Y-109410853D01*
X177098285Y-109088946D01*
X176530000Y-108975907D01*
X175961715Y-109088946D01*
X175479946Y-109410853D01*
X175260000Y-109740026D01*
X175040054Y-109410853D01*
X174558285Y-109088946D01*
X173990000Y-108975907D01*
X173421715Y-109088946D01*
X172939946Y-109410853D01*
X172910597Y-109454777D01*
X172838327Y-109280302D01*
X172659699Y-109101673D01*
X172426310Y-109005000D01*
X171735750Y-109005000D01*
X171577000Y-109163750D01*
X171577000Y-110363000D01*
X171597000Y-110363000D01*
X171597000Y-110617000D01*
X171577000Y-110617000D01*
X171577000Y-110637000D01*
X171323000Y-110637000D01*
X171323000Y-110617000D01*
X170123750Y-110617000D01*
X169965000Y-110775750D01*
X118820000Y-110775750D01*
X118820000Y-109513691D01*
X169965000Y-109513691D01*
X169965000Y-110204250D01*
X170123750Y-110363000D01*
X171323000Y-110363000D01*
X171323000Y-109163750D01*
X171164250Y-109005000D01*
X170473690Y-109005000D01*
X170240301Y-109101673D01*
X170061673Y-109280302D01*
X169965000Y-109513691D01*
X118820000Y-109513691D01*
X118820000Y-103063663D01*
X153961931Y-103063663D01*
X154110493Y-103423212D01*
X154192040Y-103504901D01*
X154111460Y-103585341D01*
X153962270Y-103944630D01*
X153961931Y-104333663D01*
X154110493Y-104693212D01*
X154385341Y-104968540D01*
X154744630Y-105117730D01*
X154840183Y-105117813D01*
X158211185Y-108488816D01*
X158359377Y-108587834D01*
X158458395Y-108653996D01*
X158750000Y-108712000D01*
X173368917Y-108712000D01*
X173435341Y-108778540D01*
X173794630Y-108927730D01*
X174183663Y-108928069D01*
X174543212Y-108779507D01*
X174818540Y-108504659D01*
X174967730Y-108145370D01*
X174968069Y-107756337D01*
X174898889Y-107588908D01*
X175064630Y-107657730D01*
X175453663Y-107658069D01*
X175813212Y-107509507D01*
X176088540Y-107234659D01*
X176237730Y-106875370D01*
X176238069Y-106486337D01*
X176089507Y-106126788D01*
X175814659Y-105851460D01*
X175455370Y-105702270D01*
X175066337Y-105701931D01*
X174706788Y-105850493D01*
X174639163Y-105918000D01*
X159065631Y-105918000D01*
X156233083Y-103085453D01*
X156571458Y-103070315D01*
X156994080Y-102895259D01*
X157074353Y-102643958D01*
X156210000Y-101779605D01*
X156195858Y-101793748D01*
X156016253Y-101614143D01*
X156030395Y-101600000D01*
X155166042Y-100735647D01*
X154914741Y-100815920D01*
X154713282Y-101371279D01*
X154736752Y-101895892D01*
X154386788Y-102040493D01*
X154111460Y-102315341D01*
X153962270Y-102674630D01*
X153961931Y-103063663D01*
X118820000Y-103063663D01*
X118820000Y-100556042D01*
X155345647Y-100556042D01*
X156210000Y-101420395D01*
X157074353Y-100556042D01*
X156994080Y-100304741D01*
X156438721Y-100103282D01*
X155848542Y-100129685D01*
X155425920Y-100304741D01*
X155345647Y-100556042D01*
X118820000Y-100556042D01*
X118820000Y-99253663D01*
X153961931Y-99253663D01*
X154110493Y-99613212D01*
X154385341Y-99888540D01*
X154744630Y-100037730D01*
X155133663Y-100038069D01*
X155493212Y-99889507D01*
X155560837Y-99822000D01*
X177178917Y-99822000D01*
X177204621Y-99847749D01*
X176904711Y-100147659D01*
X176826681Y-100115258D01*
X176235911Y-100114743D01*
X175689914Y-100340344D01*
X175271812Y-100757717D01*
X175260252Y-100785557D01*
X175249656Y-100759914D01*
X174832283Y-100341812D01*
X174286681Y-100115258D01*
X173695911Y-100114743D01*
X173149914Y-100340344D01*
X172731812Y-100757717D01*
X172720252Y-100785557D01*
X172709656Y-100759914D01*
X172292283Y-100341812D01*
X171746681Y-100115258D01*
X171155911Y-100114743D01*
X170609914Y-100340344D01*
X170191812Y-100757717D01*
X170180252Y-100785557D01*
X170169656Y-100759914D01*
X169752283Y-100341812D01*
X169206681Y-100115258D01*
X168615911Y-100114743D01*
X168069914Y-100340344D01*
X167651812Y-100757717D01*
X167640252Y-100785557D01*
X167629656Y-100759914D01*
X167212283Y-100341812D01*
X166666681Y-100115258D01*
X166075911Y-100114743D01*
X165529914Y-100340344D01*
X165111812Y-100757717D01*
X165100252Y-100785557D01*
X165089656Y-100759914D01*
X164672283Y-100341812D01*
X164126681Y-100115258D01*
X163535911Y-100114743D01*
X162989914Y-100340344D01*
X162571812Y-100757717D01*
X162560252Y-100785557D01*
X162549656Y-100759914D01*
X162132283Y-100341812D01*
X161586681Y-100115258D01*
X160995911Y-100114743D01*
X160449914Y-100340344D01*
X160031812Y-100757717D01*
X160020252Y-100785557D01*
X160009656Y-100759914D01*
X159592283Y-100341812D01*
X159046681Y-100115258D01*
X158455911Y-100114743D01*
X157909914Y-100340344D01*
X157491812Y-100757717D01*
X157472049Y-100805312D01*
X157253958Y-100735647D01*
X156389605Y-101600000D01*
X157253958Y-102464353D01*
X157471640Y-102394819D01*
X157490344Y-102440086D01*
X157907717Y-102858188D01*
X158453319Y-103084742D01*
X159044089Y-103085257D01*
X159590086Y-102859656D01*
X160008188Y-102442283D01*
X160019748Y-102414443D01*
X160030344Y-102440086D01*
X160447717Y-102858188D01*
X160993319Y-103084742D01*
X161584089Y-103085257D01*
X162130086Y-102859656D01*
X162548188Y-102442283D01*
X162559748Y-102414443D01*
X162570344Y-102440086D01*
X162987717Y-102858188D01*
X163533319Y-103084742D01*
X164124089Y-103085257D01*
X164670086Y-102859656D01*
X165088188Y-102442283D01*
X165099748Y-102414443D01*
X165110344Y-102440086D01*
X165527717Y-102858188D01*
X166073319Y-103084742D01*
X166664089Y-103085257D01*
X167210086Y-102859656D01*
X167628188Y-102442283D01*
X167639748Y-102414443D01*
X167650344Y-102440086D01*
X168067717Y-102858188D01*
X168613319Y-103084742D01*
X169204089Y-103085257D01*
X169750086Y-102859656D01*
X170168188Y-102442283D01*
X170179748Y-102414443D01*
X170190344Y-102440086D01*
X170607717Y-102858188D01*
X171153319Y-103084742D01*
X171744089Y-103085257D01*
X172290086Y-102859656D01*
X172708188Y-102442283D01*
X172719748Y-102414443D01*
X172730344Y-102440086D01*
X173147717Y-102858188D01*
X173693319Y-103084742D01*
X174284089Y-103085257D01*
X174830086Y-102859656D01*
X175248188Y-102442283D01*
X175259748Y-102414443D01*
X175270344Y-102440086D01*
X175687717Y-102858188D01*
X176233319Y-103084742D01*
X176824089Y-103085257D01*
X177370086Y-102859656D01*
X177788188Y-102442283D01*
X177799748Y-102414443D01*
X177810344Y-102440086D01*
X178227717Y-102858188D01*
X178773319Y-103084742D01*
X179364089Y-103085257D01*
X179910086Y-102859656D01*
X180328188Y-102442283D01*
X180339748Y-102414443D01*
X180350344Y-102440086D01*
X180767717Y-102858188D01*
X181313319Y-103084742D01*
X181904089Y-103085257D01*
X182450086Y-102859656D01*
X182685164Y-102624988D01*
X182761673Y-102809698D01*
X182940301Y-102988327D01*
X183173690Y-103085000D01*
X183864250Y-103085000D01*
X184023000Y-102926250D01*
X184023000Y-101727000D01*
X184277000Y-101727000D01*
X184277000Y-102926250D01*
X184435750Y-103085000D01*
X185126310Y-103085000D01*
X185359699Y-102988327D01*
X185538327Y-102809698D01*
X185635000Y-102576309D01*
X185635000Y-101885750D01*
X185476250Y-101727000D01*
X184277000Y-101727000D01*
X184023000Y-101727000D01*
X184003000Y-101727000D01*
X184003000Y-101473000D01*
X184023000Y-101473000D01*
X184023000Y-100273750D01*
X184277000Y-100273750D01*
X184277000Y-101473000D01*
X185476250Y-101473000D01*
X185635000Y-101314250D01*
X185635000Y-100623691D01*
X185538327Y-100390302D01*
X185359699Y-100211673D01*
X185126310Y-100115000D01*
X184435750Y-100115000D01*
X184277000Y-100273750D01*
X184023000Y-100273750D01*
X183864250Y-100115000D01*
X183173690Y-100115000D01*
X182940301Y-100211673D01*
X182761673Y-100390302D01*
X182685138Y-100575074D01*
X182452283Y-100341812D01*
X181906681Y-100115258D01*
X181315911Y-100114743D01*
X180769914Y-100340344D01*
X180351812Y-100757717D01*
X180340252Y-100785557D01*
X180329656Y-100759914D01*
X179912283Y-100341812D01*
X179366681Y-100115258D01*
X179092612Y-100115019D01*
X179385631Y-99822000D01*
X185420000Y-99822000D01*
X185711605Y-99763996D01*
X185958815Y-99598815D01*
X187228815Y-98328816D01*
X187393996Y-98081605D01*
X187406903Y-98016718D01*
X187447249Y-97813883D01*
X187530086Y-97779656D01*
X187948188Y-97362283D01*
X188174742Y-96816681D01*
X188175257Y-96225911D01*
X187949656Y-95679914D01*
X187532283Y-95261812D01*
X187504443Y-95250252D01*
X187530086Y-95239656D01*
X187948188Y-94822283D01*
X188174742Y-94276681D01*
X188175257Y-93685911D01*
X187949656Y-93139914D01*
X187532283Y-92721812D01*
X186986681Y-92495258D01*
X186395911Y-92494743D01*
X185849914Y-92720344D01*
X185431812Y-93137717D01*
X185420252Y-93165557D01*
X185409656Y-93139914D01*
X184992283Y-92721812D01*
X184446681Y-92495258D01*
X183855911Y-92494743D01*
X183309914Y-92720344D01*
X182891812Y-93137717D01*
X182880252Y-93165557D01*
X182869656Y-93139914D01*
X182452283Y-92721812D01*
X181906681Y-92495258D01*
X181315911Y-92494743D01*
X180769914Y-92720344D01*
X180351812Y-93137717D01*
X180340252Y-93165557D01*
X180329656Y-93139914D01*
X179912283Y-92721812D01*
X179366681Y-92495258D01*
X178775911Y-92494743D01*
X178229914Y-92720344D01*
X177927000Y-93022730D01*
X177927000Y-93003691D01*
X177830327Y-92770302D01*
X177651699Y-92591673D01*
X177418310Y-92495000D01*
X176815750Y-92495000D01*
X176657000Y-92653750D01*
X176657000Y-93853000D01*
X176677000Y-93853000D01*
X176677000Y-94107000D01*
X176657000Y-94107000D01*
X176657000Y-94127000D01*
X176403000Y-94127000D01*
X176403000Y-94107000D01*
X175291750Y-94107000D01*
X175133000Y-94265750D01*
X175133000Y-94956309D01*
X175229673Y-95189698D01*
X175408301Y-95368327D01*
X175530880Y-95419101D01*
X175271812Y-95677717D01*
X175238476Y-95758000D01*
X170801083Y-95758000D01*
X170734659Y-95691460D01*
X170375370Y-95542270D01*
X169986337Y-95541931D01*
X169626788Y-95690493D01*
X169351460Y-95965341D01*
X169202270Y-96324630D01*
X169201931Y-96713663D01*
X169350493Y-97073212D01*
X169625341Y-97348540D01*
X169984630Y-97497730D01*
X170373663Y-97498069D01*
X170733212Y-97349507D01*
X170800837Y-97282000D01*
X175238080Y-97282000D01*
X175270344Y-97360086D01*
X175687717Y-97778188D01*
X176233319Y-98004742D01*
X176824089Y-98005257D01*
X177370086Y-97779656D01*
X177788188Y-97362283D01*
X177799748Y-97334443D01*
X177810344Y-97360086D01*
X178227717Y-97778188D01*
X178773319Y-98004742D01*
X179364089Y-98005257D01*
X179910086Y-97779656D01*
X180328188Y-97362283D01*
X180339748Y-97334443D01*
X180350344Y-97360086D01*
X180767717Y-97778188D01*
X181313319Y-98004742D01*
X181904089Y-98005257D01*
X182450086Y-97779656D01*
X182868188Y-97362283D01*
X182879748Y-97334443D01*
X182890344Y-97360086D01*
X183307717Y-97778188D01*
X183853319Y-98004742D01*
X184444089Y-98005257D01*
X184990086Y-97779656D01*
X185408188Y-97362283D01*
X185419748Y-97334443D01*
X185430344Y-97360086D01*
X185736047Y-97666323D01*
X185104370Y-98298000D01*
X179070000Y-98298000D01*
X178778395Y-98356004D01*
X178598787Y-98476014D01*
X178354659Y-98231460D01*
X177995370Y-98082270D01*
X177606337Y-98081931D01*
X177246788Y-98230493D01*
X177179163Y-98298000D01*
X155561083Y-98298000D01*
X155494659Y-98231460D01*
X155135370Y-98082270D01*
X154746337Y-98081931D01*
X154386788Y-98230493D01*
X154111460Y-98505341D01*
X153962270Y-98864630D01*
X153961931Y-99253663D01*
X118820000Y-99253663D01*
X118820000Y-97983663D01*
X129831931Y-97983663D01*
X129980493Y-98343212D01*
X130255341Y-98618540D01*
X130614630Y-98767730D01*
X131003663Y-98768069D01*
X131363212Y-98619507D01*
X131430837Y-98552000D01*
X136538917Y-98552000D01*
X136605341Y-98618540D01*
X136964630Y-98767730D01*
X137353663Y-98768069D01*
X137713212Y-98619507D01*
X137988540Y-98344659D01*
X138137730Y-97985370D01*
X138138069Y-97596337D01*
X138124691Y-97563958D01*
X155345647Y-97563958D01*
X155425920Y-97815259D01*
X155981279Y-98016718D01*
X156571458Y-97990315D01*
X156994080Y-97815259D01*
X157074353Y-97563958D01*
X156210000Y-96699605D01*
X155345647Y-97563958D01*
X138124691Y-97563958D01*
X137989507Y-97236788D01*
X137714659Y-96961460D01*
X137355370Y-96812270D01*
X136966337Y-96811931D01*
X136606788Y-96960493D01*
X136539163Y-97028000D01*
X131431083Y-97028000D01*
X131364659Y-96961460D01*
X131005370Y-96812270D01*
X130616337Y-96811931D01*
X130256788Y-96960493D01*
X129981460Y-97235341D01*
X129832270Y-97594630D01*
X129831931Y-97983663D01*
X118820000Y-97983663D01*
X118820000Y-91743991D01*
X119749735Y-91743991D01*
X119982932Y-92308371D01*
X120414357Y-92740551D01*
X120978330Y-92974733D01*
X121588991Y-92975265D01*
X122153371Y-92742068D01*
X122585551Y-92310643D01*
X122630664Y-92202000D01*
X122874370Y-92202000D01*
X123921184Y-93248815D01*
X124168395Y-93413996D01*
X124460000Y-93472000D01*
X125708080Y-93472000D01*
X125740344Y-93550086D01*
X125955079Y-93765196D01*
X125435911Y-93764743D01*
X124889914Y-93990344D01*
X124471812Y-94407717D01*
X124245258Y-94953319D01*
X124244743Y-95544089D01*
X124470344Y-96090086D01*
X124887717Y-96508188D01*
X125433319Y-96734742D01*
X126024089Y-96735257D01*
X126570086Y-96509656D01*
X126988188Y-96092283D01*
X126999748Y-96064443D01*
X127010344Y-96090086D01*
X127427717Y-96508188D01*
X127973319Y-96734742D01*
X128564089Y-96735257D01*
X129110086Y-96509656D01*
X129326160Y-96293958D01*
X129945647Y-96293958D01*
X130025920Y-96545259D01*
X130581279Y-96746718D01*
X131171458Y-96720315D01*
X131594080Y-96545259D01*
X131674353Y-96293958D01*
X130810000Y-95429605D01*
X129945647Y-96293958D01*
X129326160Y-96293958D01*
X129528188Y-96092283D01*
X129547951Y-96044688D01*
X129766042Y-96114353D01*
X130630395Y-95250000D01*
X130989605Y-95250000D01*
X131853958Y-96114353D01*
X132071640Y-96044819D01*
X132090344Y-96090086D01*
X132507717Y-96508188D01*
X133053319Y-96734742D01*
X133644089Y-96735257D01*
X134190086Y-96509656D01*
X134608188Y-96092283D01*
X134643462Y-96007333D01*
X134911605Y-95953996D01*
X135158815Y-95788815D01*
X135989644Y-94957987D01*
X136083663Y-94958069D01*
X136443212Y-94809507D01*
X136718540Y-94534659D01*
X136867730Y-94175370D01*
X136868069Y-93786337D01*
X136719507Y-93426788D01*
X136444659Y-93151460D01*
X136085370Y-93002270D01*
X135696337Y-93001931D01*
X135336788Y-93150493D01*
X135061460Y-93425341D01*
X134912270Y-93784630D01*
X134912187Y-93880183D01*
X134496155Y-94296215D01*
X134192283Y-93991812D01*
X133646681Y-93765258D01*
X133055911Y-93764743D01*
X132509914Y-93990344D01*
X132091812Y-94407717D01*
X132072049Y-94455312D01*
X131853958Y-94385647D01*
X130989605Y-95250000D01*
X130630395Y-95250000D01*
X129766042Y-94385647D01*
X129548360Y-94455181D01*
X129529656Y-94409914D01*
X129326140Y-94206042D01*
X129945647Y-94206042D01*
X130810000Y-95070395D01*
X131674353Y-94206042D01*
X131594080Y-93954741D01*
X131038721Y-93753282D01*
X130448542Y-93779685D01*
X130025920Y-93954741D01*
X129945647Y-94206042D01*
X129326140Y-94206042D01*
X129112283Y-93991812D01*
X128566681Y-93765258D01*
X128045296Y-93764803D01*
X128258188Y-93552283D01*
X128484742Y-93006681D01*
X128485257Y-92415911D01*
X128259656Y-91869914D01*
X127842283Y-91451812D01*
X127296681Y-91225258D01*
X126705911Y-91224743D01*
X126159914Y-91450344D01*
X125741812Y-91867717D01*
X125708476Y-91948000D01*
X124775631Y-91948000D01*
X123728815Y-90901185D01*
X123481605Y-90736004D01*
X123190000Y-90678000D01*
X122631020Y-90678000D01*
X122587068Y-90571629D01*
X122409908Y-90394159D01*
X122544699Y-90338327D01*
X122723327Y-90159698D01*
X122820000Y-89926309D01*
X122820000Y-89320000D01*
X130582560Y-89320000D01*
X130582560Y-91020000D01*
X130626838Y-91255317D01*
X130765910Y-91471441D01*
X130978110Y-91616431D01*
X131230000Y-91667440D01*
X132930000Y-91667440D01*
X133165317Y-91623162D01*
X133381441Y-91484090D01*
X133526431Y-91271890D01*
X133529416Y-91257148D01*
X133600938Y-91328670D01*
X133715648Y-91213960D01*
X133795920Y-91465259D01*
X134351279Y-91666718D01*
X134941458Y-91640315D01*
X135364080Y-91465259D01*
X135444353Y-91213958D01*
X134580000Y-90349605D01*
X134565858Y-90363748D01*
X134386253Y-90184143D01*
X134400395Y-90170000D01*
X134759605Y-90170000D01*
X135623958Y-91034353D01*
X135875259Y-90954080D01*
X136076718Y-90398721D01*
X136075150Y-90363663D01*
X146341931Y-90363663D01*
X146490493Y-90723212D01*
X146558000Y-90790837D01*
X146558000Y-95898917D01*
X146491460Y-95965341D01*
X146342270Y-96324630D01*
X146341931Y-96713663D01*
X146490493Y-97073212D01*
X146765341Y-97348540D01*
X147124630Y-97497730D01*
X147513663Y-97498069D01*
X147873212Y-97349507D01*
X148148540Y-97074659D01*
X148297730Y-96715370D01*
X148298069Y-96326337D01*
X148149507Y-95966788D01*
X148082000Y-95899163D01*
X148082000Y-90791083D01*
X148148540Y-90724659D01*
X148297730Y-90365370D01*
X148297731Y-90363663D01*
X148881931Y-90363663D01*
X149030493Y-90723212D01*
X149098000Y-90790837D01*
X149098000Y-95898917D01*
X149031460Y-95965341D01*
X148882270Y-96324630D01*
X148881931Y-96713663D01*
X149030493Y-97073212D01*
X149305341Y-97348540D01*
X149664630Y-97497730D01*
X150053663Y-97498069D01*
X150413212Y-97349507D01*
X150688540Y-97074659D01*
X150837730Y-96715370D01*
X150838069Y-96326337D01*
X150823584Y-96291279D01*
X154713282Y-96291279D01*
X154739685Y-96881458D01*
X154914741Y-97304080D01*
X155166042Y-97384353D01*
X156030395Y-96520000D01*
X155166042Y-95655647D01*
X154914741Y-95735920D01*
X154713282Y-96291279D01*
X150823584Y-96291279D01*
X150689507Y-95966788D01*
X150622000Y-95899163D01*
X150622000Y-94274089D01*
X154724743Y-94274089D01*
X154950344Y-94820086D01*
X155367717Y-95238188D01*
X155415312Y-95257951D01*
X155345647Y-95476042D01*
X156210000Y-96340395D01*
X157074353Y-95476042D01*
X157004819Y-95258360D01*
X157050086Y-95239656D01*
X157468188Y-94822283D01*
X157479748Y-94794443D01*
X157490344Y-94820086D01*
X157907717Y-95238188D01*
X157935557Y-95249748D01*
X157909914Y-95260344D01*
X157491812Y-95677717D01*
X157472049Y-95725312D01*
X157253958Y-95655647D01*
X156389605Y-96520000D01*
X157253958Y-97384353D01*
X157471640Y-97314819D01*
X157490344Y-97360086D01*
X157907717Y-97778188D01*
X158453319Y-98004742D01*
X159044089Y-98005257D01*
X159590086Y-97779656D01*
X160008188Y-97362283D01*
X160019748Y-97334443D01*
X160030344Y-97360086D01*
X160447717Y-97778188D01*
X160993319Y-98004742D01*
X161584089Y-98005257D01*
X162130086Y-97779656D01*
X162548188Y-97362283D01*
X162559748Y-97334443D01*
X162570344Y-97360086D01*
X162987717Y-97778188D01*
X163533319Y-98004742D01*
X164124089Y-98005257D01*
X164670086Y-97779656D01*
X165088188Y-97362283D01*
X165099748Y-97334443D01*
X165110344Y-97360086D01*
X165527717Y-97778188D01*
X166073319Y-98004742D01*
X166664089Y-98005257D01*
X167210086Y-97779656D01*
X167628188Y-97362283D01*
X167854742Y-96816681D01*
X167855257Y-96225911D01*
X167629656Y-95679914D01*
X167212283Y-95261812D01*
X167184443Y-95250252D01*
X167210086Y-95239656D01*
X167628188Y-94822283D01*
X167854742Y-94276681D01*
X167855257Y-93685911D01*
X167629656Y-93139914D01*
X167493671Y-93003691D01*
X175133000Y-93003691D01*
X175133000Y-93694250D01*
X175291750Y-93853000D01*
X176403000Y-93853000D01*
X176403000Y-92653750D01*
X176244250Y-92495000D01*
X175641690Y-92495000D01*
X175408301Y-92591673D01*
X175229673Y-92770302D01*
X175133000Y-93003691D01*
X167493671Y-93003691D01*
X167212283Y-92721812D01*
X166666681Y-92495258D01*
X166075911Y-92494743D01*
X165529914Y-92720344D01*
X165111812Y-93137717D01*
X165100252Y-93165557D01*
X165089656Y-93139914D01*
X164672283Y-92721812D01*
X164126681Y-92495258D01*
X163535911Y-92494743D01*
X162989914Y-92720344D01*
X162571812Y-93137717D01*
X162560252Y-93165557D01*
X162549656Y-93139914D01*
X162132283Y-92721812D01*
X161586681Y-92495258D01*
X160995911Y-92494743D01*
X160449914Y-92720344D01*
X160031812Y-93137717D01*
X160020252Y-93165557D01*
X160009656Y-93139914D01*
X159592283Y-92721812D01*
X159046681Y-92495258D01*
X158455911Y-92494743D01*
X157909914Y-92720344D01*
X157491812Y-93137717D01*
X157480252Y-93165557D01*
X157469656Y-93139914D01*
X157052283Y-92721812D01*
X156506681Y-92495258D01*
X155915911Y-92494743D01*
X155369914Y-92720344D01*
X154951812Y-93137717D01*
X154725258Y-93683319D01*
X154724743Y-94274089D01*
X150622000Y-94274089D01*
X150622000Y-90791083D01*
X150688540Y-90724659D01*
X150837730Y-90365370D01*
X150838069Y-89976337D01*
X150689507Y-89616788D01*
X150414659Y-89341460D01*
X150055370Y-89192270D01*
X149666337Y-89191931D01*
X149306788Y-89340493D01*
X149031460Y-89615341D01*
X148882270Y-89974630D01*
X148881931Y-90363663D01*
X148297731Y-90363663D01*
X148298069Y-89976337D01*
X148149507Y-89616788D01*
X147874659Y-89341460D01*
X147515370Y-89192270D01*
X147126337Y-89191931D01*
X146766788Y-89340493D01*
X146491460Y-89615341D01*
X146342270Y-89974630D01*
X146341931Y-90363663D01*
X136075150Y-90363663D01*
X136050315Y-89808542D01*
X135875259Y-89385920D01*
X135623958Y-89305647D01*
X134759605Y-90170000D01*
X134400395Y-90170000D01*
X134386253Y-90155858D01*
X134565858Y-89976253D01*
X134580000Y-89990395D01*
X135444353Y-89126042D01*
X135364080Y-88874741D01*
X134808721Y-88673282D01*
X134218542Y-88699685D01*
X133795920Y-88874741D01*
X133715648Y-89126040D01*
X133600938Y-89011330D01*
X133530978Y-89081290D01*
X133394090Y-88868559D01*
X133181890Y-88723569D01*
X132930000Y-88672560D01*
X131230000Y-88672560D01*
X130994683Y-88716838D01*
X130778559Y-88855910D01*
X130633569Y-89068110D01*
X130582560Y-89320000D01*
X122820000Y-89320000D01*
X122820000Y-89185750D01*
X122661250Y-89027000D01*
X121412000Y-89027000D01*
X121412000Y-89047000D01*
X121158000Y-89047000D01*
X121158000Y-89027000D01*
X119908750Y-89027000D01*
X119750000Y-89185750D01*
X119750000Y-89926309D01*
X119846673Y-90159698D01*
X120025301Y-90338327D01*
X120159994Y-90394119D01*
X119984449Y-90569357D01*
X119750267Y-91133330D01*
X119749735Y-91743991D01*
X118820000Y-91743991D01*
X118820000Y-87873691D01*
X119750000Y-87873691D01*
X119750000Y-88614250D01*
X119908750Y-88773000D01*
X121158000Y-88773000D01*
X121158000Y-87523750D01*
X121412000Y-87523750D01*
X121412000Y-88773000D01*
X122661250Y-88773000D01*
X122820000Y-88614250D01*
X122820000Y-87873691D01*
X122723327Y-87640302D01*
X122544699Y-87461673D01*
X122311310Y-87365000D01*
X121570750Y-87365000D01*
X121412000Y-87523750D01*
X121158000Y-87523750D01*
X120999250Y-87365000D01*
X120258690Y-87365000D01*
X120025301Y-87461673D01*
X119846673Y-87640302D01*
X119750000Y-87873691D01*
X118820000Y-87873691D01*
X118820000Y-84758991D01*
X119749735Y-84758991D01*
X119982932Y-85323371D01*
X120414357Y-85755551D01*
X120978330Y-85989733D01*
X121588991Y-85990265D01*
X122153371Y-85757068D01*
X122585551Y-85325643D01*
X122630664Y-85217000D01*
X123509370Y-85217000D01*
X123921185Y-85628816D01*
X124008830Y-85687378D01*
X124168395Y-85793996D01*
X124460000Y-85852000D01*
X125708080Y-85852000D01*
X125740344Y-85930086D01*
X126157717Y-86348188D01*
X126216639Y-86372655D01*
X125949946Y-86550853D01*
X125628039Y-87032622D01*
X125515000Y-87600907D01*
X125515000Y-87659093D01*
X125628039Y-88227378D01*
X125949946Y-88709147D01*
X126431715Y-89031054D01*
X127000000Y-89144093D01*
X127568285Y-89031054D01*
X128050054Y-88709147D01*
X128261964Y-88392000D01*
X128270000Y-88392000D01*
X128561605Y-88333996D01*
X128808815Y-88168815D01*
X129855631Y-87122000D01*
X155588917Y-87122000D01*
X155655341Y-87188540D01*
X156014630Y-87337730D01*
X156403663Y-87338069D01*
X156763212Y-87189507D01*
X157038540Y-86914659D01*
X157187730Y-86555370D01*
X157188069Y-86166337D01*
X157058188Y-85852000D01*
X159398917Y-85852000D01*
X159465341Y-85918540D01*
X159824630Y-86067730D01*
X160213663Y-86068069D01*
X160573212Y-85919507D01*
X160848540Y-85644659D01*
X160960200Y-85375750D01*
X169965000Y-85375750D01*
X169965000Y-86066309D01*
X170061673Y-86299698D01*
X170240301Y-86478327D01*
X170405858Y-86546903D01*
X170399946Y-86550853D01*
X170078039Y-87032622D01*
X169965000Y-87600907D01*
X169965000Y-87659093D01*
X170078039Y-88227378D01*
X170399946Y-88709147D01*
X170881715Y-89031054D01*
X171450000Y-89144093D01*
X172018285Y-89031054D01*
X172500054Y-88709147D01*
X172720000Y-88379974D01*
X172939946Y-88709147D01*
X173421715Y-89031054D01*
X173990000Y-89144093D01*
X174558285Y-89031054D01*
X175040054Y-88709147D01*
X175260000Y-88379974D01*
X175479946Y-88709147D01*
X175961715Y-89031054D01*
X176530000Y-89144093D01*
X177098285Y-89031054D01*
X177580054Y-88709147D01*
X177800000Y-88379974D01*
X178019946Y-88709147D01*
X178501715Y-89031054D01*
X179070000Y-89144093D01*
X179638285Y-89031054D01*
X180120054Y-88709147D01*
X180340000Y-88379974D01*
X180559946Y-88709147D01*
X181041715Y-89031054D01*
X181610000Y-89144093D01*
X182178285Y-89031054D01*
X182660054Y-88709147D01*
X182981961Y-88227378D01*
X183095000Y-87659093D01*
X183095000Y-87600907D01*
X182981961Y-87032622D01*
X182660054Y-86550853D01*
X182374422Y-86360000D01*
X182660054Y-86169147D01*
X182981961Y-85687378D01*
X183095000Y-85119093D01*
X183095000Y-85060907D01*
X182981961Y-84492622D01*
X182660054Y-84010853D01*
X182178285Y-83688946D01*
X181610000Y-83575907D01*
X181041715Y-83688946D01*
X180559946Y-84010853D01*
X180340000Y-84340026D01*
X180120054Y-84010853D01*
X179638285Y-83688946D01*
X179070000Y-83575907D01*
X178501715Y-83688946D01*
X178019946Y-84010853D01*
X177800000Y-84340026D01*
X177580054Y-84010853D01*
X177098285Y-83688946D01*
X176530000Y-83575907D01*
X175961715Y-83688946D01*
X175479946Y-84010853D01*
X175260000Y-84340026D01*
X175040054Y-84010853D01*
X174558285Y-83688946D01*
X173990000Y-83575907D01*
X173421715Y-83688946D01*
X172939946Y-84010853D01*
X172910597Y-84054777D01*
X172838327Y-83880302D01*
X172659699Y-83701673D01*
X172426310Y-83605000D01*
X171735750Y-83605000D01*
X171577000Y-83763750D01*
X171577000Y-84963000D01*
X171597000Y-84963000D01*
X171597000Y-85217000D01*
X171577000Y-85217000D01*
X171577000Y-85237000D01*
X171323000Y-85237000D01*
X171323000Y-85217000D01*
X170123750Y-85217000D01*
X169965000Y-85375750D01*
X160960200Y-85375750D01*
X160997730Y-85285370D01*
X160998069Y-84896337D01*
X160928889Y-84728908D01*
X161094630Y-84797730D01*
X161483663Y-84798069D01*
X161843212Y-84649507D01*
X162118540Y-84374659D01*
X162226903Y-84113691D01*
X169965000Y-84113691D01*
X169965000Y-84804250D01*
X170123750Y-84963000D01*
X171323000Y-84963000D01*
X171323000Y-83763750D01*
X171164250Y-83605000D01*
X170473690Y-83605000D01*
X170240301Y-83701673D01*
X170061673Y-83880302D01*
X169965000Y-84113691D01*
X162226903Y-84113691D01*
X162267730Y-84015370D01*
X162268069Y-83626337D01*
X162119507Y-83266788D01*
X161844659Y-82991460D01*
X161485370Y-82842270D01*
X161096337Y-82841931D01*
X160736788Y-82990493D01*
X160669163Y-83058000D01*
X150481083Y-83058000D01*
X150414659Y-82991460D01*
X150055370Y-82842270D01*
X149666337Y-82841931D01*
X149306788Y-82990493D01*
X149031460Y-83265341D01*
X148882270Y-83624630D01*
X148881931Y-84013663D01*
X149011812Y-84328000D01*
X147941083Y-84328000D01*
X147874659Y-84261460D01*
X147515370Y-84112270D01*
X147126337Y-84111931D01*
X146766788Y-84260493D01*
X146491460Y-84535341D01*
X146342270Y-84894630D01*
X146341931Y-85283663D01*
X146471812Y-85598000D01*
X129540000Y-85598000D01*
X129248395Y-85656004D01*
X129001184Y-85821185D01*
X128138759Y-86683610D01*
X128050054Y-86550853D01*
X127783767Y-86372926D01*
X127840086Y-86349656D01*
X128258188Y-85932283D01*
X128484742Y-85386681D01*
X128485257Y-84795911D01*
X128259656Y-84249914D01*
X127842283Y-83831812D01*
X127296681Y-83605258D01*
X126705911Y-83604743D01*
X126159914Y-83830344D01*
X125741812Y-84247717D01*
X125708476Y-84328000D01*
X124775631Y-84328000D01*
X124363815Y-83916185D01*
X124219864Y-83820000D01*
X124116605Y-83751004D01*
X123825000Y-83693000D01*
X122631020Y-83693000D01*
X122587068Y-83586629D01*
X122409908Y-83409159D01*
X122544699Y-83353327D01*
X122723327Y-83174698D01*
X122820000Y-82941309D01*
X122820000Y-82200750D01*
X122661250Y-82042000D01*
X121412000Y-82042000D01*
X121412000Y-82062000D01*
X121158000Y-82062000D01*
X121158000Y-82042000D01*
X119908750Y-82042000D01*
X119750000Y-82200750D01*
X119750000Y-82941309D01*
X119846673Y-83174698D01*
X120025301Y-83353327D01*
X120159994Y-83409119D01*
X119984449Y-83584357D01*
X119750267Y-84148330D01*
X119749735Y-84758991D01*
X118820000Y-84758991D01*
X118820000Y-80888691D01*
X119750000Y-80888691D01*
X119750000Y-81629250D01*
X119908750Y-81788000D01*
X121158000Y-81788000D01*
X121158000Y-80538750D01*
X121412000Y-80538750D01*
X121412000Y-81788000D01*
X122661250Y-81788000D01*
X122820000Y-81629250D01*
X122820000Y-80888691D01*
X122723327Y-80655302D01*
X122544699Y-80476673D01*
X122311310Y-80380000D01*
X121570750Y-80380000D01*
X121412000Y-80538750D01*
X121158000Y-80538750D01*
X120999250Y-80380000D01*
X120258690Y-80380000D01*
X120025301Y-80476673D01*
X119846673Y-80655302D01*
X119750000Y-80888691D01*
X118820000Y-80888691D01*
X118820000Y-79980907D01*
X125515000Y-79980907D01*
X125515000Y-80039093D01*
X125628039Y-80607378D01*
X125949946Y-81089147D01*
X126431715Y-81411054D01*
X127000000Y-81524093D01*
X127568285Y-81411054D01*
X128050054Y-81089147D01*
X128371961Y-80607378D01*
X128485000Y-80039093D01*
X128485000Y-80010000D01*
X131835907Y-80010000D01*
X131948946Y-80578285D01*
X132270853Y-81060054D01*
X132600026Y-81280000D01*
X132270853Y-81499946D01*
X131948946Y-81981715D01*
X131835907Y-82550000D01*
X131948946Y-83118285D01*
X132270853Y-83600054D01*
X132752622Y-83921961D01*
X133320907Y-84035000D01*
X133379093Y-84035000D01*
X133947378Y-83921961D01*
X134429147Y-83600054D01*
X134751054Y-83118285D01*
X134864093Y-82550000D01*
X134751054Y-81981715D01*
X134429147Y-81499946D01*
X134099974Y-81280000D01*
X134429147Y-81060054D01*
X134751054Y-80578285D01*
X134864093Y-80010000D01*
X134751054Y-79441715D01*
X134429147Y-78959946D01*
X134385223Y-78930597D01*
X134559698Y-78858327D01*
X134738327Y-78679699D01*
X134835000Y-78446310D01*
X134835000Y-77755750D01*
X134676250Y-77597000D01*
X133477000Y-77597000D01*
X133477000Y-77617000D01*
X133223000Y-77617000D01*
X133223000Y-77597000D01*
X132023750Y-77597000D01*
X131865000Y-77755750D01*
X131865000Y-78446310D01*
X131961673Y-78679699D01*
X132140302Y-78858327D01*
X132314777Y-78930597D01*
X132270853Y-78959946D01*
X131948946Y-79441715D01*
X131835907Y-80010000D01*
X128485000Y-80010000D01*
X128485000Y-79980907D01*
X128371961Y-79412622D01*
X128050054Y-78930853D01*
X127568285Y-78608946D01*
X127000000Y-78495907D01*
X126431715Y-78608946D01*
X125949946Y-78930853D01*
X125628039Y-79412622D01*
X125515000Y-79980907D01*
X118820000Y-79980907D01*
X118820000Y-77742650D01*
X119297242Y-78220726D01*
X120173513Y-78584585D01*
X121122325Y-78585413D01*
X121999229Y-78223084D01*
X122670726Y-77552758D01*
X123034585Y-76676487D01*
X123034744Y-76493690D01*
X131865000Y-76493690D01*
X131865000Y-77184250D01*
X132023750Y-77343000D01*
X133223000Y-77343000D01*
X133223000Y-76143750D01*
X133477000Y-76143750D01*
X133477000Y-77343000D01*
X134676250Y-77343000D01*
X134835000Y-77184250D01*
X134835000Y-76493690D01*
X134738327Y-76260301D01*
X134559698Y-76081673D01*
X134326309Y-75985000D01*
X133635750Y-75985000D01*
X133477000Y-76143750D01*
X133223000Y-76143750D01*
X133064250Y-75985000D01*
X132373691Y-75985000D01*
X132140302Y-76081673D01*
X131961673Y-76260301D01*
X131865000Y-76493690D01*
X123034744Y-76493690D01*
X123035413Y-75727675D01*
X122673084Y-74850771D01*
X122193151Y-74370000D01*
X137720000Y-74370000D01*
X137720000Y-78740000D01*
M02*
