G04 #@! TF.FileFunction,Legend,Top*
%FSLAX46Y46*%
G04 Gerber Fmt 4.6, Leading zero omitted, Abs format (unit mm)*
G04 Created by KiCad (PCBNEW 4.0.7) date 09/09/17 09:10:53*
%MOMM*%
%LPD*%
G01*
G04 APERTURE LIST*
%ADD10C,0.100000*%
%ADD11C,0.120000*%
%ADD12C,0.150000*%
G04 APERTURE END LIST*
D10*
D11*
X135635722Y-88990277D02*
G75*
G03X131024420Y-88990000I-2305722J-1179723D01*
G01*
X135635722Y-91349723D02*
G75*
G02X131024420Y-91350000I-2305722J1179723D01*
G01*
X135635722Y-91349723D02*
G75*
G03X135635580Y-88990000I-2305722J1179723D01*
G01*
X133330000Y-87620000D02*
X133330000Y-92720000D01*
X133370000Y-87620000D02*
X133370000Y-92720000D01*
X133410000Y-87621000D02*
X133410000Y-92719000D01*
X133450000Y-87622000D02*
X133450000Y-92718000D01*
X133490000Y-87624000D02*
X133490000Y-92716000D01*
X133530000Y-87627000D02*
X133530000Y-92713000D01*
X133570000Y-87631000D02*
X133570000Y-92709000D01*
X133610000Y-87635000D02*
X133610000Y-89190000D01*
X133610000Y-91150000D02*
X133610000Y-92705000D01*
X133650000Y-87639000D02*
X133650000Y-89190000D01*
X133650000Y-91150000D02*
X133650000Y-92701000D01*
X133690000Y-87645000D02*
X133690000Y-89190000D01*
X133690000Y-91150000D02*
X133690000Y-92695000D01*
X133730000Y-87651000D02*
X133730000Y-89190000D01*
X133730000Y-91150000D02*
X133730000Y-92689000D01*
X133770000Y-87657000D02*
X133770000Y-89190000D01*
X133770000Y-91150000D02*
X133770000Y-92683000D01*
X133810000Y-87664000D02*
X133810000Y-89190000D01*
X133810000Y-91150000D02*
X133810000Y-92676000D01*
X133850000Y-87672000D02*
X133850000Y-89190000D01*
X133850000Y-91150000D02*
X133850000Y-92668000D01*
X133890000Y-87681000D02*
X133890000Y-89190000D01*
X133890000Y-91150000D02*
X133890000Y-92659000D01*
X133930000Y-87690000D02*
X133930000Y-89190000D01*
X133930000Y-91150000D02*
X133930000Y-92650000D01*
X133970000Y-87700000D02*
X133970000Y-89190000D01*
X133970000Y-91150000D02*
X133970000Y-92640000D01*
X134010000Y-87710000D02*
X134010000Y-89190000D01*
X134010000Y-91150000D02*
X134010000Y-92630000D01*
X134051000Y-87722000D02*
X134051000Y-89190000D01*
X134051000Y-91150000D02*
X134051000Y-92618000D01*
X134091000Y-87734000D02*
X134091000Y-89190000D01*
X134091000Y-91150000D02*
X134091000Y-92606000D01*
X134131000Y-87746000D02*
X134131000Y-89190000D01*
X134131000Y-91150000D02*
X134131000Y-92594000D01*
X134171000Y-87760000D02*
X134171000Y-89190000D01*
X134171000Y-91150000D02*
X134171000Y-92580000D01*
X134211000Y-87774000D02*
X134211000Y-89190000D01*
X134211000Y-91150000D02*
X134211000Y-92566000D01*
X134251000Y-87788000D02*
X134251000Y-89190000D01*
X134251000Y-91150000D02*
X134251000Y-92552000D01*
X134291000Y-87804000D02*
X134291000Y-89190000D01*
X134291000Y-91150000D02*
X134291000Y-92536000D01*
X134331000Y-87820000D02*
X134331000Y-89190000D01*
X134331000Y-91150000D02*
X134331000Y-92520000D01*
X134371000Y-87837000D02*
X134371000Y-89190000D01*
X134371000Y-91150000D02*
X134371000Y-92503000D01*
X134411000Y-87855000D02*
X134411000Y-89190000D01*
X134411000Y-91150000D02*
X134411000Y-92485000D01*
X134451000Y-87874000D02*
X134451000Y-89190000D01*
X134451000Y-91150000D02*
X134451000Y-92466000D01*
X134491000Y-87894000D02*
X134491000Y-89190000D01*
X134491000Y-91150000D02*
X134491000Y-92446000D01*
X134531000Y-87914000D02*
X134531000Y-89190000D01*
X134531000Y-91150000D02*
X134531000Y-92426000D01*
X134571000Y-87936000D02*
X134571000Y-89190000D01*
X134571000Y-91150000D02*
X134571000Y-92404000D01*
X134611000Y-87958000D02*
X134611000Y-89190000D01*
X134611000Y-91150000D02*
X134611000Y-92382000D01*
X134651000Y-87981000D02*
X134651000Y-89190000D01*
X134651000Y-91150000D02*
X134651000Y-92359000D01*
X134691000Y-88005000D02*
X134691000Y-89190000D01*
X134691000Y-91150000D02*
X134691000Y-92335000D01*
X134731000Y-88030000D02*
X134731000Y-89190000D01*
X134731000Y-91150000D02*
X134731000Y-92310000D01*
X134771000Y-88057000D02*
X134771000Y-89190000D01*
X134771000Y-91150000D02*
X134771000Y-92283000D01*
X134811000Y-88084000D02*
X134811000Y-89190000D01*
X134811000Y-91150000D02*
X134811000Y-92256000D01*
X134851000Y-88112000D02*
X134851000Y-89190000D01*
X134851000Y-91150000D02*
X134851000Y-92228000D01*
X134891000Y-88142000D02*
X134891000Y-89190000D01*
X134891000Y-91150000D02*
X134891000Y-92198000D01*
X134931000Y-88173000D02*
X134931000Y-89190000D01*
X134931000Y-91150000D02*
X134931000Y-92167000D01*
X134971000Y-88205000D02*
X134971000Y-89190000D01*
X134971000Y-91150000D02*
X134971000Y-92135000D01*
X135011000Y-88238000D02*
X135011000Y-89190000D01*
X135011000Y-91150000D02*
X135011000Y-92102000D01*
X135051000Y-88273000D02*
X135051000Y-89190000D01*
X135051000Y-91150000D02*
X135051000Y-92067000D01*
X135091000Y-88309000D02*
X135091000Y-89190000D01*
X135091000Y-91150000D02*
X135091000Y-92031000D01*
X135131000Y-88347000D02*
X135131000Y-89190000D01*
X135131000Y-91150000D02*
X135131000Y-91993000D01*
X135171000Y-88387000D02*
X135171000Y-89190000D01*
X135171000Y-91150000D02*
X135171000Y-91953000D01*
X135211000Y-88428000D02*
X135211000Y-89190000D01*
X135211000Y-91150000D02*
X135211000Y-91912000D01*
X135251000Y-88471000D02*
X135251000Y-89190000D01*
X135251000Y-91150000D02*
X135251000Y-91869000D01*
X135291000Y-88516000D02*
X135291000Y-89190000D01*
X135291000Y-91150000D02*
X135291000Y-91824000D01*
X135331000Y-88564000D02*
X135331000Y-89190000D01*
X135331000Y-91150000D02*
X135331000Y-91776000D01*
X135371000Y-88614000D02*
X135371000Y-89190000D01*
X135371000Y-91150000D02*
X135371000Y-91726000D01*
X135411000Y-88666000D02*
X135411000Y-89190000D01*
X135411000Y-91150000D02*
X135411000Y-91674000D01*
X135451000Y-88722000D02*
X135451000Y-89190000D01*
X135451000Y-91150000D02*
X135451000Y-91618000D01*
X135491000Y-88780000D02*
X135491000Y-89190000D01*
X135491000Y-91150000D02*
X135491000Y-91560000D01*
X135531000Y-88843000D02*
X135531000Y-89190000D01*
X135531000Y-91150000D02*
X135531000Y-91497000D01*
X135571000Y-88909000D02*
X135571000Y-91431000D01*
X135611000Y-88981000D02*
X135611000Y-91359000D01*
X135651000Y-89058000D02*
X135651000Y-91282000D01*
X135691000Y-89142000D02*
X135691000Y-91198000D01*
X135731000Y-89236000D02*
X135731000Y-91104000D01*
X135771000Y-89341000D02*
X135771000Y-90999000D01*
X135811000Y-89463000D02*
X135811000Y-90877000D01*
X135851000Y-89611000D02*
X135851000Y-90729000D01*
X135891000Y-89816000D02*
X135891000Y-90524000D01*
X129880000Y-90170000D02*
X131080000Y-90170000D01*
X130480000Y-89520000D02*
X130480000Y-90820000D01*
X132020000Y-83880000D02*
X134680000Y-83880000D01*
X132020000Y-78740000D02*
X132020000Y-83880000D01*
X134680000Y-78740000D02*
X134680000Y-83880000D01*
X132020000Y-78740000D02*
X134680000Y-78740000D01*
X132020000Y-77470000D02*
X132020000Y-76140000D01*
X132020000Y-76140000D02*
X133350000Y-76140000D01*
D12*
X139400000Y-92480000D02*
X139400000Y-119380000D01*
X139400000Y-119380000D02*
X152400000Y-119380000D01*
X152400000Y-119380000D02*
X152400000Y-92480000D01*
X152400000Y-92480000D02*
X139400000Y-92480000D01*
D11*
X121284538Y-86175000D02*
G75*
G03X122829830Y-80625000I462J2990000D01*
G01*
X121285462Y-86175000D02*
G75*
G02X119740170Y-80625000I-462J2990000D01*
G01*
X123785000Y-83185000D02*
G75*
G03X123785000Y-83185000I-2500000J0D01*
G01*
X122830000Y-80625000D02*
X119740000Y-80625000D01*
X121284538Y-93160000D02*
G75*
G03X122829830Y-87610000I462J2990000D01*
G01*
X121285462Y-93160000D02*
G75*
G02X119740170Y-87610000I-462J2990000D01*
G01*
X123785000Y-90170000D02*
G75*
G03X123785000Y-90170000I-2500000J0D01*
G01*
X122830000Y-87610000D02*
X119740000Y-87610000D01*
X126140000Y-84410000D02*
X126140000Y-80690000D01*
X127860000Y-84410000D02*
X127860000Y-80690000D01*
X126140000Y-92030000D02*
X126140000Y-88310000D01*
X127860000Y-92030000D02*
X127860000Y-88310000D01*
D12*
X120650000Y-93980000D02*
X118110000Y-93980000D01*
X120650000Y-119380000D02*
X118110000Y-119380000D01*
X140970000Y-119380000D02*
X138430000Y-119380000D01*
X138430000Y-93980000D02*
X140970000Y-93980000D01*
X119380000Y-104140000D02*
X116840000Y-104140000D01*
X116840000Y-104140000D02*
X116840000Y-109220000D01*
X116840000Y-109220000D02*
X120650000Y-109220000D01*
X120650000Y-109220000D02*
X120650000Y-104140000D01*
X120650000Y-104140000D02*
X119380000Y-104140000D01*
X138430000Y-93980000D02*
X120650000Y-93980000D01*
X118110000Y-93980000D02*
X118110000Y-119380000D01*
X120650000Y-119380000D02*
X138430000Y-119380000D01*
X140970000Y-119380000D02*
X140970000Y-93980000D01*
X142240000Y-90170000D02*
X138430000Y-90170000D01*
X142240000Y-78740000D02*
X138430000Y-78740000D01*
X194310000Y-76200000D02*
X194310000Y-99060000D01*
X194310000Y-99060000D02*
X153670000Y-99060000D01*
X153670000Y-99060000D02*
X153670000Y-90170000D01*
X153670000Y-90170000D02*
X142240000Y-90170000D01*
X138430000Y-90170000D02*
X138430000Y-78740000D01*
X142240000Y-78740000D02*
X153670000Y-78740000D01*
X153670000Y-78740000D02*
X153670000Y-76200000D01*
X153670000Y-76200000D02*
X194310000Y-76200000D01*
X193040000Y-118110000D02*
X191770000Y-118110000D01*
X193040000Y-100330000D02*
X191770000Y-100330000D01*
X154940000Y-100330000D02*
X191770000Y-100330000D01*
X193040000Y-100330000D02*
X193040000Y-118110000D01*
X191770000Y-118110000D02*
X154940000Y-118110000D01*
X154940000Y-118110000D02*
X154940000Y-100330000D01*
X136358334Y-92432143D02*
X136310715Y-92479762D01*
X136167858Y-92527381D01*
X136072620Y-92527381D01*
X135929762Y-92479762D01*
X135834524Y-92384524D01*
X135786905Y-92289286D01*
X135739286Y-92098810D01*
X135739286Y-91955952D01*
X135786905Y-91765476D01*
X135834524Y-91670238D01*
X135929762Y-91575000D01*
X136072620Y-91527381D01*
X136167858Y-91527381D01*
X136310715Y-91575000D01*
X136358334Y-91622619D01*
X137310715Y-92527381D02*
X136739286Y-92527381D01*
X137025000Y-92527381D02*
X137025000Y-91527381D01*
X136929762Y-91670238D01*
X136834524Y-91765476D01*
X136739286Y-91813095D01*
X133016667Y-74382381D02*
X133016667Y-75096667D01*
X132969047Y-75239524D01*
X132873809Y-75334762D01*
X132730952Y-75382381D01*
X132635714Y-75382381D01*
X133397619Y-74382381D02*
X134016667Y-74382381D01*
X133683333Y-74763333D01*
X133826191Y-74763333D01*
X133921429Y-74810952D01*
X133969048Y-74858571D01*
X134016667Y-74953810D01*
X134016667Y-75191905D01*
X133969048Y-75287143D01*
X133921429Y-75334762D01*
X133826191Y-75382381D01*
X133540476Y-75382381D01*
X133445238Y-75334762D01*
X133397619Y-75287143D01*
X145038095Y-108232381D02*
X145038095Y-109041905D01*
X145085714Y-109137143D01*
X145133333Y-109184762D01*
X145228571Y-109232381D01*
X145419048Y-109232381D01*
X145514286Y-109184762D01*
X145561905Y-109137143D01*
X145609524Y-109041905D01*
X145609524Y-108232381D01*
X146038095Y-108327619D02*
X146085714Y-108280000D01*
X146180952Y-108232381D01*
X146419048Y-108232381D01*
X146514286Y-108280000D01*
X146561905Y-108327619D01*
X146609524Y-108422857D01*
X146609524Y-108518095D01*
X146561905Y-108660952D01*
X145990476Y-109232381D01*
X146609524Y-109232381D01*
X124912381Y-81383095D02*
X123912381Y-81383095D01*
X123912381Y-81145000D01*
X123960000Y-81002142D01*
X124055238Y-80906904D01*
X124150476Y-80859285D01*
X124340952Y-80811666D01*
X124483810Y-80811666D01*
X124674286Y-80859285D01*
X124769524Y-80906904D01*
X124864762Y-81002142D01*
X124912381Y-81145000D01*
X124912381Y-81383095D01*
X124912381Y-79859285D02*
X124912381Y-80430714D01*
X124912381Y-80145000D02*
X123912381Y-80145000D01*
X124055238Y-80240238D01*
X124150476Y-80335476D01*
X124198095Y-80430714D01*
X124912381Y-88368095D02*
X123912381Y-88368095D01*
X123912381Y-88130000D01*
X123960000Y-87987142D01*
X124055238Y-87891904D01*
X124150476Y-87844285D01*
X124340952Y-87796666D01*
X124483810Y-87796666D01*
X124674286Y-87844285D01*
X124769524Y-87891904D01*
X124864762Y-87987142D01*
X124912381Y-88130000D01*
X124912381Y-88368095D01*
X124007619Y-87415714D02*
X123960000Y-87368095D01*
X123912381Y-87272857D01*
X123912381Y-87034761D01*
X123960000Y-86939523D01*
X124007619Y-86891904D01*
X124102857Y-86844285D01*
X124198095Y-86844285D01*
X124340952Y-86891904D01*
X124912381Y-87463333D01*
X124912381Y-86844285D01*
X127452381Y-82716666D02*
X126976190Y-83050000D01*
X127452381Y-83288095D02*
X126452381Y-83288095D01*
X126452381Y-82907142D01*
X126500000Y-82811904D01*
X126547619Y-82764285D01*
X126642857Y-82716666D01*
X126785714Y-82716666D01*
X126880952Y-82764285D01*
X126928571Y-82811904D01*
X126976190Y-82907142D01*
X126976190Y-83288095D01*
X127452381Y-81764285D02*
X127452381Y-82335714D01*
X127452381Y-82050000D02*
X126452381Y-82050000D01*
X126595238Y-82145238D01*
X126690476Y-82240476D01*
X126738095Y-82335714D01*
X127452381Y-90336666D02*
X126976190Y-90670000D01*
X127452381Y-90908095D02*
X126452381Y-90908095D01*
X126452381Y-90527142D01*
X126500000Y-90431904D01*
X126547619Y-90384285D01*
X126642857Y-90336666D01*
X126785714Y-90336666D01*
X126880952Y-90384285D01*
X126928571Y-90431904D01*
X126976190Y-90527142D01*
X126976190Y-90908095D01*
X126547619Y-89955714D02*
X126500000Y-89908095D01*
X126452381Y-89812857D01*
X126452381Y-89574761D01*
X126500000Y-89479523D01*
X126547619Y-89431904D01*
X126642857Y-89384285D01*
X126738095Y-89384285D01*
X126880952Y-89431904D01*
X127452381Y-90003333D01*
X127452381Y-89384285D01*
X123698095Y-76652381D02*
X123698095Y-75652381D01*
X123698095Y-76128571D02*
X124269524Y-76128571D01*
X124269524Y-76652381D02*
X124269524Y-75652381D01*
X125269524Y-76652381D02*
X124698095Y-76652381D01*
X124983809Y-76652381D02*
X124983809Y-75652381D01*
X124888571Y-75795238D01*
X124793333Y-75890476D01*
X124698095Y-75938095D01*
X194818095Y-80462381D02*
X194818095Y-79462381D01*
X194818095Y-79938571D02*
X195389524Y-79938571D01*
X195389524Y-80462381D02*
X195389524Y-79462381D01*
X195770476Y-79462381D02*
X196389524Y-79462381D01*
X196056190Y-79843333D01*
X196199048Y-79843333D01*
X196294286Y-79890952D01*
X196341905Y-79938571D01*
X196389524Y-80033810D01*
X196389524Y-80271905D01*
X196341905Y-80367143D01*
X196294286Y-80414762D01*
X196199048Y-80462381D01*
X195913333Y-80462381D01*
X195818095Y-80414762D01*
X195770476Y-80367143D01*
X194818095Y-113592381D02*
X194818095Y-112592381D01*
X194818095Y-113068571D02*
X195389524Y-113068571D01*
X195389524Y-113592381D02*
X195389524Y-112592381D01*
X195770476Y-112592381D02*
X196389524Y-112592381D01*
X196056190Y-112973333D01*
X196199048Y-112973333D01*
X196294286Y-113020952D01*
X196341905Y-113068571D01*
X196389524Y-113163810D01*
X196389524Y-113401905D01*
X196341905Y-113497143D01*
X196294286Y-113544762D01*
X196199048Y-113592381D01*
X195913333Y-113592381D01*
X195818095Y-113544762D01*
X195770476Y-113497143D01*
X119888095Y-113592381D02*
X119888095Y-112592381D01*
X119888095Y-113068571D02*
X120459524Y-113068571D01*
X120459524Y-113592381D02*
X120459524Y-112592381D01*
X120888095Y-112687619D02*
X120935714Y-112640000D01*
X121030952Y-112592381D01*
X121269048Y-112592381D01*
X121364286Y-112640000D01*
X121411905Y-112687619D01*
X121459524Y-112782857D01*
X121459524Y-112878095D01*
X121411905Y-113020952D01*
X120840476Y-113592381D01*
X121459524Y-113592381D01*
X128992381Y-107441905D02*
X129801905Y-107441905D01*
X129897143Y-107394286D01*
X129944762Y-107346667D01*
X129992381Y-107251429D01*
X129992381Y-107060952D01*
X129944762Y-106965714D01*
X129897143Y-106918095D01*
X129801905Y-106870476D01*
X128992381Y-106870476D01*
X129992381Y-105870476D02*
X129992381Y-106441905D01*
X129992381Y-106156191D02*
X128992381Y-106156191D01*
X129135238Y-106251429D01*
X129230476Y-106346667D01*
X129278095Y-106441905D01*
X168362381Y-84581905D02*
X169171905Y-84581905D01*
X169267143Y-84534286D01*
X169314762Y-84486667D01*
X169362381Y-84391429D01*
X169362381Y-84200952D01*
X169314762Y-84105714D01*
X169267143Y-84058095D01*
X169171905Y-84010476D01*
X168362381Y-84010476D01*
X168695714Y-83105714D02*
X169362381Y-83105714D01*
X168314762Y-83343810D02*
X169029048Y-83581905D01*
X169029048Y-82962857D01*
X169632381Y-109981905D02*
X170441905Y-109981905D01*
X170537143Y-109934286D01*
X170584762Y-109886667D01*
X170632381Y-109791429D01*
X170632381Y-109600952D01*
X170584762Y-109505714D01*
X170537143Y-109458095D01*
X170441905Y-109410476D01*
X169632381Y-109410476D01*
X169632381Y-109029524D02*
X169632381Y-108410476D01*
X170013333Y-108743810D01*
X170013333Y-108600952D01*
X170060952Y-108505714D01*
X170108571Y-108458095D01*
X170203810Y-108410476D01*
X170441905Y-108410476D01*
X170537143Y-108458095D01*
X170584762Y-108505714D01*
X170632381Y-108600952D01*
X170632381Y-108886667D01*
X170584762Y-108981905D01*
X170537143Y-109029524D01*
M02*
