M48
;DRILL file {KiCad 4.0.7} date 09/09/17 09:11:14
;FORMAT={3:3/ absolute / metric / suppress leading zeros}
FMAT,2
METRIC,TZ
T1C0.330
T2C1.000
T3C2.700
%
G90
G05
M71
T1
X130810Y-97790
X135890Y-93980
X137160Y-97790
X147320Y-85090
X147320Y-90170
X147320Y-96520
X149860Y-83820
X149860Y-90170
X149860Y-96520
X154940Y-99060
X154940Y-102870
X154940Y-104140
X156210Y-86360
X160020Y-85090
X161290Y-83820
X170180Y-96520
X173990Y-104140
X173990Y-107950
X175260Y-106680
X177800Y-99060
X185420Y-104140
T2
X121285Y-81915
X121285Y-84455
X121285Y-88900
X121285Y-91440
X125730Y-95250
X127000Y-80010
X127000Y-85090
X127000Y-87630
X127000Y-92710
X128270Y-95250
X128270Y-118110
X130810Y-95250
X130810Y-118110
X132080Y-90170
X133350Y-77470
X133350Y-80010
X133350Y-82550
X133350Y-95250
X134580Y-90170
X156210Y-93980
X156210Y-96520
X156210Y-101600
X156210Y-116840
X158750Y-93980
X158750Y-96520
X158750Y-101600
X158750Y-116840
X161290Y-93980
X161290Y-96520
X161290Y-101600
X161290Y-116840
X163830Y-93980
X163830Y-96520
X163830Y-101600
X163830Y-116840
X166370Y-93980
X166370Y-96520
X166370Y-101600
X166370Y-116840
X168910Y-101600
X168910Y-116840
X171450Y-85090
X171450Y-87630
X171450Y-101600
X171450Y-110490
X171450Y-113030
X171450Y-116840
X173990Y-85090
X173990Y-87630
X173990Y-101600
X173990Y-110490
X173990Y-113030
X173990Y-116840
X176530Y-85090
X176530Y-87630
X176530Y-93980
X176530Y-96520
X176530Y-101600
X176530Y-110490
X176530Y-113030
X176530Y-116840
X179070Y-85090
X179070Y-87630
X179070Y-93980
X179070Y-96520
X179070Y-101600
X179070Y-110490
X179070Y-113030
X179070Y-116840
X181610Y-85090
X181610Y-87630
X181610Y-93980
X181610Y-96520
X181610Y-101600
X181610Y-110490
X181610Y-113030
X181610Y-116840
X184150Y-93980
X184150Y-96520
X184150Y-101600
X186690Y-93980
X186690Y-96520
T3
X120650Y-76200
X120650Y-116840
X195580Y-76200
X195580Y-116840
T0
M30
